M48
; DRILL file {KiCad 8.0.2} date 2024-10-13T20:57:58-0500
; FORMAT={-:-/ absolute / metric / decimal}
; #@! TF.CreationDate,2024-10-13T20:57:58-05:00
; #@! TF.GenerationSoftware,Kicad,Pcbnew,8.0.2
; #@! TF.FileFunction,Plated,1,8,PTH
FMAT,2
METRIC
; #@! TA.AperFunction,Plated,PTH,ViaDrill
T1C0.160
; #@! TA.AperFunction,Plated,PTH,ViaDrill
T2C0.200
; #@! TA.AperFunction,Plated,PTH,ViaDrill
T3C0.400
; #@! TA.AperFunction,Plated,PTH,ComponentDrill
T4C0.400
; #@! TA.AperFunction,Plated,PTH,ComponentDrill
T5C0.635
; #@! TA.AperFunction,Plated,PTH,ComponentDrill
T6C0.900
; #@! TA.AperFunction,Plated,PTH,ComponentDrill
T7C1.168
; #@! TA.AperFunction,Plated,PTH,ComponentDrill
T8C1.524
%
G90
G05
T1
X54.577Y79.24
X55.077Y79.24
X55.577Y79.24
X56.077Y79.24
X56.577Y79.24
T2
X16.2Y43.5
X16.26Y61.55
X16.38Y25.72
X16.91Y61.55
X16.955Y43.5
X16.975Y25.725
X19.502Y16.385
X20.577Y14.2
X20.625Y77.305
X21.45Y77.755
X21.827Y81.76
X21.985Y48.22
X22.025Y16.85
X22.577Y12.0
X22.66Y30.335
X22.725Y34.488
X22.751Y21.313
X22.777Y31.913
X22.827Y56.635
X22.827Y39.065
X22.835Y58.31
X22.835Y41.36
X23.025Y31.12
X23.145Y15.905
X23.345Y50.56
X23.377Y28.507
X23.49Y20.54
X23.57Y46.505
X23.7Y76.74
X23.71Y19.57
X23.995Y37.675
X24.08Y63.65
X24.1Y55.195
X24.677Y37.688
X24.705Y55.18
X24.877Y16.29
X24.99Y19.85
X25.577Y48.29
X25.727Y47.515
X26.35Y18.95
X26.854Y28.464
X26.935Y26.33
X26.938Y26.777
X27.217Y62.197
X27.227Y61.545
X27.252Y44.335
X27.277Y45.02
X27.43Y21.069
X27.725Y23.385
X27.752Y39.475
X27.767Y22.786
X27.807Y47.015
X27.91Y16.75
X27.975Y63.14
X27.975Y29.088
X27.985Y52.19
X27.999Y19.404
X28.037Y49.655
X28.045Y55.34
X28.252Y36.665
X28.277Y35.94
X28.927Y27.315
X29.077Y17.54
X29.377Y49.46
X29.695Y78.29
X29.977Y16.54
X30.18Y33.63
X30.327Y49.46
X30.377Y44.84
X30.402Y61.44
X30.402Y60.565
X30.402Y25.89
X30.427Y16.11
X30.452Y20.565
X30.452Y19.315
X30.452Y18.565
X30.515Y17.565
X30.577Y44.19
X30.777Y50.94
X30.927Y51.64
X30.927Y37.865
X30.927Y37.04
X30.977Y28.825
X31.093Y80.69
X31.093Y79.99
X31.093Y78.99
X31.093Y78.29
X31.152Y21.815
X31.5Y29.34
X31.993Y80.69
X31.993Y78.29
X32.045Y19.005
X32.165Y63.325
X32.227Y40.39
X32.252Y43.015
X32.352Y56.215
X32.388Y23.997
X32.43Y29.235
X32.45Y30.51
X32.465Y29.865
X32.877Y13.9
X32.893Y80.69
X32.893Y79.99
X32.893Y78.99
X32.893Y78.29
X33.052Y63.3
X33.077Y33.465
X33.133Y21.514
X33.177Y25.89
X33.302Y40.39
X33.328Y56.292
X33.352Y38.765
X33.433Y23.805
X33.537Y46.24
X33.818Y54.74
X33.927Y46.84
X33.927Y30.29
X33.927Y25.761
X33.927Y17.915
X34.025Y21.417
X34.077Y45.54
X34.437Y56.11
X34.437Y49.65
X34.902Y42.04
X34.927Y17.74
X35.247Y80.59
X35.427Y18.315
X35.427Y15.265
X35.477Y60.21
X35.602Y62.365
X35.602Y61.24
X35.627Y59.34
X35.852Y42.79
X35.918Y17.74
X35.927Y30.465
X35.927Y26.84
X35.927Y20.915
X36.24Y83.025
X36.247Y80.59
X36.402Y59.34
X36.402Y24.865
X36.972Y25.366
X37.002Y55.99
X37.027Y19.725
X37.052Y33.84
X37.277Y52.54
X37.577Y24.565
X37.602Y26.3
X37.902Y55.977
X38.227Y21.44
X38.242Y25.711
X38.302Y83.865
X38.827Y34.957
X38.902Y25.065
X39.302Y83.865
X39.4Y20.64
X39.63Y18.935
X39.677Y20.065
X39.852Y75.9
X39.931Y21.065
X39.977Y25.065
X40.177Y27.415
X40.277Y35.89
X40.302Y83.865
X40.302Y56.105
X40.31Y34.957
X40.318Y34.29
X40.327Y39.09
X40.327Y38.29
X40.327Y37.49
X41.077Y82.24
X41.227Y17.39
X41.305Y30.335
X41.352Y31.215
X41.352Y29.565
X41.352Y28.84
X41.352Y16.29
X41.641Y53.565
X41.777Y47.665
X41.977Y44.915
X42.193Y23.332
X42.453Y24.942
X42.527Y20.065
X42.527Y17.815
X42.602Y56.84
X42.958Y37.59
X42.958Y36.74
X43.127Y57.39
X43.258Y37.165
X43.33Y40.775
X43.677Y20.965
X43.827Y57.39
X44.427Y60.39
X44.43Y31.485
X44.477Y82.04
X44.827Y31.945
X45.016Y53.64
X45.052Y76.75
X45.477Y25.975
X45.552Y17.79
X45.827Y60.39
X45.945Y31.505
X46.002Y32.59
X46.565Y37.98
X46.952Y50.815
X47.252Y32.59
X47.454Y40.265
X47.505Y33.22
X47.877Y30.34
X48.427Y59.44
X48.627Y45.662
X48.629Y44.991
X49.252Y45.662
X49.254Y44.991
X49.852Y45.662
X49.854Y44.991
X50.165Y29.128
X50.727Y48.26
X51.077Y23.56
X51.107Y30.99
X51.107Y28.45
X51.755Y35.49
X51.817Y58.797
X51.817Y38.335
X51.817Y18.0
X51.825Y20.38
X51.827Y51.26
X52.127Y50.61
X52.277Y40.41
X52.377Y55.61
X52.377Y20.814
X52.427Y53.01
X52.527Y61.47
X52.527Y56.39
X52.527Y53.85
X52.527Y48.77
X52.527Y46.23
X52.527Y45.51
X52.527Y43.69
X52.527Y42.81
X52.527Y41.15
X52.527Y33.53
X52.527Y17.65
X52.56Y47.625
X52.577Y32.71
X52.677Y29.71
X52.727Y26.81
X52.727Y26.16
X52.727Y25.51
X52.727Y21.31
X52.805Y63.385
X52.875Y60.73
X52.905Y37.775
X52.915Y35.61
X52.965Y58.735
X52.97Y17.08
T3
X22.635Y63.55
X22.675Y29.46
X22.69Y24.19
X22.72Y60.58
X22.72Y59.18
X22.775Y47.135
X22.827Y43.235
X22.827Y42.135
X23.302Y13.3
X24.052Y51.39
X24.052Y33.813
X27.085Y20.37
X29.405Y32.305
X30.765Y31.08
X39.902Y40.315
X42.602Y24.065
X42.615Y31.15
X43.852Y27.865
X44.852Y46.69
X44.877Y44.74
X45.702Y41.04
X45.827Y58.04
X46.777Y58.04
X47.727Y60.54
X47.727Y58.04
X49.277Y40.615
X49.702Y55.815
X50.749Y37.04
X50.795Y29.735
X51.177Y15.325
X51.177Y12.8
T4
X41.235Y62.535
X41.235Y61.265
T5
X18.572Y74.027
X20.86Y74.03
X52.46Y74.03
X53.035Y82.93
X53.04Y78.93
X54.75Y74.03
T6
X61.977Y62.323
X61.977Y59.783
X61.977Y57.243
X61.977Y54.703
X61.977Y52.163
X61.977Y49.623
X61.977Y47.083
X61.977Y44.543
X61.977Y42.003
X61.977Y39.463
X61.977Y36.923
X61.977Y34.383
X61.977Y31.843
X61.977Y29.303
X61.977Y26.763
X61.977Y24.223
X61.977Y21.683
X61.977Y19.143
X64.517Y62.323
X64.517Y59.783
X64.517Y57.243
X64.517Y54.703
X64.517Y52.163
X64.517Y49.623
X64.517Y47.083
X64.517Y44.543
X64.517Y42.003
X64.517Y39.463
X64.517Y36.923
X64.517Y34.383
X64.517Y31.843
X64.517Y29.303
X64.517Y26.763
X64.517Y24.223
X64.517Y21.683
X64.517Y19.143
T7
X12.311Y53.759
X12.328Y36.163
X12.328Y18.586
T8
X12.311Y62.801
X12.328Y45.205
X12.328Y27.628
M30
