M48
; DRILL file {KiCad 8.0.2} date 2024-10-13T20:57:58-0500
; FORMAT={-:-/ absolute / metric / decimal}
; #@! TF.CreationDate,2024-10-13T20:57:58-05:00
; #@! TF.GenerationSoftware,Kicad,Pcbnew,8.0.2
; #@! TF.FileFunction,Plated,7,8,Blind
FMAT,2
METRIC
; #@! TA.AperFunction,Plated,Buried,ViaDrill
T1C0.160
; #@! TA.AperFunction,Plated,Buried,ViaDrill
T2C0.200
%
G90
G05
T1
X21.585Y49.675
X21.585Y32.095
X22.951Y27.763
X23.035Y62.68
X23.25Y45.455
X23.277Y53.141
X23.277Y35.564
X23.317Y24.525
X23.317Y23.525
X23.317Y22.525
X23.44Y17.89
X23.625Y42.005
X23.625Y41.005
X23.625Y40.005
X23.76Y59.17
X23.76Y58.17
X23.76Y57.17
X23.817Y23.525
X24.125Y41.005
X24.26Y58.17
X24.277Y53.141
X24.317Y24.525
X24.317Y24.025
X24.317Y23.525
X24.317Y23.025
X24.317Y22.525
X24.33Y35.55
X24.46Y17.89
X24.625Y42.005
X24.625Y41.505
X24.625Y41.005
X24.625Y40.505
X24.625Y40.005
X24.76Y59.17
X24.76Y58.67
X24.76Y58.17
X24.76Y57.67
X24.76Y57.17
X24.817Y23.525
X24.951Y27.763
X25.0Y28.615
X25.12Y62.675
X25.125Y41.005
X25.25Y45.455
X25.26Y58.17
X25.315Y22.525
X25.321Y24.525
X25.321Y23.525
X25.35Y63.515
X25.377Y50.44
X25.377Y32.863
X25.623Y40.005
X25.63Y42.005
X25.63Y41.005
X25.75Y59.17
X25.758Y57.17
X25.765Y58.17
X25.951Y27.763
X26.077Y52.94
X26.175Y62.68
X26.25Y45.455
X26.49Y16.415
X26.577Y52.94
X26.577Y35.363
X26.99Y16.415
X27.839Y56.14
X27.839Y40.288
X27.902Y48.565
X29.327Y57.14
X29.327Y41.288
X29.352Y24.336
X29.352Y23.215
X29.46Y35.395
X29.995Y25.255
X30.627Y58.14
X30.627Y42.288
X31.202Y47.69
X31.577Y50.877
X31.656Y61.247
X31.656Y45.395
X31.827Y18.098
X31.977Y50.877
X31.981Y27.493
X32.07Y53.64
X32.07Y37.788
X32.07Y20.861
X32.227Y35.438
X32.227Y35.038
X32.227Y34.638
X32.227Y18.098
X32.377Y50.877
X32.627Y18.098
X32.765Y15.665
X33.202Y48.728
X35.677Y19.065
X36.652Y45.54
X36.977Y54.765
X37.252Y15.02
X37.277Y49.99
X37.927Y57.415
X38.077Y39.625
X38.877Y23.295
X39.002Y56.565
X39.512Y32.472
X39.527Y35.89
X41.127Y19.29
X42.377Y58.69
X43.877Y19.34
X44.402Y16.89
X44.402Y16.465
X44.402Y16.0
X46.202Y19.365
X46.227Y27.29
X46.777Y61.565
X48.379Y39.69
X48.477Y25.815
X49.256Y19.365
X49.329Y34.965
X52.402Y19.34
T2
X42.958Y39.89
X42.958Y39.19
X42.958Y38.515
X43.658Y39.89
X43.658Y39.19
X43.658Y38.515
M30
