%TF.GenerationSoftware,KiCad,Pcbnew,8.0.2*%
%TF.CreationDate,2024-10-13T20:58:55-05:00*%
%TF.ProjectId,PM1C_Rev_1_2,504d3143-5f52-4657-965f-315f322e6b69,1*%
%TF.SameCoordinates,PX297003ePY8770cd2*%
%TF.FileFunction,Copper,L3,Inr*%
%TF.FilePolarity,Positive*%
%FSLAX46Y46*%
G04 Gerber Fmt 4.6, Leading zero omitted, Abs format (unit mm)*
G04 Created by KiCad (PCBNEW 8.0.2) date 2024-10-13 20:58:55*
%MOMM*%
%LPD*%
G01*
G04 APERTURE LIST*
%ADD10C,0.200000*%
%TA.AperFunction,NonConductor*%
%ADD11C,0.200000*%
%TD*%
%TA.AperFunction,ComponentPad*%
%ADD12O,4.064000X2.540000*%
%TD*%
%TA.AperFunction,ComponentPad*%
%ADD13O,4.064000X1.828800*%
%TD*%
%TA.AperFunction,ComponentPad*%
%ADD14R,1.500000X1.500000*%
%TD*%
%TA.AperFunction,ComponentPad*%
%ADD15C,1.500000*%
%TD*%
%TA.AperFunction,ComponentPad*%
%ADD16C,0.800000*%
%TD*%
%TA.AperFunction,ComponentPad*%
%ADD17C,1.143000*%
%TD*%
%TA.AperFunction,ComponentPad*%
%ADD18C,1.141748*%
%TD*%
%TA.AperFunction,ViaPad*%
%ADD19C,0.450000*%
%TD*%
%TA.AperFunction,ViaPad*%
%ADD20C,0.800000*%
%TD*%
%TA.AperFunction,ViaPad*%
%ADD21C,0.360000*%
%TD*%
%TA.AperFunction,Conductor*%
%ADD22C,0.254000*%
%TD*%
%TA.AperFunction,Conductor*%
%ADD23C,0.200000*%
%TD*%
%TA.AperFunction,Conductor*%
%ADD24C,0.250000*%
%TD*%
%TA.AperFunction,Conductor*%
%ADD25C,0.400000*%
%TD*%
%TA.AperFunction,Conductor*%
%ADD26C,0.600000*%
%TD*%
%TA.AperFunction,Conductor*%
%ADD27C,0.500000*%
%TD*%
G04 APERTURE END LIST*
D10*
D11*
X17761954Y-3699513D02*
X16809573Y-3699513D01*
X16809573Y-3699513D02*
X16809573Y-1699513D01*
X19285764Y-3699513D02*
X19285764Y-2651894D01*
X19285764Y-2651894D02*
X19190526Y-2461417D01*
X19190526Y-2461417D02*
X19000050Y-2366179D01*
X19000050Y-2366179D02*
X18619097Y-2366179D01*
X18619097Y-2366179D02*
X18428621Y-2461417D01*
X19285764Y-3604275D02*
X19095288Y-3699513D01*
X19095288Y-3699513D02*
X18619097Y-3699513D01*
X18619097Y-3699513D02*
X18428621Y-3604275D01*
X18428621Y-3604275D02*
X18333383Y-3413798D01*
X18333383Y-3413798D02*
X18333383Y-3223322D01*
X18333383Y-3223322D02*
X18428621Y-3032846D01*
X18428621Y-3032846D02*
X18619097Y-2937608D01*
X18619097Y-2937608D02*
X19095288Y-2937608D01*
X19095288Y-2937608D02*
X19285764Y-2842370D01*
X20047669Y-2366179D02*
X20523859Y-3699513D01*
X21000050Y-2366179D02*
X20523859Y-3699513D01*
X20523859Y-3699513D02*
X20333383Y-4175703D01*
X20333383Y-4175703D02*
X20238145Y-4270941D01*
X20238145Y-4270941D02*
X20047669Y-4366179D01*
X22523860Y-3604275D02*
X22333384Y-3699513D01*
X22333384Y-3699513D02*
X21952431Y-3699513D01*
X21952431Y-3699513D02*
X21761955Y-3604275D01*
X21761955Y-3604275D02*
X21666717Y-3413798D01*
X21666717Y-3413798D02*
X21666717Y-2651894D01*
X21666717Y-2651894D02*
X21761955Y-2461417D01*
X21761955Y-2461417D02*
X21952431Y-2366179D01*
X21952431Y-2366179D02*
X22333384Y-2366179D01*
X22333384Y-2366179D02*
X22523860Y-2461417D01*
X22523860Y-2461417D02*
X22619098Y-2651894D01*
X22619098Y-2651894D02*
X22619098Y-2842370D01*
X22619098Y-2842370D02*
X21666717Y-3032846D01*
X23476241Y-3699513D02*
X23476241Y-2366179D01*
X23476241Y-2747132D02*
X23571479Y-2556655D01*
X23571479Y-2556655D02*
X23666717Y-2461417D01*
X23666717Y-2461417D02*
X23857193Y-2366179D01*
X23857193Y-2366179D02*
X24047670Y-2366179D01*
X26047670Y-1699513D02*
X27285765Y-1699513D01*
X27285765Y-1699513D02*
X26619098Y-2461417D01*
X26619098Y-2461417D02*
X26904813Y-2461417D01*
X26904813Y-2461417D02*
X27095289Y-2556655D01*
X27095289Y-2556655D02*
X27190527Y-2651894D01*
X27190527Y-2651894D02*
X27285765Y-2842370D01*
X27285765Y-2842370D02*
X27285765Y-3318560D01*
X27285765Y-3318560D02*
X27190527Y-3509036D01*
X27190527Y-3509036D02*
X27095289Y-3604275D01*
X27095289Y-3604275D02*
X26904813Y-3699513D01*
X26904813Y-3699513D02*
X26333384Y-3699513D01*
X26333384Y-3699513D02*
X26142908Y-3604275D01*
X26142908Y-3604275D02*
X26047670Y-3509036D01*
X29666718Y-2937608D02*
X31190528Y-2937608D01*
X34809575Y-3699513D02*
X34142908Y-2747132D01*
X33666718Y-3699513D02*
X33666718Y-1699513D01*
X33666718Y-1699513D02*
X34428623Y-1699513D01*
X34428623Y-1699513D02*
X34619099Y-1794751D01*
X34619099Y-1794751D02*
X34714337Y-1889989D01*
X34714337Y-1889989D02*
X34809575Y-2080465D01*
X34809575Y-2080465D02*
X34809575Y-2366179D01*
X34809575Y-2366179D02*
X34714337Y-2556655D01*
X34714337Y-2556655D02*
X34619099Y-2651894D01*
X34619099Y-2651894D02*
X34428623Y-2747132D01*
X34428623Y-2747132D02*
X33666718Y-2747132D01*
X35666718Y-3699513D02*
X35666718Y-2366179D01*
X35666718Y-1699513D02*
X35571480Y-1794751D01*
X35571480Y-1794751D02*
X35666718Y-1889989D01*
X35666718Y-1889989D02*
X35761956Y-1794751D01*
X35761956Y-1794751D02*
X35666718Y-1699513D01*
X35666718Y-1699513D02*
X35666718Y-1889989D01*
X37476242Y-2366179D02*
X37476242Y-3985227D01*
X37476242Y-3985227D02*
X37381004Y-4175703D01*
X37381004Y-4175703D02*
X37285766Y-4270941D01*
X37285766Y-4270941D02*
X37095289Y-4366179D01*
X37095289Y-4366179D02*
X36809575Y-4366179D01*
X36809575Y-4366179D02*
X36619099Y-4270941D01*
X37476242Y-3604275D02*
X37285766Y-3699513D01*
X37285766Y-3699513D02*
X36904813Y-3699513D01*
X36904813Y-3699513D02*
X36714337Y-3604275D01*
X36714337Y-3604275D02*
X36619099Y-3509036D01*
X36619099Y-3509036D02*
X36523861Y-3318560D01*
X36523861Y-3318560D02*
X36523861Y-2747132D01*
X36523861Y-2747132D02*
X36619099Y-2556655D01*
X36619099Y-2556655D02*
X36714337Y-2461417D01*
X36714337Y-2461417D02*
X36904813Y-2366179D01*
X36904813Y-2366179D02*
X37285766Y-2366179D01*
X37285766Y-2366179D02*
X37476242Y-2461417D01*
X38428623Y-3699513D02*
X38428623Y-2366179D01*
X38428623Y-1699513D02*
X38333385Y-1794751D01*
X38333385Y-1794751D02*
X38428623Y-1889989D01*
X38428623Y-1889989D02*
X38523861Y-1794751D01*
X38523861Y-1794751D02*
X38428623Y-1699513D01*
X38428623Y-1699513D02*
X38428623Y-1889989D01*
X40238147Y-3699513D02*
X40238147Y-1699513D01*
X40238147Y-3604275D02*
X40047671Y-3699513D01*
X40047671Y-3699513D02*
X39666718Y-3699513D01*
X39666718Y-3699513D02*
X39476242Y-3604275D01*
X39476242Y-3604275D02*
X39381004Y-3509036D01*
X39381004Y-3509036D02*
X39285766Y-3318560D01*
X39285766Y-3318560D02*
X39285766Y-2747132D01*
X39285766Y-2747132D02*
X39381004Y-2556655D01*
X39381004Y-2556655D02*
X39476242Y-2461417D01*
X39476242Y-2461417D02*
X39666718Y-2366179D01*
X39666718Y-2366179D02*
X40047671Y-2366179D01*
X40047671Y-2366179D02*
X40238147Y-2461417D01*
X42619100Y-3604275D02*
X42904814Y-3699513D01*
X42904814Y-3699513D02*
X43381005Y-3699513D01*
X43381005Y-3699513D02*
X43571481Y-3604275D01*
X43571481Y-3604275D02*
X43666719Y-3509036D01*
X43666719Y-3509036D02*
X43761957Y-3318560D01*
X43761957Y-3318560D02*
X43761957Y-3128084D01*
X43761957Y-3128084D02*
X43666719Y-2937608D01*
X43666719Y-2937608D02*
X43571481Y-2842370D01*
X43571481Y-2842370D02*
X43381005Y-2747132D01*
X43381005Y-2747132D02*
X43000052Y-2651894D01*
X43000052Y-2651894D02*
X42809576Y-2556655D01*
X42809576Y-2556655D02*
X42714338Y-2461417D01*
X42714338Y-2461417D02*
X42619100Y-2270941D01*
X42619100Y-2270941D02*
X42619100Y-2080465D01*
X42619100Y-2080465D02*
X42714338Y-1889989D01*
X42714338Y-1889989D02*
X42809576Y-1794751D01*
X42809576Y-1794751D02*
X43000052Y-1699513D01*
X43000052Y-1699513D02*
X43476243Y-1699513D01*
X43476243Y-1699513D02*
X43761957Y-1794751D01*
X44619100Y-3699513D02*
X44619100Y-2366179D01*
X44619100Y-1699513D02*
X44523862Y-1794751D01*
X44523862Y-1794751D02*
X44619100Y-1889989D01*
X44619100Y-1889989D02*
X44714338Y-1794751D01*
X44714338Y-1794751D02*
X44619100Y-1699513D01*
X44619100Y-1699513D02*
X44619100Y-1889989D01*
X46428624Y-2366179D02*
X46428624Y-3985227D01*
X46428624Y-3985227D02*
X46333386Y-4175703D01*
X46333386Y-4175703D02*
X46238148Y-4270941D01*
X46238148Y-4270941D02*
X46047671Y-4366179D01*
X46047671Y-4366179D02*
X45761957Y-4366179D01*
X45761957Y-4366179D02*
X45571481Y-4270941D01*
X46428624Y-3604275D02*
X46238148Y-3699513D01*
X46238148Y-3699513D02*
X45857195Y-3699513D01*
X45857195Y-3699513D02*
X45666719Y-3604275D01*
X45666719Y-3604275D02*
X45571481Y-3509036D01*
X45571481Y-3509036D02*
X45476243Y-3318560D01*
X45476243Y-3318560D02*
X45476243Y-2747132D01*
X45476243Y-2747132D02*
X45571481Y-2556655D01*
X45571481Y-2556655D02*
X45666719Y-2461417D01*
X45666719Y-2461417D02*
X45857195Y-2366179D01*
X45857195Y-2366179D02*
X46238148Y-2366179D01*
X46238148Y-2366179D02*
X46428624Y-2461417D01*
X47381005Y-2366179D02*
X47381005Y-3699513D01*
X47381005Y-2556655D02*
X47476243Y-2461417D01*
X47476243Y-2461417D02*
X47666719Y-2366179D01*
X47666719Y-2366179D02*
X47952434Y-2366179D01*
X47952434Y-2366179D02*
X48142910Y-2461417D01*
X48142910Y-2461417D02*
X48238148Y-2651894D01*
X48238148Y-2651894D02*
X48238148Y-3699513D01*
X50047672Y-3699513D02*
X50047672Y-2651894D01*
X50047672Y-2651894D02*
X49952434Y-2461417D01*
X49952434Y-2461417D02*
X49761958Y-2366179D01*
X49761958Y-2366179D02*
X49381005Y-2366179D01*
X49381005Y-2366179D02*
X49190529Y-2461417D01*
X50047672Y-3604275D02*
X49857196Y-3699513D01*
X49857196Y-3699513D02*
X49381005Y-3699513D01*
X49381005Y-3699513D02*
X49190529Y-3604275D01*
X49190529Y-3604275D02*
X49095291Y-3413798D01*
X49095291Y-3413798D02*
X49095291Y-3223322D01*
X49095291Y-3223322D02*
X49190529Y-3032846D01*
X49190529Y-3032846D02*
X49381005Y-2937608D01*
X49381005Y-2937608D02*
X49857196Y-2937608D01*
X49857196Y-2937608D02*
X50047672Y-2842370D01*
X51285767Y-3699513D02*
X51095291Y-3604275D01*
X51095291Y-3604275D02*
X51000053Y-3413798D01*
X51000053Y-3413798D02*
X51000053Y-1699513D01*
X54619101Y-3699513D02*
X53476244Y-3699513D01*
X54047672Y-3699513D02*
X54047672Y-1699513D01*
X54047672Y-1699513D02*
X53857196Y-1985227D01*
X53857196Y-1985227D02*
X53666720Y-2175703D01*
X53666720Y-2175703D02*
X53476244Y-2270941D01*
D10*
D11*
X28392292Y4955162D02*
X29630387Y4955162D01*
X29630387Y4955162D02*
X28963720Y4193258D01*
X28963720Y4193258D02*
X29249435Y4193258D01*
X29249435Y4193258D02*
X29439911Y4098020D01*
X29439911Y4098020D02*
X29535149Y4002781D01*
X29535149Y4002781D02*
X29630387Y3812305D01*
X29630387Y3812305D02*
X29630387Y3336115D01*
X29630387Y3336115D02*
X29535149Y3145639D01*
X29535149Y3145639D02*
X29439911Y3050400D01*
X29439911Y3050400D02*
X29249435Y2955162D01*
X29249435Y2955162D02*
X28678006Y2955162D01*
X28678006Y2955162D02*
X28487530Y3050400D01*
X28487530Y3050400D02*
X28392292Y3145639D01*
D12*
%TO.N,Net-(BAT2-+)*%
%TO.C,BAT2*%
X12528200Y45005150D03*
D13*
%TO.N,Net-(BAT2--)*%
X12528200Y36362750D03*
%TD*%
D12*
%TO.N,Net-(BAT1-+)*%
%TO.C,BAT1*%
X12511180Y62601390D03*
D13*
%TO.N,Net-(BAT1--)*%
X12511180Y53958990D03*
%TD*%
D14*
%TO.N,/Test Points/RXCAN*%
%TO.C,H1*%
X64517200Y19142830D03*
D15*
%TO.N,3V3*%
X61977200Y19142830D03*
%TO.N,/Test Points/TXCAN*%
X64517200Y21682830D03*
%TO.N,GND*%
X61977200Y21682830D03*
%TO.N,/Test Points/SCK0*%
X64517200Y24222830D03*
%TO.N,TCK_CPLD*%
X61977200Y24222830D03*
%TO.N,/Test Points/MOSI0*%
X64517200Y26762830D03*
%TO.N,TDO_CPLD*%
X61977200Y26762830D03*
%TO.N,/Test Points/MISO0*%
X64517200Y29302830D03*
%TO.N,TDI_CPLD*%
X61977200Y29302830D03*
%TO.N,/Test Points/SCK1*%
X64517200Y31842830D03*
%TO.N,TMS_CPLD*%
X61977200Y31842830D03*
%TO.N,/Test Points/MOSI1*%
X64517200Y34382830D03*
%TO.N,/Test Points/TXD0*%
X61977200Y34382830D03*
%TO.N,/Test Points/MISO1*%
X64517200Y36922830D03*
%TO.N,/Test Points/RXD0*%
X61977200Y36922830D03*
%TO.N,GND*%
X64517200Y39462830D03*
X61977200Y39462830D03*
%TO.N,/I2C Multiplexing/SCLOCK*%
X64517200Y42002830D03*
%TO.N,nRESET*%
X61977200Y42002830D03*
%TO.N,/I2C Multiplexing/SDATA*%
X64517200Y44542830D03*
%TO.N,nDRESET*%
X61977200Y44542830D03*
%TO.N,VSYS*%
X64517200Y47082830D03*
%TO.N,nBOOT*%
X61977200Y47082830D03*
%TO.N,VSUPPLY*%
X64517200Y49622830D03*
%TO.N,/Microcontroller/nTRST_LPC*%
X61977200Y49622830D03*
%TO.N,VNET*%
X64517200Y52162830D03*
%TO.N,/Microcontroller/TCK_LPC*%
X61977200Y52162830D03*
%TO.N,n3V3*%
X64517200Y54702830D03*
%TO.N,/Microcontroller/TMS_LPC*%
X61977200Y54702830D03*
%TO.N,1V8*%
X64517200Y57242830D03*
%TO.N,/Microcontroller/TDO_LPC*%
X61977200Y57242830D03*
%TO.N,VREC*%
X64517200Y59782830D03*
%TO.N,/Microcontroller/TDI_LPC*%
X61977200Y59782830D03*
%TO.N,GND*%
X64517200Y62322830D03*
%TO.N,/Microcontroller/RTCK_LPC*%
X61977200Y62322830D03*
%TD*%
D12*
%TO.N,Net-(BAT3-+)*%
%TO.C,BAT3*%
X12528200Y27428350D03*
D13*
%TO.N,Net-(BAT3--)*%
X12528200Y18785950D03*
%TD*%
D16*
%TO.N,Net-(U1-IN+)*%
%TO.C,RV1*%
X41234900Y61265290D03*
%TO.N,GND*%
X41234900Y62535290D03*
%TD*%
D17*
%TO.N,BUSA*%
%TO.C,J1*%
X54749600Y74029700D03*
%TO.N,BUSB*%
X52459600Y74029700D03*
X20859600Y74029700D03*
D18*
%TO.N,BUSA*%
X18572137Y74027305D03*
D17*
%TO.N,RADANT*%
X53039600Y78929700D03*
%TO.N,ENCL*%
X53034600Y82929700D03*
%TD*%
D19*
%TO.N,nRESET*%
X46952200Y50815350D03*
X40177200Y27415350D03*
X29977200Y16540350D03*
X44827200Y31944700D03*
X52527200Y41150350D03*
%TO.N,/Microcontroller/LOAD_AN*%
X33927200Y25761340D03*
%TO.N,VNET*%
X41777200Y47665350D03*
X52427200Y53009840D03*
X41640860Y53565360D03*
X33537200Y46240350D03*
X47877200Y30340350D03*
%TO.N,/Microcontroller/RTCK_LPC*%
X52527200Y61470350D03*
X39400000Y20640350D03*
%TO.N,/CPLD/DISCHG*%
X35852200Y42790350D03*
X34927200Y17740350D03*
%TO.N,/Battery 1 Conditioning/nSHDNBT1*%
X27806530Y47015350D03*
X32045000Y19005000D03*
%TO.N,/Test Points/TXD0*%
X39630000Y18935000D03*
X52527200Y33530350D03*
%TO.N,Net-(U46-VDDA_(1V8))*%
X42527200Y17815470D03*
D20*
X39902200Y40315350D03*
D19*
X27999325Y19403922D03*
X28927200Y27315350D03*
%TO.N,/Battery 3 Conditioning/nSHDNCHG3*%
X27766538Y22786437D03*
X38902200Y25065350D03*
%TO.N,TMS_CPLD*%
X40327200Y39090350D03*
X51107200Y30990350D03*
%TO.N,/I2C Multiplexing/SCLOCK*%
X24677400Y37688350D03*
X43827200Y57390350D03*
X26349570Y18949794D03*
X37002200Y55990350D03*
X39931210Y21065350D03*
X44429600Y31484700D03*
X52527200Y42809840D03*
X20624600Y77304700D03*
X30402200Y60565350D03*
X24704570Y55179794D03*
%TO.N,/I2C Multiplexing/SDATA*%
X24877200Y16290350D03*
X30402200Y61440350D03*
X52527200Y45509840D03*
X42193426Y23331574D03*
X21449600Y77754700D03*
X43127200Y57390350D03*
X23489570Y20539794D03*
X21984570Y48219794D03*
X23024570Y31119794D03*
X22024570Y16849794D03*
X45944600Y31504700D03*
X37902200Y55976780D03*
%TO.N,TDO_CPLD*%
X52727200Y26159840D03*
X30927200Y37040350D03*
%TO.N,3V3*%
X22577200Y12000350D03*
X21827200Y81759840D03*
X22834570Y58309794D03*
X32164700Y63325350D03*
X22834570Y41359794D03*
X36402200Y59340350D03*
X41227200Y17390350D03*
X44427200Y60390350D03*
X45477200Y25975350D03*
X40309570Y34957030D03*
X27909570Y16749794D03*
X32465000Y29865000D03*
X27975060Y29088210D03*
X22659570Y30334794D03*
X22724570Y34488232D03*
X41977200Y44915350D03*
X42602200Y56840350D03*
D20*
X49277200Y40615350D03*
D19*
X29695000Y78290350D03*
X30977200Y28825350D03*
X25577200Y48290350D03*
X51817200Y18000350D03*
X28277200Y35940350D03*
X23709570Y19569794D03*
X23344570Y50559794D03*
X45552200Y17790350D03*
X27975060Y63140350D03*
X33818160Y54740350D03*
%TO.N,TDI_CPLD*%
X51107200Y28450350D03*
X40317890Y34290350D03*
%TO.N,/Microcontroller/TCK_LPC*%
X35927200Y20915350D03*
X31152200Y21815350D03*
X51827200Y51259840D03*
%TO.N,TCK_CPLD*%
X51077200Y23559840D03*
X33352200Y38765350D03*
%TO.N,/Microcontroller/THRM*%
X36402200Y24865350D03*
%TO.N,nBOOT*%
X52527200Y46230350D03*
X33177200Y25890350D03*
X30377200Y44840350D03*
%TO.N,/Battery 1 Conditioning/nSHDNCHG1*%
X33927200Y17915350D03*
X28045000Y55340350D03*
%TO.N,/Microcontroller/TMS_LPC*%
X52527200Y53850350D03*
X30402200Y25890350D03*
%TO.N,/Microcontroller/nTRST_LPC*%
X42527080Y20065350D03*
X52527200Y48770350D03*
%TO.N,/Microcontroller/TDO_LPC*%
X52527200Y56390350D03*
X30452200Y18565350D03*
%TO.N,/Microcontroller/nCSRAM*%
X37027200Y19725350D03*
%TO.N,/Test Points/SCK1*%
X29377200Y49459840D03*
X31500000Y29340350D03*
X52577200Y32709840D03*
X39302330Y83865190D03*
%TO.N,/Test Points/MISO0*%
X42453425Y24941575D03*
X52677200Y29709840D03*
X37577200Y24565350D03*
%TO.N,/Battery 2 Conditioning/nSHDNCHG2*%
X35927200Y30465350D03*
X27752200Y39475000D03*
%TO.N,/Battery 3 Conditioning/nSHDNBT3*%
X37602200Y26300350D03*
%TO.N,RADINT0*%
X32430000Y29235000D03*
X36247130Y80590190D03*
%TO.N,/Microcontroller/nCSFLA*%
X36972210Y25366190D03*
%TO.N,/Battery 2 Conditioning/nSHDNBT2*%
X30180000Y33630000D03*
X35927200Y26840350D03*
%TO.N,/Microcontroller/SSEL1*%
X29077200Y17540350D03*
%TO.N,/Microcontroller/ACCINT*%
X32450000Y30510000D03*
X23699600Y76739700D03*
%TO.N,/Microcontroller/TDI_LPC*%
X30452200Y20565350D03*
X51817039Y58797263D03*
X41352200Y16290350D03*
%TO.N,nCSRAD*%
X35247130Y80590190D03*
X35477200Y60209840D03*
X41352200Y29565350D03*
%TO.N,/Microcontroller/PWMBT*%
X33927200Y46840350D03*
X41352200Y28840350D03*
%TO.N,/Battery 1 Conditioning/SDATA1*%
X22827200Y56634794D03*
%TO.N,/Battery 1 Conditioning/SCLOCK1*%
X24099570Y55194794D03*
%TO.N,/Battery 2 Conditioning/SDATA2*%
X22827200Y39064794D03*
%TO.N,/Battery 2 Conditioning/SCLOCK2*%
X23994570Y37674794D03*
%TO.N,/CPLD/SCKSEL3*%
X30927200Y37865350D03*
X27429570Y21069465D03*
%TO.N,/Battery 3 Conditioning/SDATA3*%
X22750670Y21313294D03*
%TO.N,/Battery 3 Conditioning/SCLOCK3*%
X24989570Y19849794D03*
%TO.N,Net-(C10-Pad1)*%
X43330000Y40775000D03*
X28252200Y36665350D03*
D20*
X45702200Y41040350D03*
D19*
X41352200Y31215350D03*
X34077200Y45540350D03*
%TO.N,/CPLD/nPHB*%
X40327200Y38290350D03*
X30927200Y51640350D03*
%TO.N,/CPLD/CKCPLD*%
X26853775Y28463775D03*
X37052200Y33840350D03*
%TO.N,/Battery 3 Conditioning/DISCHG3*%
X20577200Y14200350D03*
X30577200Y44190430D03*
%TO.N,/CPLD/SNSEN*%
X40327200Y37490350D03*
X40302200Y56105350D03*
%TO.N,/Battery 1 Conditioning/DISCHG1*%
X25727200Y47515350D03*
%TO.N,/CPLD/nSENSE*%
X30777200Y50940350D03*
X40277200Y35890350D03*
%TO.N,/Battery 2 Conditioning/DISCHG2*%
X32252120Y43015430D03*
X22777200Y31913230D03*
%TO.N,/Test Points/SCK0*%
X52727200Y25509840D03*
X38227200Y21440350D03*
%TO.N,/Test Points/MISO1*%
X38302330Y83865240D03*
X34025000Y21417350D03*
X52527200Y17650350D03*
X52904570Y37774794D03*
%TO.N,/Test Points/RXCAN*%
X51825000Y20380000D03*
X35427120Y18315350D03*
%TO.N,/Test Points/RXD0*%
X51754570Y35489794D03*
X39677200Y20065350D03*
%TO.N,/Test Points/MOSI0*%
X39977200Y25065350D03*
X52727200Y26809840D03*
%TO.N,n3V3*%
X52377200Y55609840D03*
X27985330Y52190350D03*
X35627200Y59340350D03*
X37277200Y52540350D03*
D20*
%TO.N,Net-(D6-C)*%
X42602200Y24065350D03*
%TO.N,Net-(D2-C)*%
X43852200Y27865350D03*
%TO.N,Net-(D10-A)*%
X49702200Y55815350D03*
%TO.N,Net-(U20-VIN)*%
X47727200Y60540350D03*
D19*
X45827200Y60390350D03*
X48427200Y59440350D03*
%TO.N,Net-(U38-~{CTL})*%
X19502200Y16385000D03*
%TO.N,/Battery 3 Conditioning/VBT3*%
X26938046Y26776872D03*
X26934570Y26329796D03*
X16974570Y25724794D03*
X16379570Y25719794D03*
X23144570Y15904794D03*
D20*
%TO.N,VSYS*%
X23302200Y13300350D03*
X51177200Y12800350D03*
D19*
X32388183Y23996704D03*
D20*
X24052400Y33813230D03*
D19*
X32352200Y56215350D03*
X52560000Y47625000D03*
X41304600Y30334700D03*
X32227200Y40390350D03*
D20*
X24052400Y51390230D03*
D19*
%TO.N,/Battery 2 Conditioning/VBT2*%
X27252320Y44334794D03*
X16954570Y43499794D03*
X27277320Y45019794D03*
X16199570Y43499794D03*
%TO.N,/Battery 1 Conditioning/VBT1*%
X16259570Y61549794D03*
X27227200Y61544794D03*
X16909570Y61549794D03*
X27217200Y62196550D03*
D20*
%TO.N,Net-(U19-FB)*%
X44877200Y44740350D03*
%TO.N,Net-(U19-SW)*%
X44852200Y46690350D03*
D19*
%TO.N,Net-(U40-G1)*%
X30515000Y17565000D03*
X33433420Y23804794D03*
%TO.N,Net-(U32-G1)*%
X33077200Y33465350D03*
X33302200Y40390350D03*
%TO.N,Net-(U24-G1)*%
X33328425Y56291575D03*
X30327200Y49459840D03*
%TO.N,/Test Points/TXCAN*%
X35917890Y17740350D03*
X52727200Y21309840D03*
%TO.N,/Test Points/MOSI1*%
X52914570Y35609794D03*
X40302200Y83865350D03*
X52969570Y17079794D03*
X34902200Y42040350D03*
X33132729Y21513509D03*
%TO.N,Net-(D2-A)*%
X50164700Y29127850D03*
%TO.N,GND*%
X52277200Y40409840D03*
X52804570Y63384794D03*
D20*
X45827200Y58040350D03*
D19*
X31993160Y78290350D03*
D20*
X42614600Y31149700D03*
D19*
X23377200Y28507030D03*
D20*
X22719570Y60579794D03*
D19*
X48629190Y44991140D03*
X33052200Y63300350D03*
D20*
X22827200Y43234794D03*
D19*
X49854190Y44991140D03*
X48627200Y45662140D03*
X52377380Y20814039D03*
X49252200Y45662140D03*
X31093160Y78290350D03*
X49852200Y45662140D03*
X49254190Y44991140D03*
D20*
X46777200Y58040350D03*
D19*
X24079570Y63649794D03*
D20*
X30765000Y31080000D03*
D19*
X31093160Y78990350D03*
D20*
X47727200Y58040350D03*
D19*
X51817200Y38335350D03*
X32893160Y78290350D03*
D20*
X27084570Y20369794D03*
D19*
X32893160Y78990350D03*
X23569570Y46504794D03*
D21*
%TO.N,COMRF*%
X56577450Y79240470D03*
X55077450Y79240470D03*
D19*
X32893160Y80690350D03*
D21*
X55577450Y79240470D03*
X56077450Y79240470D03*
X54577450Y79240470D03*
D19*
X31093160Y80690350D03*
X32893160Y79990350D03*
X31993160Y80690350D03*
X31093160Y79990350D03*
D20*
%TO.N,Net-(BAT1--)*%
X22719570Y59179794D03*
D19*
%TO.N,BUSB*%
X35602200Y61240350D03*
X28036510Y49655350D03*
%TO.N,BUSA*%
X35602200Y62365350D03*
X34437200Y49650350D03*
X34437200Y56109840D03*
D20*
%TO.N,Net-(BAT2--)*%
X22827200Y42134759D03*
D19*
%TO.N,3V3RF*%
X39852200Y75900350D03*
X45052200Y76750350D03*
X41077200Y82240350D03*
X36240000Y83025000D03*
X44477200Y82040350D03*
%TO.N,1V8*%
X45015510Y53640350D03*
X52964570Y58734794D03*
%TO.N,/Thermister & Digital Peripheral System/3V3MEM*%
X38827200Y34957030D03*
X38242210Y25711360D03*
%TO.N,Net-(U16-MODE)*%
X47505000Y33220000D03*
X46565000Y37980000D03*
%TO.N,Net-(U16-VOUT)*%
X47454200Y40265350D03*
X42958200Y37590350D03*
X42958200Y36740350D03*
X43258200Y37165350D03*
D20*
%TO.N,Net-(BAT3--)*%
X22689570Y24189794D03*
%TO.N,Net-(BAT3-+)*%
X22674570Y29459794D03*
%TO.N,Net-(BAT1-+)*%
X22634570Y63549794D03*
%TO.N,Net-(BAT2-+)*%
X22774570Y47134794D03*
D19*
%TO.N,Net-(U16-SW1)*%
X47252200Y32590350D03*
%TO.N,Net-(U16-SW2)*%
X46002200Y32590350D03*
%TO.N,nDRESET*%
X52527200Y43690350D03*
X30452200Y19315450D03*
X30427200Y16109840D03*
D20*
%TO.N,VREC*%
X50795000Y29735000D03*
X51177200Y15325350D03*
D19*
X52874570Y60729794D03*
X32877200Y13900350D03*
D20*
%TO.N,VSUPPLY*%
X29405000Y32305000D03*
D19*
X52127200Y50609840D03*
D20*
X50749000Y37040350D03*
D19*
X50727200Y48259840D03*
%TO.N,Net-(U46-VDDA_(3V3))*%
X43677200Y20965350D03*
X33927200Y30290350D03*
X35427120Y15265350D03*
X27725000Y23385000D03*
%TD*%
D22*
%TO.N,Net-(U46-VDDA_(1V8))*%
X39902200Y40315350D02*
X39117200Y41100350D01*
X28934570Y27307980D02*
X28927200Y27315350D01*
X26227200Y36450350D02*
X26227200Y28207164D01*
X27999325Y19403922D02*
X28706078Y19403922D01*
X28706078Y19403922D02*
X29765000Y18345000D01*
X29765000Y18345000D02*
X29765000Y17549364D01*
X30877200Y41100350D02*
X26227200Y36450350D01*
X28934570Y22403044D02*
X28934570Y27307980D01*
X30459364Y16855000D02*
X41566730Y16855000D01*
X28019570Y21488044D02*
X28934570Y22403044D01*
X28019570Y19424167D02*
X28019570Y21488044D01*
X39117200Y41100350D02*
X30877200Y41100350D01*
X26227200Y28207164D02*
X27119014Y27315350D01*
X29765000Y17549364D02*
X30459364Y16855000D01*
X27999325Y19403922D02*
X28019570Y19424167D01*
X41566730Y16855000D02*
X42527200Y17815470D01*
X27119014Y27315350D02*
X28927200Y27315350D01*
%TO.N,TMS_CPLD*%
X51627200Y37375350D02*
X49912200Y39090350D01*
X49912200Y39090350D02*
X40327200Y39090350D01*
X51627200Y36342424D02*
X51627200Y37375350D01*
X51107200Y35822424D02*
X51627200Y36342424D01*
X51107200Y30990350D02*
X51107200Y35822424D01*
D23*
%TO.N,/I2C Multiplexing/SCLOCK*%
X24677400Y37688350D02*
X24677400Y39517624D01*
X53102200Y43384840D02*
X52527200Y42809840D01*
X30977200Y42675350D02*
X31827200Y43525350D01*
X31827200Y43525350D02*
X38137250Y43525350D01*
X38137250Y43525350D02*
X38687250Y42975350D01*
X24677400Y39517624D02*
X27835126Y42675350D01*
X52769570Y44314794D02*
X53102200Y43982164D01*
X38687250Y42975350D02*
X50452200Y42975350D01*
X53102200Y43982164D02*
X53102200Y43384840D01*
X27835126Y42675350D02*
X30977200Y42675350D01*
X50452200Y42975350D02*
X51791644Y44314794D01*
X51791644Y44314794D02*
X52769570Y44314794D01*
%TO.N,/I2C Multiplexing/SDATA*%
X24334570Y16849794D02*
X22024570Y16849794D01*
X24264570Y45909794D02*
X24264570Y47014794D01*
X52527200Y45509840D02*
X51996740Y45509840D01*
X38977200Y43675350D02*
X38427200Y44225350D01*
X50162250Y43675350D02*
X38977200Y43675350D01*
X51996740Y45509840D02*
X50162250Y43675350D01*
X23059570Y48219794D02*
X21984570Y48219794D01*
X24264570Y47014794D02*
X23059570Y48219794D01*
X26799014Y43375350D02*
X24264570Y45909794D01*
X24877200Y16307164D02*
X24334570Y16849794D01*
X24877200Y16290350D02*
X24877200Y16307164D01*
X38427200Y44225350D02*
X31537250Y44225350D01*
X30687250Y43375350D02*
X26799014Y43375350D01*
X31537250Y44225350D02*
X30687250Y43375350D01*
D24*
%TO.N,TDO_CPLD*%
X31525000Y26890000D02*
X31525000Y23369300D01*
X39102200Y22225350D02*
X48352200Y22225350D01*
X30927200Y37040350D02*
X28527200Y34640350D01*
X28527200Y30877800D02*
X29565000Y29840000D01*
X32193950Y22700350D02*
X38627200Y22700350D01*
X29565000Y29840000D02*
X29565000Y28850000D01*
X38627200Y22700350D02*
X39102200Y22225350D01*
X52286690Y26159840D02*
X52727200Y26159840D01*
X29565000Y28850000D02*
X31525000Y26890000D01*
X31525000Y23369300D02*
X32193950Y22700350D01*
X48352200Y22225350D02*
X52286690Y26159840D01*
X28527200Y34640350D02*
X28527200Y30877800D01*
D22*
%TO.N,TDI_CPLD*%
X40317890Y34290350D02*
X43374650Y34290350D01*
X49814650Y28450350D02*
X51107200Y28450350D01*
X43374650Y34290350D02*
X45600000Y32065000D01*
X47589300Y32065000D02*
X49270200Y30384100D01*
X45600000Y32065000D02*
X47589300Y32065000D01*
X49270200Y28994800D02*
X49814650Y28450350D01*
X49270200Y30384100D02*
X49270200Y28994800D01*
%TO.N,TCK_CPLD*%
X33352200Y38765350D02*
X30992200Y38765350D01*
X27865000Y30459364D02*
X28795000Y29529364D01*
X31915300Y22199700D02*
X38402850Y22199700D01*
X30992200Y38765350D02*
X29527200Y37300350D01*
X38402850Y22199700D02*
X39012200Y21590350D01*
X39012200Y21590350D02*
X48842200Y21590350D01*
X28795000Y28872140D02*
X31035000Y26632140D01*
X27865000Y34713150D02*
X27865000Y30459364D01*
X29527200Y36375350D02*
X27865000Y34713150D01*
X28795000Y29529364D02*
X28795000Y28872140D01*
D24*
X48842200Y21590350D02*
X49107710Y21590350D01*
D22*
X29527200Y37300350D02*
X29527200Y36375350D01*
X31035000Y26632140D02*
X31035000Y23080000D01*
X31035000Y23080000D02*
X31915300Y22199700D01*
D24*
X49107710Y21590350D02*
X51077200Y23559840D01*
D23*
%TO.N,nBOOT*%
X45827200Y45800350D02*
X46257200Y46230350D01*
X41352200Y45800350D02*
X45827200Y45800350D01*
X40392190Y44840350D02*
X41352200Y45800350D01*
X30377200Y44840350D02*
X40392190Y44840350D01*
X46257200Y46230350D02*
X52527200Y46230350D01*
D22*
%TO.N,/Test Points/SCK1*%
X31500000Y29340350D02*
X31500000Y28952550D01*
X52052200Y30484840D02*
X52577200Y31009840D01*
X50252200Y26725350D02*
X52052200Y28525350D01*
X31500000Y28952550D02*
X31977200Y28475350D01*
D24*
X52577200Y31009840D02*
X52577200Y32709840D01*
D22*
X38427200Y26725350D02*
X50252200Y26725350D01*
X36677200Y28475350D02*
X38427200Y26725350D01*
X52052200Y28525350D02*
X52052200Y30484840D01*
X31977200Y28475350D02*
X36677200Y28475350D01*
D24*
%TO.N,/Test Points/MISO0*%
X52677200Y28275350D02*
X52677200Y29709840D01*
D22*
X42453425Y24941575D02*
X42602200Y25090350D01*
X42602200Y25090350D02*
X49492200Y25090350D01*
X49492200Y25090350D02*
X52677200Y28275350D01*
D24*
%TO.N,/Test Points/SCK0*%
X52727200Y23809840D02*
X52727200Y25509840D01*
D22*
X48437360Y19520000D02*
X48467710Y19550350D01*
D24*
X48467710Y19550350D02*
X52727200Y23809840D01*
D22*
X39277550Y19520000D02*
X48437360Y19520000D01*
X38227200Y20570350D02*
X39277550Y19520000D01*
X38227200Y21440350D02*
X38227200Y20570350D01*
%TO.N,/Test Points/MISO1*%
X34025000Y21417350D02*
X34025000Y21392550D01*
X34025000Y21392550D02*
X37342200Y18075350D01*
X39752200Y18075350D02*
X40656200Y18979350D01*
X46748100Y18979350D02*
X48427100Y17300350D01*
X40656200Y18979350D02*
X46748100Y18979350D01*
X37342200Y18075350D02*
X39752200Y18075350D01*
X52177200Y17300350D02*
X52527200Y17650350D01*
X48427100Y17300350D02*
X52177200Y17300350D01*
D24*
%TO.N,/Test Points/MOSI0*%
X52036690Y26809840D02*
X52727200Y26809840D01*
D22*
X39977200Y25065350D02*
X39977200Y24440350D01*
X48011644Y22784794D02*
X52036690Y26809840D01*
X41632756Y22784794D02*
X48011644Y22784794D01*
X39977200Y24440350D02*
X41632756Y22784794D01*
D24*
%TO.N,n3V3*%
X51727200Y55609840D02*
X52377200Y55609840D01*
D22*
X37277200Y52540350D02*
X48657700Y52540350D01*
D24*
X48657700Y52540350D02*
X51727200Y55609840D01*
D23*
%TO.N,VSYS*%
X32164700Y24220187D02*
X32164700Y26890300D01*
D25*
X24217710Y13300350D02*
X25527200Y14609840D01*
D24*
X33292080Y53050350D02*
X25712520Y53050350D01*
D23*
X32164700Y26890300D02*
X30389600Y28665400D01*
X40594600Y31044700D02*
X41304600Y30334700D01*
X32044600Y31044700D02*
X40594600Y31044700D01*
D25*
X48627200Y14609840D02*
X50436690Y12800350D01*
D23*
X30389600Y28665400D02*
X30389600Y29389700D01*
D24*
X52560000Y47625000D02*
X50859650Y49325350D01*
D25*
X23302200Y13300350D02*
X24217710Y13300350D01*
D24*
X37017080Y49325350D02*
X33292080Y53050350D01*
X25712520Y53050350D02*
X24052400Y51390230D01*
D23*
X30389600Y29389700D02*
X32044600Y31044700D01*
X32388183Y23996704D02*
X32164700Y24220187D01*
D25*
X50436690Y12800350D02*
X51177200Y12800350D01*
X25527200Y14609840D02*
X48627200Y14609840D01*
D24*
X50859650Y49325350D02*
X37017080Y49325350D01*
D22*
%TO.N,/Test Points/MOSI1*%
X40177200Y17425350D02*
X37067310Y17425350D01*
X52615126Y16725350D02*
X48077200Y16725350D01*
X33173200Y21319460D02*
X33173200Y21473038D01*
X46477200Y18325350D02*
X41077200Y18325350D01*
X52969570Y17079794D02*
X52615126Y16725350D01*
X37067310Y17425350D02*
X33173200Y21319460D01*
X48077200Y16725350D02*
X46477200Y18325350D01*
X41077200Y18325350D02*
X40177200Y17425350D01*
X33173200Y21473038D02*
X33132729Y21513509D01*
D26*
%TO.N,BUSB*%
X45120000Y75590000D02*
X44090000Y76620000D01*
X27823446Y76620000D02*
X26029231Y74825785D01*
X52449062Y74024035D02*
X52449062Y74028784D01*
X44090000Y76620000D02*
X27823446Y76620000D01*
X21650812Y74825785D02*
X20849062Y74024035D01*
X50887846Y75590000D02*
X45120000Y75590000D01*
X52449062Y74028784D02*
X50887846Y75590000D01*
X26029231Y74825785D02*
X21650812Y74825785D01*
%TO.N,BUSA*%
X46410000Y76780000D02*
X45608748Y77581252D01*
X19968582Y75845000D02*
X18572137Y74448555D01*
X45608748Y77581252D02*
X27046252Y77581252D01*
X27046252Y77581252D02*
X25310000Y75845000D01*
X51983097Y76780000D02*
X46410000Y76780000D01*
X18572137Y74448555D02*
X18572137Y74027305D01*
X25310000Y75845000D02*
X19968582Y75845000D01*
X54739062Y74024035D02*
X51983097Y76780000D01*
D24*
%TO.N,1V8*%
X51689616Y57459840D02*
X48835000Y57459840D01*
X52964570Y58734794D02*
X51689616Y57459840D01*
X48835000Y57459840D02*
X45015510Y53640350D01*
D22*
%TO.N,nDRESET*%
X42577200Y41975350D02*
X40177200Y39575350D01*
X29079650Y27925350D02*
X29677200Y27327800D01*
X30327200Y39575350D02*
X27352200Y36600350D01*
X50812200Y41975350D02*
X42577200Y41975350D01*
X29677200Y20090450D02*
X30452200Y19315450D01*
X27352200Y28850350D02*
X28277200Y27925350D01*
X29677200Y27327800D02*
X29677200Y20090450D01*
X52527200Y43690350D02*
X50812200Y41975350D01*
X40177200Y39575350D02*
X30327200Y39575350D01*
X28277200Y27925350D02*
X29079650Y27925350D01*
X27352200Y36600350D02*
X27352200Y28850350D01*
D27*
%TO.N,VSUPPLY*%
X40802200Y36700350D02*
X41502200Y36000350D01*
X49709000Y36000350D02*
X50749000Y37040350D01*
X30720000Y32305000D02*
X35115350Y36700350D01*
X35115350Y36700350D02*
X40802200Y36700350D01*
X41502200Y36000350D02*
X49709000Y36000350D01*
X29405000Y32305000D02*
X30720000Y32305000D01*
%TD*%
%TA.AperFunction,Conductor*%
%TO.N,1V8*%
G36*
X52765798Y58817172D02*
G01*
X52960739Y58737359D01*
X52967097Y58731053D01*
X52967134Y58730964D01*
X53046947Y58536023D01*
X53046910Y58527068D01*
X53042349Y58521686D01*
X52742662Y58333179D01*
X52733834Y58331675D01*
X52728159Y58334810D01*
X52564585Y58498384D01*
X52561158Y58506657D01*
X52562954Y58512887D01*
X52751461Y58812574D01*
X52758767Y58817752D01*
X52765798Y58817172D01*
G37*
%TD.AperFunction*%
%TD*%
%TA.AperFunction,Conductor*%
%TO.N,/I2C Multiplexing/SCLOCK*%
G36*
X52780863Y43192572D02*
G01*
X52909931Y43063504D01*
X52913358Y43055231D01*
X52911941Y43049650D01*
X52740078Y42732959D01*
X52733120Y42727323D01*
X52725362Y42727712D01*
X52531030Y42807276D01*
X52524672Y42813582D01*
X52524635Y42813671D01*
X52445071Y43008003D01*
X52445108Y43016958D01*
X52450315Y43022717D01*
X52767010Y43194583D01*
X52775915Y43195516D01*
X52780863Y43192572D01*
G37*
%TD.AperFunction*%
%TD*%
%TA.AperFunction,Conductor*%
%TO.N,/Test Points/SCK1*%
G36*
X52776003Y32627537D02*
G01*
X52782309Y32621179D01*
X52782889Y32614148D01*
X52704273Y32268942D01*
X52699095Y32261636D01*
X52692865Y32259840D01*
X52461535Y32259840D01*
X52453262Y32263267D01*
X52450127Y32268942D01*
X52371510Y32614150D01*
X52373014Y32622976D01*
X52378393Y32627536D01*
X52572680Y32708947D01*
X52581631Y32708983D01*
X52776003Y32627537D01*
G37*
%TD.AperFunction*%
%TD*%
%TA.AperFunction,Conductor*%
%TO.N,/I2C Multiplexing/SDATA*%
G36*
X22426195Y48322277D02*
G01*
X22433153Y48316640D01*
X22434570Y48311059D01*
X22434570Y48128530D01*
X22431143Y48120257D01*
X22426195Y48117312D01*
X22080734Y48014904D01*
X22071828Y48015839D01*
X22066618Y48021600D01*
X21985463Y48215275D01*
X21985427Y48224226D01*
X22066619Y48417991D01*
X22072976Y48424295D01*
X22080733Y48424685D01*
X22426195Y48322277D01*
G37*
%TD.AperFunction*%
%TD*%
%TA.AperFunction,Conductor*%
%TO.N,/I2C Multiplexing/SDATA*%
G36*
X52439941Y45713796D02*
G01*
X52445151Y45708035D01*
X52526305Y45514362D01*
X52526342Y45505407D01*
X52526305Y45505318D01*
X52445151Y45311646D01*
X52438793Y45305340D01*
X52431035Y45304950D01*
X52085575Y45407358D01*
X52078617Y45412995D01*
X52077200Y45418576D01*
X52077200Y45601105D01*
X52080627Y45609378D01*
X52085573Y45612323D01*
X52431036Y45714731D01*
X52439941Y45713796D01*
G37*
%TD.AperFunction*%
%TD*%
%TA.AperFunction,Conductor*%
%TO.N,nDRESET*%
G36*
X52328379Y43772748D02*
G01*
X52523369Y43692915D01*
X52529727Y43686609D01*
X52529764Y43686520D01*
X52609597Y43491530D01*
X52609560Y43482575D01*
X52605050Y43477226D01*
X52306722Y43287389D01*
X52297903Y43285839D01*
X52292168Y43288987D01*
X52125836Y43455319D01*
X52122409Y43463592D01*
X52124237Y43469872D01*
X52314075Y43768202D01*
X52321408Y43773341D01*
X52328379Y43772748D01*
G37*
%TD.AperFunction*%
%TD*%
%TA.AperFunction,Conductor*%
%TO.N,Net-(U46-VDDA_(1V8))*%
G36*
X29126220Y27232956D02*
G01*
X29132526Y27226598D01*
X29133165Y27219840D01*
X29063471Y26876191D01*
X29058468Y26868764D01*
X29052004Y26866816D01*
X28816763Y26866816D01*
X28808490Y26870243D01*
X28805395Y26875748D01*
X28805287Y26876191D01*
X28721688Y27219548D01*
X28723061Y27228395D01*
X28728531Y27233103D01*
X28922680Y27314457D01*
X28931631Y27314493D01*
X29126220Y27232956D01*
G37*
%TD.AperFunction*%
%TD*%
%TA.AperFunction,Conductor*%
%TO.N,/I2C Multiplexing/SDATA*%
G36*
X24647574Y16681476D02*
G01*
X24954486Y16503341D01*
X24959921Y16496224D01*
X24959441Y16488789D01*
X24879764Y16294181D01*
X24873458Y16287823D01*
X24873369Y16287786D01*
X24679352Y16208351D01*
X24670397Y16208388D01*
X24664464Y16213927D01*
X24627344Y16287823D01*
X24502162Y16537024D01*
X24501512Y16545953D01*
X24504343Y16550545D01*
X24633429Y16679631D01*
X24641701Y16683057D01*
X24647574Y16681476D01*
G37*
%TD.AperFunction*%
%TD*%
%TA.AperFunction,Conductor*%
%TO.N,TMS_CPLD*%
G36*
X51233088Y31436923D02*
G01*
X51236236Y31431188D01*
X51312950Y31086003D01*
X51311400Y31077184D01*
X51306051Y31072674D01*
X51111722Y30991245D01*
X51102767Y30991208D01*
X51102678Y30991245D01*
X50908348Y31072674D01*
X50902042Y31079032D01*
X50901449Y31086003D01*
X50978164Y31431188D01*
X50983304Y31438521D01*
X50989585Y31440350D01*
X51224815Y31440350D01*
X51233088Y31436923D01*
G37*
%TD.AperFunction*%
%TD*%
%TA.AperFunction,Conductor*%
%TO.N,VSUPPLY*%
G36*
X29418817Y32702410D02*
G01*
X30195457Y32556790D01*
X30202956Y32551897D01*
X30205000Y32545290D01*
X30205000Y32064711D01*
X30201573Y32056438D01*
X30195456Y32053211D01*
X29418820Y31907592D01*
X29410057Y31909436D01*
X29405164Y31916936D01*
X29404964Y31919054D01*
X29404000Y32305000D01*
X29404964Y32690941D01*
X29408412Y32699203D01*
X29416693Y32702609D01*
X29418817Y32702410D01*
G37*
%TD.AperFunction*%
%TD*%
%TA.AperFunction,Conductor*%
%TO.N,TDO_CPLD*%
G36*
X30728428Y37122728D02*
G01*
X30923369Y37042915D01*
X30929727Y37036609D01*
X30929764Y37036520D01*
X31009577Y36841579D01*
X31009540Y36832624D01*
X31004979Y36827242D01*
X30705292Y36638735D01*
X30696464Y36637231D01*
X30690789Y36640366D01*
X30527215Y36803940D01*
X30523788Y36812213D01*
X30525584Y36818443D01*
X30714091Y37118130D01*
X30721397Y37123308D01*
X30728428Y37122728D01*
G37*
%TD.AperFunction*%
%TD*%
%TA.AperFunction,Conductor*%
%TO.N,TMS_CPLD*%
G36*
X40768039Y39219386D02*
G01*
X40775371Y39214247D01*
X40777200Y39207966D01*
X40777200Y38972735D01*
X40773773Y38964462D01*
X40768038Y38961314D01*
X40422852Y38884600D01*
X40414033Y38886150D01*
X40409524Y38891498D01*
X40328093Y39085831D01*
X40328057Y39094782D01*
X40409524Y39289204D01*
X40415881Y39295508D01*
X40422852Y39296101D01*
X40768039Y39219386D01*
G37*
%TD.AperFunction*%
%TD*%
%TA.AperFunction,Conductor*%
%TO.N,/Test Points/MISO0*%
G36*
X52876003Y29627537D02*
G01*
X52882309Y29621179D01*
X52882889Y29614148D01*
X52804273Y29268942D01*
X52799095Y29261636D01*
X52792865Y29259840D01*
X52561535Y29259840D01*
X52553262Y29263267D01*
X52550127Y29268942D01*
X52471510Y29614150D01*
X52473014Y29622976D01*
X52478393Y29627536D01*
X52672680Y29708947D01*
X52681631Y29708983D01*
X52876003Y29627537D01*
G37*
%TD.AperFunction*%
%TD*%
%TA.AperFunction,Conductor*%
%TO.N,TDI_CPLD*%
G36*
X40758729Y34419386D02*
G01*
X40766061Y34414247D01*
X40767890Y34407966D01*
X40767890Y34172735D01*
X40764463Y34164462D01*
X40758728Y34161314D01*
X40413542Y34084600D01*
X40404723Y34086150D01*
X40400214Y34091498D01*
X40318783Y34285831D01*
X40318747Y34294782D01*
X40400214Y34489204D01*
X40406571Y34495508D01*
X40413542Y34496101D01*
X40758729Y34419386D01*
G37*
%TD.AperFunction*%
%TD*%
%TA.AperFunction,Conductor*%
%TO.N,/Test Points/MOSI0*%
G36*
X52640335Y27014026D02*
G01*
X52644896Y27008644D01*
X52726305Y26814362D01*
X52726342Y26805407D01*
X52726305Y26805318D01*
X52644896Y26611037D01*
X52638538Y26604731D01*
X52631507Y26604151D01*
X52286302Y26682768D01*
X52278996Y26687946D01*
X52277200Y26694176D01*
X52277200Y26925505D01*
X52280627Y26933778D01*
X52286301Y26936913D01*
X52631508Y27015530D01*
X52640335Y27014026D01*
G37*
%TD.AperFunction*%
%TD*%
%TA.AperFunction,Conductor*%
%TO.N,/I2C Multiplexing/SCLOCK*%
G36*
X24776938Y38134923D02*
G01*
X24779883Y38129975D01*
X24882290Y37784515D01*
X24881355Y37775609D01*
X24875594Y37770399D01*
X24681922Y37689245D01*
X24672967Y37689208D01*
X24672878Y37689245D01*
X24479205Y37770399D01*
X24472899Y37776757D01*
X24472509Y37784515D01*
X24574917Y38129975D01*
X24580554Y38136933D01*
X24586135Y38138350D01*
X24768665Y38138350D01*
X24776938Y38134923D01*
G37*
%TD.AperFunction*%
%TD*%
%TA.AperFunction,Conductor*%
%TO.N,VSYS*%
G36*
X24535414Y52038587D02*
G01*
X24700756Y51873245D01*
X24704183Y51864972D01*
X24703147Y51860159D01*
X24426606Y51247470D01*
X24420079Y51241339D01*
X24411490Y51241463D01*
X24056204Y51387667D01*
X24049857Y51393985D01*
X24049836Y51394035D01*
X23903632Y51749321D01*
X23903653Y51758275D01*
X23909637Y51764436D01*
X24522328Y52040979D01*
X24531278Y52041258D01*
X24535414Y52038587D01*
G37*
%TD.AperFunction*%
%TD*%
%TA.AperFunction,Conductor*%
%TO.N,n3V3*%
G36*
X52290335Y55814026D02*
G01*
X52294896Y55808644D01*
X52376305Y55614362D01*
X52376342Y55605407D01*
X52376305Y55605318D01*
X52294896Y55411037D01*
X52288538Y55404731D01*
X52281507Y55404151D01*
X51936302Y55482768D01*
X51928996Y55487946D01*
X51927200Y55494176D01*
X51927200Y55725505D01*
X51930627Y55733778D01*
X51936301Y55736913D01*
X52281508Y55815530D01*
X52290335Y55814026D01*
G37*
%TD.AperFunction*%
%TD*%
%TA.AperFunction,Conductor*%
%TO.N,nBOOT*%
G36*
X30818825Y44942833D02*
G01*
X30825783Y44937196D01*
X30827200Y44931615D01*
X30827200Y44749086D01*
X30823773Y44740813D01*
X30818825Y44737868D01*
X30473364Y44635460D01*
X30464458Y44636395D01*
X30459248Y44642156D01*
X30378093Y44835831D01*
X30378057Y44844782D01*
X30459249Y45038547D01*
X30465606Y45044851D01*
X30473363Y45045241D01*
X30818825Y44942833D01*
G37*
%TD.AperFunction*%
%TD*%
%TA.AperFunction,Conductor*%
%TO.N,/Test Points/MOSI0*%
G36*
X40176051Y24983027D02*
G01*
X40182357Y24976669D01*
X40182950Y24969698D01*
X40106236Y24624512D01*
X40101096Y24617179D01*
X40094815Y24615350D01*
X39859585Y24615350D01*
X39851312Y24618777D01*
X39848164Y24624512D01*
X39771449Y24969698D01*
X39772999Y24978517D01*
X39778345Y24983026D01*
X39972680Y25064457D01*
X39981631Y25064493D01*
X40176051Y24983027D01*
G37*
%TD.AperFunction*%
%TD*%
%TA.AperFunction,Conductor*%
%TO.N,/Test Points/MOSI1*%
G36*
X33337319Y21594566D02*
G01*
X33343625Y21588208D01*
X33344084Y21586856D01*
X33439413Y21237615D01*
X33438286Y21228731D01*
X33436399Y21226261D01*
X33270082Y21059944D01*
X33261809Y21056517D01*
X33253536Y21059944D01*
X33253329Y21060156D01*
X33093092Y21228731D01*
X32981454Y21346179D01*
X32978238Y21354537D01*
X32981623Y21362475D01*
X33130348Y21512528D01*
X33134219Y21515116D01*
X33328365Y21594603D01*
X33337319Y21594566D01*
G37*
%TD.AperFunction*%
%TD*%
%TA.AperFunction,Conductor*%
%TO.N,TDI_CPLD*%
G36*
X51020366Y28654551D02*
G01*
X51024876Y28649202D01*
X51106305Y28454872D01*
X51106342Y28445917D01*
X51106305Y28445828D01*
X51024876Y28251499D01*
X51018518Y28245193D01*
X51011547Y28244600D01*
X50666362Y28321314D01*
X50659029Y28326454D01*
X50657200Y28332735D01*
X50657200Y28567966D01*
X50660627Y28576239D01*
X50666359Y28579386D01*
X51011547Y28656101D01*
X51020366Y28654551D01*
G37*
%TD.AperFunction*%
%TD*%
%TA.AperFunction,Conductor*%
%TO.N,Net-(U46-VDDA_(1V8))*%
G36*
X39433695Y40967484D02*
G01*
X39837619Y40783852D01*
X40045001Y40689572D01*
X40051114Y40683028D01*
X40050979Y40674469D01*
X39904763Y40319155D01*
X39898445Y40312808D01*
X39898395Y40312787D01*
X39543081Y40166571D01*
X39534127Y40166592D01*
X39527978Y40172549D01*
X39464223Y40312787D01*
X39250066Y40783854D01*
X39249763Y40792801D01*
X39252443Y40796965D01*
X39420584Y40965106D01*
X39428856Y40968532D01*
X39433695Y40967484D01*
G37*
%TD.AperFunction*%
%TD*%
%TA.AperFunction,Conductor*%
%TO.N,Net-(U46-VDDA_(1V8))*%
G36*
X28145006Y19846468D02*
G01*
X28148259Y19840205D01*
X28221945Y19417571D01*
X28219990Y19408832D01*
X28212429Y19404035D01*
X28210471Y19403861D01*
X28001704Y19402933D01*
X27997130Y19403842D01*
X27800992Y19486029D01*
X27794686Y19492387D01*
X27794250Y19499985D01*
X27890172Y19841360D01*
X27895709Y19848398D01*
X27901436Y19849895D01*
X28136733Y19849895D01*
X28145006Y19846468D01*
G37*
%TD.AperFunction*%
%TD*%
%TA.AperFunction,Conductor*%
%TO.N,VSYS*%
G36*
X24093467Y13502639D02*
G01*
X24100600Y13497227D01*
X24102200Y13491322D01*
X24102200Y13109379D01*
X24098773Y13101106D01*
X24093466Y13098061D01*
X23465120Y12933379D01*
X23456249Y12934597D01*
X23451355Y12940195D01*
X23303075Y13295851D01*
X23303055Y13304800D01*
X23451356Y13660508D01*
X23457702Y13666824D01*
X23465117Y13667322D01*
X24093467Y13502639D01*
G37*
%TD.AperFunction*%
%TD*%
%TA.AperFunction,Conductor*%
%TO.N,Net-(U46-VDDA_(1V8))*%
G36*
X28440164Y19532958D02*
G01*
X28447496Y19527819D01*
X28449325Y19521538D01*
X28449325Y19286307D01*
X28445898Y19278034D01*
X28440163Y19274886D01*
X28094977Y19198172D01*
X28086158Y19199722D01*
X28081649Y19205070D01*
X28000218Y19399403D01*
X28000182Y19408354D01*
X28081649Y19602776D01*
X28088006Y19609080D01*
X28094977Y19609673D01*
X28440164Y19532958D01*
G37*
%TD.AperFunction*%
%TD*%
%TA.AperFunction,Conductor*%
%TO.N,VSYS*%
G36*
X41064789Y30719443D02*
G01*
X41381482Y30547578D01*
X41387117Y30540621D01*
X41386728Y30532863D01*
X41307164Y30338531D01*
X41300858Y30332173D01*
X41300769Y30332136D01*
X41106437Y30252572D01*
X41097482Y30252609D01*
X41091722Y30257818D01*
X40919857Y30574511D01*
X40918924Y30583416D01*
X40921866Y30588362D01*
X41050937Y30717433D01*
X41059209Y30720859D01*
X41064789Y30719443D01*
G37*
%TD.AperFunction*%
%TD*%
%TA.AperFunction,Conductor*%
%TO.N,Net-(U46-VDDA_(1V8))*%
G36*
X28840366Y27519551D02*
G01*
X28844876Y27514202D01*
X28926305Y27319872D01*
X28926342Y27310917D01*
X28926305Y27310828D01*
X28844876Y27116499D01*
X28838518Y27110193D01*
X28831547Y27109600D01*
X28486362Y27186314D01*
X28479029Y27191454D01*
X28477200Y27197735D01*
X28477200Y27432966D01*
X28480627Y27441239D01*
X28486359Y27444386D01*
X28831547Y27521101D01*
X28840366Y27519551D01*
G37*
%TD.AperFunction*%
%TD*%
%TA.AperFunction,Conductor*%
%TO.N,VSYS*%
G36*
X52338092Y48026616D02*
G01*
X52637779Y47838109D01*
X52642957Y47830803D01*
X52642377Y47823772D01*
X52562564Y47628831D01*
X52556258Y47622473D01*
X52556169Y47622436D01*
X52361228Y47542623D01*
X52352273Y47542660D01*
X52346891Y47547221D01*
X52158384Y47846908D01*
X52156880Y47855736D01*
X52160013Y47861409D01*
X52323590Y48024986D01*
X52331862Y48028412D01*
X52338092Y48026616D01*
G37*
%TD.AperFunction*%
%TD*%
%TA.AperFunction,Conductor*%
%TO.N,Net-(U46-VDDA_(1V8))*%
G36*
X42328379Y17897868D02*
G01*
X42523369Y17818035D01*
X42529727Y17811729D01*
X42529764Y17811640D01*
X42609597Y17616650D01*
X42609560Y17607695D01*
X42605050Y17602346D01*
X42306722Y17412509D01*
X42297903Y17410959D01*
X42292168Y17414107D01*
X42125836Y17580439D01*
X42122409Y17588712D01*
X42124237Y17594992D01*
X42314075Y17893322D01*
X42321408Y17898461D01*
X42328379Y17897868D01*
G37*
%TD.AperFunction*%
%TD*%
%TA.AperFunction,Conductor*%
%TO.N,/Test Points/MOSI1*%
G36*
X52770749Y17162192D02*
G01*
X52965739Y17082359D01*
X52972097Y17076053D01*
X52972134Y17075964D01*
X53051967Y16880974D01*
X53051930Y16872019D01*
X53047420Y16866670D01*
X52749092Y16676833D01*
X52740273Y16675283D01*
X52734538Y16678431D01*
X52568206Y16844763D01*
X52564779Y16853036D01*
X52566607Y16859316D01*
X52756445Y17157646D01*
X52763778Y17162785D01*
X52770749Y17162192D01*
G37*
%TD.AperFunction*%
%TD*%
%TA.AperFunction,Conductor*%
%TO.N,TCK_CPLD*%
G36*
X33265366Y38969551D02*
G01*
X33269876Y38964202D01*
X33351305Y38769872D01*
X33351342Y38760917D01*
X33351305Y38760828D01*
X33269876Y38566499D01*
X33263518Y38560193D01*
X33256547Y38559600D01*
X32911362Y38636314D01*
X32904029Y38641454D01*
X32902200Y38647735D01*
X32902200Y38882966D01*
X32905627Y38891239D01*
X32911359Y38894386D01*
X33256547Y38971101D01*
X33265366Y38969551D01*
G37*
%TD.AperFunction*%
%TD*%
%TA.AperFunction,Conductor*%
%TO.N,/Test Points/MISO1*%
G36*
X52328379Y17732748D02*
G01*
X52523369Y17652915D01*
X52529727Y17646609D01*
X52529764Y17646520D01*
X52609597Y17451530D01*
X52609560Y17442575D01*
X52605050Y17437226D01*
X52306722Y17247389D01*
X52297903Y17245839D01*
X52292168Y17248987D01*
X52125836Y17415319D01*
X52122409Y17423592D01*
X52124237Y17429872D01*
X52314075Y17728202D01*
X52321408Y17733341D01*
X52328379Y17732748D01*
G37*
%TD.AperFunction*%
%TD*%
%TA.AperFunction,Conductor*%
%TO.N,/I2C Multiplexing/SDATA*%
G36*
X22466195Y16952277D02*
G01*
X22473153Y16946640D01*
X22474570Y16941059D01*
X22474570Y16758530D01*
X22471143Y16750257D01*
X22466195Y16747312D01*
X22120734Y16644904D01*
X22111828Y16645839D01*
X22106618Y16651600D01*
X22025463Y16845275D01*
X22025427Y16854226D01*
X22106619Y17047991D01*
X22112976Y17054295D01*
X22120733Y17054685D01*
X22466195Y16952277D01*
G37*
%TD.AperFunction*%
%TD*%
%TA.AperFunction,Conductor*%
%TO.N,/Test Points/SCK0*%
G36*
X38426051Y21358027D02*
G01*
X38432357Y21351669D01*
X38432950Y21344698D01*
X38356236Y20999512D01*
X38351096Y20992179D01*
X38344815Y20990350D01*
X38109585Y20990350D01*
X38101312Y20993777D01*
X38098164Y20999512D01*
X38021449Y21344698D01*
X38022999Y21353517D01*
X38028345Y21358026D01*
X38222680Y21439457D01*
X38231631Y21439493D01*
X38426051Y21358027D01*
G37*
%TD.AperFunction*%
%TD*%
%TA.AperFunction,Conductor*%
%TO.N,VSYS*%
G36*
X51022462Y13165600D02*
G01*
X51028484Y13159411D01*
X51176039Y12804140D01*
X51176048Y12795185D01*
X51176033Y12795150D01*
X51028375Y12440990D01*
X51022028Y12434672D01*
X51013706Y12434451D01*
X50270764Y12694840D01*
X50264090Y12700810D01*
X50263593Y12709751D01*
X50266359Y12714152D01*
X50534277Y12982070D01*
X50538376Y12984726D01*
X51013513Y13165856D01*
X51022462Y13165600D01*
G37*
%TD.AperFunction*%
%TD*%
%TA.AperFunction,Conductor*%
%TO.N,VSYS*%
G36*
X32267724Y24352013D02*
G01*
X32535917Y24163780D01*
X32540720Y24156222D01*
X32538773Y24147482D01*
X32537495Y24145956D01*
X32389855Y23997387D01*
X32385989Y23994806D01*
X32192690Y23915669D01*
X32183735Y23915706D01*
X32177429Y23922064D01*
X32176937Y23923539D01*
X32068519Y24339484D01*
X32069749Y24348354D01*
X32076890Y24353757D01*
X32079841Y24354135D01*
X32261004Y24354135D01*
X32267724Y24352013D01*
G37*
%TD.AperFunction*%
%TD*%
%TA.AperFunction,Conductor*%
%TO.N,/Test Points/MISO0*%
G36*
X42839861Y25213302D02*
G01*
X42844325Y25205539D01*
X42844422Y25204032D01*
X42844422Y24969064D01*
X42840995Y24960791D01*
X42839918Y24959838D01*
X42620653Y24788817D01*
X42612022Y24786431D01*
X42605210Y24789744D01*
X42455898Y24938124D01*
X42452446Y24946384D01*
X42453379Y25156344D01*
X42456843Y25164600D01*
X42463571Y25167893D01*
X42831215Y25215635D01*
X42839861Y25213302D01*
G37*
%TD.AperFunction*%
%TD*%
%TA.AperFunction,Conductor*%
%TO.N,nDRESET*%
G36*
X30231722Y19718412D02*
G01*
X30530050Y19528575D01*
X30535190Y19521242D01*
X30534597Y19514271D01*
X30454764Y19319281D01*
X30448458Y19312923D01*
X30448369Y19312886D01*
X30253379Y19233053D01*
X30244424Y19233090D01*
X30239075Y19237600D01*
X30049238Y19535928D01*
X30047688Y19544747D01*
X30050834Y19550480D01*
X30217169Y19716815D01*
X30225441Y19720241D01*
X30231722Y19718412D01*
G37*
%TD.AperFunction*%
%TD*%
%TA.AperFunction,Conductor*%
%TO.N,TCK_CPLD*%
G36*
X50878428Y23642218D02*
G01*
X51073369Y23562405D01*
X51079727Y23556099D01*
X51079764Y23556010D01*
X51159577Y23361069D01*
X51159540Y23352114D01*
X51154979Y23346732D01*
X50855292Y23158225D01*
X50846464Y23156721D01*
X50840789Y23159856D01*
X50677215Y23323430D01*
X50673788Y23331703D01*
X50675584Y23337933D01*
X50864091Y23637620D01*
X50871397Y23642798D01*
X50878428Y23642218D01*
G37*
%TD.AperFunction*%
%TD*%
%TA.AperFunction,Conductor*%
%TO.N,1V8*%
G36*
X45251920Y54040335D02*
G01*
X45415494Y53876761D01*
X45418921Y53868488D01*
X45417125Y53862258D01*
X45228618Y53562571D01*
X45221312Y53557393D01*
X45214281Y53557973D01*
X45019340Y53637786D01*
X45012982Y53644092D01*
X45012945Y53644181D01*
X44933132Y53839122D01*
X44933169Y53848077D01*
X44937730Y53853459D01*
X44964280Y53870159D01*
X45237417Y54041967D01*
X45246245Y54043470D01*
X45251920Y54040335D01*
G37*
%TD.AperFunction*%
%TD*%
%TA.AperFunction,Conductor*%
%TO.N,/Test Points/SCK0*%
G36*
X52926003Y25427537D02*
G01*
X52932309Y25421179D01*
X52932889Y25414148D01*
X52854273Y25068942D01*
X52849095Y25061636D01*
X52842865Y25059840D01*
X52611535Y25059840D01*
X52603262Y25063267D01*
X52600127Y25068942D01*
X52521510Y25414150D01*
X52523014Y25422976D01*
X52528393Y25427536D01*
X52722680Y25508947D01*
X52731631Y25508983D01*
X52926003Y25427537D01*
G37*
%TD.AperFunction*%
%TD*%
%TA.AperFunction,Conductor*%
%TO.N,TDO_CPLD*%
G36*
X52640030Y26363855D02*
G01*
X52645092Y26358176D01*
X52726018Y26165054D01*
X52726055Y26156099D01*
X52726029Y26156036D01*
X52645581Y25962744D01*
X52639238Y25956423D01*
X52630308Y25956428D01*
X52370520Y26063852D01*
X52366718Y26066391D01*
X52205726Y26227383D01*
X52202299Y26235656D01*
X52205726Y26243929D01*
X52210837Y26246920D01*
X52631139Y26364918D01*
X52640030Y26363855D01*
G37*
%TD.AperFunction*%
%TD*%
%TA.AperFunction,Conductor*%
%TO.N,/Test Points/SCK1*%
G36*
X31618821Y29291310D02*
G01*
X31698223Y29258262D01*
X31704544Y29251919D01*
X31704965Y29244206D01*
X31634621Y29001262D01*
X31631656Y28996243D01*
X31467063Y28831650D01*
X31458790Y28828223D01*
X31450517Y28831650D01*
X31447825Y28835843D01*
X31296045Y29243717D01*
X31296371Y29252665D01*
X31302487Y29258588D01*
X31494787Y29339170D01*
X31503740Y29339206D01*
X31618821Y29291310D01*
G37*
%TD.AperFunction*%
%TD*%
%TA.AperFunction,Conductor*%
%TO.N,n3V3*%
G36*
X37718039Y52669386D02*
G01*
X37725371Y52664247D01*
X37727200Y52657966D01*
X37727200Y52422735D01*
X37723773Y52414462D01*
X37718038Y52411314D01*
X37372852Y52334600D01*
X37364033Y52336150D01*
X37359524Y52341498D01*
X37278093Y52535831D01*
X37278057Y52544782D01*
X37359524Y52739204D01*
X37365881Y52745508D01*
X37372852Y52746101D01*
X37718039Y52669386D01*
G37*
%TD.AperFunction*%
%TD*%
%TA.AperFunction,Conductor*%
%TO.N,nBOOT*%
G36*
X52439941Y46434306D02*
G01*
X52445151Y46428545D01*
X52526305Y46234872D01*
X52526342Y46225917D01*
X52526305Y46225828D01*
X52445151Y46032156D01*
X52438793Y46025850D01*
X52431035Y46025460D01*
X52085575Y46127868D01*
X52078617Y46133505D01*
X52077200Y46139086D01*
X52077200Y46321615D01*
X52080627Y46329888D01*
X52085573Y46332833D01*
X52431036Y46435241D01*
X52439941Y46434306D01*
G37*
%TD.AperFunction*%
%TD*%
%TA.AperFunction,Conductor*%
%TO.N,/Test Points/MISO1*%
G36*
X34232326Y21499527D02*
G01*
X34237964Y21494538D01*
X34413703Y21186779D01*
X34414830Y21177895D01*
X34411816Y21172704D01*
X34245444Y21006332D01*
X34237171Y21002905D01*
X34230496Y21004996D01*
X33877344Y21250303D01*
X33872504Y21257837D01*
X33874410Y21266587D01*
X33875701Y21268140D01*
X34022619Y21416369D01*
X34026490Y21418957D01*
X34223371Y21499564D01*
X34232326Y21499527D01*
G37*
%TD.AperFunction*%
%TD*%
%TA.AperFunction,Conductor*%
%TO.N,VSUPPLY*%
G36*
X50474479Y37314637D02*
G01*
X50476124Y37313275D01*
X50749707Y37041057D01*
X50749749Y37041015D01*
X51021924Y36767475D01*
X51025330Y36759194D01*
X51021882Y36750929D01*
X51020237Y36749567D01*
X50368104Y36303372D01*
X50359341Y36301528D01*
X50353224Y36304755D01*
X50013404Y36644575D01*
X50009977Y36652848D01*
X50012021Y36659455D01*
X50458217Y37311589D01*
X50465716Y37316481D01*
X50474479Y37314637D01*
G37*
%TD.AperFunction*%
%TD*%
M02*
