M48
; DRILL file {KiCad 8.0.2} date 2024-10-13T20:57:58-0500
; FORMAT={-:-/ absolute / metric / decimal}
; #@! TF.CreationDate,2024-10-13T20:57:58-05:00
; #@! TF.GenerationSoftware,Kicad,Pcbnew,8.0.2
; #@! TF.FileFunction,Plated,1,2,Blind
FMAT,2
METRIC
; #@! TA.AperFunction,Plated,Buried,ViaDrill
T1C0.160
%
G90
G05
T1
X17.277Y79.24
X19.63Y80.865
X21.477Y15.9
X22.7Y79.265
X22.827Y17.636
X23.26Y52.855
X23.35Y35.26
X24.377Y14.7
X25.102Y33.99
X25.102Y29.59
X25.752Y29.59
X25.827Y56.24
X25.827Y38.663
X25.827Y21.061
X26.007Y60.365
X26.402Y33.99
X26.58Y23.005
X26.812Y50.925
X26.877Y46.84
X26.92Y25.58
X26.92Y24.47
X26.98Y18.76
X28.252Y38.39
X28.277Y30.39
X28.427Y59.14
X28.827Y57.715
X29.277Y53.64
X29.277Y25.565
X29.277Y21.565
X29.277Y21.065
X29.552Y41.49
X29.552Y38.29
X29.927Y58.565
X30.318Y55.715
X31.627Y57.515
X32.377Y14.81
X32.612Y52.195
X32.668Y55.19
X33.052Y32.39
X33.702Y59.19
X33.927Y16.415
X34.427Y28.215
X34.827Y76.69
X34.927Y29.615
X35.627Y50.92
X36.077Y76.84
X36.252Y44.19
X36.318Y53.565
X36.477Y13.9
X37.052Y30.215
X37.427Y13.8
X37.756Y78.537
X37.777Y75.54
X37.907Y79.515
X39.027Y75.69
X40.318Y46.86
X40.645Y75.84
X40.977Y80.34
X40.977Y79.84
X40.977Y79.34
X40.977Y78.84
X40.977Y78.34
X41.077Y22.565
X41.077Y19.065
X41.352Y36.69
X41.427Y58.645
X41.427Y52.19
X41.477Y81.305
X41.477Y80.34
X41.477Y79.84
X41.477Y79.34
X41.477Y78.84
X41.477Y78.34
X41.777Y83.24
X41.977Y80.34
X41.977Y79.84
X41.977Y79.34
X41.977Y78.84
X41.977Y78.34
X42.477Y80.34
X42.477Y79.84
X42.477Y79.34
X42.477Y78.84
X42.477Y78.34
X42.527Y22.565
X42.652Y41.69
X42.777Y83.24
X42.977Y81.305
X42.977Y80.34
X42.977Y79.84
X42.977Y79.34
X42.977Y78.84
X42.977Y78.34
X43.177Y55.49
X43.177Y53.79
X43.76Y83.24
X44.242Y16.5
X44.242Y15.45
X45.19Y16.499
X45.19Y15.424
X46.052Y81.64
X46.052Y77.425
X46.055Y79.69
X46.877Y77.39
X47.052Y19.4
X47.052Y18.74
X47.052Y18.1
X47.977Y53.84
X48.777Y78.067
X50.102Y51.115
X50.602Y78.067
M30
