%TF.GenerationSoftware,KiCad,Pcbnew,8.0.2*%
%TF.CreationDate,2024-10-13T20:57:57-05:00*%
%TF.ProjectId,PM1C_Rev_1_2,504d3143-5f52-4657-965f-315f322e6b69,1*%
%TF.SameCoordinates,PX297003ePY8770cd2*%
%TF.FileFunction,Drillmap*%
%TF.FilePolarity,Positive*%
%FSLAX45Y45*%
G04 Gerber Fmt 4.5, Leading zero omitted, Abs format (unit mm)*
G04 Created by KiCad (PCBNEW 8.0.2) date 2024-10-13 20:57:57*
%MOMM*%
%LPD*%
G01*
G04 APERTURE LIST*
%ADD10C,0.050000*%
%ADD11C,0.200000*%
%ADD12C,0.401300*%
G04 APERTURE END LIST*
D10*
X4009706Y8456956D02*
G75*
G02*
X4010127Y8656730I6571J99873D01*
G01*
X1696916Y1851797D02*
X2092457Y1851479D01*
X7451299Y1855148D02*
X7451299Y2619468D01*
X4415422Y6335486D02*
G75*
G02*
X4339222Y6335486I-38100J0D01*
G01*
X1307262Y8204388D02*
X1307358Y7554619D01*
X-43Y9399979D02*
X8399957Y9399979D01*
X8399957Y-21D01*
X-43Y-21D01*
X-43Y9399979D01*
X2916820Y7529854D02*
G75*
G02*
X2993020Y7529854I38100J0D01*
G01*
X999858Y6189978D02*
G75*
G02*
X799599Y6191485I-100091J5911D01*
G01*
X799986Y3738974D02*
G75*
G02*
X1000074Y3742414I100096J-1285D01*
G01*
X2245477Y800264D02*
G75*
G02*
X2155679Y812856I-3740J299815D01*
G01*
X2204555Y1007820D02*
G75*
G02*
X1744683Y1593732I293102J703480D01*
G01*
X2793187Y6636154D02*
X2793283Y7104836D01*
X7651176Y3318797D02*
G75*
G02*
X7451262Y3320089I-99999J-5867D01*
G01*
X799986Y2850461D02*
G75*
G02*
X1078675Y3119543I276211J-7212D01*
G01*
X5824962Y7558971D02*
X5825124Y8202955D01*
X1865390Y5059220D02*
X1865390Y4880216D01*
X4339222Y7529854D02*
G75*
G02*
X4415422Y7529854I38100J0D01*
G01*
X2109728Y3498509D02*
G75*
G02*
X2109728Y3422070I769J-38219D01*
G01*
X5142444Y800461D02*
X4492170Y800461D01*
X1507118Y8202955D02*
X1507214Y7558843D01*
X2345320Y1101480D02*
G75*
G02*
X2204554Y1007817I-101563J29D01*
G01*
X5573408Y8656730D02*
G75*
G02*
X6024981Y8204417I-2171J-453741D01*
G01*
X5573408Y8656730D02*
X4010127Y8656730D01*
X7451169Y6283086D02*
X7451169Y5531874D01*
X2942220Y1177680D02*
G75*
G02*
X3094620Y1177680I76200J0D01*
G01*
X1000074Y2842906D02*
X1000074Y2675173D01*
X1865347Y3298542D02*
X1865347Y3119538D01*
X2155679Y812855D02*
G75*
G02*
X1550548Y1540413I337998J896554D01*
G01*
X1000074Y4601096D02*
G75*
G02*
X1076274Y4677292I76203J-7D01*
G01*
X4539055Y6636182D02*
X7300975Y6636182D01*
X1758834Y8656702D02*
X3322115Y8656702D01*
X2993020Y6335486D02*
G75*
G02*
X2916820Y6335486I-38100J0D01*
G01*
X799986Y3567126D02*
X799986Y3738974D01*
X2449227Y7304870D02*
X2840716Y7304842D01*
X4009706Y8456956D02*
X5571123Y8456956D01*
X2109730Y2995409D02*
X2065730Y2995500D01*
X6024818Y7554775D02*
G75*
G02*
X5572415Y7104991I-454011J4244D01*
G01*
X1076500Y5256500D02*
X1989589Y5256428D01*
X2168877Y1780399D02*
G75*
G02*
X2089957Y1709974I-76130J5881D01*
G01*
X2065728Y3421969D02*
X2065691Y2995485D01*
X2916916Y7381042D02*
G75*
G02*
X2840716Y7304840I-76209J8D01*
G01*
X7298769Y6435486D02*
G75*
G02*
X7451174Y6283086I8J-152397D01*
G01*
X2109959Y4676971D02*
X1989591Y4677062D01*
X3798164Y800264D02*
X2245477Y800264D01*
X2916820Y6335486D02*
X2916820Y6435486D01*
X1761215Y7304842D02*
G75*
G02*
X1507219Y7558843I2J253998D01*
G01*
X1000074Y1816491D02*
X1000074Y1981804D01*
X2109730Y2995409D02*
G75*
G02*
X2109730Y2918970I777J-38220D01*
G01*
X1076271Y3498489D02*
X1989360Y3498417D01*
X1865347Y3119538D02*
X1078675Y3119538D01*
X3196221Y999984D02*
G75*
G02*
X3094622Y1101584I16J101615D01*
G01*
X799599Y6363333D02*
G75*
G02*
X1078885Y6636149I278658J-5904D01*
G01*
X7651176Y3318797D02*
X7651176Y4835700D01*
X1865390Y5059220D02*
X1078717Y5059220D01*
X4339222Y6335486D02*
X4339222Y7529854D01*
X1865390Y4880216D02*
X1078717Y4880216D01*
X2942220Y1135984D02*
X2942220Y1177680D01*
X5463321Y1710827D02*
X5469523Y1711080D01*
X5469523Y1711081D02*
X7298769Y1711081D01*
X7451266Y3320089D02*
X7451266Y4836992D01*
X1076500Y5256500D02*
G75*
G02*
X999998Y5333000I-53J76449D01*
G01*
X1000074Y2842906D02*
G75*
G02*
X1076274Y2919102I76203J-7D01*
G01*
X4490412Y1000098D02*
X5088774Y1000098D01*
X1000500Y5496500D02*
X1000000Y5333000D01*
X2793283Y7104836D02*
X2448806Y7105096D01*
X3094620Y1177680D02*
X3094620Y1101584D01*
X1989490Y2919285D02*
X1076045Y2919285D01*
X5119940Y1005167D02*
G75*
G02*
X5088774Y999983I-28313J73943D01*
G01*
X4539055Y6636182D02*
X4538893Y7104993D01*
X4882949Y7304941D02*
G75*
G02*
X4883370Y7105164I-6152J-99902D01*
G01*
X7302216Y1511511D02*
X5775190Y1511511D01*
X4415422Y7529854D02*
X4415260Y7381170D01*
X1647256Y1807619D02*
G75*
G02*
X1696916Y1851799I49651J-5809D01*
G01*
X7451299Y2619468D02*
G75*
G02*
X7650611Y2619818I99668J-6669D01*
G01*
X1076274Y3498481D02*
G75*
G02*
X1000079Y3574681I-7J76188D01*
G01*
X2109728Y3498509D02*
X1989360Y3498417D01*
X2345320Y1177680D02*
G75*
G02*
X2497720Y1177680I76200J0D01*
G01*
X2109957Y5180071D02*
X2065957Y5179979D01*
X3196221Y999984D02*
X3799351Y999984D01*
X4538893Y7104993D02*
X4883370Y7105167D01*
X999858Y6189978D02*
X999858Y6358266D01*
X800029Y5499652D02*
G75*
G02*
X1000494Y5496500I100188J-4402D01*
G01*
X1000074Y3574681D02*
X1000074Y3742414D01*
X1865347Y3298542D02*
X1078675Y3298542D01*
X7451299Y1855148D02*
G75*
G02*
X7298769Y1711078I-152542J8722D01*
G01*
X2793187Y6636154D02*
X1078885Y6636154D01*
X999858Y6358266D02*
G75*
G02*
X1076274Y6435483I76419J793D01*
G01*
X3799351Y999984D02*
G75*
G02*
X3798164Y800264I-8234J-99815D01*
G01*
X2916820Y6435486D02*
X1076274Y6435486D01*
X2448806Y7105096D02*
G75*
G02*
X2449227Y7304870I6571J99874D01*
G01*
X1761215Y7304842D02*
G75*
G02*
X1759761Y7104838I-6158J-99962D01*
G01*
X7451266Y4836992D02*
G75*
G02*
X7651178Y4835700I99931J-4533D01*
G01*
X799982Y1982425D02*
G75*
G02*
X1000071Y1981804I100035J-3266D01*
G01*
X4415422Y6435486D02*
X4415422Y6335486D01*
X799986Y2850461D02*
X799986Y2678613D01*
X5458944Y1559418D02*
G75*
G02*
X5538730Y1419991I-14097J-100609D01*
G01*
X2993020Y7529854D02*
X2993020Y6335486D01*
X2065957Y5179979D02*
X2065920Y4753496D01*
X4491460Y7304970D02*
X4882949Y7304941D01*
X2109959Y4753420D02*
G75*
G02*
X2109959Y4676979I778J-38220D01*
G01*
X7298769Y6435486D02*
X4415422Y6435486D01*
X2092457Y1851479D02*
G75*
G02*
X2168881Y1780399I-330J-76980D01*
G01*
X5571123Y8456956D02*
G75*
G02*
X5825124Y8202955I-16J-254017D01*
G01*
X2109730Y2918960D02*
X1989362Y2919052D01*
X1000116Y4435851D02*
G75*
G02*
X800028Y4439291I-99993J4735D01*
G01*
X2109957Y5256519D02*
G75*
G02*
X2109957Y5180079I770J-38220D01*
G01*
X800029Y4611139D02*
X800029Y4439291D01*
X5538732Y1419991D02*
G75*
G02*
X5119939Y1005169I-702525J290439D01*
G01*
X1078675Y3298542D02*
G75*
G02*
X799987Y3567126I-2988J275777D01*
G01*
X800029Y4611139D02*
G75*
G02*
X1078717Y4880221I276208J-7210D01*
G01*
X1507118Y8202955D02*
G75*
G02*
X1761119Y8456958I253989J14D01*
G01*
X2497720Y1177680D02*
X2497720Y1135984D01*
X2497720Y1135984D02*
X2942220Y1135984D01*
X2109957Y5256519D02*
X1989589Y5256428D01*
X2109728Y3422060D02*
X2065728Y3421969D01*
X1075846Y1540413D02*
G75*
G02*
X799981Y1817113I411J276276D01*
G01*
X7650683Y6285306D02*
X7651290Y5534094D01*
X2916916Y7381042D02*
X2916820Y7529854D01*
X1744682Y1593732D02*
G75*
G02*
X1844957Y1709972I99535J15507D01*
G01*
X1076274Y1740291D02*
G75*
G02*
X1000079Y1816491I-7J76188D01*
G01*
X800029Y5327804D02*
X800029Y5499652D01*
X1759761Y7104836D02*
G75*
G02*
X1307361Y7554619I1596J454013D01*
G01*
X5824962Y7558971D02*
G75*
G02*
X5570961Y7304974I-253985J-12D01*
G01*
X4492170Y800461D02*
G75*
G02*
X4490412Y1000098I227J99828D01*
G01*
X799982Y1817113D02*
X799982Y1982425D01*
X3322536Y8456927D02*
X1761119Y8456927D01*
X799599Y6363333D02*
X799599Y6191485D01*
X5572415Y7104993D02*
G75*
G02*
X5570961Y7304966I4702J100026D01*
G01*
X1307262Y8204388D02*
G75*
G02*
X1758834Y8656702I453750J-1433D01*
G01*
X1078717Y5059220D02*
G75*
G02*
X800025Y5327804I-3000J275769D01*
G01*
X4491460Y7304970D02*
G75*
G02*
X4415258Y7381170I-3J76199D01*
G01*
X2089957Y1709979D02*
X1844957Y1709979D01*
X7300975Y6636182D02*
G75*
G02*
X7650679Y6285306I-3408J-353103D01*
G01*
X1076274Y1740291D02*
X1571574Y1740291D01*
X1000074Y4601096D02*
X1000116Y4435851D01*
X6024980Y8204417D02*
X6024818Y7554775D01*
X1000074Y2675173D02*
G75*
G02*
X799987Y2678613I-99992J4726D01*
G01*
X3322115Y8656702D02*
G75*
G02*
X3322536Y8456924I-6158J-99902D01*
G01*
X1550549Y1540413D02*
X1075846Y1540413D01*
X7650603Y1855498D02*
X7650603Y2619818D01*
X2345320Y1101480D02*
X2345320Y1177680D01*
X1647256Y1807619D02*
G75*
G02*
X1571574Y1740293I-75679J8871D01*
G01*
X5775190Y1511511D02*
G75*
G02*
X5142444Y800461I-940919J200243D01*
G01*
X5458944Y1559418D02*
G75*
G02*
X5463321Y1710825I10564J75461D01*
G01*
X7650667Y1855496D02*
G75*
G02*
X7302216Y1511516I-351900J7993D01*
G01*
X2109959Y4753420D02*
X2065959Y4753511D01*
X7651290Y5534094D02*
G75*
G02*
X7451165Y5531874I-100074J-125D01*
G01*
X1989719Y4677296D02*
X1076274Y4677296D01*
D11*
D12*
X199310Y8599804D02*
X600610Y8198504D01*
X600610Y8599804D02*
X199310Y8198504D01*
X199310Y1199804D02*
X600610Y798504D01*
X600610Y1199804D02*
X199310Y798504D01*
X7799310Y8599804D02*
X8200610Y8198504D01*
X8200610Y8599804D02*
X7799310Y8198504D01*
X7799310Y1199804D02*
X8200610Y798504D01*
X8200610Y1199804D02*
X7799310Y798504D01*
D11*
X258234Y-314004D02*
X258234Y-114004D01*
X258234Y-114004D02*
X305853Y-114004D01*
X305853Y-114004D02*
X334424Y-123528D01*
X334424Y-123528D02*
X353472Y-142576D01*
X353472Y-142576D02*
X362996Y-161623D01*
X362996Y-161623D02*
X372519Y-199719D01*
X372519Y-199719D02*
X372519Y-228290D01*
X372519Y-228290D02*
X362996Y-266385D01*
X362996Y-266385D02*
X353472Y-285433D01*
X353472Y-285433D02*
X334424Y-304481D01*
X334424Y-304481D02*
X305853Y-314004D01*
X305853Y-314004D02*
X258234Y-314004D01*
X458234Y-314004D02*
X458234Y-180671D01*
X458234Y-218766D02*
X467758Y-199719D01*
X467758Y-199719D02*
X477281Y-190195D01*
X477281Y-190195D02*
X496329Y-180671D01*
X496329Y-180671D02*
X515377Y-180671D01*
X582043Y-314004D02*
X582043Y-180671D01*
X582043Y-114004D02*
X572520Y-123528D01*
X572520Y-123528D02*
X582043Y-133052D01*
X582043Y-133052D02*
X591567Y-123528D01*
X591567Y-123528D02*
X582043Y-114004D01*
X582043Y-114004D02*
X582043Y-133052D01*
X705853Y-314004D02*
X686805Y-304481D01*
X686805Y-304481D02*
X677281Y-285433D01*
X677281Y-285433D02*
X677281Y-114004D01*
X810615Y-314004D02*
X791567Y-304481D01*
X791567Y-304481D02*
X782043Y-285433D01*
X782043Y-285433D02*
X782043Y-114004D01*
X1039186Y-314004D02*
X1039186Y-114004D01*
X1039186Y-114004D02*
X1105853Y-256861D01*
X1105853Y-256861D02*
X1172520Y-114004D01*
X1172520Y-114004D02*
X1172520Y-314004D01*
X1353472Y-314004D02*
X1353472Y-209242D01*
X1353472Y-209242D02*
X1343948Y-190195D01*
X1343948Y-190195D02*
X1324901Y-180671D01*
X1324901Y-180671D02*
X1286805Y-180671D01*
X1286805Y-180671D02*
X1267758Y-190195D01*
X1353472Y-304481D02*
X1334424Y-314004D01*
X1334424Y-314004D02*
X1286805Y-314004D01*
X1286805Y-314004D02*
X1267758Y-304481D01*
X1267758Y-304481D02*
X1258234Y-285433D01*
X1258234Y-285433D02*
X1258234Y-266385D01*
X1258234Y-266385D02*
X1267758Y-247338D01*
X1267758Y-247338D02*
X1286805Y-237814D01*
X1286805Y-237814D02*
X1334424Y-237814D01*
X1334424Y-237814D02*
X1353472Y-228290D01*
X1448710Y-180671D02*
X1448710Y-380671D01*
X1448710Y-190195D02*
X1467758Y-180671D01*
X1467758Y-180671D02*
X1505853Y-180671D01*
X1505853Y-180671D02*
X1524900Y-190195D01*
X1524900Y-190195D02*
X1534424Y-199719D01*
X1534424Y-199719D02*
X1543948Y-218766D01*
X1543948Y-218766D02*
X1543948Y-275909D01*
X1543948Y-275909D02*
X1534424Y-294957D01*
X1534424Y-294957D02*
X1524900Y-304481D01*
X1524900Y-304481D02*
X1505853Y-314004D01*
X1505853Y-314004D02*
X1467758Y-314004D01*
X1467758Y-314004D02*
X1448710Y-304481D01*
X1629662Y-294957D02*
X1639186Y-304481D01*
X1639186Y-304481D02*
X1629662Y-314004D01*
X1629662Y-314004D02*
X1620139Y-304481D01*
X1620139Y-304481D02*
X1629662Y-294957D01*
X1629662Y-294957D02*
X1629662Y-314004D01*
X1629662Y-190195D02*
X1639186Y-199719D01*
X1639186Y-199719D02*
X1629662Y-209242D01*
X1629662Y-209242D02*
X1620139Y-199719D01*
X1620139Y-199719D02*
X1629662Y-190195D01*
X1629662Y-190195D02*
X1629662Y-209242D01*
X-202543Y-542521D02*
X-2543Y-742521D01*
X-2543Y-542521D02*
X-202543Y-742521D01*
X343948Y-600671D02*
X343948Y-734004D01*
X296329Y-524481D02*
X248710Y-667338D01*
X248710Y-667338D02*
X372519Y-667338D01*
X448710Y-714957D02*
X458234Y-724481D01*
X458234Y-724481D02*
X448710Y-734004D01*
X448710Y-734004D02*
X439186Y-724481D01*
X439186Y-724481D02*
X448710Y-714957D01*
X448710Y-714957D02*
X448710Y-734004D01*
X582043Y-534004D02*
X601091Y-534004D01*
X601091Y-534004D02*
X620139Y-543528D01*
X620139Y-543528D02*
X629662Y-553052D01*
X629662Y-553052D02*
X639186Y-572100D01*
X639186Y-572100D02*
X648710Y-610195D01*
X648710Y-610195D02*
X648710Y-657814D01*
X648710Y-657814D02*
X639186Y-695909D01*
X639186Y-695909D02*
X629662Y-714957D01*
X629662Y-714957D02*
X620139Y-724481D01*
X620139Y-724481D02*
X601091Y-734004D01*
X601091Y-734004D02*
X582043Y-734004D01*
X582043Y-734004D02*
X562996Y-724481D01*
X562996Y-724481D02*
X553472Y-714957D01*
X553472Y-714957D02*
X543948Y-695909D01*
X543948Y-695909D02*
X534424Y-657814D01*
X534424Y-657814D02*
X534424Y-610195D01*
X534424Y-610195D02*
X543948Y-572100D01*
X543948Y-572100D02*
X553472Y-553052D01*
X553472Y-553052D02*
X562996Y-543528D01*
X562996Y-543528D02*
X582043Y-534004D01*
X839186Y-734004D02*
X724900Y-734004D01*
X782043Y-734004D02*
X782043Y-534004D01*
X782043Y-534004D02*
X762996Y-562576D01*
X762996Y-562576D02*
X743948Y-581623D01*
X743948Y-581623D02*
X724900Y-591147D01*
X905853Y-534004D02*
X1029662Y-534004D01*
X1029662Y-534004D02*
X962996Y-610195D01*
X962996Y-610195D02*
X991567Y-610195D01*
X991567Y-610195D02*
X1010615Y-619719D01*
X1010615Y-619719D02*
X1020139Y-629243D01*
X1020139Y-629243D02*
X1029662Y-648290D01*
X1029662Y-648290D02*
X1029662Y-695909D01*
X1029662Y-695909D02*
X1020139Y-714957D01*
X1020139Y-714957D02*
X1010615Y-724481D01*
X1010615Y-724481D02*
X991567Y-734004D01*
X991567Y-734004D02*
X934424Y-734004D01*
X934424Y-734004D02*
X915377Y-724481D01*
X915377Y-724481D02*
X905853Y-714957D01*
X1115377Y-734004D02*
X1115377Y-600671D01*
X1115377Y-619719D02*
X1124901Y-610195D01*
X1124901Y-610195D02*
X1143948Y-600671D01*
X1143948Y-600671D02*
X1172520Y-600671D01*
X1172520Y-600671D02*
X1191567Y-610195D01*
X1191567Y-610195D02*
X1201091Y-629243D01*
X1201091Y-629243D02*
X1201091Y-734004D01*
X1201091Y-629243D02*
X1210615Y-610195D01*
X1210615Y-610195D02*
X1229662Y-600671D01*
X1229662Y-600671D02*
X1258234Y-600671D01*
X1258234Y-600671D02*
X1277282Y-610195D01*
X1277282Y-610195D02*
X1286805Y-629243D01*
X1286805Y-629243D02*
X1286805Y-734004D01*
X1382043Y-734004D02*
X1382043Y-600671D01*
X1382043Y-619719D02*
X1391567Y-610195D01*
X1391567Y-610195D02*
X1410615Y-600671D01*
X1410615Y-600671D02*
X1439186Y-600671D01*
X1439186Y-600671D02*
X1458234Y-610195D01*
X1458234Y-610195D02*
X1467758Y-629243D01*
X1467758Y-629243D02*
X1467758Y-734004D01*
X1467758Y-629243D02*
X1477281Y-610195D01*
X1477281Y-610195D02*
X1496329Y-600671D01*
X1496329Y-600671D02*
X1524900Y-600671D01*
X1524900Y-600671D02*
X1543948Y-610195D01*
X1543948Y-610195D02*
X1553472Y-629243D01*
X1553472Y-629243D02*
X1553472Y-734004D01*
X1943948Y-524481D02*
X1772520Y-781623D01*
X2201091Y-534004D02*
X2220139Y-534004D01*
X2220139Y-534004D02*
X2239186Y-543528D01*
X2239186Y-543528D02*
X2248710Y-553052D01*
X2248710Y-553052D02*
X2258234Y-572100D01*
X2258234Y-572100D02*
X2267758Y-610195D01*
X2267758Y-610195D02*
X2267758Y-657814D01*
X2267758Y-657814D02*
X2258234Y-695909D01*
X2258234Y-695909D02*
X2248710Y-714957D01*
X2248710Y-714957D02*
X2239186Y-724481D01*
X2239186Y-724481D02*
X2220139Y-734004D01*
X2220139Y-734004D02*
X2201091Y-734004D01*
X2201091Y-734004D02*
X2182044Y-724481D01*
X2182044Y-724481D02*
X2172520Y-714957D01*
X2172520Y-714957D02*
X2162996Y-695909D01*
X2162996Y-695909D02*
X2153472Y-657814D01*
X2153472Y-657814D02*
X2153472Y-610195D01*
X2153472Y-610195D02*
X2162996Y-572100D01*
X2162996Y-572100D02*
X2172520Y-553052D01*
X2172520Y-553052D02*
X2182044Y-543528D01*
X2182044Y-543528D02*
X2201091Y-534004D01*
X2353472Y-714957D02*
X2362996Y-724481D01*
X2362996Y-724481D02*
X2353472Y-734004D01*
X2353472Y-734004D02*
X2343948Y-724481D01*
X2343948Y-724481D02*
X2353472Y-714957D01*
X2353472Y-714957D02*
X2353472Y-734004D01*
X2553472Y-734004D02*
X2439186Y-734004D01*
X2496329Y-734004D02*
X2496329Y-534004D01*
X2496329Y-534004D02*
X2477282Y-562576D01*
X2477282Y-562576D02*
X2458234Y-581623D01*
X2458234Y-581623D02*
X2439186Y-591147D01*
X2734425Y-534004D02*
X2639186Y-534004D01*
X2639186Y-534004D02*
X2629663Y-629243D01*
X2629663Y-629243D02*
X2639186Y-619719D01*
X2639186Y-619719D02*
X2658234Y-610195D01*
X2658234Y-610195D02*
X2705853Y-610195D01*
X2705853Y-610195D02*
X2724901Y-619719D01*
X2724901Y-619719D02*
X2734425Y-629243D01*
X2734425Y-629243D02*
X2743948Y-648290D01*
X2743948Y-648290D02*
X2743948Y-695909D01*
X2743948Y-695909D02*
X2734425Y-714957D01*
X2734425Y-714957D02*
X2724901Y-724481D01*
X2724901Y-724481D02*
X2705853Y-734004D01*
X2705853Y-734004D02*
X2658234Y-734004D01*
X2658234Y-734004D02*
X2639186Y-724481D01*
X2639186Y-724481D02*
X2629663Y-714957D01*
X2858234Y-619719D02*
X2839186Y-610195D01*
X2839186Y-610195D02*
X2829663Y-600671D01*
X2829663Y-600671D02*
X2820139Y-581623D01*
X2820139Y-581623D02*
X2820139Y-572100D01*
X2820139Y-572100D02*
X2829663Y-553052D01*
X2829663Y-553052D02*
X2839186Y-543528D01*
X2839186Y-543528D02*
X2858234Y-534004D01*
X2858234Y-534004D02*
X2896329Y-534004D01*
X2896329Y-534004D02*
X2915377Y-543528D01*
X2915377Y-543528D02*
X2924901Y-553052D01*
X2924901Y-553052D02*
X2934424Y-572100D01*
X2934424Y-572100D02*
X2934424Y-581623D01*
X2934424Y-581623D02*
X2924901Y-600671D01*
X2924901Y-600671D02*
X2915377Y-610195D01*
X2915377Y-610195D02*
X2896329Y-619719D01*
X2896329Y-619719D02*
X2858234Y-619719D01*
X2858234Y-619719D02*
X2839186Y-629243D01*
X2839186Y-629243D02*
X2829663Y-638766D01*
X2829663Y-638766D02*
X2820139Y-657814D01*
X2820139Y-657814D02*
X2820139Y-695909D01*
X2820139Y-695909D02*
X2829663Y-714957D01*
X2829663Y-714957D02*
X2839186Y-724481D01*
X2839186Y-724481D02*
X2858234Y-734004D01*
X2858234Y-734004D02*
X2896329Y-734004D01*
X2896329Y-734004D02*
X2915377Y-724481D01*
X2915377Y-724481D02*
X2924901Y-714957D01*
X2924901Y-714957D02*
X2934424Y-695909D01*
X2934424Y-695909D02*
X2934424Y-657814D01*
X2934424Y-657814D02*
X2924901Y-638766D01*
X2924901Y-638766D02*
X2915377Y-629243D01*
X2915377Y-629243D02*
X2896329Y-619719D01*
X3058234Y-534004D02*
X3077282Y-534004D01*
X3077282Y-534004D02*
X3096329Y-543528D01*
X3096329Y-543528D02*
X3105853Y-553052D01*
X3105853Y-553052D02*
X3115377Y-572100D01*
X3115377Y-572100D02*
X3124901Y-610195D01*
X3124901Y-610195D02*
X3124901Y-657814D01*
X3124901Y-657814D02*
X3115377Y-695909D01*
X3115377Y-695909D02*
X3105853Y-714957D01*
X3105853Y-714957D02*
X3096329Y-724481D01*
X3096329Y-724481D02*
X3077282Y-734004D01*
X3077282Y-734004D02*
X3058234Y-734004D01*
X3058234Y-734004D02*
X3039186Y-724481D01*
X3039186Y-724481D02*
X3029663Y-714957D01*
X3029663Y-714957D02*
X3020139Y-695909D01*
X3020139Y-695909D02*
X3010615Y-657814D01*
X3010615Y-657814D02*
X3010615Y-610195D01*
X3010615Y-610195D02*
X3020139Y-572100D01*
X3020139Y-572100D02*
X3029663Y-553052D01*
X3029663Y-553052D02*
X3039186Y-543528D01*
X3039186Y-543528D02*
X3058234Y-534004D01*
X3201091Y-534004D02*
X3201091Y-572100D01*
X3277282Y-534004D02*
X3277282Y-572100D01*
X3572520Y-810195D02*
X3562996Y-800671D01*
X3562996Y-800671D02*
X3543948Y-772100D01*
X3543948Y-772100D02*
X3534425Y-753052D01*
X3534425Y-753052D02*
X3524901Y-724481D01*
X3524901Y-724481D02*
X3515377Y-676862D01*
X3515377Y-676862D02*
X3515377Y-638766D01*
X3515377Y-638766D02*
X3524901Y-591147D01*
X3524901Y-591147D02*
X3534425Y-562576D01*
X3534425Y-562576D02*
X3543948Y-543528D01*
X3543948Y-543528D02*
X3562996Y-514957D01*
X3562996Y-514957D02*
X3572520Y-505433D01*
X3734425Y-600671D02*
X3734425Y-734004D01*
X3686805Y-524481D02*
X3639186Y-667338D01*
X3639186Y-667338D02*
X3762996Y-667338D01*
X3991567Y-734004D02*
X3991567Y-534004D01*
X4077282Y-734004D02*
X4077282Y-629243D01*
X4077282Y-629243D02*
X4067758Y-610195D01*
X4067758Y-610195D02*
X4048710Y-600671D01*
X4048710Y-600671D02*
X4020139Y-600671D01*
X4020139Y-600671D02*
X4001091Y-610195D01*
X4001091Y-610195D02*
X3991567Y-619719D01*
X4201091Y-734004D02*
X4182044Y-724481D01*
X4182044Y-724481D02*
X4172520Y-714957D01*
X4172520Y-714957D02*
X4162996Y-695909D01*
X4162996Y-695909D02*
X4162996Y-638766D01*
X4162996Y-638766D02*
X4172520Y-619719D01*
X4172520Y-619719D02*
X4182044Y-610195D01*
X4182044Y-610195D02*
X4201091Y-600671D01*
X4201091Y-600671D02*
X4229663Y-600671D01*
X4229663Y-600671D02*
X4248710Y-610195D01*
X4248710Y-610195D02*
X4258234Y-619719D01*
X4258234Y-619719D02*
X4267758Y-638766D01*
X4267758Y-638766D02*
X4267758Y-695909D01*
X4267758Y-695909D02*
X4258234Y-714957D01*
X4258234Y-714957D02*
X4248710Y-724481D01*
X4248710Y-724481D02*
X4229663Y-734004D01*
X4229663Y-734004D02*
X4201091Y-734004D01*
X4382044Y-734004D02*
X4362996Y-724481D01*
X4362996Y-724481D02*
X4353472Y-705433D01*
X4353472Y-705433D02*
X4353472Y-534004D01*
X4534425Y-724481D02*
X4515377Y-734004D01*
X4515377Y-734004D02*
X4477282Y-734004D01*
X4477282Y-734004D02*
X4458234Y-724481D01*
X4458234Y-724481D02*
X4448710Y-705433D01*
X4448710Y-705433D02*
X4448710Y-629243D01*
X4448710Y-629243D02*
X4458234Y-610195D01*
X4458234Y-610195D02*
X4477282Y-600671D01*
X4477282Y-600671D02*
X4515377Y-600671D01*
X4515377Y-600671D02*
X4534425Y-610195D01*
X4534425Y-610195D02*
X4543949Y-629243D01*
X4543949Y-629243D02*
X4543949Y-648290D01*
X4543949Y-648290D02*
X4448710Y-667338D01*
X4620139Y-724481D02*
X4639187Y-734004D01*
X4639187Y-734004D02*
X4677282Y-734004D01*
X4677282Y-734004D02*
X4696330Y-724481D01*
X4696330Y-724481D02*
X4705853Y-705433D01*
X4705853Y-705433D02*
X4705853Y-695909D01*
X4705853Y-695909D02*
X4696330Y-676862D01*
X4696330Y-676862D02*
X4677282Y-667338D01*
X4677282Y-667338D02*
X4648710Y-667338D01*
X4648710Y-667338D02*
X4629663Y-657814D01*
X4629663Y-657814D02*
X4620139Y-638766D01*
X4620139Y-638766D02*
X4620139Y-629243D01*
X4620139Y-629243D02*
X4629663Y-610195D01*
X4629663Y-610195D02*
X4648710Y-600671D01*
X4648710Y-600671D02*
X4677282Y-600671D01*
X4677282Y-600671D02*
X4696330Y-610195D01*
X4772520Y-810195D02*
X4782044Y-800671D01*
X4782044Y-800671D02*
X4801091Y-772100D01*
X4801091Y-772100D02*
X4810615Y-753052D01*
X4810615Y-753052D02*
X4820139Y-724481D01*
X4820139Y-724481D02*
X4829663Y-676862D01*
X4829663Y-676862D02*
X4829663Y-638766D01*
X4829663Y-638766D02*
X4820139Y-591147D01*
X4820139Y-591147D02*
X4810615Y-562576D01*
X4810615Y-562576D02*
X4801091Y-543528D01*
X4801091Y-543528D02*
X4782044Y-514957D01*
X4782044Y-514957D02*
X4772520Y-505433D01*
X5134425Y-810195D02*
X5124901Y-800671D01*
X5124901Y-800671D02*
X5105853Y-772100D01*
X5105853Y-772100D02*
X5096330Y-753052D01*
X5096330Y-753052D02*
X5086806Y-724481D01*
X5086806Y-724481D02*
X5077282Y-676862D01*
X5077282Y-676862D02*
X5077282Y-638766D01*
X5077282Y-638766D02*
X5086806Y-591147D01*
X5086806Y-591147D02*
X5096330Y-562576D01*
X5096330Y-562576D02*
X5105853Y-543528D01*
X5105853Y-543528D02*
X5124901Y-514957D01*
X5124901Y-514957D02*
X5134425Y-505433D01*
X5210615Y-600671D02*
X5210615Y-734004D01*
X5210615Y-619719D02*
X5220139Y-610195D01*
X5220139Y-610195D02*
X5239187Y-600671D01*
X5239187Y-600671D02*
X5267758Y-600671D01*
X5267758Y-600671D02*
X5286806Y-610195D01*
X5286806Y-610195D02*
X5296330Y-629243D01*
X5296330Y-629243D02*
X5296330Y-734004D01*
X5420139Y-734004D02*
X5401091Y-724481D01*
X5401091Y-724481D02*
X5391568Y-714957D01*
X5391568Y-714957D02*
X5382044Y-695909D01*
X5382044Y-695909D02*
X5382044Y-638766D01*
X5382044Y-638766D02*
X5391568Y-619719D01*
X5391568Y-619719D02*
X5401091Y-610195D01*
X5401091Y-610195D02*
X5420139Y-600671D01*
X5420139Y-600671D02*
X5448711Y-600671D01*
X5448711Y-600671D02*
X5467758Y-610195D01*
X5467758Y-610195D02*
X5477282Y-619719D01*
X5477282Y-619719D02*
X5486806Y-638766D01*
X5486806Y-638766D02*
X5486806Y-695909D01*
X5486806Y-695909D02*
X5477282Y-714957D01*
X5477282Y-714957D02*
X5467758Y-724481D01*
X5467758Y-724481D02*
X5448711Y-734004D01*
X5448711Y-734004D02*
X5420139Y-734004D01*
X5543949Y-600671D02*
X5620139Y-600671D01*
X5572520Y-534004D02*
X5572520Y-705433D01*
X5572520Y-705433D02*
X5582044Y-724481D01*
X5582044Y-724481D02*
X5601091Y-734004D01*
X5601091Y-734004D02*
X5620139Y-734004D01*
X5839187Y-600671D02*
X5839187Y-800671D01*
X5839187Y-610195D02*
X5858234Y-600671D01*
X5858234Y-600671D02*
X5896330Y-600671D01*
X5896330Y-600671D02*
X5915377Y-610195D01*
X5915377Y-610195D02*
X5924901Y-619719D01*
X5924901Y-619719D02*
X5934425Y-638766D01*
X5934425Y-638766D02*
X5934425Y-695909D01*
X5934425Y-695909D02*
X5924901Y-714957D01*
X5924901Y-714957D02*
X5915377Y-724481D01*
X5915377Y-724481D02*
X5896330Y-734004D01*
X5896330Y-734004D02*
X5858234Y-734004D01*
X5858234Y-734004D02*
X5839187Y-724481D01*
X6048710Y-734004D02*
X6029663Y-724481D01*
X6029663Y-724481D02*
X6020139Y-705433D01*
X6020139Y-705433D02*
X6020139Y-534004D01*
X6210615Y-734004D02*
X6210615Y-629243D01*
X6210615Y-629243D02*
X6201091Y-610195D01*
X6201091Y-610195D02*
X6182044Y-600671D01*
X6182044Y-600671D02*
X6143949Y-600671D01*
X6143949Y-600671D02*
X6124901Y-610195D01*
X6210615Y-724481D02*
X6191568Y-734004D01*
X6191568Y-734004D02*
X6143949Y-734004D01*
X6143949Y-734004D02*
X6124901Y-724481D01*
X6124901Y-724481D02*
X6115377Y-705433D01*
X6115377Y-705433D02*
X6115377Y-686385D01*
X6115377Y-686385D02*
X6124901Y-667338D01*
X6124901Y-667338D02*
X6143949Y-657814D01*
X6143949Y-657814D02*
X6191568Y-657814D01*
X6191568Y-657814D02*
X6210615Y-648290D01*
X6277282Y-600671D02*
X6353472Y-600671D01*
X6305853Y-534004D02*
X6305853Y-705433D01*
X6305853Y-705433D02*
X6315377Y-724481D01*
X6315377Y-724481D02*
X6334425Y-734004D01*
X6334425Y-734004D02*
X6353472Y-734004D01*
X6496330Y-724481D02*
X6477282Y-734004D01*
X6477282Y-734004D02*
X6439187Y-734004D01*
X6439187Y-734004D02*
X6420139Y-724481D01*
X6420139Y-724481D02*
X6410615Y-705433D01*
X6410615Y-705433D02*
X6410615Y-629243D01*
X6410615Y-629243D02*
X6420139Y-610195D01*
X6420139Y-610195D02*
X6439187Y-600671D01*
X6439187Y-600671D02*
X6477282Y-600671D01*
X6477282Y-600671D02*
X6496330Y-610195D01*
X6496330Y-610195D02*
X6505853Y-629243D01*
X6505853Y-629243D02*
X6505853Y-648290D01*
X6505853Y-648290D02*
X6410615Y-667338D01*
X6677282Y-734004D02*
X6677282Y-534004D01*
X6677282Y-724481D02*
X6658234Y-734004D01*
X6658234Y-734004D02*
X6620139Y-734004D01*
X6620139Y-734004D02*
X6601091Y-724481D01*
X6601091Y-724481D02*
X6591568Y-714957D01*
X6591568Y-714957D02*
X6582044Y-695909D01*
X6582044Y-695909D02*
X6582044Y-638766D01*
X6582044Y-638766D02*
X6591568Y-619719D01*
X6591568Y-619719D02*
X6601091Y-610195D01*
X6601091Y-610195D02*
X6620139Y-600671D01*
X6620139Y-600671D02*
X6658234Y-600671D01*
X6658234Y-600671D02*
X6677282Y-610195D01*
X6753472Y-810195D02*
X6762996Y-800671D01*
X6762996Y-800671D02*
X6782044Y-772100D01*
X6782044Y-772100D02*
X6791568Y-753052D01*
X6791568Y-753052D02*
X6801091Y-724481D01*
X6801091Y-724481D02*
X6810615Y-676862D01*
X6810615Y-676862D02*
X6810615Y-638766D01*
X6810615Y-638766D02*
X6801091Y-591147D01*
X6801091Y-591147D02*
X6791568Y-562576D01*
X6791568Y-562576D02*
X6782044Y-543528D01*
X6782044Y-543528D02*
X6762996Y-514957D01*
X6762996Y-514957D02*
X6753472Y-505433D01*
M02*
