*
%FSLAX26Y26*%
%MOIN*%
%ADD10C,0.101181*%
%ADD11C,0.073181*%
%ADD12R,0.060241X0.060241*%
%ADD13C,0.060241*%
%ADD14C,0.032681*%
%ADD15C,0.046181*%
%ADD16C,0.046131*%
%ADD17C,0.018901*%
%ADD18C,0.016138*%
%ADD19C,0.009051*%
%ADD20C,0.011181*%
%ADD21C,0.011021*%
%ADD22C,0.016931*%
%ADD23C,0.024801*%
%ADD24C,0.020871*%
%ADD25C,0.061024*%
%ADD26C,0.015748*%
%ADD27C,0.004331*%
%ADD28C,0.001201*%
%ADD29C,0.040591*%
%ADD30C,0.007874*%
%ADD31C,0.016142*%
%IPPOS*%
%LN052s8c64709a.l3*%
%LPD*%
G75*
G36*
X1670820Y990536D02*
X1671088Y991172D01*
X1671638Y991443D01*
X1686327Y993351D01*
X1687015Y993164D01*
X1687381Y992528D01*
X1687396Y982925D01*
X1687163Y982364D01*
X1678266Y975408D01*
X1677598Y975223D01*
X1677040Y975494D01*
X1671010Y981488D01*
X1670782Y982032D01*
X1670820Y990536D01*
G37*
G36*
X962912Y1487562D02*
X962907Y1487660D01*
X967001Y1501468D01*
X967420Y1501986D01*
X967901Y1502109D01*
X975278D01*
X975894Y1501853D01*
X976148Y1501427D01*
X980235Y1487642D01*
X980162Y1486950D01*
X979692Y1486526D01*
X971866Y1483247D01*
X971250Y1483244D01*
X963429Y1486533D01*
X962938Y1487027D01*
X962912Y1487562D01*
G37*
G36*
X2049710Y1823812D02*
X2049966Y1824426D01*
X2050391Y1824680D01*
X2064176Y1828767D01*
X2064869Y1828694D01*
X2065293Y1828224D01*
X2068572Y1820398D01*
X2068574Y1819849D01*
X2068542Y1819730D01*
X2065286Y1811961D01*
X2064791Y1811470D01*
X2064160Y1811439D01*
X2050349Y1815533D01*
X2049832Y1815952D01*
X2049709Y1816434D01*
X2049710Y1823812D01*
G37*
G36*
Y1795444D02*
X2049965Y1796059D01*
X2050391Y1796314D01*
X2064176Y1800401D01*
X2064869Y1800328D01*
X2065293Y1799858D01*
X2068572Y1792032D01*
X2068574Y1791455D01*
X2065286Y1783594D01*
X2064791Y1783105D01*
X2064161Y1783072D01*
X2050349Y1787166D01*
X2049832Y1787587D01*
X2049709Y1788067D01*
X2049710Y1795444D01*
G37*
G36*
X1195413Y1765550D02*
X1195413Y1765669D01*
X1198701Y1773516D01*
X1199196Y1774005D01*
X1199826Y1774038D01*
X1213637Y1769944D01*
X1214156Y1769524D01*
X1214277Y1769042D01*
Y1761666D01*
X1214022Y1761050D01*
X1213596Y1760796D01*
X1199811Y1756710D01*
X1199119Y1756783D01*
X1198694Y1757251D01*
X1195415Y1765078D01*
X1195413Y1765550D01*
G37*
G36*
X866569Y663559D02*
X866569Y663678D01*
X869857Y671526D01*
X870352Y672016D01*
X870983Y672047D01*
X884794Y667953D01*
X885311Y667534D01*
X885434Y667053D01*
Y659673D01*
X885177Y659060D01*
X884752Y658806D01*
X870967Y654719D01*
X870274Y654792D01*
X869850Y655262D01*
X866571Y663088D01*
X866569Y663559D01*
G37*
G36*
X864994Y1898599D02*
X864994Y1898718D01*
X868283Y1906564D01*
X868776Y1907054D01*
X869408Y1907087D01*
X883218Y1902993D01*
X883736Y1902573D01*
X883859Y1902092D01*
Y1894714D01*
X883604Y1894099D01*
X883176Y1893845D01*
X869392Y1889759D01*
X868700Y1889832D01*
X868275Y1890300D01*
X864996Y1898127D01*
X864994Y1898599D01*
G37*
G36*
X2057584Y1060184D02*
X2057843Y1060809D01*
X2058320Y1061074D01*
X2072108Y1064214D01*
X2072783Y1064097D01*
X2073160Y1063652D01*
X2076446Y1055811D01*
X2076448Y1055269D01*
X2076419Y1055150D01*
X2073150Y1047351D01*
X2072662Y1046867D01*
X2072081Y1046820D01*
X2058288Y1049961D01*
X2057735Y1050352D01*
X2057583Y1050876D01*
X2057584Y1060184D01*
G37*
G36*
X2043804Y2194044D02*
X2044063Y2194667D01*
X2044540Y2194932D01*
X2058328Y2198072D01*
X2059003Y2197956D01*
X2059381Y2197511D01*
X2062666Y2189670D01*
X2062670Y2189012D01*
X2062596Y2188907D01*
X2059370Y2181209D01*
X2058884Y2180726D01*
X2058302Y2180678D01*
X2044507Y2183819D01*
X2043956Y2184211D01*
X2043804Y2184734D01*
Y2194044D01*
G37*
G36*
X2067306Y1001225D02*
X2067752Y1001602D01*
X2075593Y1004887D01*
X2076183Y1004890D01*
X2084054Y1001591D01*
X2084537Y1001105D01*
X2084585Y1000523D01*
X2081444Y986728D01*
X2081052Y986177D01*
X2080529Y986025D01*
X2071220D01*
X2070594Y986285D01*
X2070331Y986762D01*
X2067191Y1000548D01*
X2067306Y1001225D01*
G37*
G36*
X2065339Y1166579D02*
X2065784Y1166956D01*
X2073625Y1170242D01*
X2074215Y1170244D01*
X2082085Y1166946D01*
X2082569Y1166459D01*
X2082617Y1165877D01*
X2079475Y1152082D01*
X2079083Y1151531D01*
X2078560Y1151379D01*
X2069252D01*
X2068625Y1151639D01*
X2068363Y1152117D01*
X2065222Y1165904D01*
X2065339Y1166579D01*
G37*
G36*
X2061402Y1284689D02*
X2061846Y1285066D01*
X2069688Y1288352D01*
X2070278Y1288354D01*
X2078148Y1285056D01*
X2078632Y1284569D01*
X2078680Y1283987D01*
X2075538Y1270193D01*
X2075147Y1269641D01*
X2074623Y1269489D01*
X2065314Y1269490D01*
X2064689Y1269750D01*
X2064426Y1270227D01*
X2061285Y1284014D01*
X2061402Y1284689D01*
G37*
G36*
X2003423Y1223818D02*
X2003415Y1223907D01*
X2006480Y1237701D01*
X2006870Y1238254D01*
X2007397Y1238407D01*
X2016860D01*
X2017484Y1238148D01*
X2017750Y1237667D01*
X2020814Y1223879D01*
X2020695Y1223205D01*
X2020251Y1222832D01*
X2012409Y1219546D01*
X2011799Y1219543D01*
X2003947Y1222842D01*
X2003464Y1223328D01*
X2003423Y1223818D01*
G37*
G36*
X1565339Y983727D02*
X1565782Y984102D01*
X1573625Y987388D01*
X1574215Y987390D01*
X1582087Y984091D01*
X1582570Y983604D01*
X1582619Y983027D01*
X1579554Y969234D01*
X1579164Y968679D01*
X1578637Y968525D01*
X1569175D01*
X1568548Y968785D01*
X1568284Y969267D01*
X1565220Y983053D01*
X1565339Y983727D01*
G37*
G36*
X1496442Y841012D02*
X1496885Y841385D01*
X1504727Y844671D01*
X1505318Y844673D01*
X1513190Y841374D01*
X1513673Y840888D01*
X1513721Y840309D01*
X1510656Y826517D01*
X1510266Y825963D01*
X1509739Y825809D01*
X1500276D01*
X1499649Y826069D01*
X1499387Y826551D01*
X1496322Y840338D01*
X1496442Y841012D01*
G37*
G36*
X1993804Y1124848D02*
X1994064Y1125475D01*
X1994546Y1125739D01*
X2008333Y1128803D01*
X2009007Y1128684D01*
X2009380Y1128240D01*
X2012666Y1120398D01*
X2012669Y1119785D01*
X2009369Y1111935D01*
X2008884Y1111454D01*
X2008307Y1111404D01*
X1994513Y1114469D01*
X1993958Y1114859D01*
X1993804Y1115386D01*
Y1124848D01*
G37*
G36*
X1587145Y1539172D02*
X1587145Y1539291D01*
X1590444Y1547164D01*
X1590930Y1547645D01*
X1591507Y1547695D01*
X1605300Y1544629D01*
X1605856Y1544241D01*
X1606010Y1543713D01*
X1606009Y1534251D01*
X1605749Y1533625D01*
X1605269Y1533360D01*
X1591482Y1530296D01*
X1590807Y1530414D01*
X1590433Y1530858D01*
X1587147Y1538700D01*
X1587145Y1539172D01*
G37*
G36*
X1586778Y1350193D02*
X1586778Y1350313D01*
X1590078Y1358187D01*
X1590564Y1358670D01*
X1591141Y1358718D01*
X1604935Y1355653D01*
X1605489Y1355263D01*
X1605643Y1354736D01*
Y1345274D01*
X1605383Y1344646D01*
X1604900Y1344383D01*
X1591114Y1341319D01*
X1590440Y1341439D01*
X1590067Y1341882D01*
X1586781Y1349724D01*
X1586778Y1350193D01*
G37*
G36*
X1467066Y2068818D02*
X1470365Y2076692D01*
X1470852Y2077174D01*
X1471429Y2077222D01*
X1485222Y2074157D01*
X1485777Y2073767D01*
X1485931Y2073240D01*
Y2063778D01*
X1485671Y2063151D01*
X1485189Y2062887D01*
X1471402Y2059823D01*
X1470729Y2059943D01*
X1470355Y2060385D01*
X1467068Y2068228D01*
X1467066Y2068818D01*
G37*
G36*
X1294788Y1530952D02*
X1295048Y1531577D01*
X1295530Y1531841D01*
X1309317Y1534905D01*
X1309990Y1534787D01*
X1310364Y1534344D01*
X1313651Y1526501D01*
X1313653Y1525933D01*
X1310354Y1518037D01*
X1309868Y1517556D01*
X1309291Y1517506D01*
X1295498Y1520572D01*
X1294942Y1520960D01*
X1294788Y1521488D01*
Y1530952D01*
G37*
G36*
X1262055Y958929D02*
X1262656Y959382D01*
X1262965Y959423D01*
X1270225D01*
X1270664Y959285D01*
X1281395Y951754D01*
X1281778Y951150D01*
X1281616Y950428D01*
X1275586Y944329D01*
X1275335Y944161D01*
X1267561Y940979D01*
X1266846Y940981D01*
X1266327Y941506D01*
X1261956Y958221D01*
X1262055Y958929D01*
G37*
G36*
X1231577Y1151947D02*
X1232068Y1152423D01*
X1239849Y1155683D01*
X1240438Y1155686D01*
X1248315Y1152408D01*
X1248804Y1151915D01*
X1248839Y1151288D01*
X1246021Y1141554D01*
X1245829Y1141227D01*
X1239212Y1134611D01*
X1238551Y1134339D01*
X1237829Y1134638D01*
X1237589Y1135012D01*
X1231550Y1151240D01*
X1231577Y1151947D01*
G37*
G36*
X2054587Y1032909D02*
X2054892Y1033644D01*
X2055330Y1033899D01*
X2072062Y1038597D01*
X2072752Y1038515D01*
X2073165Y1038050D01*
X2076434Y1030248D01*
X2076437Y1029676D01*
X2073178Y1021827D01*
X2072671Y1021323D01*
X2071958Y1021325D01*
X2061568Y1025621D01*
X2061322Y1025786D01*
X2054859Y1032248D01*
X2054587Y1032909D01*
G37*
G36*
X964041Y651572D02*
X964289Y651973D01*
X969503Y657188D01*
X970123Y657443D01*
X970623Y657309D01*
X982876Y650197D01*
X983295Y649647D01*
X983255Y649038D01*
X980037Y641179D01*
X979664Y640803D01*
X979562Y640735D01*
X971760Y637541D01*
X971057Y637545D01*
X970579Y637993D01*
X964088Y650912D01*
X964041Y651572D01*
G37*
G36*
X2064195Y1693817D02*
X2064620Y1694287D01*
X2077279Y1701157D01*
X2077942Y1701227D01*
X2078369Y1700973D01*
X2083586Y1695756D01*
X2083841Y1695141D01*
X2083718Y1694659D01*
X2076861Y1682023D01*
X2076320Y1681585D01*
X2075688Y1681616D01*
X2067836Y1684832D01*
X2067384Y1685278D01*
X2067353Y1685401D01*
X2064193Y1693122D01*
X2064195Y1693817D01*
G37*
G36*
X1610390Y1204214D02*
X1610645Y1204640D01*
X1615862Y1209857D01*
X1616478Y1210112D01*
X1616958Y1209989D01*
X1629594Y1203131D01*
X1630032Y1202590D01*
X1630001Y1201959D01*
X1626785Y1194106D01*
X1626353Y1193670D01*
X1618495Y1190463D01*
X1617800Y1190467D01*
X1617330Y1190890D01*
X1610460Y1203550D01*
X1610390Y1204214D01*
G37*
G36*
X2052821Y1884196D02*
X2053084Y1884674D01*
X2059667Y1891257D01*
X2060292Y1891514D01*
X2060815Y1891365D01*
X2072785Y1883835D01*
X2073180Y1883275D01*
X2073132Y1882694D01*
X2069911Y1874827D01*
X2069482Y1874392D01*
X2061599Y1871174D01*
X2060912Y1871176D01*
X2060467Y1871554D01*
X2052935Y1883530D01*
X2052821Y1884196D01*
G37*
G36*
X2068881Y2303909D02*
X2076409Y2315878D01*
X2076968Y2316274D01*
X2077551Y2316226D01*
X2085419Y2313004D01*
X2085852Y2312574D01*
X2089071Y2304691D01*
X2089067Y2304005D01*
X2088689Y2303559D01*
X2076715Y2296027D01*
X2076048Y2295914D01*
X2075571Y2296177D01*
X2068989Y2302759D01*
X2068729Y2303385D01*
X2068881Y2303909D01*
G37*
G36*
X1994575Y919068D02*
X2002103Y931037D01*
X2002662Y931433D01*
X2003245Y931385D01*
X2011113Y928164D01*
X2011548Y927730D01*
X2014765Y919850D01*
X2014761Y919163D01*
X2014383Y918719D01*
X2002409Y911187D01*
X2001741Y911073D01*
X2001264Y911336D01*
X1994683Y917918D01*
X1994423Y918544D01*
X1994575Y919068D01*
G37*
G36*
X1768451Y2120228D02*
X1768827Y2120674D01*
X1780803Y2128208D01*
X1781472Y2128321D01*
X1781948Y2128056D01*
X1788530Y2121474D01*
X1788787Y2120849D01*
X1788638Y2120326D01*
X1781108Y2108357D01*
X1780549Y2107961D01*
X1779967Y2108009D01*
X1772100Y2111230D01*
X1771697Y2111629D01*
X1768447Y2119544D01*
X1768451Y2120228D01*
G37*
G36*
X1201268Y1449797D02*
X1208796Y1461766D01*
X1209355Y1462162D01*
X1209938Y1462114D01*
X1217806Y1458892D01*
X1218239Y1458462D01*
X1221458Y1450579D01*
X1221454Y1449892D01*
X1221076Y1449447D01*
X1209102Y1441915D01*
X1208435Y1441802D01*
X1207958Y1442065D01*
X1201375Y1448647D01*
X1201116Y1449273D01*
X1201268Y1449797D01*
G37*
G36*
X2069026Y664007D02*
X2076608Y675922D01*
X2077167Y676314D01*
X2077746Y676266D01*
X2085614Y673044D01*
X2086051Y672611D01*
X2089268Y664728D01*
X2089266Y664044D01*
X2088891Y663600D01*
X2076971Y656015D01*
X2076304Y655897D01*
X2075822Y656162D01*
X2069130Y662854D01*
X2068872Y663481D01*
X2069026Y664007D01*
G37*
G36*
X2051609Y1711666D02*
X2059191Y1723582D01*
X2059752Y1723974D01*
X2060329Y1723926D01*
X2068198Y1720703D01*
X2068633Y1720274D01*
X2071852Y1712388D01*
X2071848Y1711703D01*
X2071475Y1711260D01*
X2059555Y1703675D01*
X2058886Y1703557D01*
X2058406Y1703822D01*
X2051715Y1710513D01*
X2051455Y1711138D01*
X2051609Y1711666D01*
G37*
G36*
Y686470D02*
X2059191Y698385D01*
X2059752Y698777D01*
X2060329Y698729D01*
X2068198Y695507D01*
X2068635Y695074D01*
X2071852Y687191D01*
X2071848Y686506D01*
X2071475Y686063D01*
X2059555Y678478D01*
X2058886Y678360D01*
X2058406Y678625D01*
X2051715Y685316D01*
X2051455Y685943D01*
X2051609Y686470D01*
G37*
G36*
X1657909Y692970D02*
X1665491Y704886D01*
X1666051Y705279D01*
X1666630Y705228D01*
X1674498Y702007D01*
X1674934Y701575D01*
X1678151Y693692D01*
X1678149Y693007D01*
X1677774Y692564D01*
X1665854Y684979D01*
X1665187Y684861D01*
X1664705Y685125D01*
X1658013Y691817D01*
X1657755Y692444D01*
X1657909Y692970D01*
G37*
G36*
X1182379Y769590D02*
X1182644Y770070D01*
X1189336Y776762D01*
X1189961Y777020D01*
X1190488Y776866D01*
X1202404Y769284D01*
X1202797Y768724D01*
X1202746Y768145D01*
X1199570Y760386D01*
G02X1198978Y759804I-834J256D01*
G01X1191210Y756624D01*
X1190525Y756626D01*
X1190082Y757001D01*
X1182497Y768921D01*
X1182379Y769590D01*
G37*
G36*
X1297819Y840533D02*
X1297736Y840750D01*
X1298007Y841385D01*
X1303984Y847416D01*
X1304236Y847584D01*
X1312042Y850780D01*
X1312757Y850778D01*
X1313274Y850255D01*
X1317130Y836176D01*
X1317051Y835553D01*
X1316828Y835270D01*
X1310198Y828639D01*
X1309537Y828366D01*
X1308876Y828639D01*
X1297990Y840087D01*
X1297819Y840533D01*
G37*
G36*
X1333109Y837543D02*
X1339112Y843630D01*
X1339365Y843798D01*
X1347279Y847039D01*
X1347973Y847035D01*
X1348432Y846627D01*
X1355458Y834323D01*
X1355542Y833659D01*
X1355285Y833216D01*
X1348598Y826528D01*
X1347965Y826267D01*
X1347412Y826439D01*
X1333338Y836216D01*
X1332951Y836818D01*
X1333109Y837543D01*
G37*
G36*
X1093684Y767789D02*
X1097519Y781438D01*
X1097933Y781962D01*
X1098423Y782091D01*
X1107881D01*
X1108513Y781828D01*
X1108782Y781309D01*
X1110461Y771683D01*
X1119952Y769573D01*
X1120506Y769184D01*
X1120660Y768656D01*
Y759193D01*
X1120400Y758568D01*
X1119918Y758304D01*
X1106131Y755240D01*
X1105458Y755358D01*
X1105084Y755802D01*
X1101874Y763463D01*
X1094207Y766676D01*
X1093719Y767168D01*
X1093684Y767789D01*
G37*
G36*
X1120576Y1080163D02*
X1120836Y1080789D01*
X1121316Y1081054D01*
X1135103Y1084118D01*
X1135779Y1084000D01*
X1136152Y1083555D01*
X1139362Y1075895D01*
X1147054Y1072671D01*
X1147535Y1072187D01*
X1147588Y1071624D01*
X1144804Y1057894D01*
X1144423Y1057328D01*
X1143883Y1057166D01*
X1134418D01*
X1133794Y1057425D01*
X1133537Y1057883D01*
X1131172Y1067587D01*
X1121283Y1069784D01*
X1120730Y1070174D01*
X1120576Y1070701D01*
Y1080163D01*
G37*
G36*
X916869Y523818D02*
X916869Y523936D01*
X922799Y538158D01*
X923289Y538646D01*
X923897Y538688D01*
X948842Y532150D01*
X949377Y531744D01*
X949514Y531240D01*
X949513Y516008D01*
X949255Y515387D01*
X948805Y515129D01*
X923876Y508595D01*
X923191Y508689D01*
X922791Y509150D01*
X916871Y523348D01*
X916869Y523818D01*
G37*
G36*
X1157064Y1271859D02*
X1157103Y1287172D01*
X1157379Y1287831D01*
X1158066Y1288114D01*
X1189040Y1282330D01*
X1189612Y1281956D01*
X1189781Y1281407D01*
Y1262281D01*
X1189519Y1261649D01*
X1189011Y1261381D01*
X1158231Y1255610D01*
X1157531Y1255758D01*
X1157127Y1256380D01*
X1157064Y1271859D01*
G37*
G36*
X940516Y2037976D02*
X940996Y2038470D01*
X965327Y2049452D01*
X965982Y2049472D01*
X966351Y2049233D01*
X972989Y2042597D01*
X973239Y2041991D01*
X973146Y2041561D01*
X962184Y2017275D01*
X961667Y2016790D01*
X960978Y2016800D01*
X946779Y2022643D01*
X946377Y2023042D01*
X940514Y2037267D01*
X940516Y2037976D01*
G37*
G36*
X1544687Y1606189D02*
X1544927Y1606561D01*
X1551675Y1613309D01*
X1552279Y1613558D01*
X1552711Y1613465D01*
X1576943Y1602449D01*
X1577428Y1601931D01*
X1577416Y1601243D01*
X1571573Y1587043D01*
X1571067Y1586535D01*
X1570937D01*
X1556947Y1580778D01*
X1556237Y1580780D01*
X1555745Y1581260D01*
X1544709Y1605535D01*
X1544687Y1606189D01*
G37*
G36*
X1978299Y500548D02*
X1978544Y500936D01*
X1989182Y511574D01*
X1989447Y511747D01*
X2008323Y518943D01*
X2009033Y518921D01*
X2009514Y518425D01*
X2015413Y504225D01*
X2015411Y503635D01*
X2009508Y489475D01*
X2009009Y488978D01*
X2008339Y488960D01*
X1978875Y499287D01*
X1978342Y499763D01*
X1978299Y500548D01*
G37*
G36*
X1968456Y1443553D02*
X1986140Y1469398D01*
X1986740Y1469789D01*
X1987463Y1469636D01*
X2009256Y1447879D01*
X2009527Y1447218D01*
X2009242Y1446535D01*
X2009046Y1446370D01*
X1983250Y1428721D01*
X1982581Y1428580D01*
X1982073Y1428848D01*
X1968548Y1442374D01*
X1968287Y1443004D01*
X1968456Y1443553D01*
G37*
G54D10*
X463253Y1771864D02*
X523253D01*
G54D11*
X449253Y1431612D02*
X537253D01*
G54D10*
X462583Y2464630D02*
X522583D01*
G54D11*
X448583Y2124378D02*
X536583D01*
G54D12*
X2540064Y753663D03*
G54D13*
X2440064D03*
X2540064Y853663D03*
X2440064D03*
X2540064Y953663D03*
X2440064D03*
X2540064Y1053663D03*
X2440064D03*
X2540064Y1153663D03*
X2440064D03*
X2540064Y1253663D03*
X2440064D03*
X2540064Y1353663D03*
X2440064D03*
X2540064Y1453663D03*
X2440064D03*
X2540064Y1553663D03*
X2440064D03*
X2540064Y1653663D03*
X2440064D03*
X2540064Y1753663D03*
X2440064D03*
X2540064Y1853663D03*
X2440064D03*
X2540064Y1953663D03*
X2440064D03*
X2540064Y2053663D03*
X2440064D03*
X2540064Y2153663D03*
X2440064D03*
X2540064Y2253663D03*
X2440064D03*
X2540064Y2353663D03*
X2440064D03*
X2540064Y2453663D03*
X2440064D03*
G54D10*
X463253Y1079864D02*
X523253D01*
G54D11*
X449253Y739612D02*
X537253D01*
G54D14*
X1623438Y2412027D03*
Y2462027D03*
G54D15*
X2155513Y2914563D03*
X2065356D03*
X821261D03*
G54D16*
X731204Y2914469D03*
G54D15*
X2088190Y3107477D03*
X2087993Y3264957D03*
G54D17*
X1848529Y2000612D03*
X1581797Y1079352D03*
X1180222Y651203D03*
X1764867Y1257673D03*
X2068017Y1620101D03*
X1335734Y1014234D03*
X1644789Y1876597D03*
X2064080Y2087010D03*
X1639421Y2108880D03*
X1320379Y1820494D03*
X1884946Y1194510D03*
X2068017Y2420101D03*
X1551198Y812620D03*
X1411521Y1684667D03*
X1375104Y698447D03*
X1094762Y1851006D03*
X1261631Y748236D03*
X1560253Y745480D03*
X2068017Y1320101D03*
X1674316Y701404D03*
G54D14*
X1570970Y1587227D03*
G54D17*
X1102353Y763942D03*
X1138883Y1075415D03*
X1093188Y897112D03*
X1531600Y986833D03*
X1587702Y1538998D03*
X2012111Y1220101D03*
X971568Y1483801D03*
X1725497Y2259471D03*
X1037402Y746063D03*
X1456797Y2204352D03*
X1572112Y829352D03*
X1749214Y1239563D03*
X2068017Y1685435D03*
X812009Y3043500D03*
X1196954Y2384471D03*
X972638Y2172441D03*
X979434Y641360D03*
X1196954Y2418919D03*
X2068017Y1791734D03*
X1661176Y918574D03*
X844489Y3061217D03*
X1697938Y2259471D03*
X924803Y808661D03*
X865551Y1898425D03*
X906496Y1225197D03*
X867126Y663386D03*
X1808860Y1240351D03*
X1492230Y2203818D03*
X2075891Y1029923D03*
X1217623Y1458289D03*
X888883Y472463D03*
X859356Y3218899D03*
X899016Y2295669D03*
X1266344Y2493132D03*
X899016Y1628346D03*
X1433174Y2336242D03*
X1623135Y684667D03*
X1749119Y2377581D03*
X1790458Y1022660D03*
X1587008Y1376269D03*
X1098819Y659449D03*
X1278167Y1175795D03*
X1101397Y1145213D03*
X892126Y1194291D03*
X894685Y1357812D03*
X1652663Y1768329D03*
X1677269Y2237817D03*
G54D14*
X1940064Y1599038D03*
G54D17*
X1169111Y3082305D03*
X1219592Y1134864D03*
X1006993Y1901203D03*
X2040064Y708683D03*
X1113293Y1414982D03*
X933465Y770472D03*
X919095Y1990551D03*
X1793411Y700415D03*
X1101397Y2485849D03*
X1331441Y2155140D03*
X2012111Y1120101D03*
X1587336Y1350022D03*
X1414474Y823447D03*
X1226482Y858880D03*
X2040458Y2018112D03*
X2010930Y927561D03*
X1313096Y1526203D03*
X1433174Y978959D03*
X2068017Y1820101D03*
X1306206Y1019313D03*
X1195970Y1765376D03*
X1335734Y705337D03*
X1104151Y2178762D03*
X2068017Y2120101D03*
X1196954Y1019313D03*
X1674311Y789982D03*
X2068017Y1920101D03*
Y2220101D03*
X1198923Y730927D03*
X1457781Y776597D03*
X1156600Y1947246D03*
X1240174Y1155140D03*
X2069986Y1287797D03*
X1547353Y3301787D03*
X1671412Y981960D03*
X2073923Y1169687D03*
X1479434Y967148D03*
X1414474Y1199431D03*
X1092623Y1554142D03*
X1480419Y1035455D03*
X1276789Y1150992D03*
X1427069Y3172850D03*
X1455616Y998677D03*
X1188206Y1324024D03*
X1414474Y1056715D03*
X1144789Y690573D03*
X1277576Y1201189D03*
X933072Y3021256D03*
X1198923Y809667D03*
X2040058Y2314861D03*
X1628056Y641360D03*
X1387699Y3172850D03*
X1396757Y2370474D03*
X1628056Y1163998D03*
X1335734Y1844116D03*
X1628056Y1135455D03*
X898726Y2229724D03*
X948819Y2173031D03*
X898726Y1537992D03*
X944685Y1483268D03*
X1217623Y1490770D03*
X1079921Y829515D03*
X895713Y839114D03*
X983858Y781496D03*
X1705923Y1605323D03*
X1112308Y1443526D03*
G54D14*
X1799316Y1615770D03*
G54D17*
X1628056Y1228959D03*
X1341639Y1792935D03*
X1587702Y1507502D03*
X1217623Y2033093D03*
X1057252Y1120629D03*
X1458765Y1332305D03*
X810143Y559077D03*
X1203844Y1739789D03*
X1587702Y1476006D03*
X1586718Y2208880D03*
X1012899Y1870691D03*
X1211718Y2005534D03*
X1585734Y1413014D03*
X1269786Y1693529D03*
X896757Y1256434D03*
X2075891Y1004332D03*
X1505025Y844116D03*
X1507983Y3301789D03*
X1339584Y843211D03*
X2068017Y694904D03*
X2082874Y1487205D03*
X2040371Y802370D03*
X1394786Y721085D03*
X2037598Y1397244D03*
X1562111Y789982D03*
X1573923Y986833D03*
X2075891Y1055514D03*
X2062111Y2189372D03*
X1101802Y2054746D03*
X1402663Y2336242D03*
X1467623Y2068526D03*
G54D14*
X1677269Y947463D03*
X1726482Y1097069D03*
X1956797Y2197463D03*
X1879041Y2383486D03*
G54D17*
X1804237Y2377581D03*
X1906600Y2340179D03*
X767820Y645087D03*
X1060570Y1054216D03*
X1060433Y1036614D03*
X668307Y1012795D03*
X644882Y1012598D03*
X911221Y626181D03*
G54D14*
X917426Y523644D03*
X2014867Y503959D03*
G54D17*
X1275142Y944760D03*
G54D14*
X946962Y1331238D03*
G54D17*
X1273726Y2213211D03*
X2069308Y1875008D03*
X1626182Y1194288D03*
X1268804Y1590179D03*
G54D14*
X946962Y2023245D03*
G54D17*
X1072943Y1745472D03*
X667520Y1712598D03*
X1073927Y1772441D03*
X637795Y1712598D03*
X640158Y2423228D03*
X1071954Y2423031D03*
X665748Y2423228D03*
X1071560Y2448691D03*
G54D14*
X1766836Y1761439D03*
X1765852Y1838211D03*
G54D17*
X1201395Y691543D03*
X1316293Y937205D03*
X1302269Y1317541D03*
X1311127Y1590179D03*
X1312160Y2216212D03*
X1194001Y1947246D03*
X1414107Y698447D03*
X2075891Y838978D03*
X2083268Y1401968D03*
X1586718Y3301793D03*
X2085433Y672441D03*
X1374119Y1655140D03*
X1304455Y846997D03*
X1975005Y1146774D03*
X2058174Y1590947D03*
X2078937Y2495472D03*
G54D14*
X1804237Y2285061D03*
G54D17*
X1259590Y3082305D03*
G54D14*
X1677757Y1226374D03*
G54D17*
X920379Y1122332D03*
G54D14*
X894488Y2385039D03*
G54D17*
X1914552Y1771313D03*
X1301285Y2492148D03*
G54D14*
X898726Y1702165D03*
G54D17*
X1962780Y1771313D03*
X1914474Y1797730D03*
X2062119Y819458D03*
X1939080Y1797730D03*
X1224157Y3082305D03*
X1962702Y1797730D03*
X1939158Y1771313D03*
G54D14*
X1841639Y2285061D03*
G54D17*
X948032Y2505905D03*
G54D14*
X1211237Y1223630D03*
G54D17*
X1224157Y3109864D03*
G54D14*
X1879041Y2285061D03*
G54D17*
X2040064Y1509274D03*
X1295023Y3082305D03*
G54D14*
X1066339Y801968D03*
G54D17*
X1295023Y3109864D03*
X927953Y1830905D03*
G54D18*
X2227476Y3119712D03*
X2168421D03*
G54D17*
X1295023Y3176793D03*
G54D18*
X2188106Y3119712D03*
X2207791D03*
X2148736D03*
G54D17*
X1224157Y3176793D03*
X1295023Y3149234D03*
X1259590Y3176793D03*
X1224157Y3149234D03*
G54D14*
X894488Y2329921D03*
G54D17*
X1401678Y2411045D03*
X1103817Y1954943D03*
X1401678Y2455337D03*
X1355812Y1954746D03*
Y2209057D03*
G54D14*
X898726Y1658857D03*
G54D17*
X1569001Y2988211D03*
X1773726Y3021675D03*
X1617230Y3237817D03*
X1426789Y3268709D03*
X1751088Y3229943D03*
X1772281Y2111833D03*
X2085236Y2312401D03*
X1528647Y1376269D03*
X1505616Y1012266D03*
X1870293Y1307882D03*
X1833285Y1495284D03*
X1868293Y1585258D03*
X1691285Y1479943D03*
Y1446478D03*
X1703096Y1463211D03*
G54D14*
X893307Y952362D03*
X892717Y1159842D03*
X891142Y2501968D03*
X896654Y1855709D03*
G54D17*
X1860340Y1283093D03*
X1811127D03*
X2068017Y1720101D03*
X1198923Y760459D03*
X1197938Y634254D03*
G54D14*
X1999820Y1170677D03*
X2014867Y603368D03*
G54D17*
X2081693Y2390945D03*
X1294395Y547266D03*
G54D14*
X1157694Y1271858D03*
G54D17*
X2052269Y1992521D03*
G54D14*
X1998009Y1458289D03*
G54D17*
X1997151Y1900002D03*
X1719592Y825415D03*
X1335734Y1192541D03*
X1394786Y601006D03*
X1091552Y920677D03*
G54D19*
X1117824Y195093D02*
X1166568D01*
X1140321Y165097D01*
X1151570D01*
X1159069Y161347D01*
X1162818Y157598D01*
X1166568Y150099D01*
Y131351D01*
X1162818Y123852D01*
X1159069Y120102D01*
X1151570Y116353D01*
X1129072D01*
X1121573Y120102D01*
X1117824Y123852D01*
G54D20*
X1570970Y1587227D02*
X1540064Y1618132D01*
X1139173Y1075125D02*
X1138883Y1075415D01*
X1032584Y1435061D02*
Y1110526D01*
X1102353Y763942D02*
X1130178D01*
X1171867Y722252D01*
Y690928D01*
X1215655Y1618132D02*
X1032584Y1435061D01*
X1139173Y882018D02*
Y1075125D01*
X1199205Y663591D02*
X1636502D01*
X1103150Y845994D02*
X1139173Y882018D01*
X1103150Y764739D02*
Y845994D01*
X1540064Y1618132D02*
X1215655D01*
X1032584Y1110526D02*
X1067695Y1075415D01*
X1171867Y690928D02*
X1199205Y663591D01*
X1102353Y763942D02*
X1103150Y764739D01*
X1636502Y663591D02*
X1674316Y701404D01*
X1067695Y1075415D02*
X1138883D01*
X2032584Y1471478D02*
X1965064Y1538998D01*
X1587702D01*
X2032584Y1430812D02*
Y1471478D01*
X2012111Y1410340D02*
X2032584Y1430812D01*
X2012111Y1220101D02*
Y1410340D01*
G54D19*
X971568Y1483801D02*
Y1555820D01*
X2090655Y1708073D02*
X2068017Y1685435D01*
X1219592Y1680140D02*
X1253056Y1713604D01*
X1501484D01*
X1523137Y1691951D01*
X971568Y1555820D02*
X1095888Y1680140D01*
X2077559Y1744685D02*
X2090655Y1731589D01*
X1523137Y1691951D02*
X1986324D01*
X2090655Y1731589D02*
Y1708073D01*
X1095888Y1680140D02*
X1219592D01*
X1986324Y1691951D02*
X2039058Y1744685D01*
X2077559D01*
X958071Y663386D02*
X867126D01*
X955315Y1807480D02*
Y1850984D01*
X2068017Y1791734D02*
X2047133D01*
X1534552Y1719510D02*
X1512899Y1741164D01*
X1974909Y1719510D02*
X1534552D01*
X2047133Y1791734D02*
X1974909Y1719510D01*
X907874Y1898425D02*
X865551D01*
X955315Y1850984D02*
X907874Y1898425D01*
X1055096Y1707699D02*
X955315Y1807480D01*
X979434Y642022D02*
X958071Y663386D01*
X979434Y641360D02*
Y642022D01*
X1512899Y1741164D02*
X1241641D01*
X1208176Y1707699D02*
X1055096D01*
X1241641Y1741164D02*
X1208176Y1707699D01*
G54D21*
X1241159Y1058669D02*
Y920059D01*
X1539474Y875022D02*
X1903647D01*
X1217623Y1458289D02*
X1123135Y1363801D01*
Y1215669D02*
X1163993Y1174811D01*
X1267495Y893723D02*
X1520773D01*
X1163993Y1174811D02*
Y1135835D01*
X1520773Y893723D02*
X1539474Y875022D01*
X2058548Y1029923D02*
X2075891D01*
X1163993Y1135835D02*
X1241159Y1058669D01*
Y920059D02*
X1267495Y893723D01*
X1903647Y875022D02*
X2058548Y1029923D01*
X1123135Y1363801D02*
Y1215669D01*
G54D20*
X1587336Y1350022D02*
X1707680D01*
X1961224Y1120101D02*
X2012111D01*
X1707680Y1350022D02*
X1795293Y1262410D01*
X1873611D02*
X1939789Y1196232D01*
X1795293Y1262410D02*
X1873611D01*
X1939789Y1141536D02*
X1961224Y1120101D01*
X1939789Y1196232D02*
Y1141536D01*
X1313096Y1526203D02*
X1220182D01*
X1097064Y1199196D02*
X1133678Y1162581D01*
X1256525Y874012D02*
X1511940D01*
X1220182Y1526203D02*
X1162505Y1468526D01*
X1511940Y874012D02*
X1535930Y850022D01*
X1922938D01*
X1133678Y1136706D02*
X1221867Y1048517D01*
X1097064Y1366667D02*
Y1199196D01*
X1162505Y1432108D02*
X1097064Y1366667D01*
X1133678Y1162581D02*
Y1136706D01*
G54D21*
X1922938Y850022D02*
X1933391D01*
G54D20*
X1162505Y1468526D02*
Y1432108D01*
X1221867Y1048517D02*
Y908669D01*
X1256525Y874012D01*
G54D21*
X1933391Y850022D02*
X2010930Y927561D01*
G54D19*
X1804237Y1803171D02*
X1821167Y1820101D01*
X1628056Y1803171D02*
X1804237D01*
X1590261Y1765376D02*
X1628056Y1803171D01*
X1195970Y1765376D02*
X1590261D01*
X1821167Y1820101D02*
X2068017D01*
G54D20*
X1240174Y1155140D02*
Y1139872D01*
X2049316Y1200199D02*
X2069986Y1220868D01*
X1978450Y1052187D02*
X2049316Y1123053D01*
X1240174Y1139872D02*
X1258962Y1121085D01*
G54D21*
X2069986Y1220868D02*
Y1287797D01*
G54D20*
X1512899Y1052187D02*
X1978450D01*
X1444001Y1121085D02*
X1512899Y1052187D01*
X2049316Y1123053D02*
Y1200199D01*
X1258962Y1121085D02*
X1444001D01*
G54D21*
X2073923Y1113211D02*
Y1169687D01*
G54D20*
X1671412Y981960D02*
X1677269Y987817D01*
X1948529D01*
X2073923Y1113211D01*
G54D21*
X2075891Y937403D02*
Y1004332D01*
G54D20*
X1907000Y768512D02*
X1908195Y769707D01*
G54D21*
X2075891Y937403D01*
G54D20*
X1546377Y768512D02*
X1907000D01*
X1505025Y809864D02*
X1546377Y768512D01*
X1505025Y844116D02*
Y809864D01*
X1339584Y843211D02*
Y842234D01*
X1470182Y711636D01*
X1565064D02*
X1600655Y747227D01*
X1840493D02*
X1906596Y681124D01*
X1600655Y747227D02*
X1840493D01*
X1470182Y711636D02*
X1565064D01*
X2054237Y681124D02*
X2068017Y694904D01*
X1906596Y681124D02*
X2054237D01*
G54D21*
X2048706Y1055514D02*
X2075891D01*
G54D20*
X1573923Y986833D02*
Y962227D01*
X1890239Y897047D02*
X2048706Y1055514D01*
X1639102Y897047D02*
X1890239D01*
X1573923Y962227D02*
X1639102Y897047D01*
G54D21*
X2036521Y2189372D02*
X2062111D01*
G54D20*
X1467623Y2068526D02*
X1915674D01*
G54D21*
X2036521Y2189372D01*
G54D19*
X1266344Y953559D02*
Y1058681D01*
G54D22*
X953470Y523644D02*
X1005025Y575199D01*
G54D21*
X1310729Y2088604D02*
X1012321D01*
G54D19*
X1266344Y1058681D02*
X1196458Y1128567D01*
X1598230Y1222240D02*
X1626182Y1194288D01*
X1261615Y1222240D02*
X1598230D01*
G54D22*
X1914474Y575199D02*
X1985713Y503959D01*
G54D19*
X1196458Y1128567D02*
Y1157083D01*
G54D21*
X2069308Y1875008D02*
X2002365Y1941951D01*
G54D22*
X917426Y523644D02*
X953470D01*
G54D21*
X1457382Y1941951D02*
X1310729Y2088604D01*
X1012321D02*
X946962Y2023245D01*
G54D19*
X1196458Y1157083D02*
X1261615Y1222240D01*
X1275142Y944760D02*
X1266344Y953559D01*
G54D22*
X1985713Y503959D02*
X2014867D01*
X1005025Y575199D02*
X1914474D01*
G54D21*
X2002365Y1941951D02*
X1457382D01*
G54D20*
X1581797Y686045D02*
X1459360D01*
X2071479Y658486D02*
X1892820D01*
X1306048Y839357D02*
Y845403D01*
X1829828Y721478D02*
X1617230D01*
X2085433Y672441D02*
X2071479Y658486D01*
X1459360Y686045D02*
X1306048Y839357D01*
X1892820Y658486D02*
X1829828Y721478D01*
X1617230D02*
X1581797Y686045D01*
X1306048Y845403D02*
X1304455Y846997D01*
G54D23*
X1776395Y2975992D02*
X1735844Y3016543D01*
X1095428D02*
X1024790Y2945905D01*
X2064941Y2914340D02*
Y2914527D01*
X1735844Y3016543D02*
X1095428D01*
X852411Y2945905D02*
X820846Y2914340D01*
X2003476Y2975992D02*
X1776395D01*
X2064941Y2914527D02*
X2003476Y2975992D01*
X1024790Y2945905D02*
X852411D01*
X1827182Y3022843D02*
X1795637Y3054388D01*
X786182Y2986032D02*
X731204Y2931054D01*
X1795637Y3054388D02*
X1064830D01*
X996474Y2986032D01*
X2046596Y3022843D02*
X1827182D01*
X731204Y2931054D02*
Y2914469D01*
X996474Y2986032D02*
X786182D01*
X2155098Y2914340D02*
X2046596Y3022843D01*
G54D21*
X2035041Y2262206D02*
X1922655D01*
X2085236Y2312401D02*
X2035041Y2262206D01*
X1922655D02*
X1772281Y2111833D01*
G54D20*
X1676285Y1652581D02*
X1581797Y1558093D01*
X1144885Y1099431D02*
X1168411Y1075906D01*
X1194001Y1558093D02*
X1076875Y1440967D01*
X2000497Y1652581D02*
X1676285D01*
X1168411Y790971D02*
X1198923Y760459D01*
X1076875Y1135849D02*
X1113293Y1099431D01*
X1168411Y1075906D02*
Y790971D01*
X2068017Y1720101D02*
X2000497Y1652581D01*
X1581797Y1558093D02*
X1194001D01*
X1113293Y1099431D02*
X1144885D01*
X1076875Y1440967D02*
Y1135849D01*
G54D24*
X1606403Y1444904D02*
X1633962Y1417345D01*
X1957064D02*
X1998009Y1458289D01*
X1209466Y1271858D02*
X1382511Y1444904D01*
X1606403D01*
X1633962Y1417345D02*
X1957064D01*
X1157694Y1271858D02*
X1209466D01*
G54D25*
X484702Y2116504D03*
X485371Y1423748D03*
Y731740D03*
%LPC*%
G75*
X485371Y731740D02*
G54D26*
X1578807Y3408169D02*
X1572639Y3407296D01*
X1566685Y3405462D01*
X1561095Y3402712D01*
X1556008Y3399116D01*
X1551551Y3394763D01*
X1547837Y3389761D01*
X1544956Y3384238D01*
X1542983Y3378329D01*
X1541965Y3372182D01*
X1541929Y3365953D01*
X1542875Y3359795D01*
X1544779Y3353864D01*
X1547594Y3348306D01*
X1551251Y3343262D01*
X1555656Y3338857D01*
X1560701Y3335202D01*
X1566258Y3332387D01*
X1572190Y3330483D01*
X1578348Y3329538D01*
X1578641Y3329518D01*
X668094Y729062D02*
X823819Y728937D01*
X2933599Y730381D02*
Y1031295D01*
X1708372Y2494294D02*
X1708863Y2490488D01*
X1710303Y2486932D01*
X1712599Y2483857D01*
X1715599Y2481465D01*
X1719108Y2479913D01*
X1722896Y2479302D01*
X1726715Y2479671D01*
X1730316Y2480998D01*
X1733462Y2483195D01*
X1735948Y2486118D01*
X1737611Y2489576D01*
X1738342Y2493343D01*
X1738372Y2494294D01*
X514687Y3230082D02*
X514725Y2974267D01*
X0Y3700787D02*
X3307087D01*
Y0D01*
X0D01*
Y3700787D01*
X1178371Y2964517D02*
X1177880Y2968323D01*
X1176440Y2971879D01*
X1174145Y2974954D01*
X1171144Y2977346D01*
X1167635Y2978898D01*
X1163847Y2979509D01*
X1160028Y2979140D01*
X1156427Y2977813D01*
X1153281Y2975616D01*
X1150795Y2972693D01*
X1149132Y2969235D01*
X1148401Y2965468D01*
X1148371Y2964517D01*
X314820Y2437601D02*
X315585Y2431413D01*
X317315Y2425422D01*
X319966Y2419779D01*
X323474Y2414624D01*
X327749Y2410085D01*
X332685Y2406276D01*
X338160Y2403291D01*
X344036Y2401206D01*
X350168Y2400073D01*
X356401Y2399919D01*
X362581Y2400748D01*
X368553Y2402541D01*
X374169Y2405251D01*
X379287Y2408812D01*
X383781Y2413134D01*
X387539Y2418110D01*
X390466Y2423615D01*
X392489Y2429513D01*
X393559Y2435656D01*
X393662Y2437007D01*
X393747Y1473399D02*
X392962Y1479580D01*
X391213Y1485559D01*
X388543Y1491188D01*
X385019Y1496327D01*
X380730Y1500845D01*
X375782Y1504631D01*
X370300Y1507591D01*
X364419Y1509649D01*
X358288Y1510755D01*
X352059Y1510881D01*
X345888Y1510023D01*
X339929Y1508204D01*
X334331Y1505469D01*
X329235Y1501885D01*
X324767Y1497544D01*
X321038Y1492552D01*
X318144Y1487035D01*
X316154Y1481131D01*
X315120Y1474987D01*
X314972Y1472045D01*
X848710Y320030D02*
X859177Y317409D01*
X869839Y315754D01*
X880608Y315080D01*
X884063Y315073D01*
X686900Y627462D02*
X690041Y610545D01*
X694146Y593836D01*
X699202Y577390D01*
X705193Y561261D01*
X712098Y545501D01*
X719896Y530163D01*
X728559Y515298D01*
X738061Y500954D01*
X748369Y487177D01*
X759450Y474015D01*
X771268Y461509D01*
X783782Y449701D01*
X796954Y438630D01*
X810738Y428332D01*
X825089Y418841D01*
X839961Y410189D01*
X855305Y402403D01*
X867952Y396788D01*
X1099697Y2612667D02*
X1099735Y2797188D01*
X2933585Y1307130D02*
X2933632Y1300898D01*
X2934660Y1294751D01*
X2936644Y1288843D01*
X2939534Y1283321D01*
X2943258Y1278323D01*
X2947722Y1273975D01*
X2952816Y1270384D01*
X2958412Y1267640D01*
X2964370Y1265812D01*
X2970542Y1264945D01*
X2976773Y1265062D01*
X2982908Y1266159D01*
X2988794Y1268209D01*
X2994283Y1271160D01*
X2999239Y1274939D01*
X3003537Y1279452D01*
X3007071Y1284585D01*
X3009752Y1290212D01*
X3011514Y1296190D01*
X3012311Y1302371D01*
X3012291Y1306621D01*
X424692Y1228175D02*
X414342Y1227775D01*
X404077Y1226392D01*
X393990Y1224039D01*
X384173Y1220738D01*
X374714Y1216517D01*
X365699Y1211417D01*
X357211Y1205481D01*
X349325Y1198766D01*
X342113Y1191331D01*
X335642Y1183244D01*
X329969Y1174578D01*
X325146Y1165412D01*
X321217Y1155828D01*
X318216Y1145915D01*
X316173Y1135761D01*
X315104Y1125458D01*
X314972Y1122237D01*
X2293309Y2975981D02*
X2293373Y3229518D01*
X734422Y1991827D02*
Y1921353D01*
X1738372Y2964517D02*
X1737881Y2968323D01*
X1736441Y2971879D01*
X1734146Y2974954D01*
X1731145Y2977346D01*
X1727636Y2978898D01*
X1723848Y2979509D01*
X1720029Y2979140D01*
X1716428Y2977813D01*
X1713282Y2975616D01*
X1710796Y2972693D01*
X1709133Y2969235D01*
X1708402Y2965468D01*
X1708372Y2964517D01*
X830619Y1347280D02*
X834440Y1347694D01*
X838032Y1349062D01*
X841160Y1351296D01*
X843620Y1354249D01*
X845252Y1357728D01*
X845950Y1361508D01*
X845667Y1365341D01*
X844423Y1368978D01*
X842298Y1372181D01*
X839431Y1374741D01*
X836009Y1376491D01*
X832256Y1377318D01*
X830619Y1377374D01*
X2024601Y315150D02*
X1768588D01*
X593371Y3229518D02*
X593408Y2975930D01*
X867952Y396787D02*
X873914Y394827D01*
X880108Y393823D01*
X886384Y393801D01*
X892586Y394761D01*
X898561Y396680D01*
X904162Y399510D01*
X909251Y403181D01*
X913704Y407604D01*
X917409Y412669D01*
X920277Y418251D01*
X922236Y424213D01*
X923238Y430408D01*
X923371Y433662D01*
X2372057Y3230093D02*
X2371522Y3243357D01*
X2370004Y3256545D01*
X2367510Y3269584D01*
X2364055Y3282402D01*
X2359658Y3294928D01*
X2354342Y3307092D01*
X2348138Y3318828D01*
X2341080Y3330072D01*
X2333206Y3340759D01*
X2324560Y3350833D01*
X2315190Y3360237D01*
X2305147Y3368919D01*
X2294488Y3376831D01*
X2283270Y3383930D01*
X2271556Y3390176D01*
X2259411Y3395535D01*
X2246901Y3399978D01*
X2234096Y3403479D01*
X2221066Y3406019D01*
X2207884Y3407585D01*
X2194621Y3408168D01*
X2194272Y3408170D01*
X1578807D01*
X2933548Y2473664D02*
Y2177911D01*
X1218371Y463662D02*
X1217879Y469074D01*
X1216419Y474308D01*
X1214038Y479193D01*
X1210816Y483568D01*
X1206857Y487290D01*
X1202291Y490237D01*
X1197269Y492312D01*
X1191955Y493447D01*
X1186524Y493605D01*
X1181152Y492781D01*
X1176018Y491001D01*
X1171289Y488324D01*
X1167121Y484838D01*
X1163650Y480658D01*
X1160989Y475919D01*
X1159227Y470779D01*
X1158422Y465405D01*
X1158371Y463662D01*
X393747Y1119262D02*
Y1053226D01*
X734406Y1298647D02*
Y1228173D01*
X610469Y606470D02*
X614356Y587573D01*
X619205Y568899D01*
X625002Y550497D01*
X631732Y532416D01*
X639378Y514702D01*
X647919Y497403D01*
X657334Y480563D01*
X667598Y464226D01*
X678683Y448436D01*
X690561Y433233D01*
X703201Y418657D01*
X716570Y404747D01*
X730632Y391538D01*
X745352Y379065D01*
X760690Y367361D01*
X776606Y356457D01*
X793059Y346381D01*
X810005Y337159D01*
X827401Y328816D01*
X845200Y321373D01*
X848710Y320030D01*
X423747Y1841462D02*
X418335Y1840970D01*
X413101Y1839509D01*
X408216Y1837129D01*
X403841Y1833906D01*
X400119Y1829947D01*
X397172Y1825381D01*
X395097Y1820359D01*
X393962Y1815045D01*
X393747Y1811463D01*
X1787047Y2612678D02*
X2874417D01*
X692471Y3408158D02*
X1307936D01*
X1148371Y2494294D02*
X1148862Y2490488D01*
X1150302Y2486932D01*
X1152598Y2483857D01*
X1155598Y2481465D01*
X1159107Y2479913D01*
X1162895Y2479302D01*
X1166714Y2479671D01*
X1170315Y2480998D01*
X1173461Y2483195D01*
X1175947Y2486118D01*
X1177610Y2489576D01*
X1178341Y2493343D01*
X1178371Y2494294D01*
X314972Y1404388D02*
Y1472045D01*
X964279Y2875941D02*
X1118409Y2875930D01*
X1578641Y3329518D02*
X2193373D01*
X830619Y1179303D02*
X813297Y1179339D01*
X2193881Y2797249D02*
X2207149Y2797789D01*
X2220341Y2799313D01*
X2233383Y2801812D01*
X2246204Y2805272D01*
X2258732Y2809674D01*
X2270899Y2814995D01*
X2282637Y2821204D01*
X2293882Y2828267D01*
X2304572Y2836145D01*
X2314647Y2844795D01*
X2324053Y2854170D01*
X2332736Y2864217D01*
X2340650Y2874880D01*
X2347750Y2886102D01*
X2353998Y2897820D01*
X2359358Y2909969D01*
X2363801Y2922483D01*
X2367304Y2935292D01*
X2369846Y2948326D01*
X2371413Y2961513D01*
X2371993Y2974329D01*
X423836Y2069496D02*
X783320Y2069468D01*
X822835Y673226D02*
X828267Y673520D01*
X833556Y674788D01*
X838531Y676988D01*
X843028Y680049D01*
X846899Y683870D01*
X850019Y688326D01*
X852284Y693271D01*
X853622Y698544D01*
X853906Y700952D01*
X813296Y1347240D02*
X813281Y1179333D01*
X1118409Y2875929D02*
X1123821Y2876422D01*
X1129055Y2877883D01*
X1133940Y2880264D01*
X1138315Y2883487D01*
X1142038Y2887447D01*
X1144984Y2892012D01*
X1147059Y2897035D01*
X1148194Y2902350D01*
X1148409Y2905930D01*
X2933550Y2473664D02*
X2933057Y2481338D01*
X2931587Y2488886D01*
X2929164Y2496184D01*
X2925826Y2503113D01*
X2921631Y2509557D01*
X2916645Y2515412D01*
X2910951Y2520581D01*
X2904644Y2524979D01*
X2897825Y2528534D01*
X2890607Y2531189D01*
X2883110Y2532898D01*
X2875455Y2533634D01*
X2873548Y2533664D01*
X830710Y1841335D02*
X783320Y1841371D01*
X1495357Y315073D02*
X884063D01*
X1148371Y2494294D02*
Y2533664D01*
X593410Y2975930D02*
X593903Y2966012D01*
X595377Y2956191D01*
X597818Y2946566D01*
X601202Y2937230D01*
X605495Y2928275D01*
X610655Y2919790D01*
X616631Y2911859D01*
X623364Y2904560D01*
X630788Y2897965D01*
X638830Y2892138D01*
X647409Y2887138D01*
X656443Y2883014D01*
X665841Y2879805D01*
X675510Y2877545D01*
X685357Y2876255D01*
X693409Y2875930D01*
X393747Y715162D02*
Y780246D01*
X830619Y1149209D02*
X834440Y1149622D01*
X838032Y1150990D01*
X841161Y1153223D01*
X843622Y1156175D01*
X845254Y1159655D01*
X845953Y1163434D01*
X845671Y1167267D01*
X844427Y1170904D01*
X842303Y1174107D01*
X839437Y1176668D01*
X836015Y1178419D01*
X832262Y1179247D01*
X830619Y1179303D01*
X423746Y1377366D02*
X783230Y1377338D01*
X734406Y1228173D02*
X424692D01*
X1218372Y433702D02*
X1218865Y427444D01*
X1220332Y421341D01*
X1222735Y415542D01*
X1226015Y410190D01*
X1230092Y405417D01*
X1234866Y401341D01*
X1240218Y398061D01*
X1246018Y395659D01*
X1252121Y394194D01*
X1258372Y393702D01*
X424775Y2612665D02*
X414383Y2612195D01*
X404082Y2610744D01*
X393964Y2608323D01*
X384122Y2604955D01*
X374642Y2600670D01*
X365611Y2595507D01*
X357109Y2589512D01*
X349213Y2582739D01*
X341995Y2575248D01*
X335518Y2567107D01*
X329841Y2558390D01*
X325014Y2549175D01*
X321083Y2539543D01*
X318081Y2529583D01*
X316035Y2519383D01*
X314965Y2509035D01*
X314820Y2505257D01*
X3012291Y1306621D02*
Y1903827D01*
X734422Y1991827D02*
X424709D01*
X1708372Y2494294D02*
Y2964517D01*
X734422Y1921353D02*
X424709D01*
X1158371Y447246D02*
Y463662D01*
X2150931Y673562D02*
X2153373Y673662D01*
X2873548D01*
X2933586Y1307130D02*
Y1904336D01*
X393717Y2099614D02*
X394206Y2094193D01*
X395662Y2088949D01*
X398040Y2084053D01*
X401260Y2079665D01*
X405218Y2075929D01*
X409784Y2072966D01*
X414809Y2070875D01*
X420129Y2069723D01*
X423836Y2069496D01*
X423747Y1149261D02*
X418335Y1148769D01*
X413101Y1147308D01*
X408216Y1144928D01*
X403841Y1141705D01*
X400119Y1137746D01*
X397172Y1133180D01*
X395097Y1128158D01*
X393962Y1122844D01*
X393747Y1119262D01*
X1767896Y393747D02*
X2003471D01*
X393915Y2163984D02*
X393718Y2099614D01*
X1099735Y2797188D02*
X964114Y2797290D01*
X1218371Y463662D02*
Y433702D01*
X783281Y1149333D02*
X423657D01*
X2003471Y393702D02*
X2009003Y393995D01*
X2014395Y395263D01*
X2015741Y395743D01*
X1787047Y2612678D02*
X1786983Y2797249D01*
X1922604Y2797317D02*
X1928769Y2798216D01*
X1934714Y2800076D01*
X1940293Y2802849D01*
X1945365Y2806467D01*
X1949803Y2810839D01*
X1953496Y2815856D01*
X1956353Y2821392D01*
X1958302Y2827309D01*
X1959294Y2833460D01*
X1959304Y2839689D01*
X1958332Y2845843D01*
X1956402Y2851766D01*
X1953563Y2857312D01*
X1949886Y2862340D01*
X1945462Y2866727D01*
X1940402Y2870361D01*
X1934832Y2873152D01*
X1928892Y2875031D01*
X1922731Y2875950D01*
X1922438Y2875969D01*
X2874905Y595091D02*
X2273714D01*
X1738372Y2964517D02*
X1738308Y2905980D01*
X668094Y729063D02*
X663723Y728572D01*
X659571Y727123D01*
X655844Y724788D01*
X652728Y721684D01*
X650380Y717965D01*
X648916Y713818D01*
X648543Y711669D01*
X3012069Y1031433D02*
X3011142Y1037587D01*
X3009256Y1043518D01*
X3006457Y1049077D01*
X3002817Y1054125D01*
X2998426Y1058535D01*
X2993394Y1062198D01*
X2987847Y1065021D01*
X2981925Y1066933D01*
X2975775Y1067888D01*
X2969551Y1067860D01*
X2963410Y1066850D01*
X2957505Y1064885D01*
X2951984Y1062013D01*
X2946985Y1058305D01*
X2942634Y1053855D01*
X2939039Y1048775D01*
X2936290Y1043191D01*
X2934457Y1037244D01*
X2933599Y1031295D01*
X393749Y1407363D02*
X394240Y1401952D01*
X395700Y1396718D01*
X398079Y1391833D01*
X401301Y1387458D01*
X405259Y1383736D01*
X409824Y1380789D01*
X414846Y1378713D01*
X420159Y1377578D01*
X423747Y1377363D01*
X830619Y1377374D02*
X783230Y1377338D01*
X983371Y463662D02*
X982879Y469074D01*
X981419Y474308D01*
X979038Y479193D01*
X975816Y483568D01*
X971857Y487290D01*
X967291Y490237D01*
X962269Y492312D01*
X956955Y493447D01*
X951524Y493605D01*
X946152Y492781D01*
X941018Y491001D01*
X936289Y488324D01*
X932121Y484838D01*
X928650Y480658D01*
X925989Y475919D01*
X924227Y470779D01*
X923422Y465405D01*
X923371Y463662D01*
X830709Y2039406D02*
X813386Y2039370D01*
X1258372Y393702D02*
X1495824D01*
X1786983Y2797249D02*
X1922604Y2797318D01*
X393662Y2437007D02*
Y2503262D01*
X393912Y2163984D02*
X393342Y2170194D01*
X391802Y2176236D01*
X389329Y2181961D01*
X385986Y2187225D01*
X381856Y2191897D01*
X377041Y2195860D01*
X371663Y2199016D01*
X365855Y2201286D01*
X359762Y2202613D01*
X353536Y2202964D01*
X347332Y2202330D01*
X341306Y2200728D01*
X335607Y2198196D01*
X330377Y2194799D01*
X325748Y2190621D01*
X321834Y2185766D01*
X318734Y2180356D01*
X316524Y2174525D01*
X315260Y2168418D01*
X314989Y2165225D01*
X393747Y1407363D02*
Y1473399D01*
X734406Y1298647D02*
X424692D01*
X2873548Y673661D02*
X2881232Y674154D01*
X2888790Y675625D01*
X2896098Y678050D01*
X2903037Y681388D01*
X2909493Y685585D01*
X2915359Y690572D01*
X2920540Y696268D01*
X2924952Y702579D01*
X2928520Y709402D01*
X2931189Y716625D01*
X2932912Y724129D01*
X2933599Y730381D01*
X1099697Y2612667D02*
X424775D01*
X423747Y2533663D02*
X418327Y2533171D01*
X413085Y2531710D01*
X408192Y2529329D01*
X403807Y2526106D01*
X400075Y2522145D01*
X397117Y2517578D01*
X395031Y2512552D01*
X393883Y2507232D01*
X393662Y2503262D01*
X1495357Y315073D02*
X1501519Y316001D01*
X1507458Y317889D01*
X1513026Y320688D01*
X1518082Y324330D01*
X1522502Y328723D01*
X1526175Y333758D01*
X1529008Y339308D01*
X1530932Y345236D01*
X1531898Y351392D01*
X1531881Y357624D01*
X1530884Y363775D01*
X1528929Y369693D01*
X1526066Y375228D01*
X1522368Y380243D01*
X1517925Y384613D01*
X1512849Y388229D01*
X1507267Y390999D01*
X1501318Y392856D01*
X1495824Y393702D01*
X1148371Y2533664D02*
X423747D01*
X964279Y2875941D02*
X958111Y2875068D01*
X952157Y2873234D01*
X946567Y2870484D01*
X941480Y2866888D01*
X937023Y2862535D01*
X933309Y2857534D01*
X930428Y2852010D01*
X928455Y2846101D01*
X927437Y2839955D01*
X927401Y2833725D01*
X928346Y2827567D01*
X930251Y2821636D01*
X933066Y2816079D01*
X936723Y2811034D01*
X941128Y2806630D01*
X946173Y2802974D01*
X951730Y2800159D01*
X957662Y2798256D01*
X963820Y2797310D01*
X964114Y2797290D01*
X692836Y2797188D02*
X699018Y2797972D01*
X705000Y2799720D01*
X710631Y2802388D01*
X715772Y2805911D01*
X720294Y2810199D01*
X724083Y2815146D01*
X727046Y2820629D01*
X729108Y2826509D01*
X730218Y2832642D01*
X730347Y2838872D01*
X729494Y2845045D01*
X727678Y2851006D01*
X724946Y2856607D01*
X721366Y2861708D01*
X717026Y2866181D01*
X712037Y2869914D01*
X706521Y2872815D01*
X700617Y2874810D01*
X694473Y2875850D01*
X693409Y2875930D01*
X3012292Y1903827D02*
X3011599Y1910016D01*
X3009938Y1916019D01*
X3007352Y1921685D01*
X3003906Y1926872D01*
X2999684Y1931451D01*
X2994794Y1935308D01*
X2989356Y1938345D01*
X2983508Y1940487D01*
X2977396Y1941681D01*
X2971171Y1941895D01*
X2964991Y1941126D01*
X2959009Y1939392D01*
X2953375Y1936737D01*
X2948230Y1933227D01*
X2943703Y1928950D01*
X2939907Y1924013D01*
X2936937Y1918539D01*
X2934866Y1912665D01*
X2933748Y1906538D01*
X2933586Y1904336D01*
X393746Y780246D02*
X393090Y786441D01*
X391465Y792455D01*
X388913Y798138D01*
X385497Y803348D01*
X381303Y807955D01*
X376435Y811843D01*
X371016Y814915D01*
X365180Y817094D01*
X359073Y818327D01*
X352849Y818582D01*
X346662Y817852D01*
X340667Y816157D01*
X335014Y813538D01*
X329845Y810061D01*
X325288Y805813D01*
X321458Y800899D01*
X318450Y795444D01*
X316340Y789582D01*
X315180Y783461D01*
X314970Y780490D01*
X1738372Y2533664D02*
Y2494294D01*
X314972Y1122237D02*
Y1054580D01*
X2180619Y559060D02*
X2182555Y565031D01*
X2183533Y571230D01*
X2183528Y577507D01*
X2182543Y583705D01*
X2180599Y589673D01*
X2177746Y595264D01*
X2174053Y600339D01*
X2169612Y604774D01*
X2164532Y608460D01*
X2158937Y611305D01*
X2152967Y613241D01*
X2149208Y613952D01*
X1178371Y2964517D02*
Y2494294D01*
X813386Y2039370D02*
X813371Y1871463D01*
X1768308Y2875980D02*
X1922438Y2875969D01*
X830710Y1841338D02*
X834531Y1841751D01*
X838123Y1843119D01*
X841252Y1845352D01*
X843713Y1848304D01*
X845346Y1851784D01*
X846044Y1855563D01*
X845762Y1859397D01*
X844519Y1863033D01*
X842395Y1866237D01*
X839528Y1868798D01*
X836107Y1870549D01*
X832354Y1871377D01*
X830710Y1871433D01*
X2873548Y2533664D02*
X1738372D01*
X853907Y700953D02*
X852999Y706339D01*
X851140Y711474D01*
X848389Y716193D01*
X844836Y720341D01*
X840596Y723783D01*
X835807Y726409D01*
X830624Y728133D01*
X825216Y728899D01*
X823819Y728937D01*
X2293373Y3229518D02*
X2292879Y3239437D01*
X2291404Y3249257D01*
X2288963Y3258883D01*
X2285578Y3268220D01*
X2281285Y3277174D01*
X2276124Y3285659D01*
X2270147Y3293590D01*
X2263413Y3300889D01*
X2255989Y3307484D01*
X2247947Y3313311D01*
X2239367Y3318311D01*
X2230333Y3322435D01*
X2220934Y3325643D01*
X2211264Y3327903D01*
X2201418Y3329193D01*
X2193373Y3329518D01*
X830619Y1149205D02*
X783230Y1149241D01*
X314989Y1747760D02*
X315562Y1741556D01*
X317105Y1735520D01*
X319580Y1729802D01*
X322926Y1724547D01*
X327057Y1719883D01*
X331872Y1715930D01*
X337250Y1712784D01*
X343057Y1710525D01*
X349147Y1709210D01*
X355368Y1708871D01*
X361564Y1709516D01*
X367582Y1711130D01*
X373270Y1713672D01*
X378487Y1717078D01*
X383101Y1721264D01*
X386998Y1726125D01*
X390081Y1731539D01*
X392271Y1737372D01*
X393516Y1743477D01*
X393764Y1746406D01*
X830709Y2039409D02*
X834530Y2039823D01*
X838122Y2041191D01*
X841250Y2043425D01*
X843711Y2046378D01*
X845343Y2049858D01*
X846040Y2053637D01*
X845758Y2057471D01*
X844513Y2061107D01*
X842389Y2064310D01*
X839522Y2066870D01*
X836100Y2068621D01*
X832346Y2069448D01*
X830709Y2069504D01*
X314989Y1815417D02*
Y1747760D01*
X2015741Y395744D02*
X2031493Y402613D01*
X2046825Y410375D01*
X2061686Y419003D01*
X2076027Y428471D01*
X2089801Y438746D01*
X2102963Y449795D01*
X2115469Y461580D01*
X2127278Y474065D01*
X2138351Y487206D01*
X2148652Y500961D01*
X2158146Y515285D01*
X2166802Y530130D01*
X2174592Y545447D01*
X2180620Y559059D01*
X314973Y1404388D02*
X315736Y1394068D01*
X317477Y1383868D01*
X320182Y1373879D01*
X323825Y1364194D01*
X328374Y1354899D01*
X333787Y1346079D01*
X340014Y1337815D01*
X347001Y1330181D01*
X354682Y1323247D01*
X362988Y1317076D01*
X371844Y1311724D01*
X381170Y1307238D01*
X390880Y1303661D01*
X400887Y1301025D01*
X411099Y1299353D01*
X421424Y1298661D01*
X424692Y1298647D01*
X424709Y1921355D02*
X414359Y1920955D01*
X404094Y1919572D01*
X394007Y1917219D01*
X384190Y1913918D01*
X374731Y1909698D01*
X365716Y1904597D01*
X357228Y1898662D01*
X349342Y1891947D01*
X342131Y1884512D01*
X335659Y1876425D01*
X329986Y1867759D01*
X325163Y1858593D01*
X321234Y1849010D01*
X318233Y1839096D01*
X316190Y1828942D01*
X315121Y1818640D01*
X314989Y1815417D01*
X693371Y3329519D02*
X683453Y3329026D01*
X673633Y3327552D01*
X664007Y3325112D01*
X654671Y3321728D01*
X645716Y3317436D01*
X637232Y3312276D01*
X629301Y3306300D01*
X622002Y3299567D01*
X615406Y3292144D01*
X609580Y3284102D01*
X604579Y3275523D01*
X600455Y3266490D01*
X597246Y3257092D01*
X594986Y3247422D01*
X593696Y3237576D01*
X593371Y3229518D01*
X983371Y463662D02*
Y447246D01*
X1158371D01*
X830709Y2069504D02*
X783320Y2069468D01*
X830619Y1347276D02*
X813296Y1347240D01*
X314970Y715407D02*
X315447Y705061D01*
X316906Y694807D01*
X319334Y684738D01*
X322708Y674946D01*
X326999Y665520D01*
X332167Y656544D01*
X338164Y648100D01*
X344938Y640265D01*
X352427Y633110D01*
X360561Y626700D01*
X369269Y621092D01*
X378471Y616338D01*
X388083Y612481D01*
X398018Y609555D01*
X408187Y607588D01*
X418496Y606596D01*
X423578Y606470D01*
X3012097Y2474538D02*
X3012336Y2178785D01*
X1148409Y2905930D02*
X1148371Y2964517D01*
X726378Y673225D02*
X720144Y672778D01*
X714058Y671358D01*
X708270Y668999D01*
X702925Y665760D01*
X698155Y661721D01*
X694079Y656983D01*
X690798Y651664D01*
X688393Y645895D01*
X686924Y639821D01*
X686427Y633590D01*
X686900Y627462D01*
X393749Y715162D02*
X394240Y709751D01*
X395700Y704517D01*
X398079Y699632D01*
X401301Y695257D01*
X405259Y691535D01*
X409824Y688588D01*
X414846Y686512D01*
X420159Y685377D01*
X423747Y685162D01*
X314989Y2097568D02*
Y2165225D01*
X514726Y2974267D02*
X515343Y2961002D01*
X516943Y2947820D01*
X519517Y2934793D01*
X523051Y2921993D01*
X527526Y2909490D01*
X532917Y2897354D01*
X539193Y2885652D01*
X546321Y2874448D01*
X554262Y2863805D01*
X562970Y2853780D01*
X572399Y2844429D01*
X582496Y2835804D01*
X593205Y2827953D01*
X604467Y2820918D01*
X616221Y2814739D01*
X628401Y2809449D01*
X640940Y2805078D01*
X653769Y2801650D01*
X666818Y2799184D01*
X680013Y2797694D01*
X692836Y2797188D01*
X2193309Y2875982D02*
X2203227Y2876475D01*
X2213047Y2877948D01*
X2222673Y2880389D01*
X2232009Y2883772D01*
X2240963Y2888065D01*
X2249448Y2893224D01*
X2257379Y2899200D01*
X2264678Y2905932D01*
X2271274Y2913356D01*
X2277100Y2921397D01*
X2282100Y2929977D01*
X2286225Y2939010D01*
X2289434Y2948407D01*
X2291694Y2958077D01*
X2292984Y2967923D01*
X2293309Y2975981D01*
X1767896Y393747D02*
X1761705Y393131D01*
X1755689Y391546D01*
X1749998Y389032D01*
X1744775Y385650D01*
X1740151Y381488D01*
X1736242Y376647D01*
X1733146Y371250D01*
X1730941Y365433D01*
X1729681Y359340D01*
X1729398Y353125D01*
X1730100Y346943D01*
X1731768Y340949D01*
X1734361Y335294D01*
X1737815Y330119D01*
X1742041Y325553D01*
X1746936Y321712D01*
X1752375Y318691D01*
X1758222Y316566D01*
X1764332Y315391D01*
X1768588Y315150D01*
X314970Y715407D02*
Y780490D01*
X1308102Y3329507D02*
X693371D01*
X314820Y2505257D02*
Y2437601D01*
X2193309Y2875979D02*
X2187139Y2875106D01*
X2181184Y2873271D01*
X2175593Y2870521D01*
X2170504Y2866924D01*
X2166046Y2862570D01*
X2162330Y2857569D01*
X2159447Y2852044D01*
X2157472Y2846134D01*
X2156452Y2839987D01*
X2156414Y2833756D01*
X2157358Y2827596D01*
X2159261Y2821663D01*
X2162074Y2816103D01*
X2165729Y2811056D01*
X2170133Y2806648D01*
X2175177Y2802989D01*
X2180734Y2800170D01*
X2186666Y2798262D01*
X2192825Y2797313D01*
X2193881Y2797249D01*
X692471Y3408159D02*
X679207Y3407602D01*
X666022Y3406062D01*
X652987Y3403546D01*
X640175Y3400070D01*
X627657Y3395652D01*
X615501Y3390316D01*
X603775Y3384093D01*
X592543Y3377016D01*
X581868Y3369124D01*
X571809Y3360461D01*
X562420Y3351076D01*
X553755Y3341019D01*
X545860Y3330346D01*
X538780Y3319117D01*
X532553Y3307392D01*
X527214Y3295238D01*
X522792Y3282721D01*
X519312Y3269910D01*
X516793Y3256876D01*
X515249Y3243691D01*
X514688Y3230427D01*
X514687Y3230082D01*
X314988Y2097568D02*
X315750Y2087248D01*
X317491Y2077048D01*
X320196Y2067060D01*
X323839Y2057374D01*
X328387Y2048079D01*
X333800Y2039260D01*
X340027Y2030996D01*
X347013Y2023362D01*
X354694Y2016428D01*
X363001Y2010256D01*
X371857Y2004904D01*
X381182Y2000419D01*
X390892Y1996841D01*
X400899Y1994205D01*
X411110Y1992533D01*
X421435Y1991841D01*
X424709Y1991827D01*
X1738307Y2905980D02*
X1738799Y2900568D01*
X1740259Y2895334D01*
X1742640Y2890450D01*
X1745862Y2886074D01*
X1749821Y2882352D01*
X1754387Y2879405D01*
X1759409Y2877330D01*
X1764723Y2876195D01*
X1768308Y2875980D01*
X822835Y673228D02*
X726378D01*
X3012096Y2474538D02*
X3011529Y2486234D01*
X3009980Y2497842D01*
X3007459Y2509277D01*
X3003985Y2520461D01*
X2999582Y2531312D01*
X2994281Y2541753D01*
X2988121Y2551712D01*
X2981144Y2561117D01*
X2973401Y2569902D01*
X2964945Y2578004D01*
X2955838Y2585365D01*
X2946144Y2591934D01*
X2935931Y2597663D01*
X2925273Y2602513D01*
X2914244Y2606449D01*
X2902922Y2609443D01*
X2891389Y2611473D01*
X2879727Y2612525D01*
X2874417Y2612678D01*
X423747Y685162D02*
X618747D01*
X393747Y1811463D02*
X393764Y1746406D01*
X2372056Y3230093D02*
X2371993Y2974329D01*
X314972Y1054580D02*
X315544Y1048376D01*
X317087Y1042340D01*
X319562Y1036622D01*
X322906Y1031366D01*
X327038Y1026702D01*
X331852Y1022748D01*
X337230Y1019602D01*
X343036Y1017343D01*
X349126Y1016027D01*
X355347Y1015687D01*
X361543Y1016331D01*
X367561Y1017944D01*
X373250Y1020486D01*
X378466Y1023892D01*
X383081Y1028077D01*
X386979Y1032938D01*
X390062Y1038352D01*
X392253Y1044184D01*
X393498Y1050289D01*
X393747Y1053226D01*
X1308102Y3329506D02*
X1314267Y3330406D01*
X1320212Y3332265D01*
X1325791Y3335039D01*
X1330862Y3338657D01*
X1335300Y3343029D01*
X1338993Y3348046D01*
X1341850Y3353583D01*
X1343798Y3359500D01*
X1344790Y3365651D01*
X1344799Y3371880D01*
X1343827Y3378034D01*
X1341897Y3383957D01*
X1339058Y3389503D01*
X1335380Y3394531D01*
X1330956Y3398917D01*
X1325896Y3402551D01*
X1320326Y3405342D01*
X1314386Y3407220D01*
X1308225Y3408139D01*
X1307936Y3408158D01*
X610470Y606470D02*
X423578D01*
X3012066Y730519D02*
Y1031432D01*
X923371Y433662D02*
Y463662D01*
X618747Y685163D02*
X624159Y685655D01*
X629393Y687115D01*
X634277Y689495D01*
X638653Y692718D01*
X642375Y696676D01*
X645322Y701242D01*
X647397Y706264D01*
X648532Y711578D01*
X648543Y711669D01*
X2024601Y315150D02*
X2042750Y321808D01*
X2060536Y329384D01*
X2077911Y337857D01*
X2094832Y347206D01*
X2111254Y357406D01*
X2127134Y368431D01*
X2142431Y380252D01*
X2157104Y392838D01*
X2171116Y406156D01*
X2184431Y420172D01*
X2197013Y434848D01*
X2208829Y450148D01*
X2219850Y466031D01*
X2230046Y482456D01*
X2239390Y499379D01*
X2247859Y516757D01*
X2255430Y534545D01*
X2262083Y552695D01*
X2267802Y571162D01*
X2272570Y589896D01*
X2273714Y595091D01*
X2150931Y673561D02*
X2145577Y672631D01*
X2140479Y670751D01*
X2135804Y667982D01*
X2131705Y664415D01*
X2128316Y660167D01*
X2125750Y655377D01*
X2124089Y650203D01*
X2123389Y644815D01*
X2123673Y639388D01*
X2124931Y634102D01*
X2127122Y629130D01*
X2130174Y624634D01*
X2133987Y620762D01*
X2138435Y617642D01*
X2143374Y615375D01*
X2148640Y614037D01*
X2149207Y613952D01*
X2874905Y595093D02*
X2886581Y595701D01*
X2898164Y597290D01*
X2909571Y599850D01*
X2920723Y603363D01*
X2931538Y607803D01*
X2941941Y613139D01*
X2951857Y619333D01*
X2961215Y626341D01*
X2969950Y634113D01*
X2977998Y642593D01*
X2985303Y651721D01*
X2991813Y661433D01*
X2997481Y671659D01*
X3002266Y682326D01*
X3006136Y693359D01*
X3009061Y704678D01*
X3011022Y716204D01*
X3012005Y727854D01*
X3012091Y730518D01*
X830710Y1871433D02*
X813387Y1871469D01*
X2933547Y2177911D02*
X2934169Y2171713D01*
X2935761Y2165690D01*
X2938282Y2159994D01*
X2941669Y2154766D01*
X2945838Y2150137D01*
X2950684Y2146223D01*
X2956087Y2143122D01*
X2961910Y2140912D01*
X2968010Y2139646D01*
X2974232Y2139358D01*
X2980423Y2140055D01*
X2986426Y2141718D01*
X2992092Y2144307D01*
X2997279Y2147756D01*
X3001857Y2151980D01*
X3005713Y2156872D01*
X3008749Y2162312D01*
X3010890Y2168161D01*
X3012083Y2174275D01*
X3012336Y2178785D01*
X783371Y1841463D02*
X423747D01*
G54D27*
X1690414Y1466650D02*
X1703241Y1475943D01*
X1690333Y1459898D02*
X1702825Y1450659D01*
G54D28*
X2216263Y3121812D02*
Y3117613D01*
X2219005D02*
Y3121812D01*
X2179635Y3117613D02*
Y3121812D01*
X2176893D02*
Y3117613D01*
X2157208Y3121811D02*
Y3117613D01*
X2159950D02*
Y3121811D01*
X2199319Y3117613D02*
Y3121811D01*
X2196578D02*
Y3117613D01*
%LPD*%
G75*
X2196578Y3117613D02*
G54D29*
X157481Y157155D03*
X3149608Y3542982D03*
X157480Y3543307D03*
X3149608Y157155D03*
G36*
X31511Y38889D02*
X31511Y157155D01*
X102361D01*
G03X212601Y157155I55120J0D01*
G01X329793D01*
X455400Y31548D01*
X38463D01*
X37445Y31735D01*
X36816Y31922D01*
X35790Y32357D01*
X34685Y33041D01*
X33755Y33850D01*
X32970Y34783D01*
X32331Y35841D01*
X31854Y37022D01*
X31574Y38267D01*
X31511Y38889D01*
G37*
G36*
X31511Y157155D02*
X31512Y455436D01*
X55197Y431751D01*
G03X195857Y291091I102301J-38359D01*
G01X329793Y157155D01*
X212601D01*
G03X102361Y157155I-55120J0D01*
G01X31511D01*
G37*
G36*
X32511Y158155D02*
X101361D01*
G02X101361Y156155I0J-1000D01*
G01X32511D01*
G02X32511Y158155I0J1000D01*
G37*
G36*
X213601D02*
G01X328379D01*
G02X328379Y156155I0J-1000D01*
G01X213601D01*
G02X213601Y158155I0J1000D01*
G37*
G36*
X31512Y488843D02*
G01X31514Y927875D01*
X291825Y667564D01*
G03X376064Y583325I131916J47677D01*
G01X718553Y240836D01*
X501920D01*
Y74874D01*
X884515D01*
X927841Y31548D01*
X488806D01*
X217962Y302393D01*
G03X66498Y453857I-60465J90999D01*
G01X31512Y488843D01*
G37*
G36*
X31514Y961282D02*
X31515Y1400315D01*
X283485Y1148345D01*
X283500Y712504D01*
G03X283604Y709191I140240J2739D01*
G01X31514Y961282D01*
G37*
G36*
X31515Y1433721D02*
X31517Y1872754D01*
X283468Y1620803D01*
X283483Y1181753D01*
X31515Y1433721D01*
G37*
G36*
X31517Y1906161D02*
X31518Y2345194D01*
X283450Y2093261D01*
X283466Y1654211D01*
X31517Y1906161D01*
G37*
G36*
X31519Y2378600D02*
X31520Y2817633D01*
X293464Y2555689D01*
G03X283435Y2535164I21364J-23153D01*
G01X283449Y2126669D01*
X31519Y2378600D01*
G37*
G36*
X31520Y2851039D02*
X31522Y3290072D01*
X56540Y3265053D01*
G03X115768Y3205826I100957J41729D01*
G01X677422Y2644171D01*
X422509Y2644147D01*
G03X304762Y2577798I2010J-141221D01*
G01X31520Y2851039D01*
G37*
G36*
X31522Y3323479D02*
X31522Y3543307D01*
X102360D01*
G03X212600Y3543307I55120J0D01*
G01X250728D01*
X495016Y3299019D01*
G03X483191Y3230053I198312J-69499D01*
G01X483229Y2976133D01*
G03X693269Y2765695I210237J-201D01*
G01X704453Y2766939D01*
X953551D01*
X960218Y2766006D01*
X1028225Y2765810D01*
X1068224Y2725811D01*
X1068207Y2644209D01*
X710826Y2644175D01*
X157459Y3197542D01*
G03X48256Y3306744I38J109241D01*
G01X31522Y3323479D01*
G37*
G36*
X31522Y3543307D02*
X31523Y3662065D01*
G02X38969Y3669281I7848J-648D01*
G01X124756Y3669279D01*
X250728Y3543307D01*
X212600D01*
G03X102360Y3543307I-55120J0D01*
G01X31522D01*
G37*
G36*
X32522Y3544307D02*
X101360D01*
G02X101360Y3542307I0J-1000D01*
G01X32522D01*
G02X32522Y3544307I0J1000D01*
G37*
G36*
X213600D02*
G01X249314D01*
G02X249314Y3542307I0J-1000D01*
G01X213600D01*
G02X213600Y3544307I0J1000D01*
G37*
G36*
X158163Y3669278D02*
G01X597206Y3669270D01*
X826872Y3439604D01*
X689430Y3439621D01*
G03X504900Y3322541I3898J-210101D01*
G01X158163Y3669278D01*
G37*
G36*
X417692Y575104D02*
G03X419730Y575031I6049J140137D01*
G01X584990Y574969D01*
G03X839383Y289947I396694J98025D01*
G01X852084Y286712D01*
X865608Y284535D01*
X874465Y283789D01*
X1148071Y283759D01*
X1190994Y240836D01*
X751960D01*
X417692Y575104D01*
G37*
G36*
X630613Y3669269D02*
X1069656Y3669261D01*
X1299371Y3439546D01*
X860283Y3439600D01*
X630613Y3669269D01*
G37*
G36*
X917922Y74874D02*
X1356956D01*
X1400282Y31548D01*
X961247D01*
X917922Y74874D01*
G37*
G36*
X1061728Y2765714D02*
X1068232Y2765695D01*
X1068231Y2759210D01*
X1061728Y2765714D01*
G37*
G36*
X1103063Y3669260D02*
X1542106Y3669252D01*
X1771870Y3439487D01*
X1332782Y3439542D01*
X1103063Y3669260D01*
G37*
G36*
X1181481Y283755D02*
X1620563Y283708D01*
X1663435Y240836D01*
X1224400D01*
X1181481Y283755D01*
G37*
G36*
X1390363Y74874D02*
X1723266D01*
Y181005D01*
X1872723Y31548D01*
X1433688D01*
X1390363Y74874D01*
G37*
G36*
X1575513Y3669251D02*
X2014556Y3669243D01*
X2252652Y3431147D01*
G03X2203327Y3439434I-59235J-201615D01*
G01X1805281Y3439483D01*
X1575513Y3669251D01*
G37*
G36*
X1653973Y283704D02*
X2026000Y283664D01*
X2032084Y284535D01*
X2052378Y291751D01*
X2075176Y301536D01*
X2345163Y31548D01*
X1906129D01*
X1723266Y214411D01*
Y240836D01*
X1696841D01*
X1653973Y283704D01*
G37*
G36*
X1818490Y2765757D02*
X1973160D01*
X2094740Y2644177D01*
X1818532Y2644209D01*
X1818490Y2765757D01*
G37*
G36*
X2006566D02*
X2193369D01*
G03X2361470Y2849888I-118J210242D01*
G01X2567236Y2644121D01*
X2128151Y2644173D01*
X2006566Y2765757D01*
G37*
G36*
X2047963Y3669242D02*
X2487006Y3669234D01*
X3275499Y2880741D01*
X3275511Y2441694D01*
X2361330Y3355875D01*
G03X2319761Y3397444I-167912J-126344D01*
G01X2047963Y3669242D01*
G37*
G36*
X2097416Y312702D02*
X2102064Y315078D01*
G03X2295484Y553669I-198790J358849D01*
G01X2817604Y31548D01*
X2378570D01*
X2097416Y312702D01*
G37*
G36*
X2318972Y563588D02*
X2757959Y563635D01*
X3118760Y202834D01*
G03X3195287Y126307I30848J-45679D01*
G01X3275576Y46018D01*
X3275576Y38889D01*
G02X3268624Y31548I-7859J481D01*
G01X2851011D01*
X2318972Y563588D01*
G37*
G36*
X2374797Y2869967D02*
G03X2403489Y2974765I-181546J106031D01*
G01X2403513Y3233661D01*
G03X2395032Y3288766I-210096J-4129D01*
G01X3275512Y2408287D01*
X3275524Y1969241D01*
X3043778Y2200986D01*
X3043573Y2476381D01*
G03X2878791Y2644085I-170498J-2720D01*
G01X2600647Y2644117D01*
X2374797Y2869967D01*
G37*
G36*
X2520413Y3669233D02*
X2959456Y3669225D01*
X3095337Y3533343D01*
G03X3139969Y3488711I54271J9639D01*
G01X3275486Y3353195D01*
X3275487Y3306783D01*
X3258864D01*
G03X3040382Y3306783I-109241J0D01*
G01X2882863D01*
X2520413Y3669233D01*
G37*
G36*
X2882863Y3306783D02*
X3040382D01*
G03X3258864Y3306783I109241J0D01*
G01X3275487D01*
X3275498Y2914148D01*
X2882863Y3306783D01*
G37*
G36*
X2884278Y3307783D02*
X3039382D01*
G02X3039382Y3305783I0J-1000D01*
G01X2884278D01*
G02X2884278Y3307783I0J1000D01*
G37*
G36*
X3259864D02*
G01X3274487D01*
G02X3274487Y3305783I0J-1000D01*
G01X3259864D01*
G02X3259864Y3307783I0J1000D01*
G37*
G36*
X2791362Y563638D02*
G01X2877965Y563648D01*
G03X3043563Y729174I-4417J170018D01*
G01X3043563Y750471D01*
X3275563Y518472D01*
X3275567Y393392D01*
X3258879D01*
G03X3040367Y393392I-109256J0D01*
G01X2961609D01*
X2791362Y563638D01*
G37*
G36*
X2961609Y393392D02*
X3040367D01*
G03X3258879Y393392I109256J0D01*
G01X3275567D01*
X3275575Y79425D01*
X3204344Y150657D01*
G03X3143110Y211891I-54736J6498D01*
G01X2961609Y393392D01*
G37*
G36*
X2963023Y394392D02*
X3039367D01*
G02X3039367Y392392I0J-1000D01*
G01X2963023D01*
G02X2963023Y394392I0J1000D01*
G37*
G36*
X3259879D02*
G01X3274567D01*
G02X3274567Y392392I0J-1000D01*
G01X3259879D01*
G02X3259879Y394392I0J1000D01*
G37*
G36*
X2992863Y3669224D02*
G01X3268783Y3669219D01*
G02X3275477Y3662749I-1066J-7802D01*
G01X3275485Y3386602D01*
X3170224Y3491863D01*
G03X3204728Y3542982I-20616J51119D01*
G03X3149608Y3598102I-55120J0D01*
G03X3098489Y3563598I0J-55120D01*
G01X2992863Y3669224D01*
G37*
G36*
X3043562Y880083D02*
X3044755Y886366D01*
X3044506Y1221970D01*
X3275550Y990925D01*
X3275562Y551879D01*
X3043563Y783878D01*
X3043562Y880083D01*
G37*
G36*
X3043803Y2167555D02*
X3275525Y1935833D01*
X3275537Y1496787D01*
X3044129Y1728194D01*
X3043803Y2167555D01*
G37*
G36*
X3044154Y1694763D02*
X3275538Y1463379D01*
X3275549Y1024333D01*
X3044481Y1255402D01*
X3044154Y1694763D01*
G37*
G36*
X713386Y686513D02*
Y1171449D01*
X742280D01*
Y1355115D01*
X713403D01*
Y1863577D01*
X742296D01*
Y2047256D01*
X713408D01*
Y2604793D01*
X816142D01*
Y2047267D01*
X797639D01*
X797622Y1863628D01*
X816142Y1863589D01*
Y1355120D01*
X797549Y1355079D01*
X797532Y1171498D01*
X816142Y1171459D01*
Y686513D01*
X713386D01*
G37*
G36*
X1107600Y2541538D02*
Y2868056D01*
X1118410Y2868055D01*
G03X1156283Y2905929I-5J37878D01*
G01X1156271Y2924455D01*
X1730454D01*
X1730433Y2905980D01*
G03X1768308Y2868106I37874J-0D01*
G01X1779119Y2868105D01*
Y2541538D01*
X1730498D01*
Y2530126D01*
X1156245D01*
Y2541538D01*
X1107600D01*
G37*
G36*
X2158821Y626694D02*
Y2604804D01*
X2374508D01*
Y626694D01*
X2158821D01*
G37*
G54D30*
X538359Y659742D02*
X632216D01*
X679502Y707028D01*
X718834D01*
X540140Y634798D02*
X641621D01*
X694109Y687286D01*
X717456D01*
G36*
X1714189Y2856303D02*
X1917550D01*
X1924812Y2849041D01*
Y2846089D01*
X1755400Y2846089D01*
G03X1755400Y2826405I98J-9842D01*
G01X1924812Y2826404D01*
Y2823841D01*
X1917094Y2816122D01*
X1714189D01*
Y2856303D01*
G37*
G36*
Y2592499D02*
X1917550D01*
X1924812Y2585238D01*
Y2582285D01*
X1755400Y2582285D01*
G03X1755400Y2562601I98J-9842D01*
G01X1924812Y2562601D01*
Y2560037D01*
X1917094Y2552319D01*
X1714189D01*
Y2592499D01*
G37*
G36*
X1172531Y2813896D02*
X969169D01*
X961908Y2821158D01*
Y2824110D01*
X1131320Y2824110D01*
G03X1131320Y2843794I-98J9842D01*
G01X961908Y2843795D01*
Y2846358D01*
X969626Y2854077D01*
X1172531D01*
Y2813896D01*
G37*
G36*
Y2551622D02*
X969169D01*
X961908Y2558883D01*
Y2561836D01*
X1131320Y2561836D01*
G03X1131320Y2581520I-98J9842D01*
G01X961908Y2581520D01*
Y2584084D01*
X969626Y2591802D01*
X1172531D01*
Y2551622D01*
G37*
G36*
X778338Y2553180D02*
X574977D01*
X567716Y2560441D01*
Y2563393D01*
X737128Y2563394D01*
G03X737128Y2583078I-98J9842D01*
G01X567716Y2583078D01*
Y2585641D01*
X575434Y2593360D01*
X778338D01*
Y2553180D01*
G37*
G36*
Y2014949D02*
X574977D01*
X567716Y2022210D01*
Y2025162D01*
X737128Y2025163D01*
G03X737128Y2044847I-98J9842D01*
G01X567716Y2044847D01*
Y2047411D01*
X575434Y2055129D01*
X778338D01*
Y2014949D01*
G37*
G36*
X778333Y1319311D02*
X574972D01*
X567711Y1326572D01*
Y1329524D01*
X737123Y1329525D01*
G03X737123Y1349209I-98J9842D01*
G01X567711Y1349209D01*
Y1351773D01*
X575429Y1359491D01*
X778333D01*
Y1319311D01*
G37*
G36*
X2223751Y2552530D02*
X2020390D01*
X2013129Y2559791D01*
Y2562744D01*
X2182541Y2562744D01*
G03X2182541Y2582428I-98J9842D01*
G01X2013129Y2582428D01*
Y2584992D01*
X2020847Y2592710D01*
X2223751D01*
Y2552530D01*
G37*
G36*
X2309578Y2591629D02*
X2512939D01*
X2520200Y2584368D01*
Y2581416D01*
X2350788Y2581415D01*
G03X2350788Y2561731I98J-9842D01*
G01X2520200Y2561731D01*
Y2559167D01*
X2512482Y2551449D01*
X2309578D01*
Y2591629D01*
G37*
G36*
Y658760D02*
X2512939D01*
X2520200Y651499D01*
Y648547D01*
X2350788Y648546D01*
G03X2350788Y628862I98J-9842D01*
G01X2520200Y628862D01*
Y626298D01*
X2512482Y618580D01*
X2309578D01*
Y658760D01*
G37*
%LPC*%
G75*
X2309578Y658760D02*
G54D31*
X705512Y678638D02*
Y1179323D01*
X734406D01*
Y1347241D01*
X705529D01*
Y1871451D01*
X734422D01*
Y2039382D01*
X705534D01*
Y2612667D01*
X824016D01*
Y2039393D01*
X805512D01*
X805497Y1871485D01*
X824016Y1871447D01*
Y1347263D01*
X805422Y1347223D01*
X805407Y1179355D01*
X824016Y1179317D01*
Y678638D01*
X705512D01*
X1099726Y2533664D02*
Y2875931D01*
X1118409Y2875929D01*
X1123821Y2876422D01*
X1129055Y2877883D01*
X1133940Y2880264D01*
X1138315Y2883487D01*
X1142037Y2887447D01*
X1144984Y2892013D01*
X1147059Y2897035D01*
X1148194Y2902350D01*
X1148409Y2905930D01*
X1148392Y2932329D01*
X1738337D01*
X1738307Y2905980D01*
X1738800Y2900568D01*
X1740260Y2895334D01*
X1742640Y2890450D01*
X1745863Y2886074D01*
X1749822Y2882352D01*
X1754387Y2879405D01*
X1759409Y2877330D01*
X1764723Y2876195D01*
X1768308Y2875980D01*
X1786993Y2875979D01*
Y2533664D01*
X1738372D01*
Y2522252D01*
X1148371D01*
Y2533664D01*
X1099726D01*
X2150947Y618820D02*
Y2612678D01*
X2382382D01*
Y618820D01*
X2150947D01*
M02*
