*
%FSLAX26Y26*%
%MOIN*%
%ADD10C,0.003937*%
%ADD11C,0.159449*%
%IPPOS*%
%LN052s8c64709a.gko*%
%LPD*%
G75*
G54D10*
X1578807Y3408169D02*
X1572639Y3407296D01*
X1566685Y3405462D01*
X1561095Y3402712D01*
X1556008Y3399116D01*
X1551551Y3394763D01*
X1547837Y3389761D01*
X1544956Y3384238D01*
X1542983Y3378329D01*
X1541965Y3372182D01*
X1541929Y3365953D01*
X1542875Y3359795D01*
X1544779Y3353864D01*
X1547594Y3348306D01*
X1551251Y3343262D01*
X1555656Y3338857D01*
X1560701Y3335202D01*
X1566258Y3332387D01*
X1572190Y3330483D01*
X1578348Y3329538D01*
X1578641Y3329518D01*
X668094Y729062D02*
X823819Y728937D01*
X2933599Y730381D02*
Y1031295D01*
X1708372Y2494294D02*
X1708863Y2490488D01*
X1710303Y2486932D01*
X1712599Y2483857D01*
X1715599Y2481465D01*
X1719108Y2479913D01*
X1722896Y2479302D01*
X1726715Y2479671D01*
X1730316Y2480998D01*
X1733462Y2483195D01*
X1735948Y2486118D01*
X1737611Y2489576D01*
X1738342Y2493343D01*
X1738372Y2494294D01*
X514687Y3230082D02*
X514725Y2974267D01*
X39370Y3700787D02*
X3267717D01*
X3307087Y3661417D02*
Y39370D01*
X3267717Y0D02*
X39370D01*
X0Y39370D02*
Y3661417D01*
X1178371Y2964517D02*
X1177880Y2968323D01*
X1176440Y2971879D01*
X1174145Y2974954D01*
X1171144Y2977346D01*
X1167635Y2978898D01*
X1163847Y2979509D01*
X1160028Y2979140D01*
X1156427Y2977813D01*
X1153281Y2975616D01*
X1150795Y2972693D01*
X1149132Y2969235D01*
X1148401Y2965468D01*
X1148371Y2964517D01*
X314820Y2437601D02*
X315585Y2431413D01*
X317315Y2425422D01*
X319966Y2419779D01*
X323474Y2414624D01*
X327749Y2410085D01*
X332685Y2406276D01*
X338160Y2403291D01*
X344036Y2401206D01*
X350168Y2400073D01*
X356401Y2399919D01*
X362581Y2400748D01*
X368553Y2402541D01*
X374169Y2405251D01*
X379287Y2408812D01*
X383781Y2413134D01*
X387539Y2418110D01*
X390466Y2423615D01*
X392489Y2429513D01*
X393559Y2435656D01*
X393662Y2437007D01*
X393747Y1473399D02*
X392962Y1479580D01*
X391213Y1485559D01*
X388543Y1491188D01*
X385019Y1496327D01*
X380730Y1500845D01*
X375782Y1504631D01*
X370300Y1507591D01*
X364419Y1509649D01*
X358288Y1510755D01*
X352059Y1510881D01*
X345888Y1510023D01*
X339929Y1508204D01*
X334331Y1505469D01*
X329235Y1501885D01*
X324767Y1497544D01*
X321038Y1492552D01*
X318144Y1487035D01*
X316154Y1481131D01*
X315120Y1474987D01*
X314972Y1472045D01*
X848710Y320030D02*
X859177Y317409D01*
X869839Y315754D01*
X880608Y315080D01*
X884063Y315073D01*
X686900Y627462D02*
X690041Y610545D01*
X694146Y593836D01*
X699202Y577390D01*
X705193Y561261D01*
X712098Y545501D01*
X719896Y530163D01*
X728559Y515298D01*
X738061Y500954D01*
X748369Y487177D01*
X759450Y474015D01*
X771268Y461509D01*
X783782Y449701D01*
X796954Y438630D01*
X810738Y428332D01*
X825089Y418841D01*
X839961Y410189D01*
X855305Y402403D01*
X867952Y396788D01*
X1099697Y2612667D02*
X1099735Y2797188D01*
X2933585Y1307130D02*
X2933632Y1300898D01*
X2934660Y1294751D01*
X2936644Y1288843D01*
X2939534Y1283321D01*
X2943258Y1278323D01*
X2947722Y1273975D01*
X2952816Y1270384D01*
X2958412Y1267640D01*
X2964370Y1265812D01*
X2970542Y1264945D01*
X2976773Y1265062D01*
X2982908Y1266159D01*
X2988794Y1268209D01*
X2994283Y1271160D01*
X2999239Y1274939D01*
X3003537Y1279452D01*
X3007071Y1284585D01*
X3009752Y1290212D01*
X3011514Y1296190D01*
X3012311Y1302371D01*
X3012291Y1306621D01*
X424692Y1228175D02*
X414342Y1227775D01*
X404077Y1226392D01*
X393990Y1224039D01*
X384173Y1220738D01*
X374714Y1216517D01*
X365699Y1211417D01*
X357211Y1205481D01*
X349325Y1198766D01*
X342113Y1191331D01*
X335642Y1183244D01*
X329969Y1174578D01*
X325146Y1165412D01*
X321217Y1155828D01*
X318216Y1145915D01*
X316173Y1135761D01*
X315104Y1125458D01*
X314972Y1122237D01*
X2293309Y2975981D02*
X2293373Y3229518D01*
X734422Y1991827D02*
Y1921353D01*
X1738372Y2964517D02*
X1737881Y2968323D01*
X1736441Y2971879D01*
X1734146Y2974954D01*
X1731145Y2977346D01*
X1727636Y2978898D01*
X1723848Y2979509D01*
X1720029Y2979140D01*
X1716428Y2977813D01*
X1713282Y2975616D01*
X1710796Y2972693D01*
X1709133Y2969235D01*
X1708402Y2965468D01*
X1708372Y2964517D01*
X830619Y1347280D02*
X834440Y1347694D01*
X838032Y1349062D01*
X841160Y1351296D01*
X843620Y1354249D01*
X845252Y1357728D01*
X845950Y1361508D01*
X845667Y1365341D01*
X844423Y1368978D01*
X842298Y1372181D01*
X839431Y1374741D01*
X836009Y1376491D01*
X832256Y1377318D01*
X830619Y1377374D01*
X2024601Y315150D02*
X1768588D01*
X593371Y3229518D02*
X593408Y2975930D01*
X867952Y396787D02*
X873914Y394827D01*
X880108Y393823D01*
X886384Y393801D01*
X892586Y394761D01*
X898561Y396680D01*
X904162Y399510D01*
X909251Y403181D01*
X913704Y407604D01*
X917409Y412669D01*
X920277Y418251D01*
X922236Y424213D01*
X923238Y430408D01*
X923371Y433662D01*
X2372057Y3230093D02*
X2371522Y3243357D01*
X2370004Y3256545D01*
X2367510Y3269584D01*
X2364055Y3282402D01*
X2359658Y3294928D01*
X2354342Y3307092D01*
X2348138Y3318828D01*
X2341080Y3330072D01*
X2333206Y3340759D01*
X2324560Y3350833D01*
X2315190Y3360237D01*
X2305147Y3368919D01*
X2294488Y3376831D01*
X2283270Y3383930D01*
X2271556Y3390176D01*
X2259411Y3395535D01*
X2246901Y3399978D01*
X2234096Y3403479D01*
X2221066Y3406019D01*
X2207884Y3407585D01*
X2194621Y3408168D01*
X2194272Y3408170D01*
X1578807D01*
X2933548Y2473664D02*
Y2177911D01*
X1218371Y463662D02*
X1217879Y469074D01*
X1216419Y474308D01*
X1214038Y479193D01*
X1210816Y483568D01*
X1206857Y487290D01*
X1202291Y490237D01*
X1197269Y492312D01*
X1191955Y493447D01*
X1186524Y493605D01*
X1181152Y492781D01*
X1176018Y491001D01*
X1171289Y488324D01*
X1167121Y484838D01*
X1163650Y480658D01*
X1160989Y475919D01*
X1159227Y470779D01*
X1158422Y465405D01*
X1158371Y463662D01*
X393747Y1119262D02*
Y1053226D01*
X734406Y1298647D02*
Y1228173D01*
X610469Y606470D02*
X614356Y587573D01*
X619205Y568899D01*
X625002Y550497D01*
X631732Y532416D01*
X639378Y514702D01*
X647919Y497403D01*
X657334Y480563D01*
X667598Y464226D01*
X678683Y448436D01*
X690561Y433233D01*
X703201Y418657D01*
X716570Y404747D01*
X730632Y391538D01*
X745352Y379065D01*
X760690Y367361D01*
X776606Y356457D01*
X793059Y346381D01*
X810005Y337159D01*
X827401Y328816D01*
X845200Y321373D01*
X848710Y320030D01*
X423747Y1841462D02*
X418335Y1840970D01*
X413101Y1839509D01*
X408216Y1837129D01*
X403841Y1833906D01*
X400119Y1829947D01*
X397172Y1825381D01*
X395097Y1820359D01*
X393962Y1815045D01*
X393747Y1811463D01*
X1787047Y2612678D02*
X2874417D01*
X692471Y3408158D02*
X1307936D01*
X1148371Y2494294D02*
X1148862Y2490488D01*
X1150302Y2486932D01*
X1152598Y2483857D01*
X1155598Y2481465D01*
X1159107Y2479913D01*
X1162895Y2479302D01*
X1166714Y2479671D01*
X1170315Y2480998D01*
X1173461Y2483195D01*
X1175947Y2486118D01*
X1177610Y2489576D01*
X1178341Y2493343D01*
X1178371Y2494294D01*
X314972Y1404388D02*
Y1472045D01*
X964279Y2875941D02*
X1118409Y2875930D01*
X1578641Y3329518D02*
X2193373D01*
X830619Y1179303D02*
X813297Y1179339D01*
X2193881Y2797249D02*
X2207149Y2797789D01*
X2220341Y2799313D01*
X2233383Y2801812D01*
X2246204Y2805272D01*
X2258732Y2809674D01*
X2270899Y2814995D01*
X2282637Y2821204D01*
X2293882Y2828267D01*
X2304572Y2836145D01*
X2314647Y2844795D01*
X2324053Y2854170D01*
X2332736Y2864217D01*
X2340650Y2874880D01*
X2347750Y2886102D01*
X2353998Y2897820D01*
X2359358Y2909969D01*
X2363801Y2922483D01*
X2367304Y2935292D01*
X2369846Y2948326D01*
X2371413Y2961513D01*
X2371993Y2974329D01*
X423836Y2069496D02*
X783320Y2069468D01*
X822835Y673226D02*
X828267Y673520D01*
X833556Y674788D01*
X838531Y676988D01*
X843028Y680049D01*
X846899Y683870D01*
X850019Y688326D01*
X852284Y693271D01*
X853622Y698544D01*
X853906Y700952D01*
X813296Y1347240D02*
X813281Y1179333D01*
X1118409Y2875929D02*
X1123821Y2876422D01*
X1129055Y2877883D01*
X1133940Y2880264D01*
X1138315Y2883487D01*
X1142038Y2887447D01*
X1144984Y2892012D01*
X1147059Y2897035D01*
X1148194Y2902350D01*
X1148409Y2905930D01*
X2933550Y2473664D02*
X2933057Y2481338D01*
X2931587Y2488886D01*
X2929164Y2496184D01*
X2925826Y2503113D01*
X2921631Y2509557D01*
X2916645Y2515412D01*
X2910951Y2520581D01*
X2904644Y2524979D01*
X2897825Y2528534D01*
X2890607Y2531189D01*
X2883110Y2532898D01*
X2875455Y2533634D01*
X2873548Y2533664D01*
X830710Y1841335D02*
X783320Y1841371D01*
X1495357Y315073D02*
X884063D01*
X1148371Y2494294D02*
Y2533664D01*
X593410Y2975930D02*
X593903Y2966012D01*
X595377Y2956191D01*
X597818Y2946566D01*
X601202Y2937230D01*
X605495Y2928275D01*
X610655Y2919790D01*
X616631Y2911859D01*
X623364Y2904560D01*
X630788Y2897965D01*
X638830Y2892138D01*
X647409Y2887138D01*
X656443Y2883014D01*
X665841Y2879805D01*
X675510Y2877545D01*
X685357Y2876255D01*
X693409Y2875930D01*
X393747Y715162D02*
Y780246D01*
X830619Y1149209D02*
X834440Y1149622D01*
X838032Y1150990D01*
X841161Y1153223D01*
X843622Y1156175D01*
X845254Y1159655D01*
X845953Y1163434D01*
X845671Y1167267D01*
X844427Y1170904D01*
X842303Y1174107D01*
X839437Y1176668D01*
X836015Y1178419D01*
X832262Y1179247D01*
X830619Y1179303D01*
X423746Y1377366D02*
X783230Y1377338D01*
X734406Y1228173D02*
X424692D01*
X1218372Y433702D02*
X1218865Y427444D01*
X1220332Y421341D01*
X1222735Y415542D01*
X1226015Y410190D01*
X1230092Y405417D01*
X1234866Y401341D01*
X1240218Y398061D01*
X1246018Y395659D01*
X1252121Y394194D01*
X1258372Y393702D01*
X424775Y2612665D02*
X414383Y2612195D01*
X404082Y2610744D01*
X393964Y2608323D01*
X384122Y2604955D01*
X374642Y2600670D01*
X365611Y2595507D01*
X357109Y2589512D01*
X349213Y2582739D01*
X341995Y2575248D01*
X335518Y2567107D01*
X329841Y2558390D01*
X325014Y2549175D01*
X321083Y2539543D01*
X318081Y2529583D01*
X316035Y2519383D01*
X314965Y2509035D01*
X314820Y2505257D01*
X3012291Y1306621D02*
Y1903827D01*
X734422Y1991827D02*
X424709D01*
X1708372Y2494294D02*
Y2964517D01*
X734422Y1921353D02*
X424709D01*
X1158371Y447246D02*
Y463662D01*
X2150931Y673562D02*
X2153373Y673662D01*
X2873548D01*
X2933586Y1307130D02*
Y1904336D01*
X393717Y2099614D02*
X394206Y2094193D01*
X395662Y2088949D01*
X398040Y2084053D01*
X401260Y2079665D01*
X405218Y2075929D01*
X409784Y2072966D01*
X414809Y2070875D01*
X420129Y2069723D01*
X423836Y2069496D01*
X423747Y1149261D02*
X418335Y1148769D01*
X413101Y1147308D01*
X408216Y1144928D01*
X403841Y1141705D01*
X400119Y1137746D01*
X397172Y1133180D01*
X395097Y1128158D01*
X393962Y1122844D01*
X393747Y1119262D01*
X1767896Y393747D02*
X2003471D01*
X393915Y2163984D02*
X393718Y2099614D01*
X1099735Y2797188D02*
X964114Y2797290D01*
X1218371Y463662D02*
Y433702D01*
X783281Y1149333D02*
X423657D01*
X2003471Y393702D02*
X2009003Y393995D01*
X2014395Y395263D01*
X2015741Y395743D01*
X1787047Y2612678D02*
X1786983Y2797249D01*
X1922604Y2797317D02*
X1928769Y2798216D01*
X1934714Y2800076D01*
X1940293Y2802849D01*
X1945365Y2806467D01*
X1949803Y2810839D01*
X1953496Y2815856D01*
X1956353Y2821392D01*
X1958302Y2827309D01*
X1959294Y2833460D01*
X1959304Y2839689D01*
X1958332Y2845843D01*
X1956402Y2851766D01*
X1953563Y2857312D01*
X1949886Y2862340D01*
X1945462Y2866727D01*
X1940402Y2870361D01*
X1934832Y2873152D01*
X1928892Y2875031D01*
X1922731Y2875950D01*
X1922438Y2875969D01*
X2874905Y595091D02*
X2273714D01*
X1738372Y2964517D02*
X1738308Y2905980D01*
X668094Y729063D02*
X663723Y728572D01*
X659571Y727123D01*
X655844Y724788D01*
X652728Y721684D01*
X650380Y717965D01*
X648916Y713818D01*
X648543Y711669D01*
X3012069Y1031433D02*
X3011142Y1037587D01*
X3009256Y1043518D01*
X3006457Y1049077D01*
X3002817Y1054125D01*
X2998426Y1058535D01*
X2993394Y1062198D01*
X2987847Y1065021D01*
X2981925Y1066933D01*
X2975775Y1067888D01*
X2969551Y1067860D01*
X2963410Y1066850D01*
X2957505Y1064885D01*
X2951984Y1062013D01*
X2946985Y1058305D01*
X2942634Y1053855D01*
X2939039Y1048775D01*
X2936290Y1043191D01*
X2934457Y1037244D01*
X2933599Y1031295D01*
X393749Y1407363D02*
X394240Y1401952D01*
X395700Y1396718D01*
X398079Y1391833D01*
X401301Y1387458D01*
X405259Y1383736D01*
X409824Y1380789D01*
X414846Y1378713D01*
X420159Y1377578D01*
X423747Y1377363D01*
X830619Y1377374D02*
X783230Y1377338D01*
X983371Y463662D02*
X982879Y469074D01*
X981419Y474308D01*
X979038Y479193D01*
X975816Y483568D01*
X971857Y487290D01*
X967291Y490237D01*
X962269Y492312D01*
X956955Y493447D01*
X951524Y493605D01*
X946152Y492781D01*
X941018Y491001D01*
X936289Y488324D01*
X932121Y484838D01*
X928650Y480658D01*
X925989Y475919D01*
X924227Y470779D01*
X923422Y465405D01*
X923371Y463662D01*
X830709Y2039406D02*
X813386Y2039370D01*
X1258372Y393702D02*
X1495824D01*
X1786983Y2797249D02*
X1922604Y2797318D01*
X393662Y2437007D02*
Y2503262D01*
X393912Y2163984D02*
X393342Y2170194D01*
X391802Y2176236D01*
X389329Y2181961D01*
X385986Y2187225D01*
X381856Y2191897D01*
X377041Y2195860D01*
X371663Y2199016D01*
X365855Y2201286D01*
X359762Y2202613D01*
X353536Y2202964D01*
X347332Y2202330D01*
X341306Y2200728D01*
X335607Y2198196D01*
X330377Y2194799D01*
X325748Y2190621D01*
X321834Y2185766D01*
X318734Y2180356D01*
X316524Y2174525D01*
X315260Y2168418D01*
X314989Y2165225D01*
X393747Y1407363D02*
Y1473399D01*
X734406Y1298647D02*
X424692D01*
X2873548Y673661D02*
X2881232Y674154D01*
X2888790Y675625D01*
X2896098Y678050D01*
X2903037Y681388D01*
X2909493Y685585D01*
X2915359Y690572D01*
X2920540Y696268D01*
X2924952Y702579D01*
X2928520Y709402D01*
X2931189Y716625D01*
X2932912Y724129D01*
X2933599Y730381D01*
X1099697Y2612667D02*
X424775D01*
X423747Y2533663D02*
X418327Y2533171D01*
X413085Y2531710D01*
X408192Y2529329D01*
X403807Y2526106D01*
X400075Y2522145D01*
X397117Y2517578D01*
X395031Y2512552D01*
X393883Y2507232D01*
X393662Y2503262D01*
X1495357Y315073D02*
X1501519Y316001D01*
X1507458Y317889D01*
X1513026Y320688D01*
X1518082Y324330D01*
X1522502Y328723D01*
X1526175Y333758D01*
X1529008Y339308D01*
X1530932Y345236D01*
X1531898Y351392D01*
X1531881Y357624D01*
X1530884Y363775D01*
X1528929Y369693D01*
X1526066Y375228D01*
X1522368Y380243D01*
X1517925Y384613D01*
X1512849Y388229D01*
X1507267Y390999D01*
X1501318Y392856D01*
X1495824Y393702D01*
X1148371Y2533664D02*
X423747D01*
X964279Y2875941D02*
X958111Y2875068D01*
X952157Y2873234D01*
X946567Y2870484D01*
X941480Y2866888D01*
X937023Y2862535D01*
X933309Y2857534D01*
X930428Y2852010D01*
X928455Y2846101D01*
X927437Y2839955D01*
X927401Y2833725D01*
X928346Y2827567D01*
X930251Y2821636D01*
X933066Y2816079D01*
X936723Y2811034D01*
X941128Y2806630D01*
X946173Y2802974D01*
X951730Y2800159D01*
X957662Y2798256D01*
X963820Y2797310D01*
X964114Y2797290D01*
X692836Y2797188D02*
X699018Y2797972D01*
X705000Y2799720D01*
X710631Y2802388D01*
X715772Y2805911D01*
X720294Y2810199D01*
X724083Y2815146D01*
X727046Y2820629D01*
X729108Y2826509D01*
X730218Y2832642D01*
X730347Y2838872D01*
X729494Y2845045D01*
X727678Y2851006D01*
X724946Y2856607D01*
X721366Y2861708D01*
X717026Y2866181D01*
X712037Y2869914D01*
X706521Y2872815D01*
X700617Y2874810D01*
X694473Y2875850D01*
X693409Y2875930D01*
X3012292Y1903827D02*
X3011599Y1910016D01*
X3009938Y1916019D01*
X3007352Y1921685D01*
X3003906Y1926872D01*
X2999684Y1931451D01*
X2994794Y1935308D01*
X2989356Y1938345D01*
X2983508Y1940487D01*
X2977396Y1941681D01*
X2971171Y1941895D01*
X2964991Y1941126D01*
X2959009Y1939392D01*
X2953375Y1936737D01*
X2948230Y1933227D01*
X2943703Y1928950D01*
X2939907Y1924013D01*
X2936937Y1918539D01*
X2934866Y1912665D01*
X2933748Y1906538D01*
X2933586Y1904336D01*
X393746Y780246D02*
X393090Y786441D01*
X391465Y792455D01*
X388913Y798138D01*
X385497Y803348D01*
X381303Y807955D01*
X376435Y811843D01*
X371016Y814915D01*
X365180Y817094D01*
X359073Y818327D01*
X352849Y818582D01*
X346662Y817852D01*
X340667Y816157D01*
X335014Y813538D01*
X329845Y810061D01*
X325288Y805813D01*
X321458Y800899D01*
X318450Y795444D01*
X316340Y789582D01*
X315180Y783461D01*
X314970Y780490D01*
X1738372Y2533664D02*
Y2494294D01*
X314972Y1122237D02*
Y1054580D01*
X2180619Y559060D02*
X2182555Y565031D01*
X2183533Y571230D01*
X2183528Y577507D01*
X2182543Y583705D01*
X2180599Y589673D01*
X2177746Y595264D01*
X2174053Y600339D01*
X2169612Y604774D01*
X2164532Y608460D01*
X2158937Y611305D01*
X2152967Y613241D01*
X2149208Y613952D01*
X1178371Y2964517D02*
Y2494294D01*
X813386Y2039370D02*
X813371Y1871463D01*
X1768308Y2875980D02*
X1922438Y2875969D01*
X830710Y1841338D02*
X834531Y1841751D01*
X838123Y1843119D01*
X841252Y1845352D01*
X843713Y1848304D01*
X845346Y1851784D01*
X846044Y1855563D01*
X845762Y1859397D01*
X844519Y1863033D01*
X842395Y1866237D01*
X839528Y1868798D01*
X836107Y1870549D01*
X832354Y1871377D01*
X830710Y1871433D01*
X2873548Y2533664D02*
X1738372D01*
X853907Y700953D02*
X852999Y706339D01*
X851140Y711474D01*
X848389Y716193D01*
X844836Y720341D01*
X840596Y723783D01*
X835807Y726409D01*
X830624Y728133D01*
X825216Y728899D01*
X823819Y728937D01*
X2293373Y3229518D02*
X2292879Y3239437D01*
X2291404Y3249257D01*
X2288963Y3258883D01*
X2285578Y3268220D01*
X2281285Y3277174D01*
X2276124Y3285659D01*
X2270147Y3293590D01*
X2263413Y3300889D01*
X2255989Y3307484D01*
X2247947Y3313311D01*
X2239367Y3318311D01*
X2230333Y3322435D01*
X2220934Y3325643D01*
X2211264Y3327903D01*
X2201418Y3329193D01*
X2193373Y3329518D01*
X830619Y1149205D02*
X783230Y1149241D01*
X314989Y1747760D02*
X315562Y1741556D01*
X317105Y1735520D01*
X319580Y1729802D01*
X322926Y1724547D01*
X327057Y1719883D01*
X331872Y1715930D01*
X337250Y1712784D01*
X343057Y1710525D01*
X349147Y1709210D01*
X355368Y1708871D01*
X361564Y1709516D01*
X367582Y1711130D01*
X373270Y1713672D01*
X378487Y1717078D01*
X383101Y1721264D01*
X386998Y1726125D01*
X390081Y1731539D01*
X392271Y1737372D01*
X393516Y1743477D01*
X393764Y1746406D01*
X830709Y2039409D02*
X834530Y2039823D01*
X838122Y2041191D01*
X841250Y2043425D01*
X843711Y2046378D01*
X845343Y2049858D01*
X846040Y2053637D01*
X845758Y2057471D01*
X844513Y2061107D01*
X842389Y2064310D01*
X839522Y2066870D01*
X836100Y2068621D01*
X832346Y2069448D01*
X830709Y2069504D01*
X314989Y1815417D02*
Y1747760D01*
X2015741Y395744D02*
X2031493Y402613D01*
X2046825Y410375D01*
X2061686Y419003D01*
X2076027Y428471D01*
X2089801Y438746D01*
X2102963Y449795D01*
X2115469Y461580D01*
X2127278Y474065D01*
X2138351Y487206D01*
X2148652Y500961D01*
X2158146Y515285D01*
X2166802Y530130D01*
X2174592Y545447D01*
X2180620Y559059D01*
X314973Y1404388D02*
X315736Y1394068D01*
X317477Y1383868D01*
X320182Y1373879D01*
X323825Y1364194D01*
X328374Y1354899D01*
X333787Y1346079D01*
X340014Y1337815D01*
X347001Y1330181D01*
X354682Y1323247D01*
X362988Y1317076D01*
X371844Y1311724D01*
X381170Y1307238D01*
X390880Y1303661D01*
X400887Y1301025D01*
X411099Y1299353D01*
X421424Y1298661D01*
X424692Y1298647D01*
X424709Y1921355D02*
X414359Y1920955D01*
X404094Y1919572D01*
X394007Y1917219D01*
X384190Y1913918D01*
X374731Y1909698D01*
X365716Y1904597D01*
X357228Y1898662D01*
X349342Y1891947D01*
X342131Y1884512D01*
X335659Y1876425D01*
X329986Y1867759D01*
X325163Y1858593D01*
X321234Y1849010D01*
X318233Y1839096D01*
X316190Y1828942D01*
X315121Y1818640D01*
X314989Y1815417D01*
X693371Y3329519D02*
X683453Y3329026D01*
X673633Y3327552D01*
X664007Y3325112D01*
X654671Y3321728D01*
X645716Y3317436D01*
X637232Y3312276D01*
X629301Y3306300D01*
X622002Y3299567D01*
X615406Y3292144D01*
X609580Y3284102D01*
X604579Y3275523D01*
X600455Y3266490D01*
X597246Y3257092D01*
X594986Y3247422D01*
X593696Y3237576D01*
X593371Y3229518D01*
X983371Y463662D02*
Y447246D01*
X1158371D01*
X830709Y2069504D02*
X783320Y2069468D01*
X830619Y1347276D02*
X813296Y1347240D01*
X314970Y715407D02*
X315447Y705061D01*
X316906Y694807D01*
X319334Y684738D01*
X322708Y674946D01*
X326999Y665520D01*
X332167Y656544D01*
X338164Y648100D01*
X344938Y640265D01*
X352427Y633110D01*
X360561Y626700D01*
X369269Y621092D01*
X378471Y616338D01*
X388083Y612481D01*
X398018Y609555D01*
X408187Y607588D01*
X418496Y606596D01*
X423578Y606470D01*
X3012097Y2474538D02*
X3012336Y2178785D01*
X1148409Y2905930D02*
X1148371Y2964517D01*
X726378Y673225D02*
X720144Y672778D01*
X714058Y671358D01*
X708270Y668999D01*
X702925Y665760D01*
X698155Y661721D01*
X694079Y656983D01*
X690798Y651664D01*
X688393Y645895D01*
X686924Y639821D01*
X686427Y633590D01*
X686900Y627462D01*
X393749Y715162D02*
X394240Y709751D01*
X395700Y704517D01*
X398079Y699632D01*
X401301Y695257D01*
X405259Y691535D01*
X409824Y688588D01*
X414846Y686512D01*
X420159Y685377D01*
X423747Y685162D01*
X314989Y2097568D02*
Y2165225D01*
X514726Y2974267D02*
X515343Y2961002D01*
X516943Y2947820D01*
X519517Y2934793D01*
X523051Y2921993D01*
X527526Y2909490D01*
X532917Y2897354D01*
X539193Y2885652D01*
X546321Y2874448D01*
X554262Y2863805D01*
X562970Y2853780D01*
X572399Y2844429D01*
X582496Y2835804D01*
X593205Y2827953D01*
X604467Y2820918D01*
X616221Y2814739D01*
X628401Y2809449D01*
X640940Y2805078D01*
X653769Y2801650D01*
X666818Y2799184D01*
X680013Y2797694D01*
X692836Y2797188D01*
X2193309Y2875982D02*
X2203227Y2876475D01*
X2213047Y2877948D01*
X2222673Y2880389D01*
X2232009Y2883772D01*
X2240963Y2888065D01*
X2249448Y2893224D01*
X2257379Y2899200D01*
X2264678Y2905932D01*
X2271274Y2913356D01*
X2277100Y2921397D01*
X2282100Y2929977D01*
X2286225Y2939010D01*
X2289434Y2948407D01*
X2291694Y2958077D01*
X2292984Y2967923D01*
X2293309Y2975981D01*
X1767896Y393747D02*
X1761705Y393131D01*
X1755689Y391546D01*
X1749998Y389032D01*
X1744775Y385650D01*
X1740151Y381488D01*
X1736242Y376647D01*
X1733146Y371250D01*
X1730941Y365433D01*
X1729681Y359340D01*
X1729398Y353125D01*
X1730100Y346943D01*
X1731768Y340949D01*
X1734361Y335294D01*
X1737815Y330119D01*
X1742041Y325553D01*
X1746936Y321712D01*
X1752375Y318691D01*
X1758222Y316566D01*
X1764332Y315391D01*
X1768588Y315150D01*
X314970Y715407D02*
Y780490D01*
X1308102Y3329507D02*
X693371D01*
X314820Y2505257D02*
Y2437601D01*
X2193309Y2875979D02*
X2187139Y2875106D01*
X2181184Y2873271D01*
X2175593Y2870521D01*
X2170504Y2866924D01*
X2166046Y2862570D01*
X2162330Y2857569D01*
X2159447Y2852044D01*
X2157472Y2846134D01*
X2156452Y2839987D01*
X2156414Y2833756D01*
X2157358Y2827596D01*
X2159261Y2821663D01*
X2162074Y2816103D01*
X2165729Y2811056D01*
X2170133Y2806648D01*
X2175177Y2802989D01*
X2180734Y2800170D01*
X2186666Y2798262D01*
X2192825Y2797313D01*
X2193881Y2797249D01*
X692471Y3408159D02*
X679207Y3407602D01*
X666022Y3406062D01*
X652987Y3403546D01*
X640175Y3400070D01*
X627657Y3395652D01*
X615501Y3390316D01*
X603775Y3384093D01*
X592543Y3377016D01*
X581868Y3369124D01*
X571809Y3360461D01*
X562420Y3351076D01*
X553755Y3341019D01*
X545860Y3330346D01*
X538780Y3319117D01*
X532553Y3307392D01*
X527214Y3295238D01*
X522792Y3282721D01*
X519312Y3269910D01*
X516793Y3256876D01*
X515249Y3243691D01*
X514688Y3230427D01*
X514687Y3230082D01*
X314988Y2097568D02*
X315750Y2087248D01*
X317491Y2077048D01*
X320196Y2067060D01*
X323839Y2057374D01*
X328387Y2048079D01*
X333800Y2039260D01*
X340027Y2030996D01*
X347013Y2023362D01*
X354694Y2016428D01*
X363001Y2010256D01*
X371857Y2004904D01*
X381182Y2000419D01*
X390892Y1996841D01*
X400899Y1994205D01*
X411110Y1992533D01*
X421435Y1991841D01*
X424709Y1991827D01*
X1738307Y2905980D02*
X1738799Y2900568D01*
X1740259Y2895334D01*
X1742640Y2890450D01*
X1745862Y2886074D01*
X1749821Y2882352D01*
X1754387Y2879405D01*
X1759409Y2877330D01*
X1764723Y2876195D01*
X1768308Y2875980D01*
X822835Y673228D02*
X726378D01*
X3012096Y2474538D02*
X3011529Y2486234D01*
X3009980Y2497842D01*
X3007459Y2509277D01*
X3003985Y2520461D01*
X2999582Y2531312D01*
X2994281Y2541753D01*
X2988121Y2551712D01*
X2981144Y2561117D01*
X2973401Y2569902D01*
X2964945Y2578004D01*
X2955838Y2585365D01*
X2946144Y2591934D01*
X2935931Y2597663D01*
X2925273Y2602513D01*
X2914244Y2606449D01*
X2902922Y2609443D01*
X2891389Y2611473D01*
X2879727Y2612525D01*
X2874417Y2612678D01*
X423747Y685162D02*
X618747D01*
X393747Y1811463D02*
X393764Y1746406D01*
X2372056Y3230093D02*
X2371993Y2974329D01*
X314972Y1054580D02*
X315544Y1048376D01*
X317087Y1042340D01*
X319562Y1036622D01*
X322906Y1031366D01*
X327038Y1026702D01*
X331852Y1022748D01*
X337230Y1019602D01*
X343036Y1017343D01*
X349126Y1016027D01*
X355347Y1015687D01*
X361543Y1016331D01*
X367561Y1017944D01*
X373250Y1020486D01*
X378466Y1023892D01*
X383081Y1028077D01*
X386979Y1032938D01*
X390062Y1038352D01*
X392253Y1044184D01*
X393498Y1050289D01*
X393747Y1053226D01*
X1308102Y3329506D02*
X1314267Y3330406D01*
X1320212Y3332265D01*
X1325791Y3335039D01*
X1330862Y3338657D01*
X1335300Y3343029D01*
X1338993Y3348046D01*
X1341850Y3353583D01*
X1343798Y3359500D01*
X1344790Y3365651D01*
X1344799Y3371880D01*
X1343827Y3378034D01*
X1341897Y3383957D01*
X1339058Y3389503D01*
X1335380Y3394531D01*
X1330956Y3398917D01*
X1325896Y3402551D01*
X1320326Y3405342D01*
X1314386Y3407220D01*
X1308225Y3408139D01*
X1307936Y3408158D01*
X610470Y606470D02*
X423578D01*
X3012066Y730519D02*
Y1031432D01*
X923371Y433662D02*
Y463662D01*
X618747Y685163D02*
X624159Y685655D01*
X629393Y687115D01*
X634277Y689495D01*
X638653Y692718D01*
X642375Y696676D01*
X645322Y701242D01*
X647397Y706264D01*
X648532Y711578D01*
X648543Y711669D01*
X2024601Y315150D02*
X2042750Y321808D01*
X2060536Y329384D01*
X2077911Y337857D01*
X2094832Y347206D01*
X2111254Y357406D01*
X2127134Y368431D01*
X2142431Y380252D01*
X2157104Y392838D01*
X2171116Y406156D01*
X2184431Y420172D01*
X2197013Y434848D01*
X2208829Y450148D01*
X2219850Y466031D01*
X2230046Y482456D01*
X2239390Y499379D01*
X2247859Y516757D01*
X2255430Y534545D01*
X2262083Y552695D01*
X2267802Y571162D01*
X2272570Y589896D01*
X2273714Y595091D01*
X2150931Y673561D02*
X2145577Y672631D01*
X2140479Y670751D01*
X2135804Y667982D01*
X2131705Y664415D01*
X2128316Y660167D01*
X2125750Y655377D01*
X2124089Y650203D01*
X2123389Y644815D01*
X2123673Y639388D01*
X2124931Y634102D01*
X2127122Y629130D01*
X2130174Y624634D01*
X2133987Y620762D01*
X2138435Y617642D01*
X2143374Y615375D01*
X2148640Y614037D01*
X2149207Y613952D01*
X2874905Y595093D02*
X2886581Y595701D01*
X2898164Y597290D01*
X2909571Y599850D01*
X2920723Y603363D01*
X2931538Y607803D01*
X2941941Y613139D01*
X2951857Y619333D01*
X2961215Y626341D01*
X2969950Y634113D01*
X2977998Y642593D01*
X2985303Y651721D01*
X2991813Y661433D01*
X2997481Y671659D01*
X3002266Y682326D01*
X3006136Y693359D01*
X3009061Y704678D01*
X3011022Y716204D01*
X3012005Y727854D01*
X3012091Y730518D01*
X830710Y1871433D02*
X813387Y1871469D01*
X2933547Y2177911D02*
X2934169Y2171713D01*
X2935761Y2165690D01*
X2938282Y2159994D01*
X2941669Y2154766D01*
X2945838Y2150137D01*
X2950684Y2146223D01*
X2956087Y2143122D01*
X2961910Y2140912D01*
X2968010Y2139646D01*
X2974232Y2139358D01*
X2980423Y2140055D01*
X2986426Y2141718D01*
X2992092Y2144307D01*
X2997279Y2147756D01*
X3001857Y2151980D01*
X3005713Y2156872D01*
X3008749Y2162312D01*
X3010890Y2168161D01*
X3012083Y2174275D01*
X3012336Y2178785D01*
X783371Y1841463D02*
X423747D01*
G54D11*
X157497Y3306780D03*
Y393394D03*
X3149623Y3306780D03*
Y393394D03*
G54D10*
X0Y3661417D02*
X492Y3667624D01*
X1957Y3673677D01*
X4358Y3679422D01*
X7635Y3684717D01*
X11706Y3689429D01*
X16469Y3693441D01*
X21804Y3696651D01*
X27580Y3698980D01*
X33650Y3700369D01*
X39370Y3700787D01*
X3267717D02*
X3273924Y3700295D01*
X3279977Y3698830D01*
X3285722Y3696429D01*
X3291017Y3693152D01*
X3295729Y3689081D01*
X3299741Y3684318D01*
X3302951Y3678983D01*
X3305280Y3673207D01*
X3306669Y3667137D01*
X3307087Y3661417D01*
X0Y39370D02*
X492Y33163D01*
X1957Y27110D01*
X4358Y21365D01*
X7635Y16070D01*
X11706Y11358D01*
X16469Y7346D01*
X21804Y4136D01*
X27580Y1807D01*
X33650Y418D01*
X39370Y0D01*
X3267717D02*
X3273924Y492D01*
X3279977Y1957D01*
X3285722Y4358D01*
X3291017Y7635D01*
X3295729Y11706D01*
X3299741Y16469D01*
X3302951Y21804D01*
X3305280Y27580D01*
X3306669Y33650D01*
X3307087Y39370D01*
M02*
