*
%FSLAX26Y26*%
%MOIN*%
%ADD10C,0.070870*%
%ADD11C,0.038580*%
%ADD12R,0.020750X0.020750*%
%ADD13C,0.003500*%
%ADD14R,0.017000X0.017000*%
%ADD15C,0.003000*%
%ADD16R,0.013000X0.013000*%
%ADD17R,0.012750X0.012750*%
%ADD18C,0.004000*%
%ADD19R,0.024500X0.024500*%
%ADD20R,0.038500X0.038500*%
%ADD21R,0.048250X0.048250*%
%ADD22R,0.046500X0.046500*%
%ADD23R,0.050500X0.050500*%
%ADD24R,0.068000X0.068000*%
%ADD25R,0.040250X0.040250*%
%ADD26R,0.099500X0.099500*%
%ADD27C,0.104173*%
%ADD28C,0.076173*%
%ADD29R,0.046250X0.046250*%
%ADD30R,0.024750X0.024750*%
%ADD31R,0.044500X0.044500*%
%ADD32R,0.060250X0.060250*%
%ADD33R,0.013250X0.013250*%
%ADD34R,0.018750X0.018750*%
%ADD35C,0.043750*%
%ADD36C,0.063250*%
%ADD37C,0.049250*%
%ADD38C,0.049500*%
%ADD39C,0.162750*%
%ADD40C,0.167323*%
%ADD41R,0.003947X0.003947*%
%ADD42C,0.003937*%
%IPPOS*%
%LN052s8c64709a.gts*%
%LPD*%
G75*
G36*
X705315Y728938D02*
Y1149409D01*
X824213D01*
X824212Y728937D01*
X705315Y728938D01*
G37*
G36*
Y1377363D02*
Y1841141D01*
X824213D01*
X824212Y1377362D01*
X705315Y1377363D01*
G37*
G36*
Y2069489D02*
Y2533661D01*
X824213D01*
X824212Y2069488D01*
X705315Y2069489D01*
G37*
G36*
X1178166Y2522450D02*
Y2932291D01*
X1708482D01*
X1708481Y2522449D01*
X1178166Y2522450D01*
G37*
G36*
X2151789Y673434D02*
Y2532881D01*
X2381513D01*
X2381512Y673433D01*
X2151789Y673434D01*
G37*
G36*
X1178363Y2521464D02*
G02X1178363Y2523828I0J1182D01*
G01X1708285D01*
G02X1708285Y2521464I0J-1182D01*
G01X1178363D01*
G37*
G36*
Y2930913D02*
G02X1178363Y2933277I0J1182D01*
G01X1708285D01*
G02X1708285Y2930913I0J-1182D01*
G01X1178363D01*
G37*
G36*
X2150804Y673630D02*
Y1603157D01*
X2153168D01*
Y674812D01*
X2380134D01*
Y1603157D01*
X2382498D01*
Y673630D01*
G02X2381316Y672448I-1182J0D01*
G01X2151986D01*
G02X2150804Y673630I0J1182D01*
G37*
G36*
Y1603157D02*
G01Y2532685D01*
G02X2151986Y2533867I1182J0D01*
G01X2381316D01*
G02X2382498Y2532685I0J-1182D01*
G01Y1603157D01*
X2380134D01*
Y2531503D01*
X2153168D01*
Y1603157D01*
X2150804D01*
G37*
G36*
X2381134Y1604157D02*
X2381498D01*
G02X2381498Y1602157I0J-1000D01*
G01X2381134D01*
G02X2381134Y1604157I0J1000D01*
G37*
G36*
X2151804D02*
G01X2152168D01*
G02X2152168Y1602157I0J-1000D01*
G01X2151804D01*
G02X2151804Y1604157I0J1000D01*
G37*
G54D10*
X157481Y157155D03*
X2125986Y550856D03*
X669293Y3267391D03*
X3149608Y3542982D03*
X2232674Y2987650D03*
G54D11*
X1623438Y2412027D03*
Y2462027D03*
G54D10*
X930118Y1934842D03*
G54D12*
X1466904Y582699D02*
G01X1480154D01*
G54D13*
X1458279Y593074D02*
X1488779D01*
X1458279Y572324D02*
X1488779D01*
G54D12*
X1466904Y543329D02*
X1480154D01*
G54D13*
X1458279Y553704D02*
X1488779D01*
X1458279Y532954D02*
X1488779D01*
G54D14*
X1244826Y2177276D02*
Y2209776D01*
G54D15*
X1236326Y2170276D02*
Y2216776D01*
X1253326Y2170276D02*
Y2216776D01*
G54D14*
X1219236Y2177276D02*
Y2209776D01*
G54D15*
X1210736Y2170276D02*
Y2216776D01*
X1227736Y2170276D02*
Y2216776D01*
G54D14*
X1193645Y2177276D02*
Y2209776D01*
G54D15*
X1185145Y2170276D02*
Y2216776D01*
X1202145Y2170276D02*
Y2216776D01*
G54D14*
X1193645Y2096567D02*
Y2129067D01*
G54D15*
X1185145Y2089567D02*
Y2136067D01*
X1202145Y2089567D02*
Y2136067D01*
G54D14*
X1244826Y2096567D02*
Y2129067D01*
G54D15*
X1236326Y2089567D02*
Y2136067D01*
X1253326Y2089567D02*
Y2136067D01*
G54D12*
X1364542Y2979943D02*
X1377792D01*
G54D13*
X1355917Y2990318D02*
X1386417D01*
X1355917Y2969568D02*
X1386417D01*
G54D12*
X1364542Y3019313D02*
X1377792D01*
G54D13*
X1355917Y3029688D02*
X1386417D01*
X1355917Y3008938D02*
X1386417D01*
G54D12*
X761195Y586636D02*
X774445D01*
G54D13*
X752570Y597011D02*
X783070D01*
X752570Y576261D02*
X783070D01*
G54D12*
X761195Y626006D02*
X774445D01*
G54D13*
X752570Y636381D02*
X783070D01*
X752570Y615631D02*
X783070D01*
G54D12*
X1420444Y3149228D02*
X1433694D01*
G54D13*
X1411819Y3159603D02*
X1442319D01*
X1411819Y3138853D02*
X1442319D01*
G54D12*
X1420444Y3109858D02*
X1433694D01*
G54D13*
X1411819Y3120233D02*
X1442319D01*
X1411819Y3099483D02*
X1442319D01*
G54D16*
X1237308Y621157D02*
Y671407D01*
G54D15*
X1230808Y616157D02*
Y676407D01*
X1243808Y616157D02*
Y676407D01*
G54D16*
X1256993Y621157D02*
Y671407D01*
G54D15*
X1250493Y616157D02*
Y676407D01*
X1263493Y616157D02*
Y676407D01*
G54D16*
X1276678Y621157D02*
Y671407D01*
G54D15*
X1270178Y616157D02*
Y676407D01*
X1283178Y616157D02*
Y676407D01*
G54D16*
X1296363Y621157D02*
Y671407D01*
G54D15*
X1289863Y616157D02*
Y676407D01*
X1302863Y616157D02*
Y676407D01*
G54D16*
X1316048Y621157D02*
Y671407D01*
G54D15*
X1309548Y616157D02*
Y676407D01*
X1322548Y616157D02*
Y676407D01*
G54D17*
X1335734Y620657D02*
Y671907D01*
G54D18*
X1329359Y616282D02*
Y676282D01*
X1342109Y616282D02*
Y676282D01*
G54D16*
X1355419Y621157D02*
Y671407D01*
G54D15*
X1348919Y616157D02*
Y676407D01*
X1361919Y616157D02*
Y676407D01*
G54D16*
X1375104Y621157D02*
Y671407D01*
G54D15*
X1368604Y616157D02*
Y676407D01*
X1381604Y616157D02*
Y676407D01*
G54D16*
X1394789Y621157D02*
Y671407D01*
G54D15*
X1388289Y616157D02*
Y676407D01*
X1401289Y616157D02*
Y676407D01*
G54D16*
X1414474Y621157D02*
Y671407D01*
G54D15*
X1407974Y616157D02*
Y676407D01*
X1420974Y616157D02*
Y676407D01*
G54D16*
X1434159Y621157D02*
Y671407D01*
G54D15*
X1427659Y616157D02*
Y676407D01*
X1440659Y616157D02*
Y676407D01*
G54D16*
X1453844Y621157D02*
Y671407D01*
G54D15*
X1447344Y616157D02*
Y676407D01*
X1460344Y616157D02*
Y676407D01*
G54D16*
X1473529Y621157D02*
Y671407D01*
G54D15*
X1467029Y616157D02*
Y676407D01*
X1480029Y616157D02*
Y676407D01*
G54D16*
X1493214Y621157D02*
Y671407D01*
G54D15*
X1486714Y616157D02*
Y676407D01*
X1499714Y616157D02*
Y676407D01*
G54D16*
X1512899Y621157D02*
Y671407D01*
G54D15*
X1506399Y616157D02*
Y676407D01*
X1519399Y616157D02*
Y676407D01*
G54D16*
X1532584Y621157D02*
Y671407D01*
G54D15*
X1526084Y616157D02*
Y676407D01*
X1539084Y616157D02*
Y676407D01*
G54D16*
X1592105Y730927D02*
X1642355D01*
G54D15*
X1587105Y737427D02*
X1647355D01*
X1587105Y724427D02*
X1647355D01*
G54D17*
X1591605Y750612D02*
X1642855D01*
G54D18*
X1587230Y756987D02*
X1647230D01*
X1587230Y744237D02*
X1647230D01*
G54D16*
X1592105Y770297D02*
X1642355D01*
G54D15*
X1587105Y776797D02*
X1647355D01*
X1587105Y763797D02*
X1647355D01*
G54D16*
X1592105Y789982D02*
X1642355D01*
G54D15*
X1587105Y796482D02*
X1647355D01*
X1587105Y783482D02*
X1647355D01*
G54D16*
X1592105Y809667D02*
X1642355D01*
G54D15*
X1587105Y816167D02*
X1647355D01*
X1587105Y803167D02*
X1647355D01*
G54D16*
X1592105Y829352D02*
X1642355D01*
G54D15*
X1587105Y835852D02*
X1647355D01*
X1587105Y822852D02*
X1647355D01*
G54D16*
X1592105Y849038D02*
X1642355D01*
G54D15*
X1587105Y855538D02*
X1647355D01*
X1587105Y842538D02*
X1647355D01*
G54D16*
X1592105Y868723D02*
X1642355D01*
G54D15*
X1587105Y875223D02*
X1647355D01*
X1587105Y862223D02*
X1647355D01*
G54D17*
X1591605Y888408D02*
X1642855D01*
G54D18*
X1587230Y894783D02*
X1647230D01*
X1587230Y882033D02*
X1647230D01*
G54D16*
X1592105Y908093D02*
X1642355D01*
G54D15*
X1587105Y914593D02*
X1647355D01*
X1587105Y901593D02*
X1647355D01*
G54D16*
X1592105Y927778D02*
X1642355D01*
G54D15*
X1587105Y934278D02*
X1647355D01*
X1587105Y921278D02*
X1647355D01*
G54D16*
X1592105Y947463D02*
X1642355D01*
G54D15*
X1587105Y953963D02*
X1647355D01*
X1587105Y940963D02*
X1647355D01*
G54D16*
X1592105Y967148D02*
X1642355D01*
G54D15*
X1587105Y973648D02*
X1647355D01*
X1587105Y960648D02*
X1647355D01*
G54D16*
X1592105Y986833D02*
X1642355D01*
G54D15*
X1587105Y993333D02*
X1647355D01*
X1587105Y980333D02*
X1647355D01*
G54D16*
X1592105Y1006518D02*
X1642355D01*
G54D15*
X1587105Y1013018D02*
X1647355D01*
X1587105Y1000018D02*
X1647355D01*
G54D16*
X1592105Y1026203D02*
X1642355D01*
G54D15*
X1587105Y1032703D02*
X1647355D01*
X1587105Y1019703D02*
X1647355D01*
G54D16*
X1532584Y1085724D02*
Y1135974D01*
G54D15*
X1526084Y1080724D02*
Y1140974D01*
X1539084Y1080724D02*
Y1140974D01*
G54D16*
X1512899Y1085724D02*
Y1135974D01*
G54D15*
X1506399Y1080724D02*
Y1140974D01*
X1519399Y1080724D02*
Y1140974D01*
G54D16*
X1493214Y1085724D02*
Y1135974D01*
G54D15*
X1486714Y1080724D02*
Y1140974D01*
X1499714Y1080724D02*
Y1140974D01*
G54D16*
X1473529Y1085724D02*
Y1135974D01*
G54D15*
X1467029Y1080724D02*
Y1140974D01*
X1480029Y1080724D02*
Y1140974D01*
G54D16*
X1453844Y1085724D02*
Y1135974D01*
G54D15*
X1447344Y1080724D02*
Y1140974D01*
X1460344Y1080724D02*
Y1140974D01*
G54D16*
X1434159Y1085724D02*
Y1135974D01*
G54D15*
X1427659Y1080724D02*
Y1140974D01*
X1440659Y1080724D02*
Y1140974D01*
G54D16*
X1414474Y1085724D02*
Y1135974D01*
G54D15*
X1407974Y1080724D02*
Y1140974D01*
X1420974Y1080724D02*
Y1140974D01*
G54D16*
X1394789Y1085724D02*
Y1135974D01*
G54D15*
X1388289Y1080724D02*
Y1140974D01*
X1401289Y1080724D02*
Y1140974D01*
G54D16*
X1375104Y1085724D02*
Y1135974D01*
G54D15*
X1368604Y1080724D02*
Y1140974D01*
X1381604Y1080724D02*
Y1140974D01*
G54D17*
X1355419Y1085224D02*
Y1136474D01*
G54D18*
X1349044Y1080849D02*
Y1140849D01*
X1361794Y1080849D02*
Y1140849D01*
G54D16*
X1335734Y1085724D02*
Y1135974D01*
G54D15*
X1329234Y1080724D02*
Y1140974D01*
X1342234Y1080724D02*
Y1140974D01*
G54D16*
X1316048Y1085724D02*
Y1135974D01*
G54D15*
X1309548Y1080724D02*
Y1140974D01*
X1322548Y1080724D02*
Y1140974D01*
G54D16*
X1296363Y1085724D02*
Y1135974D01*
G54D15*
X1289863Y1080724D02*
Y1140974D01*
X1302863Y1080724D02*
Y1140974D01*
G54D16*
X1276678Y1085724D02*
Y1135974D01*
G54D15*
X1270178Y1080724D02*
Y1140974D01*
X1283178Y1080724D02*
Y1140974D01*
G54D16*
X1256993Y1085724D02*
Y1135974D01*
G54D15*
X1250493Y1080724D02*
Y1140974D01*
X1263493Y1080724D02*
Y1140974D01*
G54D16*
X1237308Y1085724D02*
Y1135974D01*
G54D15*
X1230808Y1080724D02*
Y1140974D01*
X1243808Y1080724D02*
Y1140974D01*
G54D16*
X1127538Y1026203D02*
X1177788D01*
G54D15*
X1122538Y1032703D02*
X1182788D01*
X1122538Y1019703D02*
X1182788D01*
G54D17*
X1127038Y1006518D02*
X1178288D01*
G54D18*
X1122663Y1012893D02*
X1182663D01*
X1122663Y1000143D02*
X1182663D01*
G54D16*
X1127538Y986833D02*
X1177788D01*
G54D15*
X1122538Y993333D02*
X1182788D01*
X1122538Y980333D02*
X1182788D01*
G54D16*
X1127538Y967148D02*
X1177788D01*
G54D15*
X1122538Y973648D02*
X1182788D01*
X1122538Y960648D02*
X1182788D01*
G54D16*
X1127538Y947463D02*
X1177788D01*
G54D15*
X1122538Y953963D02*
X1182788D01*
X1122538Y940963D02*
X1182788D01*
G54D16*
X1127538Y927778D02*
X1177788D01*
G54D15*
X1122538Y934278D02*
X1182788D01*
X1122538Y921278D02*
X1182788D01*
G54D16*
X1127538Y908093D02*
X1177788D01*
G54D15*
X1122538Y914593D02*
X1182788D01*
X1122538Y901593D02*
X1182788D01*
G54D16*
X1127538Y888408D02*
X1177788D01*
G54D15*
X1122538Y894908D02*
X1182788D01*
X1122538Y881908D02*
X1182788D01*
G54D16*
X1127538Y868723D02*
X1177788D01*
G54D15*
X1122538Y875223D02*
X1182788D01*
X1122538Y862223D02*
X1182788D01*
G54D17*
X1127038Y849038D02*
X1178288D01*
G54D18*
X1122663Y855413D02*
X1182663D01*
X1122663Y842663D02*
X1182663D01*
G54D17*
X1127038Y829352D02*
X1178288D01*
G54D18*
X1122663Y835727D02*
X1182663D01*
X1122663Y822977D02*
X1182663D01*
G54D16*
X1127538Y809667D02*
X1177788D01*
G54D15*
X1122538Y816167D02*
X1182788D01*
X1122538Y803167D02*
X1182788D01*
G54D16*
X1127538Y789982D02*
X1177788D01*
G54D15*
X1122538Y796482D02*
X1182788D01*
X1122538Y783482D02*
X1182788D01*
G54D16*
X1127538Y770297D02*
X1177788D01*
G54D15*
X1122538Y776797D02*
X1182788D01*
X1122538Y763797D02*
X1182788D01*
G54D16*
X1127538Y750612D02*
X1177788D01*
G54D15*
X1122538Y757112D02*
X1182788D01*
X1122538Y744112D02*
X1182788D01*
G54D16*
X1127538Y730927D02*
X1177788D01*
G54D15*
X1122538Y737427D02*
X1182788D01*
X1122538Y724427D02*
X1182788D01*
G54D12*
X1773726Y3041625D02*
Y3054875D01*
G54D13*
X1763351Y3033000D02*
Y3063500D01*
X1784101Y3033000D02*
Y3063500D01*
G54D12*
X1813096Y3041625D02*
Y3054875D01*
G54D13*
X1802721Y3033000D02*
Y3063500D01*
X1823471Y3033000D02*
Y3063500D01*
G54D12*
X1391836Y1786310D02*
Y1799560D01*
G54D13*
X1381461Y1777685D02*
Y1808185D01*
X1402211Y1777685D02*
Y1808185D01*
G54D12*
X1431206Y1786310D02*
Y1799560D01*
G54D13*
X1420831Y1777685D02*
Y1808185D01*
X1441581Y1777685D02*
Y1808185D01*
G54D12*
X849871Y2345275D02*
X863121D01*
G54D13*
X841246Y2355650D02*
X871746D01*
X841246Y2334900D02*
X871746D01*
G54D12*
X849871Y2384646D02*
X863121D01*
G54D13*
X841246Y2395021D02*
X871746D01*
X841246Y2374271D02*
X871746D01*
G54D19*
X1103668Y1251597D02*
X1122918D01*
G54D13*
X1093168Y1263847D02*
X1133418D01*
X1093168Y1239347D02*
X1133418D01*
G54D19*
X1103668Y1196478D02*
X1122918D01*
G54D13*
X1093168Y1208728D02*
X1133418D01*
X1093168Y1184228D02*
X1133418D01*
G54D20*
X944291Y2253232D02*
Y2280232D01*
G54D13*
X925041Y2235732D02*
Y2297732D01*
X963541Y2235732D02*
Y2297732D01*
G54D20*
X1015158Y2253232D02*
Y2280232D01*
G54D13*
X995908Y2235732D02*
Y2297732D01*
X1034408Y2235732D02*
Y2297732D01*
G54D12*
X1580093Y3278171D02*
X1593343D01*
G54D13*
X1571468Y3288546D02*
X1601968D01*
X1571468Y3267796D02*
X1601968D01*
G54D12*
X1580093Y3238801D02*
X1593343D01*
G54D13*
X1571468Y3249176D02*
X1601968D01*
X1571468Y3228426D02*
X1601968D01*
G54D19*
X1101398Y2413231D02*
Y2432481D01*
G54D13*
X1089148Y2402731D02*
Y2442981D01*
X1113648Y2402731D02*
Y2442981D01*
G54D19*
X1156516Y2413231D02*
Y2432481D01*
G54D13*
X1144266Y2402731D02*
Y2442981D01*
X1168766Y2402731D02*
Y2442981D01*
G54D12*
X1773726Y3081586D02*
Y3094836D01*
G54D13*
X1763351Y3072961D02*
Y3103461D01*
X1784101Y3072961D02*
Y3103461D01*
G54D12*
X1813096Y3081586D02*
Y3094836D01*
G54D13*
X1802721Y3072961D02*
Y3103461D01*
X1823471Y3072961D02*
Y3103461D01*
G54D12*
X1525860Y3085402D02*
Y3098652D01*
G54D13*
X1515485Y3076777D02*
Y3107277D01*
X1536235Y3076777D02*
Y3107277D01*
G54D12*
X1486490Y3085402D02*
Y3098652D01*
G54D13*
X1476115Y3076777D02*
Y3107277D01*
X1496865Y3076777D02*
Y3107277D01*
G54D21*
X645555Y2374803D02*
X672555D01*
G54D13*
X623180Y2398928D02*
X694930D01*
X623180Y2350678D02*
X694930D01*
G54D21*
X645555Y2485039D02*
X672555D01*
G54D13*
X623180Y2509164D02*
X694930D01*
X623180Y2460914D02*
X694930D01*
G54D14*
X1872633Y2094116D02*
X1905133D01*
G54D15*
X1865633Y2102616D02*
X1912133D01*
X1865633Y2085616D02*
X1912133D01*
G54D14*
X1872633Y2119707D02*
X1905133D01*
G54D15*
X1865633Y2128207D02*
X1912133D01*
X1865633Y2111207D02*
X1912133D01*
G54D14*
X1872633Y2145297D02*
X1905133D01*
G54D15*
X1865633Y2153797D02*
X1912133D01*
X1865633Y2136797D02*
X1912133D01*
G54D14*
X1791924Y2145297D02*
X1824424D01*
G54D15*
X1784924Y2153797D02*
X1831424D01*
X1784924Y2136797D02*
X1831424D01*
G54D14*
X1791924Y2094116D02*
X1824424D01*
G54D15*
X1784924Y2102616D02*
X1831424D01*
X1784924Y2085616D02*
X1831424D01*
G54D12*
X1639584Y2979210D02*
Y2992460D01*
G54D13*
X1629209Y2970585D02*
Y3001085D01*
X1649959Y2970585D02*
Y3001085D01*
G54D12*
X1600214Y2979210D02*
Y2992460D01*
G54D13*
X1589839Y2970585D02*
Y3001085D01*
X1610589Y2970585D02*
Y3001085D01*
G54D12*
X1061811Y693375D02*
Y706625D01*
G54D13*
X1051436Y684750D02*
Y715250D01*
X1072186Y684750D02*
Y715250D01*
G54D12*
X1101181Y693375D02*
Y706625D01*
G54D13*
X1090806Y684750D02*
Y715250D01*
X1111556Y684750D02*
Y715250D01*
G54D12*
X1672613Y1601990D02*
X1685863D01*
G54D13*
X1663988Y1612365D02*
X1694488D01*
X1663988Y1591615D02*
X1694488D01*
G54D12*
X1672613Y1641360D02*
X1685863D01*
G54D13*
X1663988Y1651735D02*
X1694488D01*
X1663988Y1630985D02*
X1694488D01*
G54D12*
X892391Y2295669D02*
X905641D01*
G54D13*
X883766Y2306044D02*
X914266D01*
X883766Y2285294D02*
X914266D01*
G54D12*
X892391Y2256299D02*
X905641D01*
G54D13*
X883766Y2266674D02*
X914266D01*
X883766Y2245924D02*
X914266D01*
G54D12*
X1157849Y616537D02*
X1171099D01*
G54D13*
X1149224Y626912D02*
X1179724D01*
X1149224Y606162D02*
X1179724D01*
G54D12*
X1157849Y577167D02*
X1171099D01*
G54D13*
X1149224Y587542D02*
X1179724D01*
X1149224Y566792D02*
X1179724D01*
G54D22*
X1970576Y705801D02*
Y769801D01*
G54D15*
X1947326Y684051D02*
Y791551D01*
X1993826Y684051D02*
Y791551D01*
G54D22*
X1852466Y705801D02*
Y769801D01*
G54D15*
X1829216Y684051D02*
Y791551D01*
X1875716Y684051D02*
Y791551D01*
G54D12*
X1279540Y2133486D02*
X1292790D01*
G54D13*
X1270915Y2143861D02*
X1301415D01*
X1270915Y2123111D02*
X1301415D01*
G54D12*
X1279540Y2172856D02*
X1292790D01*
G54D13*
X1270915Y2183231D02*
X1301415D01*
X1270915Y2162481D02*
X1301415D01*
G54D19*
X1895852Y1606145D02*
Y1625395D01*
G54D13*
X1883602Y1595645D02*
Y1635895D01*
X1908102Y1595645D02*
Y1635895D01*
G54D19*
X1840734Y1606145D02*
Y1625395D01*
G54D13*
X1828484Y1595645D02*
Y1635895D01*
X1852984Y1595645D02*
Y1635895D01*
G54D12*
X1677534Y3237817D02*
X1690784D01*
G54D13*
X1668909Y3248192D02*
X1699409D01*
X1668909Y3227442D02*
X1699409D01*
G54D12*
X1677534Y3277187D02*
X1690784D01*
G54D13*
X1668909Y3287562D02*
X1699409D01*
X1668909Y3266812D02*
X1699409D01*
G54D23*
X998135Y877080D02*
Y893830D01*
G54D15*
X972885Y853330D02*
Y917580D01*
X1023385Y853330D02*
Y917580D01*
G54D23*
X998135Y1022749D02*
Y1039499D01*
G54D15*
X972885Y998999D02*
Y1063249D01*
X1023385Y998999D02*
Y1063249D01*
G54D23*
X911521Y1022749D02*
Y1039499D01*
G54D15*
X886271Y998999D02*
Y1063249D01*
X936771Y998999D02*
Y1063249D01*
G54D23*
X911521Y877080D02*
Y893830D01*
G54D15*
X886271Y853330D02*
Y917580D01*
X936771Y853330D02*
Y917580D01*
G54D16*
X1006461Y1463132D02*
X1027211D01*
G54D15*
X1001461Y1469632D02*
X1032211D01*
X1001461Y1456632D02*
X1032211D01*
G54D16*
X1006461Y1482817D02*
X1027211D01*
G54D15*
X1001461Y1489317D02*
X1032211D01*
X1001461Y1476317D02*
X1032211D01*
G54D16*
X1006461Y1502502D02*
X1027211D01*
G54D15*
X1001461Y1509002D02*
X1032211D01*
X1001461Y1496002D02*
X1032211D01*
G54D17*
X1005961Y1522187D02*
X1027711D01*
G54D18*
X1001586Y1528562D02*
X1032086D01*
X1001586Y1515812D02*
X1032086D01*
G54D16*
X888351Y1522187D02*
X909101D01*
G54D15*
X883351Y1528687D02*
X914101D01*
X883351Y1515687D02*
X914101D01*
G54D16*
X888351Y1502502D02*
X909101D01*
G54D15*
X883351Y1509002D02*
X914101D01*
X883351Y1496002D02*
X914101D01*
G54D16*
X888351Y1482817D02*
X909101D01*
G54D15*
X883351Y1489317D02*
X914101D01*
X883351Y1476317D02*
X914101D01*
G54D16*
X888351Y1463132D02*
X909101D01*
G54D15*
X883351Y1469632D02*
X914101D01*
X883351Y1456632D02*
X914101D01*
G54D12*
X912666Y1427559D02*
X925916D01*
G54D13*
X904041Y1437934D02*
X934541D01*
X904041Y1417184D02*
X934541D01*
G54D12*
X912666Y1388189D02*
X925916D01*
G54D13*
X904041Y1398564D02*
X934541D01*
X904041Y1377814D02*
X934541D01*
G54D22*
X2156096Y3119707D02*
X2220096D01*
G54D15*
X2134346Y3142957D02*
X2241846D01*
X2134346Y3096457D02*
X2241846D01*
G54D22*
X2156096Y3237817D02*
X2220096D01*
G54D15*
X2134346Y3261067D02*
X2241846D01*
X2134346Y3214567D02*
X2241846D01*
G54D12*
X1452140Y1228959D02*
X1465390D01*
G54D13*
X1443515Y1239334D02*
X1474015D01*
X1443515Y1218584D02*
X1474015D01*
G54D12*
X1452140Y1189589D02*
X1465390D01*
G54D13*
X1443515Y1199964D02*
X1474015D01*
X1443515Y1179214D02*
X1474015D01*
G54D12*
X1735605Y2117738D02*
X1748855D01*
G54D13*
X1726980Y2128113D02*
X1757480D01*
X1726980Y2107363D02*
X1757480D01*
G54D12*
X1735605Y2078368D02*
X1748855D01*
G54D13*
X1726980Y2088743D02*
X1757480D01*
X1726980Y2067993D02*
X1757480D01*
G54D12*
X2026678Y3145562D02*
Y3158812D01*
G54D13*
X2016303Y3136937D02*
Y3167437D01*
X2037053Y3136937D02*
Y3167437D01*
G54D12*
X2066048Y3145562D02*
Y3158812D01*
G54D13*
X2055673Y3136937D02*
Y3167437D01*
X2076423Y3136937D02*
Y3167437D01*
G54D12*
X909123Y2120275D02*
X922373D01*
G54D13*
X900498Y2130650D02*
X930998D01*
X900498Y2109900D02*
X930998D01*
G54D12*
X909123Y2080905D02*
X922373D01*
G54D13*
X900498Y2091280D02*
X930998D01*
X900498Y2070530D02*
X930998D01*
G54D12*
X719592Y3113082D02*
Y3126332D01*
G54D13*
X709217Y3104457D02*
Y3134957D01*
X729967Y3104457D02*
Y3134957D01*
G54D12*
X680222Y3113082D02*
Y3126332D01*
G54D13*
X669847Y3104457D02*
Y3134957D01*
X690597Y3104457D02*
Y3134957D01*
G54D12*
X1716234Y3237817D02*
X1729484D01*
G54D13*
X1707609Y3248192D02*
X1738109D01*
X1707609Y3227442D02*
X1738109D01*
G54D12*
X1716234Y3277187D02*
X1729484D01*
G54D13*
X1707609Y3287562D02*
X1738109D01*
X1707609Y3266812D02*
X1738109D01*
G54D12*
X1364277Y580602D02*
Y593852D01*
G54D13*
X1353902Y571977D02*
Y602477D01*
X1374652Y571977D02*
Y602477D01*
G54D12*
X1324907Y580602D02*
Y593852D01*
G54D13*
X1314532Y571977D02*
Y602477D01*
X1335282Y571977D02*
Y602477D01*
G54D12*
X1735605Y2184667D02*
X1748855D01*
G54D13*
X1726980Y2195042D02*
X1757480D01*
X1726980Y2174292D02*
X1757480D01*
G54D12*
X1735605Y2145297D02*
X1748855D01*
G54D13*
X1726980Y2155672D02*
X1757480D01*
X1726980Y2134922D02*
X1757480D01*
G54D20*
X1129041Y1830616D02*
Y1857616D01*
G54D13*
X1109791Y1813116D02*
Y1875116D01*
X1148291Y1813116D02*
Y1875116D01*
G54D20*
X1058174Y1830616D02*
Y1857616D01*
G54D13*
X1038924Y1813116D02*
Y1875116D01*
X1077424Y1813116D02*
Y1875116D01*
G54D19*
X1219592Y573448D02*
Y592698D01*
G54D13*
X1207342Y562948D02*
Y603198D01*
X1231842Y562948D02*
Y603198D01*
G54D19*
X1274710Y573448D02*
Y592698D01*
G54D13*
X1262460Y562948D02*
Y603198D01*
X1286960Y562948D02*
Y603198D01*
G54D19*
X1264435Y1904943D02*
X1303435D01*
G54D13*
X1253935Y1917193D02*
X1313935D01*
X1253935Y1892693D02*
X1313935D01*
G54D19*
X1264435Y1954943D02*
X1303435D01*
G54D13*
X1253935Y1967193D02*
X1313935D01*
X1253935Y1942693D02*
X1313935D01*
G54D19*
X1264435Y2004943D02*
X1303435D01*
G54D13*
X1253935Y2017193D02*
X1313935D01*
X1253935Y1992693D02*
X1313935D01*
G54D19*
X1264435Y2054943D02*
X1303435D01*
G54D13*
X1253935Y2067193D02*
X1313935D01*
X1253935Y2042693D02*
X1313935D01*
G54D19*
X1036088Y2054943D02*
X1075088D01*
G54D13*
X1025588Y2067193D02*
X1085588D01*
X1025588Y2042693D02*
X1085588D01*
G54D19*
X1036088Y2004943D02*
X1075088D01*
G54D13*
X1025588Y2017193D02*
X1085588D01*
X1025588Y1992693D02*
X1085588D01*
G54D19*
X1036088Y1954943D02*
X1075088D01*
G54D13*
X1025588Y1967193D02*
X1085588D01*
X1025588Y1942693D02*
X1085588D01*
G54D19*
X1036088Y1904943D02*
X1075088D01*
G54D13*
X1025588Y1917193D02*
X1085588D01*
X1025588Y1892693D02*
X1085588D01*
G54D24*
X1806388Y1913014D02*
X1892638D01*
G54D13*
X1774138Y1947014D02*
X1924888D01*
X1774138Y1879014D02*
X1924888D01*
G54D24*
X1806388Y1688604D02*
X1892638D01*
G54D13*
X1774138Y1722604D02*
X1924888D01*
X1774138Y1654604D02*
X1924888D01*
G54D16*
X1006461Y770140D02*
X1027211D01*
G54D15*
X1001461Y776640D02*
X1032211D01*
X1001461Y763640D02*
X1032211D01*
G54D16*
X1006461Y789825D02*
X1027211D01*
G54D15*
X1001461Y796325D02*
X1032211D01*
X1001461Y783325D02*
X1032211D01*
G54D16*
X1006461Y809510D02*
X1027211D01*
G54D15*
X1001461Y816010D02*
X1032211D01*
X1001461Y803010D02*
X1032211D01*
G54D17*
X1005961Y829195D02*
X1027711D01*
G54D18*
X1001586Y835570D02*
X1032086D01*
X1001586Y822820D02*
X1032086D01*
G54D16*
X888351Y829195D02*
X909101D01*
G54D15*
X883351Y835695D02*
X914101D01*
X883351Y822695D02*
X914101D01*
G54D16*
X888351Y809510D02*
X909101D01*
G54D15*
X883351Y816010D02*
X914101D01*
X883351Y803010D02*
X914101D01*
G54D16*
X888351Y789825D02*
X909101D01*
G54D15*
X883351Y796325D02*
X914101D01*
X883351Y783325D02*
X914101D01*
G54D16*
X888351Y770140D02*
X909101D01*
G54D15*
X883351Y776640D02*
X914101D01*
X883351Y763640D02*
X914101D01*
G54D19*
X1010930Y2456539D02*
Y2475789D01*
G54D13*
X998680Y2446039D02*
Y2486289D01*
X1023180Y2446039D02*
Y2486289D01*
G54D19*
X955812Y2456539D02*
Y2475789D01*
G54D13*
X943562Y2446039D02*
Y2486289D01*
X968062Y2446039D02*
Y2486289D01*
G54D25*
X1481558Y3025219D02*
X1493058D01*
G54D13*
X1463183Y3045344D02*
X1511433D01*
X1463183Y3005094D02*
X1511433D01*
G54D25*
X1414629Y3025219D02*
X1426129D01*
G54D13*
X1396254Y3045344D02*
X1444504D01*
X1396254Y3005094D02*
X1444504D01*
G54D25*
X1414629Y2974038D02*
X1426129D01*
G54D13*
X1396254Y2994163D02*
X1444504D01*
X1396254Y2953913D02*
X1444504D01*
G54D25*
X1481558Y2974038D02*
X1493058D01*
G54D13*
X1463183Y2994163D02*
X1511433D01*
X1463183Y2953913D02*
X1511433D01*
G54D20*
X1313375Y2259471D02*
X1340375D01*
G54D13*
X1295875Y2278721D02*
X1357875D01*
X1295875Y2240221D02*
X1357875D01*
G54D20*
X1313375Y2330337D02*
X1340375D01*
G54D13*
X1295875Y2349587D02*
X1357875D01*
X1295875Y2311087D02*
X1357875D01*
G54D12*
X1667691Y849038D02*
X1680941D01*
G54D13*
X1659066Y859413D02*
X1689566D01*
X1659066Y838663D02*
X1689566D01*
G54D12*
X1667691Y888408D02*
X1680941D01*
G54D13*
X1659066Y898783D02*
X1689566D01*
X1659066Y878033D02*
X1689566D01*
G54D12*
X1670644Y1049825D02*
X1683894D01*
G54D13*
X1662019Y1060200D02*
X1692519D01*
X1662019Y1039450D02*
X1692519D01*
G54D12*
X1670644Y1010455D02*
X1683894D01*
G54D13*
X1662019Y1020830D02*
X1692519D01*
X1662019Y1000080D02*
X1692519D01*
G54D12*
X1773836Y3130785D02*
Y3144035D01*
G54D13*
X1763461Y3122160D02*
Y3152660D01*
X1784211Y3122160D02*
Y3152660D01*
G54D12*
X1813206Y3130785D02*
Y3144035D01*
G54D13*
X1802831Y3122160D02*
Y3152660D01*
X1823581Y3122160D02*
Y3152660D01*
G54D16*
X1565300Y3163019D02*
X1585300D01*
G54D15*
X1560300Y3169519D02*
X1590300D01*
X1560300Y3156519D02*
X1590300D01*
G54D16*
X1565300Y3143334D02*
X1585300D01*
G54D15*
X1560300Y3149834D02*
X1590300D01*
X1560300Y3136834D02*
X1590300D01*
G54D16*
X1565300Y3123649D02*
X1585300D01*
G54D15*
X1560300Y3130149D02*
X1590300D01*
X1560300Y3117149D02*
X1590300D01*
G54D16*
X1565300Y3103964D02*
X1585300D01*
G54D15*
X1560300Y3110464D02*
X1590300D01*
X1560300Y3097464D02*
X1590300D01*
G54D16*
X1565300Y3084279D02*
X1585300D01*
G54D15*
X1560300Y3090779D02*
X1590300D01*
X1560300Y3077779D02*
X1590300D01*
G54D16*
X1613293Y3036287D02*
Y3056287D01*
G54D15*
X1606793Y3031287D02*
Y3061287D01*
X1619793Y3031287D02*
Y3061287D01*
G54D16*
X1632978Y3036287D02*
Y3056287D01*
G54D15*
X1626478Y3031287D02*
Y3061287D01*
X1639478Y3031287D02*
Y3061287D01*
G54D16*
X1652663Y3036287D02*
Y3056287D01*
G54D15*
X1646163Y3031287D02*
Y3061287D01*
X1659163Y3031287D02*
Y3061287D01*
G54D16*
X1672348Y3036287D02*
Y3056287D01*
G54D15*
X1665848Y3031287D02*
Y3061287D01*
X1678848Y3031287D02*
Y3061287D01*
G54D16*
X1692033Y3036287D02*
Y3056287D01*
G54D15*
X1685533Y3031287D02*
Y3061287D01*
X1698533Y3031287D02*
Y3061287D01*
G54D16*
X1720025Y3084279D02*
X1740025D01*
G54D15*
X1715025Y3090779D02*
X1745025D01*
X1715025Y3077779D02*
X1745025D01*
G54D16*
X1720025Y3103964D02*
X1740025D01*
G54D15*
X1715025Y3110464D02*
X1745025D01*
X1715025Y3097464D02*
X1745025D01*
G54D16*
X1720025Y3123649D02*
X1740025D01*
G54D15*
X1715025Y3130149D02*
X1745025D01*
X1715025Y3117149D02*
X1745025D01*
G54D16*
X1720025Y3143334D02*
X1740025D01*
G54D15*
X1715025Y3149834D02*
X1745025D01*
X1715025Y3136834D02*
X1745025D01*
G54D16*
X1720025Y3163019D02*
X1740025D01*
G54D15*
X1715025Y3169519D02*
X1745025D01*
X1715025Y3156519D02*
X1745025D01*
G54D17*
X1692033Y3190511D02*
Y3211511D01*
G54D18*
X1685658Y3186136D02*
Y3215886D01*
X1698408Y3186136D02*
Y3215886D01*
G54D16*
X1672348Y3191011D02*
Y3211011D01*
G54D15*
X1665848Y3186011D02*
Y3216011D01*
X1678848Y3186011D02*
Y3216011D01*
G54D16*
X1652663Y3191011D02*
Y3211011D01*
G54D15*
X1646163Y3186011D02*
Y3216011D01*
X1659163Y3186011D02*
Y3216011D01*
G54D17*
X1632978Y3190511D02*
Y3211511D01*
G54D18*
X1626603Y3186136D02*
Y3215886D01*
X1639353Y3186136D02*
Y3215886D01*
G54D16*
X1613293Y3191011D02*
Y3211011D01*
G54D15*
X1606793Y3186011D02*
Y3216011D01*
X1619793Y3186011D02*
Y3216011D01*
G54D26*
X1650913Y3123649D02*
X1654413D01*
G54D13*
X1602913Y3173399D02*
X1702413D01*
X1602913Y3073899D02*
X1702413D01*
G54D19*
X1611509Y1904746D02*
X1650509D01*
G54D13*
X1601009Y1916996D02*
X1661009D01*
X1601009Y1892496D02*
X1661009D01*
G54D19*
X1611509Y1954746D02*
X1650509D01*
G54D13*
X1601009Y1966996D02*
X1661009D01*
X1601009Y1942496D02*
X1661009D01*
G54D19*
X1611509Y2004746D02*
X1650509D01*
G54D13*
X1601009Y2016996D02*
X1661009D01*
X1601009Y1992496D02*
X1661009D01*
G54D19*
X1611509Y2054746D02*
X1650509D01*
G54D13*
X1601009Y2066996D02*
X1661009D01*
X1601009Y2042496D02*
X1661009D01*
G54D19*
X1383163Y2054746D02*
X1422163D01*
G54D13*
X1372663Y2066996D02*
X1432663D01*
X1372663Y2042496D02*
X1432663D01*
G54D19*
X1383163Y2004746D02*
X1422163D01*
G54D13*
X1372663Y2016996D02*
X1432663D01*
X1372663Y1992496D02*
X1432663D01*
G54D19*
X1383163Y1954746D02*
X1422163D01*
G54D13*
X1372663Y1966996D02*
X1432663D01*
X1372663Y1942496D02*
X1432663D01*
G54D19*
X1383163Y1904746D02*
X1422163D01*
G54D13*
X1372663Y1916996D02*
X1432663D01*
X1372663Y1892496D02*
X1432663D01*
G54D19*
X1960951Y662423D02*
X1980201D01*
G54D13*
X1950451Y674673D02*
X1990701D01*
X1950451Y650173D02*
X1990701D01*
G54D19*
X1960951Y607305D02*
X1980201D01*
G54D13*
X1950451Y619555D02*
X1990701D01*
X1950451Y595055D02*
X1990701D01*
G54D12*
X1888402Y642961D02*
Y656211D01*
G54D13*
X1878027Y634336D02*
Y664836D01*
X1898777Y634336D02*
Y664836D01*
G54D12*
X1849032Y642961D02*
Y656211D01*
G54D13*
X1838657Y634336D02*
Y664836D01*
X1859407Y634336D02*
Y664836D01*
G54D19*
X1840655Y1540200D02*
Y1559450D01*
G54D13*
X1828405Y1529700D02*
Y1569950D01*
X1852905Y1529700D02*
Y1569950D01*
G54D19*
X1895773Y1540200D02*
Y1559450D01*
G54D13*
X1883523Y1529700D02*
Y1569950D01*
X1908023Y1529700D02*
Y1569950D01*
G54D12*
X1838951Y3086228D02*
X1852201D01*
G54D13*
X1830326Y3096603D02*
X1860826D01*
X1830326Y3075853D02*
X1860826D01*
G54D12*
X1838951Y3046858D02*
X1852201D01*
G54D13*
X1830326Y3057233D02*
X1860826D01*
X1830326Y3036483D02*
X1860826D01*
G54D27*
X463253Y1771864D02*
X523253D01*
G54D28*
X449253Y1431612D02*
X537253D01*
G54D12*
X898228Y2418965D02*
Y2432215D01*
G54D13*
X887853Y2410340D02*
Y2440840D01*
X908603Y2410340D02*
Y2440840D01*
G54D12*
X858858Y2418965D02*
Y2432215D01*
G54D13*
X848483Y2410340D02*
Y2440840D01*
X869233Y2410340D02*
Y2440840D01*
G54D24*
X1809341Y2436636D02*
X1895591D01*
G54D13*
X1777091Y2470636D02*
X1927841D01*
X1777091Y2402636D02*
X1927841D01*
G54D24*
X1809341Y2212227D02*
X1895591D01*
G54D13*
X1777091Y2246227D02*
X1927841D01*
X1777091Y2178227D02*
X1927841D01*
G54D12*
X1670644Y1079352D02*
X1683894D01*
G54D13*
X1662019Y1089727D02*
X1692519D01*
X1662019Y1068977D02*
X1692519D01*
G54D12*
X1670644Y1118723D02*
X1683894D01*
G54D13*
X1662019Y1129098D02*
X1692519D01*
X1662019Y1108348D02*
X1692519D01*
G54D12*
X956564Y1427362D02*
X969814D01*
G54D13*
X947939Y1437737D02*
X978439D01*
X947939Y1416987D02*
X978439D01*
G54D12*
X956564Y1387992D02*
X969814D01*
G54D13*
X947939Y1398367D02*
X978439D01*
X947939Y1377617D02*
X978439D01*
G54D12*
X943307Y726839D02*
Y740089D01*
G54D13*
X932932Y718214D02*
Y748714D01*
X953682Y718214D02*
Y748714D01*
G54D12*
X982677Y726839D02*
Y740089D01*
G54D13*
X972302Y718214D02*
Y748714D01*
X993052Y718214D02*
Y748714D01*
G54D12*
X1693282Y2145297D02*
X1706532D01*
G54D13*
X1684657Y2155672D02*
X1715157D01*
X1684657Y2134922D02*
X1715157D01*
G54D12*
X1693282Y2184667D02*
X1706532D01*
G54D13*
X1684657Y2195042D02*
X1715157D01*
X1684657Y2174292D02*
X1715157D01*
G54D12*
X1469225Y2102255D02*
Y2115505D01*
G54D13*
X1458850Y2093630D02*
Y2124130D01*
X1479600Y2093630D02*
Y2124130D01*
G54D12*
X1429855Y2102255D02*
Y2115505D01*
G54D13*
X1419480Y2093630D02*
Y2124130D01*
X1440230Y2093630D02*
Y2124130D01*
G54D12*
X1105683Y1472069D02*
X1118933D01*
G54D13*
X1097058Y1482444D02*
X1127558D01*
X1097058Y1461694D02*
X1127558D01*
G54D12*
X1105683Y1511439D02*
X1118933D01*
G54D13*
X1097058Y1521814D02*
X1127558D01*
X1097058Y1501064D02*
X1127558D01*
G54D12*
X1039849Y866347D02*
X1053099D01*
G54D13*
X1031224Y876722D02*
X1061724D01*
X1031224Y855972D02*
X1061724D01*
G54D12*
X1039849Y905717D02*
X1053099D01*
G54D13*
X1031224Y916092D02*
X1061724D01*
X1031224Y895342D02*
X1061724D01*
G54D12*
X1113293Y2105208D02*
Y2118458D01*
G54D13*
X1102918Y2096583D02*
Y2127083D01*
X1123668Y2096583D02*
Y2127083D01*
G54D12*
X1152663Y2105208D02*
Y2118458D01*
G54D13*
X1142288Y2096583D02*
Y2127083D01*
X1163038Y2096583D02*
Y2127083D01*
G54D12*
X1252965Y3245691D02*
X1266215D01*
G54D13*
X1244340Y3256066D02*
X1274840D01*
X1244340Y3235316D02*
X1274840D01*
G54D12*
X1252965Y3206321D02*
X1266215D01*
G54D13*
X1244340Y3216696D02*
X1274840D01*
X1244340Y3195946D02*
X1274840D01*
G54D19*
X1321816Y2181715D02*
X1341066D01*
G54D13*
X1311316Y2193965D02*
X1351566D01*
X1311316Y2169465D02*
X1351566D01*
G54D19*
X1321816Y2126597D02*
X1341066D01*
G54D13*
X1311316Y2138847D02*
X1351566D01*
X1311316Y2114347D02*
X1351566D01*
G54D12*
X1079828Y2321743D02*
Y2334993D01*
G54D13*
X1069453Y2313118D02*
Y2343618D01*
X1090203Y2313118D02*
Y2343618D01*
G54D12*
X1119198Y2321743D02*
Y2334993D01*
G54D13*
X1108823Y2313118D02*
Y2343618D01*
X1129573Y2313118D02*
Y2343618D01*
G54D12*
X1106668Y1330337D02*
X1119918D01*
G54D13*
X1098043Y1340712D02*
X1128543D01*
X1098043Y1319962D02*
X1128543D01*
G54D12*
X1106668Y1290967D02*
X1119918D01*
G54D13*
X1098043Y1301342D02*
X1128543D01*
X1098043Y1280592D02*
X1128543D01*
G54D12*
X1241510Y1222069D02*
X1254760D01*
G54D13*
X1232885Y1232444D02*
X1263385D01*
X1232885Y1211694D02*
X1263385D01*
G54D12*
X1241510Y1182699D02*
X1254760D01*
G54D13*
X1232885Y1193074D02*
X1263385D01*
X1232885Y1172324D02*
X1263385D01*
G54D12*
X913754Y1082962D02*
X927004D01*
G54D13*
X905129Y1093337D02*
X935629D01*
X905129Y1072587D02*
X935629D01*
G54D12*
X913754Y1122332D02*
X927004D01*
G54D13*
X905129Y1132707D02*
X935629D01*
X905129Y1111957D02*
X935629D01*
G54D12*
X1881009Y3145562D02*
Y3158812D01*
G54D13*
X1870634Y3136937D02*
Y3167437D01*
X1891384Y3136937D02*
Y3167437D01*
G54D12*
X1920379Y3145562D02*
Y3158812D01*
G54D13*
X1910004Y3136937D02*
Y3167437D01*
X1930754Y3136937D02*
Y3167437D01*
G54D20*
X1064080Y2258766D02*
Y2285766D01*
G54D13*
X1044830Y2241266D02*
Y2303266D01*
X1083330Y2241266D02*
Y2303266D01*
G54D20*
X1134946Y2258766D02*
Y2285766D01*
G54D13*
X1115696Y2241266D02*
Y2303266D01*
X1154196Y2241266D02*
Y2303266D01*
G54D12*
X1693282Y2078368D02*
X1706532D01*
G54D13*
X1684657Y2088743D02*
X1715157D01*
X1684657Y2067993D02*
X1715157D01*
G54D12*
X1693282Y2117738D02*
X1706532D01*
G54D13*
X1684657Y2128113D02*
X1715157D01*
X1684657Y2107363D02*
X1715157D01*
G54D12*
X1612557Y1350022D02*
X1643557D01*
G54D13*
X1603932Y1360397D02*
X1652182D01*
X1603932Y1339647D02*
X1652182D01*
G54D12*
X1612557Y1381518D02*
X1643557D01*
G54D13*
X1603932Y1391893D02*
X1652182D01*
X1603932Y1371143D02*
X1652182D01*
G54D12*
X1612557Y1413014D02*
X1643557D01*
G54D13*
X1603932Y1423389D02*
X1652182D01*
X1603932Y1402639D02*
X1652182D01*
G54D12*
X1612557Y1444510D02*
X1643557D01*
G54D13*
X1603932Y1454885D02*
X1652182D01*
X1603932Y1434135D02*
X1652182D01*
G54D12*
X1612557Y1476006D02*
X1643557D01*
G54D13*
X1603932Y1486381D02*
X1652182D01*
X1603932Y1465631D02*
X1652182D01*
G54D12*
X1612557Y1507502D02*
X1643557D01*
G54D13*
X1603932Y1517877D02*
X1652182D01*
X1603932Y1497127D02*
X1652182D01*
G54D12*
X1612557Y1538998D02*
X1643557D01*
G54D13*
X1603932Y1549373D02*
X1652182D01*
X1603932Y1528623D02*
X1652182D01*
G54D12*
X1612557Y1570494D02*
X1643557D01*
G54D13*
X1603932Y1580869D02*
X1652182D01*
X1603932Y1560119D02*
X1652182D01*
G54D12*
X1612557Y1601990D02*
X1643557D01*
G54D13*
X1603932Y1612365D02*
X1652182D01*
X1603932Y1591615D02*
X1652182D01*
G54D12*
X1612557Y1633486D02*
X1643557D01*
G54D13*
X1603932Y1643861D02*
X1652182D01*
X1603932Y1623111D02*
X1652182D01*
G54D12*
X1612557Y1664982D02*
X1643557D01*
G54D13*
X1603932Y1675357D02*
X1652182D01*
X1603932Y1654607D02*
X1652182D01*
G54D12*
X1553250Y1724289D02*
Y1755289D01*
G54D13*
X1542875Y1715664D02*
Y1763914D01*
X1563625Y1715664D02*
Y1763914D01*
G54D12*
X1521754Y1724289D02*
Y1755289D01*
G54D13*
X1511379Y1715664D02*
Y1763914D01*
X1532129Y1715664D02*
Y1763914D01*
G54D12*
X1490258Y1724289D02*
Y1755289D01*
G54D13*
X1479883Y1715664D02*
Y1763914D01*
X1500633Y1715664D02*
Y1763914D01*
G54D12*
X1458762Y1724289D02*
Y1755289D01*
G54D13*
X1448387Y1715664D02*
Y1763914D01*
X1469137Y1715664D02*
Y1763914D01*
G54D12*
X1427266Y1724289D02*
Y1755289D01*
G54D13*
X1416891Y1715664D02*
Y1763914D01*
X1437641Y1715664D02*
Y1763914D01*
G54D12*
X1395770Y1724289D02*
Y1755289D01*
G54D13*
X1385395Y1715664D02*
Y1763914D01*
X1406145Y1715664D02*
Y1763914D01*
G54D12*
X1364274Y1724289D02*
Y1755289D01*
G54D13*
X1353899Y1715664D02*
Y1763914D01*
X1374649Y1715664D02*
Y1763914D01*
G54D12*
X1332778Y1724289D02*
Y1755289D01*
G54D13*
X1322403Y1715664D02*
Y1763914D01*
X1343153Y1715664D02*
Y1763914D01*
G54D12*
X1301282Y1724289D02*
Y1755289D01*
G54D13*
X1290907Y1715664D02*
Y1763914D01*
X1311657Y1715664D02*
Y1763914D01*
G54D12*
X1269786Y1724289D02*
Y1755289D01*
G54D13*
X1259411Y1715664D02*
Y1763914D01*
X1280161Y1715664D02*
Y1763914D01*
G54D12*
X1238289Y1724289D02*
Y1755289D01*
G54D13*
X1227914Y1715664D02*
Y1763914D01*
X1248664Y1715664D02*
Y1763914D01*
G54D12*
X1147989Y1664982D02*
X1178989D01*
G54D13*
X1139364Y1675357D02*
X1187614D01*
X1139364Y1654607D02*
X1187614D01*
G54D12*
X1147989Y1633486D02*
X1178989D01*
G54D13*
X1139364Y1643861D02*
X1187614D01*
X1139364Y1623111D02*
X1187614D01*
G54D12*
X1147989Y1601990D02*
X1178989D01*
G54D13*
X1139364Y1612365D02*
X1187614D01*
X1139364Y1591615D02*
X1187614D01*
G54D12*
X1147989Y1570494D02*
X1178989D01*
G54D13*
X1139364Y1580869D02*
X1187614D01*
X1139364Y1560119D02*
X1187614D01*
G54D12*
X1147989Y1538998D02*
X1178989D01*
G54D13*
X1139364Y1549373D02*
X1187614D01*
X1139364Y1528623D02*
X1187614D01*
G54D12*
X1147989Y1507502D02*
X1178989D01*
G54D13*
X1139364Y1517877D02*
X1187614D01*
X1139364Y1497127D02*
X1187614D01*
G54D12*
X1147989Y1476006D02*
X1178989D01*
G54D13*
X1139364Y1486381D02*
X1187614D01*
X1139364Y1465631D02*
X1187614D01*
G54D12*
X1147989Y1444510D02*
X1178989D01*
G54D13*
X1139364Y1454885D02*
X1187614D01*
X1139364Y1434135D02*
X1187614D01*
G54D12*
X1147989Y1413014D02*
X1178989D01*
G54D13*
X1139364Y1423389D02*
X1187614D01*
X1139364Y1402639D02*
X1187614D01*
G54D12*
X1147989Y1381518D02*
X1178989D01*
G54D13*
X1139364Y1391893D02*
X1187614D01*
X1139364Y1371143D02*
X1187614D01*
G54D12*
X1147989Y1350022D02*
X1178989D01*
G54D13*
X1139364Y1360397D02*
X1187614D01*
X1139364Y1339647D02*
X1187614D01*
G54D12*
X1238289Y1259722D02*
Y1290722D01*
G54D13*
X1227914Y1251097D02*
Y1299347D01*
X1248664Y1251097D02*
Y1299347D01*
G54D12*
X1269786Y1259722D02*
Y1290722D01*
G54D13*
X1259411Y1251097D02*
Y1299347D01*
X1280161Y1251097D02*
Y1299347D01*
G54D12*
X1301282Y1259722D02*
Y1290722D01*
G54D13*
X1290907Y1251097D02*
Y1299347D01*
X1311657Y1251097D02*
Y1299347D01*
G54D12*
X1332778Y1259722D02*
Y1290722D01*
G54D13*
X1322403Y1251097D02*
Y1299347D01*
X1343153Y1251097D02*
Y1299347D01*
G54D12*
X1364274Y1259722D02*
Y1290722D01*
G54D13*
X1353899Y1251097D02*
Y1299347D01*
X1374649Y1251097D02*
Y1299347D01*
G54D12*
X1395770Y1259722D02*
Y1290722D01*
G54D13*
X1385395Y1251097D02*
Y1299347D01*
X1406145Y1251097D02*
Y1299347D01*
G54D12*
X1427266Y1259722D02*
Y1290722D01*
G54D13*
X1416891Y1251097D02*
Y1299347D01*
X1437641Y1251097D02*
Y1299347D01*
G54D12*
X1458762Y1259722D02*
Y1290722D01*
G54D13*
X1448387Y1251097D02*
Y1299347D01*
X1469137Y1251097D02*
Y1299347D01*
G54D12*
X1490258Y1259722D02*
Y1290722D01*
G54D13*
X1479883Y1251097D02*
Y1299347D01*
X1500633Y1251097D02*
Y1299347D01*
G54D12*
X1521754Y1259722D02*
Y1290722D01*
G54D13*
X1511379Y1251097D02*
Y1299347D01*
X1532129Y1251097D02*
Y1299347D01*
G54D12*
X1553250Y1259722D02*
Y1290722D01*
G54D13*
X1542875Y1251097D02*
Y1299347D01*
X1563625Y1251097D02*
Y1299347D01*
G54D12*
X1838951Y3112817D02*
X1852201D01*
G54D13*
X1830326Y3123192D02*
X1860826D01*
X1830326Y3102442D02*
X1860826D01*
G54D12*
X1838951Y3152187D02*
X1852201D01*
G54D13*
X1830326Y3162562D02*
X1860826D01*
X1830326Y3141812D02*
X1860826D01*
G54D29*
X1969592Y1341333D02*
Y1382333D01*
G54D13*
X1946467Y1319958D02*
Y1403708D01*
X1992717Y1319958D02*
Y1403708D01*
G54D29*
X1727466Y1341333D02*
Y1382333D01*
G54D13*
X1704341Y1319958D02*
Y1403708D01*
X1750591Y1319958D02*
Y1403708D01*
G54D12*
X1673519Y1187620D02*
X1681019D01*
G54D13*
X1664894Y1197995D02*
X1689644D01*
X1664894Y1177245D02*
X1689644D01*
G54D12*
X1673519Y1152187D02*
X1681019D01*
G54D13*
X1664894Y1162562D02*
X1689644D01*
X1664894Y1141812D02*
X1689644D01*
G54D12*
X1059159Y1077649D02*
Y1090899D01*
G54D13*
X1048784Y1069024D02*
Y1099524D01*
X1069534Y1069024D02*
Y1099524D01*
G54D12*
X1098529Y1077649D02*
Y1090899D01*
G54D13*
X1088154Y1069024D02*
Y1099524D01*
X1108904Y1069024D02*
Y1099524D01*
G54D12*
X892101Y733723D02*
X905351D01*
G54D13*
X883476Y744098D02*
X913976D01*
X883476Y723348D02*
X913976D01*
G54D12*
X892101Y694352D02*
X905351D01*
G54D13*
X883476Y704727D02*
X913976D01*
X883476Y683977D02*
X913976D01*
G54D19*
X950124Y523644D02*
X969374D01*
G54D13*
X939624Y535894D02*
X979874D01*
X939624Y511394D02*
X979874D01*
G54D19*
X950124Y578762D02*
X969374D01*
G54D13*
X939624Y591012D02*
X979874D01*
X939624Y566512D02*
X979874D01*
G54D30*
X928501Y2413998D02*
X959501D01*
G54D13*
X917876Y2426373D02*
X970126D01*
X917876Y2401623D02*
X970126D01*
G54D30*
X928501Y2339195D02*
X959501D01*
G54D13*
X917876Y2351570D02*
X970126D01*
X917876Y2326820D02*
X970126D01*
G54D30*
X1008423Y2376597D02*
X1039423D01*
G54D13*
X997798Y2388972D02*
X1050048D01*
X997798Y2364222D02*
X1050048D01*
G54D12*
X852036Y769291D02*
X865286D01*
G54D13*
X843411Y779666D02*
X873911D01*
X843411Y758916D02*
X873911D01*
G54D12*
X852036Y808661D02*
X865286D01*
G54D13*
X843411Y819036D02*
X873911D01*
X843411Y798286D02*
X873911D01*
G54D20*
X1791442Y727270D02*
Y754270D01*
G54D13*
X1772192Y709770D02*
Y771770D01*
X1810692Y709770D02*
Y771770D01*
G54D20*
X1720576Y727270D02*
Y754270D01*
G54D13*
X1701326Y709770D02*
Y771770D01*
X1739826Y709770D02*
Y771770D01*
G54D12*
X1396757Y540641D02*
Y553891D01*
G54D13*
X1386382Y532016D02*
Y562516D01*
X1407132Y532016D02*
Y562516D01*
G54D12*
X1436127Y540641D02*
Y553891D01*
G54D13*
X1425752Y532016D02*
Y562516D01*
X1446502Y532016D02*
Y562516D01*
G54D19*
X833765Y3230726D02*
Y3249976D01*
G54D13*
X821515Y3220226D02*
Y3260476D01*
X846015Y3220226D02*
Y3260476D01*
G54D19*
X778647Y3230726D02*
Y3249976D01*
G54D13*
X766397Y3220226D02*
Y3260476D01*
X790897Y3220226D02*
Y3260476D01*
G54D12*
X1773726Y3168200D02*
Y3181450D01*
G54D13*
X1763351Y3159575D02*
Y3190075D01*
X1784101Y3159575D02*
Y3190075D01*
G54D12*
X1813096Y3168200D02*
Y3181450D01*
G54D13*
X1802721Y3159575D02*
Y3190075D01*
X1823471Y3159575D02*
Y3190075D01*
G54D12*
X1702466Y643003D02*
Y656253D01*
G54D13*
X1692091Y634378D02*
Y664878D01*
X1712841Y634378D02*
Y664878D01*
G54D12*
X1741836Y643003D02*
Y656253D01*
G54D13*
X1731461Y634378D02*
Y664878D01*
X1752211Y634378D02*
Y664878D01*
G54D12*
X1818520Y600638D02*
Y613888D01*
G54D13*
X1808145Y592013D02*
Y622513D01*
X1828895Y592013D02*
Y622513D01*
G54D12*
X1779150Y600638D02*
Y613888D01*
G54D13*
X1768775Y592013D02*
Y622513D01*
X1789525Y592013D02*
Y622513D01*
G54D12*
X1540723Y3278171D02*
X1553973D01*
G54D13*
X1532098Y3288546D02*
X1562598D01*
X1532098Y3267796D02*
X1562598D01*
G54D12*
X1540723Y3238801D02*
X1553973D01*
G54D13*
X1532098Y3249176D02*
X1562598D01*
X1532098Y3228426D02*
X1562598D01*
G54D12*
X1913754Y3112899D02*
X1927004D01*
G54D13*
X1905129Y3123274D02*
X1935629D01*
X1905129Y3102524D02*
X1935629D01*
G54D12*
X1913754Y3073528D02*
X1927004D01*
G54D13*
X1905129Y3083903D02*
X1935629D01*
X1905129Y3063153D02*
X1935629D01*
G54D12*
X948296Y2120275D02*
X961546D01*
G54D13*
X939671Y2130650D02*
X970171D01*
X939671Y2109900D02*
X970171D01*
G54D12*
X948296Y2080905D02*
X961546D01*
G54D13*
X939671Y2091280D02*
X970171D01*
X939671Y2070530D02*
X970171D01*
G54D27*
X462583Y2464630D02*
X522583D01*
G54D28*
X448583Y2124378D02*
X536583D01*
G54D31*
X1780100Y1143329D02*
X1783100D01*
G54D15*
X1759350Y1165579D02*
X1803850D01*
X1759350Y1121079D02*
X1803850D01*
G54D31*
X1925769Y1143329D02*
X1928769D01*
G54D15*
X1905019Y1165579D02*
X1949519D01*
X1905019Y1121079D02*
X1949519D01*
G54D19*
X1571587Y2100239D02*
Y2119489D01*
G54D13*
X1559337Y2089739D02*
Y2129989D01*
X1583837Y2089739D02*
Y2129989D01*
G54D19*
X1516469Y2100239D02*
Y2119489D01*
G54D13*
X1504219Y2089739D02*
Y2129989D01*
X1528719Y2089739D02*
Y2129989D01*
G54D12*
X1335734Y1159342D02*
Y1172592D01*
G54D13*
X1325359Y1150717D02*
Y1181217D01*
X1346109Y1150717D02*
Y1181217D01*
G54D12*
X1375104Y1159342D02*
Y1172592D01*
G54D13*
X1364729Y1150717D02*
Y1181217D01*
X1385479Y1150717D02*
Y1181217D01*
G54D29*
X1726983Y927502D02*
Y968502D01*
G54D13*
X1703858Y906127D02*
Y989877D01*
X1750108Y906127D02*
Y989877D01*
G54D29*
X1969109Y927502D02*
Y968502D01*
G54D13*
X1945984Y906127D02*
Y989877D01*
X1992234Y906127D02*
Y989877D01*
G54D12*
X1099213Y1000462D02*
Y1013712D01*
G54D13*
X1088838Y991837D02*
Y1022337D01*
X1109588Y991837D02*
Y1022337D01*
G54D12*
X1059843Y1000462D02*
Y1013712D01*
G54D13*
X1049468Y991837D02*
Y1022337D01*
X1070218Y991837D02*
Y1022337D01*
G54D20*
X1516469Y1831404D02*
Y1858404D01*
G54D13*
X1497219Y1813904D02*
Y1875904D01*
X1535719Y1813904D02*
Y1875904D01*
G54D20*
X1587336Y1831404D02*
Y1858404D01*
G54D13*
X1568086Y1813904D02*
Y1875904D01*
X1606586Y1813904D02*
Y1875904D01*
G54D12*
X1162486Y3109864D02*
X1175736D01*
G54D13*
X1153861Y3120239D02*
X1184361D01*
X1153861Y3099489D02*
X1184361D01*
G54D12*
X1162486Y3149234D02*
X1175736D01*
G54D13*
X1153861Y3159609D02*
X1184361D01*
X1153861Y3138859D02*
X1184361D01*
G54D32*
X2538564Y753663D02*
X2541564D01*
G54D15*
X2509939Y783788D02*
X2570189D01*
X2509939Y723538D02*
X2570189D01*
G54D12*
X1529896Y3019313D02*
X1543146D01*
G54D13*
X1521271Y3029688D02*
X1551771D01*
X1521271Y3008938D02*
X1551771D01*
G54D12*
X1529896Y2979943D02*
X1543146D01*
G54D13*
X1521271Y2990318D02*
X1551771D01*
X1521271Y2969568D02*
X1551771D01*
G54D12*
X1171628Y2345101D02*
X1184878D01*
G54D13*
X1163003Y2355476D02*
X1193503D01*
X1163003Y2334726D02*
X1193503D01*
G54D12*
X1171628Y2305730D02*
X1184878D01*
G54D13*
X1163003Y2316105D02*
X1193503D01*
X1163003Y2295355D02*
X1193503D01*
G54D33*
X852312Y3100980D02*
X864312D01*
G54D15*
X847187Y3107605D02*
X869437D01*
X847187Y3094355D02*
X869437D01*
G54D33*
X852312Y3120665D02*
X864312D01*
G54D15*
X847187Y3127290D02*
X869437D01*
X847187Y3114040D02*
X869437D01*
G54D33*
X852312Y3140351D02*
X864312D01*
G54D15*
X847187Y3146976D02*
X869437D01*
X847187Y3133726D02*
X869437D01*
G54D33*
X852312Y3160036D02*
X864312D01*
G54D15*
X847187Y3166661D02*
X869437D01*
X847187Y3153411D02*
X869437D01*
G54D33*
X831497Y3161008D02*
Y3173008D01*
G54D15*
X824872Y3155883D02*
Y3178133D01*
X838122Y3155883D02*
Y3178133D01*
G54D33*
X811812Y3161008D02*
Y3173008D01*
G54D15*
X805187Y3155883D02*
Y3178133D01*
X818437Y3155883D02*
Y3178133D01*
G54D33*
X792127Y3161008D02*
Y3173008D01*
G54D15*
X785502Y3155883D02*
Y3178133D01*
X798752Y3155883D02*
Y3178133D01*
G54D33*
X759312Y3160036D02*
X771312D01*
G54D15*
X754187Y3166661D02*
X776437D01*
X754187Y3153411D02*
X776437D01*
G54D33*
X759312Y3140351D02*
X771312D01*
G54D15*
X754187Y3146976D02*
X776437D01*
X754187Y3133726D02*
X776437D01*
G54D33*
X759312Y3120665D02*
X771312D01*
G54D15*
X754187Y3127290D02*
X776437D01*
X754187Y3114040D02*
X776437D01*
G54D33*
X759312Y3100980D02*
X771312D01*
G54D15*
X754187Y3107605D02*
X776437D01*
X754187Y3094355D02*
X776437D01*
G54D33*
X792127Y3088008D02*
Y3100008D01*
G54D15*
X785502Y3082883D02*
Y3105133D01*
X798752Y3082883D02*
Y3105133D01*
G54D33*
X811812Y3088008D02*
Y3100008D01*
G54D15*
X805187Y3082883D02*
Y3105133D01*
X818437Y3082883D02*
Y3105133D01*
G54D33*
X831497Y3088008D02*
Y3100008D01*
G54D15*
X824872Y3082883D02*
Y3105133D01*
X838122Y3082883D02*
Y3105133D01*
G54D27*
X463253Y1079864D02*
X523253D01*
G54D28*
X449253Y739612D02*
X537253D01*
G54D19*
X1611509Y2158880D02*
X1650509D01*
G54D13*
X1601009Y2171130D02*
X1661009D01*
X1601009Y2146630D02*
X1661009D01*
G54D19*
X1611509Y2208880D02*
X1650509D01*
G54D13*
X1601009Y2221130D02*
X1661009D01*
X1601009Y2196630D02*
X1661009D01*
G54D19*
X1611509Y2258880D02*
X1650509D01*
G54D13*
X1601009Y2271130D02*
X1661009D01*
X1601009Y2246630D02*
X1661009D01*
G54D19*
X1611509Y2308880D02*
X1650509D01*
G54D13*
X1601009Y2321130D02*
X1661009D01*
X1601009Y2296630D02*
X1661009D01*
G54D19*
X1383163Y2308880D02*
X1422163D01*
G54D13*
X1372663Y2321130D02*
X1432663D01*
X1372663Y2296630D02*
X1432663D01*
G54D19*
X1383163Y2258880D02*
X1422163D01*
G54D13*
X1372663Y2271130D02*
X1432663D01*
X1372663Y2246630D02*
X1432663D01*
G54D19*
X1383163Y2208880D02*
X1422163D01*
G54D13*
X1372663Y2221130D02*
X1432663D01*
X1372663Y2196630D02*
X1432663D01*
G54D19*
X1383163Y2158880D02*
X1422163D01*
G54D13*
X1372663Y2171130D02*
X1432663D01*
X1372663Y2146630D02*
X1432663D01*
G54D12*
X1501353Y3278171D02*
X1514603D01*
G54D13*
X1492728Y3288546D02*
X1523228D01*
X1492728Y3267796D02*
X1523228D01*
G54D12*
X1501353Y3238801D02*
X1514603D01*
G54D13*
X1492728Y3249176D02*
X1523228D01*
X1492728Y3228426D02*
X1523228D01*
G54D21*
X1707032Y2012420D02*
X1734032D01*
G54D13*
X1684657Y2036545D02*
X1756407D01*
X1684657Y1988295D02*
X1756407D01*
G54D21*
X1959000Y2012420D02*
X1986000D01*
G54D13*
X1936625Y2036545D02*
X2008375D01*
X1936625Y1988295D02*
X2008375D01*
G54D12*
X1818520Y642961D02*
Y656211D01*
G54D13*
X1808145Y634336D02*
Y664836D01*
X1828895Y634336D02*
Y664836D01*
G54D12*
X1779150Y642961D02*
Y656211D01*
G54D13*
X1768775Y634336D02*
Y664836D01*
X1789525Y634336D02*
Y664836D01*
G54D12*
X1985605Y3112899D02*
X1998855D01*
G54D13*
X1976980Y3123274D02*
X2007480D01*
X1976980Y3102524D02*
X2007480D01*
G54D12*
X1985605Y3073528D02*
X1998855D01*
G54D13*
X1976980Y3083903D02*
X2007480D01*
X1976980Y3063153D02*
X2007480D01*
G54D19*
X882978Y616381D02*
Y635631D01*
G54D13*
X870728Y605881D02*
Y646131D01*
X895228Y605881D02*
Y646131D01*
G54D19*
X845576Y616381D02*
Y635631D01*
G54D13*
X833326Y605881D02*
Y646131D01*
X857826Y605881D02*
Y646131D01*
G54D19*
X808174Y616381D02*
Y635631D01*
G54D13*
X795924Y605881D02*
Y646131D01*
X820424Y605881D02*
Y646131D01*
G54D19*
X808174Y514019D02*
Y533269D01*
G54D13*
X795924Y503519D02*
Y543769D01*
X820424Y503519D02*
Y543769D01*
G54D19*
X882978Y514019D02*
Y533269D01*
G54D13*
X870728Y503519D02*
Y543769D01*
X895228Y503519D02*
Y543769D01*
G54D12*
X1702470Y601664D02*
Y614914D01*
G54D13*
X1692095Y593039D02*
Y623539D01*
X1712845Y593039D02*
Y623539D01*
G54D12*
X1741840Y601664D02*
Y614914D01*
G54D13*
X1731465Y593039D02*
Y623539D01*
X1752215Y593039D02*
Y623539D01*
G54D12*
X1324907Y540641D02*
Y553891D01*
G54D13*
X1314532Y532016D02*
Y562516D01*
X1335282Y532016D02*
Y562516D01*
G54D12*
X1364277Y540641D02*
Y553891D01*
G54D13*
X1353902Y532016D02*
Y562516D01*
X1374652Y532016D02*
Y562516D01*
G54D12*
X1888402Y600638D02*
Y613888D01*
G54D13*
X1878027Y592013D02*
Y622513D01*
X1898777Y592013D02*
Y622513D01*
G54D12*
X1849032Y600638D02*
Y613888D01*
G54D13*
X1838657Y592013D02*
Y622513D01*
X1859407Y592013D02*
Y622513D01*
G54D12*
X1381074Y3149228D02*
X1394324D01*
G54D13*
X1372449Y3159603D02*
X1402949D01*
X1372449Y3138853D02*
X1402949D01*
G54D12*
X1381074Y3109858D02*
X1394324D01*
G54D13*
X1372449Y3120233D02*
X1402949D01*
X1372449Y3099483D02*
X1402949D01*
G54D21*
X641131Y1671655D02*
X668131D01*
G54D13*
X618756Y1695780D02*
X690506D01*
X618756Y1647530D02*
X690506D01*
G54D21*
X641131Y1781891D02*
X668131D01*
G54D13*
X618756Y1806016D02*
X690506D01*
X618756Y1757766D02*
X690506D01*
G54D12*
X1339935Y2049628D02*
X1353185D01*
G54D13*
X1331310Y2060003D02*
X1361810D01*
X1331310Y2039253D02*
X1361810D01*
G54D12*
X1339935Y2010258D02*
X1353185D01*
G54D13*
X1331310Y2020633D02*
X1361810D01*
X1331310Y1999883D02*
X1361810D01*
G54D12*
X1952860Y3145562D02*
Y3158812D01*
G54D13*
X1942485Y3136937D02*
Y3167437D01*
X1963235Y3136937D02*
Y3167437D01*
G54D12*
X1992230Y3145562D02*
Y3158812D01*
G54D13*
X1981855Y3136937D02*
Y3167437D01*
X2002605Y3136937D02*
Y3167437D01*
G54D12*
X1667691Y721085D02*
X1680941D01*
G54D13*
X1659066Y731460D02*
X1689566D01*
X1659066Y710710D02*
X1689566D01*
G54D12*
X1667691Y760455D02*
X1680941D01*
G54D13*
X1659066Y770830D02*
X1689566D01*
X1659066Y750080D02*
X1689566D01*
G54D12*
X1099213Y956761D02*
Y970011D01*
G54D13*
X1088838Y948136D02*
Y978636D01*
X1109588Y948136D02*
Y978636D01*
G54D12*
X1059843Y956761D02*
Y970011D01*
G54D13*
X1049468Y948136D02*
Y978636D01*
X1070218Y948136D02*
Y978636D01*
G54D12*
X1638164Y3237817D02*
X1651414D01*
G54D13*
X1629539Y3248192D02*
X1660039D01*
X1629539Y3227442D02*
X1660039D01*
G54D12*
X1638164Y3277187D02*
X1651414D01*
G54D13*
X1629539Y3287562D02*
X1660039D01*
X1629539Y3266812D02*
X1660039D01*
G54D34*
X1065065Y1317836D02*
Y1358586D01*
G54D13*
X1055690Y1310211D02*
Y1366211D01*
X1074440Y1310211D02*
Y1366211D01*
G54D34*
X1039474Y1317836D02*
Y1358586D01*
G54D13*
X1030099Y1310211D02*
Y1366211D01*
X1048849Y1310211D02*
Y1366211D01*
G54D34*
X1013884Y1317836D02*
Y1358586D01*
G54D13*
X1004509Y1310211D02*
Y1366211D01*
X1023259Y1310211D02*
Y1366211D01*
G54D34*
X988293Y1317836D02*
Y1358586D01*
G54D13*
X978918Y1310211D02*
Y1366211D01*
X997668Y1310211D02*
Y1366211D01*
G54D34*
X988293Y1144607D02*
Y1185357D01*
G54D13*
X978918Y1136982D02*
Y1192982D01*
X997668Y1136982D02*
Y1192982D01*
G54D34*
X1013884Y1144607D02*
Y1185357D01*
G54D13*
X1004509Y1136982D02*
Y1192982D01*
X1023259Y1136982D02*
Y1192982D01*
G54D34*
X1039474Y1144607D02*
Y1185357D01*
G54D13*
X1030099Y1136982D02*
Y1192982D01*
X1048849Y1136982D02*
Y1192982D01*
G54D34*
X1065065Y1144607D02*
Y1185357D01*
G54D13*
X1055690Y1136982D02*
Y1192982D01*
X1074440Y1136982D02*
Y1192982D01*
G54D12*
X1252965Y3103539D02*
X1266215D01*
G54D13*
X1244340Y3113914D02*
X1274840D01*
X1244340Y3093164D02*
X1274840D01*
G54D12*
X1252965Y3142910D02*
X1266215D01*
G54D13*
X1244340Y3153285D02*
X1274840D01*
X1244340Y3132535D02*
X1274840D01*
G54D12*
X1531788Y3123913D02*
Y3137163D01*
G54D13*
X1521413Y3115288D02*
Y3145788D01*
X1542163Y3115288D02*
Y3145788D01*
G54D12*
X1492418Y3123913D02*
Y3137163D01*
G54D13*
X1482043Y3115288D02*
Y3145788D01*
X1502793Y3115288D02*
Y3145788D01*
G54D16*
X1006461Y2155140D02*
X1027211D01*
G54D15*
X1001461Y2161640D02*
X1032211D01*
X1001461Y2148640D02*
X1032211D01*
G54D16*
X1006461Y2174825D02*
X1027211D01*
G54D15*
X1001461Y2181325D02*
X1032211D01*
X1001461Y2168325D02*
X1032211D01*
G54D16*
X1006461Y2194510D02*
X1027211D01*
G54D15*
X1001461Y2201010D02*
X1032211D01*
X1001461Y2188010D02*
X1032211D01*
G54D17*
X1005961Y2214195D02*
X1027711D01*
G54D18*
X1001586Y2220570D02*
X1032086D01*
X1001586Y2207820D02*
X1032086D01*
G54D16*
X888351Y2214195D02*
X909101D01*
G54D15*
X883351Y2220695D02*
X914101D01*
X883351Y2207695D02*
X914101D01*
G54D16*
X888351Y2194510D02*
X909101D01*
G54D15*
X883351Y2201010D02*
X914101D01*
X883351Y2188010D02*
X914101D01*
G54D16*
X888351Y2174825D02*
X909101D01*
G54D15*
X883351Y2181325D02*
X914101D01*
X883351Y2168325D02*
X914101D01*
G54D16*
X888351Y2155140D02*
X909101D01*
G54D15*
X883351Y2161640D02*
X914101D01*
X883351Y2148640D02*
X914101D01*
G54D14*
X1219592Y2248142D02*
Y2280642D01*
G54D15*
X1211092Y2241142D02*
Y2287642D01*
X1228092Y2241142D02*
Y2287642D01*
G54D14*
X1245182Y2248142D02*
Y2280642D01*
G54D15*
X1236682Y2241142D02*
Y2287642D01*
X1253682Y2241142D02*
Y2287642D01*
G54D14*
X1270773Y2248142D02*
Y2280642D01*
G54D15*
X1262273Y2241142D02*
Y2287642D01*
X1279273Y2241142D02*
Y2287642D01*
G54D14*
X1270773Y2328851D02*
Y2361351D01*
G54D15*
X1262273Y2321851D02*
Y2368351D01*
X1279273Y2321851D02*
Y2368351D01*
G54D14*
X1219592Y2328851D02*
Y2361351D01*
G54D15*
X1211092Y2321851D02*
Y2368351D01*
X1228092Y2321851D02*
Y2368351D01*
G54D19*
X1635164Y1851006D02*
X1654414D01*
G54D13*
X1624664Y1863256D02*
X1664914D01*
X1624664Y1838756D02*
X1664914D01*
G54D19*
X1635164Y1795888D02*
X1654414D01*
G54D13*
X1624664Y1808138D02*
X1664914D01*
X1624664Y1783638D02*
X1664914D01*
G54D12*
X1101575Y731958D02*
Y745208D01*
G54D13*
X1091200Y723333D02*
Y753833D01*
X1111950Y723333D02*
Y753833D01*
G54D12*
X1062205Y731958D02*
Y745208D01*
G54D13*
X1051830Y723333D02*
Y753833D01*
X1072580Y723333D02*
Y753833D01*
G54D12*
X892101Y1596006D02*
X905351D01*
G54D13*
X883476Y1606381D02*
X913976D01*
X883476Y1585631D02*
X913976D01*
G54D12*
X892101Y1556636D02*
X905351D01*
G54D13*
X883476Y1567011D02*
X913976D01*
X883476Y1546261D02*
X913976D01*
G54D21*
X641131Y976773D02*
X668131D01*
G54D13*
X618756Y1000898D02*
X690506D01*
X618756Y952648D02*
X690506D01*
G54D21*
X641131Y1087010D02*
X668131D01*
G54D13*
X618756Y1111135D02*
X690506D01*
X618756Y1062885D02*
X690506D01*
G54D12*
X1675507Y2402561D02*
X1688757D01*
G54D13*
X1666882Y2412936D02*
X1697382D01*
X1666882Y2392186D02*
X1697382D01*
G54D12*
X1675507Y2441931D02*
X1688757D01*
G54D13*
X1666882Y2452306D02*
X1697382D01*
X1666882Y2431556D02*
X1697382D01*
G54D19*
X1223529Y1834491D02*
Y1853741D01*
G54D13*
X1211279Y1823991D02*
Y1864241D01*
X1235779Y1823991D02*
Y1864241D01*
G54D19*
X1168411Y1834491D02*
Y1853741D01*
G54D13*
X1156161Y1823991D02*
Y1864241D01*
X1180661Y1823991D02*
Y1864241D01*
G54D12*
X865261Y465838D02*
Y479088D01*
G54D13*
X854886Y457213D02*
Y487713D01*
X875636Y457213D02*
Y487713D01*
G54D12*
X825891Y465838D02*
Y479088D01*
G54D13*
X815516Y457213D02*
Y487713D01*
X836266Y457213D02*
Y487713D01*
G54D12*
X1773726Y3207570D02*
Y3220820D01*
G54D13*
X1763351Y3198945D02*
Y3229445D01*
X1784101Y3198945D02*
Y3229445D01*
G54D12*
X1813096Y3207570D02*
Y3220820D01*
G54D13*
X1802721Y3198945D02*
Y3229445D01*
X1823471Y3198945D02*
Y3229445D01*
G54D35*
X1431316Y3208669D03*
X2040064Y2353663D03*
X2115711Y1453663D03*
X1354348Y3208669D03*
X2040064Y1353663D03*
Y2053663D03*
X2115711Y1253663D03*
Y753663D03*
Y953663D03*
X2040064Y2253663D03*
X2113835Y2153663D03*
X2114730Y2353663D03*
X2115711Y853663D03*
X2040064Y1953663D03*
Y1753663D03*
X2113835Y1853663D03*
X2040064Y2453663D03*
X2115711Y1353663D03*
X2114730Y2253663D03*
X2040064Y1153663D03*
X2113835Y1753663D03*
X2040064Y1653663D03*
X2115711Y1053663D03*
G54D36*
X2440064Y753663D03*
X2540064Y853663D03*
X2440064D03*
X2540064Y953663D03*
X2440064D03*
X2540064Y1053663D03*
X2440064D03*
X2540064Y1153663D03*
X2440064D03*
X2540064Y1253663D03*
X2440064D03*
X2540064Y1353663D03*
X2440064D03*
X2540064Y1453663D03*
X2440064D03*
X2540064Y1553663D03*
X2440064D03*
X2540064Y1653663D03*
X2440064D03*
X2540064Y1753663D03*
X2440064D03*
X2540064Y1853663D03*
X2440064D03*
X2540064Y1953663D03*
X2440064D03*
X2540064Y2053663D03*
X2440064D03*
X2540064Y2153663D03*
X2440064D03*
X2540064Y2253663D03*
X2440064D03*
X2540064Y2353663D03*
X2440064D03*
X2540064Y2453663D03*
X2440064D03*
G54D35*
X2115711Y1553663D03*
X2040064Y953663D03*
Y1853663D03*
Y1253663D03*
Y1453663D03*
X2039962Y1552752D03*
X2040064Y753663D03*
X2113679Y2453663D03*
X2040064Y1053663D03*
X2040552Y853539D03*
X2040064Y2153663D03*
X2115711Y1653663D03*
X2113835Y2053663D03*
Y1953663D03*
X2115711Y1153663D03*
G54D37*
X2155513Y2914563D03*
X2065356D03*
X821261D03*
G54D38*
X731204Y2914469D03*
G54D37*
X2088190Y3107477D03*
X2087993Y3264957D03*
G54D39*
X157497Y3306780D03*
Y393394D03*
X3149623Y3306780D03*
Y393394D03*
G54D40*
X157497Y3306780D03*
Y393394D03*
X3149623Y3306780D03*
Y393394D03*
%LPC*%
G75*
X3149623Y393394D02*
G54D41*
X1247150Y616540D02*
Y676024D01*
X1266836Y616540D02*
Y676024D01*
X1286520Y616540D02*
Y676024D01*
X1306206Y616540D02*
Y676024D01*
X1325891Y616541D02*
Y676023D01*
X1345576Y616540D02*
Y676024D01*
X1365262Y616540D02*
Y676024D01*
X1384947Y616540D02*
Y676024D01*
X1404631Y616540D02*
Y676024D01*
X1424317Y616540D02*
Y676024D01*
X1444001Y616540D02*
Y676024D01*
X1463687Y616540D02*
Y676024D01*
X1483372Y616540D02*
Y676024D01*
X1503056Y616540D02*
Y676024D01*
X1522742Y616540D02*
Y676024D01*
X1646972Y740769D02*
X1587488D01*
X1646972Y760454D02*
X1587488D01*
X1646972Y780139D02*
X1587488D01*
X1646972Y799824D02*
X1587488D01*
X1646972Y819509D02*
X1587488D01*
X1646971Y839195D02*
X1587489D01*
X1646972Y858880D02*
X1587488D01*
X1646972Y878565D02*
X1587488D01*
X1646972Y898250D02*
X1587488D01*
X1646972Y917935D02*
X1587488D01*
X1646972Y937620D02*
X1587488D01*
X1646972Y957305D02*
X1587488D01*
X1646972Y976990D02*
X1587488D01*
X1646972Y996675D02*
X1587488D01*
X1646972Y1016360D02*
X1587488D01*
X1522742Y1140591D02*
Y1081107D01*
X1503056Y1140591D02*
Y1081107D01*
X1483372Y1140591D02*
Y1081107D01*
X1463687Y1140591D02*
Y1081107D01*
X1444001Y1140591D02*
Y1081107D01*
X1424317Y1140591D02*
Y1081107D01*
X1404631Y1140591D02*
Y1081107D01*
X1384947Y1140591D02*
Y1081107D01*
X1365262Y1140591D02*
Y1081107D01*
X1345576Y1140591D02*
Y1081107D01*
X1325891Y1140590D02*
Y1081108D01*
X1306206Y1140591D02*
Y1081107D01*
X1286520Y1140591D02*
Y1081107D01*
X1266836Y1140591D02*
Y1081107D01*
X1247150Y1140591D02*
Y1081107D01*
X1122921Y1016360D02*
X1182405D01*
X1122921Y996675D02*
X1182405D01*
X1122921Y976990D02*
X1182405D01*
X1122921Y957305D02*
X1182405D01*
X1122921Y937620D02*
X1182405D01*
X1122921Y917935D02*
X1182405D01*
X1122921Y898250D02*
X1182405D01*
X1122921Y878565D02*
X1182405D01*
X1122921Y858880D02*
X1182405D01*
X1122922Y839195D02*
X1182404D01*
X1122921Y819509D02*
X1182405D01*
X1122921Y799824D02*
X1182405D01*
X1122921Y780139D02*
X1182405D01*
X1122921Y760454D02*
X1182405D01*
X1122921Y740769D02*
X1182405D01*
X1826876Y3033466D02*
Y3063034D01*
X1031828Y1472974D02*
X1001844D01*
X1031828Y1492659D02*
X1001844D01*
X1031828Y1512344D02*
X1001844D01*
X883734D02*
X913718D01*
X883734Y1492659D02*
X913718D01*
X883734Y1472974D02*
X913718D01*
X1757015Y2131517D02*
X1727445D01*
X1031828Y779982D02*
X1001844D01*
X1031828Y799667D02*
X1001844D01*
X1031828Y819352D02*
X1001844D01*
X883734D02*
X913718D01*
X883734Y799667D02*
X913718D01*
X883734Y779982D02*
X913718D01*
X1783666Y3156117D02*
X1763896D01*
X1823036D02*
X1803266D01*
X1560808Y3153176D02*
X1589792D01*
X1560808Y3133491D02*
X1589792D01*
X1560808Y3113806D02*
X1589792D01*
X1560808Y3094121D02*
X1589792D01*
X1623136Y3031795D02*
Y3060779D01*
X1642820Y3031795D02*
Y3060779D01*
X1662506Y3031795D02*
Y3060779D01*
X1682191Y3031795D02*
Y3060779D01*
X1744517Y3094121D02*
X1715533D01*
X1744517Y3113806D02*
X1715533D01*
X1744517Y3133491D02*
X1715533D01*
X1744517Y3153176D02*
X1715533D01*
X1682191Y3215503D02*
Y3186519D01*
X1662506Y3215503D02*
Y3186519D01*
X1642820Y3215503D02*
Y3186519D01*
X1623136Y3215503D02*
Y3186519D01*
X1860824Y3099522D02*
X1830328D01*
X1685122Y2131517D02*
X1714692D01*
X868929Y3110822D02*
X847695D01*
X868928Y3130508D02*
X847696D01*
X868929Y3150193D02*
X847695D01*
X821655Y3177625D02*
Y3156391D01*
X801969Y3177625D02*
Y3156391D01*
X754695Y3150193D02*
X775929D01*
X754696Y3130508D02*
X775928D01*
X754695Y3110822D02*
X775929D01*
X801969Y3083391D02*
Y3104625D01*
X821655Y3083391D02*
Y3104625D01*
X1052269Y1365848D02*
Y1310574D01*
X1026679Y1365848D02*
Y1310574D01*
X1001088Y1365848D02*
Y1310574D01*
Y1137345D02*
Y1192619D01*
X1026679Y1137345D02*
Y1192619D01*
X1052269Y1137345D02*
Y1192619D01*
X1031828Y2164982D02*
X1001844D01*
X1031828Y2184667D02*
X1001844D01*
X1031828Y2204352D02*
X1001844D01*
X883734D02*
X913718D01*
X883734Y2184667D02*
X913718D01*
X883734Y2164982D02*
X913718D01*
G54D42*
X1826950Y3167560D02*
Y3029325D01*
X1392568Y2951307D02*
X1517582D01*
%LPD*%
G75*
X1517582Y2951307D02*
G36*
X701575Y1183260D02*
X738343D01*
Y1343304D01*
X701592D01*
Y1875388D01*
X738359D01*
Y2035445D01*
X701597D01*
Y2604793D01*
X827953D01*
Y2043330D01*
X809449D01*
X809434Y1867540D01*
X827953Y1867502D01*
Y1351209D01*
X809359Y1351168D01*
X809344Y1175410D01*
X827953Y1175372D01*
Y685680D01*
X701575D01*
Y1183260D01*
G37*
G36*
X1107600Y2879867D02*
X1118409Y2879866D01*
G03X1144472Y2905929I-4J26067D01*
G01X1144452Y2936266D01*
X1742278D01*
X1742244Y2905978D01*
G03X1768308Y2879917I26063J2D01*
G01X1779119Y2879916D01*
Y2541538D01*
X1742309D01*
Y2518315D01*
X1144434D01*
Y2541538D01*
X1107600D01*
Y2879867D01*
G37*
G36*
X2147010Y2604804D02*
X2386319D01*
Y630355D01*
X2147010D01*
Y2604804D01*
G37*
M02*
