*
%FSLAX26Y26*%
%MOIN*%
%ADD10C,0.007874*%
%ADD11C,0.015748*%
%IPPOS*%
%LN052s8c64709a.drl*%
%LPD*%
G75*
G54D10*
X2148718Y3119693D03*
X2168403D03*
X2188088D03*
X2207773D03*
X2227458D03*
X637812Y1712606D03*
X640175Y2423236D03*
X644899Y1012606D03*
X665765Y2423236D03*
X667537Y1712606D03*
X668324Y1012803D03*
X767812Y645087D03*
X810135Y559063D03*
X812025Y3043512D03*
X844505Y3061228D03*
X859348Y3218906D03*
X865568Y1898433D03*
X867143Y663394D03*
X888875Y472449D03*
X892143Y1194299D03*
X894702Y1357803D03*
X895726Y839102D03*
X896749Y1256425D03*
X898718Y2229732D03*
Y1538000D03*
X899033Y2295677D03*
Y1628354D03*
X906513Y1225205D03*
X911238Y626189D03*
X919112Y1990559D03*
X920371Y1122331D03*
X924820Y808669D03*
X927970Y1830913D03*
X933088Y3021268D03*
X933482Y770480D03*
X944702Y1483276D03*
X948049Y2505913D03*
X948836Y2173039D03*
X971552Y1483788D03*
X972655Y2172449D03*
X979426Y641347D03*
X983875Y781504D03*
X1006986Y1901189D03*
X1012891Y1870677D03*
X1037419Y746071D03*
X1057261Y1120638D03*
X1060450Y1036622D03*
X1060568Y1054221D03*
X1071552Y2448709D03*
X1071946Y2423039D03*
X1072930Y1745480D03*
X1073915Y1772449D03*
X1079938Y829496D03*
X1091552Y920677D03*
X1092615Y1554142D03*
X1093206Y897095D03*
X1094781Y1850992D03*
X1098836Y659457D03*
X1101395Y2485835D03*
Y1145205D03*
X1101789Y2054732D03*
X1102340Y763945D03*
X1103836Y1954929D03*
X1104151Y2178748D03*
X1112300Y1443512D03*
X1113285Y1414969D03*
X1138875Y1075402D03*
X1144781Y690559D03*
X1156592Y1947252D03*
X1169112Y3082291D03*
X1180214Y651189D03*
X1188206Y1324024D03*
X1193993Y1947252D03*
X1195962Y1765362D03*
X1196946Y2418906D03*
Y2384457D03*
Y1019299D03*
X1197930Y634260D03*
X1198915Y809654D03*
Y760441D03*
Y730913D03*
X1201395Y691543D03*
X1203836Y1739772D03*
X1211710Y2005520D03*
X1217615Y2033079D03*
Y1490756D03*
Y1458276D03*
X1219584Y1134850D03*
X1224151Y3176780D03*
Y3149221D03*
Y3109850D03*
Y3082291D03*
X1226474Y858866D03*
X1240175Y1155126D03*
X1259584Y3176780D03*
Y3082291D03*
X1261631Y748236D03*
X1266356Y2493118D03*
X1268797Y1590165D03*
X1269781Y1693512D03*
X1273718Y2213197D03*
X1275135Y944772D03*
X1276789Y1150992D03*
X1277576Y1201189D03*
X1278167Y1175795D03*
X1294387Y547252D03*
X1295017Y3176780D03*
Y3149221D03*
Y3109850D03*
Y3082291D03*
X1301277Y2492134D03*
X1302261Y1317528D03*
X1304466Y847016D03*
X1306198Y1019299D03*
X1311119Y1590165D03*
X1312143Y2216228D03*
X1313088Y1526189D03*
X1316277Y937213D03*
X1320371Y1820480D03*
X1331434Y2155126D03*
X1335726Y1844102D03*
Y1192528D03*
Y1014221D03*
Y705323D03*
X1339584Y843197D03*
X1341631Y1792921D03*
X1355804Y2209063D03*
Y1954732D03*
X1374112Y1655126D03*
X1375096Y698433D03*
X1387694Y3172843D03*
X1394781Y721071D03*
Y600992D03*
X1396749Y2370480D03*
X1401671Y2455323D03*
Y2411032D03*
X1402655Y2336228D03*
X1411513Y1684654D03*
X1414112Y698433D03*
X1414466Y1199417D03*
Y1056701D03*
Y823433D03*
X1426789Y3268709D03*
X1427064Y3172843D03*
X1433167Y2336228D03*
Y978945D03*
X1455608Y998669D03*
X1456789Y2204339D03*
X1457773Y776583D03*
X1458757Y1332291D03*
X1467615Y2068512D03*
X1479426Y967134D03*
X1480411Y1035441D03*
X1492222Y2203827D03*
X1505017Y844102D03*
X1505608Y1012252D03*
X1507970Y3301780D03*
X1528639Y1376268D03*
X1531592Y986819D03*
X1547340Y3301780D03*
X1551198Y812606D03*
X1560253Y745480D03*
X1562104Y789969D03*
X1568993Y2988197D03*
X1572104Y829339D03*
X1573915Y986819D03*
X1581789Y1079339D03*
X1585726Y1413000D03*
X1586710Y3301780D03*
Y2208866D03*
X1587025Y1376268D03*
X1587340Y1350008D03*
X1587694Y1538984D03*
Y1507488D03*
Y1475992D03*
X1617222Y3237803D03*
X1623127Y684654D03*
X1626198Y1194299D03*
X1628049Y1228945D03*
Y1163984D03*
Y1135441D03*
Y641347D03*
X1639426Y2108866D03*
X1644781Y1876583D03*
X1652655Y1768315D03*
X1661159Y918591D03*
X1671395Y981976D03*
X1674308Y789969D03*
Y701386D03*
X1677261Y2237803D03*
X1691277Y1479929D03*
Y1446465D03*
X1697930Y2259457D03*
X1703088Y1463197D03*
X1705923Y1605323D03*
X1719584Y825402D03*
X1725489Y2259457D03*
X1749112Y2377567D03*
X1749230Y1239575D03*
X1751080Y3229929D03*
X1764860Y1257685D03*
X1772300Y2111819D03*
X1773718Y3021662D03*
X1790450Y1022646D03*
X1793403Y700402D03*
X1804230Y2377567D03*
X1808875Y1240362D03*
X1811119Y1283079D03*
X1833285Y1495284D03*
X1848521Y2000599D03*
X1860332Y1283079D03*
X1868285Y1585244D03*
X1870293Y1307882D03*
X1884938Y1194496D03*
X1906592Y2340165D03*
X1914466Y1797725D03*
X1914545Y1771307D03*
X1939072Y1797725D03*
X1939151Y1771307D03*
X1962694Y1797725D03*
X1962773Y1771307D03*
X1975017Y1146780D03*
X1997143Y1900008D03*
X2010923Y927567D03*
X2012104Y1220087D03*
Y1120087D03*
X2037615Y1397252D03*
X2040056Y2314850D03*
Y1509260D03*
Y708669D03*
X2040371Y802370D03*
X2040450Y2018118D03*
X2052261Y1992528D03*
X2058167Y1590953D03*
X2062104Y2189378D03*
Y819457D03*
X2064072Y2087016D03*
X2068009Y2420087D03*
Y2220087D03*
Y2120087D03*
Y1920087D03*
Y1820087D03*
Y1791740D03*
Y1720087D03*
Y1685441D03*
Y1620087D03*
Y1320087D03*
Y694890D03*
X2069308Y1875008D03*
X2069978Y1287803D03*
X2073915Y1169693D03*
X2075883Y1055520D03*
Y1029929D03*
Y1004339D03*
Y838984D03*
X2078954Y2495480D03*
X2081710Y2390953D03*
X2082891Y1487213D03*
X2083285Y1401976D03*
X2085253Y2312410D03*
X2085450Y672449D03*
G54D11*
X891159Y2501976D03*
X892734Y1159850D03*
X893324Y952370D03*
X894505Y2385047D03*
Y2329929D03*
X896671Y1855717D03*
X898718Y1702173D03*
Y1658866D03*
X917419Y523630D03*
X946946Y2023236D03*
Y1331228D03*
X1066356Y801976D03*
X1157694Y1271858D03*
X1211238Y1223630D03*
X1570962Y1587213D03*
X1677261Y947449D03*
X1677773Y1226386D03*
X1726474Y1097055D03*
X1765844Y1838197D03*
X1766828Y1761425D03*
X1799308Y1615756D03*
X1804230Y2285047D03*
X1841631D03*
X1879033Y2383473D03*
Y2285047D03*
X1940056Y1599024D03*
X1956789Y2197449D03*
X1998009Y1458276D03*
X1999820Y1170677D03*
X2014860Y603354D03*
Y503945D03*
M02*
