*
%FSLAX26Y26*%
%MOIN*%
%ADD10C,0.101181*%
%ADD11C,0.073181*%
%ADD12R,0.060241X0.060241*%
%ADD13C,0.060241*%
%ADD14C,0.032681*%
%ADD15C,0.046181*%
%ADD16C,0.046131*%
%ADD17C,0.018901*%
%ADD18C,0.009051*%
%ADD19C,0.011021*%
%ADD20C,0.011181*%
%ADD21C,0.016931*%
%ADD22C,0.020871*%
%ADD23C,0.012991*%
%ADD24C,0.061024*%
%ADD25C,0.015748*%
%ADD26C,0.004331*%
%ADD27C,0.015760*%
%ADD28C,0.040591*%
%ADD29C,0.025906*%
%ADD30C,0.006220*%
%IPPOS*%
%LN052s8c64709a.l4*%
%LPD*%
G75*
G36*
X1184573Y1947910D02*
X1185046Y1963291D01*
X1185338Y1963938D01*
X1185982Y1964193D01*
X1193392Y1964192D01*
X1193961Y1963957D01*
X1194132Y1963750D01*
X1200613Y1954053D01*
X1200744Y1953385D01*
X1200479Y1952888D01*
X1194473Y1946844D01*
X1193931Y1946616D01*
X1185501Y1946654D01*
X1184842Y1946930D01*
X1184572Y1947589D01*
X1184573Y1947910D01*
G37*
G36*
X1178225Y2387059D02*
X1183540Y2392411D01*
X1184005Y2392631D01*
X1196508Y2393878D01*
X1197192Y2393670D01*
X1197534Y2393032D01*
X1197572Y2384519D01*
X1197345Y2383968D01*
X1191290Y2377970D01*
X1190660Y2377714D01*
X1190120Y2377879D01*
X1178470Y2385734D01*
X1178077Y2386330D01*
X1178225Y2387059D01*
G37*
G36*
X2061561Y819750D02*
X2064752Y827365D01*
X2065260Y827867D01*
X2065987Y827865D01*
X2067808Y826944D01*
X2068468Y826446D01*
X2068599Y826369D01*
X2069079Y826159D01*
G03X2070816Y825583I2212J3766D01*
G01X2071070Y825506D01*
X2071451Y825312D01*
X2075891Y824608D01*
X2078634Y825042D01*
X2078929Y825031D01*
X2079701Y824846D01*
X2080247Y824450D01*
X2080393Y823933D01*
Y814626D01*
X2080133Y813998D01*
X2079647Y813734D01*
X2065893Y810754D01*
X2065221Y810876D01*
X2064850Y811317D01*
X2061564Y819161D01*
X2061561Y819750D01*
G37*
G36*
X1365458Y1658997D02*
X1369552Y1672807D01*
X1369972Y1673326D01*
X1370453Y1673447D01*
X1377830D01*
X1378445Y1673193D01*
X1378699Y1672766D01*
X1382786Y1658981D01*
X1382713Y1658288D01*
X1382243Y1657864D01*
X1374417Y1654585D01*
X1373873Y1654583D01*
X1373754Y1654613D01*
X1365979Y1657871D01*
X1365489Y1658366D01*
X1365458Y1658997D01*
G37*
G36*
X1268915Y1205046D02*
X1273008Y1218857D01*
X1273429Y1219374D01*
X1273909Y1219497D01*
X1281286D01*
X1281902Y1219241D01*
X1282156Y1218815D01*
X1286243Y1205030D01*
X1286170Y1204337D01*
X1285700Y1203913D01*
X1277874Y1200634D01*
X1277297Y1200632D01*
X1269436Y1203920D01*
X1268946Y1204415D01*
X1268915Y1205046D01*
G37*
G36*
X1578125Y3298645D02*
X1578594Y3299069D01*
X1586420Y3302348D01*
X1587009Y3302351D01*
X1594858Y3299062D01*
X1595348Y3298568D01*
X1595379Y3297936D01*
X1591286Y3284126D01*
X1590865Y3283609D01*
X1590385Y3283486D01*
X1583008D01*
X1582392Y3283742D01*
X1582138Y3284169D01*
X1578051Y3297953D01*
X1578125Y3298645D01*
G37*
G36*
X1499389Y3298641D02*
X1499859Y3299065D01*
X1507685Y3302344D01*
X1508275Y3302346D01*
X1516123Y3299058D01*
X1516613Y3298563D01*
X1516644Y3297931D01*
X1512550Y3284121D01*
X1512130Y3283603D01*
X1511649Y3283482D01*
X1504273D01*
X1503658Y3283737D01*
X1503403Y3284163D01*
X1499316Y3297948D01*
X1499389Y3298641D01*
G37*
G36*
X2067460Y1791908D02*
X2067460Y1792027D01*
X2070748Y1799874D01*
X2071243Y1800363D01*
X2071874Y1800396D01*
X2085685Y1796302D01*
X2086202Y1795882D01*
X2086325Y1795401D01*
X2086324Y1788024D01*
X2086069Y1787408D01*
X2085643Y1787154D01*
X2071857Y1783067D01*
X2071165Y1783142D01*
X2070742Y1783609D01*
X2067462Y1791436D01*
X2067460Y1791908D01*
G37*
G36*
X2067460Y1685727D02*
X2070748Y1693575D01*
X2071244Y1694065D01*
X2071874Y1694096D01*
X2085685Y1690002D01*
X2086202Y1689583D01*
X2086325Y1689102D01*
X2086324Y1681725D01*
X2086069Y1681109D01*
X2085643Y1680855D01*
X2071858Y1676768D01*
X2071165Y1676841D01*
X2070741Y1677311D01*
X2067462Y1685137D01*
X2067460Y1685727D01*
G37*
G36*
X1609750Y1167708D02*
X1610004Y1168324D01*
X1610431Y1168578D01*
X1624216Y1172665D01*
X1624908Y1172591D01*
X1625332Y1172122D01*
X1628611Y1164296D01*
X1628614Y1163689D01*
X1625325Y1155859D01*
X1624831Y1155368D01*
X1624198Y1155337D01*
X1610390Y1159431D01*
X1609872Y1159850D01*
X1609750Y1160331D01*
Y1167708D01*
G37*
G36*
Y1139165D02*
X1610004Y1139781D01*
X1610432Y1140035D01*
X1624216Y1144121D01*
X1624907Y1144048D01*
X1625332Y1143580D01*
X1628611Y1135753D01*
X1628615Y1135108D01*
X1628546Y1135001D01*
X1625325Y1127316D01*
X1624832Y1126826D01*
X1624199Y1126793D01*
X1610390Y1130887D01*
X1609872Y1131306D01*
X1609750Y1131788D01*
Y1139165D01*
G37*
G36*
X1440458Y1336017D02*
X1440714Y1336631D01*
X1441139Y1336885D01*
X1454924Y1340972D01*
X1455617Y1340899D01*
X1456041Y1340429D01*
X1459320Y1332603D01*
X1459322Y1332061D01*
X1459293Y1331942D01*
X1456034Y1324165D01*
X1455539Y1323675D01*
X1454908Y1323644D01*
X1441097Y1327738D01*
X1440580Y1328157D01*
X1440457Y1328638D01*
X1440458Y1336017D01*
G37*
G36*
X1413550Y698621D02*
X1413550Y698740D01*
X1416839Y706587D01*
X1417332Y707076D01*
X1417963Y707109D01*
X1431775Y703015D01*
X1432292Y702594D01*
X1432415Y702114D01*
Y694736D01*
X1432160Y694121D01*
X1431732Y693867D01*
X1417947Y689780D01*
X1417255Y689855D01*
X1416831Y690322D01*
X1413552Y698149D01*
X1413550Y698621D01*
G37*
G36*
X1396200Y2370648D02*
X1396200Y2370767D01*
X1399489Y2378613D01*
X1399982Y2379103D01*
X1400614Y2379136D01*
X1414424Y2375042D01*
X1414942Y2374622D01*
X1415065Y2374141D01*
Y2366763D01*
X1414810Y2366148D01*
X1414382Y2365894D01*
X1400598Y2361808D01*
X1399906Y2361881D01*
X1399481Y2362349D01*
X1396202Y2370176D01*
X1396200Y2370648D01*
G37*
G36*
X1376478Y724795D02*
X1376734Y725411D01*
X1377160Y725665D01*
X1390945Y729751D01*
X1391636Y729678D01*
X1392061Y729210D01*
X1395340Y721383D01*
X1395344Y720725D01*
X1395270Y720620D01*
X1392054Y712946D01*
X1391561Y712456D01*
X1390928Y712423D01*
X1377119Y716517D01*
X1376601Y716937D01*
X1376478Y717418D01*
Y724795D01*
G37*
G36*
X1203288Y1739962D02*
X1203287Y1740081D01*
X1206575Y1747929D01*
X1207071Y1748419D01*
X1207701Y1748450D01*
X1221511Y1744356D01*
X1222030Y1743936D01*
X1222151Y1743455D01*
Y1736077D01*
X1221895Y1735463D01*
X1221470Y1735209D01*
X1207685Y1731122D01*
X1206992Y1731195D01*
X1206568Y1731665D01*
X1203289Y1739491D01*
X1203288Y1739962D01*
G37*
G36*
X932515Y3021430D02*
X932515Y3021549D01*
X935804Y3029395D01*
X936297Y3029885D01*
X936929Y3029918D01*
X950739Y3025824D01*
X951257Y3025404D01*
X951380Y3024923D01*
Y3017546D01*
X951125Y3016930D01*
X950698Y3016676D01*
X936912Y3012589D01*
X936220Y3012664D01*
X935796Y3013131D01*
X932517Y3020958D01*
X932515Y3021430D01*
G37*
G36*
X843932Y3061508D02*
X847221Y3069356D01*
X847715Y3069847D01*
X848348Y3069878D01*
X862157Y3065784D01*
X862674Y3065365D01*
X862797Y3064884D01*
Y3057505D01*
X862541Y3056890D01*
X862114Y3056637D01*
X848330Y3052550D01*
X847638Y3052624D01*
X847214Y3053093D01*
X843935Y3060919D01*
X843932Y3061508D01*
G37*
G36*
X809587Y559251D02*
X809586Y559370D01*
X812874Y567217D01*
X813369Y567706D01*
X814000Y567739D01*
X827811Y563645D01*
X828328Y563224D01*
X828451Y562744D01*
X828450Y555367D01*
X828195Y554751D01*
X827769Y554497D01*
X813984Y550410D01*
X813291Y550483D01*
X812867Y550953D01*
X809588Y558779D01*
X809587Y559251D01*
G37*
G36*
X2082318Y1487378D02*
X2082317Y1487497D01*
X2085615Y1495369D01*
X2086102Y1495851D01*
X2086683Y1495899D01*
X2100478Y1492757D01*
X2101030Y1492366D01*
X2101182Y1491842D01*
Y1482534D01*
X2100922Y1481907D01*
X2100444Y1481644D01*
X2086658Y1478505D01*
X2085983Y1478620D01*
X2085605Y1479065D01*
X2082319Y1486907D01*
X2082318Y1487378D01*
G37*
G36*
X2075334Y1030097D02*
X2075334Y1030216D01*
X2078632Y1038087D01*
X2079119Y1038569D01*
X2079700Y1038617D01*
X2093495Y1035476D01*
X2094047Y1035085D01*
X2094199Y1034561D01*
X2094198Y1025251D01*
X2093938Y1024626D01*
X2093462Y1024363D01*
X2079675Y1021223D01*
X2079000Y1021338D01*
X2078622Y1021783D01*
X2075336Y1029625D01*
X2075334Y1030097D01*
G37*
G36*
Y1004506D02*
X2075334Y1004625D01*
X2078632Y1012495D01*
X2079119Y1012979D01*
X2079701Y1013026D01*
X2093495Y1009885D01*
X2094047Y1009494D01*
X2094199Y1008970D01*
X2094198Y999661D01*
X2093939Y999037D01*
X2093463Y998772D01*
X2079674Y995632D01*
X2078999Y995749D01*
X2078622Y996193D01*
X2075336Y1004035D01*
X2075334Y1004506D01*
G37*
G36*
X2069428Y1287969D02*
X2069428Y1288089D01*
X2072727Y1295961D01*
X2073213Y1296443D01*
X2073795Y1296491D01*
X2087590Y1293350D01*
X2088141Y1292958D01*
X2088293Y1292435D01*
Y1283126D01*
X2088033Y1282500D01*
X2087556Y1282237D01*
X2073770Y1279097D01*
X2073093Y1279212D01*
X2072716Y1279658D01*
X2069431Y1287499D01*
X2069428Y1287969D01*
G37*
G36*
X2067460Y1620393D02*
X2070758Y1628265D01*
X2071245Y1628747D01*
X2071826Y1628795D01*
X2085621Y1625653D01*
X2086173Y1625262D01*
X2086325Y1624738D01*
X2086324Y1615430D01*
X2086064Y1614804D01*
X2085588Y1614541D01*
X2071801Y1611401D01*
X2071126Y1611516D01*
X2070748Y1611961D01*
X2067462Y1619803D01*
X2067460Y1620393D01*
G37*
G36*
X2063524Y2087183D02*
X2063523Y2087302D01*
X2066821Y2095174D01*
X2067309Y2095656D01*
X2067889Y2095704D01*
X2081684Y2092562D01*
X2082236Y2092171D01*
X2082388Y2091647D01*
X2082387Y2082339D01*
X2082127Y2081713D01*
X2081650Y2081450D01*
X2067864Y2078310D01*
X2067189Y2078425D01*
X2066811Y2078870D01*
X2063525Y2086712D01*
X2063524Y2087183D01*
G37*
G36*
X2061554Y2189543D02*
X2061554Y2189663D01*
X2064853Y2197536D01*
X2065339Y2198018D01*
X2065921Y2198066D01*
X2079716Y2194925D01*
X2080267Y2194533D01*
X2080419Y2194008D01*
Y2184701D01*
X2080159Y2184075D01*
X2079682Y2183812D01*
X2065896Y2180672D01*
X2065219Y2180787D01*
X2064842Y2181233D01*
X2061557Y2189074D01*
X2061554Y2189543D01*
G37*
G36*
X2057617Y1591238D02*
X2060916Y1599111D01*
X2061402Y1599593D01*
X2061984Y1599641D01*
X2075779Y1596499D01*
X2076330Y1596107D01*
X2076482Y1595584D01*
Y1586276D01*
X2076222Y1585650D01*
X2075745Y1585387D01*
X2061959Y1582247D01*
X2061282Y1582362D01*
X2060905Y1582808D01*
X2057620Y1590649D01*
X2057617Y1591238D01*
G37*
G36*
X2051712Y1992695D02*
X2051712Y1992814D01*
X2055010Y2000684D01*
X2055498Y2001168D01*
X2056079Y2001215D01*
X2069873Y1998074D01*
X2070425Y1997683D01*
X2070577Y1997159D01*
X2070576Y1987851D01*
X2070317Y1987226D01*
X2069840Y1986961D01*
X2056052Y1983821D01*
X2055377Y1983938D01*
X2055000Y1984382D01*
X2051714Y1992224D01*
X2051712Y1992695D01*
G37*
G36*
X2045774Y2091682D02*
X2046032Y2092305D01*
X2046509Y2092570D01*
X2060297Y2095710D01*
X2060972Y2095593D01*
X2061349Y2095149D01*
X2064635Y2087307D01*
X2064637Y2086731D01*
X2061339Y2078847D01*
X2060851Y2078362D01*
X2060270Y2078316D01*
X2046476Y2081457D01*
X2045924Y2081848D01*
X2045772Y2082372D01*
X2045774Y2091682D01*
G37*
G36*
X2039901Y2018286D02*
X2039901Y2018405D01*
X2043199Y2026276D01*
X2043686Y2026758D01*
X2044267Y2026806D01*
X2058062Y2023665D01*
X2058615Y2023273D01*
X2058765Y2022749D01*
Y2013440D01*
X2058506Y2012815D01*
X2058029Y2012552D01*
X2044242Y2009412D01*
X2043567Y2009527D01*
X2043189Y2009972D01*
X2039903Y2017814D01*
X2039901Y2018286D01*
G37*
G36*
X2039507Y1509447D02*
X2039507Y1509566D01*
X2042806Y1517437D01*
X2043292Y1517920D01*
X2043874Y1517968D01*
X2057669Y1514827D01*
X2058220Y1514435D01*
X2058372Y1513910D01*
Y1504602D01*
X2058112Y1503976D01*
X2057634Y1503713D01*
X2043848Y1500574D01*
X2043172Y1500689D01*
X2042795Y1501135D01*
X2039509Y1508976D01*
X2039507Y1509447D01*
G37*
G36*
X2011554Y1220272D02*
X2011554Y1220392D01*
X2014853Y1228264D01*
X2015339Y1228747D01*
X2015921Y1228795D01*
X2029716Y1225653D01*
X2030267Y1225261D01*
X2030419Y1224738D01*
Y1215430D01*
X2030159Y1214804D01*
X2029682Y1214541D01*
X2015896Y1211401D01*
X2015219Y1211516D01*
X2014842Y1211962D01*
X2011557Y1219803D01*
X2011554Y1220272D01*
G37*
G36*
Y1120272D02*
X2011554Y1120392D01*
X2014853Y1128264D01*
X2015339Y1128747D01*
X2015921Y1128795D01*
X2029716Y1125653D01*
X2030267Y1125261D01*
X2030419Y1124738D01*
Y1115430D01*
X2030159Y1114804D01*
X2029682Y1114541D01*
X2015896Y1111401D01*
X2015219Y1111516D01*
X2014842Y1111962D01*
X2011557Y1119803D01*
X2011554Y1120272D01*
G37*
G36*
X1563489Y1084023D02*
X1563749Y1084649D01*
X1564226Y1084912D01*
X1578013Y1088053D01*
X1578689Y1087936D01*
X1579066Y1087491D01*
X1582351Y1079650D01*
X1582354Y1079040D01*
X1579056Y1071190D01*
X1578569Y1070705D01*
X1577986Y1070659D01*
X1564192Y1073800D01*
X1563641Y1074192D01*
X1563489Y1074715D01*
Y1084023D01*
G37*
G36*
X1756180Y1261395D02*
X1756173Y1261483D01*
X1759315Y1275278D01*
X1759707Y1275829D01*
X1760230Y1275981D01*
X1769539D01*
X1770165Y1275721D01*
X1770427Y1275243D01*
X1773567Y1261458D01*
X1773452Y1260781D01*
X1773006Y1260404D01*
X1765165Y1257119D01*
X1764555Y1257116D01*
X1756704Y1260415D01*
X1756221Y1260901D01*
X1756180Y1261395D01*
G37*
G36*
X888063Y1260244D02*
X891204Y1274039D01*
X891596Y1274590D01*
X892121Y1274742D01*
X901429D01*
X902053Y1274482D01*
X902317Y1274005D01*
X905457Y1260219D01*
X905342Y1259542D01*
X904896Y1259165D01*
X897055Y1255880D01*
X896448Y1255877D01*
X888594Y1259176D01*
X888111Y1259662D01*
X888063Y1260244D01*
G37*
G36*
X1147910Y1950964D02*
X1147903Y1951051D01*
X1150969Y1964845D01*
X1151358Y1965399D01*
X1151885Y1965553D01*
X1161347D01*
X1161974Y1965295D01*
X1162238Y1964811D01*
X1165302Y1951026D01*
X1165184Y1950350D01*
X1164739Y1949977D01*
X1156898Y1946691D01*
X1156330Y1946689D01*
X1148435Y1949988D01*
X1147953Y1950473D01*
X1147910Y1950964D01*
G37*
G36*
X1538770Y3298683D02*
X1539213Y3299056D01*
X1547055Y3302342D01*
X1547645Y3302344D01*
X1555517Y3299046D01*
X1556000Y3298560D01*
X1556049Y3297981D01*
X1552984Y3284187D01*
X1552594Y3283634D01*
X1552067Y3283480D01*
X1542605D01*
X1541978Y3283740D01*
X1541715Y3284221D01*
X1538650Y3298008D01*
X1538770Y3298683D01*
G37*
G36*
X1609750Y646108D02*
X1610009Y646735D01*
X1610491Y646999D01*
X1624278Y650063D01*
X1624952Y649944D01*
X1625325Y649500D01*
X1628611Y641658D01*
X1628614Y641048D01*
X1625314Y633195D01*
X1624828Y632712D01*
X1624250Y632664D01*
X1610457Y635729D01*
X1609903Y636119D01*
X1609750Y636646D01*
Y646108D01*
G37*
G36*
X1198365Y809839D02*
X1198365Y809959D01*
X1201664Y817832D01*
X1202150Y818315D01*
X1202728Y818364D01*
X1216522Y815299D01*
X1217076Y814909D01*
X1217230Y814382D01*
Y804920D01*
X1216970Y804293D01*
X1216488Y804029D01*
X1202701Y800965D01*
X1202027Y801084D01*
X1201654Y801528D01*
X1198368Y809370D01*
X1198365Y809839D01*
G37*
G36*
X811379Y3043464D02*
X811439Y3043761D01*
X814704Y3051552D01*
X815211Y3052056D01*
X815940Y3052052D01*
X829244Y3044894D01*
X829642Y3044403D01*
X829693Y3044069D01*
X829692Y3036722D01*
X829425Y3036080D01*
X828852Y3035805D01*
X812460Y3034095D01*
X811775Y3034298D01*
X811425Y3034943D01*
X811379Y3043464D01*
G37*
G36*
X1053447Y1112845D02*
X1053441Y1112982D01*
X1056638Y1120783D01*
X1057053Y1121201D01*
X1064935Y1124451D01*
X1065631Y1124449D01*
X1066106Y1124020D01*
X1071174Y1114510D01*
X1071264Y1114153D01*
Y1106862D01*
X1070990Y1106201D01*
X1070279Y1105906D01*
X1069901Y1105974D01*
X1053999Y1111767D01*
X1053474Y1112251D01*
X1053447Y1112845D01*
G37*
G36*
X2082676Y1410433D02*
X2082952Y1411091D01*
X2083628Y1411369D01*
X2100368Y1409480D01*
X2100975Y1409142D01*
X2101183Y1408549D01*
Y1399218D01*
X2100932Y1398615D01*
X2100562Y1398375D01*
X2087170Y1393346D01*
X2086461Y1393370D01*
X2085984Y1393863D01*
X2082698Y1401708D01*
X2082638Y1402005D01*
X2082676Y1410433D01*
G37*
G36*
X2078345Y2503909D02*
X2078621Y2504569D01*
X2079306Y2504847D01*
X2096287Y2502007D01*
X2096869Y2501643D01*
X2097048Y2501082D01*
Y2491761D01*
X2096793Y2491148D01*
X2096370Y2490894D01*
X2082782Y2486809D01*
X2082088Y2486878D01*
X2081661Y2487350D01*
X2078367Y2495212D01*
X2078307Y2495509D01*
X2078345Y2503909D01*
G37*
G36*
X1164845Y664694D02*
X1165399Y665236D01*
X1165801Y665316D01*
X1174968D01*
X1175370Y665201D01*
X1183691Y660033D01*
X1184092Y659474D01*
X1184044Y658886D01*
X1180796Y651007D01*
X1180392Y650602D01*
X1172580Y647397D01*
X1171866Y647401D01*
X1171362Y647908D01*
X1164841Y663977D01*
X1164845Y664694D01*
G37*
G36*
X1559707Y745744D02*
X1562988Y753627D01*
X1563479Y754116D01*
X1564092Y754156D01*
X1574221Y751439D01*
X1574562Y751243D01*
X1579728Y746076D01*
X1580001Y745416D01*
X1579708Y744710D01*
X1579414Y744497D01*
X1564241Y736935D01*
X1563527Y736886D01*
X1562986Y737358D01*
X1559710Y745155D01*
X1559707Y745744D01*
G37*
G36*
X1710165Y825016D02*
X1710400Y825690D01*
X1711047Y826001D01*
X1728086Y826008D01*
X1728744Y825731D01*
X1729019Y825060D01*
X1728073Y807984D01*
X1727767Y807348D01*
X1727139Y807108D01*
X1712035D01*
X1711385Y807379D01*
X1711110Y807992D01*
X1710165Y825016D01*
G37*
G36*
X1326306Y1192143D02*
X1326543Y1192816D01*
X1327191Y1193128D01*
X1344228Y1193134D01*
X1344886Y1192857D01*
X1345161Y1192186D01*
X1344215Y1175110D01*
X1343909Y1174474D01*
X1343281Y1174234D01*
X1328177D01*
X1327527Y1174504D01*
X1327251Y1175118D01*
X1326306Y1192143D01*
G37*
G36*
X970977Y1492223D02*
X971253Y1492882D01*
X971939Y1493165D01*
X985116Y1490660D01*
X985512Y1490452D01*
X990698Y1485266D01*
X990971Y1484605D01*
X990681Y1483905D01*
X990424Y1483710D01*
X975598Y1475301D01*
X974888Y1475214D01*
X974315Y1475662D01*
X971008Y1483516D01*
X970950Y1483811D01*
X970977Y1492223D01*
G37*
G36*
X1561566Y790247D02*
X1564820Y798066D01*
X1565327Y798569D01*
X1566050D01*
X1577142Y793596D01*
X1577368Y793441D01*
X1582470Y788338D01*
X1582744Y787678D01*
X1582443Y786950D01*
X1582042Y786702D01*
X1565982Y781337D01*
X1565282Y781386D01*
X1564832Y781867D01*
X1561568Y789657D01*
X1561566Y790247D01*
G37*
G36*
X1090922Y920680D02*
X1090961Y929228D01*
X1091232Y929875D01*
X1091833Y930147D01*
X1108419Y931293D01*
X1109097Y931066D01*
X1109416Y930424D01*
X1109426Y915248D01*
X1109164Y914618D01*
X1108654Y914348D01*
X1092084Y911316D01*
X1091386Y911466D01*
X1090981Y912090D01*
X1090922Y920680D01*
G37*
G36*
X2081424Y2304725D02*
X2084638Y2312593D01*
X2084804Y2312844D01*
X2090795Y2318797D01*
X2091456Y2319068D01*
X2092135Y2318784D01*
X2099719Y2308871D01*
X2099875Y2308406D01*
Y2299138D01*
X2099601Y2298476D01*
X2098896Y2298186D01*
X2098547Y2298240D01*
X2082028Y2303539D01*
X2081484Y2304002D01*
X2081424Y2304725D01*
G37*
G36*
X2064195Y2128483D02*
X2064620Y2128953D01*
X2077279Y2135823D01*
X2077942Y2135893D01*
X2078369Y2135639D01*
X2083586Y2130421D01*
X2083841Y2129805D01*
X2083718Y2129325D01*
X2076861Y2116689D01*
X2076321Y2116251D01*
X2075688Y2116282D01*
X2067836Y2119498D01*
X2067399Y2119929D01*
X2064193Y2127787D01*
X2064195Y2128483D01*
G37*
G36*
X2052316Y1310876D02*
X2059173Y1323513D01*
X2059714Y1323950D01*
X2060345Y1323919D01*
X2068090Y1320748D01*
G02X2068672Y1320156I-256J-834D01*
G01X2071841Y1312414D01*
X2071839Y1311718D01*
X2071414Y1311248D01*
X2058754Y1304378D01*
X2058092Y1304310D01*
X2057665Y1304562D01*
X2052448Y1309780D01*
X2052193Y1310396D01*
X2052316Y1310876D01*
G37*
G36*
X1335762Y851593D02*
X1336187Y852063D01*
X1348846Y858933D01*
X1349509Y859003D01*
X1349936Y858749D01*
X1355153Y853532D01*
X1355408Y852917D01*
X1355285Y852435D01*
X1348428Y839799D01*
X1347887Y839361D01*
X1347255Y839392D01*
X1339403Y842608D01*
X1338950Y843056D01*
X1338920Y843179D01*
X1335760Y850898D01*
X1335762Y851593D01*
G37*
G36*
X1300592Y927980D02*
X1307450Y940618D01*
X1307991Y941054D01*
X1308622Y941023D01*
X1316475Y937807D01*
X1316911Y937375D01*
X1320118Y929517D01*
X1320114Y928820D01*
X1319690Y928353D01*
X1307030Y921482D01*
X1306366Y921413D01*
X1305941Y921668D01*
X1300724Y926884D01*
X1300469Y927500D01*
X1300592Y927980D01*
G37*
G36*
X1201922Y1481546D02*
X1208780Y1494181D01*
X1209320Y1494621D01*
X1209953Y1494587D01*
X1217697Y1491418D01*
G02X1218278Y1490825I-256J-833D01*
G01X1221448Y1483083D01*
X1221444Y1482386D01*
X1221020Y1481918D01*
X1208361Y1475048D01*
X1207698Y1474978D01*
X1207270Y1475232D01*
X1202055Y1480448D01*
X1201799Y1481064D01*
X1201922Y1481546D01*
G37*
G36*
X1194118Y642636D02*
X1194540Y643106D01*
X1207201Y649976D01*
X1207863Y650046D01*
X1208291Y649792D01*
X1213508Y644574D01*
X1213761Y643960D01*
X1213641Y643479D01*
X1206782Y630842D01*
X1206241Y630404D01*
X1205610Y630435D01*
X1197757Y633651D01*
X1197356Y634048D01*
X1194114Y641941D01*
X1194118Y642636D01*
G37*
G36*
X1193132Y2427302D02*
X1193557Y2427772D01*
X1206218Y2434642D01*
X1206879Y2434710D01*
X1207306Y2434459D01*
X1212523Y2429240D01*
X1212778Y2428624D01*
X1212655Y2428144D01*
X1205798Y2415508D01*
X1205258Y2415070D01*
X1204626Y2415101D01*
X1196773Y2418317D01*
X1196336Y2418748D01*
X1193130Y2426606D01*
X1193132Y2427302D01*
G37*
G36*
X1298447Y1325924D02*
X1298872Y1326394D01*
X1311532Y1333264D01*
X1312194Y1333332D01*
X1312621Y1333080D01*
X1317838Y1327863D01*
X1318093Y1327246D01*
X1317970Y1326766D01*
X1311113Y1314130D01*
X1310572Y1313692D01*
X1309940Y1313723D01*
X1302088Y1316939D01*
X1301653Y1317368D01*
X1298445Y1325228D01*
X1298447Y1325924D01*
G37*
G36*
X1064129Y839441D02*
X1064384Y839867D01*
X1069600Y845083D01*
X1070217Y845339D01*
X1070697Y845216D01*
X1083333Y838358D01*
X1083771Y837817D01*
X1083740Y837186D01*
X1080524Y829333D01*
X1080094Y828899D01*
X1072235Y825690D01*
X1071538Y825694D01*
X1071069Y826118D01*
X1064199Y838777D01*
X1064129Y839441D01*
G37*
G36*
X1331915Y1836445D02*
X1335131Y1844298D01*
X1335546Y1844717D01*
X1343420Y1847941D01*
X1344115Y1847937D01*
X1344586Y1847514D01*
X1351456Y1834853D01*
X1351526Y1834191D01*
X1351272Y1833764D01*
X1346054Y1828547D01*
X1345438Y1828292D01*
X1344958Y1828415D01*
X1332322Y1835272D01*
X1331884Y1835813D01*
X1331915Y1836445D01*
G37*
G36*
X1307309Y1582509D02*
X1310524Y1590361D01*
X1310939Y1590780D01*
X1318814Y1594004D01*
X1319510Y1594000D01*
X1319979Y1593577D01*
X1326850Y1580916D01*
X1326918Y1580253D01*
X1326665Y1579826D01*
X1321449Y1574610D01*
X1320832Y1574355D01*
X1320351Y1574478D01*
X1307715Y1581335D01*
X1307276Y1581876D01*
X1307309Y1582509D01*
G37*
G36*
X1296457Y2206986D02*
X1303316Y2219624D01*
X1303858Y2220063D01*
X1304489Y2220030D01*
X1312342Y2216815D01*
X1312721Y2216437D01*
X1312787Y2216335D01*
X1315984Y2208525D01*
X1315980Y2207828D01*
X1315556Y2207360D01*
X1302896Y2200489D01*
X1302234Y2200420D01*
X1301808Y2200674D01*
X1296590Y2205891D01*
X1296337Y2206506D01*
X1296457Y2206986D01*
G37*
G36*
X1195104Y752787D02*
X1198320Y760640D01*
X1198735Y761059D01*
X1206608Y764283D01*
X1207303Y764281D01*
X1207775Y763857D01*
X1214645Y751196D01*
X1214715Y750534D01*
X1214461Y750107D01*
X1209243Y744890D01*
X1208627Y744635D01*
X1208147Y744758D01*
X1195511Y751615D01*
X1195073Y752156D01*
X1195104Y752787D01*
G37*
G36*
X1185603Y701470D02*
X1185858Y701896D01*
X1191074Y707113D01*
X1191690Y707368D01*
X1192170Y707245D01*
X1204807Y700387D01*
X1205246Y699845D01*
X1205213Y699214D01*
X1201998Y691361D01*
X1201625Y690987D01*
X1201525Y690919D01*
X1193708Y687719D01*
X1193011Y687723D01*
X1192543Y688147D01*
X1185673Y700806D01*
X1185603Y701470D01*
G37*
G36*
X968819Y2164769D02*
X972035Y2172622D01*
X972450Y2173041D01*
X980325Y2176265D01*
X981020Y2176263D01*
X981490Y2175838D01*
X988360Y2163178D01*
X988430Y2162516D01*
X988176Y2162089D01*
X982959Y2156872D01*
X982344Y2156617D01*
X981862Y2156740D01*
X969226Y2163597D01*
X968788Y2164138D01*
X968819Y2164769D01*
G37*
G36*
X1819573Y1481339D02*
X1824424Y1498453D01*
X1824868Y1499012D01*
X1825597Y1499098D01*
X1833475Y1495883D01*
X1833727Y1495716D01*
X1839739Y1489666D01*
X1840007Y1489012D01*
X1839758Y1488377D01*
X1832287Y1480291D01*
X1831743Y1480039D01*
X1820477D01*
X1819817Y1480313D01*
X1819526Y1481013D01*
X1819573Y1481339D01*
G37*
G36*
X2036226Y2323257D02*
X2036605Y2323703D01*
X2048580Y2331235D01*
X2049248Y2331349D01*
X2049724Y2331084D01*
X2056306Y2324503D01*
X2056565Y2323876D01*
X2056413Y2323353D01*
X2048885Y2311385D01*
X2048326Y2310989D01*
X2047743Y2311037D01*
X2039877Y2314258D01*
X2039429Y2314700D01*
X2039396Y2314823D01*
X2036224Y2322572D01*
X2036226Y2323257D01*
G37*
G36*
X2077861Y2399341D02*
X2078240Y2399787D01*
X2090215Y2407319D01*
X2090883Y2407433D01*
X2091359Y2407168D01*
X2097941Y2400587D01*
X2098199Y2399962D01*
X2098050Y2399438D01*
X2090520Y2387469D01*
X2089961Y2387073D01*
X2089378Y2387121D01*
X2081512Y2390342D01*
X2081059Y2390789D01*
X2081029Y2390913D01*
X2077859Y2398656D01*
X2077861Y2399341D01*
G37*
G36*
X2072059Y1063910D02*
X2072438Y1064356D01*
X2084413Y1071887D01*
X2085080Y1072001D01*
X2085557Y1071738D01*
X2092138Y1065156D01*
X2092397Y1064531D01*
X2092248Y1064007D01*
X2084718Y1052037D01*
X2084159Y1051642D01*
X2083578Y1051689D01*
X2075710Y1054911D01*
X2075273Y1055342D01*
X2072057Y1063224D01*
X2072059Y1063910D01*
G37*
G36*
X2070092Y1178082D02*
X2070468Y1178528D01*
X2082444Y1186060D01*
X2083112Y1186175D01*
X2083589Y1185910D01*
X2090170Y1179329D01*
X2090430Y1178703D01*
X2090278Y1178179D01*
X2082750Y1166211D01*
X2082191Y1165815D01*
X2081608Y1165863D01*
X2073741Y1169084D01*
X2073289Y1169532D01*
X2073259Y1169655D01*
X2070088Y1177398D01*
X2070092Y1178082D01*
G37*
G36*
X2065478Y1883403D02*
X2065854Y1883849D01*
X2077830Y1891383D01*
X2078498Y1891496D01*
X2078974Y1891233D01*
X2085557Y1884650D01*
X2085816Y1884024D01*
X2085664Y1883500D01*
X2078135Y1871532D01*
X2077576Y1871136D01*
X2076994Y1871184D01*
X2069127Y1874405D01*
X2068729Y1874800D01*
X2065474Y1882719D01*
X2065478Y1883403D01*
G37*
G36*
X2064185Y2428497D02*
X2064564Y2428943D01*
X2076539Y2436474D01*
X2077206Y2436588D01*
X2077683Y2436325D01*
X2084265Y2429743D01*
X2084523Y2429118D01*
X2084374Y2428594D01*
X2076844Y2416624D01*
X2076285Y2416229D01*
X2075704Y2416276D01*
X2067836Y2419498D01*
X2067399Y2419929D01*
X2064183Y2427811D01*
X2064185Y2428497D01*
G37*
G36*
Y2228497D02*
X2064564Y2228943D01*
X2076539Y2236474D01*
X2077206Y2236588D01*
X2077683Y2236325D01*
X2084265Y2229743D01*
X2084523Y2229118D01*
X2084374Y2228594D01*
X2076844Y2216624D01*
X2076285Y2216229D01*
X2075704Y2216276D01*
X2067836Y2219498D01*
X2067399Y2219929D01*
X2064183Y2227811D01*
X2064185Y2228497D01*
G37*
G36*
Y1828497D02*
X2064564Y1828943D01*
X2076539Y1836474D01*
X2077206Y1836588D01*
X2077683Y1836325D01*
X2084265Y1829743D01*
X2084523Y1829118D01*
X2084374Y1828594D01*
X2076844Y1816624D01*
X2076285Y1816229D01*
X2075704Y1816276D01*
X2067836Y1819498D01*
X2067399Y1819929D01*
X2064183Y1827811D01*
X2064185Y1828497D01*
G37*
G36*
Y1728497D02*
X2064564Y1728943D01*
X2076539Y1736474D01*
X2077206Y1736588D01*
X2077683Y1736325D01*
X2084265Y1729743D01*
X2084523Y1729118D01*
X2084374Y1728594D01*
X2076844Y1716624D01*
X2076285Y1716229D01*
X2075704Y1716276D01*
X2067836Y1719498D01*
X2067399Y1719929D01*
X2064183Y1727811D01*
X2064185Y1728497D01*
G37*
G36*
Y1328497D02*
X2064564Y1328943D01*
X2076539Y1336474D01*
X2077206Y1336588D01*
X2077683Y1336325D01*
X2084265Y1329743D01*
X2084523Y1329118D01*
X2084374Y1328594D01*
X2076844Y1316624D01*
X2076285Y1316229D01*
X2075704Y1316276D01*
X2067836Y1319498D01*
X2067399Y1319929D01*
X2064183Y1327811D01*
X2064185Y1328497D01*
G37*
G36*
X2036234Y717080D02*
X2036610Y717524D01*
X2048586Y725058D01*
X2049254Y725171D01*
X2049731Y724908D01*
X2056313Y718326D01*
X2056572Y717700D01*
X2056420Y717176D01*
X2048891Y705207D01*
X2048332Y704811D01*
X2047750Y704859D01*
X2039882Y708080D01*
X2039511Y708450D01*
X2039441Y708550D01*
X2036230Y716394D01*
X2036234Y717080D01*
G37*
G36*
X2007100Y935956D02*
X2007476Y936402D01*
X2019452Y943934D01*
X2020120Y944049D01*
X2020597Y943784D01*
X2027179Y937203D01*
X2027438Y936576D01*
X2027286Y936053D01*
X2019758Y924086D01*
X2019199Y923689D01*
X2018616Y923737D01*
X2010749Y926958D01*
X2010344Y927359D01*
X2007096Y935272D01*
X2007100Y935956D01*
G37*
G36*
X1832172Y1992119D02*
X1839702Y2004089D01*
X1840261Y2004484D01*
X1840842Y2004437D01*
X1848711Y2001215D01*
X1849086Y2000842D01*
X1849154Y2000740D01*
X1852363Y1992902D01*
X1852359Y1992217D01*
X1851983Y1991771D01*
X1840007Y1984238D01*
X1839339Y1984125D01*
X1838862Y1984388D01*
X1832280Y1990971D01*
X1832023Y1991596D01*
X1832172Y1992119D01*
G37*
G36*
X1290563Y555662D02*
X1290941Y556107D01*
X1302917Y563640D01*
X1303585Y563754D01*
X1304061Y563489D01*
X1310643Y556908D01*
X1310901Y556282D01*
X1310752Y555759D01*
X1303222Y543790D01*
X1302663Y543394D01*
X1302081Y543442D01*
X1294214Y546663D01*
X1293762Y547109D01*
X1293731Y547232D01*
X1290561Y554976D01*
X1290563Y555662D01*
G37*
G36*
X2064186Y1928498D02*
X2064559Y1928941D01*
X2076479Y1936526D01*
X2077148Y1936644D01*
X2077628Y1936379D01*
X2084320Y1929688D01*
X2084579Y1929062D01*
X2084425Y1928535D01*
X2076843Y1916619D01*
X2076281Y1916226D01*
X2075703Y1916277D01*
X2067836Y1919498D01*
X2067399Y1919929D01*
X2064182Y1927813D01*
X2064186Y1928498D01*
G37*
G36*
X1881115Y1202906D02*
X1881487Y1203350D01*
X1893409Y1210936D01*
X1894077Y1211054D01*
X1894557Y1210789D01*
X1901249Y1204098D01*
X1901508Y1203471D01*
X1901354Y1202944D01*
X1893772Y1191028D01*
X1893211Y1190637D01*
X1892634Y1190685D01*
X1884765Y1193907D01*
X1884367Y1194302D01*
X1881111Y1202223D01*
X1881115Y1202906D01*
G37*
G36*
X1571158Y1516633D02*
X1571423Y1517113D01*
X1578114Y1523804D01*
X1578741Y1524064D01*
X1579268Y1523910D01*
X1591183Y1516328D01*
X1591575Y1515767D01*
X1591527Y1515190D01*
X1588305Y1507321D01*
X1587904Y1506916D01*
X1579989Y1503667D01*
X1579306Y1503671D01*
X1578862Y1504043D01*
X1571276Y1515964D01*
X1571158Y1516633D01*
G37*
G36*
X1570310Y2200446D02*
X1577892Y2212362D01*
X1578453Y2212753D01*
X1579030Y2212705D01*
X1586899Y2209483D01*
X1587304Y2209082D01*
X1590553Y2201167D01*
X1590549Y2200484D01*
X1590177Y2200040D01*
X1578254Y2192453D01*
X1577588Y2192338D01*
X1577107Y2192600D01*
X1570415Y2199292D01*
X1570156Y2199919D01*
X1570310Y2200446D01*
G37*
G36*
X1569226Y1421945D02*
X1569191Y1422145D01*
X1569455Y1422625D01*
X1576146Y1429316D01*
X1576773Y1429577D01*
X1577300Y1429421D01*
X1589215Y1421840D01*
X1589608Y1421278D01*
X1589557Y1420700D01*
X1586381Y1412941D01*
G02X1585789Y1412359I-834J256D01*
G01X1578021Y1409179D01*
X1577336Y1409183D01*
X1576893Y1409556D01*
X1569308Y1421476D01*
X1569226Y1421945D01*
G37*
G36*
X1213798Y2025405D02*
X1217021Y2033274D01*
X1217436Y2033693D01*
X1225337Y2036928D01*
X1226021Y2036924D01*
X1226464Y2036551D01*
X1234049Y2024630D01*
X1234167Y2023963D01*
X1233902Y2023481D01*
X1227210Y2016790D01*
X1226584Y2016531D01*
X1226057Y2016685D01*
X1214142Y2024267D01*
X1213750Y2024828D01*
X1213798Y2025405D01*
G37*
G36*
X1207894Y1997847D02*
X1211115Y2005715D01*
X1211531Y2006134D01*
X1219431Y2009369D01*
X1220116Y2009365D01*
X1220558Y2008991D01*
X1228143Y1997071D01*
X1228261Y1996404D01*
X1227996Y1995922D01*
X1221306Y1989231D01*
X1220679Y1988972D01*
X1220152Y1989126D01*
X1208237Y1996708D01*
X1207843Y1997269D01*
X1207894Y1997847D01*
G37*
G36*
X1635590Y2117278D02*
X1635963Y2117721D01*
X1647883Y2125306D01*
X1648552Y2125424D01*
X1649032Y2125159D01*
X1655723Y2118468D01*
X1655983Y2117842D01*
X1655829Y2117315D01*
X1648247Y2105398D01*
X1647685Y2105006D01*
X1647107Y2105057D01*
X1639240Y2108278D01*
X1638810Y2108703D01*
X1635586Y2116593D01*
X1635590Y2117278D01*
G37*
G36*
X1251941Y1687519D02*
X1262834Y1699905D01*
X1263476Y1700219D01*
X1264162Y1699984D01*
X1270205Y1694000D01*
X1270373Y1693748D01*
X1273588Y1685895D01*
X1273586Y1685180D01*
X1273070Y1684669D01*
X1259513Y1679442D01*
X1258869Y1679458D01*
X1258541Y1679682D01*
X1251975Y1686247D01*
X1251708Y1686897D01*
X1251941Y1687519D01*
G37*
G36*
X1583904Y1484352D02*
X1584419Y1484863D01*
X1598022Y1490005D01*
X1598666Y1489985D01*
X1598990Y1489761D01*
X1605662Y1483089D01*
X1605931Y1482438D01*
X1605688Y1481806D01*
X1594647Y1469615D01*
X1594001Y1469311D01*
X1593304Y1469559D01*
X1587283Y1475535D01*
X1587115Y1475787D01*
X1583900Y1483637D01*
X1583904Y1484352D01*
G37*
G36*
X1051749Y1040439D02*
X1053187Y1046212D01*
X1051910Y1050364D01*
X1051977Y1051060D01*
X1052453Y1051493D01*
X1059997Y1054602D01*
X1065754Y1060359D01*
X1066415Y1060633D01*
X1067175Y1060318D01*
X1067450Y1059744D01*
X1067969Y1054801D01*
X1069012Y1054805D01*
X1069671Y1054533D01*
X1069958Y1053853D01*
X1068877Y1046184D01*
X1069838Y1037066D01*
X1069635Y1036381D01*
X1068989Y1036031D01*
X1067425Y1036018D01*
X1066836Y1031895D01*
X1066471Y1031280D01*
X1065680Y1031079D01*
X1065136Y1031349D01*
X1060488Y1035998D01*
X1060203Y1036054D01*
X1052280Y1039352D01*
X1051793Y1039840D01*
X1051749Y1040439D01*
G37*
G36*
X1853113Y1316337D02*
X1853382Y1316862D01*
X1861331Y1324811D01*
X1861965Y1325072D01*
X1862526Y1324894D01*
X1876555Y1314872D01*
X1876932Y1314266D01*
X1876767Y1313547D01*
X1864745Y1301497D01*
X1864084Y1301227D01*
X1863402Y1301512D01*
X1853267Y1315669D01*
X1853113Y1316337D01*
G37*
G36*
X1621362Y1235208D02*
X1621641Y1235875D01*
X1634385Y1247283D01*
X1635051Y1247515D01*
X1635664Y1247241D01*
X1646345Y1236561D01*
X1646613Y1235909D01*
X1646374Y1235281D01*
X1635004Y1222574D01*
X1634360Y1222266D01*
X1633680Y1222504D01*
X1621631Y1234546D01*
X1621362Y1235208D01*
G37*
G36*
X2022143Y805696D02*
X2022396Y806309D01*
X2022802Y806557D01*
X2036507Y811021D01*
X2037206Y810965D01*
X2037649Y810488D01*
X2040371Y803992D01*
X2043084Y810467D01*
X2043592Y810969D01*
X2044305Y810967D01*
X2057820Y805313D01*
X2058279Y804852D01*
X2058358Y804445D01*
Y797085D01*
X2058096Y796453D01*
X2057590Y796185D01*
X2040909Y793013D01*
X2040210Y793161D01*
X2039803Y793780D01*
X2039755Y799278D01*
X2037636Y794222D01*
X2037145Y793734D01*
X2036531Y793697D01*
X2022806Y797408D01*
X2022275Y797818D01*
X2022143Y798315D01*
Y805696D01*
G37*
G36*
X1376478Y608561D02*
X1376748Y609213D01*
X1377363Y609488D01*
X1394387Y610433D01*
X1394792Y610291D01*
X1395142Y610433D01*
X1412217Y609487D01*
X1412853Y609181D01*
X1413093Y608553D01*
Y593451D01*
X1412823Y592799D01*
X1412208Y592524D01*
X1395184Y591579D01*
X1394779Y591721D01*
X1394429Y591579D01*
X1377354Y592525D01*
X1376718Y592831D01*
X1376478Y593459D01*
Y608561D01*
G37*
G36*
X2057584Y842688D02*
X2057839Y843303D01*
X2058265Y843558D01*
X2068328Y846541D01*
X2071323Y856646D01*
X2071743Y857163D01*
X2072224Y857286D01*
X2079601D01*
X2080217Y857030D01*
X2080471Y856603D01*
X2084558Y842819D01*
X2084485Y842126D01*
X2084015Y841702D01*
X2076370Y838499D01*
X2073160Y830838D01*
X2072665Y830348D01*
X2072439Y830337D01*
G02X2070565Y831084I-286J2009D01*
G01X2066559Y833125D01*
X2062118Y833828D01*
X2061029Y833655D01*
X2060695Y833678D01*
X2058223Y834410D01*
X2057706Y834831D01*
X2057583Y835311D01*
X2057584Y842688D01*
G37*
G36*
X2029005Y1394096D02*
X2029475Y1394520D01*
X2036783Y1397582D01*
X2033764Y1404955D01*
X2033768Y1405639D01*
X2034144Y1406085D01*
X2046120Y1413619D01*
X2046788Y1413732D01*
X2047265Y1413469D01*
X2053847Y1406885D01*
X2054106Y1406260D01*
X2053954Y1405736D01*
X2046426Y1393769D01*
X2046247Y1393642D01*
X2046260Y1393387D01*
X2042166Y1379576D01*
X2041747Y1379059D01*
X2041266Y1378936D01*
X2033887Y1378937D01*
X2033273Y1379193D01*
X2033019Y1379618D01*
X2028932Y1393403D01*
X2029005Y1394096D01*
G37*
G36*
X1982781Y608089D02*
X1983032Y608693D01*
X1983401Y608932D01*
X2008325Y618354D01*
X2009035Y618332D01*
X2009514Y617836D01*
X2015423Y603664D01*
X2015425Y603060D01*
X2009512Y588894D01*
X2009009Y588393D01*
X2008320Y588385D01*
X1983350Y597824D01*
X1982874Y598271D01*
X1982781Y598702D01*
Y608089D01*
G37*
G36*
X1792859Y1601726D02*
X1798714Y1615953D01*
X1799130Y1616371D01*
X1813379Y1622235D01*
X1814071Y1622233D01*
X1814530Y1621831D01*
X1827545Y1599570D01*
X1827637Y1598905D01*
X1827377Y1598453D01*
X1816606Y1587681D01*
X1815985Y1587424D01*
X1815482Y1587561D01*
X1793236Y1600568D01*
X1792819Y1601118D01*
X1792859Y1601726D01*
G37*
G36*
X935729Y1342992D02*
X961722Y1360807D01*
X962390Y1360947D01*
X962899Y1360679D01*
X976423Y1347154D01*
X976684Y1346523D01*
X976515Y1345974D01*
X958831Y1320128D01*
X958231Y1319737D01*
X957507Y1319891D01*
X935715Y1341648D01*
X935444Y1342309D01*
X935729Y1342992D01*
G37*
G54D10*
X463253Y1771864D02*
X523253D01*
G54D11*
X449253Y1431612D02*
X537253D01*
G54D10*
X462583Y2464630D02*
X522583D01*
G54D11*
X448583Y2124378D02*
X536583D01*
G54D12*
X2540064Y753663D03*
G54D13*
X2440064D03*
X2540064Y853663D03*
X2440064D03*
X2540064Y953663D03*
X2440064D03*
X2540064Y1053663D03*
X2440064D03*
X2540064Y1153663D03*
X2440064D03*
X2540064Y1253663D03*
X2440064D03*
X2540064Y1353663D03*
X2440064D03*
X2540064Y1453663D03*
X2440064D03*
X2540064Y1553663D03*
X2440064D03*
X2540064Y1653663D03*
X2440064D03*
X2540064Y1753663D03*
X2440064D03*
X2540064Y1853663D03*
X2440064D03*
X2540064Y1953663D03*
X2440064D03*
X2540064Y2053663D03*
X2440064D03*
X2540064Y2153663D03*
X2440064D03*
X2540064Y2253663D03*
X2440064D03*
X2540064Y2353663D03*
X2440064D03*
X2540064Y2453663D03*
X2440064D03*
G54D10*
X463253Y1079864D02*
X523253D01*
G54D11*
X449253Y739612D02*
X537253D01*
G54D14*
X1623438Y2412027D03*
Y2462027D03*
G54D15*
X2155513Y2914563D03*
X2065356D03*
X821261D03*
G54D16*
X731204Y2914469D03*
G54D15*
X2088190Y3107477D03*
X2087993Y3264957D03*
G54D17*
X1848529Y2000612D03*
X1581797Y1079352D03*
X1180222Y651203D03*
X1764867Y1257673D03*
X2068017Y1620101D03*
X1335734Y1014234D03*
X1644789Y1876597D03*
X2064080Y2087010D03*
X1639421Y2108880D03*
X1320379Y1820494D03*
X1884946Y1194510D03*
X2068017Y2420101D03*
X1551198Y812620D03*
X1411521Y1684667D03*
X1375104Y698447D03*
X1094762Y1851006D03*
X1261631Y748236D03*
X1560253Y745480D03*
X2068017Y1320101D03*
X1674316Y701404D03*
G54D14*
X1570970Y1587227D03*
G54D17*
X1102353Y763942D03*
X1138883Y1075415D03*
X1093188Y897112D03*
X1531600Y986833D03*
X1587702Y1538998D03*
X2012111Y1220101D03*
X971568Y1483801D03*
X1725497Y2259471D03*
X1037402Y746063D03*
X1456797Y2204352D03*
X1572112Y829352D03*
X1749214Y1239563D03*
X2068017Y1685435D03*
X812009Y3043500D03*
X1196954Y2384471D03*
X972638Y2172441D03*
X979434Y641360D03*
X1196954Y2418919D03*
X2068017Y1791734D03*
X1661176Y918574D03*
X844489Y3061217D03*
X1697938Y2259471D03*
X924803Y808661D03*
X865551Y1898425D03*
X906496Y1225197D03*
X867126Y663386D03*
X1808860Y1240351D03*
X1492230Y2203818D03*
X2075891Y1029923D03*
X1217623Y1458289D03*
X888883Y472463D03*
X859356Y3218899D03*
X899016Y2295669D03*
X1266344Y2493132D03*
X899016Y1628346D03*
X1433174Y2336242D03*
X1623135Y684667D03*
X1749119Y2377581D03*
X1790458Y1022660D03*
X1587008Y1376269D03*
X1098819Y659449D03*
X1278167Y1175795D03*
X1101397Y1145213D03*
X892126Y1194291D03*
X894685Y1357812D03*
X1652663Y1768329D03*
X1677269Y2237817D03*
G54D14*
X1940064Y1599038D03*
G54D17*
X1169111Y3082305D03*
X1219592Y1134864D03*
X1006993Y1901203D03*
X2040064Y708683D03*
X1113293Y1414982D03*
X933465Y770472D03*
X919095Y1990551D03*
X1793411Y700415D03*
X1101397Y2485849D03*
X1331441Y2155140D03*
X2012111Y1120101D03*
X1587336Y1350022D03*
X1414474Y823447D03*
X1226482Y858880D03*
X2040458Y2018112D03*
X2010930Y927561D03*
X1313096Y1526203D03*
X1433174Y978959D03*
X2068017Y1820101D03*
X1306206Y1019313D03*
X1195970Y1765376D03*
X1335734Y705337D03*
X1104151Y2178762D03*
X2068017Y2120101D03*
X1196954Y1019313D03*
X1674311Y789982D03*
X2068017Y1920101D03*
Y2220101D03*
X1198923Y730927D03*
X1457781Y776597D03*
X1156600Y1947246D03*
X1240174Y1155140D03*
X2069986Y1287797D03*
X1547353Y3301787D03*
X1671412Y981960D03*
X2073923Y1169687D03*
X1479434Y967148D03*
X1414474Y1199431D03*
X1092623Y1554142D03*
X1480419Y1035455D03*
X1276789Y1150992D03*
X1427069Y3172850D03*
X1455616Y998677D03*
X1188206Y1324024D03*
X1414474Y1056715D03*
X1144789Y690573D03*
X1277576Y1201189D03*
X933072Y3021256D03*
X1198923Y809667D03*
X2040058Y2314861D03*
X1628056Y641360D03*
X1387699Y3172850D03*
X1396757Y2370474D03*
X1628056Y1163998D03*
X1335734Y1844116D03*
X1628056Y1135455D03*
X898726Y2229724D03*
X948819Y2173031D03*
X898726Y1537992D03*
X944685Y1483268D03*
X1217623Y1490770D03*
X1079921Y829515D03*
X895713Y839114D03*
X983858Y781496D03*
X1705923Y1605323D03*
X1112308Y1443526D03*
G54D14*
X1799316Y1615770D03*
G54D17*
X1628056Y1228959D03*
X1341639Y1792935D03*
X1587702Y1507502D03*
X1217623Y2033093D03*
X1057252Y1120629D03*
X1458765Y1332305D03*
X810143Y559077D03*
X1203844Y1739789D03*
X1587702Y1476006D03*
X1586718Y2208880D03*
X1012899Y1870691D03*
X1211718Y2005534D03*
X1585734Y1413014D03*
X1269786Y1693529D03*
X896757Y1256434D03*
X2075891Y1004332D03*
X1505025Y844116D03*
X1507983Y3301789D03*
X1339584Y843211D03*
X2068017Y694904D03*
X2082874Y1487205D03*
X2040371Y802370D03*
X1394786Y721085D03*
X2037598Y1397244D03*
X1562111Y789982D03*
X1573923Y986833D03*
X2075891Y1055514D03*
X2062111Y2189372D03*
X1101802Y2054746D03*
X1402663Y2336242D03*
X1467623Y2068526D03*
G54D14*
X1677269Y947463D03*
X1726482Y1097069D03*
X1956797Y2197463D03*
X1879041Y2383486D03*
G54D17*
X1804237Y2377581D03*
X1906600Y2340179D03*
X767820Y645087D03*
X1060570Y1054216D03*
X1060433Y1036614D03*
X668307Y1012795D03*
X644882Y1012598D03*
X911221Y626181D03*
G54D14*
X917426Y523644D03*
X2014867Y503959D03*
G54D17*
X1275142Y944760D03*
G54D14*
X946962Y1331238D03*
G54D17*
X1273726Y2213211D03*
X2069308Y1875008D03*
X1626182Y1194288D03*
X1268804Y1590179D03*
G54D14*
X946962Y2023245D03*
G54D17*
X1072943Y1745472D03*
X667520Y1712598D03*
X1073927Y1772441D03*
X637795Y1712598D03*
X640158Y2423228D03*
X1071954Y2423031D03*
X665748Y2423228D03*
X1071560Y2448691D03*
G54D14*
X1766836Y1761439D03*
X1765852Y1838211D03*
G54D17*
X1201395Y691543D03*
X1316293Y937205D03*
X1302269Y1317541D03*
X1311127Y1590179D03*
X1312160Y2216212D03*
X1194001Y1947246D03*
X1414107Y698447D03*
X2075891Y838978D03*
X2083268Y1401968D03*
X1586718Y3301793D03*
X2085433Y672441D03*
X1374119Y1655140D03*
X1304455Y846997D03*
X1975005Y1146774D03*
X2058174Y1590947D03*
X2078937Y2495472D03*
G54D14*
X1804237Y2285061D03*
G54D17*
X1259590Y3082305D03*
G54D14*
X1677757Y1226374D03*
G54D17*
X920379Y1122332D03*
G54D14*
X894488Y2385039D03*
G54D17*
X1914552Y1771313D03*
X1301285Y2492148D03*
G54D14*
X898726Y1702165D03*
G54D17*
X1962780Y1771313D03*
X1914474Y1797730D03*
X2062119Y819458D03*
X1939080Y1797730D03*
X1224157Y3082305D03*
X1962702Y1797730D03*
X1939158Y1771313D03*
G54D14*
X1841639Y2285061D03*
G54D17*
X948032Y2505905D03*
G54D14*
X1211237Y1223630D03*
G54D17*
X1224157Y3109864D03*
G54D14*
X1879041Y2285061D03*
G54D17*
X2040064Y1509274D03*
X1295023Y3082305D03*
G54D14*
X1066339Y801968D03*
G54D17*
X1295023Y3109864D03*
X927953Y1830905D03*
X1295023Y3176793D03*
X1224157D03*
X1295023Y3149234D03*
X1259590Y3176793D03*
X1224157Y3149234D03*
G54D14*
X894488Y2329921D03*
G54D17*
X1401678Y2411045D03*
X1103817Y1954943D03*
X1401678Y2455337D03*
X1355812Y1954746D03*
Y2209057D03*
G54D14*
X898726Y1658857D03*
G54D17*
X1569001Y2988211D03*
X1773726Y3021675D03*
X1617230Y3237817D03*
X1426789Y3268709D03*
X1751088Y3229943D03*
X1772281Y2111833D03*
X2085236Y2312401D03*
X1528647Y1376269D03*
X1505616Y1012266D03*
X1870293Y1307882D03*
X1833285Y1495284D03*
X1868293Y1585258D03*
X1691285Y1479943D03*
Y1446478D03*
X1703096Y1463211D03*
G54D14*
X893307Y952362D03*
X892717Y1159842D03*
X891142Y2501968D03*
X896654Y1855709D03*
G54D17*
X1860340Y1283093D03*
X1811127D03*
X2068017Y1720101D03*
X1198923Y760459D03*
X1197938Y634254D03*
G54D14*
X1999820Y1170677D03*
X2014867Y603368D03*
G54D17*
X2081693Y2390945D03*
X1294395Y547266D03*
G54D14*
X1157694Y1271858D03*
G54D17*
X2052269Y1992521D03*
G54D14*
X1998009Y1458289D03*
G54D17*
X1997151Y1900002D03*
X1719592Y825415D03*
X1335734Y1192541D03*
X1394786Y601006D03*
X1091552Y920677D03*
G54D18*
X1259266Y169831D02*
Y117337D01*
X1240518Y199827D02*
X1221770Y143584D01*
X1270514D01*
G54D19*
X2101108Y1620101D02*
X2134670Y1653663D01*
X1170096Y699614D02*
X1163489Y706221D01*
X1479434Y1079352D02*
X1581797D01*
X1170096Y661329D02*
Y699614D01*
X2068017Y1620101D02*
X2101108D01*
X1764867Y1257673D02*
Y1664982D01*
X1799316Y1699431D02*
Y1951400D01*
X1180222Y651203D02*
X1170096Y661329D01*
X1764867Y1664982D02*
X1799316Y1699431D01*
Y1951400D02*
X1848529Y2000612D01*
X1163489Y706221D02*
Y862817D01*
X1279631Y978959D02*
X1379041D01*
X1479434Y1079352D01*
X2134670Y1653663D02*
X2440064D01*
X1163489Y862817D02*
X1279631Y978959D01*
X2064080Y2087010D02*
X2107387D01*
X2125104Y2104726D01*
G54D20*
X1666389Y2135849D02*
X1844592D01*
G54D19*
X2030005Y2099431D02*
X2042426Y2087010D01*
G54D20*
X1881009Y1746675D02*
X1968608Y1659077D01*
G54D19*
X2489001Y2104726D02*
X2540064Y2053663D01*
G54D20*
X1884946Y1194510D02*
X1968608Y1278171D01*
G54D19*
X1881009Y2099431D02*
X2030005D01*
X2125104Y2104726D02*
X2489001D01*
G54D20*
X1968608Y1278171D02*
Y1659077D01*
X1881009Y1746675D02*
Y2099431D01*
G54D19*
X2042426Y2087010D02*
X2064080D01*
G54D20*
X1639421Y2108880D02*
X1666389Y2135849D01*
X1844592D02*
X1881009Y2099431D01*
G54D19*
X2068017Y2420101D02*
X2101579Y2453663D01*
X2440064D01*
G54D18*
X1613293Y818526D02*
X1681600Y886833D01*
X1851482Y1103565D02*
X2068017Y1320101D01*
G54D19*
X2101579Y1353663D02*
X2440064D01*
G54D18*
X1715655Y886833D02*
X1851482Y1022660D01*
X1560253Y745480D02*
X1574302D01*
G54D19*
X2068017Y1320101D02*
X2101579Y1353663D01*
G54D18*
X1851482Y1022660D02*
Y1103565D01*
X1574302Y745480D02*
X1613293Y784471D01*
Y818526D01*
X1681600Y886833D02*
X1715655D01*
G54D19*
X2055439Y1220101D02*
X2089001Y1253663D01*
X2440064D01*
X2012111Y1220101D02*
X2055439D01*
G54D18*
X1102559Y1602005D02*
Y1776181D01*
X1031600Y1847140D01*
X1170473Y2400000D02*
X1186002Y2384471D01*
X1031600Y1903044D02*
X1014740Y1919904D01*
X812009Y3043500D02*
X815147Y3040362D01*
X1221671Y2476001D02*
X1170473Y2424803D01*
X2093608Y1685435D02*
X2111324Y1703151D01*
X1184466Y3017134D02*
X1221671Y2979929D01*
X1014740Y1919904D02*
Y1919906D01*
X1221671Y2979929D02*
Y2476001D01*
X988583Y1946063D02*
Y2156496D01*
X1170473Y2424803D02*
Y2400000D01*
X961407Y3040362D02*
X984635Y3017134D01*
X1184466D01*
X988583Y2156496D02*
X972638Y2172441D01*
X2490576Y1703151D02*
X2540064Y1653663D01*
X984356Y1483801D02*
X1102559Y1602005D01*
X2111324Y1703151D02*
X2490576D01*
X1014740Y1919906D02*
X988583Y1946063D01*
X2068017Y1685435D02*
X2093608D01*
X1186002Y2384471D02*
X1196954D01*
X971568Y1483801D02*
X984356D01*
X1031600Y1847140D02*
Y1903044D01*
X815147Y3040362D02*
X961407D01*
X993690Y3033276D02*
X1196080D01*
X844489Y3061217D02*
X965749D01*
X2117230Y1803545D02*
X2490182D01*
X1242230Y2464195D02*
X1196954Y2418919D01*
X1196080Y3033276D02*
X1242230Y2987126D01*
X2490182Y1803545D02*
X2540064Y1753663D01*
X2068017Y1791734D02*
X2105419D01*
X1242230Y2987126D02*
Y2464195D01*
X965749Y3061217D02*
X993690Y3033276D01*
X2105419Y1791734D02*
X2117230Y1803545D01*
G54D19*
X2105419Y1029923D02*
X2129158Y1053663D01*
X2075891Y1029923D02*
X2105419D01*
X2129158Y1053663D02*
X2440064D01*
G54D17*
X894789Y3218899D02*
X969592Y3144096D01*
G54D19*
X2085044Y753663D02*
X2440064D01*
G54D17*
X859356Y3218899D02*
X894789D01*
X1071954Y3144096D02*
X1133745Y3082305D01*
X969592Y3144096D02*
X1071954D01*
G54D19*
X2040064Y708683D02*
X2085044Y753663D01*
G54D17*
X1133745Y3082305D02*
X1169111D01*
G54D19*
X2012111Y1120101D02*
X2077486D01*
X2111048Y1153663D02*
X2440064D01*
X2077486Y1120101D02*
X2111048Y1153663D01*
X2066028Y2018112D02*
X2101579Y2053663D01*
X2040458Y2018112D02*
X2066028D01*
X2101579Y2053663D02*
X2440064D01*
X2010930Y927561D02*
X2037032Y953663D01*
X2440064D01*
X2101579Y1853663D02*
X2440064D01*
X2068017Y1820101D02*
X2101579Y1853663D01*
G54D18*
Y2153663D02*
X2440064D01*
X2068017Y2120101D02*
X2101579Y2153663D01*
G54D20*
X2068017Y1920101D02*
X2101579Y1953663D01*
X2440064D01*
G54D19*
X2101579Y2253663D02*
X2440064D01*
X2068017Y2220101D02*
X2101579Y2253663D01*
G54D20*
X1156600Y1947246D02*
Y1954746D01*
X1547353Y3191366D02*
Y3301787D01*
G54D19*
X2490182Y1303545D02*
X2540064Y1253663D01*
G54D20*
X1156600Y1954746D02*
Y2167935D01*
X1349513Y2993526D02*
X1547353Y3191366D01*
X1156600Y2167935D02*
X1349513Y2360849D01*
G54D19*
X2069986Y1287797D02*
X2087702D01*
G54D20*
X1349513Y2360849D02*
Y2993526D01*
G54D19*
X2087702Y1287797D02*
X2103450Y1303545D01*
X2490182D01*
X2073923Y1169687D02*
X2109356Y1205120D01*
X2488607D02*
X2540064Y1153663D01*
X2109356Y1205120D02*
X2488607D01*
G54D18*
X1277576Y1201189D02*
Y1248557D01*
X1201395Y2974221D02*
X1176001Y2999614D01*
X1361324Y1584274D02*
X1321954Y1623644D01*
X1176001Y2999614D02*
X975974D01*
X1201395Y2483276D02*
Y2974221D01*
X1321954Y1712227D02*
X1122852Y1911329D01*
X954332Y3021256D02*
X933072D01*
X975974Y2999614D02*
X954332Y3021256D01*
X1361324Y1332305D02*
Y1584274D01*
X1277576Y1248557D02*
X1361324Y1332305D01*
X1122852Y1911329D02*
Y2404732D01*
X1201395Y2483276D01*
X1321954Y1623644D02*
Y1712227D01*
G54D20*
X1240358Y809667D02*
X1198923D01*
X1284072Y765953D02*
X1240358Y809667D01*
G54D19*
X2040058Y2314861D02*
X2078860Y2353663D01*
G54D20*
X1628056Y641360D02*
X1368214D01*
G54D19*
X2078860Y2353663D02*
X2440064D01*
G54D20*
X1284072Y725502D02*
Y765953D01*
X1368214Y641360D02*
X1284072Y725502D01*
G54D18*
X1628056Y1362817D02*
Y1697463D01*
X1566048Y1190573D02*
Y1300809D01*
X1575521Y1749999D02*
X1628056Y1697463D01*
X1566048Y1300809D02*
X1628056Y1362817D01*
X1566048Y1190573D02*
X1592623Y1163998D01*
X1396757Y2370474D02*
X1460360D01*
X1575521Y2158706D02*
X1607387Y2190573D01*
X1460360Y2370474D02*
X1607387Y2223447D01*
X1592623Y1163998D02*
X1628056D01*
X1607387Y2190573D02*
Y2223447D01*
X1575521Y1749999D02*
Y2158706D01*
X1627928Y1135455D02*
X1587702D01*
X1492537Y1230620D02*
Y1687313D01*
X1628056Y1135455D02*
X1627980D01*
X1627954Y1135429D01*
X1587702Y1135455D02*
X1492537Y1230620D01*
Y1687313D02*
X1335734Y1844116D01*
X1627954Y1135429D02*
X1627928Y1135455D01*
X1067323Y1082677D02*
X1034449D01*
X1059072Y958088D02*
X1082087Y981102D01*
X1079921Y829515D02*
X1059072Y850364D01*
X1082087Y1067913D02*
X1067323Y1082677D01*
X1059072Y850364D02*
Y958088D01*
X1082087Y981102D02*
Y1067913D01*
X1001378Y1115748D02*
Y1274525D01*
X1217623Y1490770D01*
X1034449Y1082677D02*
X1001378Y1115748D01*
G54D21*
X1658637Y1259539D02*
X1692146D01*
X1833765Y1198447D02*
X1896757Y1261439D01*
X1753238Y1198447D02*
X1833765D01*
X1896757Y1261439D02*
Y1518329D01*
X1799316Y1615770D01*
X1692146Y1259539D02*
X1753238Y1198447D01*
X1628056Y1228959D02*
X1658637Y1259539D01*
G54D20*
X1587702Y1507502D02*
X1540962Y1554242D01*
Y1709754D02*
X1217623Y2033093D01*
X1540962Y1554242D02*
Y1709754D01*
G54D18*
X1057252Y1120629D02*
X1067623Y1110258D01*
X1269198D01*
X1306206Y1147266D02*
Y1218051D01*
X1420460Y1332305D02*
X1458765D01*
X1269198Y1110258D02*
X1306206Y1147266D01*
Y1218051D02*
X1420460Y1332305D01*
X1077953Y692716D02*
Y771457D01*
X1048010Y1096478D02*
X1033268Y1111220D01*
X1099606Y966535D02*
Y1073031D01*
X1033268Y1240469D02*
X1290458Y1497660D01*
X1072852Y879511D02*
Y939781D01*
X1260927Y1739789D02*
X1203844D01*
X1077953Y771457D02*
X1098819Y792323D01*
X1099606Y1073031D02*
X1076159Y1096478D01*
X810143Y559077D02*
X944313D01*
X1072852Y939781D02*
X1099606Y966535D01*
X1033268Y1111220D02*
Y1240469D01*
X1076159Y1096478D02*
X1048010D01*
X1290458Y1497660D02*
Y1710258D01*
X1098819Y792323D02*
Y853543D01*
X1072852Y879511D01*
X944313Y559077D02*
X1077953Y692716D01*
X1290458Y1710258D02*
X1260927Y1739789D01*
G54D20*
X1554237Y2176400D02*
X1586718Y2208880D01*
X1609663Y1676486D02*
X1554237Y1731912D01*
X1587702Y1476006D02*
X1591960D01*
X1609663Y1493709D02*
Y1676486D01*
X1591960Y1476006D02*
X1609663Y1493709D01*
X1554237Y1731912D02*
Y2176400D01*
X1524710Y1474038D02*
Y1692541D01*
Y1474038D02*
X1585734Y1413014D01*
X1211718Y2005534D02*
X1524710Y1692541D01*
G54D19*
X896757Y1256434D02*
Y1324513D01*
X1265773Y1693529D02*
X1269786D01*
X896757Y1324513D02*
X1265773Y1693529D01*
X2489395Y1004332D02*
X2540064Y953663D01*
X2075891Y1004332D02*
X2489395D01*
G54D18*
X1346560Y1634471D02*
Y1721085D01*
X1601482Y1087227D02*
X1469308Y1219400D01*
Y1316402D02*
X1477466Y1324559D01*
G54D19*
X2125692Y1487205D02*
X2142820Y1504332D01*
X2082874Y1487205D02*
X2125692D01*
G54D18*
X1339584Y843211D02*
X1406828Y910455D01*
G54D19*
X2142820Y1504332D02*
X2489395D01*
G54D18*
X1469308Y1219400D02*
Y1316402D01*
Y1348209D02*
Y1511723D01*
X1601482Y959667D02*
Y1087227D01*
X1406828Y910455D02*
X1552269D01*
X1469308Y1511723D02*
X1346560Y1634471D01*
X1507983Y3187235D02*
Y3301789D01*
G54D19*
X2489395Y1504332D02*
X2540064Y1453663D01*
G54D18*
X1477466Y1340051D02*
X1469308Y1348209D01*
X1325891Y3005143D02*
X1507983Y3187235D01*
X1137812Y1929833D02*
Y2189502D01*
X1477466Y1324559D02*
Y1340051D01*
X1552269Y910455D02*
X1601482Y959667D01*
X1325891Y2377581D02*
Y3005143D01*
X1346560Y1721085D02*
X1137812Y1929833D01*
Y2189502D02*
X1325891Y2377581D01*
X1561636Y672266D02*
X1366245D01*
X1355812Y682699D01*
X1367820Y721085D02*
X1394786D01*
X1877283Y801977D02*
X1831797Y847463D01*
X1700300D01*
X2039978Y801977D02*
X1877283D01*
X2041984Y800758D02*
X2492969D01*
X1655615Y766245D02*
X1561636Y672266D01*
X1355812Y682699D02*
Y709077D01*
X2492969Y800758D02*
X2540064Y753663D01*
X2040371Y802370D02*
X2041984Y800758D01*
X2040371Y802370D02*
X2039978Y801977D01*
X1355812Y709077D02*
X1367820Y721085D01*
X1655615Y802778D02*
Y766245D01*
X1700300Y847463D02*
X1655615Y802778D01*
X2037598Y1397244D02*
Y1317044D01*
X1672137Y902370D02*
X1594592Y824825D01*
X1702649Y902370D02*
X1672137D01*
X2037598Y1317044D02*
X1832781Y1112227D01*
X1594592Y805140D02*
X1579434Y789982D01*
X1594592Y824825D02*
Y805140D01*
G54D19*
X2037598Y1397244D02*
X2094017Y1453663D01*
G54D18*
X1579434Y789982D02*
X1562111D01*
G54D19*
X2094017Y1453663D02*
X2440064D01*
G54D18*
X1832781Y1032502D02*
X1702649Y902370D01*
X1832781Y1112227D02*
Y1032502D01*
G54D19*
X2075891Y1055514D02*
X2123135Y1102758D01*
X2490969D01*
X2540064Y1053663D01*
X2490576Y2203151D02*
X2540064Y2153663D01*
X2101482Y2203151D02*
X2490576D01*
X2087702Y2189372D02*
X2101482Y2203151D01*
X2062111Y2189372D02*
X2087702D01*
G54D17*
X668307Y1012795D02*
X668110Y1012598D01*
G54D21*
X1060570Y1054216D02*
Y1036751D01*
G54D17*
Y1054216D02*
X1054156Y1060630D01*
X895473Y1012795D02*
X668307D01*
G54D21*
X1060570Y1036751D02*
X1060433Y1036614D01*
G54D17*
X943307Y1060630D02*
X895473Y1012795D01*
X1054156Y1060630D02*
X943307D01*
X668110Y1012598D02*
X644882D01*
G54D19*
X2098239Y1903939D02*
X2489788D01*
X2540064Y1853663D01*
G54D22*
X946962Y1331238D02*
X1205904Y1590179D01*
G54D19*
X2069308Y1875008D02*
X2098239Y1903939D01*
G54D22*
X1205904Y1590179D02*
X1268804D01*
G54D17*
X667520Y1712598D02*
X637795D01*
X851378D02*
X667520D01*
X911221Y1772441D02*
X851378Y1712598D01*
X1073927Y1772441D02*
Y1746457D01*
Y1772441D02*
X911221D01*
X1073927Y1746457D02*
X1072943Y1745472D01*
X640354Y2423031D02*
X640158Y2423228D01*
X1071954Y2423031D02*
X640354D01*
X1071954D02*
X1071560Y2423425D01*
Y2448691D01*
G54D18*
X1231403Y897266D02*
X1179741Y845604D01*
X1276355Y897266D02*
X1231403D01*
X1316293Y937205D02*
X1276355Y897266D01*
X1179741Y713197D02*
X1201395Y691543D01*
X1179741Y845604D02*
Y713197D01*
X1336718Y1351990D02*
Y1564589D01*
X1311127Y1590179D02*
X1336718Y1564589D01*
X1302269Y1317541D02*
X1336718Y1351990D01*
X1189584Y1951663D02*
X1194001Y1947246D01*
X1312160Y2216212D02*
X1189584Y2093636D01*
Y1951663D01*
X1559471Y698447D02*
X1634946Y773922D01*
X2121167Y905907D02*
X2487820D01*
X1873135Y838978D02*
X2075891D01*
Y860632D01*
X1634946Y773922D02*
Y811045D01*
X1691048Y867148D02*
X1844965D01*
X1414107Y698447D02*
X1559471D01*
X1634946Y811045D02*
X1691048Y867148D01*
X2487820Y905907D02*
X2540064Y853663D01*
X1844965Y867148D02*
X1873135Y838978D01*
X2075891Y860632D02*
X2121167Y905907D01*
X1175300Y1929746D02*
Y2148250D01*
Y1929746D02*
X1374119Y1730927D01*
Y1655140D02*
Y1730927D01*
G54D19*
X2085238Y1403939D02*
X2489788D01*
G54D18*
X1374119Y2347069D02*
Y2975615D01*
X1586718Y3188214D02*
Y3301793D01*
X1175300Y2148250D02*
X1374119Y2347069D01*
G54D19*
X2489788Y1403939D02*
X2540064Y1353663D01*
G54D18*
X1374119Y2975615D02*
X1586718Y3188214D01*
G54D19*
X2083268Y1401968D02*
X2085238Y1403939D01*
X2074927Y1509274D02*
X2119316Y1553663D01*
X2067737Y819293D02*
X2103450D01*
X2040064Y1509274D02*
X2074927D01*
X2131009Y1590947D02*
X2144789Y1604726D01*
X2489001D02*
X2540064Y1553663D01*
X2062119Y819458D02*
X2067572D01*
X2137820Y853663D02*
X2440064D01*
X2058174Y1590947D02*
X2131009D01*
X2144789Y1604726D02*
X2489001D01*
X2078937Y2495472D02*
X2079923Y2496458D01*
X2497269D01*
X2540064Y2453663D01*
X2119316Y1553663D02*
X2440064D01*
X2103450Y819293D02*
X2137820Y853663D01*
X2067572Y819458D02*
X2067737Y819293D01*
G54D14*
X623921Y2329921D02*
X567250Y2273250D01*
X484709Y2190710D02*
X567250Y2273250D01*
X894488Y2329921D02*
X623921D01*
X484709Y2116504D02*
Y2190710D01*
G54D17*
X1507373Y3014575D02*
X1737845D01*
X2003360Y2975921D02*
X2064941Y2914340D01*
X1401678Y2411045D02*
X1452466Y2461833D01*
Y2959667D01*
X1737845Y3014575D02*
X1776499Y2975921D01*
X2003360D01*
X1452466Y2959667D02*
X1507373Y3014575D01*
X1827970Y3020284D02*
X2049155D01*
X1401678Y2961045D02*
X1488082Y3047449D01*
X1800804D01*
X2049155Y3020284D02*
X2155098Y2914340D01*
X1800804Y3047449D02*
X1827970Y3020284D01*
X1401678Y2455337D02*
Y2961045D01*
G54D14*
X485379Y1423738D02*
Y1516183D01*
X628054Y1658858D01*
X898726D01*
G54D19*
X2094093Y2303545D02*
X2490182D01*
X2085236Y2312401D02*
X2094093Y2303545D01*
X2490182D02*
X2540064Y2253663D01*
G54D23*
X1825891Y1352284D02*
X1870293Y1307882D01*
X1833285Y1495284D02*
X1825891Y1487890D01*
Y1352284D01*
G54D14*
X877165Y936220D02*
X893307Y952362D01*
X485379Y731738D02*
Y831144D01*
X590456Y936220D01*
X877165D01*
X635675Y1087738D02*
X485379D01*
X892717Y1159842D02*
X850455Y1117581D01*
X665517D01*
X635675Y1087738D01*
X861677Y2472504D02*
X484709D01*
X891142Y2501968D02*
X861677Y2472504D01*
X896654Y1827362D02*
X849030Y1779738D01*
X485379D01*
X896654Y1855709D02*
Y1827362D01*
G54D18*
X1198923Y760459D02*
X1223529Y735852D01*
G54D19*
X2068017Y1720101D02*
X2101579Y1753663D01*
G54D18*
X1197938Y634254D02*
X1223529Y659844D01*
G54D19*
X2101579Y1753663D02*
X2440064D01*
G54D18*
X1223529Y659844D02*
Y735852D01*
G54D19*
X2081693Y2390945D02*
X2094687Y2403939D01*
X1322328Y575199D02*
X1658568D01*
X2489788Y2403939D02*
X2540064Y2353663D01*
X1294395Y547266D02*
X1322328Y575199D01*
X1658568D02*
X1686738Y603368D01*
X2014867D01*
X2094687Y2403939D02*
X2489788D01*
X2052269Y1992521D02*
X2125104D01*
X2136915Y2004332D02*
X2489395D01*
X2125104Y1992521D02*
X2136915Y2004332D01*
X2489395D02*
X2540064Y1953663D01*
G54D21*
X1131496Y721850D02*
Y912527D01*
X1631993Y601006D02*
X1719592Y688604D01*
X1093732Y922856D02*
X1121167D01*
X1394786Y601006D02*
X1169395D01*
X1122151Y712505D02*
X1131496Y721850D01*
X1394786Y601006D02*
X1631993D01*
X1169395D02*
X1122151Y648250D01*
X1121167Y922856D02*
Y996675D01*
X1193017Y1068526D02*
X1298923D01*
X1122151Y648250D02*
Y712505D01*
X1719592Y688604D02*
Y825415D01*
X1131496Y912527D02*
X1121167Y922856D01*
X1091552Y920677D02*
X1093732Y922856D01*
X1121167Y996675D02*
X1193017Y1068526D01*
X1335734Y1105337D02*
Y1192541D01*
X1298923Y1068526D02*
X1335734Y1105337D01*
G54D24*
X484702Y2116504D03*
X485371Y1423748D03*
Y731740D03*
%LPC*%
G75*
X485371Y731740D02*
G54D25*
X1578807Y3408169D02*
X1572639Y3407296D01*
X1566685Y3405462D01*
X1561095Y3402712D01*
X1556008Y3399116D01*
X1551551Y3394763D01*
X1547837Y3389761D01*
X1544956Y3384238D01*
X1542983Y3378329D01*
X1541965Y3372182D01*
X1541929Y3365953D01*
X1542875Y3359795D01*
X1544779Y3353864D01*
X1547594Y3348306D01*
X1551251Y3343262D01*
X1555656Y3338857D01*
X1560701Y3335202D01*
X1566258Y3332387D01*
X1572190Y3330483D01*
X1578348Y3329538D01*
X1578641Y3329518D01*
X668094Y729062D02*
X823819Y728937D01*
X2933599Y730381D02*
Y1031295D01*
X1708372Y2494294D02*
X1708863Y2490488D01*
X1710303Y2486932D01*
X1712599Y2483857D01*
X1715599Y2481465D01*
X1719108Y2479913D01*
X1722896Y2479302D01*
X1726715Y2479671D01*
X1730316Y2480998D01*
X1733462Y2483195D01*
X1735948Y2486118D01*
X1737611Y2489576D01*
X1738342Y2493343D01*
X1738372Y2494294D01*
X514687Y3230082D02*
X514725Y2974267D01*
X0Y3700787D02*
X3307087D01*
Y0D01*
X0D01*
Y3700787D01*
X1178371Y2964517D02*
X1177880Y2968323D01*
X1176440Y2971879D01*
X1174145Y2974954D01*
X1171144Y2977346D01*
X1167635Y2978898D01*
X1163847Y2979509D01*
X1160028Y2979140D01*
X1156427Y2977813D01*
X1153281Y2975616D01*
X1150795Y2972693D01*
X1149132Y2969235D01*
X1148401Y2965468D01*
X1148371Y2964517D01*
X314820Y2437601D02*
X315585Y2431413D01*
X317315Y2425422D01*
X319966Y2419779D01*
X323474Y2414624D01*
X327749Y2410085D01*
X332685Y2406276D01*
X338160Y2403291D01*
X344036Y2401206D01*
X350168Y2400073D01*
X356401Y2399919D01*
X362581Y2400748D01*
X368553Y2402541D01*
X374169Y2405251D01*
X379287Y2408812D01*
X383781Y2413134D01*
X387539Y2418110D01*
X390466Y2423615D01*
X392489Y2429513D01*
X393559Y2435656D01*
X393662Y2437007D01*
X393747Y1473399D02*
X392962Y1479580D01*
X391213Y1485559D01*
X388543Y1491188D01*
X385019Y1496327D01*
X380730Y1500845D01*
X375782Y1504631D01*
X370300Y1507591D01*
X364419Y1509649D01*
X358288Y1510755D01*
X352059Y1510881D01*
X345888Y1510023D01*
X339929Y1508204D01*
X334331Y1505469D01*
X329235Y1501885D01*
X324767Y1497544D01*
X321038Y1492552D01*
X318144Y1487035D01*
X316154Y1481131D01*
X315120Y1474987D01*
X314972Y1472045D01*
X848710Y320030D02*
X859177Y317409D01*
X869839Y315754D01*
X880608Y315080D01*
X884063Y315073D01*
X686900Y627462D02*
X690041Y610545D01*
X694146Y593836D01*
X699202Y577390D01*
X705193Y561261D01*
X712098Y545501D01*
X719896Y530163D01*
X728559Y515298D01*
X738061Y500954D01*
X748369Y487177D01*
X759450Y474015D01*
X771268Y461509D01*
X783782Y449701D01*
X796954Y438630D01*
X810738Y428332D01*
X825089Y418841D01*
X839961Y410189D01*
X855305Y402403D01*
X867952Y396788D01*
X1099697Y2612667D02*
X1099735Y2797188D01*
X2933585Y1307130D02*
X2933632Y1300898D01*
X2934660Y1294751D01*
X2936644Y1288843D01*
X2939534Y1283321D01*
X2943258Y1278323D01*
X2947722Y1273975D01*
X2952816Y1270384D01*
X2958412Y1267640D01*
X2964370Y1265812D01*
X2970542Y1264945D01*
X2976773Y1265062D01*
X2982908Y1266159D01*
X2988794Y1268209D01*
X2994283Y1271160D01*
X2999239Y1274939D01*
X3003537Y1279452D01*
X3007071Y1284585D01*
X3009752Y1290212D01*
X3011514Y1296190D01*
X3012311Y1302371D01*
X3012291Y1306621D01*
X424692Y1228175D02*
X414342Y1227775D01*
X404077Y1226392D01*
X393990Y1224039D01*
X384173Y1220738D01*
X374714Y1216517D01*
X365699Y1211417D01*
X357211Y1205481D01*
X349325Y1198766D01*
X342113Y1191331D01*
X335642Y1183244D01*
X329969Y1174578D01*
X325146Y1165412D01*
X321217Y1155828D01*
X318216Y1145915D01*
X316173Y1135761D01*
X315104Y1125458D01*
X314972Y1122237D01*
X2293309Y2975981D02*
X2293373Y3229518D01*
X734422Y1991827D02*
Y1921353D01*
X1738372Y2964517D02*
X1737881Y2968323D01*
X1736441Y2971879D01*
X1734146Y2974954D01*
X1731145Y2977346D01*
X1727636Y2978898D01*
X1723848Y2979509D01*
X1720029Y2979140D01*
X1716428Y2977813D01*
X1713282Y2975616D01*
X1710796Y2972693D01*
X1709133Y2969235D01*
X1708402Y2965468D01*
X1708372Y2964517D01*
X830619Y1347280D02*
X834440Y1347694D01*
X838032Y1349062D01*
X841160Y1351296D01*
X843620Y1354249D01*
X845252Y1357728D01*
X845950Y1361508D01*
X845667Y1365341D01*
X844423Y1368978D01*
X842298Y1372181D01*
X839431Y1374741D01*
X836009Y1376491D01*
X832256Y1377318D01*
X830619Y1377374D01*
X2024601Y315150D02*
X1768588D01*
X593371Y3229518D02*
X593408Y2975930D01*
X867952Y396787D02*
X873914Y394827D01*
X880108Y393823D01*
X886384Y393801D01*
X892586Y394761D01*
X898561Y396680D01*
X904162Y399510D01*
X909251Y403181D01*
X913704Y407604D01*
X917409Y412669D01*
X920277Y418251D01*
X922236Y424213D01*
X923238Y430408D01*
X923371Y433662D01*
X2372057Y3230093D02*
X2371522Y3243357D01*
X2370004Y3256545D01*
X2367510Y3269584D01*
X2364055Y3282402D01*
X2359658Y3294928D01*
X2354342Y3307092D01*
X2348138Y3318828D01*
X2341080Y3330072D01*
X2333206Y3340759D01*
X2324560Y3350833D01*
X2315190Y3360237D01*
X2305147Y3368919D01*
X2294488Y3376831D01*
X2283270Y3383930D01*
X2271556Y3390176D01*
X2259411Y3395535D01*
X2246901Y3399978D01*
X2234096Y3403479D01*
X2221066Y3406019D01*
X2207884Y3407585D01*
X2194621Y3408168D01*
X2194272Y3408170D01*
X1578807D01*
X2933548Y2473664D02*
Y2177911D01*
X1218371Y463662D02*
X1217879Y469074D01*
X1216419Y474308D01*
X1214038Y479193D01*
X1210816Y483568D01*
X1206857Y487290D01*
X1202291Y490237D01*
X1197269Y492312D01*
X1191955Y493447D01*
X1186524Y493605D01*
X1181152Y492781D01*
X1176018Y491001D01*
X1171289Y488324D01*
X1167121Y484838D01*
X1163650Y480658D01*
X1160989Y475919D01*
X1159227Y470779D01*
X1158422Y465405D01*
X1158371Y463662D01*
X393747Y1119262D02*
Y1053226D01*
X734406Y1298647D02*
Y1228173D01*
X610469Y606470D02*
X614356Y587573D01*
X619205Y568899D01*
X625002Y550497D01*
X631732Y532416D01*
X639378Y514702D01*
X647919Y497403D01*
X657334Y480563D01*
X667598Y464226D01*
X678683Y448436D01*
X690561Y433233D01*
X703201Y418657D01*
X716570Y404747D01*
X730632Y391538D01*
X745352Y379065D01*
X760690Y367361D01*
X776606Y356457D01*
X793059Y346381D01*
X810005Y337159D01*
X827401Y328816D01*
X845200Y321373D01*
X848710Y320030D01*
X423747Y1841462D02*
X418335Y1840970D01*
X413101Y1839509D01*
X408216Y1837129D01*
X403841Y1833906D01*
X400119Y1829947D01*
X397172Y1825381D01*
X395097Y1820359D01*
X393962Y1815045D01*
X393747Y1811463D01*
X1787047Y2612678D02*
X2874417D01*
X692471Y3408158D02*
X1307936D01*
X1148371Y2494294D02*
X1148862Y2490488D01*
X1150302Y2486932D01*
X1152598Y2483857D01*
X1155598Y2481465D01*
X1159107Y2479913D01*
X1162895Y2479302D01*
X1166714Y2479671D01*
X1170315Y2480998D01*
X1173461Y2483195D01*
X1175947Y2486118D01*
X1177610Y2489576D01*
X1178341Y2493343D01*
X1178371Y2494294D01*
X314972Y1404388D02*
Y1472045D01*
X964279Y2875941D02*
X1118409Y2875930D01*
X1578641Y3329518D02*
X2193373D01*
X830619Y1179303D02*
X813297Y1179339D01*
X2193881Y2797249D02*
X2207149Y2797789D01*
X2220341Y2799313D01*
X2233383Y2801812D01*
X2246204Y2805272D01*
X2258732Y2809674D01*
X2270899Y2814995D01*
X2282637Y2821204D01*
X2293882Y2828267D01*
X2304572Y2836145D01*
X2314647Y2844795D01*
X2324053Y2854170D01*
X2332736Y2864217D01*
X2340650Y2874880D01*
X2347750Y2886102D01*
X2353998Y2897820D01*
X2359358Y2909969D01*
X2363801Y2922483D01*
X2367304Y2935292D01*
X2369846Y2948326D01*
X2371413Y2961513D01*
X2371993Y2974329D01*
X423836Y2069496D02*
X783320Y2069468D01*
X822835Y673226D02*
X828267Y673520D01*
X833556Y674788D01*
X838531Y676988D01*
X843028Y680049D01*
X846899Y683870D01*
X850019Y688326D01*
X852284Y693271D01*
X853622Y698544D01*
X853906Y700952D01*
X813296Y1347240D02*
X813281Y1179333D01*
X1118409Y2875929D02*
X1123821Y2876422D01*
X1129055Y2877883D01*
X1133940Y2880264D01*
X1138315Y2883487D01*
X1142038Y2887447D01*
X1144984Y2892012D01*
X1147059Y2897035D01*
X1148194Y2902350D01*
X1148409Y2905930D01*
X2933550Y2473664D02*
X2933057Y2481338D01*
X2931587Y2488886D01*
X2929164Y2496184D01*
X2925826Y2503113D01*
X2921631Y2509557D01*
X2916645Y2515412D01*
X2910951Y2520581D01*
X2904644Y2524979D01*
X2897825Y2528534D01*
X2890607Y2531189D01*
X2883110Y2532898D01*
X2875455Y2533634D01*
X2873548Y2533664D01*
X830710Y1841335D02*
X783320Y1841371D01*
X1495357Y315073D02*
X884063D01*
X1148371Y2494294D02*
Y2533664D01*
X593410Y2975930D02*
X593903Y2966012D01*
X595377Y2956191D01*
X597818Y2946566D01*
X601202Y2937230D01*
X605495Y2928275D01*
X610655Y2919790D01*
X616631Y2911859D01*
X623364Y2904560D01*
X630788Y2897965D01*
X638830Y2892138D01*
X647409Y2887138D01*
X656443Y2883014D01*
X665841Y2879805D01*
X675510Y2877545D01*
X685357Y2876255D01*
X693409Y2875930D01*
X393747Y715162D02*
Y780246D01*
X830619Y1149209D02*
X834440Y1149622D01*
X838032Y1150990D01*
X841161Y1153223D01*
X843622Y1156175D01*
X845254Y1159655D01*
X845953Y1163434D01*
X845671Y1167267D01*
X844427Y1170904D01*
X842303Y1174107D01*
X839437Y1176668D01*
X836015Y1178419D01*
X832262Y1179247D01*
X830619Y1179303D01*
X423746Y1377366D02*
X783230Y1377338D01*
X734406Y1228173D02*
X424692D01*
X1218372Y433702D02*
X1218865Y427444D01*
X1220332Y421341D01*
X1222735Y415542D01*
X1226015Y410190D01*
X1230092Y405417D01*
X1234866Y401341D01*
X1240218Y398061D01*
X1246018Y395659D01*
X1252121Y394194D01*
X1258372Y393702D01*
X424775Y2612665D02*
X414383Y2612195D01*
X404082Y2610744D01*
X393964Y2608323D01*
X384122Y2604955D01*
X374642Y2600670D01*
X365611Y2595507D01*
X357109Y2589512D01*
X349213Y2582739D01*
X341995Y2575248D01*
X335518Y2567107D01*
X329841Y2558390D01*
X325014Y2549175D01*
X321083Y2539543D01*
X318081Y2529583D01*
X316035Y2519383D01*
X314965Y2509035D01*
X314820Y2505257D01*
X3012291Y1306621D02*
Y1903827D01*
X734422Y1991827D02*
X424709D01*
X1708372Y2494294D02*
Y2964517D01*
X734422Y1921353D02*
X424709D01*
X1158371Y447246D02*
Y463662D01*
X2150931Y673562D02*
X2153373Y673662D01*
X2873548D01*
X2933586Y1307130D02*
Y1904336D01*
X393717Y2099614D02*
X394206Y2094193D01*
X395662Y2088949D01*
X398040Y2084053D01*
X401260Y2079665D01*
X405218Y2075929D01*
X409784Y2072966D01*
X414809Y2070875D01*
X420129Y2069723D01*
X423836Y2069496D01*
X423747Y1149261D02*
X418335Y1148769D01*
X413101Y1147308D01*
X408216Y1144928D01*
X403841Y1141705D01*
X400119Y1137746D01*
X397172Y1133180D01*
X395097Y1128158D01*
X393962Y1122844D01*
X393747Y1119262D01*
X1767896Y393747D02*
X2003471D01*
X393915Y2163984D02*
X393718Y2099614D01*
X1099735Y2797188D02*
X964114Y2797290D01*
X1218371Y463662D02*
Y433702D01*
X783281Y1149333D02*
X423657D01*
X2003471Y393702D02*
X2009003Y393995D01*
X2014395Y395263D01*
X2015741Y395743D01*
X1787047Y2612678D02*
X1786983Y2797249D01*
X1922604Y2797317D02*
X1928769Y2798216D01*
X1934714Y2800076D01*
X1940293Y2802849D01*
X1945365Y2806467D01*
X1949803Y2810839D01*
X1953496Y2815856D01*
X1956353Y2821392D01*
X1958302Y2827309D01*
X1959294Y2833460D01*
X1959304Y2839689D01*
X1958332Y2845843D01*
X1956402Y2851766D01*
X1953563Y2857312D01*
X1949886Y2862340D01*
X1945462Y2866727D01*
X1940402Y2870361D01*
X1934832Y2873152D01*
X1928892Y2875031D01*
X1922731Y2875950D01*
X1922438Y2875969D01*
X2874905Y595091D02*
X2273714D01*
X1738372Y2964517D02*
X1738308Y2905980D01*
X668094Y729063D02*
X663723Y728572D01*
X659571Y727123D01*
X655844Y724788D01*
X652728Y721684D01*
X650380Y717965D01*
X648916Y713818D01*
X648543Y711669D01*
X3012069Y1031433D02*
X3011142Y1037587D01*
X3009256Y1043518D01*
X3006457Y1049077D01*
X3002817Y1054125D01*
X2998426Y1058535D01*
X2993394Y1062198D01*
X2987847Y1065021D01*
X2981925Y1066933D01*
X2975775Y1067888D01*
X2969551Y1067860D01*
X2963410Y1066850D01*
X2957505Y1064885D01*
X2951984Y1062013D01*
X2946985Y1058305D01*
X2942634Y1053855D01*
X2939039Y1048775D01*
X2936290Y1043191D01*
X2934457Y1037244D01*
X2933599Y1031295D01*
X393749Y1407363D02*
X394240Y1401952D01*
X395700Y1396718D01*
X398079Y1391833D01*
X401301Y1387458D01*
X405259Y1383736D01*
X409824Y1380789D01*
X414846Y1378713D01*
X420159Y1377578D01*
X423747Y1377363D01*
X830619Y1377374D02*
X783230Y1377338D01*
X983371Y463662D02*
X982879Y469074D01*
X981419Y474308D01*
X979038Y479193D01*
X975816Y483568D01*
X971857Y487290D01*
X967291Y490237D01*
X962269Y492312D01*
X956955Y493447D01*
X951524Y493605D01*
X946152Y492781D01*
X941018Y491001D01*
X936289Y488324D01*
X932121Y484838D01*
X928650Y480658D01*
X925989Y475919D01*
X924227Y470779D01*
X923422Y465405D01*
X923371Y463662D01*
X830709Y2039406D02*
X813386Y2039370D01*
X1258372Y393702D02*
X1495824D01*
X1786983Y2797249D02*
X1922604Y2797318D01*
X393662Y2437007D02*
Y2503262D01*
X393912Y2163984D02*
X393342Y2170194D01*
X391802Y2176236D01*
X389329Y2181961D01*
X385986Y2187225D01*
X381856Y2191897D01*
X377041Y2195860D01*
X371663Y2199016D01*
X365855Y2201286D01*
X359762Y2202613D01*
X353536Y2202964D01*
X347332Y2202330D01*
X341306Y2200728D01*
X335607Y2198196D01*
X330377Y2194799D01*
X325748Y2190621D01*
X321834Y2185766D01*
X318734Y2180356D01*
X316524Y2174525D01*
X315260Y2168418D01*
X314989Y2165225D01*
X393747Y1407363D02*
Y1473399D01*
X734406Y1298647D02*
X424692D01*
X2873548Y673661D02*
X2881232Y674154D01*
X2888790Y675625D01*
X2896098Y678050D01*
X2903037Y681388D01*
X2909493Y685585D01*
X2915359Y690572D01*
X2920540Y696268D01*
X2924952Y702579D01*
X2928520Y709402D01*
X2931189Y716625D01*
X2932912Y724129D01*
X2933599Y730381D01*
X1099697Y2612667D02*
X424775D01*
X423747Y2533663D02*
X418327Y2533171D01*
X413085Y2531710D01*
X408192Y2529329D01*
X403807Y2526106D01*
X400075Y2522145D01*
X397117Y2517578D01*
X395031Y2512552D01*
X393883Y2507232D01*
X393662Y2503262D01*
X1495357Y315073D02*
X1501519Y316001D01*
X1507458Y317889D01*
X1513026Y320688D01*
X1518082Y324330D01*
X1522502Y328723D01*
X1526175Y333758D01*
X1529008Y339308D01*
X1530932Y345236D01*
X1531898Y351392D01*
X1531881Y357624D01*
X1530884Y363775D01*
X1528929Y369693D01*
X1526066Y375228D01*
X1522368Y380243D01*
X1517925Y384613D01*
X1512849Y388229D01*
X1507267Y390999D01*
X1501318Y392856D01*
X1495824Y393702D01*
X1148371Y2533664D02*
X423747D01*
X964279Y2875941D02*
X958111Y2875068D01*
X952157Y2873234D01*
X946567Y2870484D01*
X941480Y2866888D01*
X937023Y2862535D01*
X933309Y2857534D01*
X930428Y2852010D01*
X928455Y2846101D01*
X927437Y2839955D01*
X927401Y2833725D01*
X928346Y2827567D01*
X930251Y2821636D01*
X933066Y2816079D01*
X936723Y2811034D01*
X941128Y2806630D01*
X946173Y2802974D01*
X951730Y2800159D01*
X957662Y2798256D01*
X963820Y2797310D01*
X964114Y2797290D01*
X692836Y2797188D02*
X699018Y2797972D01*
X705000Y2799720D01*
X710631Y2802388D01*
X715772Y2805911D01*
X720294Y2810199D01*
X724083Y2815146D01*
X727046Y2820629D01*
X729108Y2826509D01*
X730218Y2832642D01*
X730347Y2838872D01*
X729494Y2845045D01*
X727678Y2851006D01*
X724946Y2856607D01*
X721366Y2861708D01*
X717026Y2866181D01*
X712037Y2869914D01*
X706521Y2872815D01*
X700617Y2874810D01*
X694473Y2875850D01*
X693409Y2875930D01*
X3012292Y1903827D02*
X3011599Y1910016D01*
X3009938Y1916019D01*
X3007352Y1921685D01*
X3003906Y1926872D01*
X2999684Y1931451D01*
X2994794Y1935308D01*
X2989356Y1938345D01*
X2983508Y1940487D01*
X2977396Y1941681D01*
X2971171Y1941895D01*
X2964991Y1941126D01*
X2959009Y1939392D01*
X2953375Y1936737D01*
X2948230Y1933227D01*
X2943703Y1928950D01*
X2939907Y1924013D01*
X2936937Y1918539D01*
X2934866Y1912665D01*
X2933748Y1906538D01*
X2933586Y1904336D01*
X393746Y780246D02*
X393090Y786441D01*
X391465Y792455D01*
X388913Y798138D01*
X385497Y803348D01*
X381303Y807955D01*
X376435Y811843D01*
X371016Y814915D01*
X365180Y817094D01*
X359073Y818327D01*
X352849Y818582D01*
X346662Y817852D01*
X340667Y816157D01*
X335014Y813538D01*
X329845Y810061D01*
X325288Y805813D01*
X321458Y800899D01*
X318450Y795444D01*
X316340Y789582D01*
X315180Y783461D01*
X314970Y780490D01*
X1738372Y2533664D02*
Y2494294D01*
X314972Y1122237D02*
Y1054580D01*
X2180619Y559060D02*
X2182555Y565031D01*
X2183533Y571230D01*
X2183528Y577507D01*
X2182543Y583705D01*
X2180599Y589673D01*
X2177746Y595264D01*
X2174053Y600339D01*
X2169612Y604774D01*
X2164532Y608460D01*
X2158937Y611305D01*
X2152967Y613241D01*
X2149208Y613952D01*
X1178371Y2964517D02*
Y2494294D01*
X813386Y2039370D02*
X813371Y1871463D01*
X1768308Y2875980D02*
X1922438Y2875969D01*
X830710Y1841338D02*
X834531Y1841751D01*
X838123Y1843119D01*
X841252Y1845352D01*
X843713Y1848304D01*
X845346Y1851784D01*
X846044Y1855563D01*
X845762Y1859397D01*
X844519Y1863033D01*
X842395Y1866237D01*
X839528Y1868798D01*
X836107Y1870549D01*
X832354Y1871377D01*
X830710Y1871433D01*
X2873548Y2533664D02*
X1738372D01*
X853907Y700953D02*
X852999Y706339D01*
X851140Y711474D01*
X848389Y716193D01*
X844836Y720341D01*
X840596Y723783D01*
X835807Y726409D01*
X830624Y728133D01*
X825216Y728899D01*
X823819Y728937D01*
X2293373Y3229518D02*
X2292879Y3239437D01*
X2291404Y3249257D01*
X2288963Y3258883D01*
X2285578Y3268220D01*
X2281285Y3277174D01*
X2276124Y3285659D01*
X2270147Y3293590D01*
X2263413Y3300889D01*
X2255989Y3307484D01*
X2247947Y3313311D01*
X2239367Y3318311D01*
X2230333Y3322435D01*
X2220934Y3325643D01*
X2211264Y3327903D01*
X2201418Y3329193D01*
X2193373Y3329518D01*
X830619Y1149205D02*
X783230Y1149241D01*
X314989Y1747760D02*
X315562Y1741556D01*
X317105Y1735520D01*
X319580Y1729802D01*
X322926Y1724547D01*
X327057Y1719883D01*
X331872Y1715930D01*
X337250Y1712784D01*
X343057Y1710525D01*
X349147Y1709210D01*
X355368Y1708871D01*
X361564Y1709516D01*
X367582Y1711130D01*
X373270Y1713672D01*
X378487Y1717078D01*
X383101Y1721264D01*
X386998Y1726125D01*
X390081Y1731539D01*
X392271Y1737372D01*
X393516Y1743477D01*
X393764Y1746406D01*
X830709Y2039409D02*
X834530Y2039823D01*
X838122Y2041191D01*
X841250Y2043425D01*
X843711Y2046378D01*
X845343Y2049858D01*
X846040Y2053637D01*
X845758Y2057471D01*
X844513Y2061107D01*
X842389Y2064310D01*
X839522Y2066870D01*
X836100Y2068621D01*
X832346Y2069448D01*
X830709Y2069504D01*
X314989Y1815417D02*
Y1747760D01*
X2015741Y395744D02*
X2031493Y402613D01*
X2046825Y410375D01*
X2061686Y419003D01*
X2076027Y428471D01*
X2089801Y438746D01*
X2102963Y449795D01*
X2115469Y461580D01*
X2127278Y474065D01*
X2138351Y487206D01*
X2148652Y500961D01*
X2158146Y515285D01*
X2166802Y530130D01*
X2174592Y545447D01*
X2180620Y559059D01*
X314973Y1404388D02*
X315736Y1394068D01*
X317477Y1383868D01*
X320182Y1373879D01*
X323825Y1364194D01*
X328374Y1354899D01*
X333787Y1346079D01*
X340014Y1337815D01*
X347001Y1330181D01*
X354682Y1323247D01*
X362988Y1317076D01*
X371844Y1311724D01*
X381170Y1307238D01*
X390880Y1303661D01*
X400887Y1301025D01*
X411099Y1299353D01*
X421424Y1298661D01*
X424692Y1298647D01*
X424709Y1921355D02*
X414359Y1920955D01*
X404094Y1919572D01*
X394007Y1917219D01*
X384190Y1913918D01*
X374731Y1909698D01*
X365716Y1904597D01*
X357228Y1898662D01*
X349342Y1891947D01*
X342131Y1884512D01*
X335659Y1876425D01*
X329986Y1867759D01*
X325163Y1858593D01*
X321234Y1849010D01*
X318233Y1839096D01*
X316190Y1828942D01*
X315121Y1818640D01*
X314989Y1815417D01*
X693371Y3329519D02*
X683453Y3329026D01*
X673633Y3327552D01*
X664007Y3325112D01*
X654671Y3321728D01*
X645716Y3317436D01*
X637232Y3312276D01*
X629301Y3306300D01*
X622002Y3299567D01*
X615406Y3292144D01*
X609580Y3284102D01*
X604579Y3275523D01*
X600455Y3266490D01*
X597246Y3257092D01*
X594986Y3247422D01*
X593696Y3237576D01*
X593371Y3229518D01*
X983371Y463662D02*
Y447246D01*
X1158371D01*
X830709Y2069504D02*
X783320Y2069468D01*
X830619Y1347276D02*
X813296Y1347240D01*
X314970Y715407D02*
X315447Y705061D01*
X316906Y694807D01*
X319334Y684738D01*
X322708Y674946D01*
X326999Y665520D01*
X332167Y656544D01*
X338164Y648100D01*
X344938Y640265D01*
X352427Y633110D01*
X360561Y626700D01*
X369269Y621092D01*
X378471Y616338D01*
X388083Y612481D01*
X398018Y609555D01*
X408187Y607588D01*
X418496Y606596D01*
X423578Y606470D01*
X3012097Y2474538D02*
X3012336Y2178785D01*
X1148409Y2905930D02*
X1148371Y2964517D01*
X726378Y673225D02*
X720144Y672778D01*
X714058Y671358D01*
X708270Y668999D01*
X702925Y665760D01*
X698155Y661721D01*
X694079Y656983D01*
X690798Y651664D01*
X688393Y645895D01*
X686924Y639821D01*
X686427Y633590D01*
X686900Y627462D01*
X393749Y715162D02*
X394240Y709751D01*
X395700Y704517D01*
X398079Y699632D01*
X401301Y695257D01*
X405259Y691535D01*
X409824Y688588D01*
X414846Y686512D01*
X420159Y685377D01*
X423747Y685162D01*
X314989Y2097568D02*
Y2165225D01*
X514726Y2974267D02*
X515343Y2961002D01*
X516943Y2947820D01*
X519517Y2934793D01*
X523051Y2921993D01*
X527526Y2909490D01*
X532917Y2897354D01*
X539193Y2885652D01*
X546321Y2874448D01*
X554262Y2863805D01*
X562970Y2853780D01*
X572399Y2844429D01*
X582496Y2835804D01*
X593205Y2827953D01*
X604467Y2820918D01*
X616221Y2814739D01*
X628401Y2809449D01*
X640940Y2805078D01*
X653769Y2801650D01*
X666818Y2799184D01*
X680013Y2797694D01*
X692836Y2797188D01*
X2193309Y2875982D02*
X2203227Y2876475D01*
X2213047Y2877948D01*
X2222673Y2880389D01*
X2232009Y2883772D01*
X2240963Y2888065D01*
X2249448Y2893224D01*
X2257379Y2899200D01*
X2264678Y2905932D01*
X2271274Y2913356D01*
X2277100Y2921397D01*
X2282100Y2929977D01*
X2286225Y2939010D01*
X2289434Y2948407D01*
X2291694Y2958077D01*
X2292984Y2967923D01*
X2293309Y2975981D01*
X1767896Y393747D02*
X1761705Y393131D01*
X1755689Y391546D01*
X1749998Y389032D01*
X1744775Y385650D01*
X1740151Y381488D01*
X1736242Y376647D01*
X1733146Y371250D01*
X1730941Y365433D01*
X1729681Y359340D01*
X1729398Y353125D01*
X1730100Y346943D01*
X1731768Y340949D01*
X1734361Y335294D01*
X1737815Y330119D01*
X1742041Y325553D01*
X1746936Y321712D01*
X1752375Y318691D01*
X1758222Y316566D01*
X1764332Y315391D01*
X1768588Y315150D01*
X314970Y715407D02*
Y780490D01*
X1308102Y3329507D02*
X693371D01*
X314820Y2505257D02*
Y2437601D01*
X2193309Y2875979D02*
X2187139Y2875106D01*
X2181184Y2873271D01*
X2175593Y2870521D01*
X2170504Y2866924D01*
X2166046Y2862570D01*
X2162330Y2857569D01*
X2159447Y2852044D01*
X2157472Y2846134D01*
X2156452Y2839987D01*
X2156414Y2833756D01*
X2157358Y2827596D01*
X2159261Y2821663D01*
X2162074Y2816103D01*
X2165729Y2811056D01*
X2170133Y2806648D01*
X2175177Y2802989D01*
X2180734Y2800170D01*
X2186666Y2798262D01*
X2192825Y2797313D01*
X2193881Y2797249D01*
X692471Y3408159D02*
X679207Y3407602D01*
X666022Y3406062D01*
X652987Y3403546D01*
X640175Y3400070D01*
X627657Y3395652D01*
X615501Y3390316D01*
X603775Y3384093D01*
X592543Y3377016D01*
X581868Y3369124D01*
X571809Y3360461D01*
X562420Y3351076D01*
X553755Y3341019D01*
X545860Y3330346D01*
X538780Y3319117D01*
X532553Y3307392D01*
X527214Y3295238D01*
X522792Y3282721D01*
X519312Y3269910D01*
X516793Y3256876D01*
X515249Y3243691D01*
X514688Y3230427D01*
X514687Y3230082D01*
X314988Y2097568D02*
X315750Y2087248D01*
X317491Y2077048D01*
X320196Y2067060D01*
X323839Y2057374D01*
X328387Y2048079D01*
X333800Y2039260D01*
X340027Y2030996D01*
X347013Y2023362D01*
X354694Y2016428D01*
X363001Y2010256D01*
X371857Y2004904D01*
X381182Y2000419D01*
X390892Y1996841D01*
X400899Y1994205D01*
X411110Y1992533D01*
X421435Y1991841D01*
X424709Y1991827D01*
X1738307Y2905980D02*
X1738799Y2900568D01*
X1740259Y2895334D01*
X1742640Y2890450D01*
X1745862Y2886074D01*
X1749821Y2882352D01*
X1754387Y2879405D01*
X1759409Y2877330D01*
X1764723Y2876195D01*
X1768308Y2875980D01*
X822835Y673228D02*
X726378D01*
X3012096Y2474538D02*
X3011529Y2486234D01*
X3009980Y2497842D01*
X3007459Y2509277D01*
X3003985Y2520461D01*
X2999582Y2531312D01*
X2994281Y2541753D01*
X2988121Y2551712D01*
X2981144Y2561117D01*
X2973401Y2569902D01*
X2964945Y2578004D01*
X2955838Y2585365D01*
X2946144Y2591934D01*
X2935931Y2597663D01*
X2925273Y2602513D01*
X2914244Y2606449D01*
X2902922Y2609443D01*
X2891389Y2611473D01*
X2879727Y2612525D01*
X2874417Y2612678D01*
X423747Y685162D02*
X618747D01*
X393747Y1811463D02*
X393764Y1746406D01*
X2372056Y3230093D02*
X2371993Y2974329D01*
X314972Y1054580D02*
X315544Y1048376D01*
X317087Y1042340D01*
X319562Y1036622D01*
X322906Y1031366D01*
X327038Y1026702D01*
X331852Y1022748D01*
X337230Y1019602D01*
X343036Y1017343D01*
X349126Y1016027D01*
X355347Y1015687D01*
X361543Y1016331D01*
X367561Y1017944D01*
X373250Y1020486D01*
X378466Y1023892D01*
X383081Y1028077D01*
X386979Y1032938D01*
X390062Y1038352D01*
X392253Y1044184D01*
X393498Y1050289D01*
X393747Y1053226D01*
X1308102Y3329506D02*
X1314267Y3330406D01*
X1320212Y3332265D01*
X1325791Y3335039D01*
X1330862Y3338657D01*
X1335300Y3343029D01*
X1338993Y3348046D01*
X1341850Y3353583D01*
X1343798Y3359500D01*
X1344790Y3365651D01*
X1344799Y3371880D01*
X1343827Y3378034D01*
X1341897Y3383957D01*
X1339058Y3389503D01*
X1335380Y3394531D01*
X1330956Y3398917D01*
X1325896Y3402551D01*
X1320326Y3405342D01*
X1314386Y3407220D01*
X1308225Y3408139D01*
X1307936Y3408158D01*
X610470Y606470D02*
X423578D01*
X3012066Y730519D02*
Y1031432D01*
X923371Y433662D02*
Y463662D01*
X618747Y685163D02*
X624159Y685655D01*
X629393Y687115D01*
X634277Y689495D01*
X638653Y692718D01*
X642375Y696676D01*
X645322Y701242D01*
X647397Y706264D01*
X648532Y711578D01*
X648543Y711669D01*
X2024601Y315150D02*
X2042750Y321808D01*
X2060536Y329384D01*
X2077911Y337857D01*
X2094832Y347206D01*
X2111254Y357406D01*
X2127134Y368431D01*
X2142431Y380252D01*
X2157104Y392838D01*
X2171116Y406156D01*
X2184431Y420172D01*
X2197013Y434848D01*
X2208829Y450148D01*
X2219850Y466031D01*
X2230046Y482456D01*
X2239390Y499379D01*
X2247859Y516757D01*
X2255430Y534545D01*
X2262083Y552695D01*
X2267802Y571162D01*
X2272570Y589896D01*
X2273714Y595091D01*
X2150931Y673561D02*
X2145577Y672631D01*
X2140479Y670751D01*
X2135804Y667982D01*
X2131705Y664415D01*
X2128316Y660167D01*
X2125750Y655377D01*
X2124089Y650203D01*
X2123389Y644815D01*
X2123673Y639388D01*
X2124931Y634102D01*
X2127122Y629130D01*
X2130174Y624634D01*
X2133987Y620762D01*
X2138435Y617642D01*
X2143374Y615375D01*
X2148640Y614037D01*
X2149207Y613952D01*
X2874905Y595093D02*
X2886581Y595701D01*
X2898164Y597290D01*
X2909571Y599850D01*
X2920723Y603363D01*
X2931538Y607803D01*
X2941941Y613139D01*
X2951857Y619333D01*
X2961215Y626341D01*
X2969950Y634113D01*
X2977998Y642593D01*
X2985303Y651721D01*
X2991813Y661433D01*
X2997481Y671659D01*
X3002266Y682326D01*
X3006136Y693359D01*
X3009061Y704678D01*
X3011022Y716204D01*
X3012005Y727854D01*
X3012091Y730518D01*
X830710Y1871433D02*
X813387Y1871469D01*
X2933547Y2177911D02*
X2934169Y2171713D01*
X2935761Y2165690D01*
X2938282Y2159994D01*
X2941669Y2154766D01*
X2945838Y2150137D01*
X2950684Y2146223D01*
X2956087Y2143122D01*
X2961910Y2140912D01*
X2968010Y2139646D01*
X2974232Y2139358D01*
X2980423Y2140055D01*
X2986426Y2141718D01*
X2992092Y2144307D01*
X2997279Y2147756D01*
X3001857Y2151980D01*
X3005713Y2156872D01*
X3008749Y2162312D01*
X3010890Y2168161D01*
X3012083Y2174275D01*
X3012336Y2178785D01*
X783371Y1841463D02*
X423747D01*
G54D26*
X1690414Y1466650D02*
X1703241Y1475943D01*
X1690333Y1459898D02*
X1702825Y1450659D01*
%LPD*%
G75*
X1702825Y1450659D02*
G54D27*
X2148718Y3119693D03*
X2168403D03*
X2188088D03*
X2207773D03*
X2227458D03*
G54D28*
X157481Y157155D03*
X3149608Y3542982D03*
X157480Y3543307D03*
X3149608Y157155D03*
G36*
X31511Y38889D02*
X31511Y134905D01*
X53761Y157155D01*
X102361D01*
G03X212601Y157155I55120J0D01*
G01X492795D01*
X367188Y31548D01*
X38463D01*
X37445Y31735D01*
X36816Y31922D01*
X35790Y32357D01*
X34685Y33041D01*
X33755Y33850D01*
X32970Y34783D01*
X32331Y35841D01*
X31854Y37022D01*
X31574Y38267D01*
X31511Y38889D01*
G37*
G36*
X53761Y157155D02*
X184006Y287401D01*
G03X263489Y366883I-26509J105991D01*
G01X471617Y575012D01*
X584990Y574969D01*
G03X706532Y370892I396694J98025D01*
G01X576476Y240836D01*
X501920D01*
Y166280D01*
X492795Y157155D01*
X212601D01*
G03X102361Y157155I-55120J0D01*
G01X53761D01*
G37*
G36*
X55175Y158155D02*
X101361D01*
G02X101361Y156155I0J-1000D01*
G01X55175D01*
G02X55175Y158155I0J1000D01*
G37*
G36*
X213601D02*
G01X491381D01*
G02X491381Y156155I0J-1000D01*
G01X213601D01*
G02X213601Y158155I0J1000D01*
G37*
G36*
X31511Y168312D02*
G01X31513Y607348D01*
X283495Y859330D01*
X283500Y712504D01*
G03X419730Y575031I140240J2737D01*
G01X438223Y575024D01*
X266319Y403120D01*
G03X147769Y284570I-108822J-9728D01*
G01X31511Y168312D01*
G37*
G36*
X31513Y640755D02*
X31514Y1079790D01*
X283478Y1331754D01*
X283494Y892736D01*
X31513Y640755D01*
G37*
G36*
X31514Y1113197D02*
X31516Y1552233D01*
X283461Y1804178D01*
X283477Y1365160D01*
X31514Y1113197D01*
G37*
G36*
X31516Y1585640D02*
X31517Y2024675D01*
X283444Y2276602D01*
X283460Y1837583D01*
X31516Y1585640D01*
G37*
G36*
X31517Y2058082D02*
X31519Y2497118D01*
X484786Y2950385D01*
G03X693269Y2765695I208680J25547D01*
G01X704453Y2766939D01*
X740374D01*
X617601Y2644166D01*
X422509Y2644147D01*
G03X293535Y2555754I2010J-141221D01*
G03X283435Y2535164I21294J-23218D01*
G01X283443Y2310007D01*
X31517Y2058082D01*
G37*
G36*
X31519Y2530525D02*
X31520Y2969560D01*
X731227Y3669267D01*
X1170253Y3669259D01*
X940584Y3439590D01*
X689430Y3439621D01*
G03X483191Y3230053I3898J-210101D01*
G01X483228Y2982233D01*
X31519Y2530525D01*
G37*
G36*
X31521Y3002967D02*
X31522Y3306783D01*
X48256D01*
G03X266738Y3306783I109241J0D01*
G01X335336D01*
X31521Y3002967D01*
G37*
G36*
X31522Y3306783D02*
X31522Y3442003D01*
X108178Y3518659D01*
G03X182128Y3592609I49302J24648D01*
G01X258796Y3669276D01*
X697821Y3669268D01*
X335336Y3306783D01*
X266738D01*
G03X48256Y3306783I-109241J0D01*
G01X31522D01*
G37*
G36*
X32522Y3307783D02*
X47256D01*
G02X47256Y3305783I0J-1000D01*
G01X32522D01*
G02X32522Y3307783I0J1000D01*
G37*
G36*
X267738D02*
G01X333922D01*
G02X333922Y3305783I0J-1000D01*
G01X267738D01*
G02X267738Y3307783I0J1000D01*
G37*
G36*
X31522Y3475410D02*
G01X31523Y3662065D01*
G02X38969Y3669281I7848J-648D01*
G01X225390Y3669277D01*
X154456Y3598344D01*
G03X102443Y3546331I3024J-55037D01*
G01X31522Y3475410D01*
G37*
G36*
X400595Y31548D02*
X501920Y132873D01*
Y74874D01*
X882955D01*
X839629Y31548D01*
X400595D01*
G37*
G36*
X609883Y240836D02*
X724501Y355454D01*
G03X839383Y289947I257183J317540D01*
G01X852084Y286712D01*
X865608Y284535D01*
X874465Y283789D01*
X1091846Y283765D01*
X1048917Y240836D01*
X609883D01*
G37*
G36*
X651011Y2644169D02*
X773781Y2766939D01*
X953551D01*
X960218Y2766006D01*
X1068232Y2765695D01*
X1068207Y2644209D01*
X651011Y2644169D01*
G37*
G36*
X873036Y31548D02*
X916362Y74874D01*
X1355396D01*
X1312070Y31548D01*
X873036D01*
G37*
G36*
X973987Y3439586D02*
X1203659Y3669258D01*
X1642685Y3669250D01*
X1412967Y3439532D01*
X973987Y3439586D01*
G37*
G36*
X1082324Y240836D02*
X1125249Y283762D01*
X1564236Y283714D01*
X1521358Y240836D01*
X1082324D01*
G37*
G36*
X1345477Y31548D02*
X1388803Y74874D01*
X1723266D01*
Y240836D01*
X1554765D01*
X1597639Y283710D01*
X2026000Y283664D01*
X2032084Y284535D01*
X2040485Y287522D01*
X1784511Y31548D01*
X1345477D01*
G37*
G36*
X1446370Y3439528D02*
X1676091Y3669249D01*
X2115117Y3669241D01*
X1885350Y3439473D01*
X1446370Y3439528D01*
G37*
G36*
X1817918Y31548D02*
X2100802Y314433D01*
X2102064Y315078D01*
G03X2262882Y476512I-198790J358849D01*
G01X2349961Y563591D01*
X2789042Y563638D01*
X2256952Y31548D01*
X1817918D01*
G37*
G36*
X1818490Y2765757D02*
X2156515D01*
X2034942Y2644184D01*
X1818532Y2644209D01*
X1818490Y2765757D01*
G37*
G36*
X1918752Y3439469D02*
X2148523Y3669240D01*
X2587549Y3669232D01*
X2317465Y3399148D01*
G03X2203327Y3439434I-124047J-169616D01*
G01X1918752Y3439469D01*
G37*
G36*
X2068345Y2644180D02*
X2189922Y2765757D01*
G03X2403490Y2979325I3328J210240D01*
G01X2967147Y3542982D01*
X3094488D01*
G03X3204728Y3542982I55120J0D01*
G01X3275481D01*
X3275484Y3412285D01*
X3236374Y3373175D01*
G03X3083231Y3220032I-86751J-66392D01*
G01X2507327Y2644128D01*
X2068345Y2644180D01*
G37*
G36*
X2967147Y3542982D02*
X3093387Y3669222D01*
X3268783Y3669219D01*
G02X3275477Y3662749I-1066J-7802D01*
G01X3275481Y3542982D01*
X3204728D01*
G03X3094488Y3542982I-55120J0D01*
G01X2967147D01*
G37*
G36*
X2968561Y3543982D02*
X3093488D01*
G02X3093488Y3541982I0J-1000D01*
G01X2968561D01*
G02X2968561Y3543982I0J1000D01*
G37*
G36*
X3205728D02*
G01X3274481D01*
G02X3274481Y3541982I0J-1000D01*
G01X3205728D01*
G02X3205728Y3543982I0J1000D01*
G37*
G36*
X2289989Y537026D02*
G03X2298388Y563585I-386715J136900D01*
G01X2316550Y563587D01*
X2289989Y537026D01*
G37*
G36*
X2290359Y31548D02*
X2822452Y563642D01*
X2877965Y563648D01*
G03X3043563Y729174I-4417J170018D01*
G01X3043563Y784752D01*
X3275550Y1016739D01*
X3275562Y577717D01*
X3191958Y494113D01*
G03X3048902Y351058I-42334J-100721D01*
G01X2729393Y31548D01*
X2290359D01*
G37*
G36*
X2335801Y3384077D02*
X2620955Y3669231D01*
X3059981Y3669223D01*
X2403493Y3012735D01*
X2403513Y3233661D01*
G03X2335801Y3384077I-210096J-4129D01*
G37*
G36*
X2540730Y2644124D02*
G01X3104089Y3207484D01*
G03X3248922Y3352317I45534J99299D01*
G01X3275485Y3378879D01*
X3275497Y2939857D01*
X2957471Y2621831D01*
G03X2878791Y2644085I-84396J-148170D01*
G01X2540730Y2644124D01*
G37*
G36*
X2762800Y31548D02*
X2888406Y157155D01*
X3094488D01*
G03X3204728Y157155I55120J0D01*
G01X3275573D01*
X3275574Y105289D01*
X3201834Y31548D01*
X2762800D01*
G37*
G36*
X2888406Y157155D02*
X3060894Y329643D01*
G03X3213373Y482121I88729J63749D01*
G01X3275562Y544311D01*
X3275573Y157155D01*
X3204728D01*
G03X3094488Y157155I-55120J0D01*
G01X2888406D01*
G37*
G36*
X2889821Y158155D02*
X3093488D01*
G02X3093488Y156155I0J-1000D01*
G01X2889821D01*
G02X2889821Y158155I0J1000D01*
G37*
G36*
X3205728D02*
G01X3274573D01*
G02X3274573Y156155I0J-1000D01*
G01X3205728D01*
G02X3205728Y158155I0J1000D01*
G37*
G36*
X2977507Y2608460D02*
G01X3275498Y2906451D01*
X3275510Y2467429D01*
X3043752Y2235671D01*
X3043573Y2476381D01*
G03X2977507Y2608460I-170498J-2720D01*
G37*
G36*
X3043562Y880083D02*
G01X3044755Y886366D01*
X3044479Y1258109D01*
X3275537Y1489167D01*
X3275549Y1050145D01*
X3043563Y818159D01*
X3043562Y880083D01*
G37*
G36*
X3043777Y2202289D02*
X3275511Y2434023D01*
X3275523Y1995001D01*
X3044103Y1763581D01*
X3043777Y2202289D01*
G37*
G36*
X3044128Y1730199D02*
X3275524Y1961595D01*
X3275536Y1522573D01*
X3044454Y1291491D01*
X3044128Y1730199D01*
G37*
G36*
X3235241Y31548D02*
X3275575Y71883D01*
X3275576Y38889D01*
G02X3268624Y31548I-7859J481D01*
G01X3235241D01*
G37*
%LPC*%
G75*
X3235241Y31548D02*
G54D29*
X607087Y619940D02*
Y666245D01*
X607104Y1318536D02*
Y1361357D01*
X607109Y2015780D02*
Y2052950D01*
Y2659911D02*
X685676D01*
X705361Y2640226D02*
Y2630697D01*
X689613Y2581171D02*
X685849D01*
Y2557749D01*
Y2019697D02*
X722611D01*
Y2015780D01*
Y1891136D02*
X685844D01*
Y1864390D01*
Y1327556D02*
X722595D01*
Y1318536D01*
Y1199008D02*
X685827D01*
Y1171411D01*
Y698680D02*
X696150D01*
X670688Y619940D02*
X607087D01*
X835990Y698680D02*
X843701D01*
Y711022D01*
Y2581171D02*
X838628D01*
X822880Y2596919D02*
Y2602043D01*
X842565Y2659911D02*
X922441D01*
Y2630697D01*
X1013112Y2545120D02*
Y2550483D01*
X1032797Y2570168D02*
X1072167D01*
X1091852Y2550483D02*
Y2545120D01*
X1794867D02*
Y2550483D01*
X1814552Y2570168D02*
X1853923D01*
X1873608Y2550483D02*
Y2545120D01*
X1013112Y2848196D02*
Y2865227D01*
X1873608D02*
Y2848274D01*
X1853923Y2828511D02*
X1814552D01*
X1794867Y2848196D02*
Y2865227D01*
X1091852D02*
Y2848196D01*
X1072167Y2828511D02*
X1032797D01*
X2052522Y2659922D02*
X2152957D01*
X2172642Y2640237D02*
Y2632922D01*
X2152957Y2581182D02*
X2131262D01*
Y2549089D01*
X2148589Y626587D02*
X2197937D01*
X2217622Y606902D02*
Y567532D01*
X2197937Y547847D02*
X2194662D01*
X2354694Y567532D02*
Y583367D01*
X2374379Y626587D02*
X2402067D01*
Y659852D01*
Y2581182D02*
X2376855D01*
X2357170Y2632922D02*
Y2640237D01*
X2376855Y2659922D02*
X2480807D01*
Y2632922D01*
Y547847D02*
X2374379D01*
X1794867Y2848196D02*
X1795359Y2843825D01*
X1796809Y2839672D01*
X1799144Y2835945D01*
X1802249Y2832830D01*
X1805968Y2830481D01*
X1810116Y2829018D01*
X1814486Y2828511D01*
X1814552Y2828511D01*
X1853923D02*
X1858294Y2829003D01*
X1862446Y2830452D01*
X1866174Y2832788D01*
X1869289Y2835893D01*
X1871637Y2839612D01*
X1873101Y2843760D01*
X1873607Y2848129D01*
X1873608Y2848196D01*
X1794867Y2550483D02*
X1795359Y2554854D01*
X1796809Y2559007D01*
X1799144Y2562734D01*
X1802249Y2565850D01*
X1805968Y2568198D01*
X1810116Y2569662D01*
X1814486Y2570168D01*
X1814552Y2570168D01*
X1853923D02*
X1858294Y2569677D01*
X1862446Y2568227D01*
X1866174Y2565891D01*
X1869289Y2562786D01*
X1871637Y2559067D01*
X1873101Y2554919D01*
X1873607Y2550550D01*
X1873608Y2550483D01*
X1091852Y2848196D02*
X1091361Y2843825D01*
X1089911Y2839672D01*
X1087575Y2835945D01*
X1084470Y2832830D01*
X1080751Y2830481D01*
X1076603Y2829018D01*
X1072234Y2828511D01*
X1072167Y2828511D01*
X1013112Y2848196D02*
X1013603Y2843825D01*
X1015053Y2839672D01*
X1017389Y2835945D01*
X1020494Y2832830D01*
X1024213Y2830481D01*
X1028361Y2829018D01*
X1032730Y2828511D01*
X1032797Y2828511D01*
X1013112Y2550483D02*
X1013603Y2554854D01*
X1015053Y2559007D01*
X1017389Y2562734D01*
X1020494Y2565850D01*
X1024213Y2568198D01*
X1028361Y2569662D01*
X1032730Y2570168D01*
X1032797Y2570168D01*
X1072167D02*
X1076538Y2569677D01*
X1080691Y2568227D01*
X1084418Y2565891D01*
X1087534Y2562786D01*
X1089882Y2559067D01*
X1091346Y2554919D01*
X1091852Y2550550D01*
X1091852Y2550483D01*
X685676Y2659911D02*
X690047Y2659420D01*
X694200Y2657970D01*
X697927Y2655634D01*
X701043Y2652529D01*
X703391Y2648810D01*
X704855Y2644662D01*
X705361Y2640293D01*
X705361Y2640226D01*
X822880D02*
X823372Y2644597D01*
X824822Y2648750D01*
X827157Y2652477D01*
X830262Y2655593D01*
X833981Y2657941D01*
X838129Y2659405D01*
X842499Y2659911D01*
X842565Y2659911D01*
X689613Y2581171D02*
X693514Y2581662D01*
X697173Y2583104D01*
X700359Y2585407D01*
X702876Y2588428D01*
X704566Y2591979D01*
X705324Y2595837D01*
X705361Y2596919D01*
X822880D02*
X823371Y2593018D01*
X824813Y2589359D01*
X827117Y2586173D01*
X830138Y2583656D01*
X833688Y2581966D01*
X837547Y2581208D01*
X838628Y2581171D01*
X696150Y698680D02*
X700521Y698189D01*
X704674Y696739D01*
X708401Y694404D01*
X711517Y691299D01*
X713865Y687579D01*
X715329Y683432D01*
X715581Y682149D01*
X835990Y698680D02*
X831619Y698189D01*
X827467Y696739D01*
X823739Y694404D01*
X820624Y691299D01*
X818275Y687579D01*
X816812Y683432D01*
X816560Y682149D01*
X2152957Y2659922D02*
X2157328Y2659431D01*
X2161481Y2657981D01*
X2165208Y2655645D01*
X2168324Y2652540D01*
X2170672Y2648821D01*
X2172136Y2644673D01*
X2172642Y2640304D01*
X2172642Y2640237D01*
Y2600867D02*
X2172151Y2596496D01*
X2170701Y2592343D01*
X2168365Y2588616D01*
X2165260Y2585500D01*
X2161541Y2583152D01*
X2157393Y2581688D01*
X2153024Y2581182D01*
X2152957Y2581182D01*
X2357170Y2640237D02*
X2357662Y2644608D01*
X2359112Y2648761D01*
X2361447Y2652488D01*
X2364552Y2655604D01*
X2368271Y2657952D01*
X2372419Y2659416D01*
X2376789Y2659922D01*
X2376855Y2659922D01*
X2357170Y2600867D02*
X2357662Y2596496D01*
X2359112Y2592343D01*
X2361447Y2588616D01*
X2364552Y2585500D01*
X2368271Y2583152D01*
X2372419Y2581688D01*
X2376789Y2581182D01*
X2376855Y2581182D01*
X2197937Y626587D02*
X2202308Y626096D01*
X2206461Y624646D01*
X2210188Y622310D01*
X2213304Y619205D01*
X2215652Y615486D01*
X2217116Y611338D01*
X2217622Y606969D01*
X2217622Y606902D01*
Y567532D02*
X2217131Y563161D01*
X2215681Y559008D01*
X2213345Y555281D01*
X2210240Y552165D01*
X2206521Y549817D01*
X2202373Y548353D01*
X2198004Y547847D01*
X2197937Y547847D01*
X2354694Y606902D02*
X2355185Y611273D01*
X2356635Y615426D01*
X2358970Y619153D01*
X2362075Y622269D01*
X2365795Y624617D01*
X2369943Y626081D01*
X2374312Y626587D01*
X2374379Y626587D01*
X2354694Y567532D02*
X2355185Y563161D01*
X2356635Y559008D01*
X2358970Y555281D01*
X2362075Y552165D01*
X2365795Y549817D01*
X2369943Y548353D01*
X2374312Y547847D01*
X2374379Y547847D01*
X607109Y2557749D02*
Y2602043D01*
X685849Y2052950D02*
Y2019697D01*
X843701Y2557749D02*
Y2581171D01*
X2052522Y2549089D02*
Y2600691D01*
X2402067Y2549089D02*
Y2581182D01*
X2480807Y659852D02*
Y606865D01*
X722611Y1900815D02*
Y1891136D01*
X607104Y1864390D02*
Y1900815D01*
X685844Y1361357D02*
Y1327556D01*
X722595Y1216364D02*
Y1199008D01*
X607087Y1171411D02*
Y1216364D01*
X685827Y715287D02*
Y698680D01*
X2354694Y606865D02*
Y606902D01*
X2480807Y583367D02*
Y547847D01*
Y2600691D02*
Y2549089D01*
X2052522Y2632922D02*
Y2659922D01*
X705361Y2602043D02*
Y2596919D01*
X822880Y2630697D02*
Y2640226D01*
X922441Y2602043D02*
Y2557749D01*
X607109Y2630697D02*
Y2659911D01*
%LPD*%
G75*
X607109Y2659911D02*
G54D30*
X607087Y619940D02*
Y666245D01*
X607104Y1318536D02*
Y1361357D01*
X607109Y2015780D02*
Y2052950D01*
Y2659911D02*
X685676D01*
X705361Y2640226D02*
Y2630697D01*
X689613Y2581171D02*
X685849D01*
Y2557749D01*
Y2019697D02*
X722611D01*
Y2015780D01*
Y1891136D02*
X685844D01*
Y1864390D01*
Y1327556D02*
X722595D01*
Y1318536D01*
Y1199008D02*
X685827D01*
Y1171411D01*
Y698680D02*
X696150D01*
X670688Y619940D02*
X607087D01*
X835990Y698680D02*
X843701D01*
Y711022D01*
Y2581171D02*
X838628D01*
X822880Y2596919D02*
Y2602043D01*
X842565Y2659911D02*
X922441D01*
Y2630697D01*
X1013112Y2545120D02*
Y2550483D01*
X1032797Y2570168D02*
X1072167D01*
X1091852Y2550483D02*
Y2545120D01*
X1794867D02*
Y2550483D01*
X1814552Y2570168D02*
X1853923D01*
X1873608Y2550483D02*
Y2545120D01*
X1013112Y2848196D02*
Y2865227D01*
X1873608D02*
Y2848274D01*
X1853923Y2828511D02*
X1814552D01*
X1794867Y2848196D02*
Y2865227D01*
X1091852D02*
Y2848196D01*
X1072167Y2828511D02*
X1032797D01*
X2052522Y2659922D02*
X2152957D01*
X2172642Y2640237D02*
Y2632922D01*
X2152957Y2581182D02*
X2131262D01*
Y2549089D01*
X2148589Y626587D02*
X2197937D01*
X2217622Y606902D02*
Y567532D01*
X2197937Y547847D02*
X2194662D01*
X2354694Y567532D02*
Y583367D01*
X2374379Y626587D02*
X2402067D01*
Y659852D01*
Y2581182D02*
X2376855D01*
X2357170Y2632922D02*
Y2640237D01*
X2376855Y2659922D02*
X2480807D01*
Y2632922D01*
Y547847D02*
X2374379D01*
X1794867Y2848196D02*
X1795359Y2843825D01*
X1796809Y2839672D01*
X1799144Y2835945D01*
X1802249Y2832830D01*
X1805968Y2830481D01*
X1810116Y2829018D01*
X1814486Y2828511D01*
X1814552Y2828511D01*
X1853923D02*
X1858294Y2829003D01*
X1862446Y2830452D01*
X1866174Y2832788D01*
X1869289Y2835893D01*
X1871637Y2839612D01*
X1873101Y2843760D01*
X1873607Y2848129D01*
X1873608Y2848196D01*
X1794867Y2550483D02*
X1795359Y2554854D01*
X1796809Y2559007D01*
X1799144Y2562734D01*
X1802249Y2565850D01*
X1805968Y2568198D01*
X1810116Y2569662D01*
X1814486Y2570168D01*
X1814552Y2570168D01*
X1853923D02*
X1858294Y2569677D01*
X1862446Y2568227D01*
X1866174Y2565891D01*
X1869289Y2562786D01*
X1871637Y2559067D01*
X1873101Y2554919D01*
X1873607Y2550550D01*
X1873608Y2550483D01*
X1091852Y2848196D02*
X1091361Y2843825D01*
X1089911Y2839672D01*
X1087575Y2835945D01*
X1084470Y2832830D01*
X1080751Y2830481D01*
X1076603Y2829018D01*
X1072234Y2828511D01*
X1072167Y2828511D01*
X1013112Y2848196D02*
X1013603Y2843825D01*
X1015053Y2839672D01*
X1017389Y2835945D01*
X1020494Y2832830D01*
X1024213Y2830481D01*
X1028361Y2829018D01*
X1032730Y2828511D01*
X1032797Y2828511D01*
X1013112Y2550483D02*
X1013603Y2554854D01*
X1015053Y2559007D01*
X1017389Y2562734D01*
X1020494Y2565850D01*
X1024213Y2568198D01*
X1028361Y2569662D01*
X1032730Y2570168D01*
X1032797Y2570168D01*
X1072167D02*
X1076538Y2569677D01*
X1080691Y2568227D01*
X1084418Y2565891D01*
X1087534Y2562786D01*
X1089882Y2559067D01*
X1091346Y2554919D01*
X1091852Y2550550D01*
X1091852Y2550483D01*
X685676Y2659911D02*
X690047Y2659420D01*
X694200Y2657970D01*
X697927Y2655634D01*
X701043Y2652529D01*
X703391Y2648810D01*
X704855Y2644662D01*
X705361Y2640293D01*
X705361Y2640226D01*
X822880D02*
X823372Y2644597D01*
X824822Y2648750D01*
X827157Y2652477D01*
X830262Y2655593D01*
X833981Y2657941D01*
X838129Y2659405D01*
X842499Y2659911D01*
X842565Y2659911D01*
X689613Y2581171D02*
X693514Y2581662D01*
X697173Y2583104D01*
X700359Y2585407D01*
X702876Y2588428D01*
X704566Y2591979D01*
X705324Y2595837D01*
X705361Y2596919D01*
X822880D02*
X823371Y2593018D01*
X824813Y2589359D01*
X827117Y2586173D01*
X830138Y2583656D01*
X833688Y2581966D01*
X837547Y2581208D01*
X838628Y2581171D01*
X696150Y698680D02*
X700521Y698189D01*
X704674Y696739D01*
X708401Y694404D01*
X711517Y691299D01*
X713865Y687579D01*
X715329Y683432D01*
X715581Y682149D01*
X835990Y698680D02*
X831619Y698189D01*
X827467Y696739D01*
X823739Y694404D01*
X820624Y691299D01*
X818275Y687579D01*
X816812Y683432D01*
X816560Y682149D01*
X2152957Y2659922D02*
X2157328Y2659431D01*
X2161481Y2657981D01*
X2165208Y2655645D01*
X2168324Y2652540D01*
X2170672Y2648821D01*
X2172136Y2644673D01*
X2172642Y2640304D01*
X2172642Y2640237D01*
Y2600867D02*
X2172151Y2596496D01*
X2170701Y2592343D01*
X2168365Y2588616D01*
X2165260Y2585500D01*
X2161541Y2583152D01*
X2157393Y2581688D01*
X2153024Y2581182D01*
X2152957Y2581182D01*
X2357170Y2640237D02*
X2357662Y2644608D01*
X2359112Y2648761D01*
X2361447Y2652488D01*
X2364552Y2655604D01*
X2368271Y2657952D01*
X2372419Y2659416D01*
X2376789Y2659922D01*
X2376855Y2659922D01*
X2357170Y2600867D02*
X2357662Y2596496D01*
X2359112Y2592343D01*
X2361447Y2588616D01*
X2364552Y2585500D01*
X2368271Y2583152D01*
X2372419Y2581688D01*
X2376789Y2581182D01*
X2376855Y2581182D01*
X2197937Y626587D02*
X2202308Y626096D01*
X2206461Y624646D01*
X2210188Y622310D01*
X2213304Y619205D01*
X2215652Y615486D01*
X2217116Y611338D01*
X2217622Y606969D01*
X2217622Y606902D01*
Y567532D02*
X2217131Y563161D01*
X2215681Y559008D01*
X2213345Y555281D01*
X2210240Y552165D01*
X2206521Y549817D01*
X2202373Y548353D01*
X2198004Y547847D01*
X2197937Y547847D01*
X2354694Y606902D02*
X2355185Y611273D01*
X2356635Y615426D01*
X2358970Y619153D01*
X2362075Y622269D01*
X2365795Y624617D01*
X2369943Y626081D01*
X2374312Y626587D01*
X2374379Y626587D01*
X2354694Y567532D02*
X2355185Y563161D01*
X2356635Y559008D01*
X2358970Y555281D01*
X2362075Y552165D01*
X2365795Y549817D01*
X2369943Y548353D01*
X2374312Y547847D01*
X2374379Y547847D01*
X607109Y2557749D02*
Y2602043D01*
X685849Y2052950D02*
Y2019697D01*
X843701Y2557749D02*
Y2581171D01*
X2052522Y2549089D02*
Y2600691D01*
X2402067Y2549089D02*
Y2581182D01*
X2480807Y659852D02*
Y606865D01*
X722611Y1900815D02*
Y1891136D01*
X607104Y1864390D02*
Y1900815D01*
X685844Y1361357D02*
Y1327556D01*
X722595Y1216364D02*
Y1199008D01*
X607087Y1171411D02*
Y1216364D01*
X685827Y715287D02*
Y698680D01*
X2354694Y606865D02*
Y606902D01*
X2480807Y583367D02*
Y547847D01*
Y2600691D02*
Y2549089D01*
X2052522Y2632922D02*
Y2659922D01*
X705361Y2602043D02*
Y2596919D01*
X822880Y2630697D02*
Y2640226D01*
X922441Y2602043D02*
Y2557749D01*
X607109Y2630697D02*
Y2659911D01*
%LPC*%
G75*
X607109Y2659911D02*
G36*
X2368323Y2630434D02*
Y2651722D01*
X2471526D01*
Y2630434D01*
X2368323D01*
G37*
G36*
X2060103Y2635062D02*
Y2651260D01*
X2163306D01*
Y2635062D01*
X2060103D01*
G37*
G36*
X834584Y2641640D02*
Y2648658D01*
X912783D01*
Y2641640D01*
X834584D01*
G37*
G36*
X616027Y2638967D02*
Y2649661D01*
X692889D01*
Y2638967D01*
X616027D01*
G37*
G36*
X2367201Y557663D02*
Y572300D01*
X2470093D01*
Y557663D01*
X2367201D01*
G37*
M02*
