G04*
G04 #@! TF.GenerationSoftware,Altium Limited,Altium Designer,18.1.9 (240)*
G04*
G04 Layer_Physical_Order=4*
G04 Layer_Color=6736896*
%FSLAX25Y25*%
%MOIN*%
G70*
G01*
G75*
%ADD10C,0.01000*%
%ADD13C,0.00118*%
%ADD14C,0.00504*%
%ADD15C,0.00158*%
%ADD16C,0.00787*%
%ADD49C,0.00799*%
%ADD95C,0.00984*%
%ADD96C,0.01181*%
%ADD97C,0.00598*%
%ADD98C,0.01575*%
%ADD100C,0.00591*%
%ADD104C,0.01772*%
%ADD110C,0.05000*%
%ADD111R,0.05906X0.05906*%
%ADD112C,0.05906*%
%ADD114O,0.16000X0.10000*%
%ADD115O,0.16000X0.07200*%
%ADD116C,0.03150*%
%ADD117C,0.01772*%
%ADD121C,0.03150*%
D10*
X154439Y154770D02*
X158770Y150439D01*
X152471Y147092D02*
X158573Y140990D01*
X152471Y147092D02*
Y168943D01*
X158770Y147289D02*
X160739Y149258D01*
X154735Y318825D02*
Y329867D01*
X134951Y299041D02*
X154735Y318825D01*
X134951Y235773D02*
Y299041D01*
X196861Y127506D02*
Y165596D01*
X188101Y174356D02*
X196861Y165596D01*
X188101Y174356D02*
Y209632D01*
X188495Y119140D02*
X196861Y127506D01*
X115660Y216482D02*
X134951Y235773D01*
X115660Y195163D02*
Y216482D01*
X136821Y63825D02*
X162805D01*
X128160Y72486D02*
X136821Y63825D01*
X128160Y72486D02*
Y75340D01*
X119892Y80655D02*
X122845D01*
X128160Y75340D01*
X121762Y202998D02*
X154439Y170321D01*
Y154770D02*
Y170321D01*
X121172Y200242D02*
X152471Y168943D01*
X160739Y149258D02*
Y167565D01*
X155424Y172880D02*
X160739Y167565D01*
X155424Y172880D02*
Y217329D01*
X158672Y220577D01*
X163942Y210577D02*
X166639Y213274D01*
X184459D01*
X188101Y209632D01*
X115660Y195163D02*
X115660Y195163D01*
X115660Y194413D02*
Y195163D01*
X210158Y195055D02*
X244006D01*
X206802Y191699D02*
X210158Y195055D01*
X0Y369767D02*
X330709D01*
Y-311D02*
Y369767D01*
D13*
X322854Y39026D02*
G03*
X322854Y39026I-7894J0D01*
G01*
X23642D02*
G03*
X23642Y39026I-7894J0D01*
G01*
Y330365D02*
G03*
X23642Y330365I-7894J0D01*
G01*
X69337Y332640D02*
G03*
X59337Y322640I0J-10000D01*
G01*
X130544Y332640D02*
G03*
X130544Y340514I0J3937D01*
G01*
X158130D02*
G03*
X158130Y332640I0J-3937D01*
G01*
X31501Y243643D02*
G03*
X39375Y243643I3937J0D01*
G01*
Y216057D02*
G03*
X31501Y216057I-3937J0D01*
G01*
X39375Y146837D02*
G03*
X31501Y146837I-3937J0D01*
G01*
Y174423D02*
G03*
X39375Y174423I3937J0D01*
G01*
Y77617D02*
G03*
X31501Y77617I-3937J0D01*
G01*
Y105203D02*
G03*
X39375Y105203I3937J0D01*
G01*
X301229Y189965D02*
G03*
X293355Y189965I-3937J0D01*
G01*
Y217550D02*
G03*
X301229Y217550I3937J0D01*
G01*
Y102560D02*
G03*
X293355Y102560I-3937J0D01*
G01*
Y130145D02*
G03*
X301229Y130145I3937J0D01*
G01*
X176885Y39059D02*
G03*
X176885Y31185I0J-3937D01*
G01*
X149299D02*
G03*
X149299Y39059I0J3937D01*
G01*
X322859Y330398D02*
G03*
X322859Y330398I-7894J0D01*
G01*
X23646D02*
G03*
X23646Y330398I-7894J0D01*
G01*
X293355Y247055D02*
G03*
X287355Y253055I-6000J0D01*
G01*
Y67055D02*
G03*
X293355Y73055I0J6000D01*
G01*
X215337Y67055D02*
G03*
X215093Y67045I0J-3000D01*
G01*
X42375Y253055D02*
G03*
X39375Y250055I0J-3000D01*
G01*
Y209645D02*
G03*
X42375Y206645I3000J0D01*
G01*
X59337Y298140D02*
G03*
X69337Y288140I10000J0D01*
G01*
X111837D02*
G03*
X114837Y291140I0J3000D01*
G01*
X173837Y296140D02*
G03*
X170837Y296140I-1500J0D01*
G01*
X173837Y291140D02*
G03*
X176837Y288140I3000J-0D01*
G01*
X229337Y322640D02*
G03*
X219337Y332640I-10000J0D01*
G01*
X117837Y296140D02*
G03*
X114837Y296140I-1500J0D01*
G01*
X69337Y332640D02*
G03*
X59337Y322640I0J-10000D01*
G01*
X219337Y288140D02*
G03*
X229337Y298140I-0J10000D01*
G01*
X98337Y46055D02*
G03*
X92337Y46055I-3000J0D01*
G01*
X86799Y39362D02*
G03*
X92337Y43055I1539J3692D01*
G01*
X68694Y62439D02*
G03*
X86799Y39362I29643J4615D01*
G01*
X72646Y67055D02*
G03*
X68694Y62439I0J-4000D01*
G01*
X78337Y67055D02*
G03*
X81328Y69825I0J3000D01*
G01*
D02*
G03*
X78337Y72595I-2991J-230D01*
G01*
X170837Y249118D02*
G03*
X173837Y249118I1500J0D01*
G01*
X214932Y67027D02*
G03*
X214921Y61084I405J-2973D01*
G01*
X81337Y134425D02*
G03*
X78337Y137425I-3000J0D01*
G01*
Y183835D02*
G03*
X81337Y186835I0J3000D01*
G01*
X78337Y114615D02*
G03*
X81337Y117615I0J3000D01*
G01*
Y203645D02*
G03*
X78337Y206645I-3000J0D01*
G01*
X200347Y39059D02*
G03*
X201887Y39367I0J4000D01*
G01*
X121837Y43059D02*
G03*
X125837Y39059I4000J0D01*
G01*
X218062Y55595D02*
G03*
X214921Y61084I-3697J1528D01*
G01*
X201887Y39367D02*
G03*
X218062Y55595I-11550J27688D01*
G01*
X121837Y46055D02*
G03*
X115837Y46055I-3000J0D01*
G01*
X114837Y249118D02*
G03*
X117837Y249118I1500J0D01*
G01*
X66809Y72595D02*
G03*
X64854Y70855I0J-1969D01*
G01*
X61875Y68205D02*
G03*
X64854Y70855I0J3000D01*
G01*
X39375Y71205D02*
G03*
X42375Y68205I3000J0D01*
G01*
Y114615D02*
G03*
X39375Y111615I0J-3000D01*
G01*
X42375Y183835D02*
G03*
X39375Y180835I0J-3000D01*
G01*
Y140425D02*
G03*
X42375Y137425I3000J0D01*
G01*
X51463Y298140D02*
G03*
X69337Y280266I17874J0D01*
G01*
Y340514D02*
G03*
X51463Y322640I0J-17874D01*
G01*
X237211D02*
G03*
X219337Y340514I-17874J0D01*
G01*
Y280266D02*
G03*
X237211Y298140I-0J17874D01*
G01*
X42375Y260929D02*
G03*
X31501Y250055I0J-10874D01*
G01*
Y209645D02*
G03*
X42375Y198771I10874J0D01*
G01*
Y191709D02*
G03*
X31501Y180835I0J-10874D01*
G01*
Y140425D02*
G03*
X42375Y129551I10874J0D01*
G01*
Y122489D02*
G03*
X31501Y111615I0J-10874D01*
G01*
Y71205D02*
G03*
X42375Y60331I10874J0D01*
G01*
X61065D02*
G03*
X83770Y32094I37272J6724D01*
G01*
X83770Y32094D02*
G03*
X88650Y31185I4567J10961D01*
G01*
X202494Y31185D02*
G03*
X227384Y59181I-12157J35870D01*
G01*
X287355D02*
G03*
X301229Y73055I0J13874D01*
G01*
Y247055D02*
G03*
X287355Y260929I-13874J0D01*
G01*
X59337Y322640D02*
X59337D01*
X238236Y67055D02*
X287355D01*
X238236Y253055D02*
X287355D01*
X293355Y73055D02*
Y102570D01*
X215337Y67055D02*
X223132D01*
X215093Y253055D02*
X223132D01*
X78214Y72595D02*
X78227D01*
X78214Y114615D02*
X78227D01*
X78214Y137425D02*
X78227D01*
X78214Y183835D02*
X78227D01*
X78214Y206645D02*
X78227D01*
X78214Y253055D02*
X114837D01*
X117837Y251874D02*
Y252679D01*
X170837Y251874D02*
Y252679D01*
X173837Y253055D02*
X215093D01*
X214932Y67027D02*
X215093Y67045D01*
X70871Y114615D02*
X72649D01*
X70871Y72595D02*
X72649D01*
X170837Y292867D02*
Y292873D01*
X117837Y292867D02*
Y292873D01*
X170837Y284827D02*
Y292867D01*
X117837Y284827D02*
Y292867D01*
X72649Y72595D02*
X78214D01*
X72649Y114615D02*
X78214D01*
X70871Y137425D02*
X72649D01*
X70871Y183835D02*
X72649D01*
X70871Y253055D02*
X72649D01*
X70871Y206645D02*
X72649D01*
Y137425D02*
X78214D01*
X72649Y183835D02*
X78214D01*
X170837Y257368D02*
Y262504D01*
X117837Y257368D02*
Y262504D01*
X233133Y67055D02*
X238236D01*
X223132Y253055D02*
X238236D01*
X72649Y206645D02*
X78214D01*
X72649Y253055D02*
X78214D01*
X117837Y252679D02*
Y257368D01*
X170837Y252679D02*
Y257368D01*
Y267194D02*
Y284827D01*
X117837Y267194D02*
Y284827D01*
Y262504D02*
Y267194D01*
X170837Y262504D02*
Y267194D01*
X42375Y253055D02*
X70871D01*
X42375Y206645D02*
X70871D01*
X223132Y67055D02*
X233133D01*
X173837Y291140D02*
Y296140D01*
X170837Y292873D02*
Y296140D01*
X69337Y288140D02*
X111837D01*
X59337Y298140D02*
Y322640D01*
X114837Y291140D02*
Y296140D01*
X117837Y292873D02*
Y296140D01*
X69337Y332641D02*
X130553D01*
X229337Y298140D02*
Y322640D01*
X176837Y288140D02*
X219337D01*
X92337Y43055D02*
Y46055D01*
X72646Y67055D02*
X78337D01*
X78227Y72595D02*
X78337D01*
X78227Y114615D02*
X78337D01*
X170837Y249118D02*
Y251874D01*
X173837Y249118D02*
Y253055D01*
X115837Y44413D02*
Y46055D01*
X98337Y44413D02*
X115837D01*
X98337D02*
Y46055D01*
X78227Y206645D02*
X78337D01*
X78227Y253055D02*
X114837Y253055D01*
X81337Y117615D02*
Y134425D01*
X78227Y137425D02*
X78337D01*
X78227Y183835D02*
X78337D01*
X125837Y39059D02*
X149312D01*
X114837Y249118D02*
Y253055D01*
X81337Y186835D02*
Y203645D01*
X117837Y249118D02*
Y251874D01*
X121837Y43059D02*
Y46055D01*
X42375Y114615D02*
X70871D01*
X66809Y72595D02*
X70871D01*
X42375Y68205D02*
X61875D01*
X39375Y71205D02*
Y77617D01*
X42375Y183835D02*
X70871D01*
X42375Y137425D02*
X70871D01*
X39375Y140425D02*
Y146837D01*
X69337Y280266D02*
X109963D01*
X51463Y298140D02*
Y322640D01*
X69337Y340514D02*
X130544D01*
X237211Y298140D02*
Y322640D01*
X178711Y280266D02*
X219337D01*
X109963Y260929D02*
Y280266D01*
X178711Y260929D02*
Y280266D01*
X42375Y260929D02*
X109963D01*
X31501Y209645D02*
Y216064D01*
X42375Y198771D02*
X73463D01*
Y191709D02*
Y198771D01*
X42375Y191709D02*
X73463D01*
X31501Y140425D02*
Y146844D01*
X42375Y129551D02*
X73463D01*
Y122489D02*
Y129551D01*
X42375Y122489D02*
X73463D01*
X31501Y71205D02*
Y77624D01*
X42375Y60331D02*
X61065D01*
X88024Y31185D02*
X149299D01*
X227384Y59181D02*
X287355D01*
X301229Y73055D02*
Y102560D01*
X178711Y260929D02*
X287355D01*
X117837Y262504D02*
Y267194D01*
X293355Y217540D02*
Y247055D01*
Y130135D02*
Y189975D01*
X176872Y39059D02*
X200347D01*
X31501Y105196D02*
Y111615D01*
Y174416D02*
Y180835D01*
Y243636D02*
Y250055D01*
X158121Y332641D02*
X219337D01*
X39375Y174423D02*
Y180835D01*
Y243643D02*
Y250055D01*
Y105203D02*
Y111615D01*
X176885Y31185D02*
X202494D01*
X158130Y340514D02*
X219337D01*
X301229Y217550D02*
Y247055D01*
Y130145D02*
Y189965D01*
X39375Y209645D02*
Y216057D01*
D14*
X0Y-312D02*
X330709D01*
X0Y-311D02*
Y369768D01*
D15*
X215337Y67055D02*
G03*
X215093Y67045I0J-3000D01*
G01*
X218062Y55595D02*
G03*
X214921Y61084I-3697J1528D01*
G01*
X201887Y39367D02*
G03*
X218062Y55595I-11550J27688D01*
G01*
X200347Y39059D02*
G03*
X201887Y39367I0J4000D01*
G01*
X121837Y43059D02*
G03*
X125837Y39059I4000J0D01*
G01*
X121837Y46055D02*
G03*
X115837Y46055I-3000J0D01*
G01*
X98337D02*
G03*
X92337Y46055I-3000J0D01*
G01*
X86799Y39362D02*
G03*
X92337Y43055I1539J3692D01*
G01*
X68694Y62439D02*
G03*
X86799Y39362I29643J4615D01*
G01*
X72646Y67055D02*
G03*
X68694Y62439I0J-4000D01*
G01*
X78337Y67055D02*
G03*
X81328Y69825I0J3000D01*
G01*
D02*
G03*
X78337Y72595I-2991J-230D01*
G01*
Y114615D02*
G03*
X81337Y117615I0J3000D01*
G01*
Y134425D02*
G03*
X78337Y137425I-3000J0D01*
G01*
Y183835D02*
G03*
X81337Y186835I0J3000D01*
G01*
Y203645D02*
G03*
X78337Y206645I-3000J0D01*
G01*
X114837Y249118D02*
G03*
X117837Y249118I1500J0D01*
G01*
X170837D02*
G03*
X173837Y249118I1500J0D01*
G01*
X215093Y67045D02*
G03*
X214921Y61084I244J-2990D01*
G01*
X39375Y71205D02*
G03*
X42375Y68205I3000J0D01*
G01*
Y114615D02*
G03*
X39375Y111615I0J-3000D01*
G01*
X66809Y72595D02*
G03*
X64854Y70855I0J-1969D01*
G01*
X61875Y68205D02*
G03*
X64854Y70855I0J3000D01*
G01*
X117837Y296140D02*
G03*
X114837Y296140I-1500J0D01*
G01*
X111837Y288140D02*
G03*
X114837Y291140I0J3000D01*
G01*
X229337Y322640D02*
G03*
X219337Y332640I-10000J0D01*
G01*
X173837Y291140D02*
G03*
X176837Y288140I3000J0D01*
G01*
X173837Y296140D02*
G03*
X170837Y296140I-1500J0D01*
G01*
X59337Y298140D02*
G03*
X69337Y288140I10000J0D01*
G01*
Y332640D02*
G03*
X59337Y322640I0J-10000D01*
G01*
X219337Y288140D02*
G03*
X229337Y298140I0J10000D01*
G01*
X42375Y183835D02*
G03*
X39375Y180835I0J-3000D01*
G01*
Y140425D02*
G03*
X42375Y137425I3000J0D01*
G01*
X39375Y209645D02*
G03*
X42375Y206645I3000J0D01*
G01*
Y253055D02*
G03*
X39375Y250055I0J-3000D01*
G01*
X293355Y247055D02*
G03*
X287355Y253055I-6000J0D01*
G01*
Y67055D02*
G03*
X293355Y73055I0J6000D01*
G01*
X215337Y67055D02*
X223132D01*
X215093Y253055D02*
X223132D01*
X125837Y39059D02*
X200347D01*
X121837Y43059D02*
Y46055D01*
X115837Y44413D02*
Y46055D01*
X98337Y44413D02*
X115837D01*
X98337D02*
Y46055D01*
X92337Y43055D02*
Y46055D01*
X72646Y67055D02*
X78337D01*
X78214Y72595D02*
X78337D01*
X78214Y114615D02*
X78337D01*
X81337Y117615D02*
Y134425D01*
X78214Y137425D02*
X78337D01*
X78214Y183835D02*
X78337D01*
X81337Y186835D02*
Y203645D01*
X78214Y206645D02*
X78337D01*
X78214Y253055D02*
X114837D01*
Y249118D02*
Y253055D01*
X117837Y249118D02*
Y252679D01*
X170837Y249118D02*
Y252679D01*
X173837Y249118D02*
Y253055D01*
X215093D01*
X42375Y68205D02*
X61875D01*
X39375Y71205D02*
Y111615D01*
X42375Y114615D02*
X72649D01*
X66809Y72595D02*
X72649D01*
X114837Y291140D02*
Y296140D01*
X69337Y288140D02*
X111837D01*
X69337Y332640D02*
X219337D01*
X229337Y298140D02*
Y322640D01*
X173837Y291140D02*
Y296140D01*
X170837Y292867D02*
Y296140D01*
X59337Y298140D02*
Y322640D01*
X117837Y292867D02*
Y296140D01*
X176837Y288140D02*
X219337D01*
X42375Y183835D02*
X72649D01*
X39375Y140425D02*
Y180835D01*
X42375Y137425D02*
X72649D01*
X42375Y253055D02*
X72649D01*
X42375Y206645D02*
X72649D01*
Y137425D02*
X78214D01*
X72649Y183835D02*
X78214D01*
X170837Y252679D02*
Y257368D01*
X117837Y252679D02*
Y257368D01*
X72649Y206645D02*
X78214D01*
X72649Y253055D02*
X78214D01*
X72649Y72595D02*
X78214D01*
X72649Y114615D02*
X78214D01*
X170837Y257368D02*
Y262504D01*
X117837Y257368D02*
Y262504D01*
X170837Y284827D02*
Y292867D01*
X117837Y284827D02*
Y292867D01*
X170837Y267194D02*
Y284827D01*
X117837Y267194D02*
Y284827D01*
X293355Y73055D02*
Y247055D01*
X223132Y253055D02*
X287355D01*
X223132Y67055D02*
X287355D01*
X117837Y262504D02*
Y267194D01*
X170837Y262504D02*
Y267194D01*
X39375Y209645D02*
Y250055D01*
D16*
X81014Y55596D02*
X93969D01*
X100601Y62228D01*
Y121010D01*
X158770Y113234D02*
X162805D01*
X159262Y116088D02*
X162805D01*
X164872Y107329D02*
X167235Y109691D01*
X164872Y93647D02*
Y107329D01*
X162510Y109297D02*
X164872Y111659D01*
X162510Y95201D02*
Y109297D01*
X164872Y111659D02*
Y116854D01*
X167235Y109691D02*
Y117368D01*
X160148Y95655D02*
Y108411D01*
X148042Y120518D02*
X160148Y108411D01*
X158672Y318510D02*
Y329868D01*
X137412Y297250D02*
X158672Y318510D01*
X137412Y234396D02*
Y297250D01*
X100601Y121010D02*
X129046Y149455D01*
X165168Y216221D02*
Y224395D01*
X163101Y217402D02*
Y223116D01*
X161723Y212776D02*
X165168Y216221D01*
X159754Y214056D02*
X163101Y217402D01*
X160739Y218746D02*
Y222033D01*
X114321Y146148D02*
X126880Y158707D01*
X108031Y146148D02*
X114321D01*
X94696Y132812D02*
X108031Y146148D01*
X134656Y163136D02*
X148042Y149750D01*
Y120518D02*
Y149750D01*
X155227Y90734D02*
X160148Y95655D01*
X139223Y90734D02*
X155227D01*
X133179Y84691D02*
X139223Y90734D01*
X185148Y110045D02*
X206802Y131699D01*
X185148Y101955D02*
Y110045D01*
X171565Y88372D02*
X185148Y101955D01*
X168160Y88372D02*
X171565D01*
X183278Y102939D02*
Y110911D01*
X170384Y90045D02*
X183278Y102939D01*
X167333Y90045D02*
X170384D01*
X183278Y110911D02*
X206802Y134435D01*
X132589Y300203D02*
X150798Y318412D01*
X132589Y237447D02*
Y300203D01*
X150798Y318412D02*
Y329868D01*
X113593Y218451D02*
X132589Y237447D01*
X117530Y214514D02*
X137412Y234396D01*
X154439Y78687D02*
X156211D01*
X153061Y80065D02*
Y81836D01*
Y80065D02*
X154439Y78687D01*
X153061Y81836D02*
X164872Y93647D01*
X160148Y121600D02*
Y127703D01*
Y121600D02*
X161428Y120321D01*
X164282D01*
X160148Y127703D02*
X166743Y134297D01*
X161723Y177014D02*
X166743Y171994D01*
X164282Y120321D02*
X167235Y117368D01*
X166743Y134297D02*
Y171994D01*
X161723Y177014D02*
Y212776D01*
X154144Y74750D02*
X156211D01*
X158278Y128096D02*
X164872Y134691D01*
X159754Y175996D02*
Y214056D01*
Y175996D02*
X164872Y170878D01*
Y134691D02*
Y170878D01*
X123140Y89415D02*
X128455D01*
X118121Y84395D02*
X123140Y89415D01*
X118121Y70518D02*
Y84395D01*
X128455Y89415D02*
X131113Y92073D01*
X118121Y70518D02*
X119892Y68746D01*
X130227Y131443D02*
X133672Y134888D01*
Y156148D01*
X131113Y158707D02*
X133672Y156148D01*
X133573Y184100D02*
X150207Y167466D01*
X120384Y173668D02*
X126093D01*
X129046Y170714D01*
X150207Y121797D02*
Y167466D01*
Y121797D02*
X158770Y113234D01*
X156605Y118746D02*
X159262Y116088D01*
X156605Y118746D02*
Y129770D01*
X142046Y132919D02*
X145876D01*
X130621Y121494D02*
X142046Y132919D01*
X130621Y114415D02*
Y121494D01*
X129046Y149455D02*
Y170714D01*
X157552Y215559D02*
X160739Y218746D01*
X157552Y174688D02*
Y215559D01*
X156605Y129770D02*
X162805Y135970D01*
Y169435D01*
X157552Y174688D02*
X162805Y169435D01*
X105424Y112053D02*
X106762Y110714D01*
X126920D01*
X130621Y114415D01*
X156211Y78687D02*
X157943D01*
X159459Y80203D01*
Y82171D01*
X167333Y90045D01*
X156211Y74750D02*
X157943D01*
X206802Y134435D02*
Y141699D01*
X113593Y192860D02*
Y218451D01*
Y192860D02*
X134656Y171797D01*
Y163136D02*
Y171797D01*
X117530Y192663D02*
Y214514D01*
Y192663D02*
X137412Y172781D01*
Y165203D02*
Y172781D01*
X119794Y63114D02*
X122353Y65673D01*
Y73274D01*
X119892Y75735D02*
X122353Y73274D01*
X163473Y118254D02*
X164872Y116854D01*
X158278Y120496D02*
Y128096D01*
Y120496D02*
X160520Y118254D01*
X163473D01*
X148140Y80754D02*
X154144Y74750D01*
X148140Y80754D02*
Y85752D01*
X149518Y87130D01*
X154439D01*
X162510Y95201D01*
X157943Y74750D02*
X161329Y78136D01*
Y81541D01*
X168160Y88372D01*
X153061Y233155D02*
X163101Y223116D01*
X155621Y233943D02*
X165168Y224395D01*
X153061Y233155D02*
Y245754D01*
X155621Y233943D02*
Y245791D01*
X119400Y194413D02*
Y209494D01*
X130916Y221010D01*
X139676Y236736D02*
X146036D01*
X160739Y222033D01*
X97353Y80640D02*
Y124356D01*
X121762Y148766D01*
X94500Y-2703D02*
Y-9000D01*
X98698D01*
X101847Y-4802D02*
X103946D01*
X104995Y-5851D01*
Y-9000D01*
X101847D01*
X100797Y-7950D01*
X101847Y-6901D01*
X104995D01*
X107094Y-4802D02*
Y-7950D01*
X108144Y-9000D01*
X111293D01*
Y-10050D01*
X110243Y-11099D01*
X109193D01*
X111293Y-9000D02*
Y-4802D01*
X116540Y-9000D02*
X114441D01*
X113391Y-7950D01*
Y-5851D01*
X114441Y-4802D01*
X116540D01*
X117590Y-5851D01*
Y-6901D01*
X113391D01*
X119689Y-4802D02*
Y-9000D01*
Y-6901D01*
X120738Y-5851D01*
X121788Y-4802D01*
X122837D01*
X135432Y-9000D02*
Y-2703D01*
X132283Y-5851D01*
X136481D01*
X139630Y-10050D02*
X140679Y-9000D01*
Y-7950D01*
X139630D01*
Y-9000D01*
X140679D01*
X139630Y-10050D01*
X138580Y-11099D01*
X155373Y-2703D02*
X151174D01*
Y-5851D01*
X153274D01*
X151174D01*
Y-9000D01*
X157472D02*
X159571D01*
X158521D01*
Y-2703D01*
X157472D01*
X165868Y-9000D02*
X163769D01*
X162719Y-7950D01*
Y-5851D01*
X163769Y-4802D01*
X165868D01*
X166918Y-5851D01*
Y-6901D01*
X162719D01*
X169017Y-4802D02*
X173215Y-9000D01*
X171116Y-6901D01*
X173215Y-4802D01*
X169017Y-9000D01*
X185809Y-3752D02*
X184759Y-2703D01*
X182660D01*
X181611Y-3752D01*
Y-4802D01*
X182660Y-5851D01*
X184759D01*
X185809Y-6901D01*
Y-7950D01*
X184759Y-9000D01*
X182660D01*
X181611Y-7950D01*
X187908Y-9000D02*
X190007D01*
X188958D01*
Y-4802D01*
X187908D01*
X195255Y-11099D02*
X196304D01*
X197354Y-10050D01*
Y-4802D01*
X194205D01*
X193156Y-5851D01*
Y-7950D01*
X194205Y-9000D01*
X197354D01*
X199453D02*
Y-4802D01*
X202601D01*
X203651Y-5851D01*
Y-9000D01*
X206800Y-4802D02*
X208899D01*
X209948Y-5851D01*
Y-9000D01*
X206800D01*
X205750Y-7950D01*
X206800Y-6901D01*
X209948D01*
X212047Y-9000D02*
X214146D01*
X213097D01*
Y-2703D01*
X212047D01*
X223592Y-9000D02*
X225691D01*
X224641D01*
Y-2703D01*
X223592Y-3752D01*
D49*
X323858Y39026D02*
G03*
X323858Y39026I-8898J0D01*
G01*
X24646D02*
G03*
X24646Y39026I-8898J0D01*
G01*
Y330365D02*
G03*
X24646Y330365I-8898J0D01*
G01*
X323858D02*
G03*
X323858Y330365I-8898J0D01*
G01*
D95*
X165857Y57209D02*
X168674Y60026D01*
X132233Y57209D02*
X165857D01*
X129439Y54415D02*
X132233Y57209D01*
X168674Y60026D02*
X201487D01*
X170030Y84435D02*
X183179D01*
X179931Y194829D02*
X184853Y199750D01*
X179931Y169632D02*
Y194829D01*
X176487Y166187D02*
X179931Y169632D01*
X136782Y71797D02*
X139478D01*
X135581Y70596D02*
X136782Y71797D01*
X135581Y67958D02*
Y70596D01*
X116349Y66482D02*
X118022Y64809D01*
X116349Y66482D02*
Y85970D01*
X127963Y97584D01*
X137904D01*
X147943Y107624D01*
X158179D01*
X176487Y122289D02*
Y166187D01*
X89676Y122675D02*
Y131739D01*
X126978Y169042D01*
X141411Y69533D02*
X157943D01*
X163495Y75085D01*
X135581Y67958D02*
X136624Y66915D01*
X158278D01*
X165561Y74199D01*
Y79966D01*
X163495Y75085D02*
Y80793D01*
X165561Y79966D02*
X170030Y84435D01*
X163495Y80793D02*
X169105Y86403D01*
X211329Y249335D02*
X249727D01*
X254006Y245055D01*
X210158D02*
X244006D01*
X206802Y241699D02*
X210158Y245055D01*
X211526Y240083D02*
X248979D01*
X254006Y235055D01*
X210158D02*
X244006D01*
X206802Y231699D02*
X210158Y235055D01*
X211526Y230043D02*
X249018D01*
X254006Y225055D01*
X210158D02*
X244006D01*
X206802Y221699D02*
X210158Y225055D01*
X249057Y220004D02*
X254006Y215055D01*
X206211Y218626D02*
X208770D01*
X210148Y220004D01*
X249057D01*
X210158Y215055D02*
X244006D01*
X206802Y211699D02*
X210158Y215055D01*
X248900Y210161D02*
X254006Y205055D01*
X212510Y210161D02*
X248900D01*
X210739Y208390D02*
X212510Y210161D01*
X206408Y208390D02*
X210739D01*
X188101Y209632D02*
X203000D01*
X204242Y208390D01*
X206408D01*
X210158Y205055D02*
X244006D01*
X206603Y201500D02*
X210158Y205055D01*
X204046Y201500D02*
X206603D01*
X205227Y198941D02*
X212510D01*
X213691Y200122D01*
X248939D01*
X254006Y195055D01*
X248979Y190083D02*
X254006Y185055D01*
X209164Y190083D02*
X248979D01*
X206802Y187720D02*
X209164Y190083D01*
X210158Y185055D02*
X244006D01*
X206802Y181699D02*
X210158Y185055D01*
X249018Y180043D02*
X254006Y175055D01*
X211723Y180043D02*
X249018D01*
X210542Y178862D02*
X211723Y180043D01*
X206802Y178862D02*
X210542D01*
X210158Y175055D02*
X244006D01*
X206802Y171699D02*
X210158Y175055D01*
X249057Y170004D02*
X254006Y165055D01*
X206802Y168232D02*
X209361D01*
X211132Y170004D01*
X249057D01*
X213467Y165055D02*
X244006D01*
X210111Y161699D02*
X213467Y165055D01*
X206802Y161699D02*
X210111D01*
X248900Y160161D02*
X254006Y155055D01*
X214479Y160161D02*
X248900D01*
X213101Y158783D02*
X214479Y160161D01*
X205817Y158783D02*
X213101D01*
X211931Y155055D02*
X244006D01*
X204006Y150616D02*
X207492D01*
X211931Y155055D01*
X248939Y150122D02*
X254006Y145055D01*
X211526Y148547D02*
X212707D01*
X214282Y150122D01*
X248939D01*
X210158Y145055D02*
X244006D01*
X206802Y141699D02*
X210158Y145055D01*
X211723Y140083D02*
X248979D01*
X254006Y135055D01*
X210158D02*
X244006D01*
X206802Y131699D02*
X210158Y135055D01*
X249018Y130043D02*
X254006Y125055D01*
X206998Y128468D02*
X208770D01*
X210345Y130043D01*
X249018D01*
X248861Y120201D02*
X254006Y115055D01*
X210935Y120201D02*
X248861D01*
X207392Y116657D02*
X210935Y120201D01*
X208900Y125055D02*
X244006D01*
X205544Y121699D02*
X208900Y125055D01*
X201211Y121699D02*
X205544D01*
X201211Y111699D02*
X207748D01*
X211105Y115055D01*
X244006D01*
X249097Y109964D02*
X254006Y105055D01*
X212313Y109964D02*
X249097D01*
X207589Y105240D02*
X212313Y109964D01*
X212916Y105055D02*
X244006D01*
X210542Y102681D02*
X212916Y105055D01*
X207589Y102681D02*
X210542D01*
X248939Y100122D02*
X254006Y95055D01*
X207589Y100122D02*
X248939D01*
X203703Y95055D02*
X244006D01*
X201093Y92445D02*
X203703Y95055D01*
X248782Y90279D02*
X254006Y85055D01*
X207589Y83587D02*
Y85752D01*
X212117Y90279D01*
X248782D01*
X187313Y83587D02*
X207589D01*
X184496Y86403D02*
X187313Y83587D01*
X169105Y86403D02*
X184496D01*
X205227Y81618D02*
X210345D01*
X213782Y85055D01*
X244006D01*
X248821Y80240D02*
X254006Y75055D01*
X211723Y80240D02*
X248821D01*
X183179Y84435D02*
X188120Y79494D01*
X207589D01*
X210977D01*
X211723Y80240D01*
X208504Y75055D02*
X244006D01*
X204006Y70557D02*
X208504Y75055D01*
D96*
X182589Y134911D02*
X186550Y130951D01*
X182589Y134911D02*
Y149356D01*
D97*
X119400Y247760D02*
Y297419D01*
X121762Y247427D02*
Y298207D01*
X97353Y216187D02*
X104833Y208707D01*
Y154466D02*
Y208707D01*
X97353Y146986D02*
X104833Y154466D01*
X117628Y243293D02*
X121762Y247427D01*
X117628Y240203D02*
Y243293D01*
X112018Y191088D02*
X132195Y170911D01*
Y162053D02*
Y170911D01*
Y162053D02*
X136132Y158116D01*
Y132919D02*
Y158116D01*
X127668Y124455D02*
X136132Y132919D01*
X127668Y119927D02*
Y124455D01*
X117628Y240203D02*
X119695Y238136D01*
X112018Y191088D02*
Y240378D01*
X119400Y247760D01*
X79341Y303884D02*
X81636D01*
X117623Y299197D02*
X119400Y297419D01*
X81636Y303884D02*
X86323Y299197D01*
X117623D01*
X88151Y300192D02*
X111997D01*
X84459Y303884D02*
X88151Y300192D01*
X111997D02*
X112000Y300189D01*
X119780D01*
X121762Y298207D01*
D98*
X133573Y110222D02*
Y118943D01*
X129892Y106541D02*
X133573Y110222D01*
X119302Y106541D02*
X129892D01*
X179931Y161266D02*
X189676Y151522D01*
Y125832D02*
Y151522D01*
X183376Y119533D02*
X189676Y125832D01*
X171565Y119533D02*
X183376D01*
X168514Y122584D02*
X171565Y119533D01*
X162805Y122584D02*
X168514D01*
X112117Y99356D02*
X119302Y106541D01*
X112117Y64612D02*
Y91974D01*
Y99356D01*
X109361Y91974D02*
X112117D01*
Y64612D02*
X116939Y59789D01*
X139478D01*
X163199D01*
X171959Y68549D01*
Y82230D01*
D100*
X119695Y241581D02*
X124223Y246108D01*
X87707Y304469D02*
Y311659D01*
X124223Y246108D02*
Y298055D01*
X121098Y301180D02*
X124223Y298055D01*
X90996Y301180D02*
X121098D01*
X87707Y304469D02*
X90996Y301180D01*
D104*
X107141Y244573D02*
X107156Y244558D01*
X104597Y244573D02*
X107141D01*
X145247Y295655D02*
X151309Y301718D01*
X145247Y245872D02*
Y295655D01*
X140168Y240793D02*
X145247Y245872D01*
X140168Y295793D02*
X153219Y308844D01*
X140168Y245222D02*
Y295793D01*
X151309Y301718D02*
X172215D01*
X153219Y308844D02*
X173790D01*
X85935Y321579D02*
X89479D01*
X96959Y314098D01*
X107195D01*
X113374Y307919D01*
X116911D01*
X99481Y244573D02*
X104597D01*
X86723Y231815D02*
X99481Y244573D01*
X64085Y231815D02*
X66644D01*
X86723D01*
X64479Y93429D02*
X66841D01*
X81014D01*
X91742Y82701D01*
Y62285D02*
Y82701D01*
X63888Y162917D02*
X66447D01*
X79636Y173744D02*
X88101Y182209D01*
X66447Y162917D02*
X67825Y164295D01*
Y171972D01*
X69597Y173744D01*
X79636D01*
X90266Y182209D02*
X92431D01*
X88101D02*
X90266D01*
X172215Y301718D02*
X177630Y296303D01*
Y295227D02*
Y296303D01*
X187130Y295227D02*
Y295504D01*
X173790Y308844D02*
X187117Y295518D01*
X187130Y295504D01*
X187117Y294762D02*
Y295518D01*
D110*
X177630Y295227D02*
D03*
X187130D02*
D03*
D111*
X254006Y75055D02*
D03*
D112*
X244006D02*
D03*
X254006Y85055D02*
D03*
X244006D02*
D03*
X254006Y95055D02*
D03*
X244006D02*
D03*
X254006Y105055D02*
D03*
X244006D02*
D03*
X254006Y115055D02*
D03*
X244006D02*
D03*
X254006Y125055D02*
D03*
Y135055D02*
D03*
X244006D02*
D03*
X254006Y145055D02*
D03*
X244006D02*
D03*
X254006Y155055D02*
D03*
X244006D02*
D03*
X254006Y165055D02*
D03*
X244006D02*
D03*
X254006Y175055D02*
D03*
X244006D02*
D03*
X254006Y185055D02*
D03*
X244006D02*
D03*
X254006Y195055D02*
D03*
X244006D02*
D03*
X254006Y205055D02*
D03*
X244006D02*
D03*
X254006Y215055D02*
D03*
X244006D02*
D03*
X254006Y225055D02*
D03*
X244006D02*
D03*
X254006Y235055D02*
D03*
X244006D02*
D03*
X254006Y245055D02*
D03*
X244006D02*
D03*
Y125055D02*
D03*
D114*
X48538Y108463D02*
D03*
Y177663D02*
D03*
X48471Y246939D02*
D03*
D115*
X48538Y72862D02*
D03*
Y142062D02*
D03*
X48471Y211339D02*
D03*
D116*
X201487Y60026D02*
D03*
X94696Y132812D02*
D03*
X179931Y161266D02*
D03*
X91742Y62285D02*
D03*
X81309Y88514D02*
D03*
Y111447D02*
D03*
Y180746D02*
D03*
Y157813D02*
D03*
Y227014D02*
D03*
Y249947D02*
D03*
D117*
X158770Y150439D02*
D03*
X158573Y140990D02*
D03*
X162805Y113234D02*
D03*
Y116088D02*
D03*
X158770Y147289D02*
D03*
X158672Y329868D02*
D03*
X104597Y244573D02*
D03*
X107156Y244558D02*
D03*
X211329Y249335D02*
D03*
X211526Y240083D02*
D03*
Y230043D02*
D03*
X206211Y218626D02*
D03*
X206408Y208390D02*
D03*
X205227Y198941D02*
D03*
X206802Y187720D02*
D03*
Y178862D02*
D03*
Y168232D02*
D03*
X205817Y158783D02*
D03*
X206998Y128468D02*
D03*
X207392Y116657D02*
D03*
X207589Y105240D02*
D03*
Y100122D02*
D03*
X205227Y81618D02*
D03*
X204006Y150616D02*
D03*
X206802Y241699D02*
D03*
Y231699D02*
D03*
Y221699D02*
D03*
Y211699D02*
D03*
Y191699D02*
D03*
Y181699D02*
D03*
Y171699D02*
D03*
Y161699D02*
D03*
Y141699D02*
D03*
Y131699D02*
D03*
X207589Y83587D02*
D03*
X201211Y121699D02*
D03*
Y111699D02*
D03*
X201093Y92445D02*
D03*
X207589Y102681D02*
D03*
X204006Y70557D02*
D03*
X171959Y82230D02*
D03*
X139478Y59789D02*
D03*
X126880Y158707D02*
D03*
X163942Y210577D02*
D03*
X188495Y119140D02*
D03*
X154735Y329867D02*
D03*
X118022Y64809D02*
D03*
X158179Y107624D02*
D03*
X176487Y122289D02*
D03*
X184853Y199750D02*
D03*
X162805Y63825D02*
D03*
X119892Y80655D02*
D03*
X156211Y78687D02*
D03*
Y74750D02*
D03*
X133179Y84691D02*
D03*
X139478Y71797D02*
D03*
X141411Y69533D02*
D03*
X119892Y75735D02*
D03*
X105424Y112053D02*
D03*
X121762Y202998D02*
D03*
X126978Y169042D02*
D03*
X120384Y173668D02*
D03*
X121762Y148766D02*
D03*
X145876Y132919D02*
D03*
X162805Y122584D02*
D03*
X133573Y184100D02*
D03*
X133573Y118943D02*
D03*
X127668Y119927D02*
D03*
X140168Y240793D02*
D03*
Y245222D02*
D03*
X97353Y80640D02*
D03*
X130227Y131443D02*
D03*
X119892Y68746D02*
D03*
X131113Y92073D02*
D03*
X89676Y122675D02*
D03*
X130916Y221010D02*
D03*
X116911Y307919D02*
D03*
X79341Y303884D02*
D03*
X186550Y130951D02*
D03*
X182589Y149356D02*
D03*
X158672Y220577D02*
D03*
X131113Y158707D02*
D03*
X109361Y91974D02*
D03*
X97353Y146986D02*
D03*
Y216187D02*
D03*
X84459Y303884D02*
D03*
X119695Y238136D02*
D03*
X87707Y311659D02*
D03*
X119695Y241581D02*
D03*
X150798Y329868D02*
D03*
X211526Y148547D02*
D03*
X137412Y165203D02*
D03*
X211723Y140083D02*
D03*
X81014Y55596D02*
D03*
X129439Y54415D02*
D03*
X119794Y63114D02*
D03*
X85935Y321579D02*
D03*
X153061Y245754D02*
D03*
X155621Y245791D02*
D03*
X119400Y194413D02*
D03*
X115660D02*
D03*
X121172Y200242D02*
D03*
X139676Y236736D02*
D03*
X204046Y201500D02*
D03*
X207589Y79494D02*
D03*
X64085Y231815D02*
D03*
X66644D02*
D03*
X63888Y162917D02*
D03*
X66447D02*
D03*
X64479Y93429D02*
D03*
X66841D02*
D03*
X92431Y182209D02*
D03*
X90266D02*
D03*
D121*
X55044Y157813D02*
X81309D01*
X48471Y246939D02*
X63264D01*
X66250Y249925D01*
X81288D01*
X81309Y249947D01*
X48471Y211339D02*
Y218760D01*
X56725Y227014D01*
X81309D01*
X48538Y177663D02*
X60720D01*
X63804Y180746D01*
X81309D01*
X48538Y142062D02*
Y151307D01*
Y108463D02*
X63567D01*
X66552Y111447D01*
X81309D01*
X48538Y72862D02*
Y82803D01*
X54248Y88514D01*
X81309D01*
X48538Y151307D02*
X55044Y157813D01*
M02*
