G04*
G04 #@! TF.GenerationSoftware,Altium Limited,Altium Designer,18.1.9 (240)*
G04*
G04 Layer_Color=16711935*
%FSLAX25Y25*%
%MOIN*%
G70*
G01*
G75*
%ADD10C,0.01000*%
%ADD13C,0.00118*%
%ADD14C,0.00504*%
%ADD15C,0.00158*%
%ADD16C,0.00787*%
%ADD49C,0.00799*%
%ADD50C,0.00197*%
%ADD51C,0.07087*%
%ADD52R,0.02756X0.04331*%
%ADD53R,0.04134X0.06496*%
%ADD62R,0.03347X0.02362*%
%ADD65R,0.04724X0.04724*%
%ADD80R,0.02362X0.03347*%
%ADD81R,0.04331X0.02756*%
%ADD83R,0.06496X0.04134*%
%ADD84R,0.11024X0.04921*%
%ADD85C,0.05394*%
%ADD86C,0.15787*%
%ADD87R,0.06299X0.06299*%
%ADD88C,0.06299*%
%ADD89C,0.04894*%
%ADD90O,0.16394X0.10394*%
%ADD91O,0.16394X0.07594*%
%ADD92C,0.03543*%
%ADD93C,0.02165*%
%ADD145R,0.09055X0.05906*%
%ADD146R,0.03937X0.05906*%
%ADD147R,0.05394X0.07394*%
%ADD148R,0.01575X0.03051*%
%ADD149R,0.09843X0.06890*%
%ADD150R,0.02756X0.05315*%
%ADD151R,0.03740X0.01772*%
%ADD152R,0.05709X0.04331*%
%ADD153R,0.01378X0.03150*%
%ADD154R,0.10827X0.10827*%
%ADD155R,0.01378X0.03740*%
%ADD156R,0.02362X0.01575*%
%ADD157R,0.02362X0.04724*%
%ADD158R,0.16535X0.14173*%
%ADD159R,0.02165X0.06102*%
%ADD160R,0.03150X0.01378*%
%ADD161R,0.04331X0.05709*%
%ADD162R,0.04724X0.04724*%
%ADD163R,0.02756X0.05512*%
%ADD164R,0.05118X0.07480*%
%ADD165R,0.04331X0.02756*%
%ADD166R,0.05315X0.02756*%
G36*
X158117Y340514D02*
X158130Y340502D01*
X157141Y340357D01*
X156551Y340160D01*
X155763Y339766D01*
X155173Y339176D01*
X154779Y338585D01*
X154385Y337798D01*
X154188Y336420D01*
X154385Y335239D01*
X155173Y333959D01*
X155665Y333566D01*
X156354Y333073D01*
X157338Y332680D01*
X158130Y332640D01*
X130544D01*
X131255Y332680D01*
X131944Y332877D01*
X132633Y333270D01*
X133322Y333763D01*
X133814Y334353D01*
X134208Y335140D01*
X134405Y335829D01*
X134503Y336617D01*
X134405Y337404D01*
X134110Y338290D01*
X133322Y339373D01*
X132732Y339865D01*
X132043Y340259D01*
X131255Y340455D01*
X130544Y340514D01*
X158117Y340514D01*
D02*
G37*
G36*
X39375Y216064D02*
X39335Y216775D01*
X39138Y217464D01*
X38745Y218153D01*
X38252Y218842D01*
X37662Y219334D01*
X36875Y219728D01*
X36186Y219924D01*
X35398Y220023D01*
X34611Y219924D01*
X33725Y219629D01*
X32642Y218842D01*
X32150Y218251D01*
X31756Y217562D01*
X31560Y216775D01*
X31501Y216064D01*
X31501Y243637D01*
X31513Y243649D01*
X31658Y242661D01*
X31855Y242070D01*
X32249Y241283D01*
X32839Y240692D01*
X33430Y240299D01*
X34217Y239905D01*
X35595Y239708D01*
X36776Y239905D01*
X38056Y240692D01*
X38449Y241184D01*
X38941Y241873D01*
X39335Y242858D01*
X39375Y243649D01*
Y216064D01*
D02*
G37*
G36*
X301229Y189965D02*
X301189Y190676D01*
X300992Y191365D01*
X300599Y192054D01*
X300107Y192743D01*
X299516Y193235D01*
X298729Y193629D01*
X298040Y193825D01*
X297252Y193924D01*
X296465Y193825D01*
X295579Y193530D01*
X294496Y192743D01*
X294004Y192152D01*
X293611Y191463D01*
X293414Y190676D01*
X293355Y189965D01*
X293355Y217537D01*
X293367Y217550D01*
X293512Y216562D01*
X293709Y215971D01*
X294103Y215184D01*
X294693Y214593D01*
X295284Y214199D01*
X296071Y213806D01*
X297449Y213609D01*
X298630Y213806D01*
X299910Y214593D01*
X300304Y215085D01*
X300796Y215774D01*
X301189Y216758D01*
X301229Y217550D01*
Y189965D01*
D02*
G37*
G36*
X70556Y253055D02*
X78227D01*
X78214Y206645D01*
X70556D01*
Y253055D01*
X70556Y253055D01*
D02*
G37*
G36*
X39375Y146844D02*
X39335Y147555D01*
X39138Y148244D01*
X38745Y148933D01*
X38252Y149622D01*
X37662Y150114D01*
X36875Y150508D01*
X36186Y150704D01*
X35398Y150803D01*
X34611Y150704D01*
X33725Y150409D01*
X32642Y149622D01*
X32150Y149031D01*
X31756Y148342D01*
X31560Y147555D01*
X31501Y146844D01*
X31501Y174417D01*
X31513Y174429D01*
X31658Y173441D01*
X31855Y172850D01*
X32249Y172063D01*
X32839Y171472D01*
X33430Y171078D01*
X34217Y170685D01*
X35595Y170488D01*
X36776Y170685D01*
X38056Y171472D01*
X38449Y171964D01*
X38941Y172653D01*
X39335Y173637D01*
X39375Y174429D01*
Y146844D01*
D02*
G37*
G36*
X70871Y183835D02*
X78227D01*
X78214Y137425D01*
X70871Y137425D01*
Y183835D01*
X70871Y183835D01*
D02*
G37*
G36*
X301229Y102560D02*
X301189Y103271D01*
X300992Y103960D01*
X300599Y104649D01*
X300107Y105338D01*
X299516Y105830D01*
X298729Y106223D01*
X298040Y106420D01*
X297252Y106519D01*
X296465Y106420D01*
X295579Y106125D01*
X294496Y105338D01*
X294004Y104747D01*
X293611Y104058D01*
X293414Y103271D01*
X293355Y102560D01*
X293355Y130132D01*
X293367Y130145D01*
X293512Y129156D01*
X293709Y128566D01*
X294103Y127778D01*
X294693Y127188D01*
X295284Y126794D01*
X296071Y126400D01*
X297449Y126204D01*
X298630Y126400D01*
X299910Y127188D01*
X300304Y127680D01*
X300796Y128369D01*
X301189Y129353D01*
X301229Y130145D01*
Y102560D01*
D02*
G37*
G36*
X39375Y77624D02*
X39335Y78335D01*
X39138Y79024D01*
X38745Y79713D01*
X38252Y80402D01*
X37662Y80894D01*
X36875Y81287D01*
X36186Y81484D01*
X35398Y81583D01*
X34611Y81484D01*
X33725Y81189D01*
X32642Y80402D01*
X32150Y79811D01*
X31756Y79122D01*
X31560Y78335D01*
X31501Y77624D01*
X31501Y105197D01*
X31513Y105209D01*
X31658Y104221D01*
X31855Y103630D01*
X32249Y102843D01*
X32839Y102252D01*
X33430Y101858D01*
X34217Y101465D01*
X35595Y101268D01*
X36776Y101465D01*
X38056Y102252D01*
X38449Y102744D01*
X38941Y103433D01*
X39335Y104417D01*
X39375Y105209D01*
Y77624D01*
D02*
G37*
G36*
X78214Y72595D02*
X70871Y72595D01*
Y114615D01*
X78227D01*
X78214Y72595D01*
D02*
G37*
G36*
X223132Y67055D02*
X223123Y67045D01*
X215093D01*
Y253055D01*
X223132D01*
Y67055D01*
D02*
G37*
G36*
X176872Y39059D02*
X176885Y39046D01*
X175896Y38901D01*
X175305Y38705D01*
X174518Y38311D01*
X173927Y37720D01*
X173534Y37130D01*
X173140Y36342D01*
X172943Y34964D01*
X173140Y33783D01*
X173927Y32504D01*
X174420Y32110D01*
X175109Y31618D01*
X176093Y31224D01*
X176885Y31185D01*
X149299D01*
X150010Y31224D01*
X150699Y31421D01*
X151388Y31815D01*
X152077Y32307D01*
X152569Y32897D01*
X152963Y33685D01*
X153160Y34374D01*
X153258Y35161D01*
X153160Y35949D01*
X152865Y36834D01*
X152077Y37917D01*
X151487Y38409D01*
X150798Y38803D01*
X150010Y39000D01*
X149299Y39059D01*
X176872Y39059D01*
D02*
G37*
D10*
X0Y369767D02*
X330709D01*
Y-311D02*
Y369767D01*
D13*
X322854Y39026D02*
G03*
X322854Y39026I-7894J0D01*
G01*
X23642D02*
G03*
X23642Y39026I-7894J0D01*
G01*
Y330365D02*
G03*
X23642Y330365I-7894J0D01*
G01*
X69337Y332640D02*
G03*
X59337Y322640I0J-10000D01*
G01*
X130544Y332640D02*
G03*
X130544Y340514I0J3937D01*
G01*
X158130D02*
G03*
X158130Y332640I0J-3937D01*
G01*
X31501Y243643D02*
G03*
X39375Y243643I3937J0D01*
G01*
Y216057D02*
G03*
X31501Y216057I-3937J0D01*
G01*
X39375Y146837D02*
G03*
X31501Y146837I-3937J0D01*
G01*
Y174423D02*
G03*
X39375Y174423I3937J0D01*
G01*
Y77617D02*
G03*
X31501Y77617I-3937J0D01*
G01*
Y105203D02*
G03*
X39375Y105203I3937J0D01*
G01*
X301229Y189965D02*
G03*
X293355Y189965I-3937J0D01*
G01*
Y217550D02*
G03*
X301229Y217550I3937J0D01*
G01*
Y102560D02*
G03*
X293355Y102560I-3937J0D01*
G01*
Y130145D02*
G03*
X301229Y130145I3937J0D01*
G01*
X176885Y39059D02*
G03*
X176885Y31185I0J-3937D01*
G01*
X149299D02*
G03*
X149299Y39059I0J3937D01*
G01*
X322859Y330398D02*
G03*
X322859Y330398I-7894J0D01*
G01*
X23646D02*
G03*
X23646Y330398I-7894J0D01*
G01*
X293355Y247055D02*
G03*
X287355Y253055I-6000J0D01*
G01*
Y67055D02*
G03*
X293355Y73055I0J6000D01*
G01*
X215337Y67055D02*
G03*
X215093Y67045I0J-3000D01*
G01*
X42375Y253055D02*
G03*
X39375Y250055I0J-3000D01*
G01*
Y209645D02*
G03*
X42375Y206645I3000J0D01*
G01*
X59337Y298140D02*
G03*
X69337Y288140I10000J0D01*
G01*
X111837D02*
G03*
X114837Y291140I0J3000D01*
G01*
X173837Y296140D02*
G03*
X170837Y296140I-1500J0D01*
G01*
X173837Y291140D02*
G03*
X176837Y288140I3000J-0D01*
G01*
X229337Y322640D02*
G03*
X219337Y332640I-10000J0D01*
G01*
X117837Y296140D02*
G03*
X114837Y296140I-1500J0D01*
G01*
X69337Y332640D02*
G03*
X59337Y322640I0J-10000D01*
G01*
X219337Y288140D02*
G03*
X229337Y298140I-0J10000D01*
G01*
X98337Y46055D02*
G03*
X92337Y46055I-3000J0D01*
G01*
X86799Y39362D02*
G03*
X92337Y43055I1539J3692D01*
G01*
X68694Y62439D02*
G03*
X86799Y39362I29643J4615D01*
G01*
X72646Y67055D02*
G03*
X68694Y62439I0J-4000D01*
G01*
X78337Y67055D02*
G03*
X81328Y69825I0J3000D01*
G01*
D02*
G03*
X78337Y72595I-2991J-230D01*
G01*
X170837Y249118D02*
G03*
X173837Y249118I1500J0D01*
G01*
X214932Y67027D02*
G03*
X214921Y61084I405J-2973D01*
G01*
X81337Y134425D02*
G03*
X78337Y137425I-3000J0D01*
G01*
Y183835D02*
G03*
X81337Y186835I0J3000D01*
G01*
X78337Y114615D02*
G03*
X81337Y117615I0J3000D01*
G01*
Y203645D02*
G03*
X78337Y206645I-3000J0D01*
G01*
X200347Y39059D02*
G03*
X201887Y39367I0J4000D01*
G01*
X121837Y43059D02*
G03*
X125837Y39059I4000J0D01*
G01*
X218062Y55595D02*
G03*
X214921Y61084I-3697J1528D01*
G01*
X201887Y39367D02*
G03*
X218062Y55595I-11550J27688D01*
G01*
X121837Y46055D02*
G03*
X115837Y46055I-3000J0D01*
G01*
X114837Y249118D02*
G03*
X117837Y249118I1500J0D01*
G01*
X66809Y72595D02*
G03*
X64854Y70855I0J-1969D01*
G01*
X61875Y68205D02*
G03*
X64854Y70855I0J3000D01*
G01*
X39375Y71205D02*
G03*
X42375Y68205I3000J0D01*
G01*
Y114615D02*
G03*
X39375Y111615I0J-3000D01*
G01*
X42375Y183835D02*
G03*
X39375Y180835I0J-3000D01*
G01*
Y140425D02*
G03*
X42375Y137425I3000J0D01*
G01*
X51463Y298140D02*
G03*
X69337Y280266I17874J0D01*
G01*
Y340514D02*
G03*
X51463Y322640I0J-17874D01*
G01*
X237211D02*
G03*
X219337Y340514I-17874J0D01*
G01*
Y280266D02*
G03*
X237211Y298140I-0J17874D01*
G01*
X42375Y260929D02*
G03*
X31501Y250055I0J-10874D01*
G01*
Y209645D02*
G03*
X42375Y198771I10874J0D01*
G01*
Y191709D02*
G03*
X31501Y180835I0J-10874D01*
G01*
Y140425D02*
G03*
X42375Y129551I10874J0D01*
G01*
Y122489D02*
G03*
X31501Y111615I0J-10874D01*
G01*
Y71205D02*
G03*
X42375Y60331I10874J0D01*
G01*
X61065D02*
G03*
X83770Y32094I37272J6724D01*
G01*
X83770Y32094D02*
G03*
X88650Y31185I4567J10961D01*
G01*
X202494Y31185D02*
G03*
X227384Y59181I-12157J35870D01*
G01*
X287355D02*
G03*
X301229Y73055I0J13874D01*
G01*
Y247055D02*
G03*
X287355Y260929I-13874J0D01*
G01*
X59337Y322640D02*
X59337D01*
X238236Y67055D02*
X287355D01*
X238236Y253055D02*
X287355D01*
X293355Y73055D02*
Y102570D01*
X215337Y67055D02*
X223132D01*
X215093Y253055D02*
X223132D01*
X78214Y72595D02*
X78227D01*
X78214Y114615D02*
X78227D01*
X78214Y137425D02*
X78227D01*
X78214Y183835D02*
X78227D01*
X78214Y206645D02*
X78227D01*
X78214Y253055D02*
X114837D01*
X117837Y251874D02*
Y252679D01*
X170837Y251874D02*
Y252679D01*
X173837Y253055D02*
X215093D01*
X214932Y67027D02*
X215093Y67045D01*
X70871Y114615D02*
X72649D01*
X70871Y72595D02*
X72649D01*
X170837Y292867D02*
Y292873D01*
X117837Y292867D02*
Y292873D01*
X170837Y284827D02*
Y292867D01*
X117837Y284827D02*
Y292867D01*
X72649Y72595D02*
X78214D01*
X72649Y114615D02*
X78214D01*
X70871Y137425D02*
X72649D01*
X70871Y183835D02*
X72649D01*
X70871Y253055D02*
X72649D01*
X70871Y206645D02*
X72649D01*
Y137425D02*
X78214D01*
X72649Y183835D02*
X78214D01*
X170837Y257368D02*
Y262504D01*
X117837Y257368D02*
Y262504D01*
X233133Y67055D02*
X238236D01*
X223132Y253055D02*
X238236D01*
X72649Y206645D02*
X78214D01*
X72649Y253055D02*
X78214D01*
X117837Y252679D02*
Y257368D01*
X170837Y252679D02*
Y257368D01*
Y267194D02*
Y284827D01*
X117837Y267194D02*
Y284827D01*
Y262504D02*
Y267194D01*
X170837Y262504D02*
Y267194D01*
X42375Y253055D02*
X70871D01*
X42375Y206645D02*
X70871D01*
X223132Y67055D02*
X233133D01*
X173837Y291140D02*
Y296140D01*
X170837Y292873D02*
Y296140D01*
X69337Y288140D02*
X111837D01*
X59337Y298140D02*
Y322640D01*
X114837Y291140D02*
Y296140D01*
X117837Y292873D02*
Y296140D01*
X69337Y332641D02*
X130553D01*
X229337Y298140D02*
Y322640D01*
X176837Y288140D02*
X219337D01*
X92337Y43055D02*
Y46055D01*
X72646Y67055D02*
X78337D01*
X78227Y72595D02*
X78337D01*
X78227Y114615D02*
X78337D01*
X170837Y249118D02*
Y251874D01*
X173837Y249118D02*
Y253055D01*
X115837Y44413D02*
Y46055D01*
X98337Y44413D02*
X115837D01*
X98337D02*
Y46055D01*
X78227Y206645D02*
X78337D01*
X78227Y253055D02*
X114837Y253055D01*
X81337Y117615D02*
Y134425D01*
X78227Y137425D02*
X78337D01*
X78227Y183835D02*
X78337D01*
X125837Y39059D02*
X149312D01*
X114837Y249118D02*
Y253055D01*
X81337Y186835D02*
Y203645D01*
X117837Y249118D02*
Y251874D01*
X121837Y43059D02*
Y46055D01*
X42375Y114615D02*
X70871D01*
X66809Y72595D02*
X70871D01*
X42375Y68205D02*
X61875D01*
X39375Y71205D02*
Y77617D01*
X42375Y183835D02*
X70871D01*
X42375Y137425D02*
X70871D01*
X39375Y140425D02*
Y146837D01*
X69337Y280266D02*
X109963D01*
X51463Y298140D02*
Y322640D01*
X69337Y340514D02*
X130544D01*
X237211Y298140D02*
Y322640D01*
X178711Y280266D02*
X219337D01*
X109963Y260929D02*
Y280266D01*
X178711Y260929D02*
Y280266D01*
X42375Y260929D02*
X109963D01*
X31501Y209645D02*
Y216064D01*
X42375Y198771D02*
X73463D01*
Y191709D02*
Y198771D01*
X42375Y191709D02*
X73463D01*
X31501Y140425D02*
Y146844D01*
X42375Y129551D02*
X73463D01*
Y122489D02*
Y129551D01*
X42375Y122489D02*
X73463D01*
X31501Y71205D02*
Y77624D01*
X42375Y60331D02*
X61065D01*
X88024Y31185D02*
X149299D01*
X227384Y59181D02*
X287355D01*
X301229Y73055D02*
Y102560D01*
X178711Y260929D02*
X287355D01*
X117837Y262504D02*
Y267194D01*
X293355Y217540D02*
Y247055D01*
Y130135D02*
Y189975D01*
X176872Y39059D02*
X200347D01*
X31501Y105196D02*
Y111615D01*
Y174416D02*
Y180835D01*
Y243636D02*
Y250055D01*
X158121Y332641D02*
X219337D01*
X39375Y174423D02*
Y180835D01*
Y243643D02*
Y250055D01*
Y105203D02*
Y111615D01*
X176885Y31185D02*
X202494D01*
X158130Y340514D02*
X219337D01*
X301229Y217550D02*
Y247055D01*
Y130145D02*
Y189965D01*
X39375Y209645D02*
Y216057D01*
D14*
X0Y-312D02*
X330709D01*
X0Y-311D02*
Y369768D01*
D15*
X215337Y67055D02*
G03*
X215093Y67045I0J-3000D01*
G01*
X218062Y55595D02*
G03*
X214921Y61084I-3697J1528D01*
G01*
X201887Y39367D02*
G03*
X218062Y55595I-11550J27688D01*
G01*
X200347Y39059D02*
G03*
X201887Y39367I0J4000D01*
G01*
X121837Y43059D02*
G03*
X125837Y39059I4000J0D01*
G01*
X121837Y46055D02*
G03*
X115837Y46055I-3000J0D01*
G01*
X98337D02*
G03*
X92337Y46055I-3000J0D01*
G01*
X86799Y39362D02*
G03*
X92337Y43055I1539J3692D01*
G01*
X68694Y62439D02*
G03*
X86799Y39362I29643J4615D01*
G01*
X72646Y67055D02*
G03*
X68694Y62439I0J-4000D01*
G01*
X78337Y67055D02*
G03*
X81328Y69825I0J3000D01*
G01*
D02*
G03*
X78337Y72595I-2991J-230D01*
G01*
Y114615D02*
G03*
X81337Y117615I0J3000D01*
G01*
Y134425D02*
G03*
X78337Y137425I-3000J0D01*
G01*
Y183835D02*
G03*
X81337Y186835I0J3000D01*
G01*
Y203645D02*
G03*
X78337Y206645I-3000J0D01*
G01*
X114837Y249118D02*
G03*
X117837Y249118I1500J0D01*
G01*
X170837D02*
G03*
X173837Y249118I1500J0D01*
G01*
X215093Y67045D02*
G03*
X214921Y61084I244J-2990D01*
G01*
X39375Y71205D02*
G03*
X42375Y68205I3000J0D01*
G01*
Y114615D02*
G03*
X39375Y111615I0J-3000D01*
G01*
X66809Y72595D02*
G03*
X64854Y70855I0J-1969D01*
G01*
X61875Y68205D02*
G03*
X64854Y70855I0J3000D01*
G01*
X117837Y296140D02*
G03*
X114837Y296140I-1500J0D01*
G01*
X111837Y288140D02*
G03*
X114837Y291140I0J3000D01*
G01*
X229337Y322640D02*
G03*
X219337Y332640I-10000J0D01*
G01*
X173837Y291140D02*
G03*
X176837Y288140I3000J0D01*
G01*
X173837Y296140D02*
G03*
X170837Y296140I-1500J0D01*
G01*
X59337Y298140D02*
G03*
X69337Y288140I10000J0D01*
G01*
Y332640D02*
G03*
X59337Y322640I0J-10000D01*
G01*
X219337Y288140D02*
G03*
X229337Y298140I0J10000D01*
G01*
X42375Y183835D02*
G03*
X39375Y180835I0J-3000D01*
G01*
Y140425D02*
G03*
X42375Y137425I3000J0D01*
G01*
X39375Y209645D02*
G03*
X42375Y206645I3000J0D01*
G01*
Y253055D02*
G03*
X39375Y250055I0J-3000D01*
G01*
X293355Y247055D02*
G03*
X287355Y253055I-6000J0D01*
G01*
Y67055D02*
G03*
X293355Y73055I0J6000D01*
G01*
X215337Y67055D02*
X223132D01*
X215093Y253055D02*
X223132D01*
X125837Y39059D02*
X200347D01*
X121837Y43059D02*
Y46055D01*
X115837Y44413D02*
Y46055D01*
X98337Y44413D02*
X115837D01*
X98337D02*
Y46055D01*
X92337Y43055D02*
Y46055D01*
X72646Y67055D02*
X78337D01*
X78214Y72595D02*
X78337D01*
X78214Y114615D02*
X78337D01*
X81337Y117615D02*
Y134425D01*
X78214Y137425D02*
X78337D01*
X78214Y183835D02*
X78337D01*
X81337Y186835D02*
Y203645D01*
X78214Y206645D02*
X78337D01*
X78214Y253055D02*
X114837D01*
Y249118D02*
Y253055D01*
X117837Y249118D02*
Y252679D01*
X170837Y249118D02*
Y252679D01*
X173837Y249118D02*
Y253055D01*
X215093D01*
X42375Y68205D02*
X61875D01*
X39375Y71205D02*
Y111615D01*
X42375Y114615D02*
X72649D01*
X66809Y72595D02*
X72649D01*
X114837Y291140D02*
Y296140D01*
X69337Y288140D02*
X111837D01*
X69337Y332640D02*
X219337D01*
X229337Y298140D02*
Y322640D01*
X173837Y291140D02*
Y296140D01*
X170837Y292867D02*
Y296140D01*
X59337Y298140D02*
Y322640D01*
X117837Y292867D02*
Y296140D01*
X176837Y288140D02*
X219337D01*
X42375Y183835D02*
X72649D01*
X39375Y140425D02*
Y180835D01*
X42375Y137425D02*
X72649D01*
X42375Y253055D02*
X72649D01*
X42375Y206645D02*
X72649D01*
Y137425D02*
X78214D01*
X72649Y183835D02*
X78214D01*
X170837Y252679D02*
Y257368D01*
X117837Y252679D02*
Y257368D01*
X72649Y206645D02*
X78214D01*
X72649Y253055D02*
X78214D01*
X72649Y72595D02*
X78214D01*
X72649Y114615D02*
X78214D01*
X170837Y257368D02*
Y262504D01*
X117837Y257368D02*
Y262504D01*
X170837Y284827D02*
Y292867D01*
X117837Y284827D02*
Y292867D01*
X170837Y267194D02*
Y284827D01*
X117837Y267194D02*
Y284827D01*
X293355Y73055D02*
Y247055D01*
X223132Y253055D02*
X287355D01*
X223132Y67055D02*
X287355D01*
X117837Y262504D02*
Y267194D01*
X170837Y262504D02*
Y267194D01*
X39375Y209645D02*
Y250055D01*
D16*
X111585Y-7102D02*
X110985Y-6502D01*
X110085Y-6202D01*
X108886D01*
X107986Y-6502D01*
X107386Y-7102D01*
Y-7702D01*
X107686Y-8301D01*
X107986Y-8601D01*
X108586Y-8901D01*
X110385Y-9501D01*
X110985Y-9801D01*
X111285Y-10101D01*
X111585Y-10701D01*
Y-11600D01*
X110985Y-12200D01*
X110085Y-12500D01*
X108886D01*
X107986Y-12200D01*
X107386Y-11600D01*
X114494Y-8301D02*
X113894Y-8601D01*
X113294Y-9201D01*
X112995Y-10101D01*
Y-10701D01*
X113294Y-11600D01*
X113894Y-12200D01*
X114494Y-12500D01*
X115394D01*
X115993Y-12200D01*
X116593Y-11600D01*
X116893Y-10701D01*
Y-10101D01*
X116593Y-9201D01*
X115993Y-8601D01*
X115394Y-8301D01*
X114494D01*
X118273Y-6202D02*
Y-12500D01*
X123191Y-6202D02*
Y-12500D01*
Y-9201D02*
X122591Y-8601D01*
X121991Y-8301D01*
X121092D01*
X120492Y-8601D01*
X119892Y-9201D01*
X119592Y-10101D01*
Y-10701D01*
X119892Y-11600D01*
X120492Y-12200D01*
X121092Y-12500D01*
X121991D01*
X122591Y-12200D01*
X123191Y-11600D01*
X124870Y-10101D02*
X128469D01*
Y-9501D01*
X128169Y-8901D01*
X127869Y-8601D01*
X127270Y-8301D01*
X126370D01*
X125770Y-8601D01*
X125170Y-9201D01*
X124870Y-10101D01*
Y-10701D01*
X125170Y-11600D01*
X125770Y-12200D01*
X126370Y-12500D01*
X127270D01*
X127869Y-12200D01*
X128469Y-11600D01*
X129819Y-8301D02*
Y-12500D01*
Y-10101D02*
X130119Y-9201D01*
X130718Y-8601D01*
X131318Y-8301D01*
X132218D01*
X137736Y-6202D02*
Y-12500D01*
Y-6202D02*
X140135Y-12500D01*
X142534Y-6202D02*
X140135Y-12500D01*
X142534Y-6202D02*
Y-12500D01*
X147933Y-8301D02*
Y-12500D01*
Y-9201D02*
X147333Y-8601D01*
X146733Y-8301D01*
X145833D01*
X145234Y-8601D01*
X144634Y-9201D01*
X144334Y-10101D01*
Y-10701D01*
X144634Y-11600D01*
X145234Y-12200D01*
X145833Y-12500D01*
X146733D01*
X147333Y-12200D01*
X147933Y-11600D01*
X152911Y-9201D02*
X152611Y-8601D01*
X151711Y-8301D01*
X150812D01*
X149912Y-8601D01*
X149612Y-9201D01*
X149912Y-9801D01*
X150512Y-10101D01*
X152011Y-10401D01*
X152611Y-10701D01*
X152911Y-11300D01*
Y-11600D01*
X152611Y-12200D01*
X151711Y-12500D01*
X150812D01*
X149912Y-12200D01*
X149612Y-11600D01*
X154230Y-6202D02*
Y-12500D01*
X157229Y-8301D02*
X154230Y-11300D01*
X155430Y-10101D02*
X157529Y-12500D01*
X163467Y-6202D02*
Y-12500D01*
Y-6202D02*
X166166D01*
X167066Y-6502D01*
X167366Y-6802D01*
X167666Y-7402D01*
Y-8002D01*
X167366Y-8601D01*
X167066Y-8901D01*
X166166Y-9201D01*
X163467D02*
X166166D01*
X167066Y-9501D01*
X167366Y-9801D01*
X167666Y-10401D01*
Y-11300D01*
X167366Y-11900D01*
X167066Y-12200D01*
X166166Y-12500D01*
X163467D01*
X170575Y-8301D02*
X169975Y-8601D01*
X169375Y-9201D01*
X169075Y-10101D01*
Y-10701D01*
X169375Y-11600D01*
X169975Y-12200D01*
X170575Y-12500D01*
X171475D01*
X172074Y-12200D01*
X172674Y-11600D01*
X172974Y-10701D01*
Y-10101D01*
X172674Y-9201D01*
X172074Y-8601D01*
X171475Y-8301D01*
X170575D01*
X175253Y-6202D02*
Y-11300D01*
X175553Y-12200D01*
X176153Y-12500D01*
X176753D01*
X174354Y-8301D02*
X176453D01*
X178552Y-6202D02*
Y-11300D01*
X178852Y-12200D01*
X179452Y-12500D01*
X180052D01*
X177653Y-8301D02*
X179752D01*
X182451D02*
X181851Y-8601D01*
X181251Y-9201D01*
X180951Y-10101D01*
Y-10701D01*
X181251Y-11600D01*
X181851Y-12200D01*
X182451Y-12500D01*
X183351D01*
X183950Y-12200D01*
X184550Y-11600D01*
X184850Y-10701D01*
Y-10101D01*
X184550Y-9201D01*
X183950Y-8601D01*
X183351Y-8301D01*
X182451D01*
X186230D02*
Y-12500D01*
Y-9501D02*
X187129Y-8601D01*
X187729Y-8301D01*
X188629D01*
X189229Y-8601D01*
X189529Y-9501D01*
Y-12500D01*
Y-9501D02*
X190428Y-8601D01*
X191028Y-8301D01*
X191928D01*
X192527Y-8601D01*
X192827Y-9501D01*
Y-12500D01*
D49*
X325059Y39026D02*
G03*
X325059Y39026I-10138J0D01*
G01*
X25846D02*
G03*
X25846Y39026I-10138J0D01*
G01*
Y330365D02*
G03*
X25846Y330365I-10138J0D01*
G01*
X325059D02*
G03*
X325059Y330365I-10138J0D01*
G01*
D50*
X61875Y68205D02*
G03*
X64854Y70855I0J3000D01*
G01*
X66809Y72595D02*
G03*
X64854Y70855I0J-1969D01*
G01*
X81328Y69825D02*
G03*
X78337Y72595I-2991J-230D01*
G01*
Y67055D02*
G03*
X81328Y69825I0J3000D01*
G01*
X72646Y67055D02*
G03*
X68694Y62439I0J-4000D01*
G01*
Y62439D02*
G03*
X86799Y39362I29643J4615D01*
G01*
D02*
G03*
X92337Y43055I1539J3692D01*
G01*
X98337Y46055D02*
G03*
X92337Y46055I-3000J0D01*
G01*
X121837D02*
G03*
X115837Y46055I-3000J0D01*
G01*
X121837Y43059D02*
G03*
X125837Y39059I4000J0D01*
G01*
X200347D02*
G03*
X201887Y39367I0J4000D01*
G01*
X201887D02*
G03*
X218062Y55595I-11550J27688D01*
G01*
D02*
G03*
X214921Y61084I-3697J1528D01*
G01*
X215093Y67045D02*
G03*
X214921Y61084I244J-2990D01*
G01*
X215337Y67055D02*
G03*
X215093Y67045I0J-3000D01*
G01*
X287355Y67055D02*
G03*
X293355Y73055I0J6000D01*
G01*
Y247055D02*
G03*
X287355Y253055I-6000J0D01*
G01*
X170837Y249118D02*
G03*
X173837Y249118I1500J0D01*
G01*
Y296140D02*
G03*
X170837Y296140I-1500J0D01*
G01*
X173837Y291140D02*
G03*
X176837Y288140I3000J0D01*
G01*
X219337D02*
G03*
X229337Y298140I0J10000D01*
G01*
Y322640D02*
G03*
X219337Y332640I-10000J0D01*
G01*
X69337D02*
G03*
X59337Y322640I0J-10000D01*
G01*
Y298140D02*
G03*
X69337Y288140I10000J0D01*
G01*
X111837D02*
G03*
X114837Y291140I0J3000D01*
G01*
X117837Y296140D02*
G03*
X114837Y296140I-1500J0D01*
G01*
Y249118D02*
G03*
X117837Y249118I1500J0D01*
G01*
X42375Y253055D02*
G03*
X39375Y250055I0J-3000D01*
G01*
Y209645D02*
G03*
X42375Y206645I3000J0D01*
G01*
X81337Y203645D02*
G03*
X78337Y206645I-3000J0D01*
G01*
Y183835D02*
G03*
X81337Y186835I0J3000D01*
G01*
X42375Y183835D02*
G03*
X39375Y180835I0J-3000D01*
G01*
Y140425D02*
G03*
X42375Y137425I3000J0D01*
G01*
X81337Y134425D02*
G03*
X78337Y137425I-3000J0D01*
G01*
Y114615D02*
G03*
X81337Y117615I0J3000D01*
G01*
X42375Y114615D02*
G03*
X39375Y111615I0J-3000D01*
G01*
Y71205D02*
G03*
X42375Y68205I3000J0D01*
G01*
Y68205D02*
X61875D01*
Y68205D01*
X64854Y70855D02*
X64854D01*
X66809Y72595D02*
Y72595D01*
Y72595D02*
X78337D01*
X72646Y67055D02*
X78337D01*
X68694Y62439D02*
Y62439D01*
X92337Y43055D02*
Y46055D01*
X92337D01*
X98337Y44413D02*
Y46055D01*
Y44413D02*
X115837D01*
Y46055D01*
X121837Y43059D02*
Y46055D01*
Y43059D02*
X121837D01*
X125837Y39059D02*
X200347D01*
X201887Y39367D02*
X201887D01*
X215337Y67055D02*
Y67055D01*
X287355D01*
X293355Y73055D02*
Y247055D01*
X287355Y253055D02*
Y253055D01*
X173837D02*
X287355D01*
X173837Y249118D02*
Y253055D01*
X170837Y249118D02*
X170837D01*
X170837D02*
Y296140D01*
X170837D01*
X173837Y291140D02*
Y296140D01*
X176837Y288140D02*
X219337D01*
X229337Y298140D02*
Y322640D01*
X69337Y332640D02*
X219337D01*
X59337Y298140D02*
Y322640D01*
X69337Y288140D02*
X111837D01*
X114837Y291140D02*
Y296140D01*
X117837Y249118D02*
Y296140D01*
X114837Y249118D02*
Y253055D01*
X42375D02*
X114837D01*
X42375Y253055D02*
Y253055D01*
X39375Y209645D02*
Y250055D01*
X42375Y206645D02*
X78337D01*
Y206645D02*
Y206645D01*
X81337Y203645D02*
X81337D01*
Y186835D02*
Y203645D01*
X81337Y186835D02*
X81337D01*
X42375Y183835D02*
X78337D01*
X39375Y140425D02*
Y180835D01*
X42375Y137425D02*
X78337D01*
X81337Y134425D02*
X81337D01*
Y117615D02*
Y134425D01*
X81337Y117615D02*
X81337D01*
X78337Y114615D02*
Y114615D01*
X42375Y114615D02*
X78337D01*
X39375Y71205D02*
Y111615D01*
D51*
X196850Y248672D02*
D03*
X78740Y50837D02*
D03*
X15748Y353987D02*
D03*
X314961Y15404D02*
D03*
D52*
X159754Y182722D02*
D03*
X165266D02*
D03*
X152274Y191532D02*
D03*
X146762D02*
D03*
Y196502D02*
D03*
X152274D02*
D03*
X146762Y202309D02*
D03*
X152274D02*
D03*
X170581Y205655D02*
D03*
X176093D02*
D03*
X201487Y56384D02*
D03*
X195975D02*
D03*
X121270Y117014D02*
D03*
X115758D02*
D03*
X190660Y164317D02*
D03*
X196172D02*
D03*
X182195Y170899D02*
D03*
X176683D02*
D03*
X167235Y170813D02*
D03*
X172747D02*
D03*
X150305Y137315D02*
D03*
X155817D02*
D03*
D53*
X175510Y154081D02*
D03*
X182597D02*
D03*
D62*
X81318Y246502D02*
D03*
Y242565D02*
D03*
X85246Y242565D02*
D03*
Y246502D02*
D03*
X89183Y242565D02*
D03*
Y246502D02*
D03*
X93120D02*
D03*
Y242565D02*
D03*
X97057Y246502D02*
D03*
Y242565D02*
D03*
X100995D02*
D03*
Y246502D02*
D03*
X110148Y240596D02*
D03*
Y244533D02*
D03*
Y224651D02*
D03*
Y228588D02*
D03*
X87707Y208904D02*
D03*
Y212841D02*
D03*
X91645D02*
D03*
Y208904D02*
D03*
X95582Y212841D02*
D03*
Y208904D02*
D03*
X99519Y212841D02*
D03*
Y208904D02*
D03*
X104833Y196305D02*
D03*
Y200242D02*
D03*
X81318Y177302D02*
D03*
Y173365D02*
D03*
X85246D02*
D03*
Y177302D02*
D03*
X89183Y173364D02*
D03*
Y177301D02*
D03*
X93120Y177309D02*
D03*
Y173372D02*
D03*
X97057D02*
D03*
Y177309D02*
D03*
X100995D02*
D03*
Y173372D02*
D03*
X110149Y178187D02*
D03*
Y182124D02*
D03*
X110148Y162242D02*
D03*
Y166179D02*
D03*
X111723Y150439D02*
D03*
Y146502D02*
D03*
X87707Y139704D02*
D03*
Y143641D02*
D03*
X91645D02*
D03*
Y139704D02*
D03*
X95582Y143641D02*
D03*
Y139704D02*
D03*
X99519Y143641D02*
D03*
Y139704D02*
D03*
X104833Y127104D02*
D03*
Y131041D02*
D03*
X84853Y118746D02*
D03*
Y122683D02*
D03*
X81318Y108002D02*
D03*
Y104065D02*
D03*
X85246D02*
D03*
Y108002D02*
D03*
X89183Y104065D02*
D03*
Y108002D02*
D03*
X93120D02*
D03*
Y104065D02*
D03*
X97058Y104065D02*
D03*
Y108002D02*
D03*
X100995Y108002D02*
D03*
Y104065D02*
D03*
X110050Y94238D02*
D03*
Y98175D02*
D03*
X111526Y83411D02*
D03*
Y79474D02*
D03*
X131408Y77885D02*
D03*
Y81822D02*
D03*
X87707Y72978D02*
D03*
Y76915D02*
D03*
X91644D02*
D03*
Y72978D02*
D03*
X95581Y76915D02*
D03*
Y72978D02*
D03*
X99518Y76915D02*
D03*
Y72978D02*
D03*
X134164Y57329D02*
D03*
Y61266D02*
D03*
X146664Y62759D02*
D03*
Y58822D02*
D03*
X140463Y78687D02*
D03*
Y74750D02*
D03*
X130621Y108214D02*
D03*
Y104277D02*
D03*
X130621Y122552D02*
D03*
Y126489D02*
D03*
X120286Y134986D02*
D03*
Y138923D02*
D03*
X131408Y144527D02*
D03*
Y148463D02*
D03*
X146172Y152506D02*
D03*
Y148569D02*
D03*
X153652Y152506D02*
D03*
Y148569D02*
D03*
X150601Y144927D02*
D03*
Y140990D02*
D03*
X155621Y144927D02*
D03*
Y140990D02*
D03*
X114889Y186955D02*
D03*
Y190892D02*
D03*
X111723Y212840D02*
D03*
Y208903D02*
D03*
X131408Y206936D02*
D03*
Y210873D02*
D03*
X184164Y238136D02*
D03*
Y242073D02*
D03*
X175798Y217565D02*
D03*
Y221502D02*
D03*
X171565D02*
D03*
Y217565D02*
D03*
X163979Y221502D02*
D03*
Y217565D02*
D03*
X153553Y218451D02*
D03*
Y222388D02*
D03*
X186829Y152014D02*
D03*
Y155951D02*
D03*
X190471Y152014D02*
D03*
Y155951D02*
D03*
X194113D02*
D03*
Y152014D02*
D03*
Y144435D02*
D03*
Y148372D02*
D03*
X194211Y133411D02*
D03*
Y137348D02*
D03*
X190857Y104277D02*
D03*
Y108214D02*
D03*
X195384Y100636D02*
D03*
Y96699D02*
D03*
X199617Y100636D02*
D03*
Y96699D02*
D03*
X203750D02*
D03*
Y100636D02*
D03*
X161920Y91777D02*
D03*
Y87840D02*
D03*
Y78687D02*
D03*
Y82624D02*
D03*
Y75636D02*
D03*
Y71699D02*
D03*
X167038Y72329D02*
D03*
Y76266D02*
D03*
X170187Y67762D02*
D03*
Y63825D02*
D03*
D65*
X166644Y45754D02*
D03*
X152077D02*
D03*
X152176Y53234D02*
D03*
X166743D02*
D03*
X188396D02*
D03*
X173829D02*
D03*
X173829Y45754D02*
D03*
X188396D02*
D03*
D80*
X145483Y230852D02*
D03*
X149420D02*
D03*
X107195Y233214D02*
D03*
X111132D02*
D03*
X109602Y220714D02*
D03*
X113540D02*
D03*
X120679Y221010D02*
D03*
X124617D02*
D03*
X96664Y189809D02*
D03*
X92727D02*
D03*
X107195Y170805D02*
D03*
X111132D02*
D03*
X109656Y158305D02*
D03*
X113593D02*
D03*
X120679Y158707D02*
D03*
X124617D02*
D03*
X111132Y108805D02*
D03*
X107195D02*
D03*
Y104163D02*
D03*
X111132D02*
D03*
X115561Y91088D02*
D03*
X111624D02*
D03*
X120679Y92073D02*
D03*
X124617D02*
D03*
X109754Y73766D02*
D03*
X113691D02*
D03*
X151093Y132591D02*
D03*
X155030D02*
D03*
X126782Y187447D02*
D03*
X122845D02*
D03*
X126782Y191532D02*
D03*
X130719D02*
D03*
X129636Y187348D02*
D03*
X133573D02*
D03*
X151880Y169336D02*
D03*
X147943D02*
D03*
X194794Y116384D02*
D03*
X190857D02*
D03*
X194794Y112348D02*
D03*
X190857D02*
D03*
D81*
X172648Y99258D02*
D03*
Y104770D02*
D03*
X110935Y129120D02*
D03*
Y123608D02*
D03*
X81309Y235675D02*
D03*
Y230163D02*
D03*
X103652Y208117D02*
D03*
Y213629D02*
D03*
X84951Y196502D02*
D03*
Y202014D02*
D03*
X81309Y166474D02*
D03*
Y160962D02*
D03*
X103652Y138916D02*
D03*
Y144428D02*
D03*
X84951Y127301D02*
D03*
Y132812D02*
D03*
X81309Y97175D02*
D03*
Y91663D02*
D03*
X103750Y74947D02*
D03*
Y80458D02*
D03*
X158573Y62644D02*
D03*
Y68155D02*
D03*
X194105Y237348D02*
D03*
Y242860D02*
D03*
Y228195D02*
D03*
Y233707D02*
D03*
X194498Y192158D02*
D03*
Y197670D02*
D03*
Y183202D02*
D03*
Y188714D02*
D03*
X190857Y101325D02*
D03*
Y95813D02*
D03*
X209262Y113825D02*
D03*
Y119336D02*
D03*
D83*
X174526Y138923D02*
D03*
Y146010D02*
D03*
X160050Y170813D02*
D03*
Y163726D02*
D03*
D84*
X193924Y87742D02*
D03*
Y75931D02*
D03*
X181900Y87742D02*
D03*
Y75931D02*
D03*
X206309Y87644D02*
D03*
Y75832D02*
D03*
X184164Y205655D02*
D03*
Y217466D02*
D03*
D85*
X101532Y295227D02*
D03*
X111031D02*
D03*
Y326231D02*
D03*
X101532D02*
D03*
X177630D02*
D03*
Y295227D02*
D03*
X187130D02*
D03*
Y326231D02*
D03*
D86*
X314961Y39026D02*
D03*
X15748D02*
D03*
Y330365D02*
D03*
X314961D02*
D03*
D87*
X254006Y75055D02*
D03*
D88*
X244006D02*
D03*
X254006Y85055D02*
D03*
X244006D02*
D03*
X254006Y95055D02*
D03*
X244006D02*
D03*
X254006Y105055D02*
D03*
X244006D02*
D03*
X254006Y115055D02*
D03*
X244006D02*
D03*
X254006Y125055D02*
D03*
Y135055D02*
D03*
X244006D02*
D03*
X254006Y145055D02*
D03*
X244006D02*
D03*
X254006Y155055D02*
D03*
X244006D02*
D03*
X254006Y165055D02*
D03*
X244006D02*
D03*
X254006Y175055D02*
D03*
X244006D02*
D03*
X254006Y185055D02*
D03*
X244006D02*
D03*
X254006Y195055D02*
D03*
X244006D02*
D03*
X254006Y205055D02*
D03*
X244006D02*
D03*
X254006Y215055D02*
D03*
X244006D02*
D03*
X254006Y225055D02*
D03*
X244006D02*
D03*
X254006Y235055D02*
D03*
X244006D02*
D03*
X254006Y245055D02*
D03*
X244006D02*
D03*
Y125055D02*
D03*
D89*
X208888Y310763D02*
D03*
X92032Y295227D02*
D03*
X208882Y326231D02*
D03*
X92032D02*
D03*
D90*
X48538Y108463D02*
D03*
Y177663D02*
D03*
X48471Y246939D02*
D03*
D91*
X48538Y72862D02*
D03*
Y142062D02*
D03*
X48471Y211339D02*
D03*
D92*
X162344Y245891D02*
D03*
Y240891D02*
D03*
D93*
X92431Y182209D02*
D03*
X90266D02*
D03*
D145*
X184853Y64514D02*
D03*
X202520D02*
D03*
D146*
X174813D02*
D03*
X192481D02*
D03*
D147*
X112089Y54022D02*
D03*
X102085D02*
D03*
D148*
X188518Y144435D02*
D03*
X186550D02*
D03*
X184581D02*
D03*
X182613D02*
D03*
X180644D02*
D03*
Y133411D02*
D03*
X182613D02*
D03*
X184581D02*
D03*
X186550D02*
D03*
X188518D02*
D03*
D149*
X184581Y138923D02*
D03*
D150*
X187904Y223273D02*
D03*
X184164D02*
D03*
X180424Y233707D02*
D03*
X184164D02*
D03*
X187904D02*
D03*
X180424Y223273D02*
D03*
X178258Y107132D02*
D03*
X181998D02*
D03*
X185739Y96699D02*
D03*
X181998D02*
D03*
X178258D02*
D03*
X185739Y107132D02*
D03*
X149321Y215301D02*
D03*
X145581D02*
D03*
X141841Y225734D02*
D03*
X145581D02*
D03*
X149321D02*
D03*
X141841Y215301D02*
D03*
D151*
X166841Y230754D02*
D03*
Y228195D02*
D03*
Y225636D02*
D03*
X175502D02*
D03*
Y228195D02*
D03*
Y230754D02*
D03*
D152*
X126880Y70941D02*
D03*
X125896Y199993D02*
D03*
D153*
X124223Y66414D02*
D03*
X125995D02*
D03*
X127766D02*
D03*
X129538D02*
D03*
X123239Y195465D02*
D03*
X125010D02*
D03*
X126782D02*
D03*
X128553D02*
D03*
D154*
X90660Y90482D02*
D03*
Y159781D02*
D03*
Y228982D02*
D03*
D155*
X94597Y82608D02*
D03*
X92628D02*
D03*
X90660D02*
D03*
X88691D02*
D03*
X86723Y98356D02*
D03*
X88691D02*
D03*
X90660D02*
D03*
X92628D02*
D03*
X86723Y82608D02*
D03*
X94597Y98356D02*
D03*
Y167655D02*
D03*
X86723Y151907D02*
D03*
X92628Y167655D02*
D03*
X90660D02*
D03*
X88691D02*
D03*
X86723D02*
D03*
X88691Y151907D02*
D03*
X90660D02*
D03*
X92628D02*
D03*
X94597D02*
D03*
Y221108D02*
D03*
X92628D02*
D03*
X90660D02*
D03*
X88691D02*
D03*
X86723Y236856D02*
D03*
X88691D02*
D03*
X90660D02*
D03*
X92628D02*
D03*
X86723Y221108D02*
D03*
X94597Y236856D02*
D03*
D156*
X120679Y95502D02*
D03*
Y97470D02*
D03*
Y99439D02*
D03*
X115561D02*
D03*
Y97470D02*
D03*
Y95502D02*
D03*
X129778Y228589D02*
D03*
Y226620D02*
D03*
Y224651D02*
D03*
X124660D02*
D03*
Y226620D02*
D03*
Y228589D02*
D03*
X120581Y224651D02*
D03*
Y226620D02*
D03*
Y228588D02*
D03*
X115463D02*
D03*
Y226620D02*
D03*
Y224651D02*
D03*
X115990Y138923D02*
D03*
Y136955D02*
D03*
Y134986D02*
D03*
X110872D02*
D03*
Y136955D02*
D03*
Y138923D02*
D03*
X124660Y166179D02*
D03*
Y164210D02*
D03*
Y162242D02*
D03*
X129778D02*
D03*
Y164210D02*
D03*
Y166179D02*
D03*
X115463Y162242D02*
D03*
Y164210D02*
D03*
Y166179D02*
D03*
X120581D02*
D03*
Y164210D02*
D03*
Y162242D02*
D03*
X123927Y61250D02*
D03*
Y59281D02*
D03*
Y57313D02*
D03*
X129046D02*
D03*
Y59281D02*
D03*
Y61250D02*
D03*
X129778Y99537D02*
D03*
Y97569D02*
D03*
Y95600D02*
D03*
X124660D02*
D03*
Y97569D02*
D03*
Y99537D02*
D03*
X104735Y190892D02*
D03*
Y188923D02*
D03*
Y186955D02*
D03*
X109853D02*
D03*
Y188923D02*
D03*
Y190892D02*
D03*
D157*
X160561Y104658D02*
D03*
X155561D02*
D03*
X150561D02*
D03*
X145561D02*
D03*
Y127532D02*
D03*
X155561D02*
D03*
X160561D02*
D03*
X150561D02*
D03*
D158*
X153061Y116095D02*
D03*
D159*
X145384Y68172D02*
D03*
X147943D02*
D03*
X150502D02*
D03*
X153061D02*
D03*
Y91400D02*
D03*
X150502D02*
D03*
X147943D02*
D03*
X145384D02*
D03*
D160*
X131408Y140293D02*
D03*
Y138521D02*
D03*
Y136749D02*
D03*
Y134978D02*
D03*
D161*
X126880Y137635D02*
D03*
D162*
X172648Y90498D02*
D03*
Y75931D02*
D03*
X195679Y208805D02*
D03*
Y223372D02*
D03*
X209262Y94533D02*
D03*
Y109100D02*
D03*
D163*
X153652Y163687D02*
D03*
X146172D02*
D03*
X149912Y155695D02*
D03*
D164*
X105719Y118648D02*
D03*
X94695D02*
D03*
D165*
X115660Y129966D02*
D03*
Y122486D02*
D03*
X125896D02*
D03*
Y126226D02*
D03*
Y129966D02*
D03*
X176683Y186942D02*
D03*
Y179462D02*
D03*
X186920D02*
D03*
Y183202D02*
D03*
Y186942D02*
D03*
X114397Y244558D02*
D03*
Y237077D02*
D03*
X124633D02*
D03*
Y240818D02*
D03*
Y244558D02*
D03*
X116027Y214612D02*
D03*
Y207132D02*
D03*
X126263D02*
D03*
Y210872D02*
D03*
Y214612D02*
D03*
X89676Y202013D02*
D03*
Y194533D02*
D03*
X99912D02*
D03*
Y198273D02*
D03*
Y202013D02*
D03*
X114397Y182148D02*
D03*
Y174668D02*
D03*
X124633D02*
D03*
Y178408D02*
D03*
Y182148D02*
D03*
X116027Y152203D02*
D03*
Y144722D02*
D03*
X126263D02*
D03*
Y148462D02*
D03*
Y152203D02*
D03*
X89676Y132812D02*
D03*
Y125332D02*
D03*
X99912D02*
D03*
Y129072D02*
D03*
Y132812D02*
D03*
X115677Y111668D02*
D03*
Y104188D02*
D03*
X125913D02*
D03*
Y107928D02*
D03*
Y111668D02*
D03*
X116027Y85561D02*
D03*
Y78081D02*
D03*
X126263D02*
D03*
Y81821D02*
D03*
Y85561D02*
D03*
D166*
X154734Y186462D02*
D03*
Y182722D02*
D03*
X144301Y178982D02*
D03*
Y182722D02*
D03*
Y186462D02*
D03*
X154734Y178982D02*
D03*
M02*
