G04*
G04 #@! TF.GenerationSoftware,Altium Limited,Altium Designer,18.1.9 (240)*
G04*
G04 Layer_Color=128*
%FSLAX25Y25*%
%MOIN*%
G70*
G01*
G75*
%ADD10C,0.01000*%
%ADD13C,0.00118*%
%ADD14C,0.00504*%
%ADD15C,0.00158*%
%ADD16C,0.00787*%
%ADD17R,0.02362X0.03937*%
%ADD18R,0.03740X0.06102*%
%ADD27R,0.02953X0.01968*%
%ADD30R,0.04331X0.04331*%
%ADD44R,0.01968X0.02953*%
%ADD45R,0.03937X0.02362*%
%ADD47R,0.06102X0.03740*%
%ADD48R,0.10630X0.04528*%
%ADD122R,0.08661X0.05512*%
%ADD123R,0.03543X0.05512*%
%ADD124R,0.05000X0.07000*%
%ADD125R,0.01181X0.02657*%
%ADD126R,0.09449X0.06496*%
%ADD127R,0.02362X0.04921*%
%ADD128R,0.03347X0.01378*%
%ADD129R,0.05315X0.03937*%
%ADD130R,0.00984X0.02756*%
%ADD131R,0.10433X0.10433*%
%ADD132R,0.00984X0.03347*%
%ADD133R,0.01968X0.01181*%
%ADD134R,0.01968X0.04331*%
%ADD135R,0.16142X0.13780*%
%ADD136R,0.01772X0.05709*%
%ADD137R,0.02756X0.00984*%
%ADD138R,0.03937X0.05315*%
%ADD139R,0.04331X0.04331*%
%ADD140R,0.02362X0.05118*%
%ADD141R,0.04724X0.07087*%
%ADD142R,0.03937X0.02362*%
%ADD143R,0.04921X0.02362*%
D10*
X0Y369767D02*
X330709D01*
Y-311D02*
Y369767D01*
D13*
X322854Y39026D02*
G03*
X322854Y39026I-7894J0D01*
G01*
X23642D02*
G03*
X23642Y39026I-7894J0D01*
G01*
Y330365D02*
G03*
X23642Y330365I-7894J0D01*
G01*
X69337Y332640D02*
G03*
X59337Y322640I0J-10000D01*
G01*
X130544Y332640D02*
G03*
X130544Y340514I0J3937D01*
G01*
X158130D02*
G03*
X158130Y332640I0J-3937D01*
G01*
X31501Y243643D02*
G03*
X39375Y243643I3937J0D01*
G01*
Y216057D02*
G03*
X31501Y216057I-3937J0D01*
G01*
X39375Y146837D02*
G03*
X31501Y146837I-3937J0D01*
G01*
Y174423D02*
G03*
X39375Y174423I3937J0D01*
G01*
Y77617D02*
G03*
X31501Y77617I-3937J0D01*
G01*
Y105203D02*
G03*
X39375Y105203I3937J0D01*
G01*
X301229Y189965D02*
G03*
X293355Y189965I-3937J0D01*
G01*
Y217550D02*
G03*
X301229Y217550I3937J0D01*
G01*
Y102560D02*
G03*
X293355Y102560I-3937J0D01*
G01*
Y130145D02*
G03*
X301229Y130145I3937J0D01*
G01*
X176885Y39059D02*
G03*
X176885Y31185I0J-3937D01*
G01*
X149299D02*
G03*
X149299Y39059I0J3937D01*
G01*
X322859Y330398D02*
G03*
X322859Y330398I-7894J0D01*
G01*
X23646D02*
G03*
X23646Y330398I-7894J0D01*
G01*
X293355Y247055D02*
G03*
X287355Y253055I-6000J0D01*
G01*
Y67055D02*
G03*
X293355Y73055I0J6000D01*
G01*
X215337Y67055D02*
G03*
X215093Y67045I0J-3000D01*
G01*
X42375Y253055D02*
G03*
X39375Y250055I0J-3000D01*
G01*
Y209645D02*
G03*
X42375Y206645I3000J0D01*
G01*
X59337Y298140D02*
G03*
X69337Y288140I10000J0D01*
G01*
X111837D02*
G03*
X114837Y291140I0J3000D01*
G01*
X173837Y296140D02*
G03*
X170837Y296140I-1500J0D01*
G01*
X173837Y291140D02*
G03*
X176837Y288140I3000J-0D01*
G01*
X229337Y322640D02*
G03*
X219337Y332640I-10000J0D01*
G01*
X117837Y296140D02*
G03*
X114837Y296140I-1500J0D01*
G01*
X69337Y332640D02*
G03*
X59337Y322640I0J-10000D01*
G01*
X219337Y288140D02*
G03*
X229337Y298140I-0J10000D01*
G01*
X98337Y46055D02*
G03*
X92337Y46055I-3000J0D01*
G01*
X86799Y39362D02*
G03*
X92337Y43055I1539J3692D01*
G01*
X68694Y62439D02*
G03*
X86799Y39362I29643J4615D01*
G01*
X72646Y67055D02*
G03*
X68694Y62439I0J-4000D01*
G01*
X78337Y67055D02*
G03*
X81328Y69825I0J3000D01*
G01*
D02*
G03*
X78337Y72595I-2991J-230D01*
G01*
X170837Y249118D02*
G03*
X173837Y249118I1500J0D01*
G01*
X214932Y67027D02*
G03*
X214921Y61084I405J-2973D01*
G01*
X81337Y134425D02*
G03*
X78337Y137425I-3000J0D01*
G01*
Y183835D02*
G03*
X81337Y186835I0J3000D01*
G01*
X78337Y114615D02*
G03*
X81337Y117615I0J3000D01*
G01*
Y203645D02*
G03*
X78337Y206645I-3000J0D01*
G01*
X200347Y39059D02*
G03*
X201887Y39367I0J4000D01*
G01*
X121837Y43059D02*
G03*
X125837Y39059I4000J0D01*
G01*
X218062Y55595D02*
G03*
X214921Y61084I-3697J1528D01*
G01*
X201887Y39367D02*
G03*
X218062Y55595I-11550J27688D01*
G01*
X121837Y46055D02*
G03*
X115837Y46055I-3000J0D01*
G01*
X114837Y249118D02*
G03*
X117837Y249118I1500J0D01*
G01*
X66809Y72595D02*
G03*
X64854Y70855I0J-1969D01*
G01*
X61875Y68205D02*
G03*
X64854Y70855I0J3000D01*
G01*
X39375Y71205D02*
G03*
X42375Y68205I3000J0D01*
G01*
Y114615D02*
G03*
X39375Y111615I0J-3000D01*
G01*
X42375Y183835D02*
G03*
X39375Y180835I0J-3000D01*
G01*
Y140425D02*
G03*
X42375Y137425I3000J0D01*
G01*
X51463Y298140D02*
G03*
X69337Y280266I17874J0D01*
G01*
Y340514D02*
G03*
X51463Y322640I0J-17874D01*
G01*
X237211D02*
G03*
X219337Y340514I-17874J0D01*
G01*
Y280266D02*
G03*
X237211Y298140I-0J17874D01*
G01*
X42375Y260929D02*
G03*
X31501Y250055I0J-10874D01*
G01*
Y209645D02*
G03*
X42375Y198771I10874J0D01*
G01*
Y191709D02*
G03*
X31501Y180835I0J-10874D01*
G01*
Y140425D02*
G03*
X42375Y129551I10874J0D01*
G01*
Y122489D02*
G03*
X31501Y111615I0J-10874D01*
G01*
Y71205D02*
G03*
X42375Y60331I10874J0D01*
G01*
X61065D02*
G03*
X83770Y32094I37272J6724D01*
G01*
X83770Y32094D02*
G03*
X88650Y31185I4567J10961D01*
G01*
X202494Y31185D02*
G03*
X227384Y59181I-12157J35870D01*
G01*
X287355D02*
G03*
X301229Y73055I0J13874D01*
G01*
Y247055D02*
G03*
X287355Y260929I-13874J0D01*
G01*
X59337Y322640D02*
X59337D01*
X238236Y67055D02*
X287355D01*
X238236Y253055D02*
X287355D01*
X293355Y73055D02*
Y102570D01*
X215337Y67055D02*
X223132D01*
X215093Y253055D02*
X223132D01*
X78214Y72595D02*
X78227D01*
X78214Y114615D02*
X78227D01*
X78214Y137425D02*
X78227D01*
X78214Y183835D02*
X78227D01*
X78214Y206645D02*
X78227D01*
X78214Y253055D02*
X114837D01*
X117837Y251874D02*
Y252679D01*
X170837Y251874D02*
Y252679D01*
X173837Y253055D02*
X215093D01*
X214932Y67027D02*
X215093Y67045D01*
X70871Y114615D02*
X72649D01*
X70871Y72595D02*
X72649D01*
X170837Y292867D02*
Y292873D01*
X117837Y292867D02*
Y292873D01*
X170837Y284827D02*
Y292867D01*
X117837Y284827D02*
Y292867D01*
X72649Y72595D02*
X78214D01*
X72649Y114615D02*
X78214D01*
X70871Y137425D02*
X72649D01*
X70871Y183835D02*
X72649D01*
X70871Y253055D02*
X72649D01*
X70871Y206645D02*
X72649D01*
Y137425D02*
X78214D01*
X72649Y183835D02*
X78214D01*
X170837Y257368D02*
Y262504D01*
X117837Y257368D02*
Y262504D01*
X233133Y67055D02*
X238236D01*
X223132Y253055D02*
X238236D01*
X72649Y206645D02*
X78214D01*
X72649Y253055D02*
X78214D01*
X117837Y252679D02*
Y257368D01*
X170837Y252679D02*
Y257368D01*
Y267194D02*
Y284827D01*
X117837Y267194D02*
Y284827D01*
Y262504D02*
Y267194D01*
X170837Y262504D02*
Y267194D01*
X42375Y253055D02*
X70871D01*
X42375Y206645D02*
X70871D01*
X223132Y67055D02*
X233133D01*
X173837Y291140D02*
Y296140D01*
X170837Y292873D02*
Y296140D01*
X69337Y288140D02*
X111837D01*
X59337Y298140D02*
Y322640D01*
X114837Y291140D02*
Y296140D01*
X117837Y292873D02*
Y296140D01*
X69337Y332641D02*
X130553D01*
X229337Y298140D02*
Y322640D01*
X176837Y288140D02*
X219337D01*
X92337Y43055D02*
Y46055D01*
X72646Y67055D02*
X78337D01*
X78227Y72595D02*
X78337D01*
X78227Y114615D02*
X78337D01*
X170837Y249118D02*
Y251874D01*
X173837Y249118D02*
Y253055D01*
X115837Y44413D02*
Y46055D01*
X98337Y44413D02*
X115837D01*
X98337D02*
Y46055D01*
X78227Y206645D02*
X78337D01*
X78227Y253055D02*
X114837Y253055D01*
X81337Y117615D02*
Y134425D01*
X78227Y137425D02*
X78337D01*
X78227Y183835D02*
X78337D01*
X125837Y39059D02*
X149312D01*
X114837Y249118D02*
Y253055D01*
X81337Y186835D02*
Y203645D01*
X117837Y249118D02*
Y251874D01*
X121837Y43059D02*
Y46055D01*
X42375Y114615D02*
X70871D01*
X66809Y72595D02*
X70871D01*
X42375Y68205D02*
X61875D01*
X39375Y71205D02*
Y77617D01*
X42375Y183835D02*
X70871D01*
X42375Y137425D02*
X70871D01*
X39375Y140425D02*
Y146837D01*
X69337Y280266D02*
X109963D01*
X51463Y298140D02*
Y322640D01*
X69337Y340514D02*
X130544D01*
X237211Y298140D02*
Y322640D01*
X178711Y280266D02*
X219337D01*
X109963Y260929D02*
Y280266D01*
X178711Y260929D02*
Y280266D01*
X42375Y260929D02*
X109963D01*
X31501Y209645D02*
Y216064D01*
X42375Y198771D02*
X73463D01*
Y191709D02*
Y198771D01*
X42375Y191709D02*
X73463D01*
X31501Y140425D02*
Y146844D01*
X42375Y129551D02*
X73463D01*
Y122489D02*
Y129551D01*
X42375Y122489D02*
X73463D01*
X31501Y71205D02*
Y77624D01*
X42375Y60331D02*
X61065D01*
X88024Y31185D02*
X149299D01*
X227384Y59181D02*
X287355D01*
X301229Y73055D02*
Y102560D01*
X178711Y260929D02*
X287355D01*
X117837Y262504D02*
Y267194D01*
X293355Y217540D02*
Y247055D01*
Y130135D02*
Y189975D01*
X176872Y39059D02*
X200347D01*
X31501Y105196D02*
Y111615D01*
Y174416D02*
Y180835D01*
Y243636D02*
Y250055D01*
X158121Y332641D02*
X219337D01*
X39375Y174423D02*
Y180835D01*
Y243643D02*
Y250055D01*
Y105203D02*
Y111615D01*
X176885Y31185D02*
X202494D01*
X158130Y340514D02*
X219337D01*
X301229Y217550D02*
Y247055D01*
Y130145D02*
Y189965D01*
X39375Y209645D02*
Y216057D01*
D14*
X0Y-312D02*
X330709D01*
X0Y-311D02*
Y369768D01*
D15*
X215337Y67055D02*
G03*
X215093Y67045I0J-3000D01*
G01*
X218062Y55595D02*
G03*
X214921Y61084I-3697J1528D01*
G01*
X201887Y39367D02*
G03*
X218062Y55595I-11550J27688D01*
G01*
X200347Y39059D02*
G03*
X201887Y39367I0J4000D01*
G01*
X121837Y43059D02*
G03*
X125837Y39059I4000J0D01*
G01*
X121837Y46055D02*
G03*
X115837Y46055I-3000J0D01*
G01*
X98337D02*
G03*
X92337Y46055I-3000J0D01*
G01*
X86799Y39362D02*
G03*
X92337Y43055I1539J3692D01*
G01*
X68694Y62439D02*
G03*
X86799Y39362I29643J4615D01*
G01*
X72646Y67055D02*
G03*
X68694Y62439I0J-4000D01*
G01*
X78337Y67055D02*
G03*
X81328Y69825I0J3000D01*
G01*
D02*
G03*
X78337Y72595I-2991J-230D01*
G01*
Y114615D02*
G03*
X81337Y117615I0J3000D01*
G01*
Y134425D02*
G03*
X78337Y137425I-3000J0D01*
G01*
Y183835D02*
G03*
X81337Y186835I0J3000D01*
G01*
Y203645D02*
G03*
X78337Y206645I-3000J0D01*
G01*
X114837Y249118D02*
G03*
X117837Y249118I1500J0D01*
G01*
X170837D02*
G03*
X173837Y249118I1500J0D01*
G01*
X215093Y67045D02*
G03*
X214921Y61084I244J-2990D01*
G01*
X39375Y71205D02*
G03*
X42375Y68205I3000J0D01*
G01*
Y114615D02*
G03*
X39375Y111615I0J-3000D01*
G01*
X66809Y72595D02*
G03*
X64854Y70855I0J-1969D01*
G01*
X61875Y68205D02*
G03*
X64854Y70855I0J3000D01*
G01*
X117837Y296140D02*
G03*
X114837Y296140I-1500J0D01*
G01*
X111837Y288140D02*
G03*
X114837Y291140I0J3000D01*
G01*
X229337Y322640D02*
G03*
X219337Y332640I-10000J0D01*
G01*
X173837Y291140D02*
G03*
X176837Y288140I3000J0D01*
G01*
X173837Y296140D02*
G03*
X170837Y296140I-1500J0D01*
G01*
X59337Y298140D02*
G03*
X69337Y288140I10000J0D01*
G01*
Y332640D02*
G03*
X59337Y322640I0J-10000D01*
G01*
X219337Y288140D02*
G03*
X229337Y298140I0J10000D01*
G01*
X42375Y183835D02*
G03*
X39375Y180835I0J-3000D01*
G01*
Y140425D02*
G03*
X42375Y137425I3000J0D01*
G01*
X39375Y209645D02*
G03*
X42375Y206645I3000J0D01*
G01*
Y253055D02*
G03*
X39375Y250055I0J-3000D01*
G01*
X293355Y247055D02*
G03*
X287355Y253055I-6000J0D01*
G01*
Y67055D02*
G03*
X293355Y73055I0J6000D01*
G01*
X215337Y67055D02*
X223132D01*
X215093Y253055D02*
X223132D01*
X125837Y39059D02*
X200347D01*
X121837Y43059D02*
Y46055D01*
X115837Y44413D02*
Y46055D01*
X98337Y44413D02*
X115837D01*
X98337D02*
Y46055D01*
X92337Y43055D02*
Y46055D01*
X72646Y67055D02*
X78337D01*
X78214Y72595D02*
X78337D01*
X78214Y114615D02*
X78337D01*
X81337Y117615D02*
Y134425D01*
X78214Y137425D02*
X78337D01*
X78214Y183835D02*
X78337D01*
X81337Y186835D02*
Y203645D01*
X78214Y206645D02*
X78337D01*
X78214Y253055D02*
X114837D01*
Y249118D02*
Y253055D01*
X117837Y249118D02*
Y252679D01*
X170837Y249118D02*
Y252679D01*
X173837Y249118D02*
Y253055D01*
X215093D01*
X42375Y68205D02*
X61875D01*
X39375Y71205D02*
Y111615D01*
X42375Y114615D02*
X72649D01*
X66809Y72595D02*
X72649D01*
X114837Y291140D02*
Y296140D01*
X69337Y288140D02*
X111837D01*
X69337Y332640D02*
X219337D01*
X229337Y298140D02*
Y322640D01*
X173837Y291140D02*
Y296140D01*
X170837Y292867D02*
Y296140D01*
X59337Y298140D02*
Y322640D01*
X117837Y292867D02*
Y296140D01*
X176837Y288140D02*
X219337D01*
X42375Y183835D02*
X72649D01*
X39375Y140425D02*
Y180835D01*
X42375Y137425D02*
X72649D01*
X42375Y253055D02*
X72649D01*
X42375Y206645D02*
X72649D01*
Y137425D02*
X78214D01*
X72649Y183835D02*
X78214D01*
X170837Y252679D02*
Y257368D01*
X117837Y252679D02*
Y257368D01*
X72649Y206645D02*
X78214D01*
X72649Y253055D02*
X78214D01*
X72649Y72595D02*
X78214D01*
X72649Y114615D02*
X78214D01*
X170837Y257368D02*
Y262504D01*
X117837Y257368D02*
Y262504D01*
X170837Y284827D02*
Y292867D01*
X117837Y284827D02*
Y292867D01*
X170837Y267194D02*
Y284827D01*
X117837Y267194D02*
Y284827D01*
X293355Y73055D02*
Y247055D01*
X223132Y253055D02*
X287355D01*
X223132Y67055D02*
X287355D01*
X117837Y262504D02*
Y267194D01*
X170837Y262504D02*
Y267194D01*
X39375Y209645D02*
Y250055D01*
D16*
X106697Y4921D02*
Y11218D01*
X109846D01*
X110896Y10169D01*
Y8070D01*
X109846Y7020D01*
X106697D01*
X112995Y4921D02*
Y9119D01*
X115094Y11218D01*
X117193Y9119D01*
Y4921D01*
Y8070D01*
X112995D01*
X123490Y10169D02*
X122440Y11218D01*
X120341D01*
X119292Y10169D01*
Y9119D01*
X120341Y8070D01*
X122440D01*
X123490Y7020D01*
Y5971D01*
X122440Y4921D01*
X120341D01*
X119292Y5971D01*
X125589Y11218D02*
X129787D01*
X127688D01*
Y4921D01*
X136084Y11218D02*
X131886D01*
Y4921D01*
X136084D01*
X131886Y8070D02*
X133985D01*
X144480Y11218D02*
Y4921D01*
X147629D01*
X148679Y5971D01*
Y7020D01*
X147629Y8070D01*
X144480D01*
X147629D01*
X148679Y9119D01*
Y10169D01*
X147629Y11218D01*
X144480D01*
X153926D02*
X151827D01*
X150778Y10169D01*
Y5971D01*
X151827Y4921D01*
X153926D01*
X154976Y5971D01*
Y10169D01*
X153926Y11218D01*
X157075D02*
X161273D01*
X159174D01*
Y4921D01*
X163372Y11218D02*
X167570D01*
X165471D01*
Y4921D01*
X172818Y11218D02*
X170719D01*
X169669Y10169D01*
Y5971D01*
X170719Y4921D01*
X172818D01*
X173867Y5971D01*
Y10169D01*
X172818Y11218D01*
X175966Y4921D02*
Y11218D01*
X178065Y9119D01*
X180164Y11218D01*
Y4921D01*
D17*
X159754Y182722D02*
D03*
X165266D02*
D03*
X152274Y191532D02*
D03*
X146762D02*
D03*
Y196502D02*
D03*
X152274D02*
D03*
X146762Y202309D02*
D03*
X152274D02*
D03*
X170581Y205655D02*
D03*
X176093D02*
D03*
X201487Y56384D02*
D03*
X195975D02*
D03*
X121270Y117014D02*
D03*
X115758D02*
D03*
X190660Y164317D02*
D03*
X196172D02*
D03*
X182195Y170899D02*
D03*
X176683D02*
D03*
X167235Y170813D02*
D03*
X172747D02*
D03*
X150305Y137315D02*
D03*
X155817D02*
D03*
D18*
X175510Y154081D02*
D03*
X182597D02*
D03*
D27*
X81318Y246502D02*
D03*
Y242565D02*
D03*
X85246Y242565D02*
D03*
Y246502D02*
D03*
X89183Y242565D02*
D03*
Y246502D02*
D03*
X93120D02*
D03*
Y242565D02*
D03*
X97057Y246502D02*
D03*
Y242565D02*
D03*
X100995D02*
D03*
Y246502D02*
D03*
X110148Y240596D02*
D03*
Y244533D02*
D03*
Y224651D02*
D03*
Y228588D02*
D03*
X87707Y208904D02*
D03*
Y212841D02*
D03*
X91645D02*
D03*
Y208904D02*
D03*
X95582Y212841D02*
D03*
Y208904D02*
D03*
X99519Y212841D02*
D03*
Y208904D02*
D03*
X104833Y196305D02*
D03*
Y200242D02*
D03*
X81318Y177302D02*
D03*
Y173365D02*
D03*
X85246D02*
D03*
Y177302D02*
D03*
X89183Y173364D02*
D03*
Y177301D02*
D03*
X93120Y177309D02*
D03*
Y173372D02*
D03*
X97057D02*
D03*
Y177309D02*
D03*
X100995D02*
D03*
Y173372D02*
D03*
X110149Y178187D02*
D03*
Y182124D02*
D03*
X110148Y162242D02*
D03*
Y166179D02*
D03*
X111723Y150439D02*
D03*
Y146502D02*
D03*
X87707Y139704D02*
D03*
Y143641D02*
D03*
X91645D02*
D03*
Y139704D02*
D03*
X95582Y143641D02*
D03*
Y139704D02*
D03*
X99519Y143641D02*
D03*
Y139704D02*
D03*
X104833Y127104D02*
D03*
Y131041D02*
D03*
X84853Y118746D02*
D03*
Y122683D02*
D03*
X81318Y108002D02*
D03*
Y104065D02*
D03*
X85246D02*
D03*
Y108002D02*
D03*
X89183Y104065D02*
D03*
Y108002D02*
D03*
X93120D02*
D03*
Y104065D02*
D03*
X97058Y104065D02*
D03*
Y108002D02*
D03*
X100995Y108002D02*
D03*
Y104065D02*
D03*
X110050Y94238D02*
D03*
Y98175D02*
D03*
X111526Y83411D02*
D03*
Y79474D02*
D03*
X131408Y77885D02*
D03*
Y81822D02*
D03*
X87707Y72978D02*
D03*
Y76915D02*
D03*
X91644D02*
D03*
Y72978D02*
D03*
X95581Y76915D02*
D03*
Y72978D02*
D03*
X99518Y76915D02*
D03*
Y72978D02*
D03*
X134164Y57329D02*
D03*
Y61266D02*
D03*
X146664Y62759D02*
D03*
Y58822D02*
D03*
X140463Y78687D02*
D03*
Y74750D02*
D03*
X130621Y108214D02*
D03*
Y104277D02*
D03*
X130621Y122552D02*
D03*
Y126489D02*
D03*
X120286Y134986D02*
D03*
Y138923D02*
D03*
X131408Y144527D02*
D03*
Y148463D02*
D03*
X146172Y152506D02*
D03*
Y148569D02*
D03*
X153652Y152506D02*
D03*
Y148569D02*
D03*
X150601Y144927D02*
D03*
Y140990D02*
D03*
X155621Y144927D02*
D03*
Y140990D02*
D03*
X114889Y186955D02*
D03*
Y190892D02*
D03*
X111723Y212840D02*
D03*
Y208903D02*
D03*
X131408Y206936D02*
D03*
Y210873D02*
D03*
X184164Y238136D02*
D03*
Y242073D02*
D03*
X175798Y217565D02*
D03*
Y221502D02*
D03*
X171565D02*
D03*
Y217565D02*
D03*
X163979Y221502D02*
D03*
Y217565D02*
D03*
X153553Y218451D02*
D03*
Y222388D02*
D03*
X186829Y152014D02*
D03*
Y155951D02*
D03*
X190471Y152014D02*
D03*
Y155951D02*
D03*
X194113D02*
D03*
Y152014D02*
D03*
Y144435D02*
D03*
Y148372D02*
D03*
X194211Y133411D02*
D03*
Y137348D02*
D03*
X190857Y104277D02*
D03*
Y108214D02*
D03*
X195384Y100636D02*
D03*
Y96699D02*
D03*
X199617Y100636D02*
D03*
Y96699D02*
D03*
X203750D02*
D03*
Y100636D02*
D03*
X161920Y91777D02*
D03*
Y87840D02*
D03*
Y78687D02*
D03*
Y82624D02*
D03*
Y75636D02*
D03*
Y71699D02*
D03*
X167038Y72329D02*
D03*
Y76266D02*
D03*
X170187Y67762D02*
D03*
Y63825D02*
D03*
D30*
X166644Y45754D02*
D03*
X152077D02*
D03*
X152176Y53234D02*
D03*
X166743D02*
D03*
X188396D02*
D03*
X173829D02*
D03*
X173829Y45754D02*
D03*
X188396D02*
D03*
D44*
X145483Y230852D02*
D03*
X149420D02*
D03*
X107195Y233214D02*
D03*
X111132D02*
D03*
X109602Y220714D02*
D03*
X113540D02*
D03*
X120679Y221010D02*
D03*
X124617D02*
D03*
X96664Y189809D02*
D03*
X92727D02*
D03*
X107195Y170805D02*
D03*
X111132D02*
D03*
X109656Y158305D02*
D03*
X113593D02*
D03*
X120679Y158707D02*
D03*
X124617D02*
D03*
X111132Y108805D02*
D03*
X107195D02*
D03*
Y104163D02*
D03*
X111132D02*
D03*
X115561Y91088D02*
D03*
X111624D02*
D03*
X120679Y92073D02*
D03*
X124617D02*
D03*
X109754Y73766D02*
D03*
X113691D02*
D03*
X151093Y132591D02*
D03*
X155030D02*
D03*
X126782Y187447D02*
D03*
X122845D02*
D03*
X126782Y191532D02*
D03*
X130719D02*
D03*
X129636Y187348D02*
D03*
X133573D02*
D03*
X151880Y169336D02*
D03*
X147943D02*
D03*
X194794Y116384D02*
D03*
X190857D02*
D03*
X194794Y112348D02*
D03*
X190857D02*
D03*
D45*
X172648Y99258D02*
D03*
Y104770D02*
D03*
X110935Y129120D02*
D03*
Y123608D02*
D03*
X81309Y235675D02*
D03*
Y230163D02*
D03*
X103652Y208117D02*
D03*
Y213629D02*
D03*
X84951Y196502D02*
D03*
Y202014D02*
D03*
X81309Y166474D02*
D03*
Y160962D02*
D03*
X103652Y138916D02*
D03*
Y144428D02*
D03*
X84951Y127301D02*
D03*
Y132812D02*
D03*
X81309Y97175D02*
D03*
Y91663D02*
D03*
X103750Y74947D02*
D03*
Y80458D02*
D03*
X158573Y62644D02*
D03*
Y68155D02*
D03*
X194105Y237348D02*
D03*
Y242860D02*
D03*
Y228195D02*
D03*
Y233707D02*
D03*
X194498Y192158D02*
D03*
Y197670D02*
D03*
Y183202D02*
D03*
Y188714D02*
D03*
X190857Y101325D02*
D03*
Y95813D02*
D03*
X209262Y113825D02*
D03*
Y119336D02*
D03*
D47*
X174526Y138923D02*
D03*
Y146010D02*
D03*
X160050Y170813D02*
D03*
Y163726D02*
D03*
D48*
X193924Y87742D02*
D03*
Y75931D02*
D03*
X181900Y87742D02*
D03*
Y75931D02*
D03*
X206309Y87644D02*
D03*
Y75832D02*
D03*
X184164Y205655D02*
D03*
Y217466D02*
D03*
D122*
X184853Y64514D02*
D03*
X202520D02*
D03*
D123*
X174813D02*
D03*
X192481D02*
D03*
D124*
X112089Y54022D02*
D03*
X102085D02*
D03*
D125*
X188518Y144435D02*
D03*
X186550D02*
D03*
X184581D02*
D03*
X182613D02*
D03*
X180644D02*
D03*
Y133411D02*
D03*
X182613D02*
D03*
X184581D02*
D03*
X186550D02*
D03*
X188518D02*
D03*
D126*
X184581Y138923D02*
D03*
D127*
X187904Y223273D02*
D03*
X184164D02*
D03*
X180424Y233707D02*
D03*
X184164D02*
D03*
X187904D02*
D03*
X180424Y223273D02*
D03*
X178258Y107132D02*
D03*
X181998D02*
D03*
X185739Y96699D02*
D03*
X181998D02*
D03*
X178258D02*
D03*
X185739Y107132D02*
D03*
X149321Y215301D02*
D03*
X145581D02*
D03*
X141841Y225734D02*
D03*
X145581D02*
D03*
X149321D02*
D03*
X141841Y215301D02*
D03*
D128*
X166841Y230754D02*
D03*
Y228195D02*
D03*
Y225636D02*
D03*
X175502D02*
D03*
Y228195D02*
D03*
Y230754D02*
D03*
D129*
X126880Y70941D02*
D03*
X125896Y199993D02*
D03*
D130*
X124223Y66414D02*
D03*
X125995D02*
D03*
X127766D02*
D03*
X129538D02*
D03*
X123239Y195465D02*
D03*
X125010D02*
D03*
X126782D02*
D03*
X128553D02*
D03*
D131*
X90660Y90482D02*
D03*
Y159781D02*
D03*
Y228982D02*
D03*
D132*
X94597Y82608D02*
D03*
X92628D02*
D03*
X90660D02*
D03*
X88691D02*
D03*
X86723Y98356D02*
D03*
X88691D02*
D03*
X90660D02*
D03*
X92628D02*
D03*
X86723Y82608D02*
D03*
X94597Y98356D02*
D03*
Y167655D02*
D03*
X86723Y151907D02*
D03*
X92628Y167655D02*
D03*
X90660D02*
D03*
X88691D02*
D03*
X86723D02*
D03*
X88691Y151907D02*
D03*
X90660D02*
D03*
X92628D02*
D03*
X94597D02*
D03*
Y221108D02*
D03*
X92628D02*
D03*
X90660D02*
D03*
X88691D02*
D03*
X86723Y236856D02*
D03*
X88691D02*
D03*
X90660D02*
D03*
X92628D02*
D03*
X86723Y221108D02*
D03*
X94597Y236856D02*
D03*
D133*
X120679Y95502D02*
D03*
Y97470D02*
D03*
Y99439D02*
D03*
X115561D02*
D03*
Y97470D02*
D03*
Y95502D02*
D03*
X129778Y228589D02*
D03*
Y226620D02*
D03*
Y224651D02*
D03*
X124660D02*
D03*
Y226620D02*
D03*
Y228589D02*
D03*
X120581Y224651D02*
D03*
Y226620D02*
D03*
Y228588D02*
D03*
X115463D02*
D03*
Y226620D02*
D03*
Y224651D02*
D03*
X115990Y138923D02*
D03*
Y136955D02*
D03*
Y134986D02*
D03*
X110872D02*
D03*
Y136955D02*
D03*
Y138923D02*
D03*
X124660Y166179D02*
D03*
Y164210D02*
D03*
Y162242D02*
D03*
X129778D02*
D03*
Y164210D02*
D03*
Y166179D02*
D03*
X115463Y162242D02*
D03*
Y164210D02*
D03*
Y166179D02*
D03*
X120581D02*
D03*
Y164210D02*
D03*
Y162242D02*
D03*
X123927Y61250D02*
D03*
Y59281D02*
D03*
Y57313D02*
D03*
X129046D02*
D03*
Y59281D02*
D03*
Y61250D02*
D03*
X129778Y99537D02*
D03*
Y97569D02*
D03*
Y95600D02*
D03*
X124660D02*
D03*
Y97569D02*
D03*
Y99537D02*
D03*
X104735Y190892D02*
D03*
Y188923D02*
D03*
Y186955D02*
D03*
X109853D02*
D03*
Y188923D02*
D03*
Y190892D02*
D03*
D134*
X160561Y104658D02*
D03*
X155561D02*
D03*
X150561D02*
D03*
X145561D02*
D03*
Y127532D02*
D03*
X155561D02*
D03*
X160561D02*
D03*
X150561D02*
D03*
D135*
X153061Y116095D02*
D03*
D136*
X145384Y68172D02*
D03*
X147943D02*
D03*
X150502D02*
D03*
X153061D02*
D03*
Y91400D02*
D03*
X150502D02*
D03*
X147943D02*
D03*
X145384D02*
D03*
D137*
X131408Y140293D02*
D03*
Y138521D02*
D03*
Y136749D02*
D03*
Y134978D02*
D03*
D138*
X126880Y137635D02*
D03*
D139*
X172648Y90498D02*
D03*
Y75931D02*
D03*
X195679Y208805D02*
D03*
Y223372D02*
D03*
X209262Y94533D02*
D03*
Y109100D02*
D03*
D140*
X153652Y163687D02*
D03*
X146172D02*
D03*
X149912Y155695D02*
D03*
D141*
X105719Y118648D02*
D03*
X94695D02*
D03*
D142*
X115660Y129966D02*
D03*
Y122486D02*
D03*
X125896D02*
D03*
Y126226D02*
D03*
Y129966D02*
D03*
X176683Y186942D02*
D03*
Y179462D02*
D03*
X186920D02*
D03*
Y183202D02*
D03*
Y186942D02*
D03*
X114397Y244558D02*
D03*
Y237077D02*
D03*
X124633D02*
D03*
Y240818D02*
D03*
Y244558D02*
D03*
X116027Y214612D02*
D03*
Y207132D02*
D03*
X126263D02*
D03*
Y210872D02*
D03*
Y214612D02*
D03*
X89676Y202013D02*
D03*
Y194533D02*
D03*
X99912D02*
D03*
Y198273D02*
D03*
Y202013D02*
D03*
X114397Y182148D02*
D03*
Y174668D02*
D03*
X124633D02*
D03*
Y178408D02*
D03*
Y182148D02*
D03*
X116027Y152203D02*
D03*
Y144722D02*
D03*
X126263D02*
D03*
Y148462D02*
D03*
Y152203D02*
D03*
X89676Y132812D02*
D03*
Y125332D02*
D03*
X99912D02*
D03*
Y129072D02*
D03*
Y132812D02*
D03*
X115677Y111668D02*
D03*
Y104188D02*
D03*
X125913D02*
D03*
Y107928D02*
D03*
Y111668D02*
D03*
X116027Y85561D02*
D03*
Y78081D02*
D03*
X126263D02*
D03*
Y81821D02*
D03*
Y85561D02*
D03*
D143*
X154734Y186462D02*
D03*
Y182722D02*
D03*
X144301Y178982D02*
D03*
Y182722D02*
D03*
Y186462D02*
D03*
X154734Y178982D02*
D03*
M02*
