G04*
G04 #@! TF.GenerationSoftware,Altium Limited,Altium Designer,18.1.9 (240)*
G04*
G04 Layer_Physical_Order=5*
G04 Layer_Color=16737945*
%FSLAX25Y25*%
%MOIN*%
G70*
G01*
G75*
%ADD10C,0.01000*%
%ADD13C,0.00118*%
%ADD14C,0.00504*%
%ADD15C,0.00158*%
%ADD16C,0.00787*%
%ADD49C,0.00799*%
%ADD95C,0.00984*%
%ADD97C,0.00598*%
%ADD98C,0.01575*%
%ADD100C,0.00591*%
%ADD103C,0.01968*%
%ADD104C,0.01772*%
%ADD116C,0.03150*%
%ADD117C,0.01772*%
G36*
X121565Y311539D02*
X130424D01*
Y307012D01*
X121565D01*
Y311539D01*
D02*
G37*
D10*
X155424Y100183D02*
X168711Y113470D01*
X174518D01*
X155424Y96010D02*
Y100183D01*
X178849Y117801D02*
Y151758D01*
X174518Y113470D02*
X178849Y117801D01*
X174420Y106384D02*
X183573Y115537D01*
X169105Y106384D02*
X174420D01*
X143809Y81089D02*
X169105Y106384D01*
X172904Y78687D02*
X192727Y98510D01*
X167431Y78687D02*
X172904D01*
X152865Y119770D02*
Y137315D01*
X150561Y117466D02*
X152865Y119770D01*
X150561Y100915D02*
Y117466D01*
X168750Y322683D02*
X175109D01*
X167963Y323470D02*
X168750Y322683D01*
X161723Y323470D02*
X167963D01*
X135103Y181738D02*
X163942Y210577D01*
X132038Y181738D02*
X135103D01*
X143809Y68588D02*
Y81089D01*
X141703Y66482D02*
X143809Y68588D01*
X128691Y66482D02*
X141703D01*
X165325Y63825D02*
X195187Y93687D01*
X162805Y63825D02*
X165325D01*
X178849Y151758D02*
X184459Y157368D01*
Y179356D01*
X206802Y191699D02*
X209065Y189435D01*
X206802Y221699D02*
X208672Y219829D01*
X141447Y82033D02*
X155424Y96010D01*
X122392Y72781D02*
X128691Y66482D01*
X119892Y72781D02*
X122392D01*
X110180Y205163D02*
X111558Y206541D01*
X146762D01*
X140266Y233313D02*
X151880Y221699D01*
X146762Y206541D02*
X151880Y211659D01*
Y221699D01*
X103750Y125044D02*
X113592Y115203D01*
X103750Y171108D02*
X115660Y183018D01*
X103750Y125044D02*
Y171108D01*
X113592Y115203D02*
X124715D01*
X122648Y85577D02*
X126191Y82033D01*
X141447D01*
X209754Y72132D02*
Y142210D01*
X211723Y70852D02*
Y140083D01*
X206802Y69179D02*
X209754Y72132D01*
X210050Y69179D02*
X211723Y70852D01*
X183573Y115537D02*
Y144192D01*
X202077Y162696D01*
X195187Y93687D02*
Y135714D01*
X115660Y183018D02*
Y194413D01*
X202077Y162696D02*
Y192445D01*
X208672Y199039D01*
Y219829D01*
X192727Y98510D02*
Y142740D01*
X209065Y159079D01*
Y189435D01*
X195187Y135714D02*
X212313Y152840D01*
Y226187D01*
X206802Y231699D02*
X212313Y226187D01*
X142924Y324258D02*
X151678D01*
X152465Y323470D01*
X161723D01*
X0Y369767D02*
X330709D01*
Y-311D02*
Y369767D01*
D13*
X322854Y39026D02*
G03*
X322854Y39026I-7894J0D01*
G01*
X23642D02*
G03*
X23642Y39026I-7894J0D01*
G01*
Y330365D02*
G03*
X23642Y330365I-7894J0D01*
G01*
X69337Y332640D02*
G03*
X59337Y322640I0J-10000D01*
G01*
X130544Y332640D02*
G03*
X130544Y340514I0J3937D01*
G01*
X158130D02*
G03*
X158130Y332640I0J-3937D01*
G01*
X31501Y243643D02*
G03*
X39375Y243643I3937J0D01*
G01*
Y216057D02*
G03*
X31501Y216057I-3937J0D01*
G01*
X39375Y146837D02*
G03*
X31501Y146837I-3937J0D01*
G01*
Y174423D02*
G03*
X39375Y174423I3937J0D01*
G01*
Y77617D02*
G03*
X31501Y77617I-3937J0D01*
G01*
Y105203D02*
G03*
X39375Y105203I3937J0D01*
G01*
X301229Y189965D02*
G03*
X293355Y189965I-3937J0D01*
G01*
Y217550D02*
G03*
X301229Y217550I3937J0D01*
G01*
Y102560D02*
G03*
X293355Y102560I-3937J0D01*
G01*
Y130145D02*
G03*
X301229Y130145I3937J0D01*
G01*
X176885Y39059D02*
G03*
X176885Y31185I0J-3937D01*
G01*
X149299D02*
G03*
X149299Y39059I0J3937D01*
G01*
X322859Y330398D02*
G03*
X322859Y330398I-7894J0D01*
G01*
X23646D02*
G03*
X23646Y330398I-7894J0D01*
G01*
X293355Y247055D02*
G03*
X287355Y253055I-6000J0D01*
G01*
Y67055D02*
G03*
X293355Y73055I0J6000D01*
G01*
X215337Y67055D02*
G03*
X215093Y67045I0J-3000D01*
G01*
X42375Y253055D02*
G03*
X39375Y250055I0J-3000D01*
G01*
Y209645D02*
G03*
X42375Y206645I3000J0D01*
G01*
X59337Y298140D02*
G03*
X69337Y288140I10000J0D01*
G01*
X111837D02*
G03*
X114837Y291140I0J3000D01*
G01*
X173837Y296140D02*
G03*
X170837Y296140I-1500J0D01*
G01*
X173837Y291140D02*
G03*
X176837Y288140I3000J-0D01*
G01*
X229337Y322640D02*
G03*
X219337Y332640I-10000J0D01*
G01*
X117837Y296140D02*
G03*
X114837Y296140I-1500J0D01*
G01*
X69337Y332640D02*
G03*
X59337Y322640I0J-10000D01*
G01*
X219337Y288140D02*
G03*
X229337Y298140I-0J10000D01*
G01*
X98337Y46055D02*
G03*
X92337Y46055I-3000J0D01*
G01*
X86799Y39362D02*
G03*
X92337Y43055I1539J3692D01*
G01*
X68694Y62439D02*
G03*
X86799Y39362I29643J4615D01*
G01*
X72646Y67055D02*
G03*
X68694Y62439I0J-4000D01*
G01*
X78337Y67055D02*
G03*
X81328Y69825I0J3000D01*
G01*
D02*
G03*
X78337Y72595I-2991J-230D01*
G01*
X170837Y249118D02*
G03*
X173837Y249118I1500J0D01*
G01*
X214932Y67027D02*
G03*
X214921Y61084I405J-2973D01*
G01*
X81337Y134425D02*
G03*
X78337Y137425I-3000J0D01*
G01*
Y183835D02*
G03*
X81337Y186835I0J3000D01*
G01*
X78337Y114615D02*
G03*
X81337Y117615I0J3000D01*
G01*
Y203645D02*
G03*
X78337Y206645I-3000J0D01*
G01*
X200347Y39059D02*
G03*
X201887Y39367I0J4000D01*
G01*
X121837Y43059D02*
G03*
X125837Y39059I4000J0D01*
G01*
X218062Y55595D02*
G03*
X214921Y61084I-3697J1528D01*
G01*
X201887Y39367D02*
G03*
X218062Y55595I-11550J27688D01*
G01*
X121837Y46055D02*
G03*
X115837Y46055I-3000J0D01*
G01*
X114837Y249118D02*
G03*
X117837Y249118I1500J0D01*
G01*
X66809Y72595D02*
G03*
X64854Y70855I0J-1969D01*
G01*
X61875Y68205D02*
G03*
X64854Y70855I0J3000D01*
G01*
X39375Y71205D02*
G03*
X42375Y68205I3000J0D01*
G01*
Y114615D02*
G03*
X39375Y111615I0J-3000D01*
G01*
X42375Y183835D02*
G03*
X39375Y180835I0J-3000D01*
G01*
Y140425D02*
G03*
X42375Y137425I3000J0D01*
G01*
X51463Y298140D02*
G03*
X69337Y280266I17874J0D01*
G01*
Y340514D02*
G03*
X51463Y322640I0J-17874D01*
G01*
X237211D02*
G03*
X219337Y340514I-17874J0D01*
G01*
Y280266D02*
G03*
X237211Y298140I-0J17874D01*
G01*
X42375Y260929D02*
G03*
X31501Y250055I0J-10874D01*
G01*
Y209645D02*
G03*
X42375Y198771I10874J0D01*
G01*
Y191709D02*
G03*
X31501Y180835I0J-10874D01*
G01*
Y140425D02*
G03*
X42375Y129551I10874J0D01*
G01*
Y122489D02*
G03*
X31501Y111615I0J-10874D01*
G01*
Y71205D02*
G03*
X42375Y60331I10874J0D01*
G01*
X61065D02*
G03*
X83770Y32094I37272J6724D01*
G01*
X83770Y32094D02*
G03*
X88650Y31185I4567J10961D01*
G01*
X202494Y31185D02*
G03*
X227384Y59181I-12157J35870D01*
G01*
X287355D02*
G03*
X301229Y73055I0J13874D01*
G01*
Y247055D02*
G03*
X287355Y260929I-13874J0D01*
G01*
X59337Y322640D02*
X59337D01*
X238236Y67055D02*
X287355D01*
X238236Y253055D02*
X287355D01*
X293355Y73055D02*
Y102570D01*
X215337Y67055D02*
X223132D01*
X215093Y253055D02*
X223132D01*
X78214Y72595D02*
X78227D01*
X78214Y114615D02*
X78227D01*
X78214Y137425D02*
X78227D01*
X78214Y183835D02*
X78227D01*
X78214Y206645D02*
X78227D01*
X78214Y253055D02*
X114837D01*
X117837Y251874D02*
Y252679D01*
X170837Y251874D02*
Y252679D01*
X173837Y253055D02*
X215093D01*
X214932Y67027D02*
X215093Y67045D01*
X70871Y114615D02*
X72649D01*
X70871Y72595D02*
X72649D01*
X170837Y292867D02*
Y292873D01*
X117837Y292867D02*
Y292873D01*
X170837Y284827D02*
Y292867D01*
X117837Y284827D02*
Y292867D01*
X72649Y72595D02*
X78214D01*
X72649Y114615D02*
X78214D01*
X70871Y137425D02*
X72649D01*
X70871Y183835D02*
X72649D01*
X70871Y253055D02*
X72649D01*
X70871Y206645D02*
X72649D01*
Y137425D02*
X78214D01*
X72649Y183835D02*
X78214D01*
X170837Y257368D02*
Y262504D01*
X117837Y257368D02*
Y262504D01*
X233133Y67055D02*
X238236D01*
X223132Y253055D02*
X238236D01*
X72649Y206645D02*
X78214D01*
X72649Y253055D02*
X78214D01*
X117837Y252679D02*
Y257368D01*
X170837Y252679D02*
Y257368D01*
Y267194D02*
Y284827D01*
X117837Y267194D02*
Y284827D01*
Y262504D02*
Y267194D01*
X170837Y262504D02*
Y267194D01*
X42375Y253055D02*
X70871D01*
X42375Y206645D02*
X70871D01*
X223132Y67055D02*
X233133D01*
X173837Y291140D02*
Y296140D01*
X170837Y292873D02*
Y296140D01*
X69337Y288140D02*
X111837D01*
X59337Y298140D02*
Y322640D01*
X114837Y291140D02*
Y296140D01*
X117837Y292873D02*
Y296140D01*
X69337Y332641D02*
X130553D01*
X229337Y298140D02*
Y322640D01*
X176837Y288140D02*
X219337D01*
X92337Y43055D02*
Y46055D01*
X72646Y67055D02*
X78337D01*
X78227Y72595D02*
X78337D01*
X78227Y114615D02*
X78337D01*
X170837Y249118D02*
Y251874D01*
X173837Y249118D02*
Y253055D01*
X115837Y44413D02*
Y46055D01*
X98337Y44413D02*
X115837D01*
X98337D02*
Y46055D01*
X78227Y206645D02*
X78337D01*
X78227Y253055D02*
X114837Y253055D01*
X81337Y117615D02*
Y134425D01*
X78227Y137425D02*
X78337D01*
X78227Y183835D02*
X78337D01*
X125837Y39059D02*
X149312D01*
X114837Y249118D02*
Y253055D01*
X81337Y186835D02*
Y203645D01*
X117837Y249118D02*
Y251874D01*
X121837Y43059D02*
Y46055D01*
X42375Y114615D02*
X70871D01*
X66809Y72595D02*
X70871D01*
X42375Y68205D02*
X61875D01*
X39375Y71205D02*
Y77617D01*
X42375Y183835D02*
X70871D01*
X42375Y137425D02*
X70871D01*
X39375Y140425D02*
Y146837D01*
X69337Y280266D02*
X109963D01*
X51463Y298140D02*
Y322640D01*
X69337Y340514D02*
X130544D01*
X237211Y298140D02*
Y322640D01*
X178711Y280266D02*
X219337D01*
X109963Y260929D02*
Y280266D01*
X178711Y260929D02*
Y280266D01*
X42375Y260929D02*
X109963D01*
X31501Y209645D02*
Y216064D01*
X42375Y198771D02*
X73463D01*
Y191709D02*
Y198771D01*
X42375Y191709D02*
X73463D01*
X31501Y140425D02*
Y146844D01*
X42375Y129551D02*
X73463D01*
Y122489D02*
Y129551D01*
X42375Y122489D02*
X73463D01*
X31501Y71205D02*
Y77624D01*
X42375Y60331D02*
X61065D01*
X88024Y31185D02*
X149299D01*
X227384Y59181D02*
X287355D01*
X301229Y73055D02*
Y102560D01*
X178711Y260929D02*
X287355D01*
X117837Y262504D02*
Y267194D01*
X293355Y217540D02*
Y247055D01*
Y130135D02*
Y189975D01*
X176872Y39059D02*
X200347D01*
X31501Y105196D02*
Y111615D01*
Y174416D02*
Y180835D01*
Y243636D02*
Y250055D01*
X158121Y332641D02*
X219337D01*
X39375Y174423D02*
Y180835D01*
Y243643D02*
Y250055D01*
Y105203D02*
Y111615D01*
X176885Y31185D02*
X202494D01*
X158130Y340514D02*
X219337D01*
X301229Y217550D02*
Y247055D01*
Y130145D02*
Y189965D01*
X39375Y209645D02*
Y216057D01*
D14*
X0Y-312D02*
X330709D01*
X0Y-311D02*
Y369768D01*
D15*
X215337Y67055D02*
G03*
X215093Y67045I0J-3000D01*
G01*
X218062Y55595D02*
G03*
X214921Y61084I-3697J1528D01*
G01*
X201887Y39367D02*
G03*
X218062Y55595I-11550J27688D01*
G01*
X200347Y39059D02*
G03*
X201887Y39367I0J4000D01*
G01*
X121837Y43059D02*
G03*
X125837Y39059I4000J0D01*
G01*
X121837Y46055D02*
G03*
X115837Y46055I-3000J0D01*
G01*
X98337D02*
G03*
X92337Y46055I-3000J0D01*
G01*
X86799Y39362D02*
G03*
X92337Y43055I1539J3692D01*
G01*
X68694Y62439D02*
G03*
X86799Y39362I29643J4615D01*
G01*
X72646Y67055D02*
G03*
X68694Y62439I0J-4000D01*
G01*
X78337Y67055D02*
G03*
X81328Y69825I0J3000D01*
G01*
D02*
G03*
X78337Y72595I-2991J-230D01*
G01*
Y114615D02*
G03*
X81337Y117615I0J3000D01*
G01*
Y134425D02*
G03*
X78337Y137425I-3000J0D01*
G01*
Y183835D02*
G03*
X81337Y186835I0J3000D01*
G01*
Y203645D02*
G03*
X78337Y206645I-3000J0D01*
G01*
X114837Y249118D02*
G03*
X117837Y249118I1500J0D01*
G01*
X170837D02*
G03*
X173837Y249118I1500J0D01*
G01*
X215093Y67045D02*
G03*
X214921Y61084I244J-2990D01*
G01*
X39375Y71205D02*
G03*
X42375Y68205I3000J0D01*
G01*
Y114615D02*
G03*
X39375Y111615I0J-3000D01*
G01*
X66809Y72595D02*
G03*
X64854Y70855I0J-1969D01*
G01*
X61875Y68205D02*
G03*
X64854Y70855I0J3000D01*
G01*
X117837Y296140D02*
G03*
X114837Y296140I-1500J0D01*
G01*
X111837Y288140D02*
G03*
X114837Y291140I0J3000D01*
G01*
X229337Y322640D02*
G03*
X219337Y332640I-10000J0D01*
G01*
X173837Y291140D02*
G03*
X176837Y288140I3000J0D01*
G01*
X173837Y296140D02*
G03*
X170837Y296140I-1500J0D01*
G01*
X59337Y298140D02*
G03*
X69337Y288140I10000J0D01*
G01*
Y332640D02*
G03*
X59337Y322640I0J-10000D01*
G01*
X219337Y288140D02*
G03*
X229337Y298140I0J10000D01*
G01*
X42375Y183835D02*
G03*
X39375Y180835I0J-3000D01*
G01*
Y140425D02*
G03*
X42375Y137425I3000J0D01*
G01*
X39375Y209645D02*
G03*
X42375Y206645I3000J0D01*
G01*
Y253055D02*
G03*
X39375Y250055I0J-3000D01*
G01*
X293355Y247055D02*
G03*
X287355Y253055I-6000J0D01*
G01*
Y67055D02*
G03*
X293355Y73055I0J6000D01*
G01*
X215337Y67055D02*
X223132D01*
X215093Y253055D02*
X223132D01*
X125837Y39059D02*
X200347D01*
X121837Y43059D02*
Y46055D01*
X115837Y44413D02*
Y46055D01*
X98337Y44413D02*
X115837D01*
X98337D02*
Y46055D01*
X92337Y43055D02*
Y46055D01*
X72646Y67055D02*
X78337D01*
X78214Y72595D02*
X78337D01*
X78214Y114615D02*
X78337D01*
X81337Y117615D02*
Y134425D01*
X78214Y137425D02*
X78337D01*
X78214Y183835D02*
X78337D01*
X81337Y186835D02*
Y203645D01*
X78214Y206645D02*
X78337D01*
X78214Y253055D02*
X114837D01*
Y249118D02*
Y253055D01*
X117837Y249118D02*
Y252679D01*
X170837Y249118D02*
Y252679D01*
X173837Y249118D02*
Y253055D01*
X215093D01*
X42375Y68205D02*
X61875D01*
X39375Y71205D02*
Y111615D01*
X42375Y114615D02*
X72649D01*
X66809Y72595D02*
X72649D01*
X114837Y291140D02*
Y296140D01*
X69337Y288140D02*
X111837D01*
X69337Y332640D02*
X219337D01*
X229337Y298140D02*
Y322640D01*
X173837Y291140D02*
Y296140D01*
X170837Y292867D02*
Y296140D01*
X59337Y298140D02*
Y322640D01*
X117837Y292867D02*
Y296140D01*
X176837Y288140D02*
X219337D01*
X42375Y183835D02*
X72649D01*
X39375Y140425D02*
Y180835D01*
X42375Y137425D02*
X72649D01*
X42375Y253055D02*
X72649D01*
X42375Y206645D02*
X72649D01*
Y137425D02*
X78214D01*
X72649Y183835D02*
X78214D01*
X170837Y252679D02*
Y257368D01*
X117837Y252679D02*
Y257368D01*
X72649Y206645D02*
X78214D01*
X72649Y253055D02*
X78214D01*
X72649Y72595D02*
X78214D01*
X72649Y114615D02*
X78214D01*
X170837Y257368D02*
Y262504D01*
X117837Y257368D02*
Y262504D01*
X170837Y284827D02*
Y292867D01*
X117837Y284827D02*
Y292867D01*
X170837Y267194D02*
Y284827D01*
X117837Y267194D02*
Y284827D01*
X293355Y73055D02*
Y247055D01*
X223132Y253055D02*
X287355D01*
X223132Y67055D02*
X287355D01*
X117837Y262504D02*
Y267194D01*
X170837Y262504D02*
Y267194D01*
X39375Y209645D02*
Y250055D01*
D16*
X136290Y310479D02*
X138770Y312959D01*
Y316974D01*
X105817Y167112D02*
X128711Y190006D01*
X105817Y126915D02*
Y167112D01*
X155030Y115439D02*
Y126364D01*
X152865Y113274D02*
X155030Y115439D01*
X152865Y100774D02*
Y113274D01*
X155030Y126364D02*
X173337Y144671D01*
Y149396D01*
X190463Y108648D02*
Y146325D01*
X185935Y104120D02*
X190463Y108648D01*
X170089Y104120D02*
X185935D01*
X155030Y89061D02*
X170089Y104120D01*
X142707Y241837D02*
Y316974D01*
Y241837D02*
X156605Y227939D01*
X150109Y98018D02*
X152865Y100774D01*
X150109Y95459D02*
Y98018D01*
X148731Y94081D02*
X150109Y95459D01*
X127235Y94081D02*
X148731D01*
X153160Y96344D02*
Y98372D01*
X144754Y87939D02*
X153160Y96344D01*
X109459Y87939D02*
X144754D01*
X155030Y80951D02*
Y89061D01*
X182589Y187486D02*
X206802Y211699D01*
X182589Y158648D02*
Y187486D01*
X173337Y149396D02*
X182589Y158648D01*
X203947Y238844D02*
X206802Y241699D01*
X203947Y228589D02*
Y238844D01*
X126093Y74258D02*
Y77210D01*
X120695Y82608D02*
X126093Y77210D01*
X107309Y82608D02*
X120695D01*
X99518Y90399D02*
X107309Y82608D01*
X133573Y70222D02*
Y71837D01*
X119597Y85813D02*
X133573Y71837D01*
X108435Y85813D02*
X119597D01*
X101487Y92762D02*
X108435Y85813D01*
X119695Y101620D02*
X127235Y94081D01*
X125305Y117270D02*
X127668Y114907D01*
X115463Y117270D02*
X125305D01*
X127668Y114907D02*
Y115203D01*
X94696Y202013D02*
Y207231D01*
X108475Y221010D01*
X127372D01*
X130621Y101620D02*
Y120124D01*
X117038Y118943D02*
X122943D01*
X125896Y121896D01*
X107589Y128392D02*
Y164218D01*
Y128392D02*
X117038Y118943D01*
X125896Y121896D02*
X128849D01*
X130621Y120124D01*
X101487Y172978D02*
X112412Y183903D01*
X99518Y174831D02*
X109476Y184789D01*
X101487Y92762D02*
Y172978D01*
X99518Y90399D02*
Y174831D01*
X112412Y183903D02*
Y186758D01*
X107786Y191384D02*
X112412Y186758D01*
X107786Y191384D02*
Y215596D01*
X109754Y217565D01*
X105817Y126915D02*
X115463Y117270D01*
X112510Y125832D02*
Y129179D01*
Y125832D02*
X114872Y123470D01*
X118416D01*
X119203Y124258D01*
X131006D01*
X135640Y111167D02*
X141447Y105360D01*
X135640Y111167D02*
Y119624D01*
X131006Y124258D02*
X135640Y119624D01*
X141447Y119632D02*
Y126620D01*
X109262Y139710D02*
Y155458D01*
Y139710D02*
X112117Y136856D01*
X131211D01*
X141447Y126620D01*
X107589Y164218D02*
X119597Y176226D01*
X130227Y186856D01*
X97353Y216187D02*
Y224423D01*
X111065Y238136D01*
X119695D01*
X121861D02*
X123928Y236069D01*
X119695Y238136D02*
X121861D01*
X123928Y236069D02*
X129735D01*
X145679Y220124D01*
X82687Y219140D02*
X87569D01*
X110010Y241581D01*
X119695D01*
X123042D01*
X125798Y238825D01*
X130469D01*
X149223Y220071D01*
X190463Y146325D02*
X204833Y160695D01*
X128711Y190006D02*
X137434D01*
X156605Y209177D01*
Y227939D01*
X130227Y186856D02*
X137040D01*
X136290Y240122D02*
Y310479D01*
Y240122D02*
X139676Y236736D01*
X137040Y186856D02*
X165266Y215083D01*
X198337Y299531D02*
X202668Y295201D01*
X165266Y215083D02*
Y296382D01*
X168416Y299531D01*
X198337D01*
X203947Y228589D02*
X210542Y221994D01*
X204833Y160695D02*
Y192838D01*
X210542Y198547D01*
Y221994D01*
X112510Y129179D02*
X115955Y132624D01*
X94500Y-2703D02*
Y-9000D01*
X98698D01*
X101847Y-4802D02*
X103946D01*
X104995Y-5851D01*
Y-9000D01*
X101847D01*
X100797Y-7950D01*
X101847Y-6901D01*
X104995D01*
X107094Y-4802D02*
Y-7950D01*
X108144Y-9000D01*
X111293D01*
Y-10050D01*
X110243Y-11099D01*
X109193D01*
X111293Y-9000D02*
Y-4802D01*
X116540Y-9000D02*
X114441D01*
X113391Y-7950D01*
Y-5851D01*
X114441Y-4802D01*
X116540D01*
X117590Y-5851D01*
Y-6901D01*
X113391D01*
X119689Y-4802D02*
Y-9000D01*
Y-6901D01*
X120738Y-5851D01*
X121788Y-4802D01*
X122837D01*
X136481Y-2703D02*
X132283D01*
Y-5851D01*
X134382Y-4802D01*
X135432D01*
X136481Y-5851D01*
Y-7950D01*
X135432Y-9000D01*
X133333D01*
X132283Y-7950D01*
X139630Y-10050D02*
X140679Y-9000D01*
Y-7950D01*
X139630D01*
Y-9000D01*
X140679D01*
X139630Y-10050D01*
X138580Y-11099D01*
X155373Y-2703D02*
X151174D01*
Y-5851D01*
X153274D01*
X151174D01*
Y-9000D01*
X157472D02*
X159571D01*
X158521D01*
Y-2703D01*
X157472D01*
X165868Y-9000D02*
X163769D01*
X162719Y-7950D01*
Y-5851D01*
X163769Y-4802D01*
X165868D01*
X166918Y-5851D01*
Y-6901D01*
X162719D01*
X169017Y-4802D02*
X173215Y-9000D01*
X171116Y-6901D01*
X173215Y-4802D01*
X169017Y-9000D01*
X185809Y-3752D02*
X184759Y-2703D01*
X182660D01*
X181611Y-3752D01*
Y-4802D01*
X182660Y-5851D01*
X184759D01*
X185809Y-6901D01*
Y-7950D01*
X184759Y-9000D01*
X182660D01*
X181611Y-7950D01*
X187908Y-9000D02*
X190007D01*
X188958D01*
Y-4802D01*
X187908D01*
X195255Y-11099D02*
X196304D01*
X197354Y-10050D01*
Y-4802D01*
X194205D01*
X193156Y-5851D01*
Y-7950D01*
X194205Y-9000D01*
X197354D01*
X199453D02*
Y-4802D01*
X202601D01*
X203651Y-5851D01*
Y-9000D01*
X206800Y-4802D02*
X208899D01*
X209948Y-5851D01*
Y-9000D01*
X206800D01*
X205750Y-7950D01*
X206800Y-6901D01*
X209948D01*
X212047Y-9000D02*
X214146D01*
X213097D01*
Y-2703D01*
X212047D01*
X227790Y-9000D02*
X223592D01*
X227790Y-4802D01*
Y-3752D01*
X226741Y-2703D01*
X224641D01*
X223592Y-3752D01*
D49*
X323858Y39026D02*
G03*
X323858Y39026I-8898J0D01*
G01*
X24646D02*
G03*
X24646Y39026I-8898J0D01*
G01*
Y330365D02*
G03*
X24646Y330365I-8898J0D01*
G01*
X323858D02*
G03*
X323858Y330365I-8898J0D01*
G01*
D95*
X119991Y319610D02*
X143613D01*
X150699Y312524D01*
X144203Y321382D02*
X153258Y312327D01*
X150699Y249728D02*
Y312524D01*
Y249728D02*
X153061Y247366D01*
Y245754D02*
Y247366D01*
X153258Y249925D02*
Y312327D01*
Y249925D02*
X155621Y247563D01*
Y245791D02*
Y247563D01*
X184459Y179356D02*
Y181913D01*
X204046Y201500D01*
X209754Y142210D02*
X211526Y143982D01*
Y148547D01*
X119006Y321382D02*
X144203D01*
X106211Y305831D02*
Y308587D01*
X119006Y321382D01*
X96762Y305831D02*
X99361Y303232D01*
X107091D01*
X109843Y305984D01*
Y309462D01*
X119991Y319610D01*
D97*
X97353Y85183D02*
Y146986D01*
X104833Y77703D02*
X111821Y70714D01*
X121172D02*
X127235Y64651D01*
X111821Y70714D02*
X121172D01*
X97353Y85183D02*
X104833Y77703D01*
X149459Y64651D02*
X158376Y73569D01*
X127235Y64651D02*
X149459D01*
X158376Y73569D02*
Y81459D01*
X157211Y82624D02*
X158376Y81459D01*
D98*
X170483Y159888D02*
X178553D01*
X179931Y161266D01*
X111231Y148569D02*
X129833Y167171D01*
X111231Y144041D02*
Y148569D01*
X129833Y167171D02*
Y174651D01*
X134164Y178982D01*
X139920D01*
X167697Y173500D02*
X179931Y161266D01*
X139920Y178982D02*
X145402Y173500D01*
X167697D01*
D100*
X82687Y149939D02*
X86526D01*
X82687Y80640D02*
Y85026D01*
X86526Y88864D01*
X82687Y216088D02*
Y219140D01*
Y216088D02*
X86526Y212250D01*
Y88864D02*
Y212250D01*
X162083Y72393D02*
Y87511D01*
X166349Y91777D01*
X97943Y63825D02*
X113571D01*
X119991Y57405D01*
X147095D01*
X162083Y72393D01*
D103*
X88298Y55498D02*
X91742Y52053D01*
X88298Y55498D02*
Y81817D01*
X94696Y88215D01*
Y132812D01*
X201487Y60026D02*
Y82565D01*
X203750Y84829D01*
Y112683D01*
X200109Y116325D02*
X203750Y112683D01*
X94696Y132812D02*
Y202013D01*
X125959Y304116D02*
Y307919D01*
X130128Y248903D02*
Y299947D01*
X125959Y304116D02*
X130128Y299947D01*
X116911Y305367D02*
Y307919D01*
Y305367D02*
X126634Y295643D01*
Y249002D02*
Y295643D01*
D104*
X140168Y240793D02*
X154243Y226718D01*
Y209964D02*
Y226718D01*
X110381Y195183D02*
X112958Y197760D01*
X142038D01*
X154243Y209964D01*
D116*
X91742Y52053D02*
D03*
X200109Y116325D02*
D03*
X201487Y60026D02*
D03*
X94696Y132812D02*
D03*
Y202013D02*
D03*
X179931Y161266D02*
D03*
D117*
X170483Y159888D02*
D03*
X150561Y100915D02*
D03*
X152865Y137315D02*
D03*
X206802Y241699D02*
D03*
Y231699D02*
D03*
Y221699D02*
D03*
Y211699D02*
D03*
Y191699D02*
D03*
X127668Y114907D02*
D03*
X111231Y144041D02*
D03*
X155030Y80951D02*
D03*
X110180Y205163D02*
D03*
X140266Y233313D02*
D03*
X146762Y206541D02*
D03*
X127372Y221010D02*
D03*
X132038Y181738D02*
D03*
X163942Y210577D02*
D03*
X130621Y101620D02*
D03*
X124715Y115203D02*
D03*
X119695Y101620D02*
D03*
X141447Y82033D02*
D03*
X122648Y85577D02*
D03*
X119892Y72781D02*
D03*
X162805Y63825D02*
D03*
X167431Y78687D02*
D03*
X161723Y323470D02*
D03*
X138770Y316974D02*
D03*
X142707D02*
D03*
X134164Y178982D02*
D03*
X109476Y184789D02*
D03*
X109262Y155458D02*
D03*
X115955Y132427D02*
D03*
X141447Y119632D02*
D03*
X141447Y105360D02*
D03*
X153160Y98372D02*
D03*
X109459Y87939D02*
D03*
X133573Y70222D02*
D03*
X126093Y74258D02*
D03*
X140168Y240793D02*
D03*
X110381Y195183D02*
D03*
X175109Y322683D02*
D03*
X116911Y307919D02*
D03*
X125959D02*
D03*
X129502Y310675D02*
D03*
X122416D02*
D03*
Y307919D02*
D03*
X129502D02*
D03*
X109754Y217565D02*
D03*
X142924Y324258D02*
D03*
X126634Y249002D02*
D03*
X119597Y176226D02*
D03*
X97353Y146986D02*
D03*
Y216187D02*
D03*
X104833Y77703D02*
D03*
X119695Y238136D02*
D03*
X157211Y82624D02*
D03*
X145679Y220124D02*
D03*
X82687Y80640D02*
D03*
Y149939D02*
D03*
Y219140D02*
D03*
X119695Y241581D02*
D03*
X166349Y91777D02*
D03*
X149223Y220071D02*
D03*
X211526Y148547D02*
D03*
X211723Y140083D02*
D03*
X210050Y69179D02*
D03*
X206802D02*
D03*
X97943Y63825D02*
D03*
X130128Y248903D02*
D03*
X106211Y305831D02*
D03*
X153061Y245754D02*
D03*
X155621Y245791D02*
D03*
X115660Y194413D02*
D03*
X139676Y236736D02*
D03*
X202668Y295201D02*
D03*
X204046Y201500D02*
D03*
X96762Y305831D02*
D03*
M02*
