G04*
G04 #@! TF.GenerationSoftware,Altium Limited,Altium Designer,18.1.9 (240)*
G04*
G04 Layer_Color=255*
%FSLAX25Y25*%
%MOIN*%
G70*
G01*
G75*
%ADD10C,0.01000*%
%ADD11C,0.00039*%
%ADD13C,0.00118*%
%ADD14C,0.00504*%
%ADD15C,0.00158*%
D10*
X0Y369767D02*
X330709D01*
Y-311D02*
Y369767D01*
D11*
X198075Y249076D02*
X198600D01*
Y248682D01*
X198338D01*
X198600D01*
Y248288D01*
X197813D02*
X197550D01*
X197682D01*
Y248813D01*
X197813D01*
X196632Y249076D02*
Y248288D01*
X197026D01*
X197157Y248420D01*
Y248682D01*
X197026Y248813D01*
X196632D01*
X196370Y248288D02*
X196107D01*
X196239D01*
Y249076D01*
X196370Y248944D01*
X195320Y248288D02*
Y249076D01*
X195714Y248682D01*
X195189D01*
X79875Y51276D02*
X80400D01*
Y50882D01*
X80138D01*
X80400D01*
Y50489D01*
X79613D02*
X79351D01*
X79482D01*
Y51013D01*
X79613D01*
X78432Y51276D02*
Y50489D01*
X78826D01*
X78957Y50620D01*
Y50882D01*
X78826Y51013D01*
X78432D01*
X78170Y50489D02*
X77907D01*
X78039D01*
Y51276D01*
X78170Y51144D01*
X77514D02*
X77383Y51276D01*
X77120D01*
X76989Y51144D01*
Y51013D01*
X77120Y50882D01*
X77251D01*
X77120D01*
X76989Y50751D01*
Y50620D01*
X77120Y50489D01*
X77383D01*
X77514Y50620D01*
X16575Y354376D02*
X17100D01*
Y353982D01*
X16838D01*
X17100D01*
Y353589D01*
X16313D02*
X16050D01*
X16182D01*
Y354113D01*
X16313D01*
X15132Y354376D02*
Y353589D01*
X15526D01*
X15657Y353720D01*
Y353982D01*
X15526Y354113D01*
X15132D01*
X14870Y354244D02*
X14739Y354376D01*
X14476D01*
X14345Y354244D01*
Y354113D01*
X14476Y353982D01*
X14607D01*
X14476D01*
X14345Y353851D01*
Y353720D01*
X14476Y353589D01*
X14739D01*
X14870Y353720D01*
X315775Y15776D02*
X316300D01*
Y15382D01*
X316038D01*
X316300D01*
Y14988D01*
X315513D02*
X315250D01*
X315382D01*
Y15513D01*
X315513D01*
X314332Y15776D02*
Y14988D01*
X314726D01*
X314857Y15120D01*
Y15382D01*
X314726Y15513D01*
X314332D01*
X314070Y15120D02*
X313939Y14988D01*
X313676D01*
X313545Y15120D01*
Y15644D01*
X313676Y15776D01*
X313939D01*
X314070Y15644D01*
Y15513D01*
X313939Y15382D01*
X313545D01*
X160241Y60023D02*
Y61598D01*
X159453D01*
X159191Y61335D01*
Y60811D01*
X159453Y60548D01*
X160241D01*
X159716D02*
X159191Y60023D01*
X158666D02*
X158142D01*
X158404D01*
Y61598D01*
X158666Y61335D01*
X157354D02*
X157092Y61598D01*
X156567D01*
X156305Y61335D01*
Y61073D01*
X156567Y60811D01*
X156830D01*
X156567D01*
X156305Y60548D01*
Y60286D01*
X156567Y60023D01*
X157092D01*
X157354Y60286D01*
X161126Y142602D02*
Y144176D01*
X160339D01*
X160077Y143914D01*
Y143389D01*
X160339Y143127D01*
X161126D01*
X160602D02*
X160077Y142602D01*
X159552D02*
X159027D01*
X159290D01*
Y144176D01*
X159552Y143914D01*
X157191Y142602D02*
X158240D01*
X157191Y143652D01*
Y143914D01*
X157453Y144176D01*
X157978D01*
X158240Y143914D01*
X148922Y141618D02*
Y143192D01*
X148135D01*
X147872Y142930D01*
Y142405D01*
X148135Y142143D01*
X148922D01*
X148397D02*
X147872Y141618D01*
X147347Y141880D02*
X147085Y141618D01*
X146560D01*
X146298Y141880D01*
Y142930D01*
X146560Y143192D01*
X147085D01*
X147347Y142930D01*
Y142667D01*
X147085Y142405D01*
X146298D01*
X149217Y136992D02*
Y138566D01*
X148430D01*
X148168Y138304D01*
Y137779D01*
X148430Y137517D01*
X149217D01*
X148692D02*
X148168Y136992D01*
X147643D02*
X147118D01*
X147380D01*
Y138566D01*
X147643Y138304D01*
X146331Y136992D02*
X145806D01*
X146069D01*
Y138566D01*
X146331Y138304D01*
X150500Y80963D02*
Y79651D01*
X150238Y79388D01*
X149713D01*
X149451Y79651D01*
Y80963D01*
X148139Y79388D02*
Y80963D01*
X148926Y80176D01*
X147876D01*
X146396Y57890D02*
X146658Y58153D01*
X147183D01*
X147445Y57890D01*
Y56841D01*
X147183Y56579D01*
X146658D01*
X146396Y56841D01*
X144822Y58153D02*
X145346Y57890D01*
X145871Y57366D01*
Y56841D01*
X145609Y56579D01*
X145084D01*
X144822Y56841D01*
Y57103D01*
X145084Y57366D01*
X145871D01*
X149250Y133087D02*
X149513Y133350D01*
X150037D01*
X150300Y133087D01*
Y132038D01*
X150037Y131775D01*
X149513D01*
X149250Y132038D01*
X148725Y133087D02*
X148463Y133350D01*
X147938D01*
X147676Y133087D01*
Y132825D01*
X147938Y132563D01*
X148201D01*
X147938D01*
X147676Y132300D01*
Y132038D01*
X147938Y131775D01*
X148463D01*
X148725Y132038D01*
X154400Y116563D02*
Y115251D01*
X154138Y114988D01*
X153613D01*
X153350Y115251D01*
Y116563D01*
X152826Y116300D02*
X152563Y116563D01*
X152039D01*
X151776Y116300D01*
Y116038D01*
X152039Y115776D01*
X152301D01*
X152039D01*
X151776Y115513D01*
Y115251D01*
X152039Y114988D01*
X152563D01*
X152826Y115251D01*
X141737Y72622D02*
Y74196D01*
X140950D01*
X140687Y73934D01*
Y73409D01*
X140950Y73147D01*
X141737D01*
X141212D02*
X140687Y72622D01*
X140162D02*
X139638D01*
X139900D01*
Y74196D01*
X140162Y73934D01*
X138850Y72622D02*
X138326D01*
X138588D01*
Y74196D01*
X138850Y73934D01*
X137539Y74196D02*
X136489D01*
Y73934D01*
X137539Y72884D01*
Y72622D01*
X162504Y71145D02*
X160930D01*
Y70358D01*
X161193Y70096D01*
X161717D01*
X161980Y70358D01*
Y71145D01*
Y70621D02*
X162504Y70096D01*
Y69571D02*
Y69046D01*
Y69309D01*
X160930D01*
X161193Y69571D01*
X162504Y68259D02*
Y67734D01*
Y67997D01*
X160930D01*
X161193Y68259D01*
X160930Y65898D02*
X161193Y66423D01*
X161717Y66947D01*
X162242D01*
X162504Y66685D01*
Y66160D01*
X162242Y65898D01*
X161980D01*
X161717Y66160D01*
Y66947D01*
X167819Y71736D02*
X166245D01*
Y70949D01*
X166507Y70687D01*
X167032D01*
X167295Y70949D01*
Y71736D01*
Y71211D02*
X167819Y70687D01*
Y70162D02*
Y69637D01*
Y69899D01*
X166245D01*
X166507Y70162D01*
X167819Y68850D02*
Y68325D01*
Y68587D01*
X166245D01*
X166507Y68850D01*
X166245Y66488D02*
Y67538D01*
X167032D01*
X166770Y67013D01*
Y66751D01*
X167032Y66488D01*
X167557D01*
X167819Y66751D01*
Y67276D01*
X167557Y67538D01*
X171067Y63075D02*
X169493D01*
Y62287D01*
X169755Y62025D01*
X170280D01*
X170543Y62287D01*
Y63075D01*
Y62550D02*
X171067Y62025D01*
Y61500D02*
Y60976D01*
Y61238D01*
X169493D01*
X169755Y61500D01*
X171067Y60188D02*
Y59664D01*
Y59926D01*
X169493D01*
X169755Y60188D01*
Y58877D02*
X169493Y58614D01*
Y58089D01*
X169755Y57827D01*
X170018D01*
X170280Y58089D01*
Y58352D01*
Y58089D01*
X170543Y57827D01*
X170805D01*
X171067Y58089D01*
Y58614D01*
X170805Y58877D01*
X115064Y70358D02*
Y71932D01*
X114276D01*
X114014Y71670D01*
Y71145D01*
X114276Y70883D01*
X115064D01*
X114539D02*
X114014Y70358D01*
X113489D02*
X112964D01*
X113227D01*
Y71932D01*
X113489Y71670D01*
X112177Y70358D02*
X111653D01*
X111915D01*
Y71932D01*
X112177Y71670D01*
X110865D02*
X110603Y71932D01*
X110078D01*
X109816Y71670D01*
Y70621D01*
X110078Y70358D01*
X110603D01*
X110865Y70621D01*
Y71670D01*
X137504Y106086D02*
Y107661D01*
X136717D01*
X136455Y107398D01*
Y106874D01*
X136717Y106611D01*
X137504D01*
X136980D02*
X136455Y106086D01*
X135930D02*
X135405D01*
X135668D01*
Y107661D01*
X135930Y107398D01*
X134618D02*
X134356Y107661D01*
X133831D01*
X133569Y107398D01*
Y106349D01*
X133831Y106086D01*
X134356D01*
X134618Y106349D01*
Y107398D01*
X133044D02*
X132782Y107661D01*
X132257D01*
X131994Y107398D01*
Y107136D01*
X132257Y106874D01*
X131994Y106611D01*
Y106349D01*
X132257Y106086D01*
X132782D01*
X133044Y106349D01*
Y106611D01*
X132782Y106874D01*
X133044Y107136D01*
Y107398D01*
X132782Y106874D02*
X132257D01*
X160142Y91421D02*
X158568D01*
Y90634D01*
X158830Y90372D01*
X159355D01*
X159617Y90634D01*
Y91421D01*
Y90896D02*
X160142Y90372D01*
Y89847D02*
Y89322D01*
Y89584D01*
X158568D01*
X158830Y89847D01*
Y88535D02*
X158568Y88273D01*
Y87748D01*
X158830Y87485D01*
X159880D01*
X160142Y87748D01*
Y88273D01*
X159880Y88535D01*
X158830D01*
X158568Y86961D02*
Y85911D01*
X158830D01*
X159880Y86961D01*
X160142D01*
X165260Y82858D02*
X163686D01*
Y82071D01*
X163948Y81809D01*
X164473D01*
X164736Y82071D01*
Y82858D01*
Y82333D02*
X165260Y81809D01*
Y81284D02*
Y80759D01*
Y81021D01*
X163686D01*
X163948Y81284D01*
Y79972D02*
X163686Y79710D01*
Y79185D01*
X163948Y78922D01*
X164998D01*
X165260Y79185D01*
Y79710D01*
X164998Y79972D01*
X163948D01*
X163686Y77348D02*
X163948Y77873D01*
X164473Y78398D01*
X164998D01*
X165260Y78135D01*
Y77610D01*
X164998Y77348D01*
X164736D01*
X164473Y77610D01*
Y78398D01*
X160733Y172031D02*
Y173606D01*
X159946D01*
X159683Y173343D01*
Y172819D01*
X159946Y172556D01*
X160733D01*
X160208D02*
X159683Y172031D01*
X159159D02*
X158634D01*
X158896D01*
Y173606D01*
X159159Y173343D01*
X157847D02*
X157584Y173606D01*
X157059D01*
X156797Y173343D01*
Y172294D01*
X157059Y172031D01*
X157584D01*
X157847Y172294D01*
Y173343D01*
X155485Y172031D02*
Y173606D01*
X156272Y172819D01*
X155223D01*
X83469Y88567D02*
Y90141D01*
X82682D01*
X82420Y89879D01*
Y89354D01*
X82682Y89091D01*
X83469D01*
X82944D02*
X82420Y88567D01*
X81895Y88829D02*
X81632Y88567D01*
X81108D01*
X80845Y88829D01*
Y89879D01*
X81108Y90141D01*
X81632D01*
X81895Y89879D01*
Y89616D01*
X81632Y89354D01*
X80845D01*
X80320Y90141D02*
X79271D01*
Y89879D01*
X80320Y88829D01*
Y88567D01*
X89867Y112583D02*
X88292D01*
Y111795D01*
X88555Y111533D01*
X89079D01*
X89342Y111795D01*
Y112583D01*
Y112058D02*
X89867Y111533D01*
X89604Y111008D02*
X89867Y110746D01*
Y110221D01*
X89604Y109959D01*
X88555D01*
X88292Y110221D01*
Y110746D01*
X88555Y111008D01*
X88817D01*
X89079Y110746D01*
Y109959D01*
X88555Y109434D02*
X88292Y109172D01*
Y108647D01*
X88555Y108384D01*
X88817D01*
X89079Y108647D01*
X89342Y108384D01*
X89604D01*
X89867Y108647D01*
Y109172D01*
X89604Y109434D01*
X89342D01*
X89079Y109172D01*
X88817Y109434D01*
X88555D01*
X89079Y109172D02*
Y108647D01*
X101579Y112681D02*
X100005D01*
Y111894D01*
X100267Y111631D01*
X100792D01*
X101055Y111894D01*
Y112681D01*
Y112156D02*
X101579Y111631D01*
X101317Y111107D02*
X101579Y110844D01*
Y110319D01*
X101317Y110057D01*
X100267D01*
X100005Y110319D01*
Y110844D01*
X100267Y111107D01*
X100530D01*
X100792Y110844D01*
Y110057D01*
X100005Y108483D02*
X100267Y109008D01*
X100792Y109532D01*
X101317D01*
X101579Y109270D01*
Y108745D01*
X101317Y108483D01*
X101055D01*
X100792Y108745D01*
Y109532D01*
X82091Y111992D02*
X80517D01*
Y111205D01*
X80779Y110942D01*
X81304D01*
X81566Y111205D01*
Y111992D01*
Y111467D02*
X82091Y110942D01*
X81829Y110418D02*
X82091Y110155D01*
Y109631D01*
X81829Y109368D01*
X80779D01*
X80517Y109631D01*
Y110155D01*
X80779Y110418D01*
X81042D01*
X81304Y110155D01*
Y109368D01*
X82091Y108843D02*
Y108319D01*
Y108581D01*
X80517D01*
X80779Y108843D01*
X100201Y72130D02*
X98627D01*
Y71343D01*
X98889Y71080D01*
X99414D01*
X99677Y71343D01*
Y72130D01*
Y71605D02*
X100201Y71080D01*
X99939Y70556D02*
X100201Y70293D01*
Y69768D01*
X99939Y69506D01*
X98889D01*
X98627Y69768D01*
Y70293D01*
X98889Y70556D01*
X99152D01*
X99414Y70293D01*
Y69506D01*
X100201Y68194D02*
X98627D01*
X99414Y68981D01*
Y67932D01*
X88587Y72130D02*
X87013D01*
Y71343D01*
X87275Y71080D01*
X87800D01*
X88062Y71343D01*
Y72130D01*
Y71605D02*
X88587Y71080D01*
X88325Y70556D02*
X88587Y70293D01*
Y69768D01*
X88325Y69506D01*
X87275D01*
X87013Y69768D01*
Y70293D01*
X87275Y70556D01*
X87538D01*
X87800Y70293D01*
Y69506D01*
X87275Y68981D02*
X87013Y68719D01*
Y68194D01*
X87275Y67932D01*
X87538D01*
X87800Y68194D01*
Y68456D01*
Y68194D01*
X88062Y67932D01*
X88325D01*
X88587Y68194D01*
Y68719D01*
X88325Y68981D01*
X110438Y98803D02*
Y100377D01*
X109650D01*
X109388Y100115D01*
Y99590D01*
X109650Y99328D01*
X110438D01*
X109913D02*
X109388Y98803D01*
X108863Y99065D02*
X108601Y98803D01*
X108076D01*
X107814Y99065D01*
Y100115D01*
X108076Y100377D01*
X108601D01*
X108863Y100115D01*
Y99853D01*
X108601Y99590D01*
X107814D01*
X106239Y100377D02*
X107289D01*
Y99590D01*
X106764Y99853D01*
X106502D01*
X106239Y99590D01*
Y99065D01*
X106502Y98803D01*
X107027D01*
X107289Y99065D01*
X109650Y105594D02*
Y107169D01*
X108863D01*
X108601Y106906D01*
Y106381D01*
X108863Y106119D01*
X109650D01*
X109125D02*
X108601Y105594D01*
X108076Y105857D02*
X107813Y105594D01*
X107289D01*
X107026Y105857D01*
Y106906D01*
X107289Y107169D01*
X107813D01*
X108076Y106906D01*
Y106644D01*
X107813Y106381D01*
X107026D01*
X106501Y106906D02*
X106239Y107169D01*
X105714D01*
X105452Y106906D01*
Y105857D01*
X105714Y105594D01*
X106239D01*
X106501Y105857D01*
Y106906D01*
X110930Y90142D02*
Y91716D01*
X110143D01*
X109880Y91453D01*
Y90929D01*
X110143Y90666D01*
X110930D01*
X110405D02*
X109880Y90142D01*
X109355Y90404D02*
X109093Y90142D01*
X108568D01*
X108306Y90404D01*
Y91453D01*
X108568Y91716D01*
X109093D01*
X109355Y91453D01*
Y91191D01*
X109093Y90929D01*
X108306D01*
X107781Y90404D02*
X107519Y90142D01*
X106994D01*
X106731Y90404D01*
Y91453D01*
X106994Y91716D01*
X107519D01*
X107781Y91453D01*
Y91191D01*
X107519Y90929D01*
X106731D01*
X133469Y82366D02*
Y83940D01*
X132682D01*
X132420Y83678D01*
Y83153D01*
X132682Y82891D01*
X133469D01*
X132944D02*
X132420Y82366D01*
X131895Y82628D02*
X131632Y82366D01*
X131108D01*
X130845Y82628D01*
Y83678D01*
X131108Y83940D01*
X131632D01*
X131895Y83678D01*
Y83416D01*
X131632Y83153D01*
X130845D01*
X129271Y82366D02*
X130320D01*
X129271Y83416D01*
Y83678D01*
X129533Y83940D01*
X130058D01*
X130320Y83678D01*
X112406Y83842D02*
Y85417D01*
X111619D01*
X111356Y85154D01*
Y84629D01*
X111619Y84367D01*
X112406D01*
X111881D02*
X111356Y83842D01*
X110832Y85154D02*
X110569Y85417D01*
X110045D01*
X109782Y85154D01*
Y84892D01*
X110045Y84629D01*
X109782Y84367D01*
Y84105D01*
X110045Y83842D01*
X110569D01*
X110832Y84105D01*
Y84367D01*
X110569Y84629D01*
X110832Y84892D01*
Y85154D01*
X110569Y84629D02*
X110045D01*
X109257Y85154D02*
X108995Y85417D01*
X108470D01*
X108208Y85154D01*
Y84892D01*
X108470Y84629D01*
X108208Y84367D01*
Y84105D01*
X108470Y83842D01*
X108995D01*
X109257Y84105D01*
Y84367D01*
X108995Y84629D01*
X109257Y84892D01*
Y85154D01*
X108995Y84629D02*
X108470D01*
X136422Y55299D02*
Y56873D01*
X135635D01*
X135372Y56611D01*
Y56086D01*
X135635Y55824D01*
X136422D01*
X135897D02*
X135372Y55299D01*
X134847Y56611D02*
X134585Y56873D01*
X134060D01*
X133798Y56611D01*
Y56349D01*
X134060Y56086D01*
X133798Y55824D01*
Y55561D01*
X134060Y55299D01*
X134585D01*
X134847Y55561D01*
Y55824D01*
X134585Y56086D01*
X134847Y56349D01*
Y56611D01*
X134585Y56086D02*
X134060D01*
X133273Y55561D02*
X133011Y55299D01*
X132486D01*
X132224Y55561D01*
Y56611D01*
X132486Y56873D01*
X133011D01*
X133273Y56611D01*
Y56349D01*
X133011Y56086D01*
X132224D01*
X129335Y91027D02*
Y92602D01*
X128548D01*
X128286Y92339D01*
Y91815D01*
X128548Y91552D01*
X129335D01*
X128810D02*
X128286Y91027D01*
X127761Y92339D02*
X127498Y92602D01*
X126974D01*
X126711Y92339D01*
Y92077D01*
X126974Y91815D01*
X126711Y91552D01*
Y91290D01*
X126974Y91027D01*
X127498D01*
X127761Y91290D01*
Y91552D01*
X127498Y91815D01*
X127761Y92077D01*
Y92339D01*
X127498Y91815D02*
X126974D01*
X126187Y92602D02*
X125137D01*
Y92339D01*
X126187Y91290D01*
Y91027D01*
X120000Y98263D02*
Y96951D01*
X119738Y96688D01*
X119213D01*
X118950Y96951D01*
Y98263D01*
X117639Y96688D02*
Y98263D01*
X118426Y97476D01*
X117376D01*
X115802Y98263D02*
X116851D01*
Y97476D01*
X116327Y97738D01*
X116064D01*
X115802Y97476D01*
Y96951D01*
X116064Y96688D01*
X116589D01*
X116851Y96951D01*
X129500Y98363D02*
Y97051D01*
X129238Y96789D01*
X128713D01*
X128451Y97051D01*
Y98363D01*
X127139Y96789D02*
Y98363D01*
X127926Y97576D01*
X126876D01*
X126351Y98100D02*
X126089Y98363D01*
X125564D01*
X125302Y98100D01*
Y97051D01*
X125564Y96789D01*
X126089D01*
X126351Y97051D01*
Y98100D01*
X128800Y60063D02*
Y58751D01*
X128538Y58489D01*
X128013D01*
X127751Y58751D01*
Y60063D01*
X127226Y59800D02*
X126963Y60063D01*
X126439D01*
X126176Y59800D01*
Y59538D01*
X126439Y59276D01*
X126701D01*
X126439D01*
X126176Y59013D01*
Y58751D01*
X126439Y58489D01*
X126963D01*
X127226Y58751D01*
X125651D02*
X125389Y58489D01*
X124864D01*
X124602Y58751D01*
Y59800D01*
X124864Y60063D01*
X125389D01*
X125651Y59800D01*
Y59538D01*
X125389Y59276D01*
X124602D01*
X123700Y82563D02*
Y81251D01*
X123438Y80989D01*
X122913D01*
X122651Y81251D01*
Y82563D01*
X121339Y80989D02*
Y82563D01*
X122126Y81776D01*
X121076D01*
X119502Y80989D02*
X120551D01*
X119502Y82038D01*
Y82300D01*
X119764Y82563D01*
X120289D01*
X120551Y82300D01*
X92800Y91063D02*
Y89751D01*
X92538Y89489D01*
X92013D01*
X91751Y89751D01*
Y91063D01*
X90439Y89489D02*
Y91063D01*
X91226Y90276D01*
X90176D01*
X88864Y89489D02*
Y91063D01*
X89651Y90276D01*
X88602D01*
X129000Y70363D02*
Y69051D01*
X128738Y68788D01*
X128213D01*
X127951Y69051D01*
Y70363D01*
X126639Y68788D02*
Y70363D01*
X127426Y69576D01*
X126376D01*
X125851Y70100D02*
X125589Y70363D01*
X125064D01*
X124802Y70100D01*
Y69838D01*
X125064Y69576D01*
X125327D01*
X125064D01*
X124802Y69313D01*
Y69051D01*
X125064Y68788D01*
X125589D01*
X125851Y69051D01*
X123100Y108763D02*
Y107451D01*
X122838Y107188D01*
X122313D01*
X122050Y107451D01*
Y108763D01*
X120739Y107188D02*
Y108763D01*
X121526Y107976D01*
X120476D01*
X119951Y107188D02*
X119427D01*
X119689D01*
Y108763D01*
X119951Y108500D01*
X94854Y71080D02*
X94592Y71343D01*
Y71867D01*
X94854Y72130D01*
X95903D01*
X96166Y71867D01*
Y71343D01*
X95903Y71080D01*
X94854Y70556D02*
X94592Y70293D01*
Y69768D01*
X94854Y69506D01*
X95116D01*
X95379Y69768D01*
X95641Y69506D01*
X95903D01*
X96166Y69768D01*
Y70293D01*
X95903Y70556D01*
X95641D01*
X95379Y70293D01*
X95116Y70556D01*
X94854D01*
X95379Y70293D02*
Y69768D01*
X96166Y68981D02*
Y68456D01*
Y68719D01*
X94592D01*
X94854Y68981D01*
X91015Y71277D02*
X90753Y71539D01*
Y72064D01*
X91015Y72327D01*
X92065D01*
X92327Y72064D01*
Y71539D01*
X92065Y71277D01*
X91015Y70752D02*
X90753Y70490D01*
Y69965D01*
X91015Y69703D01*
X91278D01*
X91540Y69965D01*
X91803Y69703D01*
X92065D01*
X92327Y69965D01*
Y70490D01*
X92065Y70752D01*
X91803D01*
X91540Y70490D01*
X91278Y70752D01*
X91015D01*
X91540Y70490D02*
Y69965D01*
X92327Y68129D02*
Y69178D01*
X91278Y68129D01*
X91015D01*
X90753Y68391D01*
Y68916D01*
X91015Y69178D01*
X92689Y111533D02*
X92426Y111795D01*
Y112320D01*
X92689Y112583D01*
X93738D01*
X94001Y112320D01*
Y111795D01*
X93738Y111533D01*
X92689Y111008D02*
X92426Y110746D01*
Y110221D01*
X92689Y109959D01*
X92951D01*
X93213Y110221D01*
X93476Y109959D01*
X93738D01*
X94001Y110221D01*
Y110746D01*
X93738Y111008D01*
X93476D01*
X93213Y110746D01*
X92951Y111008D01*
X92689D01*
X93213Y110746D02*
Y110221D01*
X94001Y108647D02*
X92426D01*
X93213Y109434D01*
Y108384D01*
X96429Y111631D02*
X96166Y111894D01*
Y112419D01*
X96429Y112681D01*
X97478D01*
X97741Y112419D01*
Y111894D01*
X97478Y111631D01*
X96429Y111107D02*
X96166Y110844D01*
Y110319D01*
X96429Y110057D01*
X96691D01*
X96953Y110319D01*
X97216Y110057D01*
X97478D01*
X97741Y110319D01*
Y110844D01*
X97478Y111107D01*
X97216D01*
X96953Y110844D01*
X96691Y111107D01*
X96429D01*
X96953Y110844D02*
Y110319D01*
X96429Y109532D02*
X96166Y109270D01*
Y108745D01*
X96429Y108483D01*
X96691D01*
X96953Y108745D01*
Y109008D01*
Y108745D01*
X97216Y108483D01*
X97478D01*
X97741Y108745D01*
Y109270D01*
X97478Y109532D01*
X84519Y111828D02*
X84257Y112091D01*
Y112615D01*
X84519Y112878D01*
X85569D01*
X85831Y112615D01*
Y112091D01*
X85569Y111828D01*
X84519Y111303D02*
X84257Y111041D01*
Y110516D01*
X84519Y110254D01*
X84782D01*
X85044Y110516D01*
X85306Y110254D01*
X85569D01*
X85831Y110516D01*
Y111041D01*
X85569Y111303D01*
X85306D01*
X85044Y111041D01*
X84782Y111303D01*
X84519D01*
X85044Y111041D02*
Y110516D01*
X84519Y109729D02*
X84257Y109467D01*
Y108942D01*
X84519Y108680D01*
X85569D01*
X85831Y108942D01*
Y109467D01*
X85569Y109729D01*
X84519D01*
X109191Y111631D02*
X109453Y111893D01*
X109978D01*
X110241Y111631D01*
Y110581D01*
X109978Y110319D01*
X109453D01*
X109191Y110581D01*
X108666Y111893D02*
X107617D01*
Y111631D01*
X108666Y110581D01*
Y110319D01*
X107092Y110581D02*
X106830Y110319D01*
X106305D01*
X106043Y110581D01*
Y111631D01*
X106305Y111893D01*
X106830D01*
X107092Y111631D01*
Y111368D01*
X106830Y111106D01*
X106043D01*
X104172Y82694D02*
X104434Y82956D01*
X104959D01*
X105221Y82694D01*
Y81644D01*
X104959Y81382D01*
X104434D01*
X104172Y81644D01*
X103647Y82956D02*
X102597D01*
Y82694D01*
X103647Y81644D01*
Y81382D01*
X102072Y82694D02*
X101810Y82956D01*
X101285D01*
X101023Y82694D01*
Y82431D01*
X101285Y82169D01*
X101023Y81906D01*
Y81644D01*
X101285Y81382D01*
X101810D01*
X102072Y81644D01*
Y81906D01*
X101810Y82169D01*
X102072Y82431D01*
Y82694D01*
X101810Y82169D02*
X101285D01*
X83075Y158055D02*
Y159629D01*
X82288D01*
X82026Y159367D01*
Y158842D01*
X82288Y158580D01*
X83075D01*
X82551D02*
X82026Y158055D01*
X81501Y159367D02*
X81239Y159629D01*
X80714D01*
X80452Y159367D01*
Y159105D01*
X80714Y158842D01*
X80452Y158580D01*
Y158317D01*
X80714Y158055D01*
X81239D01*
X81501Y158317D01*
Y158580D01*
X81239Y158842D01*
X81501Y159105D01*
Y159367D01*
X81239Y158842D02*
X80714D01*
X78877Y158055D02*
X79927D01*
X78877Y159105D01*
Y159367D01*
X79140Y159629D01*
X79664D01*
X79927Y159367D01*
X90064Y181775D02*
X88489D01*
Y180988D01*
X88752Y180726D01*
X89276D01*
X89539Y180988D01*
Y181775D01*
Y181251D02*
X90064Y180726D01*
X88752Y180201D02*
X88489Y179939D01*
Y179414D01*
X88752Y179152D01*
X89014D01*
X89276Y179414D01*
X89539Y179152D01*
X89801D01*
X90064Y179414D01*
Y179939D01*
X89801Y180201D01*
X89539D01*
X89276Y179939D01*
X89014Y180201D01*
X88752D01*
X89276Y179939D02*
Y179414D01*
X88752Y178627D02*
X88489Y178365D01*
Y177840D01*
X88752Y177577D01*
X89014D01*
X89276Y177840D01*
Y178102D01*
Y177840D01*
X89539Y177577D01*
X89801D01*
X90064Y177840D01*
Y178365D01*
X89801Y178627D01*
X101776Y181382D02*
X100202D01*
Y180595D01*
X100464Y180332D01*
X100989D01*
X101251Y180595D01*
Y181382D01*
Y180857D02*
X101776Y180332D01*
X100464Y179807D02*
X100202Y179545D01*
Y179020D01*
X100464Y178758D01*
X100727D01*
X100989Y179020D01*
X101251Y178758D01*
X101514D01*
X101776Y179020D01*
Y179545D01*
X101514Y179807D01*
X101251D01*
X100989Y179545D01*
X100727Y179807D01*
X100464D01*
X100989Y179545D02*
Y179020D01*
X101776Y178233D02*
Y177708D01*
Y177971D01*
X100202D01*
X100464Y178233D01*
X82091Y181972D02*
X80517D01*
Y181185D01*
X80779Y180923D01*
X81304D01*
X81566Y181185D01*
Y181972D01*
Y181448D02*
X82091Y180923D01*
X80517Y180398D02*
Y179349D01*
X80779D01*
X81829Y180398D01*
X82091D01*
X80517Y177774D02*
X80779Y178299D01*
X81304Y178824D01*
X81829D01*
X82091Y178561D01*
Y178036D01*
X81829Y177774D01*
X81566D01*
X81304Y178036D01*
Y178824D01*
X100004Y148114D02*
X98430D01*
Y147327D01*
X98693Y147064D01*
X99217D01*
X99480Y147327D01*
Y148114D01*
Y147589D02*
X100004Y147064D01*
X98430Y146540D02*
Y145490D01*
X98693D01*
X99742Y146540D01*
X100004D01*
X99742Y144965D02*
X100004Y144703D01*
Y144178D01*
X99742Y143916D01*
X98693D01*
X98430Y144178D01*
Y144703D01*
X98693Y144965D01*
X98955D01*
X99217Y144703D01*
Y143916D01*
X88587Y148114D02*
X87013D01*
Y147327D01*
X87275Y147064D01*
X87800D01*
X88062Y147327D01*
Y148114D01*
Y147589D02*
X88587Y147064D01*
X87013Y146540D02*
Y145490D01*
X87275D01*
X88325Y146540D01*
X88587D01*
X87275Y144965D02*
X87013Y144703D01*
Y144178D01*
X87275Y143916D01*
X87538D01*
X87800Y144178D01*
X88062Y143916D01*
X88325D01*
X88587Y144178D01*
Y144703D01*
X88325Y144965D01*
X88062D01*
X87800Y144703D01*
X87538Y144965D01*
X87275D01*
X87800Y144703D02*
Y144178D01*
X108666Y163173D02*
Y164747D01*
X107879D01*
X107616Y164485D01*
Y163960D01*
X107879Y163698D01*
X108666D01*
X108141D02*
X107616Y163173D01*
X107092Y164485D02*
X106829Y164747D01*
X106304D01*
X106042Y164485D01*
Y164223D01*
X106304Y163960D01*
X106042Y163698D01*
Y163435D01*
X106304Y163173D01*
X106829D01*
X107092Y163435D01*
Y163698D01*
X106829Y163960D01*
X107092Y164223D01*
Y164485D01*
X106829Y163960D02*
X106304D01*
X105517Y164485D02*
X105255Y164747D01*
X104730D01*
X104468Y164485D01*
Y163435D01*
X104730Y163173D01*
X105255D01*
X105517Y163435D01*
Y164485D01*
X110438Y167799D02*
Y169373D01*
X109650D01*
X109388Y169111D01*
Y168586D01*
X109650Y168324D01*
X110438D01*
X109913D02*
X109388Y167799D01*
X108863Y169373D02*
X107814D01*
Y169111D01*
X108863Y168061D01*
Y167799D01*
X106239Y169373D02*
X107289D01*
Y168586D01*
X106764Y168849D01*
X106502D01*
X106239Y168586D01*
Y168061D01*
X106502Y167799D01*
X107027D01*
X107289Y168061D01*
X108371Y157366D02*
Y158940D01*
X107583D01*
X107321Y158678D01*
Y158153D01*
X107583Y157891D01*
X108371D01*
X107846D02*
X107321Y157366D01*
X106796Y158678D02*
X106534Y158940D01*
X106009D01*
X105747Y158678D01*
Y158415D01*
X106009Y158153D01*
X105747Y157891D01*
Y157628D01*
X106009Y157366D01*
X106534D01*
X106796Y157628D01*
Y157891D01*
X106534Y158153D01*
X106796Y158415D01*
Y158678D01*
X106534Y158153D02*
X106009D01*
X104435Y157366D02*
Y158940D01*
X105222Y158153D01*
X104173D01*
X137012Y145555D02*
Y147129D01*
X136225D01*
X135963Y146867D01*
Y146342D01*
X136225Y146080D01*
X137012D01*
X136488D02*
X135963Y145555D01*
X135438Y147129D02*
X134388D01*
Y146867D01*
X135438Y145817D01*
Y145555D01*
X133864Y147129D02*
X132814D01*
Y146867D01*
X133864Y145817D01*
Y145555D01*
X112997Y151362D02*
Y152936D01*
X112209D01*
X111947Y152674D01*
Y152149D01*
X112209Y151887D01*
X112997D01*
X112472D02*
X111947Y151362D01*
X111422Y152936D02*
X110373D01*
Y152674D01*
X111422Y151624D01*
Y151362D01*
X109848Y152674D02*
X109586Y152936D01*
X109061D01*
X108799Y152674D01*
Y152412D01*
X109061Y152149D01*
X109323D01*
X109061D01*
X108799Y151887D01*
Y151624D01*
X109061Y151362D01*
X109586D01*
X109848Y151624D01*
X122052Y132858D02*
Y134432D01*
X121265D01*
X121002Y134170D01*
Y133645D01*
X121265Y133383D01*
X122052D01*
X121527D02*
X121002Y132858D01*
X120477Y134432D02*
X119428D01*
Y134170D01*
X120477Y133121D01*
Y132858D01*
X118116D02*
Y134432D01*
X118903Y133645D01*
X117854D01*
X124611Y155496D02*
Y157070D01*
X123824D01*
X123561Y156808D01*
Y156283D01*
X123824Y156021D01*
X124611D01*
X124086D02*
X123561Y155496D01*
X123036Y157070D02*
X121987D01*
Y156808D01*
X123036Y155758D01*
Y155496D01*
X120413D02*
X121462D01*
X120413Y156545D01*
Y156808D01*
X120675Y157070D01*
X121200D01*
X121462Y156808D01*
X87406Y116519D02*
Y118094D01*
X86619D01*
X86357Y117831D01*
Y117307D01*
X86619Y117044D01*
X87406D01*
X86881D02*
X86357Y116519D01*
X85832Y118094D02*
X84782D01*
Y117831D01*
X85832Y116782D01*
Y116519D01*
X84257D02*
X83733D01*
X83995D01*
Y118094D01*
X84257Y117831D01*
X107780Y131382D02*
Y132956D01*
X106993D01*
X106730Y132694D01*
Y132169D01*
X106993Y131906D01*
X107780D01*
X107255D02*
X106730Y131382D01*
X106206Y132956D02*
X105156D01*
Y132694D01*
X106206Y131644D01*
Y131382D01*
X104631Y132694D02*
X104369Y132956D01*
X103844D01*
X103582Y132694D01*
Y131644D01*
X103844Y131382D01*
X104369D01*
X104631Y131644D01*
Y132694D01*
X119900Y164963D02*
Y163651D01*
X119638Y163388D01*
X119113D01*
X118851Y163651D01*
Y164963D01*
X118326Y164700D02*
X118063Y164963D01*
X117539D01*
X117276Y164700D01*
Y164438D01*
X117539Y164176D01*
X117801D01*
X117539D01*
X117276Y163913D01*
Y163651D01*
X117539Y163388D01*
X118063D01*
X118326Y163651D01*
X116751Y164963D02*
X115702D01*
Y164700D01*
X116751Y163651D01*
Y163388D01*
X129500Y164963D02*
Y163651D01*
X129238Y163388D01*
X128713D01*
X128451Y163651D01*
Y164963D01*
X127926Y164700D02*
X127663Y164963D01*
X127139D01*
X126876Y164700D01*
Y164438D01*
X127139Y164176D01*
X127401D01*
X127139D01*
X126876Y163913D01*
Y163651D01*
X127139Y163388D01*
X127663D01*
X127926Y163651D01*
X125302Y163388D02*
X126351D01*
X125302Y164438D01*
Y164700D01*
X125564Y164963D01*
X126089D01*
X126351Y164700D01*
X115500Y137763D02*
Y136451D01*
X115238Y136188D01*
X114713D01*
X114451Y136451D01*
Y137763D01*
X113926Y137500D02*
X113663Y137763D01*
X113139D01*
X112876Y137500D01*
Y137238D01*
X113139Y136976D01*
X113401D01*
X113139D01*
X112876Y136713D01*
Y136451D01*
X113139Y136188D01*
X113663D01*
X113926Y136451D01*
X112351Y136188D02*
X111827D01*
X112089D01*
Y137763D01*
X112351Y137500D01*
X97400Y129863D02*
Y128551D01*
X97138Y128288D01*
X96613D01*
X96351Y128551D01*
Y129863D01*
X95826Y129600D02*
X95563Y129863D01*
X95039D01*
X94776Y129600D01*
Y129338D01*
X95039Y129076D01*
X95301D01*
X95039D01*
X94776Y128813D01*
Y128551D01*
X95039Y128288D01*
X95563D01*
X95826Y128551D01*
X94251Y129600D02*
X93989Y129863D01*
X93464D01*
X93202Y129600D01*
Y128551D01*
X93464Y128288D01*
X93989D01*
X94251Y128551D01*
Y129600D01*
X123700Y149263D02*
Y147951D01*
X123438Y147688D01*
X122913D01*
X122651Y147951D01*
Y149263D01*
X122126Y149000D02*
X121863Y149263D01*
X121339D01*
X121076Y149000D01*
Y148738D01*
X121339Y148476D01*
X121601D01*
X121339D01*
X121076Y148213D01*
Y147951D01*
X121339Y147688D01*
X121863D01*
X122126Y147951D01*
X119764Y147688D02*
Y149263D01*
X120551Y148476D01*
X119502D01*
X92800Y160363D02*
Y159051D01*
X92538Y158788D01*
X92013D01*
X91751Y159051D01*
Y160363D01*
X91226Y160100D02*
X90963Y160363D01*
X90439D01*
X90176Y160100D01*
Y159838D01*
X90439Y159576D01*
X90701D01*
X90439D01*
X90176Y159313D01*
Y159051D01*
X90439Y158788D01*
X90963D01*
X91226Y159051D01*
X88602Y160363D02*
X89127Y160100D01*
X89651Y159576D01*
Y159051D01*
X89389Y158788D01*
X88864D01*
X88602Y159051D01*
Y159313D01*
X88864Y159576D01*
X89651D01*
X128646Y138369D02*
Y137057D01*
X128384Y136795D01*
X127859D01*
X127597Y137057D01*
Y138369D01*
X127072Y138107D02*
X126810Y138369D01*
X126285D01*
X126022Y138107D01*
Y137845D01*
X126285Y137582D01*
X126547D01*
X126285D01*
X126022Y137320D01*
Y137057D01*
X126285Y136795D01*
X126810D01*
X127072Y137057D01*
X124448Y138369D02*
X125498D01*
Y137582D01*
X124973Y137845D01*
X124710D01*
X124448Y137582D01*
Y137057D01*
X124710Y136795D01*
X125235D01*
X125498Y137057D01*
X122100Y179163D02*
Y177851D01*
X121838Y177588D01*
X121313D01*
X121051Y177851D01*
Y179163D01*
X120526Y178900D02*
X120263Y179163D01*
X119739D01*
X119476Y178900D01*
Y178638D01*
X119739Y178376D01*
X120001D01*
X119739D01*
X119476Y178113D01*
Y177851D01*
X119739Y177588D01*
X120263D01*
X120526Y177851D01*
X118951Y178900D02*
X118689Y179163D01*
X118164D01*
X117902Y178900D01*
Y178638D01*
X118164Y178376D01*
X118427D01*
X118164D01*
X117902Y178113D01*
Y177851D01*
X118164Y177588D01*
X118689D01*
X118951Y177851D01*
X94854Y147064D02*
X94592Y147327D01*
Y147852D01*
X94854Y148114D01*
X95903D01*
X96166Y147852D01*
Y147327D01*
X95903Y147064D01*
X94592Y146540D02*
Y145490D01*
X94854D01*
X95903Y146540D01*
X96166D01*
X94854Y144965D02*
X94592Y144703D01*
Y144178D01*
X94854Y143916D01*
X95116D01*
X95379Y144178D01*
Y144441D01*
Y144178D01*
X95641Y143916D01*
X95903D01*
X96166Y144178D01*
Y144703D01*
X95903Y144965D01*
X91114Y147064D02*
X90851Y147327D01*
Y147852D01*
X91114Y148114D01*
X92163D01*
X92426Y147852D01*
Y147327D01*
X92163Y147064D01*
X90851Y146540D02*
Y145490D01*
X91114D01*
X92163Y146540D01*
X92426D01*
Y144178D02*
X90851D01*
X91638Y144965D01*
Y143916D01*
X92590Y180923D02*
X92328Y181185D01*
Y181710D01*
X92590Y181972D01*
X93640D01*
X93902Y181710D01*
Y181185D01*
X93640Y180923D01*
X92328Y180398D02*
Y179349D01*
X92590D01*
X93640Y180398D01*
X93902D01*
X92328Y177774D02*
X92590Y178299D01*
X93115Y178824D01*
X93640D01*
X93902Y178561D01*
Y178036D01*
X93640Y177774D01*
X93377D01*
X93115Y178036D01*
Y178824D01*
X96330Y180923D02*
X96068Y181185D01*
Y181710D01*
X96330Y181972D01*
X97380D01*
X97642Y181710D01*
Y181185D01*
X97380Y180923D01*
X96068Y180398D02*
Y179349D01*
X96330D01*
X97380Y180398D01*
X97642D01*
X96068Y177774D02*
Y178824D01*
X96855D01*
X96593Y178299D01*
Y178036D01*
X96855Y177774D01*
X97380D01*
X97642Y178036D01*
Y178561D01*
X97380Y178824D01*
X84618Y180923D02*
X84355Y181185D01*
Y181710D01*
X84618Y181972D01*
X85667D01*
X85930Y181710D01*
Y181185D01*
X85667Y180923D01*
X84355Y180398D02*
Y179349D01*
X84618D01*
X85667Y180398D01*
X85930D01*
Y177774D02*
Y178824D01*
X84880Y177774D01*
X84618D01*
X84355Y178036D01*
Y178561D01*
X84618Y178824D01*
X110077Y177280D02*
X110339Y177543D01*
X110864D01*
X111126Y177280D01*
Y176231D01*
X110864Y175968D01*
X110339D01*
X110077Y176231D01*
X109552Y177543D02*
X108503D01*
Y177280D01*
X109552Y176231D01*
Y175968D01*
X107978D02*
X107453D01*
X107715D01*
Y177543D01*
X107978Y177280D01*
X102925Y148541D02*
X102662Y148803D01*
Y149328D01*
X102925Y149590D01*
X103974D01*
X104237Y149328D01*
Y148803D01*
X103974Y148541D01*
X102662Y148016D02*
Y146967D01*
X102925D01*
X103974Y148016D01*
X104237D01*
X102925Y146442D02*
X102662Y146179D01*
Y145655D01*
X102925Y145392D01*
X103974D01*
X104237Y145655D01*
Y146179D01*
X103974Y146442D01*
X102925D01*
X85766Y135351D02*
X86028Y135614D01*
X86553D01*
X86816Y135351D01*
Y134302D01*
X86553Y134039D01*
X86028D01*
X85766Y134302D01*
X84192Y135614D02*
X84716Y135351D01*
X85241Y134826D01*
Y134302D01*
X84979Y134039D01*
X84454D01*
X84192Y134302D01*
Y134564D01*
X84454Y134826D01*
X85241D01*
X83667Y134302D02*
X83404Y134039D01*
X82880D01*
X82617Y134302D01*
Y135351D01*
X82880Y135614D01*
X83404D01*
X83667Y135351D01*
Y135089D01*
X83404Y134826D01*
X82617D01*
X83174Y227543D02*
Y229117D01*
X82387D01*
X82124Y228855D01*
Y228330D01*
X82387Y228068D01*
X83174D01*
X82649D02*
X82124Y227543D01*
X80550Y229117D02*
X81075Y228855D01*
X81599Y228330D01*
Y227805D01*
X81337Y227543D01*
X80812D01*
X80550Y227805D01*
Y228068D01*
X80812Y228330D01*
X81599D01*
X80025Y229117D02*
X78976D01*
Y228855D01*
X80025Y227805D01*
Y227543D01*
X90162Y242110D02*
X88588D01*
Y241323D01*
X88850Y241060D01*
X89375D01*
X89637Y241323D01*
Y242110D01*
Y241585D02*
X90162Y241060D01*
X88588Y239486D02*
X88850Y240011D01*
X89375Y240536D01*
X89899D01*
X90162Y240273D01*
Y239749D01*
X89899Y239486D01*
X89637D01*
X89375Y239749D01*
Y240536D01*
X88850Y238962D02*
X88588Y238699D01*
Y238174D01*
X88850Y237912D01*
X89112D01*
X89375Y238174D01*
X89637Y237912D01*
X89899D01*
X90162Y238174D01*
Y238699D01*
X89899Y238962D01*
X89637D01*
X89375Y238699D01*
X89112Y238962D01*
X88850D01*
X89375Y238699D02*
Y238174D01*
X97938Y242110D02*
X96363D01*
Y241323D01*
X96626Y241060D01*
X97150D01*
X97413Y241323D01*
Y242110D01*
Y241585D02*
X97938Y241060D01*
X96363Y239486D02*
X96626Y240011D01*
X97150Y240536D01*
X97675D01*
X97938Y240273D01*
Y239749D01*
X97675Y239486D01*
X97413D01*
X97150Y239749D01*
Y240536D01*
X96363Y237912D02*
Y238962D01*
X97150D01*
X96888Y238437D01*
Y238174D01*
X97150Y237912D01*
X97675D01*
X97938Y238174D01*
Y238699D01*
X97675Y238962D01*
X82485Y247130D02*
Y248704D01*
X81698D01*
X81435Y248442D01*
Y247917D01*
X81698Y247655D01*
X82485D01*
X81960D02*
X81435Y247130D01*
X79861Y248704D02*
X80910D01*
Y247917D01*
X80386Y248179D01*
X80123D01*
X79861Y247917D01*
Y247392D01*
X80123Y247130D01*
X80648D01*
X80910Y247392D01*
X79336D02*
X79074Y247130D01*
X78549D01*
X78287Y247392D01*
Y248442D01*
X78549Y248704D01*
X79074D01*
X79336Y248442D01*
Y248179D01*
X79074Y247917D01*
X78287D01*
X100103Y217405D02*
X98529D01*
Y216618D01*
X98791Y216356D01*
X99316D01*
X99578Y216618D01*
Y217405D01*
Y216881D02*
X100103Y216356D01*
X98529Y214781D02*
X98791Y215306D01*
X99316Y215831D01*
X99840D01*
X100103Y215569D01*
Y215044D01*
X99840Y214781D01*
X99578D01*
X99316Y215044D01*
Y215831D01*
X100103Y213207D02*
Y214257D01*
X99053Y213207D01*
X98791D01*
X98529Y213470D01*
Y213994D01*
X98791Y214257D01*
X88292Y217012D02*
X86718D01*
Y216225D01*
X86980Y215962D01*
X87505D01*
X87767Y216225D01*
Y217012D01*
Y216487D02*
X88292Y215962D01*
X86718Y214388D02*
X86980Y214913D01*
X87505Y215437D01*
X88029D01*
X88292Y215175D01*
Y214650D01*
X88029Y214388D01*
X87767D01*
X87505Y214650D01*
Y215437D01*
X88292Y213863D02*
Y213338D01*
Y213601D01*
X86718D01*
X86980Y213863D01*
X108567Y225279D02*
Y226854D01*
X107780D01*
X107518Y226591D01*
Y226066D01*
X107780Y225804D01*
X108567D01*
X108043D02*
X107518Y225279D01*
X105944Y226854D02*
X106468Y226591D01*
X106993Y226066D01*
Y225542D01*
X106731Y225279D01*
X106206D01*
X105944Y225542D01*
Y225804D01*
X106206Y226066D01*
X106993D01*
X105419Y226591D02*
X105157Y226854D01*
X104632D01*
X104369Y226591D01*
Y226329D01*
X104632Y226066D01*
X104894D01*
X104632D01*
X104369Y225804D01*
Y225542D01*
X104632Y225279D01*
X105157D01*
X105419Y225542D01*
X106796Y232464D02*
Y234039D01*
X106009D01*
X105746Y233776D01*
Y233252D01*
X106009Y232989D01*
X106796D01*
X106271D02*
X105746Y232464D01*
X104172Y234039D02*
X105221D01*
Y233252D01*
X104697Y233514D01*
X104434D01*
X104172Y233252D01*
Y232727D01*
X104434Y232464D01*
X104959D01*
X105221Y232727D01*
X103647Y233776D02*
X103385Y234039D01*
X102860D01*
X102598Y233776D01*
Y233514D01*
X102860Y233252D01*
X102598Y232989D01*
Y232727D01*
X102860Y232464D01*
X103385D01*
X103647Y232727D01*
Y232989D01*
X103385Y233252D01*
X103647Y233514D01*
Y233776D01*
X103385Y233252D02*
X102860D01*
X108863Y219964D02*
Y221539D01*
X108076D01*
X107813Y221276D01*
Y220752D01*
X108076Y220489D01*
X108863D01*
X108338D02*
X107813Y219964D01*
X106239Y221539D02*
X106764Y221276D01*
X107288Y220752D01*
Y220227D01*
X107026Y219964D01*
X106501D01*
X106239Y220227D01*
Y220489D01*
X106501Y220752D01*
X107288D01*
X105714Y220227D02*
X105452Y219964D01*
X104927D01*
X104665Y220227D01*
Y221276D01*
X104927Y221539D01*
X105452D01*
X105714Y221276D01*
Y221014D01*
X105452Y220752D01*
X104665D01*
X124906Y189157D02*
Y190732D01*
X124119D01*
X123856Y190469D01*
Y189945D01*
X124119Y189682D01*
X124906D01*
X124381D02*
X123856Y189157D01*
X122282Y190732D02*
X122807Y190469D01*
X123332Y189945D01*
Y189420D01*
X123069Y189157D01*
X122545D01*
X122282Y189420D01*
Y189682D01*
X122545Y189945D01*
X123332D01*
X120708Y190732D02*
X121233Y190469D01*
X121757Y189945D01*
Y189420D01*
X121495Y189157D01*
X120970D01*
X120708Y189420D01*
Y189682D01*
X120970Y189945D01*
X121757D01*
X134158Y184039D02*
Y185614D01*
X133371D01*
X133108Y185351D01*
Y184826D01*
X133371Y184564D01*
X134158D01*
X133633D02*
X133108Y184039D01*
X131534Y185614D02*
X132059Y185351D01*
X132584Y184826D01*
Y184302D01*
X132321Y184039D01*
X131797D01*
X131534Y184302D01*
Y184564D01*
X131797Y184826D01*
X132584D01*
X130222Y184039D02*
Y185614D01*
X131009Y184826D01*
X129960D01*
X137012Y207957D02*
Y209531D01*
X136225D01*
X135963Y209268D01*
Y208744D01*
X136225Y208481D01*
X137012D01*
X136488D02*
X135963Y207957D01*
X134388Y209531D02*
X134913Y209268D01*
X135438Y208744D01*
Y208219D01*
X135176Y207957D01*
X134651D01*
X134388Y208219D01*
Y208481D01*
X134651Y208744D01*
X135438D01*
X133864Y209268D02*
X133601Y209531D01*
X133077D01*
X132814Y209268D01*
Y208219D01*
X133077Y207957D01*
X133601D01*
X133864Y208219D01*
Y209268D01*
X112898Y206972D02*
Y208547D01*
X112111D01*
X111849Y208284D01*
Y207759D01*
X112111Y207497D01*
X112898D01*
X112373D02*
X111849Y206972D01*
X110274Y208547D02*
X111324D01*
Y207759D01*
X110799Y208022D01*
X110537D01*
X110274Y207759D01*
Y207235D01*
X110537Y206972D01*
X111062D01*
X111324Y207235D01*
X108700Y208547D02*
X109225Y208284D01*
X109750Y207759D01*
Y207235D01*
X109487Y206972D01*
X108962D01*
X108700Y207235D01*
Y207497D01*
X108962Y207759D01*
X109750D01*
X116934Y191323D02*
Y192897D01*
X116146D01*
X115884Y192635D01*
Y192110D01*
X116146Y191847D01*
X116934D01*
X116409D02*
X115884Y191323D01*
X114310Y192897D02*
X115359D01*
Y192110D01*
X114834Y192372D01*
X114572D01*
X114310Y192110D01*
Y191585D01*
X114572Y191323D01*
X115097D01*
X115359Y191585D01*
X113785Y192897D02*
X112735D01*
Y192635D01*
X113785Y191585D01*
Y191323D01*
X129729Y220161D02*
Y221736D01*
X128942D01*
X128679Y221473D01*
Y220948D01*
X128942Y220686D01*
X129729D01*
X129204D02*
X128679Y220161D01*
X127105Y221736D02*
X128155D01*
Y220948D01*
X127630Y221211D01*
X127367D01*
X127105Y220948D01*
Y220424D01*
X127367Y220161D01*
X127892D01*
X128155Y220424D01*
X125531Y221736D02*
X126580D01*
Y220948D01*
X126056Y221211D01*
X125793D01*
X125531Y220948D01*
Y220424D01*
X125793Y220161D01*
X126318D01*
X126580Y220424D01*
X96461Y186697D02*
Y188271D01*
X95674D01*
X95412Y188009D01*
Y187484D01*
X95674Y187221D01*
X96461D01*
X95936D02*
X95412Y186697D01*
X93837Y188271D02*
X94887D01*
Y187484D01*
X94362Y187746D01*
X94100D01*
X93837Y187484D01*
Y186959D01*
X94100Y186697D01*
X94625D01*
X94887Y186959D01*
X92525Y186697D02*
Y188271D01*
X93313Y187484D01*
X92263D01*
X110339Y197425D02*
Y198999D01*
X109552D01*
X109290Y198737D01*
Y198212D01*
X109552Y197950D01*
X110339D01*
X109814D02*
X109290Y197425D01*
X107715Y198999D02*
X108765D01*
Y198212D01*
X108240Y198475D01*
X107978D01*
X107715Y198212D01*
Y197687D01*
X107978Y197425D01*
X108502D01*
X108765Y197687D01*
X107191Y198737D02*
X106928Y198999D01*
X106403D01*
X106141Y198737D01*
Y198475D01*
X106403Y198212D01*
X106666D01*
X106403D01*
X106141Y197950D01*
Y197687D01*
X106403Y197425D01*
X106928D01*
X107191Y197687D01*
X119900Y227363D02*
Y226051D01*
X119638Y225788D01*
X119113D01*
X118851Y226051D01*
Y227363D01*
X117276Y225788D02*
X118326D01*
X117276Y226838D01*
Y227100D01*
X117539Y227363D01*
X118063D01*
X118326Y227100D01*
X116751Y226051D02*
X116489Y225788D01*
X115964D01*
X115702Y226051D01*
Y227100D01*
X115964Y227363D01*
X116489D01*
X116751Y227100D01*
Y226838D01*
X116489Y226576D01*
X115702D01*
X129500Y227363D02*
Y226051D01*
X129238Y225788D01*
X128713D01*
X128451Y226051D01*
Y227363D01*
X126876Y225788D02*
X127926D01*
X126876Y226838D01*
Y227100D01*
X127139Y227363D01*
X127663D01*
X127926Y227100D01*
X125564Y225788D02*
Y227363D01*
X126351Y226576D01*
X125302D01*
X109600Y189663D02*
Y188351D01*
X109338Y188088D01*
X108813D01*
X108551Y188351D01*
Y189663D01*
X106976Y188088D02*
X108026D01*
X106976Y189138D01*
Y189400D01*
X107239Y189663D01*
X107763D01*
X108026Y189400D01*
X106451D02*
X106189Y189663D01*
X105664D01*
X105402Y189400D01*
Y189138D01*
X105664Y188876D01*
X105927D01*
X105664D01*
X105402Y188613D01*
Y188351D01*
X105664Y188088D01*
X106189D01*
X106451Y188351D01*
X97400Y199063D02*
Y197751D01*
X97138Y197488D01*
X96613D01*
X96351Y197751D01*
Y199063D01*
X94776Y197488D02*
X95826D01*
X94776Y198538D01*
Y198800D01*
X95039Y199063D01*
X95563D01*
X95826Y198800D01*
X93202Y197488D02*
X94251D01*
X93202Y198538D01*
Y198800D01*
X93464Y199063D01*
X93989D01*
X94251Y198800D01*
X123700Y211663D02*
Y210351D01*
X123438Y210088D01*
X122913D01*
X122651Y210351D01*
Y211663D01*
X121076Y210088D02*
X122126D01*
X121076Y211138D01*
Y211400D01*
X121339Y211663D01*
X121863D01*
X122126Y211400D01*
X119502Y211663D02*
X120027Y211400D01*
X120551Y210876D01*
Y210351D01*
X120289Y210088D01*
X119764D01*
X119502Y210351D01*
Y210613D01*
X119764Y210876D01*
X120551D01*
X92800Y229563D02*
Y228251D01*
X92538Y227989D01*
X92013D01*
X91751Y228251D01*
Y229563D01*
X90176Y227989D02*
X91226D01*
X90176Y229038D01*
Y229300D01*
X90439Y229563D01*
X90963D01*
X91226Y229300D01*
X89651D02*
X89389Y229563D01*
X88864D01*
X88602Y229300D01*
Y229038D01*
X88864Y228776D01*
X88602Y228513D01*
Y228251D01*
X88864Y227989D01*
X89389D01*
X89651Y228251D01*
Y228513D01*
X89389Y228776D01*
X89651Y229038D01*
Y229300D01*
X89389Y228776D02*
X88864D01*
X128000Y199463D02*
Y198151D01*
X127738Y197888D01*
X127213D01*
X126951Y198151D01*
Y199463D01*
X125376Y197888D02*
X126426D01*
X125376Y198938D01*
Y199200D01*
X125639Y199463D01*
X126163D01*
X126426Y199200D01*
X124851Y199463D02*
X123802D01*
Y199200D01*
X124851Y198151D01*
Y197888D01*
X122100Y241563D02*
Y240251D01*
X121838Y239988D01*
X121313D01*
X121051Y240251D01*
Y241563D01*
X119476Y239988D02*
X120526D01*
X119476Y241038D01*
Y241300D01*
X119739Y241563D01*
X120263D01*
X120526Y241300D01*
X117902Y241563D02*
X118951D01*
Y240776D01*
X118427Y241038D01*
X118164D01*
X117902Y240776D01*
Y240251D01*
X118164Y239988D01*
X118689D01*
X118951Y240251D01*
X94952Y216257D02*
X94690Y216520D01*
Y217044D01*
X94952Y217307D01*
X96002D01*
X96264Y217044D01*
Y216520D01*
X96002Y216257D01*
X94690Y214683D02*
X94952Y215208D01*
X95477Y215733D01*
X96002D01*
X96264Y215470D01*
Y214946D01*
X96002Y214683D01*
X95740D01*
X95477Y214946D01*
Y215733D01*
X96264Y213371D02*
X94690D01*
X95477Y214158D01*
Y213109D01*
X91015Y216454D02*
X90753Y216717D01*
Y217241D01*
X91015Y217504D01*
X92065D01*
X92327Y217241D01*
Y216717D01*
X92065Y216454D01*
X90753Y214880D02*
X91015Y215405D01*
X91540Y215930D01*
X92065D01*
X92327Y215667D01*
Y215142D01*
X92065Y214880D01*
X91803D01*
X91540Y215142D01*
Y215930D01*
X90753Y213306D02*
Y214355D01*
X91540D01*
X91278Y213830D01*
Y213568D01*
X91540Y213306D01*
X92065D01*
X92327Y213568D01*
Y214093D01*
X92065Y214355D01*
X92393Y241159D02*
X92131Y241421D01*
Y241946D01*
X92393Y242209D01*
X93443D01*
X93705Y241946D01*
Y241421D01*
X93443Y241159D01*
X92131Y239585D02*
X92393Y240109D01*
X92918Y240634D01*
X93443D01*
X93705Y240372D01*
Y239847D01*
X93443Y239585D01*
X93181D01*
X92918Y239847D01*
Y240634D01*
X92393Y239060D02*
X92131Y238797D01*
Y238273D01*
X92393Y238010D01*
X92656D01*
X92918Y238273D01*
X93181Y238010D01*
X93443D01*
X93705Y238273D01*
Y238797D01*
X93443Y239060D01*
X93181D01*
X92918Y238797D01*
X92656Y239060D01*
X92393D01*
X92918Y238797D02*
Y238273D01*
X100464Y240667D02*
X100202Y240929D01*
Y241454D01*
X100464Y241716D01*
X101514D01*
X101776Y241454D01*
Y240929D01*
X101514Y240667D01*
X100202Y239092D02*
X100464Y239617D01*
X100989Y240142D01*
X101514D01*
X101776Y239880D01*
Y239355D01*
X101514Y239092D01*
X101251D01*
X100989Y239355D01*
Y240142D01*
X100202Y238568D02*
Y237518D01*
X100464D01*
X101514Y238568D01*
X101776D01*
X84421Y241257D02*
X84158Y241520D01*
Y242044D01*
X84421Y242307D01*
X85470D01*
X85733Y242044D01*
Y241520D01*
X85470Y241257D01*
X84158Y239683D02*
X84421Y240208D01*
X84946Y240733D01*
X85470D01*
X85733Y240470D01*
Y239946D01*
X85470Y239683D01*
X85208D01*
X84946Y239946D01*
Y240733D01*
X84421Y239158D02*
X84158Y238896D01*
Y238371D01*
X84421Y238109D01*
X84683D01*
X84946Y238371D01*
Y238634D01*
Y238371D01*
X85208Y238109D01*
X85470D01*
X85733Y238371D01*
Y238896D01*
X85470Y239158D01*
X134978Y192142D02*
X135241Y192405D01*
X135766D01*
X136028Y192142D01*
Y191093D01*
X135766Y190831D01*
X135241D01*
X134978Y191093D01*
X133404Y192405D02*
X133929Y192142D01*
X134454Y191618D01*
Y191093D01*
X134191Y190831D01*
X133667D01*
X133404Y191093D01*
Y191355D01*
X133667Y191618D01*
X134454D01*
X131830Y192405D02*
X132355Y192142D01*
X132879Y191618D01*
Y191093D01*
X132617Y190831D01*
X132092D01*
X131830Y191093D01*
Y191355D01*
X132092Y191618D01*
X132879D01*
X109388Y246375D02*
X109650Y246637D01*
X110175D01*
X110438Y246375D01*
Y245325D01*
X110175Y245063D01*
X109650D01*
X109388Y245325D01*
X107814Y246637D02*
X108338Y246375D01*
X108863Y245850D01*
Y245325D01*
X108601Y245063D01*
X108076D01*
X107814Y245325D01*
Y245588D01*
X108076Y245850D01*
X108863D01*
X106239Y245063D02*
X107289D01*
X106239Y246112D01*
Y246375D01*
X106502Y246637D01*
X107027D01*
X107289Y246375D01*
X102826Y216848D02*
X102564Y217110D01*
Y217635D01*
X102826Y217898D01*
X103876D01*
X104138Y217635D01*
Y217110D01*
X103876Y216848D01*
X102564Y215274D02*
X102826Y215798D01*
X103351Y216323D01*
X103876D01*
X104138Y216061D01*
Y215536D01*
X103876Y215274D01*
X103613D01*
X103351Y215536D01*
Y216323D01*
X104138Y214749D02*
Y214224D01*
Y214487D01*
X102564D01*
X102826Y214749D01*
X85864Y204150D02*
X86127Y204413D01*
X86651D01*
X86914Y204150D01*
Y203101D01*
X86651Y202838D01*
X86127D01*
X85864Y203101D01*
X84290Y204413D02*
X84815Y204150D01*
X85340Y203626D01*
Y203101D01*
X85077Y202838D01*
X84552D01*
X84290Y203101D01*
Y203363D01*
X84552Y203626D01*
X85340D01*
X83765Y204150D02*
X83503Y204413D01*
X82978D01*
X82716Y204150D01*
Y203101D01*
X82978Y202838D01*
X83503D01*
X83765Y203101D01*
Y204150D01*
X196752Y226132D02*
Y224558D01*
X195965D01*
X195702Y224820D01*
Y225870D01*
X195965Y226132D01*
X196752D01*
X195178Y224558D02*
X194653D01*
X194915D01*
Y226132D01*
X195178Y225870D01*
X193866D02*
X193603Y226132D01*
X193079D01*
X192816Y225870D01*
Y224820D01*
X193079Y224558D01*
X193603D01*
X193866Y224820D01*
Y225870D01*
X164473Y217012D02*
X162899D01*
Y216225D01*
X163161Y215962D01*
X163686D01*
X163948Y216225D01*
Y217012D01*
Y216487D02*
X164473Y215962D01*
X162899Y214388D02*
Y215437D01*
X163686D01*
X163423Y214913D01*
Y214650D01*
X163686Y214388D01*
X164211D01*
X164473Y214650D01*
Y215175D01*
X164211Y215437D01*
X164473Y212813D02*
Y213863D01*
X163423Y212813D01*
X163161D01*
X162899Y213076D01*
Y213601D01*
X163161Y213863D01*
X172445Y217209D02*
X170871D01*
Y216421D01*
X171133Y216159D01*
X171658D01*
X171921Y216421D01*
Y217209D01*
Y216684D02*
X172445Y216159D01*
X170871Y214585D02*
Y215634D01*
X171658D01*
X171396Y215109D01*
Y214847D01*
X171658Y214585D01*
X172183D01*
X172445Y214847D01*
Y215372D01*
X172183Y215634D01*
X172445Y214060D02*
Y213535D01*
Y213797D01*
X170871D01*
X171133Y214060D01*
X175398Y201067D02*
Y202641D01*
X174611D01*
X174349Y202379D01*
Y201854D01*
X174611Y201591D01*
X175398D01*
X174873D02*
X174349Y201067D01*
X172774Y202641D02*
X173824D01*
Y201854D01*
X173299Y202116D01*
X173037D01*
X172774Y201854D01*
Y201329D01*
X173037Y201067D01*
X173562D01*
X173824Y201329D01*
X172250Y202379D02*
X171987Y202641D01*
X171462D01*
X171200Y202379D01*
Y201329D01*
X171462Y201067D01*
X171987D01*
X172250Y201329D01*
Y202379D01*
X195378Y243783D02*
Y245358D01*
X194591D01*
X194329Y245095D01*
Y244570D01*
X194591Y244308D01*
X195378D01*
X194854D02*
X194329Y243783D01*
X193017D02*
Y245358D01*
X193804Y244570D01*
X192755D01*
X192230Y244046D02*
X191967Y243783D01*
X191443D01*
X191180Y244046D01*
Y245095D01*
X191443Y245358D01*
X191967D01*
X192230Y245095D01*
Y244833D01*
X191967Y244570D01*
X191180D01*
X173500Y228963D02*
Y227651D01*
X173238Y227389D01*
X172713D01*
X172450Y227651D01*
Y228963D01*
X170876Y227389D02*
X171926D01*
X170876Y228438D01*
Y228700D01*
X171139Y228963D01*
X171663D01*
X171926Y228700D01*
X170351Y227389D02*
X169827D01*
X170089D01*
Y228963D01*
X170351Y228700D01*
X186300Y228863D02*
Y227551D01*
X186038Y227289D01*
X185513D01*
X185250Y227551D01*
Y228863D01*
X183676Y227289D02*
X184726D01*
X183676Y228338D01*
Y228600D01*
X183939Y228863D01*
X184463D01*
X184726Y228600D01*
X183151D02*
X182889Y228863D01*
X182364D01*
X182102Y228600D01*
Y227551D01*
X182364Y227289D01*
X182889D01*
X183151Y227551D01*
Y228600D01*
X184683Y243619D02*
X184946Y243881D01*
X185470D01*
X185733Y243619D01*
Y242569D01*
X185470Y242307D01*
X184946D01*
X184683Y242569D01*
X183109Y243881D02*
X184159D01*
Y243094D01*
X183634Y243356D01*
X183371D01*
X183109Y243094D01*
Y242569D01*
X183371Y242307D01*
X183896D01*
X184159Y242569D01*
X182584Y243619D02*
X182322Y243881D01*
X181797D01*
X181535Y243619D01*
Y243356D01*
X181797Y243094D01*
X181535Y242832D01*
Y242569D01*
X181797Y242307D01*
X182322D01*
X182584Y242569D01*
Y242832D01*
X182322Y243094D01*
X182584Y243356D01*
Y243619D01*
X182322Y243094D02*
X181797D01*
X175366Y216257D02*
X175103Y216520D01*
Y217044D01*
X175366Y217307D01*
X176415D01*
X176678Y217044D01*
Y216520D01*
X176415Y216257D01*
X175103Y214683D02*
Y215733D01*
X175891D01*
X175628Y215208D01*
Y214946D01*
X175891Y214683D01*
X176415D01*
X176678Y214946D01*
Y215470D01*
X176415Y215733D01*
X175103Y214158D02*
Y213109D01*
X175366D01*
X176415Y214158D01*
X176678D01*
X185250Y212100D02*
X185513Y212363D01*
X186038D01*
X186300Y212100D01*
Y211051D01*
X186038Y210788D01*
X185513D01*
X185250Y211051D01*
X183676Y212363D02*
X184726D01*
Y211576D01*
X184201Y211838D01*
X183939D01*
X183676Y211576D01*
Y211051D01*
X183939Y210788D01*
X184463D01*
X184726Y211051D01*
X182102Y212363D02*
X182627Y212100D01*
X183151Y211576D01*
Y211051D01*
X182889Y210788D01*
X182364D01*
X182102Y211051D01*
Y211313D01*
X182364Y211576D01*
X183151D01*
X193734Y235909D02*
X193996Y236171D01*
X194521D01*
X194783Y235909D01*
Y234859D01*
X194521Y234597D01*
X193996D01*
X193734Y234859D01*
X192160Y236171D02*
X193209D01*
Y235384D01*
X192684Y235647D01*
X192422D01*
X192160Y235384D01*
Y234859D01*
X192422Y234597D01*
X192947D01*
X193209Y234859D01*
X190585Y236171D02*
X191635D01*
Y235384D01*
X191110Y235647D01*
X190848D01*
X190585Y235384D01*
Y234859D01*
X190848Y234597D01*
X191373D01*
X191635Y234859D01*
X172100Y169988D02*
Y171563D01*
X171313D01*
X171051Y171300D01*
Y170776D01*
X171313Y170513D01*
X172100D01*
X171575D02*
X171051Y169988D01*
X169739D02*
Y171563D01*
X170526Y170776D01*
X169476D01*
X168951Y171300D02*
X168689Y171563D01*
X168164D01*
X167902Y171300D01*
Y171038D01*
X168164Y170776D01*
X167902Y170513D01*
Y170251D01*
X168164Y169988D01*
X168689D01*
X168951Y170251D01*
Y170513D01*
X168689Y170776D01*
X168951Y171038D01*
Y171300D01*
X168689Y170776D02*
X168164D01*
X195772Y198311D02*
Y199885D01*
X194985D01*
X194723Y199623D01*
Y199098D01*
X194985Y198836D01*
X195772D01*
X195247D02*
X194723Y198311D01*
X193411D02*
Y199885D01*
X194198Y199098D01*
X193148D01*
X192624Y199885D02*
X191574D01*
Y199623D01*
X192624Y198573D01*
Y198311D01*
X184300Y183963D02*
Y182651D01*
X184038Y182388D01*
X183513D01*
X183250Y182651D01*
Y183963D01*
X182726Y182388D02*
X182201D01*
X182463D01*
Y183963D01*
X182726Y183700D01*
X181414Y182651D02*
X181151Y182388D01*
X180627D01*
X180364Y182651D01*
Y183700D01*
X180627Y183963D01*
X181151D01*
X181414Y183700D01*
Y183438D01*
X181151Y183176D01*
X180364D01*
X180450Y171400D02*
X180713Y171663D01*
X181238D01*
X181500Y171400D01*
Y170351D01*
X181238Y170088D01*
X180713D01*
X180450Y170351D01*
X178876Y171663D02*
X179926D01*
Y170876D01*
X179401Y171138D01*
X179139D01*
X178876Y170876D01*
Y170351D01*
X179139Y170088D01*
X179663D01*
X179926Y170351D01*
X178351Y171400D02*
X178089Y171663D01*
X177564D01*
X177302Y171400D01*
Y171138D01*
X177564Y170876D01*
X177827D01*
X177564D01*
X177302Y170613D01*
Y170351D01*
X177564Y170088D01*
X178089D01*
X178351Y170351D01*
X190781Y191224D02*
X191044Y191486D01*
X191568D01*
X191831Y191224D01*
Y190174D01*
X191568Y189912D01*
X191044D01*
X190781Y190174D01*
X189207Y191486D02*
X190256D01*
Y190699D01*
X189732Y190962D01*
X189469D01*
X189207Y190699D01*
Y190174D01*
X189469Y189912D01*
X189994D01*
X190256Y190174D01*
X187895Y189912D02*
Y191486D01*
X188682Y190699D01*
X187633D01*
X157682Y201461D02*
Y203035D01*
X156895D01*
X156632Y202772D01*
Y202248D01*
X156895Y201985D01*
X157682D01*
X157157D02*
X156632Y201461D01*
X155320D02*
Y203035D01*
X156107Y202248D01*
X155058D01*
X153483Y203035D02*
X154008Y202772D01*
X154533Y202248D01*
Y201723D01*
X154271Y201461D01*
X153746D01*
X153483Y201723D01*
Y201985D01*
X153746Y202248D01*
X154533D01*
X165064Y185122D02*
Y186696D01*
X164276D01*
X164014Y186434D01*
Y185909D01*
X164276Y185647D01*
X165064D01*
X164539D02*
X164014Y185122D01*
X162702D02*
Y186696D01*
X163489Y185909D01*
X162440D01*
X160865Y186696D02*
X161915D01*
Y185909D01*
X161390Y186171D01*
X161128D01*
X160865Y185909D01*
Y185384D01*
X161128Y185122D01*
X161653D01*
X161915Y185384D01*
X151900Y183463D02*
Y182151D01*
X151638Y181888D01*
X151113D01*
X150850Y182151D01*
Y183463D01*
X150326Y181888D02*
X149801D01*
X150063D01*
Y183463D01*
X150326Y183200D01*
X149014D02*
X148751Y183463D01*
X148227D01*
X147964Y183200D01*
Y182938D01*
X148227Y182676D01*
X147964Y182413D01*
Y182151D01*
X148227Y181888D01*
X148751D01*
X149014Y182151D01*
Y182413D01*
X148751Y182676D01*
X149014Y182938D01*
Y183200D01*
X148751Y182676D02*
X148227D01*
X156632Y196867D02*
X156895Y197129D01*
X157419D01*
X157682Y196867D01*
Y195817D01*
X157419Y195555D01*
X156895D01*
X156632Y195817D01*
X155058Y197129D02*
X156107D01*
Y196342D01*
X155583Y196605D01*
X155320D01*
X155058Y196342D01*
Y195817D01*
X155320Y195555D01*
X155845D01*
X156107Y195817D01*
X153483Y195555D02*
X154533D01*
X153483Y196605D01*
Y196867D01*
X153746Y197129D01*
X154271D01*
X154533Y196867D01*
X156534Y192339D02*
X156796Y192602D01*
X157321D01*
X157583Y192339D01*
Y191290D01*
X157321Y191027D01*
X156796D01*
X156534Y191290D01*
X154959Y192602D02*
X156009D01*
Y191814D01*
X155484Y192077D01*
X155222D01*
X154959Y191814D01*
Y191290D01*
X155222Y191027D01*
X155746D01*
X156009Y191290D01*
X154435Y191027D02*
X153910D01*
X154172D01*
Y192602D01*
X154435Y192339D01*
X196363Y137583D02*
Y139157D01*
X195576D01*
X195313Y138894D01*
Y138370D01*
X195576Y138107D01*
X196363D01*
X195838D02*
X195313Y137583D01*
X194001D02*
Y139157D01*
X194788Y138370D01*
X193739D01*
X193214Y138894D02*
X192952Y139157D01*
X192427D01*
X192165Y138894D01*
Y138632D01*
X192427Y138370D01*
X192689D01*
X192427D01*
X192165Y138107D01*
Y137845D01*
X192427Y137583D01*
X192952D01*
X193214Y137845D01*
X194886Y159925D02*
X193312D01*
Y159138D01*
X193574Y158876D01*
X194099D01*
X194362Y159138D01*
Y159925D01*
Y159400D02*
X194886Y158876D01*
Y157564D02*
X193312D01*
X194099Y158351D01*
Y157301D01*
X194886Y156776D02*
Y156252D01*
Y156514D01*
X193312D01*
X193574Y156776D01*
X191048Y160516D02*
X189473D01*
Y159728D01*
X189736Y159466D01*
X190261D01*
X190523Y159728D01*
Y160516D01*
Y159991D02*
X191048Y159466D01*
Y158154D02*
X189473D01*
X190261Y158941D01*
Y157892D01*
X191048Y156317D02*
Y157367D01*
X189998Y156317D01*
X189736D01*
X189473Y156580D01*
Y157105D01*
X189736Y157367D01*
X187603Y160516D02*
X186029D01*
Y159728D01*
X186291Y159466D01*
X186816D01*
X187078Y159728D01*
Y160516D01*
Y159991D02*
X187603Y159466D01*
Y158154D02*
X186029D01*
X186816Y158941D01*
Y157892D01*
X186291Y157367D02*
X186029Y157105D01*
Y156580D01*
X186291Y156317D01*
X187340D01*
X187603Y156580D01*
Y157105D01*
X187340Y157367D01*
X186291D01*
X195500Y163488D02*
Y165063D01*
X194713D01*
X194450Y164800D01*
Y164276D01*
X194713Y164013D01*
X195500D01*
X194975D02*
X194450Y163488D01*
X193926Y164800D02*
X193663Y165063D01*
X193139D01*
X192876Y164800D01*
Y164538D01*
X193139Y164276D01*
X193401D01*
X193139D01*
X192876Y164013D01*
Y163751D01*
X193139Y163488D01*
X193663D01*
X193926Y163751D01*
X192351D02*
X192089Y163488D01*
X191564D01*
X191302Y163751D01*
Y164800D01*
X191564Y165063D01*
X192089D01*
X192351Y164800D01*
Y164538D01*
X192089Y164276D01*
X191302D01*
X186500Y138963D02*
Y137651D01*
X186238Y137388D01*
X185713D01*
X185450Y137651D01*
Y138963D01*
X184926Y137388D02*
X184401D01*
X184663D01*
Y138963D01*
X184926Y138700D01*
X182564Y138963D02*
X183089Y138700D01*
X183614Y138176D01*
Y137651D01*
X183351Y137388D01*
X182827D01*
X182564Y137651D01*
Y137913D01*
X182827Y138176D01*
X183614D01*
X175550Y143000D02*
X175813Y143263D01*
X176338D01*
X176600Y143000D01*
Y141951D01*
X176338Y141688D01*
X175813D01*
X175550Y141951D01*
X174239Y141688D02*
Y143263D01*
X175026Y142476D01*
X173976D01*
X173451Y143000D02*
X173189Y143263D01*
X172664D01*
X172402Y143000D01*
Y142738D01*
X172664Y142476D01*
X172402Y142213D01*
Y141951D01*
X172664Y141688D01*
X173189D01*
X173451Y141951D01*
Y142213D01*
X173189Y142476D01*
X173451Y142738D01*
Y143000D01*
X173189Y142476D02*
X172664D01*
X196101Y143816D02*
X196363Y144078D01*
X196888D01*
X197150Y143816D01*
Y142766D01*
X196888Y142504D01*
X196363D01*
X196101Y142766D01*
X194526Y144078D02*
X195576D01*
Y143291D01*
X195051Y143553D01*
X194789D01*
X194526Y143291D01*
Y142766D01*
X194789Y142504D01*
X195313D01*
X195576Y142766D01*
X194001Y143816D02*
X193739Y144078D01*
X193214D01*
X192952Y143816D01*
Y142766D01*
X193214Y142504D01*
X193739D01*
X194001Y142766D01*
Y143816D01*
X180150Y154600D02*
X180413Y154863D01*
X180938D01*
X181200Y154600D01*
Y153551D01*
X180938Y153288D01*
X180413D01*
X180150Y153551D01*
X178839Y153288D02*
Y154863D01*
X179626Y154076D01*
X178576D01*
X178051Y154863D02*
X177002D01*
Y154600D01*
X178051Y153551D01*
Y153288D01*
X136225Y124000D02*
Y125574D01*
X135438D01*
X135175Y125312D01*
Y124787D01*
X135438Y124525D01*
X136225D01*
X135700D02*
X135175Y124000D01*
X133863D02*
Y125574D01*
X134651Y124787D01*
X133601D01*
X132289Y124000D02*
Y125574D01*
X133076Y124787D01*
X132027D01*
X112997Y121342D02*
Y122917D01*
X112209D01*
X111947Y122654D01*
Y122129D01*
X112209Y121867D01*
X112997D01*
X112472D02*
X111947Y121342D01*
X111422Y122654D02*
X111160Y122917D01*
X110635D01*
X110373Y122654D01*
Y122392D01*
X110635Y122129D01*
X110898D01*
X110635D01*
X110373Y121867D01*
Y121605D01*
X110635Y121342D01*
X111160D01*
X111422Y121605D01*
X109848Y122654D02*
X109586Y122917D01*
X109061D01*
X108799Y122654D01*
Y122392D01*
X109061Y122129D01*
X108799Y121867D01*
Y121605D01*
X109061Y121342D01*
X109586D01*
X109848Y121605D01*
Y121867D01*
X109586Y122129D01*
X109848Y122392D01*
Y122654D01*
X109586Y122129D02*
X109061D01*
X123200Y127063D02*
Y125751D01*
X122938Y125488D01*
X122413D01*
X122151Y125751D01*
Y127063D01*
X121626Y125488D02*
X121101D01*
X121363D01*
Y127063D01*
X121626Y126800D01*
X120314Y127063D02*
X119264D01*
Y126800D01*
X120314Y125751D01*
Y125488D01*
X100250Y119463D02*
X101300D01*
Y118676D01*
X100775D01*
X101300D01*
Y117888D01*
X99726D02*
X99201D01*
X99463D01*
Y119463D01*
X99726Y119200D01*
X119551Y117500D02*
X119813Y117763D01*
X120338D01*
X120600Y117500D01*
Y116451D01*
X120338Y116188D01*
X119813D01*
X119551Y116451D01*
X118239Y116188D02*
Y117763D01*
X119026Y116976D01*
X117976D01*
X117451Y116451D02*
X117189Y116188D01*
X116664D01*
X116402Y116451D01*
Y117500D01*
X116664Y117763D01*
X117189D01*
X117451Y117500D01*
Y117238D01*
X117189Y116976D01*
X116402D01*
X196855Y106382D02*
Y107956D01*
X196068D01*
X195805Y107694D01*
Y107169D01*
X196068Y106906D01*
X196855D01*
X196330D02*
X195805Y106382D01*
X195281Y107694D02*
X195018Y107956D01*
X194493D01*
X194231Y107694D01*
Y107431D01*
X194493Y107169D01*
X194756D01*
X194493D01*
X194231Y106906D01*
Y106644D01*
X194493Y106382D01*
X195018D01*
X195281Y106644D01*
X192657Y107956D02*
X193182Y107694D01*
X193706Y107169D01*
Y106644D01*
X193444Y106382D01*
X192919D01*
X192657Y106644D01*
Y106906D01*
X192919Y107169D01*
X193706D01*
X200103Y111500D02*
Y113074D01*
X199316D01*
X199053Y112812D01*
Y112287D01*
X199316Y112025D01*
X200103D01*
X199578D02*
X199053Y111500D01*
X198529Y112812D02*
X198266Y113074D01*
X197741D01*
X197479Y112812D01*
Y112549D01*
X197741Y112287D01*
X198004D01*
X197741D01*
X197479Y112025D01*
Y111762D01*
X197741Y111500D01*
X198266D01*
X198529Y111762D01*
X196167Y111500D02*
Y113074D01*
X196954Y112287D01*
X195905D01*
X174020Y75279D02*
Y73705D01*
X173233D01*
X172971Y73967D01*
Y75016D01*
X173233Y75279D01*
X174020D01*
X171396D02*
X171921Y75016D01*
X172446Y74492D01*
Y73967D01*
X172184Y73705D01*
X171659D01*
X171396Y73967D01*
Y74229D01*
X171659Y74492D01*
X172446D01*
X196264Y95949D02*
X194690D01*
Y95161D01*
X194952Y94899D01*
X195477D01*
X195739Y95161D01*
Y95949D01*
Y95424D02*
X196264Y94899D01*
X194952Y94374D02*
X194690Y94112D01*
Y93587D01*
X194952Y93325D01*
X195215D01*
X195477Y93587D01*
Y93850D01*
Y93587D01*
X195739Y93325D01*
X196002D01*
X196264Y93587D01*
Y94112D01*
X196002Y94374D01*
X194690Y91751D02*
Y92800D01*
X195477D01*
X195215Y92275D01*
Y92013D01*
X195477Y91751D01*
X196002D01*
X196264Y92013D01*
Y92538D01*
X196002Y92800D01*
X200595Y96145D02*
X199021D01*
Y95358D01*
X199283Y95096D01*
X199808D01*
X200070Y95358D01*
Y96145D01*
Y95621D02*
X200595Y95096D01*
X199283Y94571D02*
X199021Y94309D01*
Y93784D01*
X199283Y93522D01*
X199546D01*
X199808Y93784D01*
Y94046D01*
Y93784D01*
X200070Y93522D01*
X200333D01*
X200595Y93784D01*
Y94309D01*
X200333Y94571D01*
X199283Y92997D02*
X199021Y92734D01*
Y92210D01*
X199283Y91947D01*
X199546D01*
X199808Y92210D01*
Y92472D01*
Y92210D01*
X200070Y91947D01*
X200333D01*
X200595Y92210D01*
Y92734D01*
X200333Y92997D01*
X215162Y93488D02*
Y91913D01*
X214375D01*
X214112Y92176D01*
Y93225D01*
X214375Y93488D01*
X215162D01*
X212801Y91913D02*
Y93488D01*
X213588Y92700D01*
X212538D01*
X204827Y96047D02*
X203253D01*
Y95260D01*
X203515Y94998D01*
X204040D01*
X204303Y95260D01*
Y96047D01*
Y95522D02*
X204827Y94998D01*
X203515Y94473D02*
X203253Y94210D01*
Y93686D01*
X203515Y93423D01*
X203778D01*
X204040Y93686D01*
Y93948D01*
Y93686D01*
X204303Y93423D01*
X204565D01*
X204827Y93686D01*
Y94210D01*
X204565Y94473D01*
X203515Y92898D02*
X203253Y92636D01*
Y92111D01*
X203515Y91849D01*
X204565D01*
X204827Y92111D01*
Y92636D01*
X204565Y92898D01*
X203515D01*
X211225Y120358D02*
Y121932D01*
X210438D01*
X210175Y121670D01*
Y121145D01*
X210438Y120883D01*
X211225D01*
X210700D02*
X210175Y120358D01*
X209651Y121670D02*
X209388Y121932D01*
X208863D01*
X208601Y121670D01*
Y121408D01*
X208863Y121145D01*
X209126D01*
X208863D01*
X208601Y120883D01*
Y120621D01*
X208863Y120358D01*
X209388D01*
X209651Y120621D01*
X208076Y120358D02*
X207552D01*
X207814D01*
Y121932D01*
X208076Y121670D01*
X184000Y103063D02*
Y101751D01*
X183738Y101488D01*
X183213D01*
X182950Y101751D01*
Y103063D01*
X182426Y101488D02*
X181901D01*
X182163D01*
Y103063D01*
X182426Y102800D01*
X180064Y103063D02*
X181114D01*
Y102276D01*
X180589Y102538D01*
X180327D01*
X180064Y102276D01*
Y101751D01*
X180327Y101488D01*
X180851D01*
X181114Y101751D01*
X193345Y119012D02*
X193607Y119275D01*
X194132D01*
X194394Y119012D01*
Y117963D01*
X194132Y117701D01*
X193607D01*
X193345Y117963D01*
X192033Y117701D02*
Y119275D01*
X192820Y118488D01*
X191770D01*
X190196Y119275D02*
X191246D01*
Y118488D01*
X190721Y118750D01*
X190459D01*
X190196Y118488D01*
Y117963D01*
X190459Y117701D01*
X190983D01*
X191246Y117963D01*
X173266Y106906D02*
X173528Y107169D01*
X174053D01*
X174316Y106906D01*
Y105857D01*
X174053Y105594D01*
X173528D01*
X173266Y105857D01*
X171954Y105594D02*
Y107169D01*
X172741Y106381D01*
X171692D01*
X171167Y106906D02*
X170905Y107169D01*
X170380D01*
X170117Y106906D01*
Y106644D01*
X170380Y106381D01*
X170642D01*
X170380D01*
X170117Y106119D01*
Y105857D01*
X170380Y105594D01*
X170905D01*
X171167Y105857D01*
X190228Y93226D02*
X189966Y93488D01*
Y94013D01*
X190228Y94275D01*
X191278D01*
X191540Y94013D01*
Y93488D01*
X191278Y93226D01*
X191540Y91914D02*
X189966D01*
X190753Y92701D01*
Y91652D01*
X189966Y90077D02*
X190228Y90602D01*
X190753Y91127D01*
X191278D01*
X191540Y90864D01*
Y90340D01*
X191278Y90077D01*
X191015D01*
X190753Y90340D01*
Y91127D01*
X207350Y82300D02*
X207613Y82563D01*
X208138D01*
X208400Y82300D01*
Y81251D01*
X208138Y80989D01*
X207613D01*
X207350Y81251D01*
X206039Y80989D02*
Y82563D01*
X206826Y81776D01*
X205776D01*
X204202Y80989D02*
X205251D01*
X204202Y82038D01*
Y82300D01*
X204464Y82563D01*
X204989D01*
X205251Y82300D01*
X182650Y82400D02*
X182913Y82663D01*
X183438D01*
X183700Y82400D01*
Y81351D01*
X183438Y81089D01*
X182913D01*
X182650Y81351D01*
X181339Y81089D02*
Y82663D01*
X182126Y81876D01*
X181076D01*
X180551Y81089D02*
X180027D01*
X180289D01*
Y82663D01*
X180551Y82400D01*
X194950D02*
X195213Y82663D01*
X195738D01*
X196000Y82400D01*
Y81351D01*
X195738Y81089D01*
X195213D01*
X194950Y81351D01*
X193639Y81089D02*
Y82663D01*
X194426Y81876D01*
X193376D01*
X192851Y82400D02*
X192589Y82663D01*
X192064D01*
X191802Y82400D01*
Y81351D01*
X192064Y81089D01*
X192589D01*
X192851Y81351D01*
Y82400D01*
X114100Y53976D02*
X113050D01*
X112526Y53189D02*
X112001D01*
X112263D01*
Y54763D01*
X112526Y54500D01*
X111214D02*
X110951Y54763D01*
X110427D01*
X110164Y54500D01*
Y53451D01*
X110427Y53189D01*
X110951D01*
X111214Y53451D01*
Y54500D01*
X103400Y53976D02*
X102350D01*
X101826Y53451D02*
X101563Y53189D01*
X101039D01*
X100776Y53451D01*
Y54500D01*
X101039Y54763D01*
X101563D01*
X101826Y54500D01*
Y54238D01*
X101563Y53976D01*
X100776D01*
X176186Y70850D02*
Y69275D01*
X175398D01*
X175136Y69538D01*
Y70587D01*
X175398Y70850D01*
X176186D01*
X174611Y70587D02*
X174349Y70850D01*
X173824D01*
X173562Y70587D01*
Y70325D01*
X173824Y70063D01*
X173562Y69800D01*
Y69538D01*
X173824Y69275D01*
X174349D01*
X174611Y69538D01*
Y69800D01*
X174349Y70063D01*
X174611Y70325D01*
Y70587D01*
X174349Y70063D02*
X173824D01*
X193508Y70358D02*
Y68783D01*
X192721D01*
X192459Y69046D01*
Y70095D01*
X192721Y70358D01*
X193508D01*
X190885D02*
X191934D01*
Y69570D01*
X191409Y69833D01*
X191147D01*
X190885Y69570D01*
Y69046D01*
X191147Y68783D01*
X191672D01*
X191934Y69046D01*
X172741Y51952D02*
Y50378D01*
X171953D01*
X171691Y50640D01*
Y51690D01*
X171953Y51952D01*
X172741D01*
X171166Y50640D02*
X170904Y50378D01*
X170379D01*
X170117Y50640D01*
Y51690D01*
X170379Y51952D01*
X170904D01*
X171166Y51690D01*
Y51427D01*
X170904Y51165D01*
X170117D01*
X170378Y56086D02*
Y54512D01*
X169591D01*
X169329Y54774D01*
Y55824D01*
X169591Y56086D01*
X170378D01*
X168804D02*
X167755D01*
Y55824D01*
X168804Y54774D01*
Y54512D01*
X192327Y44373D02*
Y42799D01*
X191540D01*
X191278Y43061D01*
Y44111D01*
X191540Y44373D01*
X192327D01*
X190753Y44111D02*
X190491Y44373D01*
X189966D01*
X189703Y44111D01*
Y43849D01*
X189966Y43586D01*
X190228D01*
X189966D01*
X189703Y43324D01*
Y43061D01*
X189966Y42799D01*
X190491D01*
X190753Y43061D01*
X151284Y44472D02*
Y42897D01*
X150497D01*
X150234Y43160D01*
Y44209D01*
X150497Y44472D01*
X151284D01*
X149710Y42897D02*
X149185D01*
X149447D01*
Y44472D01*
X149710Y44209D01*
X200800Y55589D02*
Y57163D01*
X200013D01*
X199750Y56900D01*
Y56376D01*
X200013Y56113D01*
X200800D01*
X200275D02*
X199750Y55589D01*
X198176D02*
X199226D01*
X198176Y56638D01*
Y56900D01*
X198439Y57163D01*
X198963D01*
X199226Y56900D01*
X197651Y55851D02*
X197389Y55589D01*
X196864D01*
X196602Y55851D01*
Y56900D01*
X196864Y57163D01*
X197389D01*
X197651Y56900D01*
Y56638D01*
X197389Y56376D01*
X196602D01*
X149611Y170949D02*
Y172523D01*
X148824D01*
X148561Y172261D01*
Y171736D01*
X148824Y171473D01*
X149611D01*
X149086D02*
X148561Y170949D01*
X148036D02*
X147512D01*
X147774D01*
Y172523D01*
X148036Y172261D01*
X146724D02*
X146462Y172523D01*
X145937D01*
X145675Y172261D01*
Y171211D01*
X145937Y170949D01*
X146462D01*
X146724Y171211D01*
Y172261D01*
X146600Y220863D02*
Y219551D01*
X146338Y219288D01*
X145813D01*
X145551Y219551D01*
Y220863D01*
X145026Y219288D02*
X144501D01*
X144763D01*
Y220863D01*
X145026Y220600D01*
X151200Y161563D02*
Y160251D01*
X150938Y159988D01*
X150413D01*
X150151Y160251D01*
Y161563D01*
X148576Y159988D02*
X149626D01*
X148576Y161038D01*
Y161300D01*
X148839Y161563D01*
X149363D01*
X149626Y161300D01*
X157124Y149524D02*
X157387Y149787D01*
X157911D01*
X158174Y149524D01*
Y148475D01*
X157911Y148212D01*
X157387D01*
X157124Y148475D01*
X155550Y148212D02*
X156599D01*
X155550Y149262D01*
Y149524D01*
X155812Y149787D01*
X156337D01*
X156599Y149524D01*
X142951Y150509D02*
X143213Y150771D01*
X143738D01*
X144000Y150509D01*
Y149459D01*
X143738Y149197D01*
X143213D01*
X142951Y149459D01*
X141639Y149197D02*
Y150771D01*
X142426Y149984D01*
X141377D01*
X154172Y224131D02*
X154434Y224393D01*
X154959D01*
X155221Y224131D01*
Y223081D01*
X154959Y222819D01*
X154434D01*
X154172Y223081D01*
X152597Y224393D02*
X153647D01*
Y223606D01*
X153122Y223868D01*
X152859D01*
X152597Y223606D01*
Y223081D01*
X152859Y222819D01*
X153384D01*
X153647Y223081D01*
X147380Y233383D02*
X147643Y233645D01*
X148167D01*
X148430Y233383D01*
Y232333D01*
X148167Y232071D01*
X147643D01*
X147380Y232333D01*
X146855Y232071D02*
X146331D01*
X146593D01*
Y233645D01*
X146855Y233383D01*
D13*
X322854Y39026D02*
G03*
X322854Y39026I-7894J0D01*
G01*
X23642D02*
G03*
X23642Y39026I-7894J0D01*
G01*
Y330365D02*
G03*
X23642Y330365I-7894J0D01*
G01*
X69337Y332640D02*
G03*
X59337Y322640I0J-10000D01*
G01*
X130544Y332640D02*
G03*
X130544Y340514I0J3937D01*
G01*
X158130D02*
G03*
X158130Y332640I0J-3937D01*
G01*
X31501Y243643D02*
G03*
X39375Y243643I3937J0D01*
G01*
Y216057D02*
G03*
X31501Y216057I-3937J0D01*
G01*
X39375Y146837D02*
G03*
X31501Y146837I-3937J0D01*
G01*
Y174423D02*
G03*
X39375Y174423I3937J0D01*
G01*
Y77617D02*
G03*
X31501Y77617I-3937J0D01*
G01*
Y105203D02*
G03*
X39375Y105203I3937J0D01*
G01*
X301229Y189965D02*
G03*
X293355Y189965I-3937J0D01*
G01*
Y217550D02*
G03*
X301229Y217550I3937J0D01*
G01*
Y102560D02*
G03*
X293355Y102560I-3937J0D01*
G01*
Y130145D02*
G03*
X301229Y130145I3937J0D01*
G01*
X176885Y39059D02*
G03*
X176885Y31185I0J-3937D01*
G01*
X149299D02*
G03*
X149299Y39059I0J3937D01*
G01*
X322859Y330398D02*
G03*
X322859Y330398I-7894J0D01*
G01*
X23646D02*
G03*
X23646Y330398I-7894J0D01*
G01*
X293355Y247055D02*
G03*
X287355Y253055I-6000J0D01*
G01*
Y67055D02*
G03*
X293355Y73055I0J6000D01*
G01*
X215337Y67055D02*
G03*
X215093Y67045I0J-3000D01*
G01*
X42375Y253055D02*
G03*
X39375Y250055I0J-3000D01*
G01*
Y209645D02*
G03*
X42375Y206645I3000J0D01*
G01*
X59337Y298140D02*
G03*
X69337Y288140I10000J0D01*
G01*
X111837D02*
G03*
X114837Y291140I0J3000D01*
G01*
X173837Y296140D02*
G03*
X170837Y296140I-1500J0D01*
G01*
X173837Y291140D02*
G03*
X176837Y288140I3000J-0D01*
G01*
X229337Y322640D02*
G03*
X219337Y332640I-10000J0D01*
G01*
X117837Y296140D02*
G03*
X114837Y296140I-1500J0D01*
G01*
X69337Y332640D02*
G03*
X59337Y322640I0J-10000D01*
G01*
X219337Y288140D02*
G03*
X229337Y298140I-0J10000D01*
G01*
X98337Y46055D02*
G03*
X92337Y46055I-3000J0D01*
G01*
X86799Y39362D02*
G03*
X92337Y43055I1539J3692D01*
G01*
X68694Y62439D02*
G03*
X86799Y39362I29643J4615D01*
G01*
X72646Y67055D02*
G03*
X68694Y62439I0J-4000D01*
G01*
X78337Y67055D02*
G03*
X81328Y69825I0J3000D01*
G01*
D02*
G03*
X78337Y72595I-2991J-230D01*
G01*
X170837Y249118D02*
G03*
X173837Y249118I1500J0D01*
G01*
X214932Y67027D02*
G03*
X214921Y61084I405J-2973D01*
G01*
X81337Y134425D02*
G03*
X78337Y137425I-3000J0D01*
G01*
Y183835D02*
G03*
X81337Y186835I0J3000D01*
G01*
X78337Y114615D02*
G03*
X81337Y117615I0J3000D01*
G01*
Y203645D02*
G03*
X78337Y206645I-3000J0D01*
G01*
X200347Y39059D02*
G03*
X201887Y39367I0J4000D01*
G01*
X121837Y43059D02*
G03*
X125837Y39059I4000J0D01*
G01*
X218062Y55595D02*
G03*
X214921Y61084I-3697J1528D01*
G01*
X201887Y39367D02*
G03*
X218062Y55595I-11550J27688D01*
G01*
X121837Y46055D02*
G03*
X115837Y46055I-3000J0D01*
G01*
X114837Y249118D02*
G03*
X117837Y249118I1500J0D01*
G01*
X66809Y72595D02*
G03*
X64854Y70855I0J-1969D01*
G01*
X61875Y68205D02*
G03*
X64854Y70855I0J3000D01*
G01*
X39375Y71205D02*
G03*
X42375Y68205I3000J0D01*
G01*
Y114615D02*
G03*
X39375Y111615I0J-3000D01*
G01*
X42375Y183835D02*
G03*
X39375Y180835I0J-3000D01*
G01*
Y140425D02*
G03*
X42375Y137425I3000J0D01*
G01*
X51463Y298140D02*
G03*
X69337Y280266I17874J0D01*
G01*
Y340514D02*
G03*
X51463Y322640I0J-17874D01*
G01*
X237211D02*
G03*
X219337Y340514I-17874J0D01*
G01*
Y280266D02*
G03*
X237211Y298140I-0J17874D01*
G01*
X42375Y260929D02*
G03*
X31501Y250055I0J-10874D01*
G01*
Y209645D02*
G03*
X42375Y198771I10874J0D01*
G01*
Y191709D02*
G03*
X31501Y180835I0J-10874D01*
G01*
Y140425D02*
G03*
X42375Y129551I10874J0D01*
G01*
Y122489D02*
G03*
X31501Y111615I0J-10874D01*
G01*
Y71205D02*
G03*
X42375Y60331I10874J0D01*
G01*
X61065D02*
G03*
X83770Y32094I37272J6724D01*
G01*
X83770Y32094D02*
G03*
X88650Y31185I4567J10961D01*
G01*
X202494Y31185D02*
G03*
X227384Y59181I-12157J35870D01*
G01*
X287355D02*
G03*
X301229Y73055I0J13874D01*
G01*
Y247055D02*
G03*
X287355Y260929I-13874J0D01*
G01*
X59337Y322640D02*
X59337D01*
X238236Y67055D02*
X287355D01*
X238236Y253055D02*
X287355D01*
X293355Y73055D02*
Y102570D01*
X215337Y67055D02*
X223132D01*
X215093Y253055D02*
X223132D01*
X78214Y72595D02*
X78227D01*
X78214Y114615D02*
X78227D01*
X78214Y137425D02*
X78227D01*
X78214Y183835D02*
X78227D01*
X78214Y206645D02*
X78227D01*
X78214Y253055D02*
X114837D01*
X117837Y251874D02*
Y252679D01*
X170837Y251874D02*
Y252679D01*
X173837Y253055D02*
X215093D01*
X214932Y67027D02*
X215093Y67045D01*
X70871Y114615D02*
X72649D01*
X70871Y72595D02*
X72649D01*
X170837Y292867D02*
Y292873D01*
X117837Y292867D02*
Y292873D01*
X170837Y284827D02*
Y292867D01*
X117837Y284827D02*
Y292867D01*
X72649Y72595D02*
X78214D01*
X72649Y114615D02*
X78214D01*
X70871Y137425D02*
X72649D01*
X70871Y183835D02*
X72649D01*
X70871Y253055D02*
X72649D01*
X70871Y206645D02*
X72649D01*
Y137425D02*
X78214D01*
X72649Y183835D02*
X78214D01*
X170837Y257368D02*
Y262504D01*
X117837Y257368D02*
Y262504D01*
X233133Y67055D02*
X238236D01*
X223132Y253055D02*
X238236D01*
X72649Y206645D02*
X78214D01*
X72649Y253055D02*
X78214D01*
X117837Y252679D02*
Y257368D01*
X170837Y252679D02*
Y257368D01*
Y267194D02*
Y284827D01*
X117837Y267194D02*
Y284827D01*
Y262504D02*
Y267194D01*
X170837Y262504D02*
Y267194D01*
X42375Y253055D02*
X70871D01*
X42375Y206645D02*
X70871D01*
X223132Y67055D02*
X233133D01*
X173837Y291140D02*
Y296140D01*
X170837Y292873D02*
Y296140D01*
X69337Y288140D02*
X111837D01*
X59337Y298140D02*
Y322640D01*
X114837Y291140D02*
Y296140D01*
X117837Y292873D02*
Y296140D01*
X69337Y332641D02*
X130553D01*
X229337Y298140D02*
Y322640D01*
X176837Y288140D02*
X219337D01*
X92337Y43055D02*
Y46055D01*
X72646Y67055D02*
X78337D01*
X78227Y72595D02*
X78337D01*
X78227Y114615D02*
X78337D01*
X170837Y249118D02*
Y251874D01*
X173837Y249118D02*
Y253055D01*
X115837Y44413D02*
Y46055D01*
X98337Y44413D02*
X115837D01*
X98337D02*
Y46055D01*
X78227Y206645D02*
X78337D01*
X78227Y253055D02*
X114837Y253055D01*
X81337Y117615D02*
Y134425D01*
X78227Y137425D02*
X78337D01*
X78227Y183835D02*
X78337D01*
X125837Y39059D02*
X149312D01*
X114837Y249118D02*
Y253055D01*
X81337Y186835D02*
Y203645D01*
X117837Y249118D02*
Y251874D01*
X121837Y43059D02*
Y46055D01*
X42375Y114615D02*
X70871D01*
X66809Y72595D02*
X70871D01*
X42375Y68205D02*
X61875D01*
X39375Y71205D02*
Y77617D01*
X42375Y183835D02*
X70871D01*
X42375Y137425D02*
X70871D01*
X39375Y140425D02*
Y146837D01*
X69337Y280266D02*
X109963D01*
X51463Y298140D02*
Y322640D01*
X69337Y340514D02*
X130544D01*
X237211Y298140D02*
Y322640D01*
X178711Y280266D02*
X219337D01*
X109963Y260929D02*
Y280266D01*
X178711Y260929D02*
Y280266D01*
X42375Y260929D02*
X109963D01*
X31501Y209645D02*
Y216064D01*
X42375Y198771D02*
X73463D01*
Y191709D02*
Y198771D01*
X42375Y191709D02*
X73463D01*
X31501Y140425D02*
Y146844D01*
X42375Y129551D02*
X73463D01*
Y122489D02*
Y129551D01*
X42375Y122489D02*
X73463D01*
X31501Y71205D02*
Y77624D01*
X42375Y60331D02*
X61065D01*
X88024Y31185D02*
X149299D01*
X227384Y59181D02*
X287355D01*
X301229Y73055D02*
Y102560D01*
X178711Y260929D02*
X287355D01*
X117837Y262504D02*
Y267194D01*
X293355Y217540D02*
Y247055D01*
Y130135D02*
Y189975D01*
X176872Y39059D02*
X200347D01*
X31501Y105196D02*
Y111615D01*
Y174416D02*
Y180835D01*
Y243636D02*
Y250055D01*
X158121Y332641D02*
X219337D01*
X39375Y174423D02*
Y180835D01*
Y243643D02*
Y250055D01*
Y105203D02*
Y111615D01*
X176885Y31185D02*
X202494D01*
X158130Y340514D02*
X219337D01*
X301229Y217550D02*
Y247055D01*
Y130145D02*
Y189965D01*
X39375Y209645D02*
Y216057D01*
D14*
X0Y-312D02*
X330709D01*
X0Y-311D02*
Y369768D01*
D15*
X215337Y67055D02*
G03*
X215093Y67045I0J-3000D01*
G01*
X218062Y55595D02*
G03*
X214921Y61084I-3697J1528D01*
G01*
X201887Y39367D02*
G03*
X218062Y55595I-11550J27688D01*
G01*
X200347Y39059D02*
G03*
X201887Y39367I0J4000D01*
G01*
X121837Y43059D02*
G03*
X125837Y39059I4000J0D01*
G01*
X121837Y46055D02*
G03*
X115837Y46055I-3000J0D01*
G01*
X98337D02*
G03*
X92337Y46055I-3000J0D01*
G01*
X86799Y39362D02*
G03*
X92337Y43055I1539J3692D01*
G01*
X68694Y62439D02*
G03*
X86799Y39362I29643J4615D01*
G01*
X72646Y67055D02*
G03*
X68694Y62439I0J-4000D01*
G01*
X78337Y67055D02*
G03*
X81328Y69825I0J3000D01*
G01*
D02*
G03*
X78337Y72595I-2991J-230D01*
G01*
Y114615D02*
G03*
X81337Y117615I0J3000D01*
G01*
Y134425D02*
G03*
X78337Y137425I-3000J0D01*
G01*
Y183835D02*
G03*
X81337Y186835I0J3000D01*
G01*
Y203645D02*
G03*
X78337Y206645I-3000J0D01*
G01*
X114837Y249118D02*
G03*
X117837Y249118I1500J0D01*
G01*
X170837D02*
G03*
X173837Y249118I1500J0D01*
G01*
X215093Y67045D02*
G03*
X214921Y61084I244J-2990D01*
G01*
X39375Y71205D02*
G03*
X42375Y68205I3000J0D01*
G01*
Y114615D02*
G03*
X39375Y111615I0J-3000D01*
G01*
X66809Y72595D02*
G03*
X64854Y70855I0J-1969D01*
G01*
X61875Y68205D02*
G03*
X64854Y70855I0J3000D01*
G01*
X117837Y296140D02*
G03*
X114837Y296140I-1500J0D01*
G01*
X111837Y288140D02*
G03*
X114837Y291140I0J3000D01*
G01*
X229337Y322640D02*
G03*
X219337Y332640I-10000J0D01*
G01*
X173837Y291140D02*
G03*
X176837Y288140I3000J0D01*
G01*
X173837Y296140D02*
G03*
X170837Y296140I-1500J0D01*
G01*
X59337Y298140D02*
G03*
X69337Y288140I10000J0D01*
G01*
Y332640D02*
G03*
X59337Y322640I0J-10000D01*
G01*
X219337Y288140D02*
G03*
X229337Y298140I0J10000D01*
G01*
X42375Y183835D02*
G03*
X39375Y180835I0J-3000D01*
G01*
Y140425D02*
G03*
X42375Y137425I3000J0D01*
G01*
X39375Y209645D02*
G03*
X42375Y206645I3000J0D01*
G01*
Y253055D02*
G03*
X39375Y250055I0J-3000D01*
G01*
X293355Y247055D02*
G03*
X287355Y253055I-6000J0D01*
G01*
Y67055D02*
G03*
X293355Y73055I0J6000D01*
G01*
X215337Y67055D02*
X223132D01*
X215093Y253055D02*
X223132D01*
X125837Y39059D02*
X200347D01*
X121837Y43059D02*
Y46055D01*
X115837Y44413D02*
Y46055D01*
X98337Y44413D02*
X115837D01*
X98337D02*
Y46055D01*
X92337Y43055D02*
Y46055D01*
X72646Y67055D02*
X78337D01*
X78214Y72595D02*
X78337D01*
X78214Y114615D02*
X78337D01*
X81337Y117615D02*
Y134425D01*
X78214Y137425D02*
X78337D01*
X78214Y183835D02*
X78337D01*
X81337Y186835D02*
Y203645D01*
X78214Y206645D02*
X78337D01*
X78214Y253055D02*
X114837D01*
Y249118D02*
Y253055D01*
X117837Y249118D02*
Y252679D01*
X170837Y249118D02*
Y252679D01*
X173837Y249118D02*
Y253055D01*
X215093D01*
X42375Y68205D02*
X61875D01*
X39375Y71205D02*
Y111615D01*
X42375Y114615D02*
X72649D01*
X66809Y72595D02*
X72649D01*
X114837Y291140D02*
Y296140D01*
X69337Y288140D02*
X111837D01*
X69337Y332640D02*
X219337D01*
X229337Y298140D02*
Y322640D01*
X173837Y291140D02*
Y296140D01*
X170837Y292867D02*
Y296140D01*
X59337Y298140D02*
Y322640D01*
X117837Y292867D02*
Y296140D01*
X176837Y288140D02*
X219337D01*
X42375Y183835D02*
X72649D01*
X39375Y140425D02*
Y180835D01*
X42375Y137425D02*
X72649D01*
X42375Y253055D02*
X72649D01*
X42375Y206645D02*
X72649D01*
Y137425D02*
X78214D01*
X72649Y183835D02*
X78214D01*
X170837Y252679D02*
Y257368D01*
X117837Y252679D02*
Y257368D01*
X72649Y206645D02*
X78214D01*
X72649Y253055D02*
X78214D01*
X72649Y72595D02*
X78214D01*
X72649Y114615D02*
X78214D01*
X170837Y257368D02*
Y262504D01*
X117837Y257368D02*
Y262504D01*
X170837Y284827D02*
Y292867D01*
X117837Y284827D02*
Y292867D01*
X170837Y267194D02*
Y284827D01*
X117837Y267194D02*
Y284827D01*
X293355Y73055D02*
Y247055D01*
X223132Y253055D02*
X287355D01*
X223132Y67055D02*
X287355D01*
X117837Y262504D02*
Y267194D01*
X170837Y262504D02*
Y267194D01*
X39375Y209645D02*
Y250055D01*
M02*
