G04*
G04 #@! TF.GenerationSoftware,Altium Limited,Altium Designer,18.1.9 (240)*
G04*
G04 Layer_Physical_Order=2*
G04 Layer_Color=16711680*
%FSLAX25Y25*%
%MOIN*%
G70*
G01*
G75*
%ADD10C,0.01000*%
%ADD13C,0.00118*%
%ADD14C,0.00504*%
%ADD15C,0.00158*%
%ADD16C,0.00787*%
%ADD49C,0.00799*%
%ADD95C,0.00984*%
%ADD116C,0.03150*%
%ADD117C,0.01772*%
%ADD118C,0.01181*%
%ADD119C,0.00394*%
G36*
X173927Y323868D02*
X173925Y323866D01*
X173877Y323816D01*
X173832Y323765D01*
X173788Y323711D01*
X173747Y323655D01*
X173708Y323598D01*
X173671Y323540D01*
X173637Y323480D01*
X173605Y323418D01*
X173576Y323355D01*
X173550Y323291D01*
X173526Y323226D01*
X173505Y323161D01*
X173486Y323094D01*
X173471Y323026D01*
X173458Y322958D01*
X173448Y322890D01*
X173441Y322821D01*
X173436Y322752D01*
X173435Y322683D01*
X173436Y322614D01*
X173441Y322545D01*
X173448Y322476D01*
X173458Y322408D01*
X173471Y322340D01*
X173486Y322272D01*
X173505Y322205D01*
X173526Y322140D01*
X173550Y322075D01*
X173576Y322011D01*
X173605Y321948D01*
X173637Y321886D01*
X173671Y321826D01*
X173708Y321768D01*
X173747Y321710D01*
X173788Y321655D01*
X173832Y321601D01*
X173877Y321550D01*
X173925Y321499D01*
X173975Y321452D01*
X174027Y321406D01*
X174081Y321362D01*
X174136Y321321D01*
X174193Y321282D01*
X174252Y321245D01*
X174312Y321211D01*
X174374Y321179D01*
X174436Y321150D01*
X174500Y321124D01*
X174565Y321100D01*
X174631Y321079D01*
X174698Y321061D01*
X174765Y321045D01*
X174833Y321032D01*
X174902Y321022D01*
X174970Y321015D01*
X175040Y321011D01*
X175109Y321009D01*
X175178Y321011D01*
X175247Y321015D01*
X175316Y321022D01*
X175384Y321032D01*
X175452Y321045D01*
X175520Y321061D01*
X175586Y321079D01*
X175652Y321100D01*
X175717Y321124D01*
X175781Y321150D01*
X175844Y321179D01*
X175905Y321211D01*
X175965Y321245D01*
X176024Y321282D01*
X176081Y321321D01*
X176137Y321362D01*
X176190Y321406D01*
X176242Y321452D01*
X176292Y321499D01*
X176340Y321550D01*
X176386Y321601D01*
X176429Y321655D01*
X176471Y321710D01*
X176510Y321768D01*
X176515Y321775D01*
X228451D01*
Y303075D01*
X206845D01*
X206839Y303078D01*
X206732Y303164D01*
X206709Y303194D01*
X206589Y303450D01*
X206613Y303516D01*
X206634Y303581D01*
X206652Y303648D01*
X206668Y303715D01*
X206681Y303783D01*
X206691Y303852D01*
X206698Y303921D01*
X206702Y303990D01*
X206703Y304059D01*
X206702Y304128D01*
X206698Y304197D01*
X206691Y304266D01*
X206681Y304334D01*
X206668Y304402D01*
X206652Y304470D01*
X206634Y304536D01*
X206613Y304602D01*
X206589Y304667D01*
X206562Y304731D01*
X206533Y304794D01*
X206502Y304855D01*
X206468Y304916D01*
X206431Y304974D01*
X206392Y305031D01*
X206351Y305087D01*
X206307Y305140D01*
X206261Y305192D01*
X206213Y305242D01*
X206163Y305290D01*
X206112Y305336D01*
X206058Y305380D01*
X206002Y305421D01*
X205945Y305460D01*
X205887Y305497D01*
X205826Y305531D01*
X205765Y305562D01*
X205702Y305592D01*
X205638Y305618D01*
X205573Y305642D01*
X205507Y305663D01*
X205441Y305681D01*
X205373Y305697D01*
X205305Y305710D01*
X205237Y305720D01*
X205168Y305727D01*
X205099Y305731D01*
X205030Y305732D01*
X204961Y305731D01*
X204892Y305727D01*
X204823Y305720D01*
X204754Y305710D01*
X204686Y305697D01*
X204619Y305681D01*
X204552Y305663D01*
X204486Y305642D01*
X204422Y305618D01*
X204358Y305592D01*
X204295Y305562D01*
X204233Y305531D01*
X204173Y305497D01*
X204115Y305460D01*
X204057Y305421D01*
X204002Y305380D01*
X203948Y305336D01*
X203896Y305290D01*
X203847Y305242D01*
X203799Y305192D01*
X203753Y305140D01*
X203709Y305087D01*
X203668Y305031D01*
X203629Y304974D01*
X203592Y304916D01*
X203558Y304855D01*
X203526Y304794D01*
X203497Y304731D01*
X203471Y304667D01*
X203447Y304602D01*
X203426Y304536D01*
X203408Y304470D01*
X203392Y304402D01*
X203379Y304334D01*
X203369Y304266D01*
X203362Y304197D01*
X203358Y304128D01*
X203356Y304059D01*
X203358Y303990D01*
X203362Y303921D01*
X203369Y303852D01*
X203379Y303783D01*
X203392Y303715D01*
X203408Y303648D01*
X203426Y303581D01*
X203447Y303516D01*
X203471Y303450D01*
X203351Y303194D01*
X203328Y303164D01*
X203221Y303078D01*
X203215Y303075D01*
X197396D01*
X197390Y303078D01*
X197283Y303164D01*
X197260Y303194D01*
X197140Y303450D01*
X197164Y303516D01*
X197185Y303581D01*
X197204Y303648D01*
X197219Y303715D01*
X197232Y303783D01*
X197242Y303852D01*
X197249Y303921D01*
X197253Y303990D01*
X197255Y304059D01*
X197253Y304128D01*
X197249Y304197D01*
X197242Y304266D01*
X197232Y304334D01*
X197219Y304402D01*
X197204Y304470D01*
X197185Y304536D01*
X197164Y304602D01*
X197140Y304667D01*
X197114Y304731D01*
X197085Y304794D01*
X197053Y304855D01*
X197019Y304916D01*
X196982Y304974D01*
X196943Y305031D01*
X196902Y305087D01*
X196858Y305140D01*
X196812Y305192D01*
X196765Y305242D01*
X196715Y305290D01*
X196663Y305336D01*
X196609Y305380D01*
X196554Y305421D01*
X196496Y305460D01*
X196438Y305497D01*
X196378Y305531D01*
X196316Y305562D01*
X196253Y305592D01*
X196189Y305618D01*
X196124Y305642D01*
X196059Y305663D01*
X195992Y305681D01*
X195924Y305697D01*
X195856Y305710D01*
X195788Y305720D01*
X195719Y305727D01*
X195650Y305731D01*
X195581Y305732D01*
X195512Y305731D01*
X195443Y305727D01*
X195374Y305720D01*
X195306Y305710D01*
X195238Y305697D01*
X195170Y305681D01*
X195104Y305663D01*
X195038Y305642D01*
X194973Y305618D01*
X194909Y305592D01*
X194846Y305562D01*
X194784Y305531D01*
X194724Y305497D01*
X194666Y305460D01*
X194609Y305421D01*
X194553Y305380D01*
X194500Y305336D01*
X194448Y305290D01*
X194398Y305242D01*
X194350Y305192D01*
X194304Y305140D01*
X194260Y305087D01*
X194219Y305031D01*
X194180Y304974D01*
X194143Y304916D01*
X194109Y304855D01*
X194078Y304794D01*
X194049Y304731D01*
X194022Y304667D01*
X193998Y304602D01*
X193977Y304536D01*
X193959Y304470D01*
X193943Y304402D01*
X193930Y304334D01*
X193920Y304266D01*
X193913Y304197D01*
X193909Y304128D01*
X193907Y304059D01*
X193909Y303990D01*
X193913Y303921D01*
X193920Y303852D01*
X193930Y303783D01*
X193943Y303715D01*
X193959Y303648D01*
X193977Y303581D01*
X193998Y303516D01*
X194022Y303450D01*
X193902Y303194D01*
X193879Y303164D01*
X193772Y303078D01*
X193766Y303075D01*
X178519D01*
X178506Y303087D01*
X178454Y303133D01*
X178400Y303177D01*
X178345Y303218D01*
X178288Y303257D01*
X178229Y303294D01*
X178169Y303328D01*
X178108Y303360D01*
X178045Y303389D01*
X177981Y303415D01*
X177916Y303439D01*
X177850Y303460D01*
X177783Y303479D01*
X177716Y303494D01*
X177648Y303507D01*
X177579Y303517D01*
X177511Y303524D01*
X177442Y303528D01*
X177372Y303530D01*
X177303Y303528D01*
X177234Y303524D01*
X177165Y303517D01*
X177097Y303507D01*
X177029Y303494D01*
X176962Y303479D01*
X176895Y303460D01*
X176829Y303439D01*
X176764Y303415D01*
X176700Y303389D01*
X176637Y303360D01*
X176576Y303328D01*
X176516Y303294D01*
X176457Y303257D01*
X176400Y303218D01*
X176345Y303177D01*
X176291Y303133D01*
X176239Y303087D01*
X176226Y303075D01*
X170581D01*
Y297756D01*
X170534Y297703D01*
X170479Y297638D01*
X170427Y297570D01*
X170377Y297501D01*
X170330Y297430D01*
X170285Y297358D01*
X170243Y297284D01*
X170203Y297208D01*
X170167Y297132D01*
X170133Y297054D01*
X170101Y296974D01*
X170073Y296894D01*
X170048Y296813D01*
X170025Y296730D01*
X170005Y296648D01*
X169989Y296564D01*
X169975Y296480D01*
X169975Y296479D01*
X169965Y296395D01*
X169965Y296395D01*
X169957Y296311D01*
X169957Y296309D01*
X169952Y296226D01*
X169951Y296141D01*
X169951Y296140D01*
X169951D01*
Y294020D01*
X131802D01*
Y312720D01*
X119400D01*
Y331754D01*
X149954D01*
X150063Y331371D01*
X150002Y331339D01*
X149942Y331305D01*
X149883Y331269D01*
X149826Y331230D01*
X149770Y331188D01*
X149716Y331145D01*
X149665Y331099D01*
X149615Y331051D01*
X149567Y331001D01*
X149521Y330949D01*
X149478Y330895D01*
X149436Y330840D01*
X149397Y330783D01*
X149361Y330724D01*
X149326Y330664D01*
X149295Y330603D01*
X149266Y330540D01*
X149239Y330476D01*
X149215Y330411D01*
X149194Y330345D01*
X149176Y330278D01*
X149160Y330211D01*
X149147Y330143D01*
X149137Y330075D01*
X149130Y330006D01*
X149126Y329937D01*
X149125Y329868D01*
X149126Y329798D01*
X149130Y329729D01*
X149137Y329661D01*
X149147Y329592D01*
X149160Y329524D01*
X149176Y329457D01*
X149194Y329390D01*
X149215Y329324D01*
X149239Y329259D01*
X149266Y329195D01*
X149295Y329133D01*
X149326Y329071D01*
X149361Y329011D01*
X149397Y328952D01*
X149436Y328895D01*
X149478Y328840D01*
X149521Y328786D01*
X149567Y328734D01*
X149615Y328684D01*
X149665Y328636D01*
X149716Y328590D01*
X149770Y328547D01*
X149826Y328505D01*
X149883Y328467D01*
X149942Y328430D01*
X150002Y328396D01*
X150063Y328364D01*
X150126Y328335D01*
X150190Y328308D01*
X150255Y328285D01*
X150321Y328263D01*
X150387Y328245D01*
X150455Y328230D01*
X150523Y328217D01*
X150591Y328207D01*
X150660Y328200D01*
X150729Y328195D01*
X150798Y328194D01*
X150867Y328195D01*
X150936Y328200D01*
X151005Y328207D01*
X151074Y328217D01*
X151142Y328230D01*
X151209Y328245D01*
X151276Y328263D01*
X151342Y328285D01*
X151407Y328308D01*
X151470Y328335D01*
X151533Y328364D01*
X151595Y328396D01*
X151655Y328430D01*
X151714Y328467D01*
X151771Y328505D01*
X151826Y328547D01*
X151880Y328590D01*
X151932Y328636D01*
X151982Y328684D01*
X152029Y328734D01*
X152075Y328786D01*
X152119Y328840D01*
X152160Y328895D01*
X152199Y328952D01*
X152236Y329011D01*
X152270Y329071D01*
X152302Y329133D01*
X152331Y329195D01*
X152357Y329259D01*
X152381Y329324D01*
X152402Y329390D01*
X152420Y329457D01*
X152436Y329524D01*
X152449Y329592D01*
X152459Y329661D01*
X152466Y329729D01*
X152470Y329798D01*
X152472Y329868D01*
X152470Y329937D01*
X152466Y330006D01*
X152459Y330075D01*
X152449Y330143D01*
X152436Y330211D01*
X152420Y330278D01*
X152402Y330345D01*
X152381Y330411D01*
X152357Y330476D01*
X152331Y330540D01*
X152302Y330603D01*
X152270Y330664D01*
X152236Y330724D01*
X152199Y330783D01*
X152160Y330840D01*
X152119Y330895D01*
X152075Y330949D01*
X152029Y331001D01*
X151982Y331051D01*
X151932Y331099D01*
X151880Y331145D01*
X151826Y331188D01*
X151771Y331230D01*
X151714Y331269D01*
X151655Y331305D01*
X151595Y331339D01*
X151533Y331371D01*
X151643Y331754D01*
X153891D01*
X154000Y331371D01*
X153939Y331339D01*
X153878Y331305D01*
X153820Y331268D01*
X153763Y331229D01*
X153707Y331188D01*
X153654Y331144D01*
X153602Y331099D01*
X153552Y331051D01*
X153504Y331001D01*
X153458Y330949D01*
X153414Y330895D01*
X153373Y330840D01*
X153334Y330783D01*
X153297Y330724D01*
X153263Y330664D01*
X153232Y330602D01*
X153202Y330540D01*
X153176Y330476D01*
X153152Y330411D01*
X153131Y330345D01*
X153113Y330278D01*
X153097Y330211D01*
X153084Y330143D01*
X153074Y330074D01*
X153067Y330006D01*
X153063Y329937D01*
X153062Y329867D01*
X153063Y329798D01*
X153067Y329729D01*
X153074Y329660D01*
X153084Y329592D01*
X153097Y329524D01*
X153113Y329456D01*
X153131Y329390D01*
X153152Y329324D01*
X153176Y329259D01*
X153202Y329195D01*
X153232Y329132D01*
X153263Y329071D01*
X153297Y329011D01*
X153334Y328952D01*
X153373Y328895D01*
X153414Y328839D01*
X153458Y328786D01*
X153504Y328734D01*
X153552Y328684D01*
X153602Y328636D01*
X153654Y328590D01*
X153707Y328547D01*
X153763Y328505D01*
X153820Y328466D01*
X153878Y328430D01*
X153939Y328396D01*
X154000Y328364D01*
X154063Y328335D01*
X154127Y328308D01*
X154192Y328284D01*
X154258Y328263D01*
X154324Y328245D01*
X154392Y328229D01*
X154460Y328217D01*
X154528Y328207D01*
X154597Y328200D01*
X154666Y328195D01*
X154735Y328194D01*
X154804Y328195D01*
X154873Y328200D01*
X154942Y328207D01*
X155011Y328217D01*
X155079Y328229D01*
X155146Y328245D01*
X155213Y328263D01*
X155279Y328284D01*
X155343Y328308D01*
X155407Y328335D01*
X155470Y328364D01*
X155532Y328396D01*
X155592Y328430D01*
X155650Y328466D01*
X155708Y328505D01*
X155763Y328547D01*
X155817Y328590D01*
X155869Y328636D01*
X155919Y328684D01*
X155966Y328734D01*
X156012Y328786D01*
X156056Y328839D01*
X156097Y328895D01*
X156136Y328952D01*
X156173Y329011D01*
X156207Y329071D01*
X156239Y329132D01*
X156268Y329195D01*
X156294Y329259D01*
X156318Y329324D01*
X156339Y329390D01*
X156358Y329456D01*
X156373Y329524D01*
X156386Y329592D01*
X156396Y329660D01*
X156403Y329729D01*
X156407Y329798D01*
X156409Y329867D01*
X156407Y329937D01*
X156403Y330006D01*
X156396Y330074D01*
X156386Y330143D01*
X156373Y330211D01*
X156358Y330278D01*
X156339Y330345D01*
X156318Y330411D01*
X156294Y330476D01*
X156268Y330540D01*
X156239Y330602D01*
X156207Y330664D01*
X156173Y330724D01*
X156136Y330783D01*
X156097Y330840D01*
X156056Y330895D01*
X156012Y330949D01*
X155966Y331001D01*
X155919Y331051D01*
X155869Y331099D01*
X155817Y331144D01*
X155763Y331188D01*
X155708Y331229D01*
X155650Y331268D01*
X155592Y331305D01*
X155532Y331339D01*
X155470Y331371D01*
X155579Y331754D01*
X157826D01*
X157937Y331371D01*
X157875Y331340D01*
X157815Y331306D01*
X157756Y331269D01*
X157699Y331230D01*
X157644Y331189D01*
X157590Y331145D01*
X157538Y331099D01*
X157488Y331051D01*
X157440Y331001D01*
X157395Y330950D01*
X157351Y330896D01*
X157310Y330840D01*
X157271Y330783D01*
X157234Y330725D01*
X157200Y330664D01*
X157168Y330603D01*
X157139Y330540D01*
X157113Y330476D01*
X157089Y330411D01*
X157068Y330346D01*
X157049Y330279D01*
X157034Y330211D01*
X157021Y330143D01*
X157011Y330075D01*
X157004Y330006D01*
X157000Y329937D01*
X156998Y329868D01*
X157000Y329799D01*
X157004Y329730D01*
X157011Y329661D01*
X157021Y329592D01*
X157034Y329524D01*
X157049Y329457D01*
X157068Y329391D01*
X157089Y329325D01*
X157113Y329260D01*
X157139Y329196D01*
X157168Y329133D01*
X157200Y329071D01*
X157234Y329011D01*
X157271Y328953D01*
X157310Y328895D01*
X157351Y328840D01*
X157395Y328786D01*
X157440Y328734D01*
X157488Y328685D01*
X157538Y328637D01*
X157590Y328591D01*
X157644Y328547D01*
X157699Y328506D01*
X157756Y328467D01*
X157815Y328430D01*
X157875Y328396D01*
X157937Y328364D01*
X157999Y328335D01*
X158063Y328309D01*
X158128Y328285D01*
X158194Y328264D01*
X158261Y328246D01*
X158328Y328230D01*
X158396Y328217D01*
X158465Y328207D01*
X158533Y328200D01*
X158602Y328196D01*
X158672Y328194D01*
X158741Y328196D01*
X158810Y328200D01*
X158879Y328207D01*
X158947Y328217D01*
X159015Y328230D01*
X159082Y328246D01*
X159149Y328264D01*
X159215Y328285D01*
X159280Y328309D01*
X159344Y328335D01*
X159407Y328364D01*
X159468Y328396D01*
X159528Y328430D01*
X159587Y328467D01*
X159644Y328506D01*
X159700Y328547D01*
X159753Y328591D01*
X159805Y328637D01*
X159855Y328685D01*
X159903Y328734D01*
X159949Y328786D01*
X159992Y328840D01*
X160034Y328895D01*
X160073Y328953D01*
X160109Y329011D01*
X160143Y329071D01*
X160175Y329133D01*
X160204Y329196D01*
X160231Y329260D01*
X160255Y329325D01*
X160276Y329391D01*
X160294Y329457D01*
X160310Y329524D01*
X160322Y329592D01*
X160332Y329661D01*
X160339Y329730D01*
X160344Y329799D01*
X160345Y329868D01*
X160344Y329937D01*
X160339Y330006D01*
X160332Y330075D01*
X160322Y330143D01*
X160310Y330211D01*
X160294Y330279D01*
X160276Y330346D01*
X160255Y330411D01*
X160231Y330476D01*
X160204Y330540D01*
X160175Y330603D01*
X160143Y330664D01*
X160109Y330725D01*
X160073Y330783D01*
X160034Y330840D01*
X159992Y330896D01*
X159949Y330950D01*
X159903Y331001D01*
X159855Y331051D01*
X159805Y331099D01*
X159753Y331145D01*
X159700Y331189D01*
X159644Y331230D01*
X159587Y331269D01*
X159528Y331306D01*
X159468Y331340D01*
X159407Y331371D01*
X159517Y331754D01*
X173927D01*
Y323868D01*
D02*
G37*
G36*
X69337Y331754D02*
X118612D01*
Y312720D01*
X118614Y312673D01*
X118618Y312625D01*
X118625Y312578D01*
X118635Y312532D01*
X118648Y312486D01*
X118663Y312441D01*
X118682Y312397D01*
X118702Y312354D01*
X118726Y312313D01*
X118752Y312273D01*
X118780Y312234D01*
X118810Y312198D01*
X118843Y312163D01*
X118878Y312131D01*
X118914Y312100D01*
X118953Y312072D01*
X118992Y312046D01*
X119034Y312023D01*
X119077Y312002D01*
X119121Y311984D01*
X119166Y311968D01*
X119211Y311955D01*
X119258Y311945D01*
X119305Y311938D01*
X119352Y311934D01*
X119400Y311932D01*
X131014D01*
Y294020D01*
X118723D01*
Y296140D01*
X118723D01*
X118723Y296141D01*
X118722Y296226D01*
X118717Y296310D01*
X118717Y296311D01*
X118710Y296395D01*
X118710Y296395D01*
X118699Y296480D01*
X118699Y296480D01*
X118692Y296521D01*
X118692Y296521D01*
X118691Y296527D01*
X118685Y296564D01*
X118669Y296648D01*
X118649Y296730D01*
X118627Y296813D01*
X118601Y296894D01*
X118573Y296974D01*
X118542Y297054D01*
X118508Y297132D01*
X118471Y297208D01*
X118431Y297284D01*
X118389Y297358D01*
X118344Y297430D01*
X118297Y297501D01*
X118247Y297570D01*
X118195Y297638D01*
X118140Y297703D01*
X118084Y297766D01*
X118024Y297828D01*
X117963Y297887D01*
X117900Y297944D01*
X117834Y297998D01*
X117767Y298051D01*
X117698Y298100D01*
X117627Y298148D01*
X117555Y298193D01*
X117481Y298235D01*
X117405Y298274D01*
X117328Y298311D01*
X117250Y298345D01*
X117171Y298376D01*
X117091Y298405D01*
X117009Y298430D01*
X116927Y298452D01*
X116844Y298472D01*
X116761Y298489D01*
X116677Y298502D01*
X116592Y298513D01*
X116507Y298520D01*
X116422Y298525D01*
X116337Y298527D01*
X116252Y298525D01*
X116167Y298520D01*
X116082Y298513D01*
X115997Y298502D01*
X115913Y298489D01*
X115830Y298472D01*
X115747Y298452D01*
X115665Y298430D01*
X115584Y298405D01*
X115503Y298376D01*
X115424Y298345D01*
X115346Y298311D01*
X115269Y298274D01*
X115193Y298235D01*
X115119Y298193D01*
X115047Y298148D01*
X114976Y298100D01*
X114907Y298051D01*
X114840Y297998D01*
X114774Y297944D01*
X114711Y297887D01*
X114650Y297828D01*
X114591Y297766D01*
X114534Y297703D01*
X114479Y297638D01*
X114427Y297570D01*
X114377Y297501D01*
X114330Y297430D01*
X114285Y297358D01*
X114243Y297284D01*
X114203Y297208D01*
X114173Y297146D01*
X113968Y297071D01*
X113779Y297090D01*
X113735Y297097D01*
X113680Y297176D01*
X113620Y297255D01*
X113557Y297332D01*
X113492Y297407D01*
X113426Y297481D01*
X113356Y297552D01*
X113285Y297621D01*
X113212Y297688D01*
X113136Y297753D01*
X113059Y297815D01*
X112980Y297875D01*
X112899Y297933D01*
X112817Y297988D01*
X112732Y298041D01*
X112647Y298091D01*
X112559Y298138D01*
X112471Y298183D01*
X112381Y298225D01*
X112290Y298265D01*
X112197Y298301D01*
X112104Y298335D01*
X112010Y298366D01*
X111914Y298394D01*
X111818Y298419D01*
X111722Y298442D01*
X111624Y298461D01*
X111526Y298477D01*
X111428Y298491D01*
X111329Y298501D01*
X111230Y298509D01*
X111131Y298513D01*
X111031Y298515D01*
X110932Y298513D01*
X110833Y298509D01*
X110734Y298501D01*
X110635Y298491D01*
X110537Y298477D01*
X110439Y298461D01*
X110342Y298442D01*
X110245Y298419D01*
X110149Y298394D01*
X110053Y298366D01*
X109959Y298335D01*
X109866Y298301D01*
X109773Y298265D01*
X109682Y298225D01*
X109592Y298183D01*
X109504Y298138D01*
X109416Y298091D01*
X109331Y298041D01*
X109246Y297988D01*
X109164Y297933D01*
X109083Y297875D01*
X109004Y297815D01*
X108927Y297753D01*
X108851Y297688D01*
X108778Y297621D01*
X108707Y297552D01*
X108637Y297481D01*
X108571Y297407D01*
X108506Y297332D01*
X108443Y297255D01*
X108383Y297176D01*
X108326Y297095D01*
X108271Y297012D01*
X108218Y296928D01*
X108168Y296842D01*
X108120Y296755D01*
X108075Y296666D01*
X108033Y296576D01*
X107994Y296485D01*
X107957Y296393D01*
X107924Y296300D01*
X107893Y296205D01*
X107864Y296110D01*
X107839Y296014D01*
X107817Y295917D01*
X107798Y295820D01*
X107781Y295722D01*
X107768Y295623D01*
X107757Y295525D01*
X107750Y295426D01*
X107745Y295326D01*
X107744Y295227D01*
X107745Y295128D01*
X107750Y295028D01*
X107757Y294930D01*
X107768Y294831D01*
X107781Y294732D01*
X107798Y294634D01*
X107817Y294537D01*
X107839Y294440D01*
X107864Y294344D01*
X107893Y294249D01*
X107924Y294155D01*
X107957Y294061D01*
X107994Y293969D01*
X108033Y293878D01*
X108075Y293788D01*
X108120Y293699D01*
X108168Y293612D01*
X108218Y293526D01*
X108271Y293442D01*
X108326Y293359D01*
X108383Y293279D01*
X108443Y293199D01*
X108506Y293122D01*
X108571Y293047D01*
X108637Y292973D01*
X108707Y292902D01*
X108778Y292833D01*
X108851Y292766D01*
X108927Y292701D01*
X109004Y292639D01*
X109083Y292579D01*
X109164Y292521D01*
X109246Y292466D01*
X109331Y292413D01*
X109416Y292363D01*
X109504Y292316D01*
X109592Y292271D01*
X109682Y292229D01*
X109773Y292190D01*
X109866Y292153D01*
X109959Y292119D01*
X110053Y292088D01*
X110149Y292060D01*
X110245Y292035D01*
X110342Y292012D01*
X110439Y291993D01*
X110537Y291977D01*
X110635Y291963D01*
X110734Y291953D01*
X110833Y291945D01*
X110932Y291941D01*
X111031Y291939D01*
X111131Y291941D01*
X111230Y291945D01*
X111329Y291953D01*
X111428Y291963D01*
X111526Y291977D01*
X111624Y291993D01*
X111722Y292012D01*
X111818Y292035D01*
X111914Y292060D01*
X112010Y292088D01*
X112104Y292119D01*
X112197Y292153D01*
X112290Y292190D01*
X112381Y292229D01*
X112471Y292271D01*
X112559Y292316D01*
X112647Y292363D01*
X112732Y292413D01*
X112817Y292466D01*
X112899Y292521D01*
X112980Y292579D01*
X113059Y292639D01*
X113136Y292701D01*
X113212Y292766D01*
X113285Y292833D01*
X113356Y292902D01*
X113426Y292973D01*
X113492Y293047D01*
X113557Y293122D01*
X113830Y293063D01*
X113951Y292985D01*
Y291140D01*
X113951Y291133D01*
X113950Y291061D01*
X113945Y290982D01*
X113938Y290904D01*
X113928Y290825D01*
X113914Y290747D01*
X113898Y290670D01*
X113879Y290593D01*
X113857Y290517D01*
X113832Y290442D01*
X113805Y290368D01*
X113775Y290295D01*
X113742Y290223D01*
X113706Y290153D01*
X113668Y290083D01*
X113627Y290016D01*
X113584Y289949D01*
X113538Y289885D01*
X113490Y289822D01*
X113440Y289761D01*
X113387Y289702D01*
X113332Y289645D01*
X113275Y289591D01*
X113216Y289538D01*
X113155Y289488D01*
X113093Y289439D01*
X113028Y289394D01*
X112962Y289350D01*
X112894Y289310D01*
X112825Y289271D01*
X112754Y289236D01*
X112682Y289203D01*
X112609Y289172D01*
X112535Y289145D01*
X112460Y289120D01*
X112384Y289098D01*
X112308Y289079D01*
X112230Y289063D01*
X112152Y289050D01*
X112074Y289039D01*
X111995Y289032D01*
X111916Y289028D01*
X111844Y289026D01*
X111837Y289026D01*
X69337D01*
X69328Y289026D01*
X69170Y289028D01*
X69004Y289032D01*
X68838Y289040D01*
X68672Y289051D01*
X68506Y289064D01*
X68340Y289081D01*
X68175Y289101D01*
X68010Y289123D01*
X67845Y289149D01*
X67681Y289178D01*
X67518Y289210D01*
X67355Y289244D01*
X67193Y289282D01*
X67032Y289323D01*
X66871Y289366D01*
X66711Y289413D01*
X66552Y289462D01*
X66394Y289514D01*
X66237Y289569D01*
X66081Y289628D01*
X65926Y289688D01*
X65772Y289752D01*
X65620Y289819D01*
X65468Y289888D01*
X65318Y289960D01*
X65170Y290035D01*
X65022Y290112D01*
X64876Y290192D01*
X64732Y290275D01*
X64589Y290361D01*
X64448Y290449D01*
X64308Y290539D01*
X64170Y290632D01*
X64034Y290728D01*
X63899Y290826D01*
X63767Y290927D01*
X63636Y291030D01*
X63507Y291135D01*
X63380Y291243D01*
X63255Y291352D01*
X63132Y291465D01*
X63011Y291579D01*
X62892Y291696D01*
X62776Y291814D01*
X62661Y291935D01*
X62549Y292058D01*
X62439Y292183D01*
X62331Y292310D01*
X62226Y292439D01*
X62123Y292570D01*
X62023Y292703D01*
X61924Y292837D01*
X61829Y292973D01*
X61736Y293111D01*
X61645Y293251D01*
X61557Y293392D01*
X61472Y293535D01*
X61389Y293680D01*
X61309Y293826D01*
X61231Y293973D01*
X61157Y294122D01*
X61085Y294272D01*
X61015Y294423D01*
X60949Y294576D01*
X60885Y294730D01*
X60824Y294884D01*
X60766Y295040D01*
X60711Y295198D01*
X60659Y295356D01*
X60609Y295515D01*
X60563Y295674D01*
X60519Y295835D01*
X60479Y295996D01*
X60441Y296159D01*
X60406Y296322D01*
X60374Y296485D01*
X60346Y296649D01*
X60320Y296813D01*
X60297Y296978D01*
X60277Y297144D01*
X60261Y297309D01*
X60247Y297475D01*
X60237Y297641D01*
X60229Y297808D01*
X60224Y297974D01*
X60223Y298131D01*
X60223Y298140D01*
Y322640D01*
X60223Y322650D01*
X60224Y322807D01*
X60229Y322973D01*
X60237Y323140D01*
X60247Y323306D01*
X60261Y323472D01*
X60277Y323637D01*
X60297Y323803D01*
X60320Y323968D01*
X60346Y324132D01*
X60374Y324296D01*
X60406Y324459D01*
X60441Y324622D01*
X60479Y324784D01*
X60519Y324946D01*
X60563Y325106D01*
X60609Y325266D01*
X60659Y325425D01*
X60711Y325583D01*
X60766Y325740D01*
X60824Y325896D01*
X60885Y326051D01*
X60949Y326205D01*
X61015Y326358D01*
X61085Y326509D01*
X61157Y326659D01*
X61231Y326808D01*
X61309Y326955D01*
X61389Y327101D01*
X61472Y327245D01*
X61557Y327388D01*
X61645Y327530D01*
X61736Y327669D01*
X61829Y327807D01*
X61924Y327944D01*
X62023Y328078D01*
X62123Y328211D01*
X62226Y328342D01*
X62331Y328470D01*
X62439Y328597D01*
X62549Y328723D01*
X62661Y328845D01*
X62776Y328966D01*
X62892Y329085D01*
X63011Y329202D01*
X63132Y329316D01*
X63255Y329428D01*
X63380Y329538D01*
X63507Y329646D01*
X63636Y329751D01*
X63767Y329854D01*
X63899Y329955D01*
X64034Y330053D01*
X64170Y330149D01*
X64308Y330242D01*
X64448Y330332D01*
X64589Y330420D01*
X64732Y330506D01*
X64876Y330588D01*
X65022Y330669D01*
X65170Y330746D01*
X65318Y330821D01*
X65468Y330893D01*
X65620Y330962D01*
X65772Y331029D01*
X65926Y331092D01*
X66081Y331153D01*
X66237Y331211D01*
X66394Y331266D01*
X66552Y331319D01*
X66711Y331368D01*
X66871Y331415D01*
X67032Y331458D01*
X67193Y331499D01*
X67355Y331537D01*
X67518Y331571D01*
X67681Y331603D01*
X67845Y331632D01*
X68010Y331658D01*
X68175Y331680D01*
X68340Y331700D01*
X68506Y331717D01*
X68672Y331730D01*
X68838Y331741D01*
X69004Y331749D01*
X69170Y331753D01*
X69328Y331754D01*
X69337Y331754D01*
D02*
G37*
%LPC*%
G36*
X142924Y325931D02*
X142854Y325930D01*
X142785Y325926D01*
X142717Y325919D01*
X142648Y325908D01*
X142580Y325896D01*
X142513Y325880D01*
X142446Y325862D01*
X142380Y325841D01*
X142315Y325817D01*
X142251Y325790D01*
X142189Y325761D01*
X142127Y325730D01*
X142067Y325695D01*
X142008Y325659D01*
X141951Y325620D01*
X141896Y325578D01*
X141842Y325535D01*
X141790Y325489D01*
X141740Y325441D01*
X141692Y325391D01*
X141647Y325339D01*
X141603Y325286D01*
X141562Y325230D01*
X141523Y325173D01*
X141486Y325114D01*
X141452Y325054D01*
X141420Y324993D01*
X141391Y324930D01*
X141365Y324866D01*
X141341Y324801D01*
X141320Y324735D01*
X141301Y324669D01*
X141286Y324601D01*
X141273Y324533D01*
X141263Y324465D01*
X141256Y324396D01*
X141252Y324327D01*
X141250Y324258D01*
X141252Y324189D01*
X141256Y324119D01*
X141263Y324051D01*
X141273Y323982D01*
X141286Y323914D01*
X141301Y323847D01*
X141320Y323780D01*
X141341Y323714D01*
X141365Y323649D01*
X141391Y323586D01*
X141420Y323523D01*
X141452Y323461D01*
X141486Y323401D01*
X141523Y323342D01*
X141562Y323285D01*
X141603Y323230D01*
X141647Y323176D01*
X141692Y323124D01*
X141740Y323074D01*
X141790Y323026D01*
X141842Y322981D01*
X141896Y322937D01*
X141951Y322896D01*
X142008Y322857D01*
X142067Y322820D01*
X142127Y322786D01*
X142189Y322754D01*
X142251Y322725D01*
X142315Y322699D01*
X142380Y322675D01*
X142446Y322654D01*
X142513Y322635D01*
X142580Y322620D01*
X142648Y322607D01*
X142717Y322597D01*
X142785Y322590D01*
X142854Y322586D01*
X142924Y322584D01*
X142993Y322586D01*
X143062Y322590D01*
X143131Y322597D01*
X143199Y322607D01*
X143267Y322620D01*
X143334Y322635D01*
X143401Y322654D01*
X143467Y322675D01*
X143532Y322699D01*
X143596Y322725D01*
X143659Y322754D01*
X143720Y322786D01*
X143780Y322820D01*
X143839Y322857D01*
X143896Y322896D01*
X143951Y322937D01*
X144005Y322981D01*
X144057Y323026D01*
X144107Y323074D01*
X144155Y323124D01*
X144201Y323176D01*
X144244Y323230D01*
X144286Y323285D01*
X144325Y323342D01*
X144361Y323401D01*
X144395Y323461D01*
X144427Y323523D01*
X144456Y323586D01*
X144483Y323649D01*
X144507Y323714D01*
X144528Y323780D01*
X144546Y323847D01*
X144562Y323914D01*
X144574Y323982D01*
X144584Y324051D01*
X144591Y324119D01*
X144596Y324189D01*
X144597Y324258D01*
X144596Y324327D01*
X144591Y324396D01*
X144584Y324465D01*
X144574Y324533D01*
X144562Y324601D01*
X144546Y324669D01*
X144528Y324735D01*
X144507Y324801D01*
X144483Y324866D01*
X144456Y324930D01*
X144427Y324993D01*
X144395Y325054D01*
X144361Y325114D01*
X144325Y325173D01*
X144286Y325230D01*
X144244Y325286D01*
X144201Y325339D01*
X144155Y325391D01*
X144107Y325441D01*
X144057Y325489D01*
X144005Y325535D01*
X143951Y325578D01*
X143896Y325620D01*
X143839Y325659D01*
X143780Y325695D01*
X143720Y325730D01*
X143659Y325761D01*
X143596Y325790D01*
X143532Y325817D01*
X143467Y325841D01*
X143401Y325862D01*
X143334Y325880D01*
X143267Y325896D01*
X143199Y325908D01*
X143131Y325919D01*
X143062Y325926D01*
X142993Y325930D01*
X142924Y325931D01*
D02*
G37*
G36*
X161723Y325144D02*
X161654Y325143D01*
X161585Y325138D01*
X161516Y325131D01*
X161447Y325121D01*
X161379Y325108D01*
X161312Y325093D01*
X161245Y325074D01*
X161179Y325053D01*
X161115Y325029D01*
X161050Y325003D01*
X160988Y324974D01*
X160926Y324942D01*
X160866Y324908D01*
X160808Y324871D01*
X160750Y324832D01*
X160695Y324791D01*
X160641Y324747D01*
X160589Y324702D01*
X160539Y324654D01*
X160492Y324604D01*
X160446Y324552D01*
X160402Y324498D01*
X160361Y324443D01*
X160322Y324386D01*
X160285Y324327D01*
X160251Y324267D01*
X160219Y324205D01*
X160190Y324143D01*
X160164Y324079D01*
X160140Y324014D01*
X160119Y323948D01*
X160100Y323881D01*
X160085Y323814D01*
X160072Y323746D01*
X160062Y323677D01*
X160055Y323608D01*
X160051Y323539D01*
X160049Y323470D01*
X160051Y323401D01*
X160055Y323332D01*
X160062Y323263D01*
X160072Y323195D01*
X160085Y323127D01*
X160100Y323060D01*
X160119Y322993D01*
X160140Y322927D01*
X160164Y322862D01*
X160190Y322798D01*
X160219Y322735D01*
X160251Y322674D01*
X160285Y322614D01*
X160322Y322555D01*
X160361Y322498D01*
X160402Y322442D01*
X160446Y322389D01*
X160492Y322337D01*
X160539Y322287D01*
X160589Y322239D01*
X160641Y322193D01*
X160695Y322150D01*
X160750Y322108D01*
X160808Y322069D01*
X160866Y322033D01*
X160926Y321999D01*
X160988Y321967D01*
X161050Y321938D01*
X161115Y321911D01*
X161179Y321887D01*
X161245Y321866D01*
X161312Y321848D01*
X161379Y321832D01*
X161447Y321820D01*
X161516Y321810D01*
X161585Y321802D01*
X161654Y321798D01*
X161723Y321797D01*
X161792Y321798D01*
X161861Y321802D01*
X161930Y321810D01*
X161998Y321820D01*
X162066Y321832D01*
X162134Y321848D01*
X162200Y321866D01*
X162266Y321887D01*
X162331Y321911D01*
X162395Y321938D01*
X162458Y321967D01*
X162519Y321999D01*
X162580Y322033D01*
X162638Y322069D01*
X162695Y322108D01*
X162751Y322150D01*
X162804Y322193D01*
X162856Y322239D01*
X162906Y322287D01*
X162954Y322337D01*
X163000Y322389D01*
X163043Y322442D01*
X163085Y322498D01*
X163124Y322555D01*
X163161Y322614D01*
X163195Y322674D01*
X163226Y322735D01*
X163255Y322798D01*
X163282Y322862D01*
X163306Y322927D01*
X163327Y322993D01*
X163345Y323060D01*
X163361Y323127D01*
X163374Y323195D01*
X163383Y323263D01*
X163391Y323332D01*
X163395Y323401D01*
X163396Y323470D01*
X163395Y323539D01*
X163391Y323608D01*
X163383Y323677D01*
X163374Y323746D01*
X163361Y323814D01*
X163345Y323881D01*
X163327Y323948D01*
X163306Y324014D01*
X163282Y324079D01*
X163255Y324143D01*
X163226Y324205D01*
X163195Y324267D01*
X163161Y324327D01*
X163124Y324386D01*
X163085Y324443D01*
X163043Y324498D01*
X163000Y324552D01*
X162954Y324604D01*
X162906Y324654D01*
X162856Y324702D01*
X162804Y324747D01*
X162751Y324791D01*
X162695Y324832D01*
X162638Y324871D01*
X162580Y324908D01*
X162519Y324942D01*
X162458Y324974D01*
X162395Y325003D01*
X162331Y325029D01*
X162266Y325053D01*
X162200Y325074D01*
X162134Y325093D01*
X162066Y325108D01*
X161998Y325121D01*
X161930Y325131D01*
X161861Y325138D01*
X161792Y325143D01*
X161723Y325144D01*
D02*
G37*
G36*
X142707Y318647D02*
X142638Y318646D01*
X142569Y318641D01*
X142500Y318634D01*
X142431Y318624D01*
X142363Y318612D01*
X142296Y318596D01*
X142229Y318578D01*
X142163Y318556D01*
X142098Y318533D01*
X142034Y318506D01*
X141972Y318477D01*
X141910Y318445D01*
X141850Y318411D01*
X141791Y318375D01*
X141734Y318336D01*
X141679Y318294D01*
X141625Y318251D01*
X141573Y318205D01*
X141523Y318157D01*
X141475Y318107D01*
X141430Y318055D01*
X141386Y318002D01*
X141345Y317946D01*
X141306Y317889D01*
X141269Y317830D01*
X141235Y317770D01*
X141203Y317709D01*
X141174Y317646D01*
X141148Y317582D01*
X141124Y317517D01*
X141103Y317451D01*
X141084Y317385D01*
X141069Y317317D01*
X141056Y317249D01*
X141046Y317181D01*
X141039Y317112D01*
X141035Y317043D01*
X141033Y316974D01*
X141035Y316904D01*
X141039Y316835D01*
X141046Y316767D01*
X141056Y316698D01*
X141069Y316630D01*
X141084Y316563D01*
X141103Y316496D01*
X141124Y316430D01*
X141148Y316365D01*
X141174Y316301D01*
X141203Y316239D01*
X141235Y316177D01*
X141269Y316117D01*
X141306Y316058D01*
X141345Y316001D01*
X141386Y315946D01*
X141430Y315892D01*
X141475Y315840D01*
X141523Y315790D01*
X141573Y315742D01*
X141625Y315697D01*
X141679Y315653D01*
X141734Y315612D01*
X141791Y315573D01*
X141850Y315536D01*
X141910Y315502D01*
X141972Y315470D01*
X142034Y315441D01*
X142098Y315415D01*
X142163Y315391D01*
X142229Y315370D01*
X142296Y315351D01*
X142363Y315336D01*
X142431Y315323D01*
X142500Y315313D01*
X142569Y315306D01*
X142638Y315301D01*
X142707Y315300D01*
X142776Y315301D01*
X142845Y315306D01*
X142914Y315313D01*
X142982Y315323D01*
X143050Y315336D01*
X143118Y315351D01*
X143184Y315370D01*
X143250Y315391D01*
X143315Y315415D01*
X143379Y315441D01*
X143442Y315470D01*
X143503Y315502D01*
X143563Y315536D01*
X143622Y315573D01*
X143679Y315612D01*
X143735Y315653D01*
X143788Y315697D01*
X143840Y315742D01*
X143890Y315790D01*
X143938Y315840D01*
X143984Y315892D01*
X144027Y315946D01*
X144069Y316001D01*
X144108Y316058D01*
X144144Y316117D01*
X144179Y316177D01*
X144210Y316239D01*
X144239Y316301D01*
X144266Y316365D01*
X144290Y316430D01*
X144311Y316496D01*
X144329Y316563D01*
X144345Y316630D01*
X144358Y316698D01*
X144368Y316767D01*
X144375Y316835D01*
X144379Y316904D01*
X144380Y316974D01*
X144379Y317043D01*
X144375Y317112D01*
X144368Y317181D01*
X144358Y317249D01*
X144345Y317317D01*
X144329Y317385D01*
X144311Y317451D01*
X144290Y317517D01*
X144266Y317582D01*
X144239Y317646D01*
X144210Y317709D01*
X144179Y317770D01*
X144144Y317830D01*
X144108Y317889D01*
X144069Y317946D01*
X144027Y318002D01*
X143984Y318055D01*
X143938Y318107D01*
X143890Y318157D01*
X143840Y318205D01*
X143788Y318251D01*
X143735Y318294D01*
X143679Y318336D01*
X143622Y318375D01*
X143563Y318411D01*
X143503Y318445D01*
X143442Y318477D01*
X143379Y318506D01*
X143315Y318533D01*
X143250Y318556D01*
X143184Y318578D01*
X143118Y318596D01*
X143050Y318612D01*
X142982Y318624D01*
X142914Y318634D01*
X142845Y318641D01*
X142776Y318646D01*
X142707Y318647D01*
D02*
G37*
G36*
X138770D02*
X138701Y318646D01*
X138632Y318641D01*
X138563Y318634D01*
X138494Y318624D01*
X138426Y318612D01*
X138359Y318596D01*
X138292Y318578D01*
X138226Y318556D01*
X138161Y318533D01*
X138098Y318506D01*
X138035Y318477D01*
X137973Y318445D01*
X137913Y318411D01*
X137854Y318375D01*
X137797Y318336D01*
X137742Y318294D01*
X137688Y318251D01*
X137636Y318205D01*
X137586Y318157D01*
X137539Y318107D01*
X137493Y318055D01*
X137449Y318002D01*
X137408Y317946D01*
X137369Y317889D01*
X137332Y317830D01*
X137298Y317770D01*
X137266Y317709D01*
X137237Y317646D01*
X137211Y317582D01*
X137187Y317517D01*
X137166Y317451D01*
X137147Y317385D01*
X137132Y317317D01*
X137119Y317249D01*
X137109Y317181D01*
X137102Y317112D01*
X137098Y317043D01*
X137096Y316974D01*
X137098Y316904D01*
X137102Y316835D01*
X137109Y316767D01*
X137119Y316698D01*
X137132Y316630D01*
X137147Y316563D01*
X137166Y316496D01*
X137187Y316430D01*
X137211Y316365D01*
X137237Y316301D01*
X137266Y316239D01*
X137298Y316177D01*
X137332Y316117D01*
X137369Y316058D01*
X137408Y316001D01*
X137449Y315946D01*
X137493Y315892D01*
X137539Y315840D01*
X137586Y315790D01*
X137636Y315742D01*
X137688Y315697D01*
X137742Y315653D01*
X137797Y315612D01*
X137854Y315573D01*
X137913Y315536D01*
X137973Y315502D01*
X138035Y315470D01*
X138098Y315441D01*
X138161Y315415D01*
X138226Y315391D01*
X138292Y315370D01*
X138359Y315351D01*
X138426Y315336D01*
X138494Y315323D01*
X138563Y315313D01*
X138632Y315306D01*
X138701Y315301D01*
X138770Y315300D01*
X138839Y315301D01*
X138908Y315306D01*
X138977Y315313D01*
X139045Y315323D01*
X139113Y315336D01*
X139181Y315351D01*
X139247Y315370D01*
X139313Y315391D01*
X139378Y315415D01*
X139442Y315441D01*
X139505Y315470D01*
X139566Y315502D01*
X139627Y315536D01*
X139685Y315573D01*
X139742Y315612D01*
X139798Y315653D01*
X139851Y315697D01*
X139903Y315742D01*
X139953Y315790D01*
X140001Y315840D01*
X140047Y315892D01*
X140091Y315946D01*
X140132Y316001D01*
X140171Y316058D01*
X140208Y316117D01*
X140242Y316177D01*
X140273Y316239D01*
X140302Y316301D01*
X140329Y316365D01*
X140353Y316430D01*
X140374Y316496D01*
X140392Y316563D01*
X140408Y316630D01*
X140420Y316698D01*
X140430Y316767D01*
X140438Y316835D01*
X140442Y316904D01*
X140443Y316974D01*
X140442Y317043D01*
X140438Y317112D01*
X140430Y317181D01*
X140420Y317249D01*
X140408Y317317D01*
X140392Y317385D01*
X140374Y317451D01*
X140353Y317517D01*
X140329Y317582D01*
X140302Y317646D01*
X140273Y317709D01*
X140242Y317770D01*
X140208Y317830D01*
X140171Y317889D01*
X140132Y317946D01*
X140091Y318002D01*
X140047Y318055D01*
X140001Y318107D01*
X139953Y318157D01*
X139903Y318205D01*
X139851Y318251D01*
X139798Y318294D01*
X139742Y318336D01*
X139685Y318375D01*
X139627Y318411D01*
X139566Y318445D01*
X139505Y318477D01*
X139442Y318506D01*
X139378Y318533D01*
X139313Y318556D01*
X139247Y318578D01*
X139181Y318596D01*
X139113Y318612D01*
X139045Y318624D01*
X138977Y318634D01*
X138908Y318641D01*
X138839Y318646D01*
X138770Y318647D01*
D02*
G37*
G36*
X208888Y313800D02*
X208793Y313799D01*
X208698Y313794D01*
X208602Y313787D01*
X208507Y313776D01*
X208413Y313763D01*
X208319Y313746D01*
X208225Y313727D01*
X208133Y313705D01*
X208041Y313680D01*
X207949Y313652D01*
X207859Y313621D01*
X207770Y313587D01*
X207682Y313550D01*
X207595Y313511D01*
X207509Y313469D01*
X207425Y313424D01*
X207342Y313377D01*
X207260Y313327D01*
X207181Y313275D01*
X207103Y313220D01*
X207026Y313163D01*
X206952Y313103D01*
X206879Y313041D01*
X206809Y312977D01*
X206740Y312911D01*
X206674Y312842D01*
X206610Y312771D01*
X206548Y312699D01*
X206488Y312624D01*
X206431Y312548D01*
X206376Y312470D01*
X206323Y312390D01*
X206274Y312309D01*
X206226Y312226D01*
X206182Y312142D01*
X206139Y312056D01*
X206100Y311969D01*
X206064Y311881D01*
X206030Y311791D01*
X205999Y311701D01*
X205971Y311610D01*
X205946Y311518D01*
X205924Y311425D01*
X205904Y311332D01*
X205888Y311238D01*
X205874Y311143D01*
X205864Y311048D01*
X205856Y310953D01*
X205852Y310858D01*
X205850Y310763D01*
X205852Y310667D01*
X205856Y310572D01*
X205864Y310477D01*
X205874Y310382D01*
X205888Y310287D01*
X205904Y310193D01*
X205924Y310100D01*
X205946Y310007D01*
X205971Y309915D01*
X205999Y309824D01*
X206030Y309734D01*
X206064Y309644D01*
X206100Y309556D01*
X206139Y309469D01*
X206182Y309383D01*
X206226Y309299D01*
X206274Y309216D01*
X206323Y309135D01*
X206376Y309055D01*
X206431Y308977D01*
X206488Y308901D01*
X206548Y308826D01*
X206610Y308754D01*
X206674Y308683D01*
X206740Y308614D01*
X206809Y308548D01*
X206879Y308484D01*
X206952Y308422D01*
X207026Y308362D01*
X207103Y308305D01*
X207181Y308250D01*
X207260Y308198D01*
X207342Y308148D01*
X207425Y308101D01*
X207509Y308056D01*
X207595Y308014D01*
X207682Y307975D01*
X207770Y307938D01*
X207859Y307904D01*
X207949Y307873D01*
X208041Y307845D01*
X208133Y307820D01*
X208225Y307798D01*
X208319Y307779D01*
X208413Y307762D01*
X208507Y307749D01*
X208602Y307738D01*
X208698Y307731D01*
X208793Y307726D01*
X208888Y307725D01*
X208984Y307726D01*
X209079Y307731D01*
X209174Y307738D01*
X209269Y307749D01*
X209363Y307762D01*
X209457Y307779D01*
X209551Y307798D01*
X209644Y307820D01*
X209736Y307845D01*
X209827Y307873D01*
X209917Y307904D01*
X210006Y307938D01*
X210095Y307975D01*
X210182Y308014D01*
X210267Y308056D01*
X210352Y308101D01*
X210435Y308148D01*
X210516Y308198D01*
X210596Y308250D01*
X210674Y308305D01*
X210750Y308362D01*
X210824Y308422D01*
X210897Y308484D01*
X210968Y308548D01*
X211036Y308614D01*
X211103Y308683D01*
X211167Y308754D01*
X211229Y308826D01*
X211288Y308901D01*
X211346Y308977D01*
X211401Y309055D01*
X211453Y309135D01*
X211503Y309216D01*
X211550Y309299D01*
X211595Y309383D01*
X211637Y309469D01*
X211676Y309556D01*
X211713Y309644D01*
X211746Y309734D01*
X211777Y309824D01*
X211805Y309915D01*
X211830Y310007D01*
X211853Y310100D01*
X211872Y310193D01*
X211889Y310287D01*
X211902Y310382D01*
X211912Y310477D01*
X211920Y310572D01*
X211925Y310667D01*
X211926Y310763D01*
X211925Y310858D01*
X211920Y310953D01*
X211912Y311048D01*
X211902Y311143D01*
X211889Y311238D01*
X211872Y311332D01*
X211853Y311425D01*
X211830Y311518D01*
X211805Y311610D01*
X211777Y311701D01*
X211746Y311791D01*
X211713Y311881D01*
X211676Y311969D01*
X211637Y312056D01*
X211595Y312142D01*
X211550Y312226D01*
X211503Y312309D01*
X211453Y312390D01*
X211401Y312470D01*
X211346Y312548D01*
X211288Y312624D01*
X211229Y312699D01*
X211167Y312771D01*
X211103Y312842D01*
X211036Y312911D01*
X210968Y312977D01*
X210897Y313041D01*
X210824Y313103D01*
X210750Y313163D01*
X210674Y313220D01*
X210596Y313275D01*
X210516Y313327D01*
X210435Y313377D01*
X210352Y313424D01*
X210267Y313469D01*
X210182Y313511D01*
X210095Y313550D01*
X210006Y313587D01*
X209917Y313621D01*
X209827Y313652D01*
X209736Y313680D01*
X209644Y313705D01*
X209551Y313727D01*
X209457Y313746D01*
X209363Y313763D01*
X209269Y313776D01*
X209174Y313787D01*
X209079Y313794D01*
X208984Y313799D01*
X208888Y313800D01*
D02*
G37*
G36*
X156900Y300183D02*
X156831Y300182D01*
X156762Y300178D01*
X156693Y300170D01*
X156624Y300161D01*
X156556Y300148D01*
X156489Y300132D01*
X156422Y300114D01*
X156357Y300093D01*
X156292Y300069D01*
X156228Y300042D01*
X156165Y300013D01*
X156103Y299982D01*
X156043Y299947D01*
X155985Y299911D01*
X155928Y299872D01*
X155872Y299830D01*
X155818Y299787D01*
X155766Y299741D01*
X155717Y299693D01*
X155669Y299643D01*
X155623Y299591D01*
X155579Y299538D01*
X155538Y299482D01*
X155499Y299425D01*
X155462Y299366D01*
X155428Y299306D01*
X155396Y299245D01*
X155367Y299182D01*
X155341Y299118D01*
X155317Y299053D01*
X155296Y298987D01*
X155278Y298921D01*
X155262Y298853D01*
X155249Y298785D01*
X155239Y298717D01*
X155232Y298648D01*
X155228Y298579D01*
X155226Y298510D01*
X155228Y298441D01*
X155232Y298372D01*
X155239Y298303D01*
X155249Y298234D01*
X155262Y298166D01*
X155278Y298099D01*
X155296Y298032D01*
X155317Y297966D01*
X155341Y297901D01*
X155367Y297837D01*
X155396Y297775D01*
X155428Y297713D01*
X155462Y297653D01*
X155499Y297594D01*
X155538Y297537D01*
X155579Y297482D01*
X155623Y297428D01*
X155669Y297376D01*
X155717Y297326D01*
X155766Y297278D01*
X155818Y297233D01*
X155872Y297189D01*
X155928Y297148D01*
X155985Y297109D01*
X156043Y297072D01*
X156103Y297038D01*
X156165Y297006D01*
X156228Y296977D01*
X156292Y296951D01*
X156357Y296927D01*
X156422Y296906D01*
X156489Y296887D01*
X156556Y296872D01*
X156624Y296859D01*
X156693Y296849D01*
X156762Y296842D01*
X156831Y296838D01*
X156900Y296836D01*
X156969Y296838D01*
X157038Y296842D01*
X157107Y296849D01*
X157176Y296859D01*
X157243Y296872D01*
X157311Y296887D01*
X157378Y296906D01*
X157443Y296927D01*
X157508Y296951D01*
X157572Y296977D01*
X157635Y297006D01*
X157696Y297038D01*
X157757Y297072D01*
X157815Y297109D01*
X157872Y297148D01*
X157928Y297189D01*
X157982Y297233D01*
X158034Y297278D01*
X158083Y297326D01*
X158131Y297376D01*
X158177Y297428D01*
X158221Y297482D01*
X158262Y297537D01*
X158301Y297594D01*
X158338Y297653D01*
X158372Y297713D01*
X158404Y297775D01*
X158433Y297837D01*
X158459Y297901D01*
X158483Y297966D01*
X158504Y298032D01*
X158522Y298099D01*
X158538Y298166D01*
X158551Y298234D01*
X158561Y298303D01*
X158568Y298372D01*
X158572Y298441D01*
X158574Y298510D01*
X158572Y298579D01*
X158568Y298648D01*
X158561Y298717D01*
X158551Y298785D01*
X158538Y298853D01*
X158522Y298921D01*
X158504Y298987D01*
X158483Y299053D01*
X158459Y299118D01*
X158433Y299182D01*
X158404Y299245D01*
X158372Y299306D01*
X158338Y299366D01*
X158301Y299425D01*
X158262Y299482D01*
X158221Y299538D01*
X158177Y299591D01*
X158131Y299643D01*
X158083Y299693D01*
X158034Y299741D01*
X157982Y299787D01*
X157928Y299830D01*
X157872Y299872D01*
X157815Y299911D01*
X157757Y299947D01*
X157696Y299982D01*
X157635Y300013D01*
X157572Y300042D01*
X157508Y300069D01*
X157443Y300093D01*
X157378Y300114D01*
X157311Y300132D01*
X157243Y300148D01*
X157176Y300161D01*
X157107Y300170D01*
X157038Y300178D01*
X156969Y300182D01*
X156900Y300183D01*
D02*
G37*
G36*
X92032Y329269D02*
X91936Y329267D01*
X91841Y329263D01*
X91746Y329255D01*
X91651Y329245D01*
X91556Y329231D01*
X91462Y329215D01*
X91369Y329195D01*
X91276Y329173D01*
X91184Y329148D01*
X91093Y329120D01*
X91003Y329089D01*
X90913Y329055D01*
X90825Y329019D01*
X90738Y328980D01*
X90652Y328938D01*
X90568Y328893D01*
X90485Y328846D01*
X90404Y328796D01*
X90324Y328743D01*
X90246Y328689D01*
X90170Y328631D01*
X90095Y328572D01*
X90023Y328510D01*
X89952Y328445D01*
X89884Y328379D01*
X89817Y328310D01*
X89753Y328240D01*
X89691Y328167D01*
X89631Y328093D01*
X89574Y328016D01*
X89519Y327938D01*
X89467Y327859D01*
X89417Y327777D01*
X89369Y327694D01*
X89325Y327610D01*
X89283Y327524D01*
X89244Y327437D01*
X89207Y327349D01*
X89173Y327260D01*
X89142Y327170D01*
X89114Y327078D01*
X89089Y326986D01*
X89067Y326894D01*
X89047Y326800D01*
X89031Y326706D01*
X89018Y326612D01*
X89007Y326517D01*
X89000Y326422D01*
X88995Y326326D01*
X88994Y326231D01*
X88995Y326135D01*
X89000Y326040D01*
X89007Y325945D01*
X89018Y325850D01*
X89031Y325756D01*
X89047Y325662D01*
X89067Y325568D01*
X89089Y325476D01*
X89114Y325383D01*
X89142Y325292D01*
X89173Y325202D01*
X89207Y325113D01*
X89244Y325025D01*
X89283Y324938D01*
X89325Y324852D01*
X89369Y324767D01*
X89417Y324685D01*
X89467Y324603D01*
X89519Y324523D01*
X89574Y324445D01*
X89631Y324369D01*
X89691Y324295D01*
X89753Y324222D01*
X89817Y324151D01*
X89884Y324083D01*
X89952Y324016D01*
X90023Y323952D01*
X90095Y323890D01*
X90170Y323831D01*
X90246Y323773D01*
X90324Y323718D01*
X90404Y323666D01*
X90485Y323616D01*
X90568Y323569D01*
X90652Y323524D01*
X90738Y323482D01*
X90825Y323443D01*
X90913Y323407D01*
X91003Y323373D01*
X91093Y323342D01*
X91184Y323314D01*
X91276Y323289D01*
X91369Y323266D01*
X91462Y323247D01*
X91556Y323231D01*
X91651Y323217D01*
X91746Y323207D01*
X91841Y323199D01*
X91936Y323195D01*
X92032Y323193D01*
X92127Y323195D01*
X92222Y323199D01*
X92317Y323207D01*
X92412Y323217D01*
X92507Y323231D01*
X92601Y323247D01*
X92694Y323266D01*
X92787Y323289D01*
X92879Y323314D01*
X92970Y323342D01*
X93060Y323373D01*
X93150Y323407D01*
X93238Y323443D01*
X93325Y323482D01*
X93411Y323524D01*
X93495Y323569D01*
X93578Y323616D01*
X93659Y323666D01*
X93739Y323718D01*
X93817Y323773D01*
X93893Y323831D01*
X93968Y323890D01*
X94040Y323952D01*
X94111Y324016D01*
X94179Y324083D01*
X94246Y324151D01*
X94310Y324222D01*
X94372Y324295D01*
X94432Y324369D01*
X94489Y324445D01*
X94544Y324523D01*
X94596Y324603D01*
X94646Y324685D01*
X94693Y324767D01*
X94738Y324852D01*
X94780Y324938D01*
X94819Y325025D01*
X94856Y325113D01*
X94890Y325202D01*
X94921Y325292D01*
X94949Y325383D01*
X94974Y325476D01*
X94996Y325568D01*
X95016Y325662D01*
X95032Y325756D01*
X95045Y325850D01*
X95056Y325945D01*
X95063Y326040D01*
X95068Y326135D01*
X95069Y326231D01*
X95068Y326326D01*
X95063Y326422D01*
X95056Y326517D01*
X95045Y326612D01*
X95032Y326706D01*
X95016Y326800D01*
X94996Y326894D01*
X94974Y326986D01*
X94949Y327078D01*
X94921Y327170D01*
X94890Y327260D01*
X94856Y327349D01*
X94819Y327437D01*
X94780Y327524D01*
X94738Y327610D01*
X94693Y327694D01*
X94646Y327777D01*
X94596Y327859D01*
X94544Y327938D01*
X94489Y328016D01*
X94432Y328093D01*
X94372Y328167D01*
X94310Y328240D01*
X94246Y328310D01*
X94179Y328379D01*
X94111Y328445D01*
X94040Y328510D01*
X93968Y328572D01*
X93893Y328631D01*
X93817Y328689D01*
X93739Y328743D01*
X93659Y328796D01*
X93578Y328846D01*
X93495Y328893D01*
X93411Y328938D01*
X93325Y328980D01*
X93238Y329019D01*
X93150Y329055D01*
X93060Y329089D01*
X92970Y329120D01*
X92879Y329148D01*
X92787Y329173D01*
X92694Y329195D01*
X92601Y329215D01*
X92507Y329231D01*
X92412Y329245D01*
X92317Y329255D01*
X92222Y329263D01*
X92127Y329267D01*
X92032Y329269D01*
D02*
G37*
G36*
X111031Y329519D02*
X110932Y329517D01*
X110833Y329513D01*
X110734Y329505D01*
X110635Y329495D01*
X110537Y329481D01*
X110439Y329465D01*
X110342Y329446D01*
X110245Y329423D01*
X110149Y329398D01*
X110053Y329370D01*
X109959Y329339D01*
X109866Y329305D01*
X109773Y329268D01*
X109682Y329229D01*
X109592Y329187D01*
X109504Y329142D01*
X109416Y329095D01*
X109331Y329045D01*
X109246Y328992D01*
X109164Y328937D01*
X109083Y328879D01*
X109004Y328819D01*
X108927Y328757D01*
X108851Y328692D01*
X108778Y328625D01*
X108707Y328556D01*
X108637Y328485D01*
X108571Y328411D01*
X108506Y328336D01*
X108443Y328259D01*
X108383Y328180D01*
X108326Y328099D01*
X108271Y328016D01*
X108218Y327932D01*
X108168Y327846D01*
X108120Y327759D01*
X108075Y327670D01*
X108033Y327580D01*
X107994Y327489D01*
X107957Y327397D01*
X107924Y327303D01*
X107893Y327209D01*
X107864Y327114D01*
X107839Y327018D01*
X107817Y326921D01*
X107798Y326824D01*
X107781Y326726D01*
X107768Y326627D01*
X107757Y326529D01*
X107750Y326429D01*
X107745Y326330D01*
X107744Y326231D01*
X107745Y326132D01*
X107750Y326032D01*
X107757Y325933D01*
X107768Y325835D01*
X107781Y325736D01*
X107798Y325638D01*
X107817Y325541D01*
X107839Y325444D01*
X107864Y325348D01*
X107893Y325253D01*
X107924Y325158D01*
X107957Y325065D01*
X107994Y324973D01*
X108033Y324882D01*
X108075Y324792D01*
X108120Y324703D01*
X108168Y324616D01*
X108218Y324530D01*
X108271Y324446D01*
X108326Y324363D01*
X108383Y324282D01*
X108443Y324203D01*
X108506Y324126D01*
X108571Y324051D01*
X108637Y323977D01*
X108707Y323906D01*
X108778Y323837D01*
X108851Y323770D01*
X108927Y323705D01*
X109004Y323643D01*
X109083Y323583D01*
X109164Y323525D01*
X109246Y323470D01*
X109331Y323417D01*
X109416Y323367D01*
X109504Y323320D01*
X109592Y323275D01*
X109682Y323233D01*
X109773Y323193D01*
X109866Y323157D01*
X109959Y323123D01*
X110053Y323092D01*
X110149Y323064D01*
X110245Y323039D01*
X110342Y323016D01*
X110439Y322997D01*
X110537Y322981D01*
X110635Y322967D01*
X110734Y322957D01*
X110833Y322949D01*
X110932Y322945D01*
X111031Y322943D01*
X111131Y322945D01*
X111230Y322949D01*
X111329Y322957D01*
X111428Y322967D01*
X111526Y322981D01*
X111624Y322997D01*
X111722Y323016D01*
X111818Y323039D01*
X111914Y323064D01*
X112010Y323092D01*
X112104Y323123D01*
X112197Y323157D01*
X112290Y323193D01*
X112381Y323233D01*
X112471Y323275D01*
X112559Y323320D01*
X112647Y323367D01*
X112732Y323417D01*
X112817Y323470D01*
X112899Y323525D01*
X112980Y323583D01*
X113059Y323643D01*
X113136Y323705D01*
X113212Y323770D01*
X113285Y323837D01*
X113356Y323906D01*
X113426Y323977D01*
X113492Y324051D01*
X113557Y324126D01*
X113620Y324203D01*
X113680Y324282D01*
X113737Y324363D01*
X113793Y324446D01*
X113845Y324530D01*
X113895Y324616D01*
X113943Y324703D01*
X113988Y324792D01*
X114030Y324882D01*
X114069Y324973D01*
X114106Y325065D01*
X114139Y325158D01*
X114170Y325253D01*
X114199Y325348D01*
X114224Y325444D01*
X114246Y325541D01*
X114265Y325638D01*
X114282Y325736D01*
X114295Y325835D01*
X114306Y325933D01*
X114313Y326032D01*
X114318Y326132D01*
X114319Y326231D01*
X114318Y326330D01*
X114313Y326429D01*
X114306Y326529D01*
X114295Y326627D01*
X114282Y326726D01*
X114265Y326824D01*
X114246Y326921D01*
X114224Y327018D01*
X114199Y327114D01*
X114170Y327209D01*
X114139Y327303D01*
X114106Y327397D01*
X114069Y327489D01*
X114030Y327580D01*
X113988Y327670D01*
X113943Y327759D01*
X113895Y327846D01*
X113845Y327932D01*
X113793Y328016D01*
X113737Y328099D01*
X113680Y328180D01*
X113620Y328259D01*
X113557Y328336D01*
X113492Y328411D01*
X113426Y328485D01*
X113356Y328556D01*
X113285Y328625D01*
X113212Y328692D01*
X113136Y328757D01*
X113059Y328819D01*
X112980Y328879D01*
X112899Y328937D01*
X112817Y328992D01*
X112732Y329045D01*
X112647Y329095D01*
X112559Y329142D01*
X112471Y329187D01*
X112381Y329229D01*
X112290Y329268D01*
X112197Y329305D01*
X112104Y329339D01*
X112010Y329370D01*
X111914Y329398D01*
X111818Y329423D01*
X111722Y329446D01*
X111624Y329465D01*
X111526Y329481D01*
X111428Y329495D01*
X111329Y329505D01*
X111230Y329513D01*
X111131Y329517D01*
X111031Y329519D01*
D02*
G37*
G36*
X101532D02*
X101432Y329517D01*
X101333Y329513D01*
X101234Y329505D01*
X101135Y329495D01*
X101037Y329481D01*
X100939Y329465D01*
X100841Y329446D01*
X100745Y329423D01*
X100649Y329398D01*
X100553Y329370D01*
X100459Y329339D01*
X100366Y329305D01*
X100273Y329268D01*
X100182Y329229D01*
X100092Y329187D01*
X100004Y329142D01*
X99916Y329095D01*
X99831Y329045D01*
X99746Y328992D01*
X99664Y328937D01*
X99583Y328879D01*
X99504Y328819D01*
X99427Y328757D01*
X99351Y328692D01*
X99278Y328625D01*
X99207Y328556D01*
X99138Y328485D01*
X99071Y328411D01*
X99006Y328336D01*
X98943Y328259D01*
X98883Y328180D01*
X98826Y328099D01*
X98770Y328016D01*
X98718Y327932D01*
X98668Y327846D01*
X98620Y327759D01*
X98576Y327670D01*
X98533Y327580D01*
X98494Y327489D01*
X98457Y327397D01*
X98424Y327303D01*
X98393Y327209D01*
X98365Y327114D01*
X98339Y327018D01*
X98317Y326921D01*
X98298Y326824D01*
X98281Y326726D01*
X98268Y326627D01*
X98257Y326529D01*
X98250Y326429D01*
X98245Y326330D01*
X98244Y326231D01*
X98245Y326132D01*
X98250Y326032D01*
X98257Y325933D01*
X98268Y325835D01*
X98281Y325736D01*
X98298Y325638D01*
X98317Y325541D01*
X98339Y325444D01*
X98365Y325348D01*
X98393Y325253D01*
X98424Y325158D01*
X98457Y325065D01*
X98494Y324973D01*
X98533Y324882D01*
X98576Y324792D01*
X98620Y324703D01*
X98668Y324616D01*
X98718Y324530D01*
X98770Y324446D01*
X98826Y324363D01*
X98883Y324282D01*
X98943Y324203D01*
X99006Y324126D01*
X99071Y324051D01*
X99138Y323977D01*
X99207Y323906D01*
X99278Y323837D01*
X99351Y323770D01*
X99427Y323705D01*
X99504Y323643D01*
X99583Y323583D01*
X99664Y323525D01*
X99746Y323470D01*
X99831Y323417D01*
X99916Y323367D01*
X100004Y323320D01*
X100092Y323275D01*
X100182Y323233D01*
X100273Y323193D01*
X100366Y323157D01*
X100459Y323123D01*
X100553Y323092D01*
X100649Y323064D01*
X100745Y323039D01*
X100841Y323016D01*
X100939Y322997D01*
X101037Y322981D01*
X101135Y322967D01*
X101234Y322957D01*
X101333Y322949D01*
X101432Y322945D01*
X101532Y322943D01*
X101631Y322945D01*
X101730Y322949D01*
X101829Y322957D01*
X101928Y322967D01*
X102026Y322981D01*
X102124Y322997D01*
X102222Y323016D01*
X102318Y323039D01*
X102414Y323064D01*
X102510Y323092D01*
X102604Y323123D01*
X102697Y323157D01*
X102790Y323193D01*
X102881Y323233D01*
X102971Y323275D01*
X103059Y323320D01*
X103147Y323367D01*
X103232Y323417D01*
X103317Y323470D01*
X103399Y323525D01*
X103480Y323583D01*
X103559Y323643D01*
X103636Y323705D01*
X103712Y323770D01*
X103785Y323837D01*
X103856Y323906D01*
X103926Y323977D01*
X103992Y324051D01*
X104057Y324126D01*
X104120Y324203D01*
X104180Y324282D01*
X104237Y324363D01*
X104293Y324446D01*
X104345Y324530D01*
X104395Y324616D01*
X104443Y324703D01*
X104488Y324792D01*
X104530Y324882D01*
X104569Y324973D01*
X104606Y325065D01*
X104639Y325158D01*
X104670Y325253D01*
X104699Y325348D01*
X104724Y325444D01*
X104746Y325541D01*
X104765Y325638D01*
X104782Y325736D01*
X104795Y325835D01*
X104806Y325933D01*
X104813Y326032D01*
X104818Y326132D01*
X104819Y326231D01*
X104818Y326330D01*
X104813Y326429D01*
X104806Y326529D01*
X104795Y326627D01*
X104782Y326726D01*
X104765Y326824D01*
X104746Y326921D01*
X104724Y327018D01*
X104699Y327114D01*
X104670Y327209D01*
X104639Y327303D01*
X104606Y327397D01*
X104569Y327489D01*
X104530Y327580D01*
X104488Y327670D01*
X104443Y327759D01*
X104395Y327846D01*
X104345Y327932D01*
X104293Y328016D01*
X104237Y328099D01*
X104180Y328180D01*
X104120Y328259D01*
X104057Y328336D01*
X103992Y328411D01*
X103926Y328485D01*
X103856Y328556D01*
X103785Y328625D01*
X103712Y328692D01*
X103636Y328757D01*
X103559Y328819D01*
X103480Y328879D01*
X103399Y328937D01*
X103317Y328992D01*
X103232Y329045D01*
X103147Y329095D01*
X103059Y329142D01*
X102971Y329187D01*
X102881Y329229D01*
X102790Y329268D01*
X102697Y329305D01*
X102604Y329339D01*
X102510Y329370D01*
X102414Y329398D01*
X102318Y329423D01*
X102222Y329446D01*
X102124Y329465D01*
X102026Y329481D01*
X101928Y329495D01*
X101829Y329505D01*
X101730Y329513D01*
X101631Y329517D01*
X101532Y329519D01*
D02*
G37*
G36*
X85935Y323252D02*
X85866Y323251D01*
X85797Y323246D01*
X85728Y323239D01*
X85660Y323229D01*
X85592Y323217D01*
X85525Y323201D01*
X85458Y323183D01*
X85392Y323162D01*
X85327Y323138D01*
X85263Y323111D01*
X85200Y323082D01*
X85139Y323050D01*
X85079Y323016D01*
X85020Y322980D01*
X84963Y322941D01*
X84908Y322899D01*
X84854Y322856D01*
X84802Y322810D01*
X84752Y322762D01*
X84704Y322712D01*
X84658Y322660D01*
X84615Y322606D01*
X84573Y322551D01*
X84534Y322494D01*
X84498Y322435D01*
X84464Y322375D01*
X84432Y322314D01*
X84403Y322251D01*
X84376Y322187D01*
X84352Y322122D01*
X84331Y322056D01*
X84313Y321989D01*
X84298Y321922D01*
X84285Y321854D01*
X84275Y321786D01*
X84268Y321717D01*
X84263Y321648D01*
X84262Y321579D01*
X84263Y321509D01*
X84268Y321440D01*
X84275Y321372D01*
X84285Y321303D01*
X84298Y321235D01*
X84313Y321168D01*
X84331Y321101D01*
X84352Y321035D01*
X84376Y320970D01*
X84403Y320906D01*
X84432Y320844D01*
X84464Y320782D01*
X84498Y320722D01*
X84534Y320663D01*
X84573Y320606D01*
X84615Y320551D01*
X84658Y320497D01*
X84704Y320445D01*
X84752Y320395D01*
X84802Y320347D01*
X84854Y320302D01*
X84908Y320258D01*
X84963Y320216D01*
X85020Y320178D01*
X85079Y320141D01*
X85139Y320107D01*
X85200Y320075D01*
X85263Y320046D01*
X85327Y320020D01*
X85392Y319996D01*
X85458Y319975D01*
X85525Y319956D01*
X85592Y319941D01*
X85660Y319928D01*
X85728Y319918D01*
X85797Y319911D01*
X85866Y319906D01*
X85935Y319905D01*
X86005Y319906D01*
X86074Y319911D01*
X86142Y319918D01*
X86211Y319928D01*
X86279Y319941D01*
X86346Y319956D01*
X86413Y319975D01*
X86479Y319996D01*
X86544Y320020D01*
X86608Y320046D01*
X86671Y320075D01*
X86732Y320107D01*
X86792Y320141D01*
X86851Y320178D01*
X86908Y320216D01*
X86963Y320258D01*
X87017Y320302D01*
X87069Y320347D01*
X87119Y320395D01*
X87167Y320445D01*
X87213Y320497D01*
X87256Y320551D01*
X87297Y320606D01*
X87336Y320663D01*
X87373Y320722D01*
X87407Y320782D01*
X87439Y320844D01*
X87468Y320906D01*
X87494Y320970D01*
X87518Y321035D01*
X87539Y321101D01*
X87558Y321168D01*
X87573Y321235D01*
X87586Y321303D01*
X87596Y321372D01*
X87603Y321440D01*
X87608Y321509D01*
X87609Y321579D01*
X87608Y321648D01*
X87603Y321717D01*
X87596Y321786D01*
X87586Y321854D01*
X87573Y321922D01*
X87558Y321989D01*
X87539Y322056D01*
X87518Y322122D01*
X87494Y322187D01*
X87468Y322251D01*
X87439Y322314D01*
X87407Y322375D01*
X87373Y322435D01*
X87336Y322494D01*
X87297Y322551D01*
X87256Y322606D01*
X87213Y322660D01*
X87167Y322712D01*
X87119Y322762D01*
X87069Y322810D01*
X87017Y322856D01*
X86963Y322899D01*
X86908Y322941D01*
X86851Y322980D01*
X86792Y323016D01*
X86732Y323050D01*
X86671Y323082D01*
X86608Y323111D01*
X86544Y323138D01*
X86479Y323162D01*
X86413Y323183D01*
X86346Y323201D01*
X86279Y323217D01*
X86211Y323229D01*
X86142Y323239D01*
X86074Y323246D01*
X86005Y323251D01*
X85935Y323252D01*
D02*
G37*
G36*
X87707Y313333D02*
X87638Y313332D01*
X87569Y313327D01*
X87500Y313320D01*
X87432Y313310D01*
X87364Y313297D01*
X87296Y313282D01*
X87230Y313263D01*
X87164Y313242D01*
X87099Y313218D01*
X87035Y313192D01*
X86972Y313163D01*
X86911Y313131D01*
X86850Y313097D01*
X86792Y313060D01*
X86735Y313021D01*
X86679Y312980D01*
X86625Y312936D01*
X86574Y312891D01*
X86524Y312843D01*
X86476Y312793D01*
X86430Y312741D01*
X86386Y312687D01*
X86345Y312632D01*
X86306Y312575D01*
X86269Y312516D01*
X86235Y312456D01*
X86204Y312394D01*
X86174Y312332D01*
X86148Y312268D01*
X86124Y312203D01*
X86103Y312137D01*
X86085Y312070D01*
X86069Y312003D01*
X86056Y311935D01*
X86046Y311866D01*
X86039Y311797D01*
X86035Y311729D01*
X86033Y311659D01*
X86035Y311590D01*
X86039Y311521D01*
X86046Y311452D01*
X86056Y311384D01*
X86069Y311316D01*
X86085Y311248D01*
X86103Y311182D01*
X86124Y311116D01*
X86148Y311051D01*
X86174Y310987D01*
X86204Y310924D01*
X86235Y310863D01*
X86269Y310803D01*
X86306Y310744D01*
X86345Y310687D01*
X86386Y310631D01*
X86430Y310578D01*
X86476Y310526D01*
X86524Y310476D01*
X86574Y310428D01*
X86625Y310382D01*
X86679Y310339D01*
X86735Y310297D01*
X86792Y310258D01*
X86850Y310222D01*
X86911Y310187D01*
X86972Y310156D01*
X87035Y310127D01*
X87099Y310100D01*
X87164Y310076D01*
X87230Y310055D01*
X87296Y310037D01*
X87364Y310021D01*
X87432Y310009D01*
X87500Y309999D01*
X87569Y309991D01*
X87638Y309987D01*
X87707Y309986D01*
X87776Y309987D01*
X87845Y309991D01*
X87914Y309999D01*
X87983Y310009D01*
X88051Y310021D01*
X88118Y310037D01*
X88185Y310055D01*
X88250Y310076D01*
X88315Y310100D01*
X88379Y310127D01*
X88442Y310156D01*
X88504Y310187D01*
X88564Y310222D01*
X88622Y310258D01*
X88680Y310297D01*
X88735Y310339D01*
X88789Y310382D01*
X88841Y310428D01*
X88890Y310476D01*
X88938Y310526D01*
X88984Y310578D01*
X89028Y310631D01*
X89069Y310687D01*
X89108Y310744D01*
X89145Y310803D01*
X89179Y310863D01*
X89211Y310924D01*
X89240Y310987D01*
X89266Y311051D01*
X89290Y311116D01*
X89311Y311182D01*
X89329Y311248D01*
X89345Y311316D01*
X89358Y311384D01*
X89368Y311452D01*
X89375Y311521D01*
X89379Y311590D01*
X89381Y311659D01*
X89379Y311729D01*
X89375Y311797D01*
X89368Y311866D01*
X89358Y311935D01*
X89345Y312003D01*
X89329Y312070D01*
X89311Y312137D01*
X89290Y312203D01*
X89266Y312268D01*
X89240Y312332D01*
X89211Y312394D01*
X89179Y312456D01*
X89145Y312516D01*
X89108Y312575D01*
X89069Y312632D01*
X89028Y312687D01*
X88984Y312741D01*
X88938Y312793D01*
X88890Y312843D01*
X88841Y312891D01*
X88789Y312936D01*
X88735Y312980D01*
X88680Y313021D01*
X88622Y313060D01*
X88564Y313097D01*
X88504Y313131D01*
X88442Y313163D01*
X88379Y313192D01*
X88315Y313218D01*
X88250Y313242D01*
X88185Y313263D01*
X88118Y313282D01*
X88051Y313297D01*
X87983Y313310D01*
X87914Y313320D01*
X87845Y313327D01*
X87776Y313332D01*
X87707Y313333D01*
D02*
G37*
G36*
X116911Y309593D02*
X116842Y309591D01*
X116773Y309587D01*
X116704Y309580D01*
X116636Y309570D01*
X116568Y309557D01*
X116500Y309542D01*
X116434Y309523D01*
X116368Y309502D01*
X116303Y309478D01*
X116239Y309452D01*
X116176Y309423D01*
X116114Y309391D01*
X116054Y309357D01*
X115996Y309320D01*
X115939Y309281D01*
X115883Y309240D01*
X115829Y309196D01*
X115778Y309150D01*
X115728Y309103D01*
X115680Y309053D01*
X115634Y309001D01*
X115590Y308947D01*
X115549Y308892D01*
X115510Y308835D01*
X115473Y308776D01*
X115439Y308716D01*
X115408Y308654D01*
X115378Y308591D01*
X115352Y308527D01*
X115328Y308463D01*
X115307Y308397D01*
X115289Y308330D01*
X115273Y308263D01*
X115260Y308195D01*
X115250Y308126D01*
X115243Y308057D01*
X115239Y307988D01*
X115237Y307919D01*
X115239Y307850D01*
X115243Y307781D01*
X115250Y307712D01*
X115260Y307644D01*
X115273Y307576D01*
X115289Y307508D01*
X115307Y307442D01*
X115328Y307376D01*
X115352Y307311D01*
X115378Y307247D01*
X115408Y307184D01*
X115439Y307123D01*
X115473Y307063D01*
X115510Y307004D01*
X115549Y306947D01*
X115590Y306891D01*
X115634Y306838D01*
X115680Y306786D01*
X115728Y306736D01*
X115778Y306688D01*
X115829Y306642D01*
X115883Y306598D01*
X115939Y306557D01*
X115996Y306518D01*
X116054Y306481D01*
X116114Y306447D01*
X116176Y306416D01*
X116239Y306386D01*
X116303Y306360D01*
X116368Y306336D01*
X116434Y306315D01*
X116500Y306297D01*
X116568Y306281D01*
X116636Y306268D01*
X116704Y306258D01*
X116773Y306251D01*
X116842Y306247D01*
X116911Y306246D01*
X116980Y306247D01*
X117049Y306251D01*
X117118Y306258D01*
X117186Y306268D01*
X117254Y306281D01*
X117322Y306297D01*
X117389Y306315D01*
X117454Y306336D01*
X117519Y306360D01*
X117583Y306386D01*
X117646Y306416D01*
X117708Y306447D01*
X117768Y306481D01*
X117826Y306518D01*
X117884Y306557D01*
X117939Y306598D01*
X117993Y306642D01*
X118044Y306688D01*
X118094Y306736D01*
X118142Y306786D01*
X118188Y306838D01*
X118232Y306891D01*
X118273Y306947D01*
X118312Y307004D01*
X118349Y307063D01*
X118383Y307123D01*
X118415Y307184D01*
X118444Y307247D01*
X118470Y307311D01*
X118494Y307376D01*
X118515Y307442D01*
X118533Y307508D01*
X118549Y307576D01*
X118562Y307644D01*
X118572Y307712D01*
X118579Y307781D01*
X118583Y307850D01*
X118585Y307919D01*
X118583Y307988D01*
X118579Y308057D01*
X118572Y308126D01*
X118562Y308195D01*
X118549Y308263D01*
X118533Y308330D01*
X118515Y308397D01*
X118494Y308463D01*
X118470Y308527D01*
X118444Y308591D01*
X118415Y308654D01*
X118383Y308716D01*
X118349Y308776D01*
X118312Y308835D01*
X118273Y308892D01*
X118232Y308947D01*
X118188Y309001D01*
X118142Y309053D01*
X118094Y309103D01*
X118044Y309150D01*
X117993Y309196D01*
X117939Y309240D01*
X117884Y309281D01*
X117826Y309320D01*
X117768Y309357D01*
X117708Y309391D01*
X117646Y309423D01*
X117583Y309452D01*
X117519Y309478D01*
X117454Y309502D01*
X117389Y309523D01*
X117322Y309542D01*
X117254Y309557D01*
X117186Y309570D01*
X117118Y309580D01*
X117049Y309587D01*
X116980Y309591D01*
X116911Y309593D01*
D02*
G37*
G36*
X106211Y307504D02*
X106142Y307503D01*
X106073Y307498D01*
X106004Y307491D01*
X105936Y307481D01*
X105868Y307469D01*
X105800Y307453D01*
X105734Y307435D01*
X105668Y307413D01*
X105603Y307390D01*
X105539Y307363D01*
X105476Y307334D01*
X105414Y307302D01*
X105354Y307268D01*
X105296Y307232D01*
X105238Y307193D01*
X105183Y307151D01*
X105129Y307108D01*
X105078Y307062D01*
X105028Y307014D01*
X104980Y306964D01*
X104934Y306912D01*
X104890Y306858D01*
X104849Y306803D01*
X104810Y306746D01*
X104773Y306687D01*
X104739Y306627D01*
X104708Y306566D01*
X104678Y306503D01*
X104652Y306439D01*
X104628Y306374D01*
X104607Y306308D01*
X104589Y306241D01*
X104573Y306174D01*
X104560Y306106D01*
X104550Y306038D01*
X104543Y305969D01*
X104539Y305900D01*
X104537Y305831D01*
X104539Y305761D01*
X104543Y305692D01*
X104550Y305624D01*
X104560Y305555D01*
X104573Y305487D01*
X104589Y305420D01*
X104607Y305353D01*
X104628Y305287D01*
X104652Y305222D01*
X104678Y305158D01*
X104708Y305096D01*
X104739Y305034D01*
X104773Y304974D01*
X104810Y304915D01*
X104849Y304858D01*
X104890Y304803D01*
X104934Y304749D01*
X104980Y304697D01*
X105028Y304647D01*
X105078Y304599D01*
X105129Y304554D01*
X105183Y304510D01*
X105238Y304468D01*
X105296Y304430D01*
X105354Y304393D01*
X105414Y304359D01*
X105476Y304327D01*
X105539Y304298D01*
X105603Y304272D01*
X105668Y304248D01*
X105734Y304226D01*
X105800Y304208D01*
X105868Y304193D01*
X105936Y304180D01*
X106004Y304170D01*
X106073Y304163D01*
X106142Y304158D01*
X106211Y304157D01*
X106280Y304158D01*
X106349Y304163D01*
X106418Y304170D01*
X106486Y304180D01*
X106554Y304193D01*
X106622Y304208D01*
X106689Y304226D01*
X106754Y304248D01*
X106819Y304272D01*
X106883Y304298D01*
X106946Y304327D01*
X107008Y304359D01*
X107068Y304393D01*
X107126Y304430D01*
X107184Y304468D01*
X107239Y304510D01*
X107293Y304554D01*
X107344Y304599D01*
X107394Y304647D01*
X107442Y304697D01*
X107488Y304749D01*
X107532Y304803D01*
X107573Y304858D01*
X107612Y304915D01*
X107649Y304974D01*
X107683Y305034D01*
X107715Y305096D01*
X107744Y305158D01*
X107770Y305222D01*
X107794Y305287D01*
X107815Y305353D01*
X107833Y305420D01*
X107849Y305487D01*
X107862Y305555D01*
X107872Y305624D01*
X107879Y305692D01*
X107883Y305761D01*
X107885Y305831D01*
X107883Y305900D01*
X107879Y305969D01*
X107872Y306038D01*
X107862Y306106D01*
X107849Y306174D01*
X107833Y306241D01*
X107815Y306308D01*
X107794Y306374D01*
X107770Y306439D01*
X107744Y306503D01*
X107715Y306566D01*
X107683Y306627D01*
X107649Y306687D01*
X107612Y306746D01*
X107573Y306803D01*
X107532Y306858D01*
X107488Y306912D01*
X107442Y306964D01*
X107394Y307014D01*
X107344Y307062D01*
X107293Y307108D01*
X107239Y307151D01*
X107184Y307193D01*
X107126Y307232D01*
X107068Y307268D01*
X107008Y307302D01*
X106946Y307334D01*
X106883Y307363D01*
X106819Y307390D01*
X106754Y307413D01*
X106689Y307435D01*
X106622Y307453D01*
X106554Y307469D01*
X106486Y307481D01*
X106418Y307491D01*
X106349Y307498D01*
X106280Y307503D01*
X106211Y307504D01*
D02*
G37*
G36*
X96762D02*
X96693Y307503D01*
X96624Y307498D01*
X96555Y307491D01*
X96487Y307481D01*
X96419Y307469D01*
X96351Y307453D01*
X96285Y307435D01*
X96219Y307413D01*
X96154Y307390D01*
X96090Y307363D01*
X96027Y307334D01*
X95966Y307302D01*
X95906Y307268D01*
X95847Y307232D01*
X95790Y307193D01*
X95734Y307151D01*
X95681Y307108D01*
X95629Y307062D01*
X95579Y307014D01*
X95531Y306964D01*
X95485Y306912D01*
X95442Y306858D01*
X95400Y306803D01*
X95361Y306746D01*
X95324Y306687D01*
X95290Y306627D01*
X95259Y306566D01*
X95230Y306503D01*
X95203Y306439D01*
X95179Y306374D01*
X95158Y306308D01*
X95140Y306241D01*
X95124Y306174D01*
X95112Y306106D01*
X95101Y306038D01*
X95094Y305969D01*
X95090Y305900D01*
X95089Y305831D01*
X95090Y305761D01*
X95094Y305692D01*
X95101Y305624D01*
X95112Y305555D01*
X95124Y305487D01*
X95140Y305420D01*
X95158Y305353D01*
X95179Y305287D01*
X95203Y305222D01*
X95230Y305158D01*
X95259Y305096D01*
X95290Y305034D01*
X95324Y304974D01*
X95361Y304915D01*
X95400Y304858D01*
X95442Y304803D01*
X95485Y304749D01*
X95531Y304697D01*
X95579Y304647D01*
X95629Y304599D01*
X95681Y304554D01*
X95734Y304510D01*
X95790Y304468D01*
X95847Y304430D01*
X95906Y304393D01*
X95966Y304359D01*
X96027Y304327D01*
X96090Y304298D01*
X96154Y304272D01*
X96219Y304248D01*
X96285Y304226D01*
X96351Y304208D01*
X96419Y304193D01*
X96487Y304180D01*
X96555Y304170D01*
X96624Y304163D01*
X96693Y304158D01*
X96762Y304157D01*
X96831Y304158D01*
X96900Y304163D01*
X96969Y304170D01*
X97038Y304180D01*
X97106Y304193D01*
X97173Y304208D01*
X97240Y304226D01*
X97306Y304248D01*
X97371Y304272D01*
X97435Y304298D01*
X97497Y304327D01*
X97559Y304359D01*
X97619Y304393D01*
X97678Y304430D01*
X97735Y304468D01*
X97790Y304510D01*
X97844Y304554D01*
X97896Y304599D01*
X97946Y304647D01*
X97993Y304697D01*
X98039Y304749D01*
X98083Y304803D01*
X98124Y304858D01*
X98163Y304915D01*
X98200Y304974D01*
X98234Y305034D01*
X98266Y305096D01*
X98295Y305158D01*
X98321Y305222D01*
X98345Y305287D01*
X98366Y305353D01*
X98385Y305420D01*
X98400Y305487D01*
X98413Y305555D01*
X98423Y305624D01*
X98430Y305692D01*
X98434Y305761D01*
X98436Y305831D01*
X98434Y305900D01*
X98430Y305969D01*
X98423Y306038D01*
X98413Y306106D01*
X98400Y306174D01*
X98385Y306241D01*
X98366Y306308D01*
X98345Y306374D01*
X98321Y306439D01*
X98295Y306503D01*
X98266Y306566D01*
X98234Y306627D01*
X98200Y306687D01*
X98163Y306746D01*
X98124Y306803D01*
X98083Y306858D01*
X98039Y306912D01*
X97993Y306964D01*
X97946Y307014D01*
X97896Y307062D01*
X97844Y307108D01*
X97790Y307151D01*
X97735Y307193D01*
X97678Y307232D01*
X97619Y307268D01*
X97559Y307302D01*
X97497Y307334D01*
X97435Y307363D01*
X97371Y307390D01*
X97306Y307413D01*
X97240Y307435D01*
X97173Y307453D01*
X97106Y307469D01*
X97038Y307481D01*
X96969Y307491D01*
X96900Y307498D01*
X96831Y307503D01*
X96762Y307504D01*
D02*
G37*
G36*
X84459Y305557D02*
X84390Y305556D01*
X84321Y305552D01*
X84252Y305544D01*
X84184Y305535D01*
X84116Y305522D01*
X84048Y305506D01*
X83982Y305488D01*
X83916Y305467D01*
X83851Y305443D01*
X83787Y305416D01*
X83724Y305387D01*
X83662Y305356D01*
X83602Y305321D01*
X83544Y305285D01*
X83487Y305246D01*
X83431Y305204D01*
X83377Y305161D01*
X83326Y305115D01*
X83276Y305067D01*
X83228Y305017D01*
X83182Y304965D01*
X83138Y304912D01*
X83097Y304856D01*
X83058Y304799D01*
X83021Y304740D01*
X82987Y304680D01*
X82955Y304619D01*
X82926Y304556D01*
X82900Y304492D01*
X82876Y304427D01*
X82855Y304361D01*
X82837Y304294D01*
X82821Y304227D01*
X82808Y304159D01*
X82798Y304091D01*
X82791Y304022D01*
X82787Y303953D01*
X82785Y303884D01*
X82787Y303815D01*
X82791Y303746D01*
X82798Y303677D01*
X82808Y303608D01*
X82821Y303540D01*
X82837Y303473D01*
X82855Y303406D01*
X82876Y303340D01*
X82900Y303275D01*
X82926Y303211D01*
X82955Y303149D01*
X82987Y303087D01*
X83021Y303027D01*
X83058Y302968D01*
X83097Y302911D01*
X83138Y302856D01*
X83182Y302802D01*
X83228Y302750D01*
X83276Y302700D01*
X83326Y302652D01*
X83377Y302607D01*
X83431Y302563D01*
X83487Y302522D01*
X83544Y302483D01*
X83602Y302446D01*
X83662Y302412D01*
X83724Y302380D01*
X83787Y302351D01*
X83851Y302325D01*
X83916Y302301D01*
X83982Y302280D01*
X84048Y302261D01*
X84116Y302246D01*
X84184Y302233D01*
X84252Y302223D01*
X84321Y302216D01*
X84390Y302212D01*
X84459Y302210D01*
X84528Y302212D01*
X84597Y302216D01*
X84666Y302223D01*
X84734Y302233D01*
X84803Y302246D01*
X84870Y302261D01*
X84937Y302280D01*
X85002Y302301D01*
X85067Y302325D01*
X85131Y302351D01*
X85194Y302380D01*
X85256Y302412D01*
X85316Y302446D01*
X85374Y302483D01*
X85431Y302522D01*
X85487Y302563D01*
X85541Y302607D01*
X85593Y302652D01*
X85642Y302700D01*
X85690Y302750D01*
X85736Y302802D01*
X85780Y302856D01*
X85821Y302911D01*
X85860Y302968D01*
X85897Y303027D01*
X85931Y303087D01*
X85963Y303149D01*
X85992Y303211D01*
X86018Y303275D01*
X86042Y303340D01*
X86063Y303406D01*
X86081Y303473D01*
X86097Y303540D01*
X86110Y303608D01*
X86120Y303677D01*
X86127Y303746D01*
X86131Y303815D01*
X86133Y303884D01*
X86131Y303953D01*
X86127Y304022D01*
X86120Y304091D01*
X86110Y304159D01*
X86097Y304227D01*
X86081Y304294D01*
X86063Y304361D01*
X86042Y304427D01*
X86018Y304492D01*
X85992Y304556D01*
X85963Y304619D01*
X85931Y304680D01*
X85897Y304740D01*
X85860Y304799D01*
X85821Y304856D01*
X85780Y304912D01*
X85736Y304965D01*
X85690Y305017D01*
X85642Y305067D01*
X85593Y305115D01*
X85541Y305161D01*
X85487Y305204D01*
X85431Y305246D01*
X85374Y305285D01*
X85316Y305321D01*
X85256Y305356D01*
X85194Y305387D01*
X85131Y305416D01*
X85067Y305443D01*
X85002Y305467D01*
X84937Y305488D01*
X84870Y305506D01*
X84803Y305522D01*
X84734Y305535D01*
X84666Y305544D01*
X84597Y305552D01*
X84528Y305556D01*
X84459Y305557D01*
D02*
G37*
G36*
X79341D02*
X79272Y305556D01*
X79203Y305552D01*
X79134Y305544D01*
X79066Y305535D01*
X78997Y305522D01*
X78930Y305506D01*
X78863Y305488D01*
X78798Y305467D01*
X78733Y305443D01*
X78669Y305416D01*
X78606Y305387D01*
X78544Y305356D01*
X78484Y305321D01*
X78426Y305285D01*
X78369Y305246D01*
X78313Y305204D01*
X78259Y305161D01*
X78207Y305115D01*
X78158Y305067D01*
X78110Y305017D01*
X78064Y304965D01*
X78020Y304912D01*
X77979Y304856D01*
X77940Y304799D01*
X77903Y304740D01*
X77869Y304680D01*
X77837Y304619D01*
X77808Y304556D01*
X77782Y304492D01*
X77758Y304427D01*
X77737Y304361D01*
X77719Y304294D01*
X77703Y304227D01*
X77690Y304159D01*
X77680Y304091D01*
X77673Y304022D01*
X77669Y303953D01*
X77667Y303884D01*
X77669Y303815D01*
X77673Y303746D01*
X77680Y303677D01*
X77690Y303608D01*
X77703Y303540D01*
X77719Y303473D01*
X77737Y303406D01*
X77758Y303340D01*
X77782Y303275D01*
X77808Y303211D01*
X77837Y303149D01*
X77869Y303087D01*
X77903Y303027D01*
X77940Y302968D01*
X77979Y302911D01*
X78020Y302856D01*
X78064Y302802D01*
X78110Y302750D01*
X78158Y302700D01*
X78207Y302652D01*
X78259Y302607D01*
X78313Y302563D01*
X78369Y302522D01*
X78426Y302483D01*
X78484Y302446D01*
X78544Y302412D01*
X78606Y302380D01*
X78669Y302351D01*
X78733Y302325D01*
X78798Y302301D01*
X78863Y302280D01*
X78930Y302261D01*
X78997Y302246D01*
X79066Y302233D01*
X79134Y302223D01*
X79203Y302216D01*
X79272Y302212D01*
X79341Y302210D01*
X79410Y302212D01*
X79479Y302216D01*
X79548Y302223D01*
X79616Y302233D01*
X79684Y302246D01*
X79752Y302261D01*
X79818Y302280D01*
X79884Y302301D01*
X79949Y302325D01*
X80013Y302351D01*
X80076Y302380D01*
X80137Y302412D01*
X80198Y302446D01*
X80256Y302483D01*
X80313Y302522D01*
X80369Y302563D01*
X80423Y302607D01*
X80474Y302652D01*
X80524Y302700D01*
X80572Y302750D01*
X80618Y302802D01*
X80662Y302856D01*
X80703Y302911D01*
X80742Y302968D01*
X80779Y303027D01*
X80813Y303087D01*
X80844Y303149D01*
X80874Y303211D01*
X80900Y303275D01*
X80924Y303340D01*
X80945Y303406D01*
X80963Y303473D01*
X80979Y303540D01*
X80992Y303608D01*
X81002Y303677D01*
X81009Y303746D01*
X81013Y303815D01*
X81015Y303884D01*
X81013Y303953D01*
X81009Y304022D01*
X81002Y304091D01*
X80992Y304159D01*
X80979Y304227D01*
X80963Y304294D01*
X80945Y304361D01*
X80924Y304427D01*
X80900Y304492D01*
X80874Y304556D01*
X80844Y304619D01*
X80813Y304680D01*
X80779Y304740D01*
X80742Y304799D01*
X80703Y304856D01*
X80662Y304912D01*
X80618Y304965D01*
X80572Y305017D01*
X80524Y305067D01*
X80474Y305115D01*
X80423Y305161D01*
X80369Y305204D01*
X80313Y305246D01*
X80256Y305285D01*
X80198Y305321D01*
X80137Y305356D01*
X80076Y305387D01*
X80013Y305416D01*
X79949Y305443D01*
X79884Y305467D01*
X79818Y305488D01*
X79752Y305506D01*
X79684Y305522D01*
X79616Y305535D01*
X79548Y305544D01*
X79479Y305552D01*
X79410Y305556D01*
X79341Y305557D01*
D02*
G37*
G36*
X92032Y298265D02*
X91936Y298263D01*
X91841Y298259D01*
X91746Y298251D01*
X91651Y298241D01*
X91556Y298227D01*
X91462Y298211D01*
X91369Y298192D01*
X91276Y298169D01*
X91184Y298144D01*
X91093Y298116D01*
X91003Y298085D01*
X90913Y298052D01*
X90825Y298015D01*
X90738Y297976D01*
X90652Y297934D01*
X90568Y297889D01*
X90485Y297842D01*
X90404Y297792D01*
X90324Y297740D01*
X90246Y297685D01*
X90170Y297627D01*
X90095Y297568D01*
X90023Y297506D01*
X89952Y297441D01*
X89884Y297375D01*
X89817Y297306D01*
X89753Y297236D01*
X89691Y297163D01*
X89631Y297089D01*
X89574Y297013D01*
X89519Y296935D01*
X89467Y296855D01*
X89417Y296773D01*
X89369Y296691D01*
X89325Y296606D01*
X89283Y296520D01*
X89244Y296433D01*
X89207Y296345D01*
X89173Y296256D01*
X89142Y296166D01*
X89114Y296075D01*
X89089Y295983D01*
X89067Y295890D01*
X89047Y295796D01*
X89031Y295702D01*
X89018Y295608D01*
X89007Y295513D01*
X89000Y295418D01*
X88995Y295322D01*
X88994Y295227D01*
X88995Y295132D01*
X89000Y295036D01*
X89007Y294941D01*
X89018Y294846D01*
X89031Y294752D01*
X89047Y294658D01*
X89067Y294564D01*
X89089Y294472D01*
X89114Y294379D01*
X89142Y294288D01*
X89173Y294198D01*
X89207Y294109D01*
X89244Y294021D01*
X89283Y293934D01*
X89325Y293848D01*
X89369Y293763D01*
X89417Y293681D01*
X89467Y293599D01*
X89519Y293519D01*
X89574Y293441D01*
X89631Y293365D01*
X89691Y293291D01*
X89753Y293218D01*
X89817Y293147D01*
X89884Y293079D01*
X89952Y293013D01*
X90023Y292948D01*
X90095Y292886D01*
X90170Y292827D01*
X90246Y292769D01*
X90324Y292715D01*
X90404Y292662D01*
X90485Y292612D01*
X90568Y292565D01*
X90652Y292520D01*
X90738Y292478D01*
X90825Y292439D01*
X90913Y292403D01*
X91003Y292369D01*
X91093Y292338D01*
X91184Y292310D01*
X91276Y292285D01*
X91369Y292262D01*
X91462Y292243D01*
X91556Y292227D01*
X91651Y292213D01*
X91746Y292203D01*
X91841Y292195D01*
X91936Y292191D01*
X92032Y292189D01*
X92127Y292191D01*
X92222Y292195D01*
X92317Y292203D01*
X92412Y292213D01*
X92507Y292227D01*
X92601Y292243D01*
X92694Y292262D01*
X92787Y292285D01*
X92879Y292310D01*
X92970Y292338D01*
X93060Y292369D01*
X93150Y292403D01*
X93238Y292439D01*
X93325Y292478D01*
X93411Y292520D01*
X93495Y292565D01*
X93578Y292612D01*
X93659Y292662D01*
X93739Y292715D01*
X93817Y292769D01*
X93893Y292827D01*
X93968Y292886D01*
X94040Y292948D01*
X94111Y293013D01*
X94179Y293079D01*
X94246Y293147D01*
X94310Y293218D01*
X94372Y293291D01*
X94432Y293365D01*
X94489Y293441D01*
X94544Y293519D01*
X94596Y293599D01*
X94646Y293681D01*
X94693Y293763D01*
X94738Y293848D01*
X94780Y293934D01*
X94819Y294021D01*
X94856Y294109D01*
X94890Y294198D01*
X94921Y294288D01*
X94949Y294379D01*
X94974Y294472D01*
X94996Y294564D01*
X95016Y294658D01*
X95032Y294752D01*
X95045Y294846D01*
X95056Y294941D01*
X95063Y295036D01*
X95068Y295132D01*
X95069Y295227D01*
X95068Y295322D01*
X95063Y295418D01*
X95056Y295513D01*
X95045Y295608D01*
X95032Y295702D01*
X95016Y295796D01*
X94996Y295890D01*
X94974Y295983D01*
X94949Y296075D01*
X94921Y296166D01*
X94890Y296256D01*
X94856Y296345D01*
X94819Y296433D01*
X94780Y296520D01*
X94738Y296606D01*
X94693Y296691D01*
X94646Y296773D01*
X94596Y296855D01*
X94544Y296935D01*
X94489Y297013D01*
X94432Y297089D01*
X94372Y297163D01*
X94310Y297236D01*
X94246Y297306D01*
X94179Y297375D01*
X94111Y297441D01*
X94040Y297506D01*
X93968Y297568D01*
X93893Y297627D01*
X93817Y297685D01*
X93739Y297740D01*
X93659Y297792D01*
X93578Y297842D01*
X93495Y297889D01*
X93411Y297934D01*
X93325Y297976D01*
X93238Y298015D01*
X93150Y298052D01*
X93060Y298085D01*
X92970Y298116D01*
X92879Y298144D01*
X92787Y298169D01*
X92694Y298192D01*
X92601Y298211D01*
X92507Y298227D01*
X92412Y298241D01*
X92317Y298251D01*
X92222Y298259D01*
X92127Y298263D01*
X92032Y298265D01*
D02*
G37*
G36*
X101532Y298515D02*
X101432Y298513D01*
X101333Y298509D01*
X101234Y298501D01*
X101135Y298491D01*
X101037Y298477D01*
X100939Y298461D01*
X100841Y298442D01*
X100745Y298419D01*
X100649Y298394D01*
X100553Y298366D01*
X100459Y298335D01*
X100366Y298301D01*
X100273Y298265D01*
X100182Y298225D01*
X100092Y298183D01*
X100004Y298138D01*
X99916Y298091D01*
X99831Y298041D01*
X99746Y297988D01*
X99664Y297933D01*
X99583Y297875D01*
X99504Y297815D01*
X99427Y297753D01*
X99351Y297688D01*
X99278Y297621D01*
X99207Y297552D01*
X99138Y297481D01*
X99071Y297407D01*
X99006Y297332D01*
X98943Y297255D01*
X98883Y297176D01*
X98826Y297095D01*
X98770Y297012D01*
X98718Y296928D01*
X98668Y296842D01*
X98620Y296755D01*
X98576Y296666D01*
X98533Y296576D01*
X98494Y296485D01*
X98457Y296393D01*
X98424Y296300D01*
X98393Y296205D01*
X98365Y296110D01*
X98339Y296014D01*
X98317Y295917D01*
X98298Y295820D01*
X98281Y295722D01*
X98268Y295623D01*
X98257Y295525D01*
X98250Y295426D01*
X98245Y295326D01*
X98244Y295227D01*
X98245Y295128D01*
X98250Y295028D01*
X98257Y294930D01*
X98268Y294831D01*
X98281Y294732D01*
X98298Y294634D01*
X98317Y294537D01*
X98339Y294440D01*
X98365Y294344D01*
X98393Y294249D01*
X98424Y294155D01*
X98457Y294061D01*
X98494Y293969D01*
X98533Y293878D01*
X98576Y293788D01*
X98620Y293699D01*
X98668Y293612D01*
X98718Y293526D01*
X98770Y293442D01*
X98826Y293359D01*
X98883Y293279D01*
X98943Y293199D01*
X99006Y293122D01*
X99071Y293047D01*
X99138Y292973D01*
X99207Y292902D01*
X99278Y292833D01*
X99351Y292766D01*
X99427Y292701D01*
X99504Y292639D01*
X99583Y292579D01*
X99664Y292521D01*
X99746Y292466D01*
X99831Y292413D01*
X99916Y292363D01*
X100004Y292316D01*
X100092Y292271D01*
X100182Y292229D01*
X100273Y292190D01*
X100366Y292153D01*
X100459Y292119D01*
X100553Y292088D01*
X100649Y292060D01*
X100745Y292035D01*
X100841Y292012D01*
X100939Y291993D01*
X101037Y291977D01*
X101135Y291963D01*
X101234Y291953D01*
X101333Y291945D01*
X101432Y291941D01*
X101532Y291939D01*
X101631Y291941D01*
X101730Y291945D01*
X101829Y291953D01*
X101928Y291963D01*
X102026Y291977D01*
X102124Y291993D01*
X102222Y292012D01*
X102318Y292035D01*
X102414Y292060D01*
X102510Y292088D01*
X102604Y292119D01*
X102697Y292153D01*
X102790Y292190D01*
X102881Y292229D01*
X102971Y292271D01*
X103059Y292316D01*
X103147Y292363D01*
X103232Y292413D01*
X103317Y292466D01*
X103399Y292521D01*
X103480Y292579D01*
X103559Y292639D01*
X103636Y292701D01*
X103712Y292766D01*
X103785Y292833D01*
X103856Y292902D01*
X103926Y292973D01*
X103992Y293047D01*
X104057Y293122D01*
X104120Y293199D01*
X104180Y293279D01*
X104237Y293359D01*
X104293Y293442D01*
X104345Y293526D01*
X104395Y293612D01*
X104443Y293699D01*
X104488Y293788D01*
X104530Y293878D01*
X104569Y293969D01*
X104606Y294061D01*
X104639Y294155D01*
X104670Y294249D01*
X104699Y294344D01*
X104724Y294440D01*
X104746Y294537D01*
X104765Y294634D01*
X104782Y294732D01*
X104795Y294831D01*
X104806Y294930D01*
X104813Y295028D01*
X104818Y295128D01*
X104819Y295227D01*
X104818Y295326D01*
X104813Y295426D01*
X104806Y295525D01*
X104795Y295623D01*
X104782Y295722D01*
X104765Y295820D01*
X104746Y295917D01*
X104724Y296014D01*
X104699Y296110D01*
X104670Y296205D01*
X104639Y296300D01*
X104606Y296393D01*
X104569Y296485D01*
X104530Y296576D01*
X104488Y296666D01*
X104443Y296755D01*
X104395Y296842D01*
X104345Y296928D01*
X104293Y297012D01*
X104237Y297095D01*
X104180Y297176D01*
X104120Y297255D01*
X104057Y297332D01*
X103992Y297407D01*
X103926Y297481D01*
X103856Y297552D01*
X103785Y297621D01*
X103712Y297688D01*
X103636Y297753D01*
X103559Y297815D01*
X103480Y297875D01*
X103399Y297933D01*
X103317Y297988D01*
X103232Y298041D01*
X103147Y298091D01*
X103059Y298138D01*
X102971Y298183D01*
X102881Y298225D01*
X102790Y298265D01*
X102697Y298301D01*
X102604Y298335D01*
X102510Y298366D01*
X102414Y298394D01*
X102318Y298419D01*
X102222Y298442D01*
X102124Y298461D01*
X102026Y298477D01*
X101928Y298491D01*
X101829Y298501D01*
X101730Y298509D01*
X101631Y298513D01*
X101532Y298515D01*
D02*
G37*
%LPD*%
D10*
X0Y369767D02*
X330709D01*
Y-311D02*
Y369767D01*
D13*
X322854Y39026D02*
G03*
X322854Y39026I-7894J0D01*
G01*
X23642D02*
G03*
X23642Y39026I-7894J0D01*
G01*
Y330365D02*
G03*
X23642Y330365I-7894J0D01*
G01*
X69337Y332640D02*
G03*
X59337Y322640I0J-10000D01*
G01*
X130544Y332640D02*
G03*
X130544Y340514I0J3937D01*
G01*
X158130D02*
G03*
X158130Y332640I0J-3937D01*
G01*
X31501Y243643D02*
G03*
X39375Y243643I3937J0D01*
G01*
Y216057D02*
G03*
X31501Y216057I-3937J0D01*
G01*
X39375Y146837D02*
G03*
X31501Y146837I-3937J0D01*
G01*
Y174423D02*
G03*
X39375Y174423I3937J0D01*
G01*
Y77617D02*
G03*
X31501Y77617I-3937J0D01*
G01*
Y105203D02*
G03*
X39375Y105203I3937J0D01*
G01*
X301229Y189965D02*
G03*
X293355Y189965I-3937J0D01*
G01*
Y217550D02*
G03*
X301229Y217550I3937J0D01*
G01*
Y102560D02*
G03*
X293355Y102560I-3937J0D01*
G01*
Y130145D02*
G03*
X301229Y130145I3937J0D01*
G01*
X176885Y39059D02*
G03*
X176885Y31185I0J-3937D01*
G01*
X149299D02*
G03*
X149299Y39059I0J3937D01*
G01*
X322859Y330398D02*
G03*
X322859Y330398I-7894J0D01*
G01*
X23646D02*
G03*
X23646Y330398I-7894J0D01*
G01*
X293355Y247055D02*
G03*
X287355Y253055I-6000J0D01*
G01*
Y67055D02*
G03*
X293355Y73055I0J6000D01*
G01*
X215337Y67055D02*
G03*
X215093Y67045I0J-3000D01*
G01*
X42375Y253055D02*
G03*
X39375Y250055I0J-3000D01*
G01*
Y209645D02*
G03*
X42375Y206645I3000J0D01*
G01*
X59337Y298140D02*
G03*
X69337Y288140I10000J0D01*
G01*
X111837D02*
G03*
X114837Y291140I0J3000D01*
G01*
X173837Y296140D02*
G03*
X170837Y296140I-1500J0D01*
G01*
X173837Y291140D02*
G03*
X176837Y288140I3000J-0D01*
G01*
X229337Y322640D02*
G03*
X219337Y332640I-10000J0D01*
G01*
X117837Y296140D02*
G03*
X114837Y296140I-1500J0D01*
G01*
X69337Y332640D02*
G03*
X59337Y322640I0J-10000D01*
G01*
X219337Y288140D02*
G03*
X229337Y298140I-0J10000D01*
G01*
X98337Y46055D02*
G03*
X92337Y46055I-3000J0D01*
G01*
X86799Y39362D02*
G03*
X92337Y43055I1539J3692D01*
G01*
X68694Y62439D02*
G03*
X86799Y39362I29643J4615D01*
G01*
X72646Y67055D02*
G03*
X68694Y62439I0J-4000D01*
G01*
X78337Y67055D02*
G03*
X81328Y69825I0J3000D01*
G01*
D02*
G03*
X78337Y72595I-2991J-230D01*
G01*
X170837Y249118D02*
G03*
X173837Y249118I1500J0D01*
G01*
X214932Y67027D02*
G03*
X214921Y61084I405J-2973D01*
G01*
X81337Y134425D02*
G03*
X78337Y137425I-3000J0D01*
G01*
Y183835D02*
G03*
X81337Y186835I0J3000D01*
G01*
X78337Y114615D02*
G03*
X81337Y117615I0J3000D01*
G01*
Y203645D02*
G03*
X78337Y206645I-3000J0D01*
G01*
X200347Y39059D02*
G03*
X201887Y39367I0J4000D01*
G01*
X121837Y43059D02*
G03*
X125837Y39059I4000J0D01*
G01*
X218062Y55595D02*
G03*
X214921Y61084I-3697J1528D01*
G01*
X201887Y39367D02*
G03*
X218062Y55595I-11550J27688D01*
G01*
X121837Y46055D02*
G03*
X115837Y46055I-3000J0D01*
G01*
X114837Y249118D02*
G03*
X117837Y249118I1500J0D01*
G01*
X66809Y72595D02*
G03*
X64854Y70855I0J-1969D01*
G01*
X61875Y68205D02*
G03*
X64854Y70855I0J3000D01*
G01*
X39375Y71205D02*
G03*
X42375Y68205I3000J0D01*
G01*
Y114615D02*
G03*
X39375Y111615I0J-3000D01*
G01*
X42375Y183835D02*
G03*
X39375Y180835I0J-3000D01*
G01*
Y140425D02*
G03*
X42375Y137425I3000J0D01*
G01*
X51463Y298140D02*
G03*
X69337Y280266I17874J0D01*
G01*
Y340514D02*
G03*
X51463Y322640I0J-17874D01*
G01*
X237211D02*
G03*
X219337Y340514I-17874J0D01*
G01*
Y280266D02*
G03*
X237211Y298140I-0J17874D01*
G01*
X42375Y260929D02*
G03*
X31501Y250055I0J-10874D01*
G01*
Y209645D02*
G03*
X42375Y198771I10874J0D01*
G01*
Y191709D02*
G03*
X31501Y180835I0J-10874D01*
G01*
Y140425D02*
G03*
X42375Y129551I10874J0D01*
G01*
Y122489D02*
G03*
X31501Y111615I0J-10874D01*
G01*
Y71205D02*
G03*
X42375Y60331I10874J0D01*
G01*
X61065D02*
G03*
X83770Y32094I37272J6724D01*
G01*
X83770Y32094D02*
G03*
X88650Y31185I4567J10961D01*
G01*
X202494Y31185D02*
G03*
X227384Y59181I-12157J35870D01*
G01*
X287355D02*
G03*
X301229Y73055I0J13874D01*
G01*
Y247055D02*
G03*
X287355Y260929I-13874J0D01*
G01*
X59337Y322640D02*
X59337D01*
X238236Y67055D02*
X287355D01*
X238236Y253055D02*
X287355D01*
X293355Y73055D02*
Y102570D01*
X215337Y67055D02*
X223132D01*
X215093Y253055D02*
X223132D01*
X78214Y72595D02*
X78227D01*
X78214Y114615D02*
X78227D01*
X78214Y137425D02*
X78227D01*
X78214Y183835D02*
X78227D01*
X78214Y206645D02*
X78227D01*
X78214Y253055D02*
X114837D01*
X117837Y251874D02*
Y252679D01*
X170837Y251874D02*
Y252679D01*
X173837Y253055D02*
X215093D01*
X214932Y67027D02*
X215093Y67045D01*
X70871Y114615D02*
X72649D01*
X70871Y72595D02*
X72649D01*
X170837Y292867D02*
Y292873D01*
X117837Y292867D02*
Y292873D01*
X170837Y284827D02*
Y292867D01*
X117837Y284827D02*
Y292867D01*
X72649Y72595D02*
X78214D01*
X72649Y114615D02*
X78214D01*
X70871Y137425D02*
X72649D01*
X70871Y183835D02*
X72649D01*
X70871Y253055D02*
X72649D01*
X70871Y206645D02*
X72649D01*
Y137425D02*
X78214D01*
X72649Y183835D02*
X78214D01*
X170837Y257368D02*
Y262504D01*
X117837Y257368D02*
Y262504D01*
X233133Y67055D02*
X238236D01*
X223132Y253055D02*
X238236D01*
X72649Y206645D02*
X78214D01*
X72649Y253055D02*
X78214D01*
X117837Y252679D02*
Y257368D01*
X170837Y252679D02*
Y257368D01*
Y267194D02*
Y284827D01*
X117837Y267194D02*
Y284827D01*
Y262504D02*
Y267194D01*
X170837Y262504D02*
Y267194D01*
X42375Y253055D02*
X70871D01*
X42375Y206645D02*
X70871D01*
X223132Y67055D02*
X233133D01*
X173837Y291140D02*
Y296140D01*
X170837Y292873D02*
Y296140D01*
X69337Y288140D02*
X111837D01*
X59337Y298140D02*
Y322640D01*
X114837Y291140D02*
Y296140D01*
X117837Y292873D02*
Y296140D01*
X69337Y332641D02*
X130553D01*
X229337Y298140D02*
Y322640D01*
X176837Y288140D02*
X219337D01*
X92337Y43055D02*
Y46055D01*
X72646Y67055D02*
X78337D01*
X78227Y72595D02*
X78337D01*
X78227Y114615D02*
X78337D01*
X170837Y249118D02*
Y251874D01*
X173837Y249118D02*
Y253055D01*
X115837Y44413D02*
Y46055D01*
X98337Y44413D02*
X115837D01*
X98337D02*
Y46055D01*
X78227Y206645D02*
X78337D01*
X78227Y253055D02*
X114837Y253055D01*
X81337Y117615D02*
Y134425D01*
X78227Y137425D02*
X78337D01*
X78227Y183835D02*
X78337D01*
X125837Y39059D02*
X149312D01*
X114837Y249118D02*
Y253055D01*
X81337Y186835D02*
Y203645D01*
X117837Y249118D02*
Y251874D01*
X121837Y43059D02*
Y46055D01*
X42375Y114615D02*
X70871D01*
X66809Y72595D02*
X70871D01*
X42375Y68205D02*
X61875D01*
X39375Y71205D02*
Y77617D01*
X42375Y183835D02*
X70871D01*
X42375Y137425D02*
X70871D01*
X39375Y140425D02*
Y146837D01*
X69337Y280266D02*
X109963D01*
X51463Y298140D02*
Y322640D01*
X69337Y340514D02*
X130544D01*
X237211Y298140D02*
Y322640D01*
X178711Y280266D02*
X219337D01*
X109963Y260929D02*
Y280266D01*
X178711Y260929D02*
Y280266D01*
X42375Y260929D02*
X109963D01*
X31501Y209645D02*
Y216064D01*
X42375Y198771D02*
X73463D01*
Y191709D02*
Y198771D01*
X42375Y191709D02*
X73463D01*
X31501Y140425D02*
Y146844D01*
X42375Y129551D02*
X73463D01*
Y122489D02*
Y129551D01*
X42375Y122489D02*
X73463D01*
X31501Y71205D02*
Y77624D01*
X42375Y60331D02*
X61065D01*
X88024Y31185D02*
X149299D01*
X227384Y59181D02*
X287355D01*
X301229Y73055D02*
Y102560D01*
X178711Y260929D02*
X287355D01*
X117837Y262504D02*
Y267194D01*
X293355Y217540D02*
Y247055D01*
Y130135D02*
Y189975D01*
X176872Y39059D02*
X200347D01*
X31501Y105196D02*
Y111615D01*
Y174416D02*
Y180835D01*
Y243636D02*
Y250055D01*
X158121Y332641D02*
X219337D01*
X39375Y174423D02*
Y180835D01*
Y243643D02*
Y250055D01*
Y105203D02*
Y111615D01*
X176885Y31185D02*
X202494D01*
X158130Y340514D02*
X219337D01*
X301229Y217550D02*
Y247055D01*
Y130145D02*
Y189965D01*
X39375Y209645D02*
Y216057D01*
D14*
X0Y-312D02*
X330709D01*
X0Y-311D02*
Y369768D01*
D15*
X215337Y67055D02*
G03*
X215093Y67045I0J-3000D01*
G01*
X218062Y55595D02*
G03*
X214921Y61084I-3697J1528D01*
G01*
X201887Y39367D02*
G03*
X218062Y55595I-11550J27688D01*
G01*
X200347Y39059D02*
G03*
X201887Y39367I0J4000D01*
G01*
X121837Y43059D02*
G03*
X125837Y39059I4000J0D01*
G01*
X121837Y46055D02*
G03*
X115837Y46055I-3000J0D01*
G01*
X98337D02*
G03*
X92337Y46055I-3000J0D01*
G01*
X86799Y39362D02*
G03*
X92337Y43055I1539J3692D01*
G01*
X68694Y62439D02*
G03*
X86799Y39362I29643J4615D01*
G01*
X72646Y67055D02*
G03*
X68694Y62439I0J-4000D01*
G01*
X78337Y67055D02*
G03*
X81328Y69825I0J3000D01*
G01*
D02*
G03*
X78337Y72595I-2991J-230D01*
G01*
Y114615D02*
G03*
X81337Y117615I0J3000D01*
G01*
Y134425D02*
G03*
X78337Y137425I-3000J0D01*
G01*
Y183835D02*
G03*
X81337Y186835I0J3000D01*
G01*
Y203645D02*
G03*
X78337Y206645I-3000J0D01*
G01*
X114837Y249118D02*
G03*
X117837Y249118I1500J0D01*
G01*
X170837D02*
G03*
X173837Y249118I1500J0D01*
G01*
X215093Y67045D02*
G03*
X214921Y61084I244J-2990D01*
G01*
X39375Y71205D02*
G03*
X42375Y68205I3000J0D01*
G01*
Y114615D02*
G03*
X39375Y111615I0J-3000D01*
G01*
X66809Y72595D02*
G03*
X64854Y70855I0J-1969D01*
G01*
X61875Y68205D02*
G03*
X64854Y70855I0J3000D01*
G01*
X117837Y296140D02*
G03*
X114837Y296140I-1500J0D01*
G01*
X111837Y288140D02*
G03*
X114837Y291140I0J3000D01*
G01*
X229337Y322640D02*
G03*
X219337Y332640I-10000J0D01*
G01*
X173837Y291140D02*
G03*
X176837Y288140I3000J0D01*
G01*
X173837Y296140D02*
G03*
X170837Y296140I-1500J0D01*
G01*
X59337Y298140D02*
G03*
X69337Y288140I10000J0D01*
G01*
Y332640D02*
G03*
X59337Y322640I0J-10000D01*
G01*
X219337Y288140D02*
G03*
X229337Y298140I0J10000D01*
G01*
X42375Y183835D02*
G03*
X39375Y180835I0J-3000D01*
G01*
Y140425D02*
G03*
X42375Y137425I3000J0D01*
G01*
X39375Y209645D02*
G03*
X42375Y206645I3000J0D01*
G01*
Y253055D02*
G03*
X39375Y250055I0J-3000D01*
G01*
X293355Y247055D02*
G03*
X287355Y253055I-6000J0D01*
G01*
Y67055D02*
G03*
X293355Y73055I0J6000D01*
G01*
X215337Y67055D02*
X223132D01*
X215093Y253055D02*
X223132D01*
X125837Y39059D02*
X200347D01*
X121837Y43059D02*
Y46055D01*
X115837Y44413D02*
Y46055D01*
X98337Y44413D02*
X115837D01*
X98337D02*
Y46055D01*
X92337Y43055D02*
Y46055D01*
X72646Y67055D02*
X78337D01*
X78214Y72595D02*
X78337D01*
X78214Y114615D02*
X78337D01*
X81337Y117615D02*
Y134425D01*
X78214Y137425D02*
X78337D01*
X78214Y183835D02*
X78337D01*
X81337Y186835D02*
Y203645D01*
X78214Y206645D02*
X78337D01*
X78214Y253055D02*
X114837D01*
Y249118D02*
Y253055D01*
X117837Y249118D02*
Y252679D01*
X170837Y249118D02*
Y252679D01*
X173837Y249118D02*
Y253055D01*
X215093D01*
X42375Y68205D02*
X61875D01*
X39375Y71205D02*
Y111615D01*
X42375Y114615D02*
X72649D01*
X66809Y72595D02*
X72649D01*
X114837Y291140D02*
Y296140D01*
X69337Y288140D02*
X111837D01*
X69337Y332640D02*
X219337D01*
X229337Y298140D02*
Y322640D01*
X173837Y291140D02*
Y296140D01*
X170837Y292867D02*
Y296140D01*
X59337Y298140D02*
Y322640D01*
X117837Y292867D02*
Y296140D01*
X176837Y288140D02*
X219337D01*
X42375Y183835D02*
X72649D01*
X39375Y140425D02*
Y180835D01*
X42375Y137425D02*
X72649D01*
X42375Y253055D02*
X72649D01*
X42375Y206645D02*
X72649D01*
Y137425D02*
X78214D01*
X72649Y183835D02*
X78214D01*
X170837Y252679D02*
Y257368D01*
X117837Y252679D02*
Y257368D01*
X72649Y206645D02*
X78214D01*
X72649Y253055D02*
X78214D01*
X72649Y72595D02*
X78214D01*
X72649Y114615D02*
X78214D01*
X170837Y257368D02*
Y262504D01*
X117837Y257368D02*
Y262504D01*
X170837Y284827D02*
Y292867D01*
X117837Y284827D02*
Y292867D01*
X170837Y267194D02*
Y284827D01*
X117837Y267194D02*
Y284827D01*
X293355Y73055D02*
Y247055D01*
X223132Y253055D02*
X287355D01*
X223132Y67055D02*
X287355D01*
X117837Y262504D02*
Y267194D01*
X170837Y262504D02*
Y267194D01*
X39375Y209645D02*
Y250055D01*
D16*
X94500Y-2703D02*
Y-9000D01*
X98698D01*
X101847Y-4802D02*
X103946D01*
X104995Y-5851D01*
Y-9000D01*
X101847D01*
X100797Y-7950D01*
X101847Y-6901D01*
X104995D01*
X107094Y-4802D02*
Y-7950D01*
X108144Y-9000D01*
X111293D01*
Y-10050D01*
X110243Y-11099D01*
X109193D01*
X111293Y-9000D02*
Y-4802D01*
X116540Y-9000D02*
X114441D01*
X113391Y-7950D01*
Y-5851D01*
X114441Y-4802D01*
X116540D01*
X117590Y-5851D01*
Y-6901D01*
X113391D01*
X119689Y-4802D02*
Y-9000D01*
Y-6901D01*
X120738Y-5851D01*
X121788Y-4802D01*
X122837D01*
X136481Y-9000D02*
X132283D01*
X136481Y-4802D01*
Y-3752D01*
X135432Y-2703D01*
X133333D01*
X132283Y-3752D01*
X139630Y-10050D02*
X140679Y-9000D01*
Y-7950D01*
X139630D01*
Y-9000D01*
X140679D01*
X139630Y-10050D01*
X138580Y-11099D01*
X155373Y-3752D02*
X154323Y-2703D01*
X152224D01*
X151174Y-3752D01*
Y-7950D01*
X152224Y-9000D01*
X154323D01*
X155373Y-7950D01*
Y-5851D01*
X153274D01*
X157472Y-4802D02*
Y-9000D01*
Y-6901D01*
X158521Y-5851D01*
X159571Y-4802D01*
X160620D01*
X164818Y-9000D02*
X166918D01*
X167967Y-7950D01*
Y-5851D01*
X166918Y-4802D01*
X164818D01*
X163769Y-5851D01*
Y-7950D01*
X164818Y-9000D01*
X170066Y-4802D02*
Y-7950D01*
X171116Y-9000D01*
X174264D01*
Y-4802D01*
X176363Y-9000D02*
Y-4802D01*
X179512D01*
X180561Y-5851D01*
Y-9000D01*
X186858Y-2703D02*
Y-9000D01*
X183710D01*
X182660Y-7950D01*
Y-5851D01*
X183710Y-4802D01*
X186858D01*
X195255Y-9000D02*
Y-2703D01*
X198403D01*
X199453Y-3752D01*
Y-5851D01*
X198403Y-6901D01*
X195255D01*
X201552Y-9000D02*
X203651D01*
X202601D01*
Y-2703D01*
X201552D01*
X207849Y-4802D02*
X209948D01*
X210998Y-5851D01*
Y-9000D01*
X207849D01*
X206800Y-7950D01*
X207849Y-6901D01*
X210998D01*
X213097Y-9000D02*
Y-4802D01*
X216245D01*
X217295Y-5851D01*
Y-9000D01*
X222543D02*
X220443D01*
X219394Y-7950D01*
Y-5851D01*
X220443Y-4802D01*
X222543D01*
X223592Y-5851D01*
Y-6901D01*
X219394D01*
X231988Y-9000D02*
X234087D01*
X233038D01*
Y-2703D01*
X231988Y-3752D01*
D49*
X323858Y39026D02*
G03*
X323858Y39026I-8898J0D01*
G01*
X24646D02*
G03*
X24646Y39026I-8898J0D01*
G01*
Y330365D02*
G03*
X24646Y330365I-8898J0D01*
G01*
X323858D02*
G03*
X323858Y330365I-8898J0D01*
G01*
D95*
X162344Y245891D02*
Y248450D01*
Y245891D02*
X164903D01*
X159785D02*
X162344D01*
D116*
D03*
X121270Y121797D02*
D03*
X81309Y100325D02*
D03*
Y169624D02*
D03*
Y238825D02*
D03*
X184164Y228195D02*
D03*
X187904D02*
D03*
X180424D02*
D03*
D117*
X211329Y249335D02*
D03*
X205817Y158783D02*
D03*
X205227Y81618D02*
D03*
X204006Y150616D02*
D03*
X89183Y109953D02*
D03*
Y179253D02*
D03*
X129502Y314612D02*
D03*
X125959Y317368D02*
D03*
Y307919D02*
D03*
X129502Y310675D02*
D03*
X122416D02*
D03*
Y314612D02*
D03*
X129502Y317368D02*
D03*
X122416D02*
D03*
Y307919D02*
D03*
X129502D02*
D03*
X193908Y179462D02*
D03*
X191447D02*
D03*
X196270D02*
D03*
X196278Y176820D02*
D03*
X191455D02*
D03*
X193916D02*
D03*
X130128Y248903D02*
D03*
X89085Y249138D02*
D03*
D118*
X137117Y301620D02*
D03*
X181309Y304514D02*
D03*
X153652Y297683D02*
D03*
X169991Y218155D02*
D03*
Y211462D02*
D03*
X143613Y54415D02*
D03*
X177915Y60415D02*
D03*
Y64647D02*
D03*
X185247Y70951D02*
D03*
Y76069D02*
D03*
X185247Y73469D02*
D03*
X167727Y118451D02*
D03*
X102392Y237348D02*
D03*
X128616Y216974D02*
D03*
X115266Y210872D02*
D03*
X119364Y219041D02*
D03*
X117825Y230262D02*
D03*
X113495Y226915D02*
D03*
X111920Y232525D02*
D03*
X197254Y200931D02*
D03*
X104931Y90301D02*
D03*
X101683Y82608D02*
D03*
X89872Y69124D02*
D03*
X101683Y151907D02*
D03*
X89872Y138423D02*
D03*
Y207624D02*
D03*
X101683Y221108D02*
D03*
X84557Y62289D02*
D03*
X172286Y327407D02*
D03*
X159557Y298569D02*
D03*
X142038Y302210D02*
D03*
X148731Y297092D02*
D03*
X181309Y321108D02*
D03*
X164479Y327407D02*
D03*
X165266Y312053D02*
D03*
X163298D02*
D03*
X161329D02*
D03*
Y314022D02*
D03*
Y315990D02*
D03*
X163298D02*
D03*
Y314022D02*
D03*
Y310085D02*
D03*
Y308117D02*
D03*
X161329D02*
D03*
Y310085D02*
D03*
X165266D02*
D03*
Y308117D02*
D03*
Y314022D02*
D03*
Y315990D02*
D03*
X167235D02*
D03*
Y314022D02*
D03*
Y312053D02*
D03*
Y310085D02*
D03*
Y308117D02*
D03*
X169203D02*
D03*
Y310085D02*
D03*
Y312053D02*
D03*
Y314022D02*
D03*
Y315990D02*
D03*
X168416Y327407D02*
D03*
X150207Y311069D02*
D03*
X163298Y319790D02*
D03*
X169203D02*
D03*
X184557Y304514D02*
D03*
X181309Y313234D02*
D03*
X192038Y307042D02*
D03*
X199223D02*
D03*
X218810Y311660D02*
D03*
X216842D02*
D03*
X214873D02*
D03*
X220779D02*
D03*
X222747D02*
D03*
X76776Y318094D02*
D03*
X68021Y311659D02*
D03*
X146644Y314611D02*
D03*
X85935Y233510D02*
D03*
X105559Y200183D02*
D03*
X128393Y205183D02*
D03*
X105817Y184100D02*
D03*
X142727Y173668D02*
D03*
X116349Y163037D02*
D03*
Y150439D02*
D03*
X98829Y133510D02*
D03*
X103947D02*
D03*
X111329Y119336D02*
D03*
X101388Y116187D02*
D03*
X98829D02*
D03*
X92038Y111922D02*
D03*
X106014Y102309D02*
D03*
Y98372D02*
D03*
X115266Y100340D02*
D03*
Y84592D02*
D03*
Y82624D02*
D03*
X133573Y64317D02*
D03*
X161723Y74750D02*
D03*
Y88529D02*
D03*
X135542Y110774D02*
D03*
X137510Y116285D02*
D03*
X145876Y118648D02*
D03*
X167431Y88529D02*
D03*
X106211Y73864D02*
D03*
X111231Y150832D02*
D03*
X147353Y54022D02*
D03*
X174183Y64651D02*
D03*
X174184Y60518D02*
D03*
X162805Y144140D02*
D03*
X167924Y163825D02*
D03*
X130128Y127211D02*
D03*
X158733Y184179D02*
D03*
X140266Y200163D02*
D03*
X163101Y205163D02*
D03*
X163101Y230577D02*
D03*
X142985Y210577D02*
D03*
X132687Y232722D02*
D03*
X124518Y226128D02*
D03*
X188888Y211659D02*
D03*
X95975Y57565D02*
D03*
X127471Y57996D02*
D03*
X89282Y237130D02*
D03*
D119*
X213396Y240083D02*
G03*
X213396Y240083I-1870J0D01*
G01*
X208672Y241699D02*
G03*
X208672Y241699I-1870J0D01*
G01*
Y231699D02*
G03*
X208672Y231699I-1870J0D01*
G01*
X213396Y230043D02*
G03*
X213396Y230043I-1870J0D01*
G01*
X207512Y219969D02*
G03*
X208672Y221699I-711J1730D01*
G01*
X208081Y218626D02*
G03*
X207512Y219969I-1870J0D01*
G01*
X208672Y221699D02*
G03*
X205500Y220356I-1870J0D01*
G01*
Y220356D02*
G03*
X208081Y218626I711J-1730D01*
G01*
X207448Y209944D02*
G03*
X208672Y211699I-646J1755D01*
G01*
X208278Y208390D02*
G03*
X207448Y209944I-1870J0D01*
G01*
X208672Y211699D02*
G03*
X205762Y210144I-1870J0D01*
G01*
Y210144D02*
G03*
X208278Y208390I646J-1755D01*
G01*
X208672Y178862D02*
G03*
X208020Y180280I-1870J0D01*
G01*
D02*
G03*
X208672Y181699I-1219J1418D01*
G01*
X213396Y148547D02*
G03*
X213396Y148547I-1870J0D01*
G01*
X208672Y168232D02*
G03*
X207504Y169965I-1870J0D01*
G01*
D02*
G03*
X208672Y171699I-702J1733D01*
G01*
X213593Y140083D02*
G03*
X213593Y140083I-1870J0D01*
G01*
X207097Y198941D02*
G03*
X205752Y200735I-1870J0D01*
G01*
X203520Y199705D02*
G03*
X207097Y198941I1707J-764D01*
G01*
X208672Y187720D02*
G03*
X208672Y187720I-1870J0D01*
G01*
Y181699D02*
G03*
X205583Y180280I-1870J0D01*
G01*
X208672Y191699D02*
G03*
X208672Y191699I-1870J0D01*
G01*
Y171699D02*
G03*
X206100Y169965I-1870J0D01*
G01*
X205583Y180280D02*
G03*
X208672Y178862I1219J-1418D01*
G01*
X206100Y169965D02*
G03*
X208672Y168232I702J-1733D01*
G01*
X205916Y201500D02*
G03*
X203520Y199705I-1870J0D01*
G01*
X205752Y200735D02*
G03*
X205916Y201500I-1707J764D01*
G01*
X201585Y189689D02*
G03*
X201585Y189689I-1870J0D01*
G01*
X208672Y161699D02*
G03*
X208672Y161699I-1870J0D01*
G01*
Y141699D02*
G03*
X208672Y141699I-1870J0D01*
G01*
X202360Y145518D02*
G03*
X202360Y145518I-2559J0D01*
G01*
X169754Y249118D02*
G03*
X169754Y249112I1083J0D01*
G01*
X169754Y249118D02*
G03*
X169754Y249112I2583J0D01*
G01*
D02*
G03*
X174920Y249118I2583J6D01*
G01*
X169754D02*
G03*
X169754Y249112I1083J0D01*
G01*
X163244Y243287D02*
G03*
X165100Y245891I-900J2605D01*
G01*
X164903Y240891D02*
G03*
X163244Y243287I-2559J0D01*
G01*
X165100Y245891D02*
G03*
X161443Y243287I-2756J0D01*
G01*
X190463Y238037D02*
G03*
X190463Y238037I-2559J0D01*
G01*
X192530Y233707D02*
G03*
X192530Y233707I-1870J0D01*
G01*
X182294Y237447D02*
G03*
X182294Y237447I-1870J0D01*
G01*
X176782Y237447D02*
G03*
X176782Y237447I-1870J0D01*
G01*
X161443Y243287D02*
G03*
X164903Y240891I900J-2395D01*
G01*
X174420Y225636D02*
G03*
X171172Y226900I-1870J0D01*
G01*
X157491Y245791D02*
G03*
X154321Y247136I-1870J0D01*
G01*
X154361Y244409D02*
G03*
X157491Y245791I1260J1382D01*
G01*
X154321Y247136D02*
G03*
X154361Y244409I-1260J-1382D01*
G01*
X142038Y240793D02*
G03*
X142038Y240793I-1870J0D01*
G01*
Y245222D02*
G03*
X142038Y245222I-1870J0D01*
G01*
X140654Y235142D02*
G03*
X141546Y236736I-978J1594D01*
G01*
D02*
G03*
X139288Y234907I-1870J0D01*
G01*
X145187Y233313D02*
G03*
X141792Y234394I-1870J0D01*
G01*
Y232231D02*
G03*
X145187Y233313I1526J1082D01*
G01*
X141792Y234394D02*
G03*
X140654Y235142I-1526J-1082D01*
G01*
X139288Y234907D02*
G03*
X141792Y232231I978J-1594D01*
G01*
X198239Y219435D02*
G03*
X198239Y219435I-2559J0D01*
G01*
X186723Y199750D02*
G03*
X186723Y199750I-1870J0D01*
G01*
X179098Y210872D02*
G03*
X179098Y210872I-1870J0D01*
G01*
X179243Y175832D02*
G03*
X179243Y175832I-2559J0D01*
G01*
X179144Y183510D02*
G03*
X179144Y183510I-2559J0D01*
G01*
X171172Y224371D02*
G03*
X174420Y225636I1378J1264D01*
G01*
X169571Y223779D02*
G03*
X171172Y224371I222J1857D01*
G01*
Y226900D02*
G03*
X167949Y225327I-1378J-1264D01*
G01*
X169597Y223470D02*
G03*
X169571Y223779I-1870J0D01*
G01*
X167949Y225327D02*
G03*
X169597Y223470I-222J-1857D01*
G01*
X165812Y210577D02*
G03*
X165812Y210577I-1870J0D01*
G01*
X166349Y187348D02*
G03*
X166349Y187348I-1870J0D01*
G01*
X167136Y176522D02*
G03*
X167136Y176522I-1870J0D01*
G01*
X196565Y159592D02*
G03*
X196565Y159592I-2559J0D01*
G01*
X188699Y158214D02*
G03*
X188699Y158214I-1870J0D01*
G01*
X182491Y161266D02*
G03*
X182491Y161266I-2559J0D01*
G01*
X184459Y149356D02*
G03*
X184459Y149356I-1870J0D01*
G01*
X172353Y159888D02*
G03*
X172353Y159888I-1870J0D01*
G01*
X170997Y147749D02*
G03*
X168293Y146010I-1869J-66D01*
G01*
X160640Y147289D02*
G03*
X159779Y148864I-1870J0D01*
G01*
X172179Y146010D02*
G03*
X170997Y147749I-1870J0D01*
G01*
Y144271D02*
G03*
X172179Y146010I-688J1739D01*
G01*
X168293Y146010D02*
G03*
X170997Y144271I835J-1673D01*
G01*
X160049Y136020D02*
G03*
X160571Y137315I-1348J1296D01*
G01*
X160542Y220577D02*
G03*
X160542Y220577I-1870J0D01*
G01*
X151093Y220071D02*
G03*
X147460Y220695I-1870J0D01*
G01*
X147442Y219499D02*
G03*
X151093Y220071I1781J571D01*
G01*
X147460Y220695D02*
G03*
X147442Y219499I-1781J-571D01*
G01*
X148632Y206541D02*
G03*
X148632Y206541I-1870J0D01*
G01*
X143022Y168155D02*
G03*
X143022Y168155I-1870J0D01*
G01*
X139282Y165203D02*
G03*
X139282Y165203I-1870J0D01*
G01*
X160640Y153588D02*
G03*
X157762Y152014I-1870J0D01*
G01*
X160640Y150439D02*
G03*
X159779Y152014I-1870J0D01*
G01*
Y152014D02*
G03*
X160640Y153588I-1009J1575D01*
G01*
X159779Y148864D02*
G03*
X160640Y150439I-1009J1575D01*
G01*
X157762Y148864D02*
G03*
X160640Y147289I1009J-1575D01*
G01*
X158980Y139165D02*
G03*
X160443Y140990I-407J1825D01*
G01*
X160571Y137315D02*
G03*
X158980Y139165I-1870J0D01*
G01*
X160443Y140990D02*
G03*
X158294Y139141I-1870J0D01*
G01*
X159656Y158411D02*
G03*
X159656Y158411I-2559J0D01*
G01*
X157762Y152014D02*
G03*
X157762Y148864I1009J-1575D01*
G01*
X158294Y139141D02*
G03*
X157385Y135986I407J-1825D01*
G01*
X154735Y137315D02*
G03*
X154735Y137315I-1870J0D01*
G01*
X208869Y128468D02*
G03*
X207836Y130140I-1870J0D01*
G01*
D02*
G03*
X208672Y131699I-1034J1558D01*
G01*
X205964Y130026D02*
G03*
X208869Y128468I1034J-1558D01*
G01*
X208672Y131699D02*
G03*
X205964Y130026I-1870J0D01*
G01*
X209262Y116657D02*
G03*
X209262Y116657I-1870J0D01*
G01*
X203081Y121699D02*
G03*
X203081Y121699I-1870J0D01*
G01*
X202668Y116325D02*
G03*
X197551Y116235I-2559J0D01*
G01*
X199310Y113893D02*
G03*
X202668Y116325I799J2431D01*
G01*
X203081Y111699D02*
G03*
X203081Y111699I-1870J0D01*
G01*
X197551Y116235D02*
G03*
X199310Y113893I-51J-1869D01*
G01*
X209459Y105240D02*
G03*
X206225Y103961I-1870J0D01*
G01*
X208953D02*
G03*
X209459Y105240I-1364J1280D01*
G01*
X208953Y101401D02*
G03*
X209459Y102681I-1364J1280D01*
G01*
D02*
G03*
X208953Y103961I-1870J0D01*
G01*
X206225D02*
G03*
X206225Y101401I1364J-1280D01*
G01*
D02*
G03*
X209459Y100122I1364J-1280D01*
G01*
Y83587D02*
G03*
X209459Y83587I-1870J0D01*
G01*
Y100122D02*
G03*
X208953Y101401I-1870J0D01*
G01*
X209459Y79494D02*
G03*
X209459Y79494I-1870J0D01*
G01*
X208426Y70106D02*
G03*
X205861Y70795I-1624J-927D01*
G01*
X213691Y67791D02*
G03*
X214770Y60012I1646J-3736D01*
G01*
X214774Y60011D02*
G03*
X214770Y60012I-409J-2888D01*
G01*
X214770D02*
G03*
X214774Y60011I150J1072D01*
G01*
X217061Y56008D02*
G03*
X217283Y57123I-2696J1114D01*
G01*
D02*
G03*
X214774Y60011I-2917J0D01*
G01*
X201474Y40368D02*
G03*
X217061Y56008I-11137J26687D01*
G01*
X208426Y68252D02*
G03*
X211920Y69179I1624J927D01*
G01*
D02*
G03*
X208426Y70106I-1870J0D01*
G01*
X205861Y70795D02*
G03*
X204947Y68941I-1855J-238D01*
G01*
Y68941D02*
G03*
X208426Y68252I1855J238D01*
G01*
X202963Y92445D02*
G03*
X202963Y92445I-1870J0D01*
G01*
X204046Y60026D02*
G03*
X204046Y60026I-2559J0D01*
G01*
Y50085D02*
G03*
X204046Y50085I-2559J0D01*
G01*
X201470Y40366D02*
G03*
X201474Y40368I-11133J26688D01*
G01*
D02*
G03*
X201470Y40366I413J-1001D01*
G01*
X201470D02*
G03*
X201466Y40365I417J-999D01*
G01*
Y40365D02*
G03*
X201470Y40366I-1120J2694D01*
G01*
X201474Y40368D02*
G03*
X201466Y40365I413J-1001D01*
G01*
X200347Y40142D02*
G03*
X201466Y40365I0J2917D01*
G01*
X188420Y130951D02*
G03*
X185190Y129667I-1870J0D01*
G01*
X187394Y129282D02*
G03*
X188420Y130951I-844J1669D01*
G01*
X187904Y127998D02*
G03*
X187394Y129282I-1870J0D01*
G01*
X190365Y119140D02*
G03*
X190365Y119140I-1870J0D01*
G01*
X185190Y129667D02*
G03*
X187904Y127998I844J-1669D01*
G01*
X182983D02*
G03*
X182983Y127998I-1870J0D01*
G01*
X160603Y134691D02*
G03*
X160049Y136020I-1870J0D01*
G01*
X178357Y122289D02*
G03*
X178357Y122289I-1870J0D01*
G01*
X157385Y135986D02*
G03*
X160603Y134691I1348J-1296D01*
G01*
X164676Y122584D02*
G03*
X164676Y122584I-1870J0D01*
G01*
X164577Y127532D02*
G03*
X164577Y127532I-1870J0D01*
G01*
X180916Y101955D02*
G03*
X180916Y101955I-1870J0D01*
G01*
X175207Y109396D02*
G03*
X175207Y109396I-2559J0D01*
G01*
X164676Y116088D02*
G03*
X161597Y114661I-1870J0D01*
G01*
X164676Y113234D02*
G03*
X164014Y114661I-1870J0D01*
G01*
D02*
G03*
X164676Y116088I-1209J1427D01*
G01*
X161597Y114661D02*
G03*
X164676Y113234I1209J-1427D01*
G01*
X160050Y107624D02*
G03*
X160050Y107624I-1870J0D01*
G01*
X169597Y98470D02*
G03*
X166827Y96831I-1870J0D01*
G01*
X168626D02*
G03*
X169597Y98470I-899J1640D01*
G01*
X159262Y98372D02*
G03*
X159262Y98372I-1870J0D01*
G01*
X147747Y132919D02*
G03*
X147747Y132919I-1870J0D01*
G01*
X143317Y105360D02*
G03*
X143317Y105360I-1870J0D01*
G01*
X143317Y119632D02*
G03*
X143317Y119632I-1870J0D01*
G01*
X149811Y102628D02*
G03*
X149912Y103234I-1769J606D01*
G01*
D02*
G03*
X148792Y101521I-1870J0D01*
G01*
X152431Y100915D02*
G03*
X149811Y102628I-1870J0D01*
G01*
X155030Y98372D02*
G03*
X152167Y99957I-1870J0D01*
G01*
X151554Y99330D02*
G03*
X155030Y98372I1606J-958D01*
G01*
X152167Y99957D02*
G03*
X152431Y100915I-1606J958D01*
G01*
X148792Y101521D02*
G03*
X151554Y99330I1769J-606D01*
G01*
X147432Y99556D02*
G03*
X143697Y99416I-1870J0D01*
G01*
X145182Y97725D02*
G03*
X147432Y99556I379J1831D01*
G01*
X145187Y97584D02*
G03*
X145182Y97725I-1870J0D01*
G01*
X149813Y96403D02*
G03*
X149813Y96403I-1870J0D01*
G01*
X143697Y99416D02*
G03*
X145187Y97584I-379J-1831D01*
G01*
X170286Y94435D02*
G03*
X168626Y96831I-2559J0D01*
G01*
X168213Y91922D02*
G03*
X170286Y94435I-487J2512D01*
G01*
X166827Y96831D02*
G03*
X165393Y93385I899J-2396D01*
G01*
Y93385D02*
G03*
X168219Y91777I956J-1607D01*
G01*
D02*
G03*
X168213Y91922I-1870J0D01*
G01*
X173829Y82230D02*
G03*
X173829Y82230I-1870J0D01*
G01*
X169301Y78687D02*
G03*
X169301Y78687I-1870J0D01*
G01*
X156892Y80781D02*
G03*
X159081Y82624I319J1843D01*
G01*
D02*
G03*
X155349Y82793I-1870J0D01*
G01*
X155349D02*
G03*
X154409Y79187I-319J-1843D01*
G01*
X158081Y78687D02*
G03*
X156832Y80451I-1870J0D01*
G01*
D02*
G03*
X156892Y80781I-1802J500D01*
G01*
X154409Y79187D02*
G03*
X158081Y78687I1802J-500D01*
G01*
Y74750D02*
G03*
X158081Y74750I-1870J0D01*
G01*
X181211Y69730D02*
G03*
X181211Y69730I-1870J0D01*
G01*
X169302Y69829D02*
G03*
X169302Y69829I-1870J0D01*
G01*
X164183Y68155D02*
G03*
X164183Y68155I-1870J0D01*
G01*
X164676Y63825D02*
G03*
X164676Y63825I-1870J0D01*
G01*
X152372Y84100D02*
G03*
X152372Y84100I-1870J0D01*
G01*
X147648Y77348D02*
G03*
X147648Y77348I-1870J0D01*
G01*
X143317Y82033D02*
G03*
X143317Y82033I-1870J0D01*
G01*
X141306Y71400D02*
G03*
X141349Y71797I-1828J397D01*
G01*
X139337Y69932D02*
G03*
X139583Y69930I141J1865D01*
G01*
X143281Y69533D02*
G03*
X141306Y71400I-1870J0D01*
G01*
X139380Y69533D02*
G03*
X139337Y69932I-1870J0D01*
G01*
X141349Y71797D02*
G03*
X137651Y71398I-1870J0D01*
G01*
X139583Y69930D02*
G03*
X143281Y69533I1828J-397D01*
G01*
X141349Y59789D02*
G03*
X141349Y59789I-1870J0D01*
G01*
X137651Y71398D02*
G03*
X139380Y69533I-141J-1865D01*
G01*
X125879Y250712D02*
G03*
X128504Y249002I756J-1711D01*
G01*
D02*
G03*
X127390Y250712I-1870J0D01*
G01*
X121565Y238136D02*
G03*
X120424Y239858I-1870J0D01*
G01*
D02*
G03*
X121565Y241581I-728J1722D01*
G01*
X118967Y239858D02*
G03*
X121565Y238136I728J-1722D01*
G01*
X132786Y221010D02*
G03*
X129144Y221608I-1870J0D01*
G01*
X137451Y220594D02*
G03*
X137451Y220594I-1870J0D01*
G01*
X129144Y220411D02*
G03*
X132786Y221010I1772J599D01*
G01*
X129144Y221608D02*
G03*
X129144Y220411I-1772J-599D01*
G01*
X135014Y215203D02*
G03*
X135014Y215203I-1870J0D01*
G01*
X121565Y241581D02*
G03*
X118967Y239858I-1870J0D01*
G01*
X113754Y249118D02*
G03*
X118920Y249118I2583J0D01*
G01*
X137451Y195163D02*
G03*
X137451Y195163I-1870J0D01*
G01*
X133837Y182249D02*
G03*
X135443Y184100I-264J1851D01*
G01*
D02*
G03*
X131774Y183589I-1870J0D01*
G01*
D02*
G03*
X132559Y179942I264J-1851D01*
G01*
X133643Y180778D02*
G03*
X133908Y181738I-1605J960D01*
G01*
D02*
G03*
X133837Y182249I-1870J0D01*
G01*
X136034Y178982D02*
G03*
X133643Y180778I-1870J0D01*
G01*
X132559Y179942D02*
G03*
X136034Y178982I1605J-960D01*
G01*
X122669Y201362D02*
G03*
X123632Y202998I-907J1636D01*
G01*
X123042Y200242D02*
G03*
X122669Y201362I-1870J0D01*
G01*
X123632Y202998D02*
G03*
X120265Y201877I-1870J0D01*
G01*
Y201877D02*
G03*
X123042Y200242I907J-1636D01*
G01*
X128849Y169042D02*
G03*
X128849Y169042I-1870J0D01*
G01*
X122254Y173668D02*
G03*
X121239Y175331I-1870J0D01*
G01*
Y175331D02*
G03*
X121467Y176226I-1642J895D01*
G01*
X118742Y174563D02*
G03*
X122254Y173668I1642J-895D01*
G01*
X132983Y158707D02*
G03*
X132983Y158707I-1870J0D01*
G01*
X128750D02*
G03*
X128750Y158707I-1870J0D01*
G01*
X133179Y152309D02*
G03*
X133179Y152309I-1870J0D01*
G01*
X132097Y131443D02*
G03*
X132097Y131443I-1870J0D01*
G01*
X123632Y148766D02*
G03*
X120835Y147142I-1870J0D01*
G01*
X122689D02*
G03*
X123632Y148766I-927J1624D01*
G01*
X120835Y147142D02*
G03*
X123632Y145518I927J-1624D01*
G01*
D02*
G03*
X122689Y147142I-1870J0D01*
G01*
X121270Y194413D02*
G03*
X117530Y194413I-1870J0D01*
G01*
X121467Y176226D02*
G03*
X118742Y174563I-1870J0D01*
G01*
X117530Y194413D02*
G03*
X117530Y194413I-1870J0D01*
G01*
D02*
G03*
X121270Y194413I1870J0D01*
G01*
X117825Y132427D02*
G03*
X117825Y132427I-1870J0D01*
G01*
X112010Y248273D02*
G03*
X112010Y248273I-1870J0D01*
G01*
X105868Y243201D02*
G03*
X109026Y244558I1288J1356D01*
G01*
D02*
G03*
X105884Y245929I-1870J0D01*
G01*
X83868Y249947D02*
G03*
X82873Y251972I-2559J0D01*
G01*
X105884Y245929D02*
G03*
X105868Y243201I-1288J-1356D01*
G01*
X84332Y222974D02*
G03*
X84557Y223864I-1645J890D01*
G01*
X83430Y225581D02*
G03*
X83868Y227014I-2120J1433D01*
G01*
X84557Y223864D02*
G03*
X83430Y225581I-1870J0D01*
G01*
X111624Y217565D02*
G03*
X111624Y217565I-1870J0D01*
G01*
X112050Y205163D02*
G03*
X112050Y205163I-1870J0D01*
G01*
X112252Y195183D02*
G03*
X112252Y195183I-1870J0D01*
G01*
X84555Y219240D02*
G03*
X86330Y221108I-95J1868D01*
G01*
X84555Y219039D02*
G03*
X84557Y219140I-1867J101D01*
G01*
X86330Y221108D02*
G03*
X84332Y222974I-1870J0D01*
G01*
X82815Y221998D02*
G03*
X82592Y221007I1645J-890D01*
G01*
X86329Y217171D02*
G03*
X84555Y219039I-1870J0D01*
G01*
X84557Y219140D02*
G03*
X84555Y219240I-1870J0D01*
G01*
X99223Y216187D02*
G03*
X99223Y216187I-1870J0D01*
G01*
X97255Y202013D02*
G03*
X97255Y202013I-2559J0D01*
G01*
X82592Y217272D02*
G03*
X86329Y217171I1867J-101D01*
G01*
X79242Y248438D02*
G03*
X83868Y249947I2067J1509D01*
G01*
Y227014D02*
G03*
X79242Y228522I-2559J0D01*
G01*
Y225505D02*
G03*
X80923Y224484I2067J1509D01*
G01*
Y224484D02*
G03*
X82815Y221998I1764J-620D01*
G01*
X82592Y221007D02*
G03*
X82592Y217272I95J-1868D01*
G01*
X86329Y211561D02*
G03*
X86329Y211561I-1870J0D01*
G01*
X82420Y203645D02*
G03*
X82420Y203650I-1083J0D01*
G01*
Y203645D02*
G03*
X82420Y203650I-4083J0D01*
G01*
X82420Y203645D02*
G03*
X82420Y203650I-1083J0D01*
G01*
D02*
G03*
X79242Y207626I-4083J-5D01*
G01*
X102016Y188481D02*
G03*
X102569Y189809I-1317J1328D01*
G01*
X103160Y186758D02*
G03*
X102016Y188481I-1870J0D01*
G01*
X102569Y189809D02*
G03*
X99973Y188086I-1870J0D01*
G01*
X111346Y184789D02*
G03*
X111346Y184789I-1870J0D01*
G01*
X99973Y188086D02*
G03*
X103160Y186758I1317J-1328D01*
G01*
X111132Y155458D02*
G03*
X111132Y155458I-1870J0D01*
G01*
X94302Y182209D02*
G03*
X91349Y183733I-1870J0D01*
G01*
Y180684D02*
G03*
X94302Y182209I1083J1525D01*
G01*
X91349Y183733D02*
G03*
X91349Y180684I-1083J-1525D01*
G01*
X99321Y159289D02*
G03*
X99321Y159289I-1870J0D01*
G01*
X84555Y149838D02*
G03*
X84557Y149939I-1867J101D01*
G01*
X86330Y151907D02*
G03*
X82592Y151806I-1870J0D01*
G01*
X84555Y150040D02*
G03*
X86330Y151907I-95J1868D01*
G01*
X84557Y149939D02*
G03*
X84555Y150040I-1870J0D01*
G01*
X113101Y144041D02*
G03*
X110073Y142572I-1870J0D01*
G01*
X112487Y142656D02*
G03*
X113101Y144041I-1256J1386D01*
G01*
X99223Y146986D02*
G03*
X98501Y148462I-1870J0D01*
G01*
X110073Y142572D02*
G03*
X113199Y141187I1256J-1386D01*
G01*
D02*
G03*
X112487Y142656I-1870J0D01*
G01*
X96205Y148462D02*
G03*
X99223Y146986I1148J-1476D01*
G01*
X99223Y149939D02*
G03*
X96205Y148462I-1870J0D01*
G01*
X98501Y148462D02*
G03*
X99223Y149939I-1148J1476D01*
G01*
X85779Y146645D02*
G03*
X86329Y147970I-1320J1325D01*
G01*
D02*
G03*
X84555Y149838I-1870J0D01*
G01*
X82592Y148071D02*
G03*
X83139Y146645I1867J-101D01*
G01*
X86329Y145321D02*
G03*
X85779Y146645I-1870J0D01*
G01*
X97255Y132812D02*
G03*
X97255Y132812I-2559J0D01*
G01*
X83139Y146645D02*
G03*
X86329Y145321I1320J-1325D01*
G01*
X83868Y180746D02*
G03*
X79242Y182255I-2559J0D01*
G01*
Y179237D02*
G03*
X83868Y180746I2067J1509D01*
G01*
X79242Y156304D02*
G03*
X83868Y157813I2067J1509D01*
G01*
D02*
G03*
X79242Y159322I-2559J0D01*
G01*
X82420Y186829D02*
G03*
X82420Y186835I-1083J5D01*
G01*
X82420Y186829D02*
G03*
X82420Y186835I-1083J5D01*
G01*
X82420Y186829D02*
G03*
X82420Y186835I-4083J5D01*
G01*
X79242Y182854D02*
G03*
X82420Y186829I-905J3981D01*
G01*
X82592Y151806D02*
G03*
X82592Y148071I95J-1868D01*
G01*
X82420Y134425D02*
G03*
X82420Y134430I-1083J0D01*
G01*
X82420Y134425D02*
G03*
X82420Y134430I-1083J0D01*
G01*
Y134425D02*
G03*
X82420Y134430I-4083J0D01*
G01*
D02*
G03*
X79242Y138406I-4083J-5D01*
G01*
X135443Y118943D02*
G03*
X135443Y118943I-1870J0D01*
G01*
X129538Y117565D02*
G03*
X129118Y118746I-1870J0D01*
G01*
Y118746D02*
G03*
X129538Y119927I-1450J1181D01*
G01*
X128984Y116236D02*
G03*
X129538Y117565I-1316J1329D01*
G01*
Y119927D02*
G03*
X126218Y118746I-1870J0D01*
G01*
Y118746D02*
G03*
X126352Y116236I1450J-1181D01*
G01*
X126305Y116188D02*
G03*
X122889Y114797I-1590J-985D01*
G01*
X126352Y116236D02*
G03*
X126305Y116188I1316J-1329D01*
G01*
X126078Y113922D02*
G03*
X129538Y114907I1590J985D01*
G01*
D02*
G03*
X128984Y116236I-1870J0D01*
G01*
X123785Y113580D02*
G03*
X126078Y113922I930J1622D01*
G01*
X123829Y113175D02*
G03*
X123785Y113580I-1870J0D01*
G01*
X135443Y101112D02*
G03*
X132287Y102469I-1870J0D01*
G01*
X131907Y100263D02*
G03*
X135443Y101112I1666J849D01*
G01*
X132287Y102469D02*
G03*
X131907Y100263I-1666J-849D01*
G01*
X118219Y126364D02*
G03*
X118219Y126364I-2559J0D01*
G01*
X122889Y114797D02*
G03*
X123829Y113175I-930J-1622D01*
G01*
X121565Y101620D02*
G03*
X121565Y101620I-1870J0D01*
G01*
X135050Y84691D02*
G03*
X131457Y85419I-1870J0D01*
G01*
Y83963D02*
G03*
X135050Y84691I1722J728D01*
G01*
X132983Y92073D02*
G03*
X132983Y92073I-1870J0D01*
G01*
X128504Y92023D02*
G03*
X128504Y92023I-1870J0D01*
G01*
X131457Y85419D02*
G03*
X131457Y83963I-1722J-728D01*
G01*
X135443Y70222D02*
G03*
X135443Y70222I-1870J0D01*
G01*
X127963Y74258D02*
G03*
X127963Y74258I-1870J0D01*
G01*
X131309Y54415D02*
G03*
X131309Y54415I-1870J0D01*
G01*
X124518Y85577D02*
G03*
X124518Y85577I-1870J0D01*
G01*
X121040Y74258D02*
G03*
X121762Y75735I-1148J1477D01*
G01*
Y72781D02*
G03*
X121040Y74258I-1870J0D01*
G01*
X121762Y75735D02*
G03*
X118745Y74258I-1870J0D01*
G01*
X121762Y68746D02*
G03*
X121762Y68746I-1870J0D01*
G01*
X118745Y74258D02*
G03*
X121762Y72781I1148J-1477D01*
G01*
Y80655D02*
G03*
X121762Y80655I-1870J0D01*
G01*
X121664Y63114D02*
G03*
X119884Y64982I-1870J0D01*
G01*
X119884Y64982D02*
G03*
X117932Y62941I-1862J-173D01*
G01*
X117932Y62941D02*
G03*
X121664Y63114I1862J173D01*
G01*
X115758Y107230D02*
G03*
X115758Y107230I-1870J0D01*
G01*
X112010Y114210D02*
G03*
X112010Y114210I-1870J0D01*
G01*
X91546Y122675D02*
G03*
X91546Y122675I-1870J0D01*
G01*
X86723Y116187D02*
G03*
X86723Y116187I-1870J0D01*
G01*
X107294Y112053D02*
G03*
X107294Y112053I-1870J0D01*
G01*
X111231Y91974D02*
G03*
X111231Y91974I-1870J0D01*
G01*
X111329Y87939D02*
G03*
X111329Y87939I-1870J0D01*
G01*
X111132Y76620D02*
G03*
X111132Y76620I-1870J0D01*
G01*
X84555Y80740D02*
G03*
X86330Y82608I-95J1868D01*
G01*
X99223Y80640D02*
G03*
X99223Y80640I-1870J0D01*
G01*
X86330Y82608D02*
G03*
X82592Y82507I-1870J0D01*
G01*
X106703Y77703D02*
G03*
X106703Y77703I-1870J0D01*
G01*
X84555Y80539D02*
G03*
X84557Y80640I-1867J101D01*
G01*
D02*
G03*
X84555Y80740I-1870J0D01*
G01*
X82592Y78772D02*
G03*
X86329Y78671I1867J-101D01*
G01*
D02*
G03*
X84555Y80539I-1870J0D01*
G01*
X85640Y94336D02*
G03*
X85640Y94336I-1870J0D01*
G01*
X82420Y117609D02*
G03*
X82420Y117615I-1083J5D01*
G01*
X82420Y117609D02*
G03*
X82420Y117615I-1083J5D01*
G01*
X82420Y117609D02*
G03*
X82420Y117615I-4083J5D01*
G01*
X83868Y111447D02*
G03*
X79242Y112955I-2559J0D01*
G01*
Y113634D02*
G03*
X82420Y117609I-905J3981D01*
G01*
X79242Y109938D02*
G03*
X83868Y111447I2067J1509D01*
G01*
Y88514D02*
G03*
X79242Y90022I-2559J0D01*
G01*
Y87005D02*
G03*
X83868Y88514I2067J1509D01*
G01*
X82592Y82507D02*
G03*
X82592Y78772I95J-1868D01*
G01*
X116349Y68746D02*
G03*
X116349Y68746I-1870J0D01*
G01*
X111624Y66915D02*
G03*
X111624Y66915I-1870J0D01*
G01*
X99813Y63825D02*
G03*
X99813Y63825I-1870J0D01*
G01*
X94302Y62285D02*
G03*
X94302Y62285I-2559J0D01*
G01*
Y52053D02*
G03*
X94302Y52053I-2559J0D01*
G01*
X98337Y48824D02*
G03*
X91254Y46060I-3000J-2769D01*
G01*
D02*
G03*
X91254Y46055I1083J-5D01*
G01*
X91254Y46060D02*
G03*
X91254Y46055I4083J-5D01*
G01*
Y46060D02*
G03*
X91254Y46055I1083J-5D01*
G01*
X90758Y46935D02*
G03*
X90758Y46935I-1870J0D01*
G01*
X87215Y40362D02*
G03*
X91254Y43055I1122J2693D01*
G01*
X86329Y73061D02*
G03*
X86329Y73061I-1870J0D01*
G01*
X82408Y69908D02*
G03*
X79242Y73576I-4071J-313D01*
G01*
X82411Y69825D02*
G03*
X82408Y69908I-1083J0D01*
G01*
Y69742D02*
G03*
X82411Y69825I-1080J83D01*
G01*
X78337Y65972D02*
G03*
X82408Y69742I0J4083D01*
G01*
X75458Y65972D02*
G03*
X78652Y64651I1324J-1321D01*
G01*
D02*
G03*
X78106Y65972I-1870J0D01*
G01*
X72646D02*
G03*
X69764Y62606I0J-2917D01*
G01*
X69765Y62602D02*
G03*
X69764Y62606I-1070J-162D01*
G01*
D02*
G03*
X69765Y62602I28573J4449D01*
G01*
X69765D02*
G03*
X69764Y62606I-1070J-162D01*
G01*
X82884Y55596D02*
G03*
X82884Y55596I-1870J0D01*
G01*
X69765Y62602D02*
G03*
X87215Y40362I28572J4453D01*
G01*
X208908Y251972D02*
X213691Y247189D01*
X208304Y242813D02*
X213691Y248200D01*
X210578Y251972D02*
X213691Y248859D01*
X208661Y241500D02*
X213691Y246530D01*
X210428Y241597D02*
X213691Y244860D01*
X205567Y251972D02*
X213691Y243848D01*
X207237Y251972D02*
X213691Y245518D01*
X203897Y251972D02*
X213691Y242178D01*
X207317Y243496D02*
X213691Y249871D01*
X213088Y241110D02*
X213691Y240507D01*
X213282Y239439D02*
X213691Y239849D01*
X213162Y240989D02*
X213691Y241519D01*
X213051Y231126D02*
X213691Y230485D01*
X213226Y239303D02*
X213691Y238837D01*
X208313Y232800D02*
X213691Y238178D01*
X212291Y241789D02*
X213691Y243189D01*
X210355Y231501D02*
X213691Y234838D01*
X212279Y231755D02*
X213691Y233167D01*
X212248Y251972D02*
X213691Y250529D01*
X208579Y242278D02*
X209883Y240975D01*
X208422Y240766D02*
X209783Y239404D01*
X207538Y239980D02*
X213691Y233826D01*
X200556Y251972D02*
X210746Y241782D01*
X198886Y251972D02*
X207381Y243477D01*
X202226Y251972D02*
X212554Y241645D01*
X210848Y238340D02*
X213691Y235496D01*
X212419Y238439D02*
X213691Y237167D01*
X213292Y229427D02*
X213691Y229827D01*
X213155Y230961D02*
X213691Y231497D01*
X208658Y231475D02*
X213691Y236508D01*
X207334Y233491D02*
X212169Y238327D01*
X208590Y232246D02*
X209889Y230947D01*
X212430Y228406D02*
X213691Y227145D01*
X210876Y228290D02*
X213691Y225474D01*
X213231Y229275D02*
X213691Y228815D01*
X208599Y222215D02*
X213691Y217123D01*
X208655Y221450D02*
X213691Y226486D01*
X208322Y222787D02*
X213691Y228156D01*
X207522Y229973D02*
X213691Y223804D01*
X208406Y220738D02*
X213691Y215452D01*
X208011Y219135D02*
X213691Y224816D01*
X207925Y217878D02*
X213691Y212112D01*
X208651Y211424D02*
X213691Y216464D01*
X208331Y212774D02*
X213691Y218134D01*
X208398Y210724D02*
X213691Y205430D01*
X208034Y207466D02*
X213691Y213123D01*
X207368Y213481D02*
X213691Y219805D01*
X207633Y219840D02*
X213691Y213782D01*
X207491Y209960D02*
X213691Y203760D01*
X205606Y216856D02*
X213691Y208771D01*
X207351Y223486D02*
X212142Y228277D01*
X208414Y230751D02*
X209772Y229393D01*
X198238Y219384D02*
X210068Y231214D01*
X207134Y216999D02*
X213691Y210441D01*
X208095Y209197D02*
X213691Y214794D01*
X208607Y212185D02*
X213691Y207101D01*
X205661Y210104D02*
X205726Y210169D01*
X205205Y202967D02*
X213691Y211453D01*
X192530Y233720D02*
X210782Y251972D01*
X193875D02*
X213691Y232156D01*
X192072Y234932D02*
X209112Y251972D01*
X192204D02*
X212609Y231568D01*
X190534Y251972D02*
X210758Y231748D01*
X183853Y251972D02*
X213691Y222134D01*
X174920Y251972D02*
X213691D01*
X180512D02*
X213691Y218793D01*
X182182Y251972D02*
X213691Y220463D01*
X188864Y251972D02*
X207349Y233487D01*
X191012Y235543D02*
X207441Y251972D01*
X197215D02*
X205868Y243319D01*
X197897Y220713D02*
X207026Y229842D01*
X190348Y238796D02*
X205841Y223303D01*
X178842Y251972D02*
X207318Y223496D01*
X187193Y251972D02*
X205854Y233311D01*
X173801Y246991D02*
X207287Y213505D01*
X178890Y211729D02*
X207001Y239839D01*
X189092Y240304D02*
X200760Y251972D01*
X195545D02*
X205083Y242435D01*
X187706Y240589D02*
X199090Y251972D01*
X190447Y238319D02*
X204101Y251972D01*
X189985Y239527D02*
X202431Y251972D01*
X178045Y212554D02*
X205688Y240196D01*
X185523Y251972D02*
X205076Y232419D01*
X165463Y211664D02*
X205771Y251972D01*
X176337Y212516D02*
X205004Y241183D01*
X197086Y221573D02*
X205700Y230187D01*
X195832Y221989D02*
X205009Y231166D01*
X192488Y233315D02*
X205463Y220340D01*
X198230Y219222D02*
X205063Y212388D01*
X190309Y237164D02*
X205069Y222404D01*
X191860Y232273D02*
X204584Y219548D01*
X182214Y236907D02*
X205827Y213295D01*
X190626Y231837D02*
X204441Y218021D01*
X178931Y210099D02*
X210012Y241180D01*
X175175Y235595D02*
X213691Y197079D01*
X174158Y226590D02*
X207229Y193519D01*
X176615Y186069D02*
X213691Y223145D01*
X174241Y224837D02*
X205800Y193278D01*
X164676Y244424D02*
X213691Y195408D01*
X171826Y223911D02*
X206235Y189502D01*
X141996Y169824D02*
X210619Y238447D01*
X140344Y169842D02*
X209820Y239317D01*
X177913Y185697D02*
X213691Y221475D01*
X160503Y220201D02*
X207172Y173532D01*
X166652Y177777D02*
X205702Y216826D01*
X165714Y209979D02*
X205851Y169842D01*
X159882Y219151D02*
X205773Y173261D01*
X151043Y219639D02*
X207145Y163537D01*
X150397Y218615D02*
X205760Y163252D01*
X145746Y218255D02*
X213691Y150309D01*
X146934Y218737D02*
X213691Y151980D01*
X173424Y223983D02*
X205051Y192356D01*
X185402Y201537D02*
X205014Y221149D01*
X186373Y200838D02*
X204351Y218815D01*
X170246Y223821D02*
X205271Y188795D01*
X169505Y222891D02*
X204952Y187444D01*
X163847Y243582D02*
X204060Y203370D01*
X164902Y240857D02*
X202834Y202925D01*
X163698Y238720D02*
X203360Y199058D01*
X164529Y239560D02*
X202214Y201875D01*
X197791Y217990D02*
X205672Y210109D01*
X196916Y217195D02*
X204787Y209323D01*
X186706Y199501D02*
X204713Y217507D01*
X195562Y216879D02*
X204630Y207811D01*
X178754Y184868D02*
X205019Y211133D01*
X178697Y212029D02*
X199231Y191495D01*
X158657Y218707D02*
X205039Y172324D01*
X149139Y218202D02*
X205033Y162308D01*
X207341Y206769D02*
X213691Y200419D01*
X206940Y199691D02*
X213691Y206442D01*
X208127Y207654D02*
X213691Y202090D01*
X207079Y198680D02*
X213691Y192068D01*
X207401Y193470D02*
X213691Y199761D01*
X206148Y200569D02*
X213691Y208112D01*
X205860Y201952D02*
X213691Y209783D01*
X205916Y201514D02*
X213691Y193738D01*
X206664Y197744D02*
X213691Y204772D01*
X208643Y191372D02*
X213691Y196420D01*
X208645Y188033D02*
X213691Y193079D01*
X208349Y192748D02*
X213691Y198090D01*
X208381Y190697D02*
X213691Y185386D01*
X208622Y192126D02*
X213691Y187057D01*
X208052Y189111D02*
X213691Y194750D01*
X206509Y197580D02*
X213691Y190397D01*
X206526Y185871D02*
X213691Y178705D01*
X207459Y189948D02*
X213691Y183716D01*
X208638Y181344D02*
X213691Y186398D01*
X208533Y179569D02*
X213691Y184728D01*
X208584Y187153D02*
X213691Y182046D01*
X208629Y182097D02*
X213691Y177035D01*
X208533Y179569D02*
X213691Y184728D01*
X207417Y183465D02*
X213691Y189739D01*
X206861Y189590D02*
X207129Y189857D01*
X207877Y186190D02*
X213691Y180375D01*
X208358Y182735D02*
X213691Y188068D01*
X208666Y178719D02*
X213691Y173694D01*
X208372Y180684D02*
X213691Y175364D01*
X208632Y171317D02*
X213691Y176376D01*
X208367Y172722D02*
X213691Y178046D01*
X208149Y177566D02*
X213691Y172024D01*
X207433Y173459D02*
X213691Y179717D01*
X208634Y172070D02*
X213691Y167013D01*
X208592Y168771D02*
X213691Y163672D01*
X208657Y168001D02*
X213691Y173035D01*
X208412Y167281D02*
X213691Y162002D01*
X208376Y162709D02*
X213691Y168024D01*
X208315Y169330D02*
X213691Y174706D01*
X207038Y177007D02*
X213691Y170353D01*
X207450Y163453D02*
X213691Y169695D01*
X208364Y170670D02*
X213691Y165342D01*
X211057Y150357D02*
X213691Y152991D01*
X212509Y150138D02*
X213691Y151321D01*
X208640Y162042D02*
X213691Y156991D01*
X213367Y140974D02*
X213691Y141299D01*
X213268Y149227D02*
X213691Y149651D01*
X207518Y166505D02*
X213691Y160331D01*
X208626Y161289D02*
X213691Y166354D01*
X207411Y159931D02*
X213691Y153650D01*
X208355Y160657D02*
X213691Y155320D01*
X213344Y148987D02*
X213691Y148639D01*
X213109Y147551D02*
X213691Y146969D01*
X208612Y141231D02*
X213691Y146310D01*
X212191Y146799D02*
X213691Y145299D01*
X208393Y142682D02*
X213691Y147980D01*
X207481Y143441D02*
X210846Y146805D01*
X213563Y140416D02*
X213691Y140287D01*
X212504Y141782D02*
X213691Y142969D01*
X213273Y139036D02*
X213691Y138617D01*
X213465Y139402D02*
X213691Y139629D01*
X210699Y141647D02*
X213691Y144640D01*
X208649Y141989D02*
X209953Y140685D01*
X212326Y138312D02*
X213691Y136947D01*
X203935Y203367D02*
X207332Y206764D01*
X205829Y206611D02*
X213691Y198749D01*
X205344Y197074D02*
X213691Y188727D01*
X201289Y190699D02*
X213691Y203101D01*
X200363Y191443D02*
X206423Y197503D01*
X184451Y197924D02*
X213691Y168683D01*
X201540Y189279D02*
X213691Y201431D01*
X201521Y189205D02*
X207200Y183526D01*
X194422Y162118D02*
X213691Y181387D01*
X182430Y161818D02*
X206489Y185877D01*
X179143Y183586D02*
X204693Y209136D01*
X186609Y199106D02*
X205505Y180210D01*
X179180Y175272D02*
X203459Y199550D01*
X177230Y178332D02*
X205601Y206703D01*
X178346Y177778D02*
X202179Y201611D01*
X164993Y209030D02*
X205074Y168949D01*
X179049Y176810D02*
X202578Y200340D01*
X200852Y188204D02*
X205786Y183269D01*
X199560Y187825D02*
X205045Y182340D01*
X195583Y161608D02*
X205042Y171067D01*
X179361Y163760D02*
X205752Y190151D01*
X185866Y198178D02*
X204946Y179098D01*
X181874Y162932D02*
X205411Y186470D01*
X180904Y163633D02*
X204932Y187661D01*
X181809Y159526D02*
X213691Y191409D01*
X188693Y158059D02*
X213691Y183057D01*
X198156Y147478D02*
X213691Y163013D01*
X179126Y183205D02*
X211966Y150365D01*
X163618Y208735D02*
X213691Y158661D01*
X178655Y182005D02*
X210530Y150130D01*
X176359Y180961D02*
X213691Y143628D01*
X177756Y181234D02*
X209778Y149212D01*
X202171Y146482D02*
X213691Y158002D01*
X201473Y147455D02*
X213691Y159673D01*
X202292Y144933D02*
X213691Y156332D01*
X196523Y159126D02*
X213691Y141958D01*
X200362Y148014D02*
X213691Y161343D01*
X195996Y157983D02*
X212056Y141923D01*
X195052Y157257D02*
X210676Y141632D01*
X187314Y160021D02*
X205196Y177903D01*
X188314Y159351D02*
X206095Y177131D01*
X172343Y160082D02*
X200125Y187864D01*
X171447Y147494D02*
X205036Y181083D01*
X172116Y146493D02*
X205005Y179382D01*
X158024Y160796D02*
X204751Y207523D01*
X160276Y154697D02*
X203599Y198020D01*
X160493Y146563D02*
X205030Y191099D01*
X160628Y153379D02*
X204477Y197228D01*
X196324Y160679D02*
X205778Y170133D01*
X196539Y159223D02*
X205010Y167695D01*
X202305Y144992D02*
X205023Y142275D01*
X188314Y159351D02*
X206095Y177131D01*
X188648Y158650D02*
X199275Y148022D01*
X193567Y157071D02*
X207092Y143546D01*
X175266Y173702D02*
X205734Y143234D01*
X174920Y251187D02*
X175705Y251972D01*
X177171D02*
X188662Y240481D01*
X174920Y249118D02*
Y251972D01*
X181237Y239131D02*
X194079Y251972D01*
X175501D02*
X187031Y240443D01*
X174920Y249517D02*
X177375Y251972D01*
X168409Y250712D02*
X169754Y249367D01*
X174733Y239308D02*
X187398Y251972D01*
X174920Y250883D02*
X186027Y239776D01*
X169754Y249118D02*
Y250712D01*
X172575Y246546D02*
X179884Y239237D01*
X164432Y242370D02*
X170027Y247964D01*
X163398Y250712D02*
X174797Y239313D01*
X164889Y241156D02*
X170786Y247053D01*
X162358Y248647D02*
X164423Y250712D01*
X163682Y248301D02*
X166094Y250712D01*
X160058D02*
X162131Y248639D01*
X165063Y246341D02*
X169434Y250712D01*
X164569Y247517D02*
X167764Y250712D01*
X158387D02*
X160876Y248224D01*
X156717Y250712D02*
X160034Y247395D01*
X157451Y245411D02*
X162753Y250712D01*
X157185Y246815D02*
X161083Y250712D01*
X163544Y243152D02*
X169754Y249362D01*
X157347Y245072D02*
X160172Y242246D01*
X182084Y238307D02*
X195749Y251972D01*
X182131Y236684D02*
X197420Y251972D01*
X179520Y239084D02*
X192409Y251972D01*
X176778Y237332D02*
X193439Y220672D01*
X176714Y237948D02*
X190738Y251972D01*
X176036Y238941D02*
X189068Y251972D01*
X174596Y247866D02*
X185666Y236797D01*
X174420Y225632D02*
X185637Y236849D01*
X189643Y236160D02*
X190268Y235535D01*
X188567Y235566D02*
X189226Y234907D01*
X186663Y235799D02*
X188790Y233672D01*
X181520Y235932D02*
X195466Y221985D01*
X180190Y235591D02*
X194234Y221547D01*
X176274Y236166D02*
X193123Y219317D01*
X165795Y210326D02*
X188823Y233354D01*
X164492Y212364D02*
X187622Y235494D01*
X166739Y250712D02*
X178909Y238543D01*
X174920Y249213D02*
X185432Y238700D01*
X165091Y245679D02*
X173060Y237710D01*
X161728Y250712D02*
X173631Y238809D01*
X160457Y220021D02*
X178786Y238350D01*
X165069Y250712D02*
X178568Y237213D01*
X172917Y227469D02*
X181186Y235739D01*
X170912Y227135D02*
X179563Y235786D01*
X173970Y226852D02*
X185353Y238235D01*
X169602Y227496D02*
X178740Y236633D01*
X162415Y238333D02*
X173504Y227244D01*
X160286Y221520D02*
X174411Y235645D01*
X159396Y222301D02*
X173418Y236322D01*
X154237Y247208D02*
X157742Y250712D01*
X156252Y247552D02*
X159412Y250712D01*
X152981Y247622D02*
X156072Y250712D01*
X153376D02*
X161012Y243077D01*
X155047Y250712D02*
X159601Y246158D01*
X151706Y250712D02*
X154901Y247517D01*
X148365Y250712D02*
X151877Y247201D01*
X141318Y237630D02*
X154401Y250712D01*
X146695D02*
X151238Y246169D01*
X150036Y250712D02*
X153125Y247623D01*
X156569Y244179D02*
X159786Y240962D01*
X141520Y239501D02*
X152731Y250712D01*
X141884Y241536D02*
X151061Y250712D01*
X143815Y235115D02*
X152633Y243933D01*
X141419Y236060D02*
X151193Y245834D01*
X141671Y246334D02*
X146050Y250712D01*
X142027Y245019D02*
X147720Y250712D01*
X140686Y247019D02*
X144379Y250712D01*
X141095Y242417D02*
X149390Y250712D01*
X139574Y242566D02*
X140371Y243363D01*
X136673Y250712D02*
X140297Y247088D01*
X135003Y250712D02*
X139018Y246697D01*
X140455Y238436D02*
X141460Y239441D01*
X141159Y237875D02*
X143967Y235066D01*
X141385Y235978D02*
X142413Y234950D01*
X140110Y238924D02*
X140814Y238219D01*
X138644Y238296D02*
X139425Y239077D01*
X139049Y234974D02*
X139184Y234838D01*
X149001Y221927D02*
X179046Y251972D01*
X150325Y221581D02*
X180716Y251972D01*
X145025Y250712D02*
X168634Y227103D01*
X151016Y220602D02*
X182387Y251972D01*
X146923Y221520D02*
X171965Y246562D01*
X143354Y250712D02*
X167979Y226088D01*
X141684Y250712D02*
X167148Y225249D01*
X140014Y250712D02*
X166190Y224536D01*
X138343Y250712D02*
X165880Y223176D01*
X155075Y244002D02*
X171751Y227327D01*
X153477Y243931D02*
X169905Y227502D01*
X144085Y231608D02*
X163344Y212349D01*
X141992Y240382D02*
X183026Y199348D01*
X142033Y245352D02*
X175598Y211788D01*
X140634Y243411D02*
X183281Y200764D01*
X141643Y244073D02*
X175464Y210251D01*
X136032Y178892D02*
X189434Y232294D01*
X135293Y184835D02*
X186415Y235956D01*
X144810Y234440D02*
X154596Y244226D01*
X145179Y233139D02*
X156001Y243960D01*
X141626Y234596D02*
X151607Y244578D01*
X145726Y221993D02*
X162079Y238346D01*
X141355Y239349D02*
X158296Y222409D01*
X137086Y221705D02*
X159934Y244553D01*
X136101Y222391D02*
X159588Y245877D01*
X137440Y220388D02*
X160718Y243666D01*
X134866Y214474D02*
X160083Y239691D01*
X145071Y233963D02*
X157246Y221787D01*
X142235Y231788D02*
X162395Y211628D01*
X144954Y232409D02*
X156802Y220562D01*
X140824Y231528D02*
X162100Y210252D01*
X176607Y209108D02*
X184209Y201506D01*
X178939Y210117D02*
X198230Y190826D01*
X178144Y209242D02*
X197851Y189534D01*
X164716Y189203D02*
X193542Y218028D01*
X166343Y187490D02*
X195730Y216876D01*
X165827Y188644D02*
X194401Y217218D01*
X179156Y176493D02*
X193540Y162109D01*
X179070Y174909D02*
X192397Y161582D01*
X178386Y173922D02*
X191671Y160638D01*
X165572Y178366D02*
X185102Y197896D01*
X167107Y176850D02*
X180141Y163816D01*
X171802Y161213D02*
X198705Y188115D01*
X170668Y161749D02*
X197961Y189041D01*
X168792Y221934D02*
X178385Y212341D01*
X167422Y225315D02*
X167933Y225827D01*
X167432Y221624D02*
X176473Y212583D01*
X166323Y187655D02*
X175760Y178219D01*
X166020Y186289D02*
X174773Y177535D01*
X166814Y175472D02*
X178751Y163536D01*
X167135Y176589D02*
X174026Y183480D01*
X165066Y185573D02*
X174198Y176441D01*
X165866Y174750D02*
X177855Y162761D01*
X182482Y161475D02*
X185080Y158877D01*
X182202Y160085D02*
X197297Y144990D01*
X183363Y151059D02*
X191481Y159177D01*
X177291Y173347D02*
X191485Y159153D01*
X170801Y148519D02*
X181671Y159388D01*
X172353Y159912D02*
X181436Y150829D01*
X184229Y150254D02*
X191990Y158016D01*
X184337Y148692D02*
X192920Y157275D01*
X181535Y150901D02*
X186985Y156351D01*
X188411Y157217D02*
X198152Y147475D01*
X187491Y156465D02*
X197443Y146513D01*
X171912Y158682D02*
X180777Y149818D01*
X169967Y149355D02*
X179379Y158767D01*
X170808Y143515D02*
X185023Y157730D01*
X168302Y149361D02*
X178265Y159324D01*
X160587Y149997D02*
X169158Y158568D01*
X160614Y153277D02*
X168036Y145855D01*
X160423Y148163D02*
X170288Y158028D01*
X160354Y151434D02*
X168622Y159702D01*
X160022Y152199D02*
X167339Y144881D01*
X170984Y147918D02*
X171316Y147586D01*
X160393Y138111D02*
X167456Y145174D01*
X160387Y141445D02*
X167451Y148509D01*
X160302Y136349D02*
X167455Y143502D01*
X148632Y206526D02*
X165882Y223775D01*
X148188Y207752D02*
X159227Y218791D01*
X148546Y207103D02*
X177344Y178305D01*
X148378Y205600D02*
X164786Y189193D01*
X137345Y219974D02*
X174036Y183283D01*
X134950Y215688D02*
X162703Y187935D01*
X142828Y168985D02*
X193125Y219282D01*
X135622Y180153D02*
X164193Y208723D01*
X147490Y204819D02*
X163419Y188889D01*
X156442Y160885D02*
X176509Y180952D01*
X142817Y167304D02*
X162624Y187111D01*
X159583Y159016D02*
X174738Y174170D01*
X159009Y160112D02*
X174183Y175286D01*
X137423Y194841D02*
X170507Y161758D01*
X136826Y193768D02*
X169277Y161317D01*
X135630Y193294D02*
X168652Y160271D01*
X135359Y183543D02*
X158165Y160737D01*
X147139Y208373D02*
X157728Y218962D01*
X136614Y219035D02*
X147324Y208325D01*
X135219Y218760D02*
X145821Y208157D01*
X136913Y196476D02*
X145552Y205116D01*
X135788Y197022D02*
X144930Y206165D01*
X138716Y166543D02*
X139483Y167311D01*
X137568Y167066D02*
X139465Y168963D01*
X139269Y165426D02*
X140322Y166480D01*
X137443Y195337D02*
X146778Y204671D01*
X135910Y179651D02*
X155314Y160247D01*
X135805Y178086D02*
X154669Y159221D01*
X159218Y156980D02*
X175706Y173468D01*
X159293Y155384D02*
X177244Y173336D01*
X159422Y159480D02*
X169364Y149538D01*
X159730Y142459D02*
X177564Y160293D01*
X159550Y157682D02*
X168033Y149199D01*
X158933Y156629D02*
X167338Y148223D01*
X158458Y142857D02*
X177437Y161836D01*
X138510Y163689D02*
X159780Y142419D01*
X159579Y138967D02*
X167457Y146845D01*
X157907Y155984D02*
X158458Y155432D01*
X156210Y156011D02*
X157380Y154840D01*
X142243Y166637D02*
X157293Y151586D01*
X142941Y167610D02*
X156901Y153649D01*
X140908Y166301D02*
X156905Y150305D01*
X134940Y177281D02*
X154697Y157524D01*
X137181Y163347D02*
X157825Y142704D01*
X139203Y164666D02*
X156934Y146935D01*
X157966Y139221D02*
X158101Y139087D01*
X157985Y139043D02*
X158118Y139176D01*
X153101Y139171D02*
X159497Y145566D01*
X154213Y138612D02*
X156707Y141106D01*
X154729Y137458D02*
X157104Y139833D01*
X208401Y132668D02*
X213691Y137958D01*
X208604Y131201D02*
X213691Y136288D01*
X208337Y140631D02*
X213691Y135276D01*
X208829Y128085D02*
X213691Y132948D01*
X208564Y129491D02*
X213691Y134618D01*
X201758Y143869D02*
X213691Y131936D01*
X207378Y139920D02*
X213691Y133606D01*
X199273Y143014D02*
X213691Y128595D01*
X200797Y143160D02*
X213691Y130265D01*
X208328Y130618D02*
X213691Y125254D01*
X208868Y128408D02*
X213691Y123584D01*
X208653Y131963D02*
X213691Y126925D01*
X209255Y116819D02*
X213691Y121255D01*
X208388Y127217D02*
X213691Y121914D01*
X201099Y118684D02*
X213691Y131277D01*
X207310Y126625D02*
X213691Y120244D01*
X202612Y116857D02*
X213691Y127936D01*
X202062Y117978D02*
X213691Y129607D01*
X207497Y133435D02*
X212403Y138341D01*
X207610Y118515D02*
X213691Y124596D01*
X200954Y123551D02*
X205239Y127836D01*
X202997Y122253D02*
X207382Y126638D01*
X202296Y123222D02*
X205976Y126902D01*
X208730Y117964D02*
X213691Y122925D01*
X202936Y120977D02*
X206003Y117910D01*
X202157Y120086D02*
X205523Y116719D01*
X199570Y118826D02*
X200657Y119913D01*
X196871Y116127D02*
X197607Y116863D01*
X208644Y115268D02*
X213691Y110222D01*
X207454Y114788D02*
X213691Y108551D01*
X209236Y116347D02*
X213691Y111892D01*
Y67791D02*
Y251972D01*
X202666Y116236D02*
X213691Y105210D01*
X200661Y119911D02*
X213691Y106881D01*
X200980Y113554D02*
X213691Y126266D01*
X201429Y114132D02*
X213691Y101870D01*
X202273Y114959D02*
X213691Y103540D01*
X209279Y103481D02*
X213691Y107893D01*
X209450Y100310D02*
X213691Y104552D01*
X209457Y105329D02*
X213691Y109563D01*
X209457Y102763D02*
X213691Y98529D01*
X209331Y104560D02*
X213691Y100199D01*
X208965Y106507D02*
X213691Y111233D01*
X207876Y107088D02*
X213691Y112903D01*
X202936Y92126D02*
X213691Y102882D01*
X209199Y101730D02*
X213691Y106222D01*
X202308Y113213D02*
X205535Y116439D01*
X200125Y113766D02*
X200474Y113417D01*
X203002Y112236D02*
X206085Y115320D01*
X198988Y113233D02*
X199590Y112631D01*
X198989Y113234D02*
X199576Y113822D01*
X197989Y112561D02*
X199434Y111116D01*
X202930Y110961D02*
X206909Y106982D01*
X202143Y110077D02*
X205998Y106223D01*
X200629Y109922D02*
X205779Y104772D01*
X164658Y122332D02*
X213691Y171365D01*
X187756Y128727D02*
X213691Y154662D01*
X181427Y159189D02*
X207066Y133550D01*
X170867Y158057D02*
X213691Y115233D01*
X172654Y111955D02*
X209716Y149016D01*
X164327Y123671D02*
X207032Y166376D01*
X163494Y117827D02*
X205792Y160125D01*
X164612Y115604D02*
X213691Y164684D01*
X164401Y117064D02*
X207211Y159874D01*
X189656Y120605D02*
X210158Y141106D01*
X190310Y119588D02*
X210024Y139302D01*
X188388Y121007D02*
X207269Y139888D01*
X184061Y148203D02*
X213691Y118573D01*
X190284Y118596D02*
X205769Y103111D01*
X183050Y147544D02*
X213691Y116903D01*
X173962Y111592D02*
X209935Y147565D01*
X179501Y103768D02*
X205832Y130099D01*
X175205Y109494D02*
X205819Y140108D01*
X187916Y132227D02*
X198836Y143147D01*
X188417Y131057D02*
X200385Y143026D01*
X186820Y132801D02*
X197864Y143845D01*
X184455Y149480D02*
X205154Y128780D01*
X181995Y129647D02*
X197304Y144956D01*
X180223Y158723D02*
X205721Y133225D01*
X180408Y129730D02*
X197840Y147162D01*
X163357Y124371D02*
X205704Y166718D01*
X148895Y104898D02*
X205047Y161051D01*
X188372Y130530D02*
X200020Y118882D01*
X187731Y129501D02*
X198743Y118489D01*
X187877Y127684D02*
X197916Y117645D01*
X187284Y126607D02*
X197550Y116341D01*
X174808Y110768D02*
X205059Y141019D01*
X186092Y126129D02*
X196367Y115854D01*
X180912Y101839D02*
X199688Y120614D01*
X180515Y103112D02*
X199359Y121955D01*
X178353Y122175D02*
X213691Y86837D01*
X177849Y121009D02*
X213691Y85167D01*
X169030Y96637D02*
X210831Y138439D01*
X176750Y120438D02*
X213691Y83496D01*
X164673Y122492D02*
X206309Y80857D01*
X160002Y142196D02*
X213691Y88507D01*
X158416Y145453D02*
X213691Y90178D01*
X164156Y126350D02*
X205975Y84531D01*
X163126Y125710D02*
X205803Y83033D01*
X167475Y71699D02*
X213691Y117914D01*
X168674Y71227D02*
X213691Y116244D01*
X189587Y117622D02*
X206040Y101170D01*
X175114Y108711D02*
X213691Y70134D01*
X169273Y70155D02*
X213691Y114574D01*
X163610Y69503D02*
X213691Y119585D01*
X162456Y70020D02*
X207230Y114794D01*
X160512Y56384D02*
X205936Y101807D01*
X158842Y56384D02*
X205866Y103408D01*
X169880Y95818D02*
X205066Y131003D01*
X188254Y117285D02*
X205748Y99791D01*
X160588Y134929D02*
X201206Y94311D01*
X160250Y133597D02*
X199934Y93913D01*
X164576Y127601D02*
X199279Y92898D01*
X157921Y75507D02*
X195868Y113454D01*
X157125Y76381D02*
X195739Y114996D01*
X135839Y50085D02*
X198632Y112877D01*
X157690Y73606D02*
X196741Y112657D01*
X172926Y83831D02*
X199697Y110601D01*
X171457Y84031D02*
X199355Y111930D01*
X174918Y110577D02*
X205738Y79758D01*
X173694Y82928D02*
X200673Y109907D01*
X164559Y112584D02*
X205007Y72137D01*
X163814Y111659D02*
X203220Y72254D01*
X164675Y63887D02*
X205741Y104953D01*
X162393Y111410D02*
X202360Y71443D01*
X209360Y99520D02*
X213691Y95188D01*
X208637Y98573D02*
X213691Y93518D01*
X209044Y101506D02*
X213691Y96859D01*
X209459Y83616D02*
X213691Y87849D01*
X208994Y84821D02*
X213691Y89519D01*
X207928Y85426D02*
X213691Y91189D01*
X207258Y98281D02*
X213691Y91848D01*
X202561Y91286D02*
X213691Y80156D01*
X202960Y92558D02*
X213691Y81826D01*
X209314Y82863D02*
X213691Y78485D01*
X210244Y71039D02*
X213691Y74486D01*
X209338Y80155D02*
X213691Y84508D01*
X211911Y69364D02*
X213691Y71145D01*
X211374Y70499D02*
X213691Y72816D01*
X208534Y81973D02*
X213691Y76815D01*
X208588Y81075D02*
X213691Y86178D01*
X206911Y71046D02*
X213691Y77827D01*
X205648Y71453D02*
X213691Y79497D01*
X207156Y81313D02*
X207559Y81717D01*
X207036Y81800D02*
X207475Y81361D01*
X202638Y93498D02*
X207401Y98261D01*
X201687Y94218D02*
X206268Y98799D01*
X202962Y72108D02*
X213691Y82838D01*
X201546Y90630D02*
X206866Y85311D01*
X208952Y78214D02*
X213691Y73474D01*
X209456Y79380D02*
X213691Y75145D01*
X208079Y70544D02*
X213691Y76156D01*
X207853Y77643D02*
X213691Y71804D01*
X204782Y72258D02*
X213691Y81167D01*
X205586Y71557D02*
X206195Y70948D01*
X213667Y67780D02*
X213691Y67805D01*
X211841Y68643D02*
X213049Y67436D01*
X213267Y60536D02*
X217230Y56573D01*
X204037Y59821D02*
X213691Y69475D01*
X203312Y68821D02*
X216781Y55352D01*
X203026Y52129D02*
X212264Y61367D01*
X204029Y49790D02*
X214335Y60097D01*
X203783Y51215D02*
X213166Y60597D01*
X215825Y59649D02*
X216891Y58582D01*
X204031Y59750D02*
X213728Y50053D01*
X203571Y58540D02*
X213007Y49103D01*
X204349Y41759D02*
X215633Y53043D01*
X211148Y67666D02*
X212176Y66638D01*
X206463Y67340D02*
X211818Y61985D01*
X207846Y67628D02*
X211258Y64216D01*
X204893Y68910D02*
X204962Y68841D01*
X202980Y62104D02*
X208730Y67854D01*
X209821Y67323D02*
X211554Y65590D01*
X203755Y61209D02*
X209864Y67318D01*
X204022Y49737D02*
X208888Y44872D01*
X203536Y48553D02*
X207961Y44128D01*
X201846Y52618D02*
X211612Y62384D01*
X201774Y62568D02*
X206534Y67328D01*
X202679Y57761D02*
X212252Y48188D01*
X202626Y47793D02*
X206999Y43420D01*
X180813Y101342D02*
X213691Y68463D01*
X180085Y100400D02*
X209514Y70971D01*
X178697Y100117D02*
X208536Y70278D01*
X172204Y56384D02*
X213691Y97870D01*
X170534Y56384D02*
X213691Y99541D01*
X168864Y56384D02*
X213691Y101211D01*
X162182Y56384D02*
X205729Y99930D01*
X169280Y99512D02*
X215674Y53118D01*
X169428Y97694D02*
X215062Y52059D01*
X180556Y56384D02*
X206354Y82182D01*
X183897Y56384D02*
X206008Y78495D01*
X182227Y56384D02*
X205770Y79927D01*
X185567Y56384D02*
X206928Y77745D01*
X191644Y54109D02*
X205436Y67901D01*
X175545Y56384D02*
X213691Y94530D01*
X173875Y56384D02*
X213691Y96200D01*
X177216Y56384D02*
X213691Y92860D01*
X178886Y56384D02*
X205750Y83248D01*
X180406Y71267D02*
X200039Y90900D01*
X179046Y71577D02*
X199320Y91851D01*
X181119Y70309D02*
X201412Y90602D01*
X173049Y80710D02*
X201139Y52620D01*
X170155Y93626D02*
X201211Y62570D01*
X169511Y92600D02*
X200001Y62109D01*
X168458Y91983D02*
X199222Y61218D01*
X167953Y90817D02*
X198935Y59835D01*
X190578Y56384D02*
X203110Y68916D01*
X191644Y55779D02*
X204676Y68811D01*
X191644Y52439D02*
X198944Y59738D01*
X187238Y56384D02*
X202455Y71601D01*
X188908Y56384D02*
X202305Y69781D01*
X171712Y80376D02*
X199955Y52134D01*
X181152Y69266D02*
X199195Y51223D01*
X191644Y45757D02*
X211612Y65725D01*
X199391Y40142D02*
X217171Y57922D01*
X191644Y44087D02*
X211269Y63712D01*
X197721Y40142D02*
X216589Y59010D01*
X196050Y40142D02*
X215650Y59742D01*
X170126Y95325D02*
X214413Y51038D01*
X191644Y47428D02*
X201691Y57475D01*
X167054Y90045D02*
X210638Y46462D01*
X173747Y81682D02*
X209780Y45649D01*
X201296Y57473D02*
X211462Y47308D01*
X201184Y40264D02*
X217139Y56220D01*
X201207Y47541D02*
X206001Y42747D01*
X191644Y55434D02*
X204967Y42111D01*
X191644Y53764D02*
X203895Y41513D01*
X191644Y52093D02*
X202784Y40953D01*
X194380Y40142D02*
X201781Y47542D01*
X191644Y50768D02*
X199408Y58533D01*
X191644Y49098D02*
X200303Y57757D01*
X191644Y42417D02*
X198953Y49725D01*
X191644Y50423D02*
X201632Y40435D01*
X192710Y40142D02*
X200357Y47789D01*
X191644Y40746D02*
X199443Y48545D01*
X180492Y68256D02*
X198943Y49805D01*
X191644Y48752D02*
X200255Y40142D01*
X191644Y47082D02*
X198585Y40142D01*
X191644D02*
X200347D01*
X191644Y45412D02*
X196914Y40142D01*
X171885Y147016D02*
X186129Y132773D01*
X172007Y145225D02*
X185100Y132132D01*
X171197Y144364D02*
X184681Y130880D01*
X170647Y143244D02*
X184643Y129248D01*
X169673Y142548D02*
X184165Y128056D01*
X164243Y128598D02*
X183253Y147608D01*
X164554Y127239D02*
X194375Y157060D01*
X159807Y145733D02*
X186640Y118899D01*
X182807Y128789D02*
X184699Y130681D01*
X182703Y127014D02*
X184251Y128562D01*
X182315Y126565D02*
X187951Y120929D01*
X181081Y126128D02*
X186977Y120232D01*
X160580Y149970D02*
X180723Y129827D01*
X163285Y129311D02*
X181691Y147716D01*
X160584Y134961D02*
X168289Y142666D01*
X160536Y146674D02*
X179243Y127967D01*
X160472Y136716D02*
X174635Y122552D01*
X159918Y148962D02*
X179680Y129200D01*
X160287Y140241D02*
X176372Y124156D01*
X159495Y139363D02*
X175206Y123652D01*
X177717Y123698D02*
X180322Y126303D01*
X176507Y124159D02*
X179464Y127115D01*
X178324Y122635D02*
X182097Y126408D01*
X159276Y132901D02*
X162776Y129401D01*
X164560Y113882D02*
X179380Y128702D01*
X182942Y127609D02*
X195695Y114855D01*
X164179Y121316D02*
X173830Y111665D01*
X168943Y99891D02*
X187029Y117978D01*
X167722Y100340D02*
X186627Y119246D01*
X160048Y107700D02*
X174617Y122268D01*
X163089Y120736D02*
X171964Y111861D01*
X158719Y99690D02*
X185305Y126276D01*
X157591Y100231D02*
X184417Y127058D01*
X174512Y107642D02*
X178433Y103721D01*
X173501Y106983D02*
X177491Y102994D01*
X171850Y106964D02*
X177208Y101605D01*
X170283Y94550D02*
X177232Y101499D01*
X169560Y98838D02*
X188046Y117324D01*
X158057Y78984D02*
X179162Y100088D01*
X157472Y80068D02*
X177889Y100485D01*
X164657Y115827D02*
X170235Y110249D01*
X164087Y114727D02*
X170217Y108597D01*
X158478Y109470D02*
X161232Y112224D01*
X159562Y108884D02*
X162158Y111480D01*
X159985Y107137D02*
X166950Y100171D01*
X159314Y106137D02*
X166085Y99366D01*
X159253Y98554D02*
X170089Y109389D01*
X158020Y105761D02*
X165981Y97800D01*
X159201Y97899D02*
X164617Y92483D01*
X146803Y134543D02*
X157896Y145636D01*
X154340Y136166D02*
X161525Y128981D01*
X154730Y137446D02*
X156944Y135233D01*
X147738Y132746D02*
X162544Y117940D01*
X153331Y135505D02*
X160885Y127951D01*
X145282Y134692D02*
X157080Y146490D01*
X142023Y121411D02*
X157050Y136437D01*
X143295Y119342D02*
X157367Y133414D01*
X142982Y120700D02*
X156866Y134584D01*
X147208Y131606D02*
X161444Y117370D01*
X147259Y104932D02*
X163058Y120731D01*
X149722Y104055D02*
X161067Y115400D01*
X150052Y102715D02*
X160981Y113644D01*
X152295Y101617D02*
X156920Y106242D01*
X146083Y131061D02*
X160939Y116205D01*
X141187Y107212D02*
X160929Y126954D01*
X143232Y105917D02*
X163000Y125685D01*
X142530Y106885D02*
X161641Y125996D01*
X147593Y133662D02*
X151010Y137079D01*
X147233Y131632D02*
X151568Y135968D01*
X151525Y102518D02*
X156333Y107326D01*
X135289Y119688D02*
X147163Y131562D01*
X134965Y117693D02*
X152722Y135451D01*
X135362Y118397D02*
X148829Y104931D01*
X149738Y104021D02*
X151035Y102725D01*
X146704Y101037D02*
X147221Y101554D01*
X143316Y105432D02*
X146389Y102359D01*
X135414Y101440D02*
X139595Y105621D01*
X145417Y101421D02*
X146378Y102381D01*
X142898Y104180D02*
X145654Y101424D01*
X154040Y100022D02*
X175078Y121059D01*
X154854Y99165D02*
X176140Y120451D01*
X152451Y100102D02*
X158104Y105755D01*
X151433Y85722D02*
X172549Y106838D01*
X149917Y85876D02*
X171276Y107235D01*
X143181Y118930D02*
X165892Y96219D01*
X140937Y117833D02*
X165388Y93382D01*
X142411Y118029D02*
X165274Y95166D01*
X154987Y98773D02*
X155527Y98232D01*
X152371Y101389D02*
X153561Y100198D01*
X152220Y84839D02*
X165857Y98475D01*
X154755Y97396D02*
X155533Y98173D01*
X147167Y101581D02*
X168608Y80140D01*
X147429Y99649D02*
X166679Y80399D01*
X147370Y100033D02*
X148762Y101425D01*
X147059Y98051D02*
X148959Y99951D01*
X141869Y103538D02*
X144392Y101016D01*
X143447Y99450D02*
X143697Y99700D01*
X135345Y101711D02*
X151235Y85821D01*
X135198Y100187D02*
X149631Y85755D01*
X151244Y99174D02*
X151404Y99015D01*
X147021Y98387D02*
X147262Y98145D01*
X149607Y97258D02*
X151429Y99081D01*
X148763Y98085D02*
X149860Y99182D01*
X145999Y97738D02*
X146352Y97385D01*
X158537Y96893D02*
X171411Y84018D01*
X157252Y96507D02*
X170439Y83320D01*
X153803Y96616D02*
X178877Y71542D01*
X154731Y97358D02*
X170105Y81984D01*
X169294Y78528D02*
X171261Y80495D01*
X168917Y79822D02*
X170359Y81263D01*
X168884Y79864D02*
X177867Y70881D01*
X169143Y77935D02*
X177475Y69603D01*
X167918Y80493D02*
X170158Y82732D01*
X157857Y80869D02*
X167064Y71663D01*
X158054Y79001D02*
X166011Y71045D01*
X158245Y84182D02*
X164797Y90734D01*
X158976Y83243D02*
X165742Y90009D01*
X156851Y84459D02*
X164510Y92118D01*
X155205Y82812D02*
X155376Y82984D01*
X152223Y84833D02*
X154359Y82696D01*
X152157Y83229D02*
X153444Y81942D01*
X157755Y77631D02*
X165561Y69824D01*
X157959Y74086D02*
X162040Y70005D01*
X151304Y82411D02*
X153215Y80500D01*
X155586Y76512D02*
X155914Y76841D01*
X168350Y77058D02*
X189024Y56384D01*
X169265Y69461D02*
X182343Y56384D01*
X166817Y76921D02*
X187354Y56384D01*
X165523D02*
X177804Y68665D01*
X158784Y81612D02*
X184013Y56384D01*
X156802Y76913D02*
X177331Y56384D01*
X159036Y83030D02*
X185683Y56384D01*
X163853D02*
X177494Y70025D01*
X191644Y42071D02*
X193574Y40142D01*
X191644Y40401D02*
X191903Y40142D01*
X179213Y67864D02*
X190694Y56384D01*
X191644Y43742D02*
X195244Y40142D01*
X191644D02*
Y56384D01*
X167193D02*
X178762Y67952D01*
X164163Y67882D02*
X175661Y56384D01*
X168648Y68408D02*
X180672Y56384D01*
X167427Y67959D02*
X179002Y56384D01*
X163116Y65669D02*
X166034Y68587D01*
X164169Y68392D02*
X165562Y69785D01*
X163588Y66787D02*
X173991Y56384D01*
X164194Y65077D02*
X167105Y67988D01*
X157207Y73167D02*
X160945Y69430D01*
X155772Y72932D02*
X160446Y68258D01*
X152161Y56384D02*
X162077Y66300D01*
X163333Y62031D02*
X168980Y56384D01*
X162416Y66288D02*
X163022Y65682D01*
X164663Y64041D02*
X172320Y56384D01*
X164314Y62720D02*
X170650Y56384D01*
X157172D02*
X162743Y61956D01*
X155501Y56384D02*
X161553Y62436D01*
X153831Y56384D02*
X160961Y63514D01*
X144363Y96034D02*
X156200Y84197D01*
X149685Y95723D02*
X165802Y79605D01*
X149644Y95625D02*
X151510Y97491D01*
X147374Y78323D02*
X166306Y97254D01*
X148925Y94812D02*
X165665Y78073D01*
X142563Y83534D02*
X156075Y97045D01*
X141253Y83893D02*
X154136Y96777D01*
X143246Y82546D02*
X157211Y96511D01*
X142981Y95745D02*
X155456Y83270D01*
X147474Y94593D02*
X157618Y84449D01*
X146468Y79087D02*
X149764Y82382D01*
X147584Y76862D02*
X165168Y94446D01*
X149560Y82485D02*
X155547Y76498D01*
X139375Y73664D02*
X148880Y83170D01*
X142965Y70573D02*
X153168Y80776D01*
X135195Y71154D02*
X148726Y84686D01*
X145087Y96980D02*
X146133Y95934D01*
X143317Y82046D02*
X146192Y79172D01*
X142872Y80822D02*
X144770Y78923D01*
X142022Y71301D02*
X146265Y75543D01*
X141822Y80201D02*
X144025Y77998D01*
X135016Y84338D02*
X146262Y95584D01*
X141295Y72243D02*
X144804Y75752D01*
X140642Y73261D02*
X144040Y76658D01*
X137059Y71348D02*
X137611Y71900D01*
X135350Y69639D02*
X135695Y69985D01*
X135416Y69904D02*
X135645Y69674D01*
X147353Y76340D02*
X167309Y56384D01*
X146428Y75595D02*
X165639Y56384D01*
X147602Y77762D02*
X161011Y64352D01*
X140850Y50085D02*
X167589Y76824D01*
X139180Y50085D02*
X166296Y77201D01*
X134877Y85476D02*
X163969Y56384D01*
X139000Y61597D02*
X154830Y77426D01*
X137510Y50085D02*
X165625Y78200D01*
X134844Y83838D02*
X162299Y56384D01*
X149518D02*
X191644D01*
X150490D02*
X160966Y66859D01*
X142521Y50085D02*
X160449Y68013D01*
X143151Y68850D02*
X155617Y56384D01*
X141218Y60474D02*
X154580Y73836D01*
X140457Y61383D02*
X154448Y75375D01*
X141236Y72435D02*
X157288Y56384D01*
X142390Y67940D02*
X153947Y56384D01*
X143248Y69186D02*
X153699Y79637D01*
X139365Y69295D02*
X139602Y69059D01*
X140936Y67725D02*
X152277Y56384D01*
X138805Y68185D02*
X150606Y56384D01*
X134820Y68829D02*
X149518Y54131D01*
X137651Y67669D02*
X149518Y55801D01*
X147532Y50085D02*
X149518Y52071D01*
X145861Y50085D02*
X149518Y53741D01*
Y50085D02*
Y56384D01*
X149202Y50085D02*
X149518Y50401D01*
X144191Y50085D02*
X149518Y55412D01*
X141215Y59094D02*
X149518Y50791D01*
X140448Y58190D02*
X148554Y50085D01*
X138982Y57986D02*
X146883Y50085D01*
X129992Y250712D02*
X138723Y241981D01*
X131662Y250712D02*
X139757Y242618D01*
X133332Y250712D02*
X138357Y245688D01*
X128499Y248864D02*
X138918Y238446D01*
X128321Y250712D02*
X138298Y240735D01*
X127390Y250712D02*
X169754D01*
X121551Y237906D02*
X134357Y250712D01*
X119970D02*
X148792Y221890D01*
X121640Y250712D02*
X138481Y233871D01*
X128094Y222735D02*
X138414Y233055D01*
X131490Y222790D02*
X140147Y231447D01*
X127985Y247708D02*
X138044Y237649D01*
X132450Y222079D02*
X142191Y231820D01*
X128986Y221956D02*
X138982Y231953D01*
X126875Y247147D02*
X137914Y236109D01*
X120737Y236582D02*
X134961Y222359D01*
X118844Y248497D02*
X145373Y221969D01*
X119352Y236297D02*
X134022Y221627D01*
X127579Y250616D02*
X127676Y250712D01*
X128359Y249725D02*
X129346Y250712D01*
X124981D02*
X125341Y250352D01*
X118920Y250712D02*
X125879D01*
X118920Y249118D02*
Y250712D01*
X121209Y239234D02*
X132687Y250712D01*
X121532Y241227D02*
X131017Y250712D01*
X121251Y242618D02*
X125911Y247277D01*
X123310Y250712D02*
X124780Y249243D01*
X118863Y248581D02*
X120995Y250712D01*
X118920Y250308D02*
X119324Y250712D01*
X120310Y243347D02*
X125021Y248057D01*
X122933Y200870D02*
X160865Y238803D01*
X121463Y237526D02*
X174309Y184680D01*
X134798Y216076D02*
X159791Y241069D01*
X128613Y168133D02*
X212453Y251972D01*
X128663Y169853D02*
X190646Y231837D01*
X118920Y250092D02*
X147767Y221245D01*
X118268Y247403D02*
X144293Y221378D01*
X121435Y240895D02*
X176280Y186050D01*
X120673Y239987D02*
X175080Y185580D01*
X134508Y185720D02*
X172553Y223766D01*
X134740Y214228D02*
X174553Y174415D01*
X132997Y185879D02*
X171333Y224216D01*
X133152Y152628D02*
X209814Y229290D01*
X133833Y213464D02*
X187264Y160033D01*
X121256Y194182D02*
X145356Y218282D01*
X132416Y219893D02*
X145039Y207269D01*
X121454Y176007D02*
X167141Y221694D01*
X121107Y177330D02*
X166186Y222410D01*
X132764Y220723D02*
X143491Y231451D01*
X132776Y221203D02*
X133746Y220232D01*
X128955Y220013D02*
X132169Y216799D01*
X119937Y196204D02*
X143810Y220077D01*
X128036Y219261D02*
X131405Y215892D01*
X133944Y216893D02*
X135787Y218736D01*
X131427Y219211D02*
X133630Y217008D01*
X132196Y216814D02*
X134471Y219090D01*
X123063Y204341D02*
X132271Y213549D01*
X121913Y204862D02*
X131454Y214402D01*
X120914Y195511D02*
X144283Y218880D01*
X123618Y203226D02*
X133872Y213480D01*
X109761Y219435D02*
X141039Y250712D01*
X117285Y246716D02*
X143811Y220190D01*
X108971Y245008D02*
X131109Y222870D01*
X110977Y218980D02*
X142709Y250712D01*
X111590Y217923D02*
X138371Y244704D01*
X86093Y212470D02*
X124335Y250712D01*
X85221Y213269D02*
X122665Y250712D01*
X97253Y201916D02*
X139056Y243719D01*
X86217Y210924D02*
X124848Y249554D01*
X110660Y206971D02*
X138782Y235093D01*
X111662Y206303D02*
X125647Y220288D01*
X112044Y205015D02*
X126426Y219397D01*
X111044Y216210D02*
X122568Y204685D01*
X107826Y242812D02*
X127810Y222828D01*
X105815Y243153D02*
X126376Y222592D01*
X108742Y243567D02*
X129799Y222510D01*
X104595Y242703D02*
X125624Y221673D01*
X115720Y246610D02*
X119010Y243320D01*
X111960Y248700D02*
X118101Y242559D01*
X110797Y246523D02*
X118142Y239177D01*
X111718Y247271D02*
X117887Y241102D01*
X103677Y251972D02*
X117857Y237792D01*
X83346Y213064D02*
X116874Y246592D01*
X79242Y243000D02*
X120098Y202144D01*
X79242Y244670D02*
X120086Y203827D01*
X99016Y217041D02*
X118597Y236622D01*
X98172Y217868D02*
X117904Y237599D01*
X109884Y215699D02*
X120917Y204666D01*
X99053Y215408D02*
X119925Y236280D01*
X96469Y217835D02*
X118658Y240024D01*
X82127Y205163D02*
X117929Y240966D01*
X79242Y239659D02*
X119502Y199400D01*
X79242Y241330D02*
X119497Y201075D01*
X90314Y251972D02*
X164217Y178069D01*
X91984Y251972D02*
X165594Y178363D01*
X88644Y251972D02*
X163495Y177121D01*
X93655Y251972D02*
X185831Y159796D01*
X86974Y251972D02*
X177389Y161557D01*
X86238Y152484D02*
X185727Y251972D01*
X85527Y153443D02*
X184057Y251972D01*
X83633D02*
X205747Y129858D01*
X85303Y251972D02*
X205017Y132258D01*
X96634Y134484D02*
X213691Y251541D01*
X85138Y149713D02*
X173050Y237625D01*
X98128Y161032D02*
X156948Y219852D01*
X116430Y134236D02*
X210608Y228414D01*
X97193Y133372D02*
X175584Y211763D01*
X84169Y153755D02*
X148692Y218277D01*
X82420Y193764D02*
X139368Y250712D01*
X83866Y250069D02*
X182713Y151222D01*
X79242Y150499D02*
X147712Y218968D01*
X83552Y248713D02*
X135259Y197005D01*
X82757Y247837D02*
X134186Y196408D01*
X110731Y197020D02*
X133785Y220074D01*
X83008Y182660D02*
X138116Y237767D01*
X83694Y181675D02*
X137976Y235957D01*
X82420Y195434D02*
X137698Y250712D01*
X82420Y197104D02*
X136028Y250712D01*
X81911Y183233D02*
X138544Y239866D01*
X81959Y184952D02*
X138394Y241387D01*
X111608Y217316D02*
X133712Y195212D01*
X111792Y196411D02*
X131532Y216151D01*
X102465Y190425D02*
X131202Y219162D01*
X101736Y191366D02*
X129846Y219476D01*
X100345Y191645D02*
X127922Y219222D01*
X97839Y214381D02*
X115962Y196259D01*
X86035Y216164D02*
X135898Y166301D01*
X85110Y215418D02*
X135556Y164972D01*
X133907Y181779D02*
X162155Y210026D01*
X134599Y180801D02*
X162854Y209055D01*
X134656Y182576D02*
X156367Y160864D01*
X120330Y198572D02*
X133016Y185886D01*
X120126Y178020D02*
X135408Y193301D01*
X133906Y181655D02*
X134833Y180728D01*
X133119Y177431D02*
X140606Y169944D01*
X126220Y170751D02*
X132993Y177524D01*
X131078Y160576D02*
X135548Y165046D01*
X127840Y170701D02*
X134254Y177114D01*
X121266Y194295D02*
X131721Y183840D01*
X121892Y174774D02*
X131794Y184677D01*
X122242Y173454D02*
X130197Y181409D01*
X120761Y193130D02*
X130774Y183117D01*
X119659Y192561D02*
X130191Y182030D01*
X132330Y179891D02*
X132462Y179758D01*
X122218Y173300D02*
X125429Y170088D01*
X121600Y172247D02*
X125138Y168709D01*
X121412Y175776D02*
X126376Y170812D01*
X128490Y159658D02*
X178001Y209169D01*
X132556Y153703D02*
X164337Y185484D01*
X131362Y154178D02*
X163183Y186000D01*
X128025Y167492D02*
X157153Y138365D01*
X128749Y168439D02*
X156804Y140383D01*
X127596Y160434D02*
X176371Y209210D01*
X126646Y167201D02*
X156860Y136987D01*
X118189Y125972D02*
X174398Y182181D01*
X117983Y127437D02*
X165199Y174653D01*
X132941Y159098D02*
X137189Y163346D01*
X132891Y159286D02*
X152996Y139181D01*
X132313Y160141D02*
X136071Y163899D01*
X132095Y131527D02*
X156493Y155925D01*
X132733Y157773D02*
X151715Y138791D01*
X131849Y156987D02*
X151054Y137782D01*
X123427Y147914D02*
X142004Y166490D01*
X131605Y132707D02*
X155396Y156499D01*
X130517Y133290D02*
X154712Y157484D01*
X128672Y158170D02*
X129243Y158741D01*
X128156Y157339D02*
X131316Y154179D01*
X126986Y156839D02*
X130094Y153730D01*
X120379Y171797D02*
X131692Y160485D01*
X120954Y150452D02*
X127417Y156915D01*
X123438Y149595D02*
X130721Y156878D01*
X122607Y150434D02*
X129679Y157506D01*
X123468Y146284D02*
X129440Y152257D01*
X123283Y144429D02*
X129916Y151062D01*
X112050Y205182D02*
X132048Y185183D01*
X117199Y193351D02*
X132613Y177938D01*
X112240Y194970D02*
X139298Y167912D01*
X110549Y193320D02*
X136875Y166994D01*
X99263Y158827D02*
X134268Y193832D01*
X99041Y160275D02*
X133722Y194957D01*
X82420Y199735D02*
X129476Y152678D01*
X82420Y201405D02*
X125013Y158812D01*
X116243Y192637D02*
X139633Y169247D01*
X109448Y157319D02*
X131997Y179868D01*
X110582Y156783D02*
X132345Y178546D01*
X111122Y155653D02*
X125269Y169800D01*
X103006Y187500D02*
X130179Y160327D01*
X102095Y185070D02*
X126609Y160557D01*
X102946Y185890D02*
X129393Y159442D01*
X100360Y185135D02*
X125513Y159982D01*
X116484Y196092D02*
X119608Y199216D01*
X117326Y195263D02*
X120543Y198481D01*
X114791Y196069D02*
X119340Y200618D01*
X117505Y194715D02*
X117548Y194673D01*
X111607Y203954D02*
X119282Y196280D01*
X110559Y203332D02*
X118117Y195774D01*
X112251Y195200D02*
X119898Y202847D01*
X96729Y200459D02*
X119146Y178041D01*
X117354Y193621D02*
X117609Y193876D01*
X111239Y184166D02*
X119631Y192558D01*
X111267Y184250D02*
X118130Y177387D01*
X111107Y185704D02*
X118302Y192899D01*
X110232Y186500D02*
X116452Y192719D01*
X109243Y182934D02*
X118514Y173662D01*
X110573Y183274D02*
X117730Y176117D01*
X111395Y145904D02*
X175546Y210055D01*
X111691Y193848D02*
X157213Y148326D01*
X98720Y148262D02*
X130797Y180339D01*
X117820Y132285D02*
X183764Y198229D01*
X117435Y133570D02*
X183065Y199200D01*
X97227Y201631D02*
X156946Y141912D01*
X82420Y198065D02*
X145703Y134781D01*
X82420Y196394D02*
X144563Y134251D01*
X94109Y183034D02*
X144018Y133126D01*
X110028Y153753D02*
X130486Y133295D01*
X113088Y144257D02*
X125929Y157097D01*
X117247Y128371D02*
X164011Y175135D01*
X116092Y128886D02*
X163421Y176216D01*
X95662Y135182D02*
X127887Y167407D01*
X94114Y135304D02*
X126167Y167357D01*
X108170Y153940D02*
X129144Y132967D01*
X82121Y178319D02*
X128441Y131999D01*
X91598Y180534D02*
X121513Y150619D01*
X98519Y151401D02*
X119278Y172160D01*
X97253Y151806D02*
X118589Y173142D01*
X99170Y150382D02*
X120597Y171810D01*
X90118Y180344D02*
X120407Y150055D01*
X82396Y186396D02*
X119897Y148895D01*
X80176Y138070D02*
X117803Y175697D01*
X82420Y125280D02*
X125319Y168179D01*
X81155Y137379D02*
X118493Y174716D01*
X112539Y145378D02*
X125153Y157991D01*
X112819Y142317D02*
X120076Y149574D01*
X113192Y141019D02*
X120094Y147921D01*
X111017Y156104D02*
X120363Y146758D01*
X110898Y154553D02*
X119893Y145559D01*
X99097Y146311D02*
X116710Y128698D01*
X111086Y139333D02*
X116130Y134289D01*
X112028Y251972D02*
X113754Y250246D01*
X113699Y251972D02*
X113754Y251917D01*
X110387Y250127D02*
X112233Y251972D01*
X110358D02*
X113829Y248501D01*
X108688Y251972D02*
X110566Y250094D01*
X82873Y251972D02*
X113754D01*
X105347D02*
X108389Y248931D01*
X104991Y246401D02*
X110562Y251972D01*
X83868Y226948D02*
X108892Y251972D01*
X113754Y249118D02*
Y251972D01*
X112005Y248404D02*
X113754Y250153D01*
X111494Y249563D02*
X113754Y251824D01*
X108881Y245280D02*
X110009Y246408D01*
X107017Y251972D02*
X109137Y249852D01*
X108102Y246171D02*
X108850Y246919D01*
X100336Y251972D02*
X106165Y246144D01*
X102006Y251972D02*
X107606Y246373D01*
X98666Y251972D02*
X104231Y246407D01*
X96996Y251972D02*
X103177Y245790D01*
X95325Y251972D02*
X102727Y244571D01*
X83353Y251488D02*
X83837Y251972D01*
X83532Y228282D02*
X107222Y251972D01*
X82725Y229146D02*
X105551Y251972D01*
X106605Y246345D02*
X108286Y248026D01*
X84516Y224256D02*
X103398Y243138D01*
X83843Y250308D02*
X85507Y251972D01*
X83888Y225298D02*
X102769Y244179D01*
X86329Y221058D02*
X113818Y248547D01*
X86266Y217654D02*
X115345Y246733D01*
X86317Y220893D02*
X110169Y197041D01*
X86282Y217586D02*
X108519Y195350D01*
X85597Y218655D02*
X114377Y247436D01*
X85768Y219772D02*
X109047Y196493D01*
X83849Y226701D02*
X114598Y195952D01*
X84479Y224401D02*
X113883Y194997D01*
X99216Y216345D02*
X108971Y206590D01*
X98839Y215052D02*
X108349Y205542D01*
X96929Y203262D02*
X109396Y215729D01*
X95809Y199709D02*
X108937Y186580D01*
X96130Y204133D02*
X108339Y216342D01*
X90970Y183941D02*
X110329Y203299D01*
X83785Y180096D02*
X108372Y204684D01*
X85901Y222300D02*
X106434Y242833D01*
X84864Y222934D02*
X104634Y242703D01*
X84624Y219245D02*
X84874Y218994D01*
X94891Y204565D02*
X107884Y217558D01*
X94372Y199475D02*
X107961Y185886D01*
X86229Y210958D02*
X93142Y204046D01*
X85506Y210011D02*
X92392Y203126D01*
X84126Y209721D02*
X92158Y201689D01*
X79242Y234015D02*
X97200Y251972D01*
X79242Y232345D02*
X98870Y251972D01*
X79242Y235685D02*
X95529Y251972D01*
X81476Y229567D02*
X103881Y251972D01*
X79242Y229004D02*
X102211Y251972D01*
X79242Y242367D02*
X88848Y251972D01*
X79242Y244037D02*
X87178Y251972D01*
X79242Y230675D02*
X100540Y251972D01*
X79242Y240697D02*
X90518Y251972D01*
X79242Y239026D02*
X92189Y251972D01*
X79242Y237356D02*
X93859Y251972D01*
X81527Y247397D02*
X109506Y219418D01*
X79242Y248011D02*
X108400Y218854D01*
X79242Y246341D02*
X107889Y217694D01*
X79242Y236319D02*
X97511Y218050D01*
X79242Y234648D02*
X96218Y217673D01*
X79242Y232978D02*
X95547Y216673D01*
X79242Y229637D02*
X79800Y229080D01*
X79242Y224626D02*
X82597Y221272D01*
X79242Y223993D02*
X80041Y224791D01*
X79242Y245708D02*
X80948Y247413D01*
X79242Y247378D02*
X79768Y247904D01*
X79242Y231308D02*
X80997Y229554D01*
X79242Y228522D02*
Y248438D01*
Y222323D02*
X80818Y223898D01*
X79242Y222956D02*
X81564Y220635D01*
X79242Y220653D02*
X81253Y222663D01*
X79242Y221286D02*
X80886Y219642D01*
X79242Y218982D02*
X82296Y222035D01*
X79242Y217312D02*
X80832Y218902D01*
X82417Y203783D02*
X95705Y217071D01*
X82420Y202115D02*
X95672Y215368D01*
X82420Y198775D02*
X98132Y214487D01*
X82420Y200445D02*
X96498Y214524D01*
X79242Y237989D02*
X110198Y207033D01*
X79242Y219615D02*
X94314Y204544D01*
X79242Y212934D02*
X100507Y191669D01*
X79242Y211264D02*
X99376Y191130D01*
X82420Y190423D02*
X92576Y200580D01*
X82420Y188753D02*
X93447Y199780D01*
X82420Y192093D02*
X92144Y201818D01*
X82420Y203076D02*
X99667Y185828D01*
X82420Y187082D02*
X94793Y199456D01*
X79242Y209593D02*
X98839Y189997D01*
X81509Y206216D02*
X85096Y209803D01*
X79242Y173883D02*
X109040Y203681D01*
X82200Y204965D02*
X99602Y187563D01*
X79242Y216275D02*
X82910Y212608D01*
X79242Y212301D02*
X82975Y216033D01*
X79242Y214604D02*
X82619Y211228D01*
X79242Y210630D02*
X83976Y215364D01*
X79242Y208960D02*
X82956Y212674D01*
X79242Y213971D02*
X82546Y217275D01*
X79242Y215641D02*
X81392Y217791D01*
X79242Y217945D02*
X83856Y213331D01*
X79242Y207626D02*
Y225505D01*
X82420Y186835D02*
Y203645D01*
X79509Y207556D02*
X82751Y210799D01*
X79242Y207923D02*
X79657Y207508D01*
X80639Y207016D02*
X83550Y209927D01*
X102967Y187585D02*
X109154Y193772D01*
X108328Y186265D02*
X114810Y192747D01*
X102136Y188425D02*
X108544Y194834D01*
X102952Y185900D02*
X110364Y193313D01*
X102559Y189617D02*
X107621Y184556D01*
X102021Y188486D02*
X102032Y188474D01*
X83801Y158398D02*
X108561Y183158D01*
X83763Y180018D02*
X107556Y156225D01*
X83633Y181818D02*
X108357Y157095D01*
X83233Y159500D02*
X107766Y184033D01*
X83373Y156300D02*
X110100Y183026D01*
X83146Y178964D02*
X107744Y154367D01*
X92751Y184051D02*
X98863Y190163D01*
X93825Y183455D02*
X99143Y188772D01*
X82420Y193054D02*
X91593Y183880D01*
X94301Y182260D02*
X99600Y187560D01*
X82420Y194724D02*
X93257Y183886D01*
X82420Y191383D02*
X89787Y184016D01*
X82420Y189713D02*
X88784Y183349D01*
X82420Y188043D02*
X88402Y182060D01*
X82910Y155816D02*
X85042Y153684D01*
X98941Y158159D02*
X111189Y145911D01*
X97944Y157485D02*
X109990Y145440D01*
X99220Y147091D02*
X107401Y155273D01*
X99185Y149563D02*
X114829Y133920D01*
X98564Y148514D02*
X114153Y132925D01*
X83640Y156756D02*
X113230Y127167D01*
X82420Y128621D02*
X107937Y154139D01*
X86237Y152490D02*
X113266Y125461D01*
X82420Y126951D02*
X109068Y153599D01*
X96645Y131154D02*
X109368Y143877D01*
X98340Y145398D02*
X114923Y128815D01*
X96894Y145173D02*
X113872Y128195D01*
X86049Y148954D02*
X95708Y158612D01*
X86260Y145824D02*
X97913Y157477D01*
X86270Y147504D02*
X96466Y157700D01*
X83834Y158233D02*
X95540Y146527D01*
X86045Y144330D02*
X95024Y135350D01*
X85129Y143575D02*
X93586Y135118D01*
X82420Y133632D02*
X95503Y146715D01*
X82420Y130291D02*
X97247Y145119D01*
X82420Y131962D02*
X96077Y145619D01*
X79242Y160521D02*
X114004Y195282D01*
X80687Y160295D02*
X113981Y193589D01*
X79242Y165532D02*
X99622Y185911D01*
X82029Y185092D02*
X109908Y157213D01*
X82254Y160191D02*
X108000Y185938D01*
X79242Y172213D02*
X88534Y181504D01*
X79242Y162191D02*
X102147Y185096D01*
X79242Y163861D02*
X100462Y185081D01*
X79242Y170543D02*
X89305Y180605D01*
X79242Y168872D02*
X90781Y180411D01*
X80426Y178344D02*
X97618Y161152D01*
X79242Y167202D02*
X92380Y180339D01*
X79242Y177857D02*
X96321Y160779D01*
X79242Y176187D02*
X95647Y159782D01*
X81360Y184091D02*
X82382Y183069D01*
X80443Y183338D02*
X80582Y183199D01*
X79868Y182860D02*
X80220Y183212D01*
X79254Y182857D02*
X79528Y182583D01*
X79242Y182255D02*
Y182854D01*
Y162824D02*
X81730Y160337D01*
X79242Y161154D02*
X80253Y160144D01*
X79242Y155510D02*
X79622Y155889D01*
X79242Y159484D02*
X79313Y159414D01*
X79242Y177224D02*
X80380Y178362D01*
X79242Y178894D02*
X79396Y179047D01*
X79242Y175554D02*
X81960Y178271D01*
X79242Y159322D02*
Y179237D01*
Y167835D02*
X95928Y151150D01*
X79242Y152169D02*
X82823Y155749D01*
X79242Y156143D02*
X82741Y152645D01*
X79242Y164495D02*
X95764Y147973D01*
X79242Y166165D02*
X95483Y149925D01*
X79242Y174517D02*
X109390Y144369D01*
X79242Y169506D02*
X96977Y151771D01*
X79242Y172846D02*
X109811Y142278D01*
X79242Y171176D02*
X109475Y140944D01*
X81888Y136440D02*
X95485Y150038D01*
X81762Y155294D02*
X83527Y153529D01*
X82341Y135223D02*
X95890Y148773D01*
X79242Y147791D02*
X92665Y134369D01*
X79242Y140477D02*
X82964Y144198D01*
X79242Y143817D02*
X82717Y147291D01*
X79242Y146121D02*
X92166Y133197D01*
X79242Y138806D02*
X83956Y143520D01*
X79242Y154473D02*
X82027Y151688D01*
X82142Y151727D02*
X82612Y152198D01*
X79242Y153839D02*
X80725Y155322D01*
X79242Y138406D02*
Y156304D01*
Y152802D02*
X81107Y150938D01*
X79242Y151132D02*
X80868Y149507D01*
X79242Y149462D02*
X82713Y145991D01*
X79242Y148828D02*
X80899Y150485D01*
X82255Y148119D02*
X82599Y147775D01*
X79242Y145488D02*
X81968Y148213D01*
X79242Y147158D02*
X81075Y148991D01*
X79242Y142147D02*
X82598Y145502D01*
X128731Y158435D02*
X162713Y124452D01*
X133179Y152316D02*
X161537Y123958D01*
X132731Y151094D02*
X160957Y122868D01*
X123450Y203804D02*
X213691Y113562D01*
X127349Y121770D02*
X157661Y152082D01*
X122854Y201059D02*
X200489Y123424D01*
X122842Y199401D02*
X199598Y122645D01*
X123430Y202153D02*
X207082Y118501D01*
X122004Y198568D02*
X199424Y121149D01*
X132975Y120715D02*
X144252Y131992D01*
X134499Y120568D02*
X145134Y131203D01*
X131751Y130359D02*
X140745Y121365D01*
X131679Y150476D02*
X170895Y111260D01*
X128721Y121472D02*
X157023Y149773D01*
X130783Y129657D02*
X139845Y120596D01*
X129441Y120521D02*
X157160Y148240D01*
X129211Y118621D02*
X144103Y133513D01*
X129511Y117251D02*
X131801Y119541D01*
X129439Y115508D02*
X131948Y118017D01*
X124268Y117018D02*
X126123Y118873D01*
X125707Y116788D02*
X125893Y116974D01*
X122269Y115019D02*
X122899Y115650D01*
X123828Y113238D02*
X124046Y113456D01*
X131924Y102961D02*
X185693Y156729D01*
X131924Y102961D02*
X185693Y156729D01*
X133616Y102982D02*
X181044Y150410D01*
X123616Y148517D02*
X202270Y69863D01*
X134815Y102510D02*
X180887Y148582D01*
X123003Y144118D02*
X157692Y109429D01*
X121803Y143648D02*
X156693Y108758D01*
X123051Y147411D02*
X216248Y54215D01*
X123603Y145189D02*
X168769Y100023D01*
X132407Y93422D02*
X161019Y122033D01*
X134665Y117424D02*
X147190Y104899D01*
X133330Y117089D02*
X146362Y104056D01*
X134311Y71941D02*
X170452Y108082D01*
X132967Y92311D02*
X161719Y121063D01*
X130777Y103483D02*
X169950Y142656D01*
X132079Y131702D02*
X156316Y107465D01*
X121378Y102436D02*
X156973Y138031D01*
X129437Y114301D02*
X143743Y99994D01*
X129434Y119314D02*
X141519Y107229D01*
X129538Y117540D02*
X140267Y106811D01*
X129075Y116333D02*
X139625Y105782D01*
X128711Y113356D02*
X142713Y99354D01*
X127328Y113068D02*
X141767Y98630D01*
X123828Y113227D02*
X134172Y102884D01*
X123401Y111984D02*
X132648Y102737D01*
X125300Y113426D02*
X141478Y97249D01*
X121338Y100726D02*
X139668Y119056D01*
X131842Y100204D02*
X132177Y99867D01*
X131253Y93937D02*
X140890Y103575D01*
X122366Y111350D02*
X130260Y103455D01*
X128368Y92723D02*
X139922Y104278D01*
X121463Y102230D02*
X130069Y93624D01*
X99314Y159456D02*
X139648Y119122D01*
X113118Y140641D02*
X133028Y120731D01*
X112421Y139668D02*
X132055Y120034D01*
X109958Y116071D02*
X175227Y181341D01*
X111263Y115705D02*
X154623Y159066D01*
X94103Y181370D02*
X161231Y114243D01*
X93267Y180536D02*
X160982Y112821D01*
X86274Y145771D02*
X129204Y102841D01*
X97234Y133141D02*
X128750Y101624D01*
X117817Y132601D02*
X131719Y118700D01*
X117994Y127414D02*
X125831Y119577D01*
X118110Y125627D02*
X125829Y117908D01*
X120553Y103282D02*
X134823Y117551D01*
X118925Y103324D02*
X132828Y117227D01*
X117448Y131300D02*
X127055Y121694D01*
X116453Y130624D02*
X126112Y120965D01*
X111941Y114713D02*
X128379Y131152D01*
X114556Y108977D02*
X125825Y120246D01*
X86081Y150975D02*
X122011Y115044D01*
X117491Y124576D02*
X125019Y117048D01*
X85197Y150189D02*
X120768Y114617D01*
X86257Y147458D02*
X120134Y113582D01*
X79242Y103729D02*
X120126Y144613D01*
X79242Y105400D02*
X120008Y146165D01*
X79242Y100389D02*
X122851Y143997D01*
X79242Y102059D02*
X120995Y143812D01*
X116463Y123934D02*
X123654Y116743D01*
X115704Y106785D02*
X120706Y111787D01*
X115583Y106440D02*
X118775Y103248D01*
X114757Y123970D02*
X122939Y115787D01*
X115473Y108223D02*
X120115Y112865D01*
X115477Y108216D02*
X120306Y103388D01*
X113185Y105497D02*
X118254Y100428D01*
X113100Y144000D02*
X156919Y100181D01*
X105166Y79543D02*
X158463Y132840D01*
X112629Y142800D02*
X155913Y99516D01*
X96253Y130781D02*
X161700Y65333D01*
X97002Y131702D02*
X154393Y74311D01*
X85961Y83723D02*
X158528Y156290D01*
X79242Y98718D02*
X130990Y150466D01*
X86319Y82410D02*
X156974Y153066D01*
X79242Y80345D02*
X128963Y130065D01*
X111106Y88824D02*
X140379Y118097D01*
X111868Y113496D02*
X131452Y93912D01*
X121323Y100700D02*
X129344Y92679D01*
X119931Y77604D02*
X146344Y104017D01*
X111194Y87242D02*
X141737Y117784D01*
X84974Y84406D02*
X130143Y129575D01*
X106703Y77739D02*
X129280Y100316D01*
X82420Y122900D02*
X133255Y72065D01*
X106703Y77739D02*
X129280Y100316D01*
X91482Y122189D02*
X128090Y85581D01*
X106493Y110519D02*
X124776Y92236D01*
X89519Y120811D02*
X122901Y87429D01*
X90812Y121189D02*
X127994Y84007D01*
X86140Y73880D02*
X126119Y113859D01*
X82420Y126241D02*
X121562Y87099D01*
X82420Y124570D02*
X120861Y86129D01*
X86106Y72176D02*
X127067Y113136D01*
X85314Y74724D02*
X121896Y111306D01*
X110624Y93353D02*
X118034Y100762D01*
X105137Y110205D02*
X128952Y86389D01*
X106234Y78941D02*
X128757Y101464D01*
X82675Y109282D02*
X118261Y73696D01*
X83501Y110126D02*
X118027Y75600D01*
X79242Y109374D02*
X118559Y70057D01*
X81397Y108889D02*
X118129Y72158D01*
X134736Y85728D02*
X146296Y97288D01*
X133794Y86457D02*
X143068Y95731D01*
X131331Y85664D02*
X141962Y96295D01*
X132329Y99716D02*
X148887Y83158D01*
X134318Y99397D02*
X148813Y84902D01*
X130625Y99750D02*
X154628Y75746D01*
X130425Y86429D02*
X141452Y97455D01*
X127931Y73912D02*
X148722Y94703D01*
X127647Y75298D02*
X147088Y94740D01*
X132952Y92412D02*
X141460Y83903D01*
X132664Y91029D02*
X140235Y83458D01*
X131719Y90304D02*
X139615Y82408D01*
X130625Y83046D02*
X140116Y73555D01*
X128497Y91856D02*
X133964Y86388D01*
X129051Y82950D02*
X138569Y73431D01*
X124501Y85830D02*
X137771Y72560D01*
X127600Y93625D02*
X133246Y99271D01*
X126128Y93824D02*
X132175Y99871D01*
X127969Y90714D02*
X132327Y86355D01*
X124087Y86771D02*
X129248Y91932D01*
X123048Y87403D02*
X125934Y90289D01*
X121718Y81062D02*
X130874Y90218D01*
X124518Y85532D02*
X129763Y90778D01*
X131304Y85708D02*
X131500Y85512D01*
X126847Y90166D02*
X130752Y86260D01*
X131433Y83908D02*
X131528Y83814D01*
X121733Y76066D02*
X128761Y83094D01*
X121720Y80259D02*
X125865Y76114D01*
X126703Y76025D02*
X133532Y82854D01*
X121762Y72754D02*
X132142Y83135D01*
X132302Y83039D02*
X158958Y56384D01*
X134001Y83011D02*
X160628Y56384D01*
X131068Y55335D02*
X154342Y78610D01*
X134169Y50085D02*
X157355Y73271D01*
X132499Y50085D02*
X155454Y73040D01*
X127394Y72915D02*
X138783Y61525D01*
X124170Y84490D02*
X137272Y71388D01*
X126244Y72394D02*
X137879Y60759D01*
X121702Y75266D02*
X137675Y59292D01*
X133626Y68353D02*
X149518Y52461D01*
X130190Y56128D02*
X141758Y67696D01*
X131207Y53803D02*
X137671Y60267D01*
X130828Y50085D02*
X138793Y58049D01*
X129158Y50085D02*
X137885Y58811D01*
X128253Y55861D02*
X140371Y67979D01*
X124952Y54230D02*
X139643Y68922D01*
X129046Y50085D02*
X149518D01*
X121750Y68536D02*
X140202Y50085D01*
X127949Y74030D02*
X131704Y70275D01*
X124122Y55071D02*
X136839Y67788D01*
X123292Y55911D02*
X135924Y68543D01*
X123200Y83790D02*
X136161Y70829D01*
X121671Y69323D02*
X125052Y72704D01*
X122462Y56751D02*
X134156Y68445D01*
X121632Y57592D02*
X132641Y68601D01*
X129389Y52546D02*
X131851Y50085D01*
X128272Y50868D02*
X130051Y52648D01*
X131265Y54010D02*
X135191Y50085D01*
X130631Y52974D02*
X133521Y50085D01*
X125782Y53390D02*
X127994Y55601D01*
X126612Y52549D02*
X127727Y53664D01*
X127442Y51709D02*
X128520Y52787D01*
X118503Y100179D02*
X125324Y93358D01*
X120446Y99907D02*
X126467Y93886D01*
X121132Y77135D02*
X127997Y84000D01*
X121083Y82097D02*
X122693Y83707D01*
X109118Y78484D02*
X130397Y99763D01*
X110405Y78100D02*
X124834Y92530D01*
X111158Y92492D02*
X132180Y71469D01*
X111071Y77096D02*
X125033Y91058D01*
X121323Y73986D02*
X130223Y82886D01*
X121090Y79219D02*
X124750Y75559D01*
X120959Y70281D02*
X124325Y73647D01*
X119853Y78786D02*
X124229Y74409D01*
X110965Y91014D02*
X119496Y82483D01*
X119840Y82525D02*
X121453Y84138D01*
X111208Y92266D02*
X118879Y99937D01*
X111247Y87391D02*
X118023Y80616D01*
X110247Y89635D02*
X120589Y99977D01*
X110066Y90242D02*
X118456Y81853D01*
X110549Y86419D02*
X119423Y77545D01*
X109213Y86085D02*
X118416Y76882D01*
X119601Y70593D02*
X119919Y70912D01*
X119268Y71018D02*
X119682Y70604D01*
X116332Y68995D02*
X118688Y71351D01*
X115768Y70101D02*
X118062Y72395D01*
X114608Y70612D02*
X118492Y74495D01*
X111005Y75941D02*
X118030Y68916D01*
X109409Y68753D02*
X119486Y78830D01*
X110795Y68469D02*
X118022Y75696D01*
X121575Y62546D02*
X139947Y80917D01*
X121602Y72025D02*
X143543Y50085D01*
X121411Y64052D02*
X139587Y82228D01*
X121369Y73929D02*
X145213Y50085D01*
X120807Y71150D02*
X141873Y50085D01*
X120524Y64835D02*
X152367Y96678D01*
X119684Y65666D02*
X126438Y72420D01*
X118658Y57959D02*
X140935Y80235D01*
X120329Y57959D02*
X131855Y69485D01*
X121567Y63709D02*
X129035Y56241D01*
X121418Y62187D02*
X127998Y55607D01*
X121204Y67413D02*
X138532Y50085D01*
X121270Y57959D02*
X129046Y50085D01*
X120537Y61398D02*
X127570Y54365D01*
X120062Y66884D02*
X136862Y50085D01*
X118519Y61746D02*
X130180Y50085D01*
X116339Y68937D02*
X118740Y66536D01*
X118839Y66491D02*
X119315Y66967D01*
X117131Y66453D02*
X118357Y67679D01*
X111624Y66971D02*
X120636Y57959D01*
X99786Y64141D02*
X120821Y85176D01*
X106966Y57959D02*
X118045Y69037D01*
X93165Y54180D02*
X118450Y79465D01*
X91921Y54606D02*
X118023Y80708D01*
X119749Y65527D02*
X120389Y64887D01*
X117059Y63206D02*
X118425Y61839D01*
X116988Y57959D02*
X120362Y61332D01*
X98337Y57959D02*
X121270D01*
X111198Y65726D02*
X118965Y57959D01*
X115318D02*
X118856Y61496D01*
X113647Y57959D02*
X118072Y62383D01*
X91076Y123915D02*
X109894Y142733D01*
X86722Y116220D02*
X110199Y139697D01*
X91546Y122714D02*
X109525Y140693D01*
X106036Y113820D02*
X116051Y123835D01*
X95081Y130282D02*
X109425Y115938D01*
X83368Y96163D02*
X113137Y125932D01*
X83857Y111685D02*
X111497Y139324D01*
X85526Y94980D02*
X114587Y124041D01*
X84784Y95908D02*
X113653Y124777D01*
X111092Y112601D02*
X114874Y108819D01*
X109605Y112418D02*
X113098Y108925D01*
X109443Y93843D02*
X117991Y102390D01*
X114771Y105582D02*
X117982Y102370D01*
X107261Y111704D02*
X108644Y113087D01*
X107203Y111479D02*
X112155Y106527D01*
X86372Y117277D02*
X109878Y93771D01*
X90007Y124515D02*
X96355Y130864D01*
X85188Y118027D02*
X88436Y121275D01*
X86255Y117424D02*
X89637Y120805D01*
X82420Y121940D02*
X92326Y131846D01*
X82420Y127911D02*
X87813Y122518D01*
X82420Y132922D02*
X103576Y111766D01*
X82420Y117615D02*
Y134425D01*
X106979Y113092D02*
X108278Y114392D01*
X86559Y115420D02*
X108400Y93579D01*
X85758Y114550D02*
X107629Y92680D01*
X82529Y113697D02*
X83616Y114784D01*
X82420Y117889D02*
X83216Y117092D01*
X82806Y90589D02*
X103657Y111440D01*
X83410Y112908D02*
X84819Y114317D01*
X108464Y89522D02*
X109069Y90127D01*
X97996Y82395D02*
X107492Y91891D01*
X86292Y79043D02*
X112895Y105646D01*
X98924Y81653D02*
X107982Y90711D01*
X84206Y114432D02*
X108911Y89727D01*
X83868Y111429D02*
X107605Y87692D01*
X83681Y74761D02*
X114334Y105414D01*
X85673Y80094D02*
X112141Y106562D01*
X99179Y80237D02*
X107876Y88934D01*
X98941Y79653D02*
X109810Y68784D01*
X98028Y78896D02*
X108565Y68359D01*
X83832Y88081D02*
X113954Y57959D01*
X83317Y86926D02*
X112284Y57959D01*
X86299Y82273D02*
X110614Y57959D01*
X85696Y81206D02*
X108943Y57959D01*
X85614Y94651D02*
X97812Y82452D01*
X85314Y93281D02*
X96366Y82228D01*
X99165Y81099D02*
X103020Y77245D01*
X83860Y88303D02*
X105773Y110216D01*
X83580Y89694D02*
X104385Y110498D01*
X84362Y92562D02*
X95609Y81315D01*
X84557Y80675D02*
X84707Y80525D01*
X84557Y80649D02*
X84657Y80748D01*
X86313Y78919D02*
X107273Y57959D01*
X79242Y142780D02*
X108348Y113675D01*
X82420Y123610D02*
X92204Y133394D01*
X82420Y131252D02*
X89191Y124481D01*
X79242Y141110D02*
X112240Y108113D01*
X82416Y134596D02*
X103890Y113122D01*
X79242Y144451D02*
X108530Y115163D01*
X79242Y139440D02*
X104850Y113833D01*
X79242Y95378D02*
X114812Y130947D01*
X79242Y97048D02*
X114146Y131952D01*
X82420Y120269D02*
X93025Y130874D01*
X82420Y118599D02*
X94136Y130315D01*
X82420Y129581D02*
X88190Y123811D01*
X82420Y121230D02*
X85943Y117706D01*
X82420Y119559D02*
X84086Y117893D01*
X82349Y116858D02*
X87835Y122344D01*
X79242Y101022D02*
X84085Y96180D01*
X79242Y93707D02*
X116097Y130562D01*
X82236Y116403D02*
X83098Y115540D01*
X81163Y114002D02*
X83013Y115852D01*
X80878Y114419D02*
X81292Y114006D01*
X79817Y113810D02*
X79989Y113639D01*
X79242Y99352D02*
X82714Y95880D01*
X79242Y97681D02*
X81996Y94928D01*
X81602Y91056D02*
X83127Y92581D01*
X79242Y92037D02*
X81944Y94738D01*
X79242Y112955D02*
Y113634D01*
Y107070D02*
X81071Y108899D01*
X79242Y108740D02*
X79848Y109346D01*
X81687Y115281D02*
X107939Y89029D01*
X79242Y82015D02*
X109636Y112409D01*
X79242Y104363D02*
X104158Y79447D01*
X79242Y107703D02*
X108583Y78363D01*
X79242Y106033D02*
X107672Y77604D01*
X79242Y102692D02*
X103245Y78690D01*
X79242Y94341D02*
X115625Y57959D01*
X79242Y96011D02*
X107930Y67324D01*
X82382Y86190D02*
X84124Y84448D01*
X79242Y80978D02*
X96097Y64123D01*
X81382Y57430D02*
X110156Y86204D01*
X73891Y51608D02*
X108574Y86291D01*
X72121Y54850D02*
X96339Y79068D01*
X71612Y56011D02*
X95597Y79996D01*
X73263Y52650D02*
X107763Y87151D01*
X72672Y53731D02*
X97755Y78813D01*
X79242Y90367D02*
X82199Y93323D01*
X79242Y92671D02*
X80877Y91036D01*
X79242Y91000D02*
X79722Y90521D01*
X80917Y85985D02*
X83057Y83845D01*
X79242Y90022D02*
Y109938D01*
Y83685D02*
X81520Y85963D01*
X79242Y85356D02*
X80129Y86243D01*
X79242Y85989D02*
X82590Y82642D01*
X79242Y73576D02*
Y87005D01*
Y84319D02*
X81487Y82074D01*
X79242Y82648D02*
X80859Y81032D01*
X79242Y78675D02*
X80852Y80283D01*
X79242Y75334D02*
X82589Y78680D01*
X79242Y77004D02*
X81464Y79225D01*
X79242Y79308D02*
X83756Y74794D01*
X79242Y77637D02*
X82856Y74024D01*
X110246Y75030D02*
X114669Y70606D01*
X108797Y74809D02*
X113361Y70245D01*
X111522Y67526D02*
X112613Y68616D01*
X115978Y67628D02*
X117145Y66461D01*
X105821Y76114D02*
X112679Y69256D01*
X99192Y65217D02*
X108786Y74812D01*
X104375Y75889D02*
X116419Y63845D01*
X110307Y57959D02*
X116340Y63992D01*
X111977Y57959D02*
X117165Y63147D01*
X114988Y66947D02*
X116330Y65605D01*
X110163Y65090D02*
X117295Y57959D01*
X108636D02*
X116378Y65700D01*
X100285Y57959D02*
X108201Y65874D01*
X98615Y57959D02*
X107916Y67260D01*
X105296Y57959D02*
X114230Y66892D01*
X103626Y57959D02*
X113124Y67457D01*
X106577Y77028D02*
X107451Y76154D01*
X97998Y65694D02*
X107782Y75477D01*
X93288Y64324D02*
X104797Y75833D01*
X94042Y63408D02*
X107398Y76764D01*
X93288Y64324D02*
X104797Y75833D01*
X85979Y77582D02*
X97868Y65693D01*
X85008Y76883D02*
X96684Y65207D01*
X92111Y64817D02*
X103595Y76301D01*
X86192Y72358D02*
X100592Y57959D01*
X98242Y61979D02*
X102262Y57959D01*
X99812Y63749D02*
X105603Y57959D01*
X99326Y62565D02*
X103932Y57959D01*
X94283Y61979D02*
X96074Y63770D01*
X85422Y71458D02*
X92055Y64825D01*
X94282Y62598D02*
X98922Y57959D01*
X101955D02*
X109144Y65148D01*
X94044Y61166D02*
X98337Y56873D01*
X93970Y53314D02*
X98337Y57681D01*
Y48824D02*
Y57959D01*
X94300Y51974D02*
X98337Y56011D01*
X92116Y59753D02*
X98337Y53532D01*
X93291Y60248D02*
X98337Y55202D01*
X93856Y49859D02*
X98337Y54340D01*
X95780Y50113D02*
X98337Y52670D01*
X97083Y49745D02*
X98337Y51000D01*
X94109Y51079D02*
X95060Y50128D01*
X98083Y49076D02*
X98337Y49329D01*
X94238Y52620D02*
X97141Y49717D01*
X93408Y50110D02*
X93716Y49802D01*
X92293Y49554D02*
X92687Y49160D01*
X89956Y50221D02*
X91907Y48270D01*
X90749Y46753D02*
X91532Y47536D01*
X90616Y46220D02*
X91254Y45582D01*
X89392Y48736D02*
X90482Y49826D01*
X89911Y50266D02*
X89956Y50221D01*
X90384Y48057D02*
X91821Y49495D01*
X91254Y43055D02*
Y46055D01*
X89840Y45325D02*
X91254Y43911D01*
X88352Y45143D02*
X91163Y42332D01*
X89313Y40306D02*
X91086Y42079D01*
X86388Y40721D02*
X91254Y45587D01*
X85260Y41263D02*
X89070Y45074D01*
X87576Y40238D02*
X91254Y43917D01*
X80379Y73130D02*
X84088Y76838D01*
X81996Y71406D02*
X82796Y72206D01*
X81311Y72392D02*
X82758Y73839D01*
X81828Y71711D02*
X89705Y63834D01*
X79242Y73664D02*
X83036Y77457D01*
X79242Y74297D02*
X80453Y73086D01*
X79242Y75967D02*
X82660Y72549D01*
X82385Y70125D02*
X83640Y71380D01*
X83948Y71262D02*
X90623Y64586D01*
X82380Y69489D02*
X89211Y62658D01*
X81759Y67829D02*
X85344Y71414D01*
X72536Y65970D02*
X81040Y57466D01*
X78651Y64720D02*
X80563Y66632D01*
X78168Y65907D02*
X78233Y65972D01*
X78106D02*
X78337D01*
X74205D02*
X74990Y65187D01*
X72646Y65972D02*
X75458D01*
X70036Y61116D02*
X74892Y65972D01*
X69776Y62527D02*
X73221Y65972D01*
X70725Y58465D02*
X75526Y63266D01*
X70354Y59764D02*
X74937Y64347D01*
X71231Y65605D02*
X79809Y57027D01*
X71145Y57215D02*
X76713Y62783D01*
X70161Y64582D02*
X71120Y65541D01*
X82435Y56812D02*
X102993Y77370D01*
X81982Y68216D02*
X98337Y51862D01*
X80353Y66505D02*
X92310Y54549D01*
X81291Y67237D02*
X98337Y50191D01*
X80187Y44543D02*
X97627Y61982D01*
X79137Y66051D02*
X90768Y54419D01*
X78638Y64879D02*
X89799Y53718D01*
X79280Y45305D02*
X96551Y62576D01*
X77317Y62860D02*
X89911Y50266D01*
X82884Y55622D02*
X91394Y47113D01*
X77568Y46934D02*
X90619Y59986D01*
X78407Y46102D02*
X92049Y59744D01*
X82107Y43121D02*
X89616Y50630D01*
X76763Y47799D02*
X89703Y60739D01*
X76763Y47799D02*
X89703Y60739D01*
X69873Y61952D02*
X90605Y41220D01*
X70341Y59814D02*
X89687Y40468D01*
X78295Y63552D02*
X89243Y52604D01*
X82884Y55591D02*
X89210Y61917D01*
X72262Y54552D02*
X85834Y40980D01*
X74556Y50603D02*
X79181Y55228D01*
X69800Y63695D02*
X87097Y46399D01*
X70333Y64832D02*
X79184Y55982D01*
X71076Y57408D02*
X88347Y40137D01*
X82445Y54392D02*
X88173Y48663D01*
X81399Y53766D02*
X87279Y47887D01*
X84171Y41845D02*
X87766Y45439D01*
X83121Y42465D02*
X87087Y46431D01*
X75992Y48699D02*
X81020Y53726D01*
X75257Y49633D02*
X79798Y54175D01*
X81130Y43814D02*
X89190Y51874D01*
X74589Y50555D02*
X81837Y43307D01*
M02*
