G04*
G04 #@! TF.GenerationSoftware,Altium Limited,Altium Designer,18.1.9 (240)*
G04*
G04 Layer_Color=255*
%FSLAX25Y25*%
%MOIN*%
G70*
G01*
G75*
%ADD10C,0.01000*%
%ADD11C,0.00039*%
%ADD13C,0.00118*%
%ADD14C,0.00504*%
%ADD15C,0.00158*%
%ADD16C,0.00787*%
%ADD50C,0.00197*%
%ADD119C,0.00394*%
%ADD167C,0.01575*%
%ADD168C,0.00098*%
G36*
X168908Y117860D02*
X167727D01*
X168908Y116679D01*
X166546D01*
X167727Y117860D01*
X166546D01*
Y118254D01*
X168908D01*
Y117860D01*
D02*
G37*
G36*
X183475Y110675D02*
X180128Y114022D01*
X183475Y117368D01*
Y110675D01*
D02*
G37*
G36*
X180128D02*
X178947D01*
Y117368D01*
X180128D01*
Y110675D01*
D02*
G37*
G36*
X119314Y168289D02*
X119347Y168284D01*
X119388Y168276D01*
X119434Y168264D01*
X119480Y168248D01*
X119526Y168228D01*
X119528D01*
X119531Y168225D01*
X119546Y168218D01*
X119569Y168202D01*
X119594Y168185D01*
X119625Y168159D01*
X119656Y168131D01*
X119686Y168098D01*
X119712Y168060D01*
X119714Y168054D01*
X119722Y168042D01*
X119732Y168019D01*
X119745Y167991D01*
X119757Y167958D01*
X119768Y167919D01*
X119775Y167876D01*
X119778Y167833D01*
Y167828D01*
Y167812D01*
X119775Y167792D01*
X119770Y167764D01*
X119763Y167731D01*
X119750Y167695D01*
X119735Y167659D01*
X119714Y167624D01*
X119712Y167619D01*
X119704Y167608D01*
X119689Y167590D01*
X119668Y167570D01*
X119643Y167547D01*
X119612Y167522D01*
X119577Y167499D01*
X119533Y167476D01*
X119536D01*
X119541Y167473D01*
X119548Y167471D01*
X119559Y167468D01*
X119587Y167458D01*
X119622Y167443D01*
X119663Y167422D01*
X119704Y167397D01*
X119742Y167364D01*
X119778Y167325D01*
X119781Y167320D01*
X119791Y167305D01*
X119806Y167279D01*
X119821Y167246D01*
X119837Y167205D01*
X119852Y167157D01*
X119862Y167101D01*
X119865Y167040D01*
Y167037D01*
Y167029D01*
Y167017D01*
X119862Y167001D01*
X119860Y166981D01*
X119854Y166958D01*
X119849Y166932D01*
X119844Y166904D01*
X119824Y166843D01*
X119808Y166810D01*
X119793Y166779D01*
X119773Y166746D01*
X119750Y166713D01*
X119724Y166680D01*
X119694Y166649D01*
X119691Y166647D01*
X119686Y166642D01*
X119676Y166634D01*
X119663Y166624D01*
X119648Y166611D01*
X119627Y166598D01*
X119605Y166583D01*
X119577Y166570D01*
X119548Y166555D01*
X119515Y166540D01*
X119482Y166527D01*
X119444Y166514D01*
X119403Y166504D01*
X119360Y166497D01*
X119316Y166491D01*
X119268Y166489D01*
X119245D01*
X119230Y166491D01*
X119209Y166494D01*
X119186Y166497D01*
X119161Y166502D01*
X119133Y166507D01*
X119072Y166522D01*
X119008Y166548D01*
X118975Y166563D01*
X118944Y166581D01*
X118913Y166604D01*
X118883Y166627D01*
X118880Y166629D01*
X118875Y166634D01*
X118868Y166642D01*
X118860Y166652D01*
X118847Y166665D01*
X118834Y166683D01*
X118819Y166700D01*
X118804Y166723D01*
X118789Y166749D01*
X118773Y166774D01*
X118745Y166836D01*
X118722Y166907D01*
X118715Y166945D01*
X118710Y166986D01*
X118926Y167014D01*
Y167012D01*
X118929Y167007D01*
X118931Y166996D01*
X118934Y166983D01*
X118936Y166968D01*
X118941Y166950D01*
X118954Y166912D01*
X118972Y166866D01*
X118995Y166823D01*
X119021Y166782D01*
X119051Y166746D01*
X119056Y166744D01*
X119067Y166734D01*
X119087Y166721D01*
X119112Y166708D01*
X119143Y166693D01*
X119181Y166680D01*
X119225Y166670D01*
X119271Y166667D01*
X119286D01*
X119296Y166670D01*
X119324Y166672D01*
X119360Y166680D01*
X119401Y166693D01*
X119444Y166711D01*
X119487Y166736D01*
X119528Y166772D01*
X119533Y166777D01*
X119546Y166792D01*
X119561Y166815D01*
X119582Y166846D01*
X119602Y166884D01*
X119617Y166927D01*
X119630Y166978D01*
X119635Y167034D01*
Y167037D01*
Y167042D01*
Y167050D01*
X119633Y167060D01*
X119630Y167088D01*
X119622Y167121D01*
X119612Y167162D01*
X119594Y167203D01*
X119569Y167244D01*
X119536Y167282D01*
X119531Y167287D01*
X119518Y167297D01*
X119497Y167313D01*
X119469Y167330D01*
X119434Y167348D01*
X119390Y167364D01*
X119342Y167374D01*
X119288Y167379D01*
X119265D01*
X119247Y167376D01*
X119225Y167374D01*
X119199Y167369D01*
X119168Y167364D01*
X119135Y167356D01*
X119161Y167547D01*
X119174D01*
X119184Y167544D01*
X119217D01*
X119245Y167550D01*
X119278Y167555D01*
X119316Y167562D01*
X119360Y167575D01*
X119401Y167593D01*
X119444Y167616D01*
X119446D01*
X119449Y167619D01*
X119462Y167629D01*
X119480Y167647D01*
X119500Y167669D01*
X119520Y167703D01*
X119538Y167741D01*
X119551Y167784D01*
X119556Y167810D01*
Y167838D01*
Y167840D01*
Y167843D01*
Y167858D01*
X119551Y167879D01*
X119546Y167907D01*
X119536Y167937D01*
X119523Y167970D01*
X119502Y168003D01*
X119474Y168034D01*
X119472Y168037D01*
X119459Y168047D01*
X119441Y168060D01*
X119418Y168075D01*
X119388Y168088D01*
X119352Y168100D01*
X119311Y168111D01*
X119265Y168113D01*
X119245D01*
X119222Y168108D01*
X119191Y168103D01*
X119158Y168093D01*
X119125Y168080D01*
X119089Y168060D01*
X119056Y168034D01*
X119054Y168032D01*
X119044Y168019D01*
X119028Y168001D01*
X119010Y167975D01*
X118992Y167942D01*
X118975Y167902D01*
X118959Y167853D01*
X118949Y167797D01*
X118732Y167835D01*
Y167838D01*
X118735Y167845D01*
X118737Y167856D01*
X118740Y167871D01*
X118745Y167889D01*
X118753Y167909D01*
X118768Y167958D01*
X118794Y168014D01*
X118824Y168070D01*
X118862Y168123D01*
X118911Y168172D01*
X118913Y168174D01*
X118919Y168177D01*
X118926Y168182D01*
X118936Y168190D01*
X118949Y168200D01*
X118967Y168210D01*
X118985Y168220D01*
X119008Y168233D01*
X119059Y168253D01*
X119117Y168274D01*
X119186Y168287D01*
X119222Y168292D01*
X119286D01*
X119314Y168289D01*
D02*
G37*
G36*
X117962D02*
X117983Y168287D01*
X118008Y168284D01*
X118036Y168279D01*
X118064Y168274D01*
X118131Y168256D01*
X118197Y168230D01*
X118230Y168215D01*
X118263Y168197D01*
X118294Y168174D01*
X118322Y168149D01*
X118324Y168146D01*
X118330Y168144D01*
X118335Y168134D01*
X118345Y168123D01*
X118358Y168111D01*
X118370Y168093D01*
X118383Y168075D01*
X118398Y168052D01*
X118424Y168003D01*
X118449Y167942D01*
X118460Y167912D01*
X118465Y167876D01*
X118470Y167840D01*
X118472Y167802D01*
Y167797D01*
Y167784D01*
X118470Y167764D01*
X118467Y167736D01*
X118462Y167705D01*
X118452Y167669D01*
X118442Y167631D01*
X118426Y167593D01*
X118424Y167588D01*
X118419Y167575D01*
X118409Y167555D01*
X118393Y167527D01*
X118373Y167496D01*
X118347Y167458D01*
X118317Y167420D01*
X118281Y167376D01*
X118276Y167371D01*
X118263Y167356D01*
X118251Y167343D01*
X118238Y167330D01*
X118222Y167315D01*
X118202Y167295D01*
X118182Y167274D01*
X118156Y167251D01*
X118131Y167226D01*
X118100Y167198D01*
X118067Y167170D01*
X118031Y167137D01*
X117990Y167103D01*
X117950Y167068D01*
X117947Y167065D01*
X117942Y167060D01*
X117932Y167052D01*
X117919Y167042D01*
X117904Y167027D01*
X117886Y167012D01*
X117845Y166978D01*
X117802Y166940D01*
X117761Y166902D01*
X117725Y166869D01*
X117710Y166856D01*
X117697Y166843D01*
X117695Y166841D01*
X117687Y166833D01*
X117677Y166823D01*
X117664Y166808D01*
X117651Y166790D01*
X117636Y166772D01*
X117605Y166728D01*
X118475D01*
Y166519D01*
X117304D01*
Y166522D01*
Y166532D01*
Y166548D01*
X117307Y166568D01*
X117309Y166591D01*
X117315Y166616D01*
X117320Y166642D01*
X117330Y166670D01*
Y166672D01*
X117332Y166675D01*
X117338Y166690D01*
X117348Y166713D01*
X117363Y166744D01*
X117384Y166779D01*
X117409Y166820D01*
X117437Y166861D01*
X117473Y166904D01*
Y166907D01*
X117478Y166910D01*
X117491Y166925D01*
X117514Y166948D01*
X117547Y166981D01*
X117585Y167019D01*
X117633Y167065D01*
X117692Y167116D01*
X117756Y167170D01*
X117758Y167172D01*
X117769Y167180D01*
X117784Y167193D01*
X117802Y167208D01*
X117825Y167228D01*
X117853Y167251D01*
X117881Y167277D01*
X117914Y167305D01*
X117978Y167366D01*
X118041Y167427D01*
X118072Y167458D01*
X118100Y167488D01*
X118125Y167517D01*
X118146Y167544D01*
Y167547D01*
X118151Y167550D01*
X118156Y167557D01*
X118161Y167568D01*
X118179Y167596D01*
X118200Y167629D01*
X118217Y167669D01*
X118235Y167713D01*
X118245Y167761D01*
X118251Y167807D01*
Y167810D01*
Y167812D01*
X118248Y167828D01*
X118245Y167853D01*
X118238Y167881D01*
X118228Y167917D01*
X118210Y167953D01*
X118187Y167988D01*
X118156Y168024D01*
X118151Y168029D01*
X118138Y168039D01*
X118120Y168052D01*
X118092Y168070D01*
X118057Y168085D01*
X118016Y168100D01*
X117967Y168111D01*
X117914Y168113D01*
X117899D01*
X117888Y168111D01*
X117858Y168108D01*
X117822Y168100D01*
X117784Y168090D01*
X117740Y168072D01*
X117700Y168049D01*
X117661Y168019D01*
X117656Y168014D01*
X117646Y168001D01*
X117631Y167981D01*
X117615Y167950D01*
X117598Y167914D01*
X117582Y167868D01*
X117572Y167817D01*
X117567Y167759D01*
X117345Y167782D01*
Y167784D01*
X117348Y167792D01*
Y167805D01*
X117350Y167823D01*
X117355Y167843D01*
X117360Y167866D01*
X117368Y167894D01*
X117376Y167922D01*
X117396Y167983D01*
X117427Y168044D01*
X117445Y168075D01*
X117468Y168105D01*
X117491Y168134D01*
X117516Y168159D01*
X117519Y168162D01*
X117524Y168164D01*
X117531Y168172D01*
X117544Y168180D01*
X117559Y168190D01*
X117577Y168200D01*
X117598Y168213D01*
X117623Y168225D01*
X117651Y168238D01*
X117682Y168251D01*
X117715Y168261D01*
X117751Y168271D01*
X117789Y168279D01*
X117830Y168287D01*
X117873Y168289D01*
X117919Y168292D01*
X117945D01*
X117962Y168289D01*
D02*
G37*
G36*
X256195Y247077D02*
X256224Y247074D01*
X256257Y247070D01*
X256297Y247063D01*
X256337Y247055D01*
X256431Y247034D01*
X256530Y246997D01*
X256580Y246975D01*
X256628Y246946D01*
X256679Y246917D01*
X256726Y246881D01*
X256730Y246877D01*
X256741Y246870D01*
X256755Y246855D01*
X256773Y246837D01*
X256795Y246811D01*
X256824Y246782D01*
X256850Y246746D01*
X256879Y246706D01*
X256908Y246662D01*
X256934Y246611D01*
X256959Y246557D01*
X256984Y246498D01*
X257003Y246437D01*
X257017Y246367D01*
X257028Y246294D01*
X257032Y246218D01*
Y246185D01*
X257028Y246160D01*
X257025Y246131D01*
X257021Y246098D01*
X257017Y246058D01*
X257006Y246018D01*
X256984Y245927D01*
X256952Y245836D01*
X256930Y245789D01*
X256905Y245741D01*
X256875Y245698D01*
X256843Y245654D01*
X256839Y245650D01*
X256835Y245643D01*
X256821Y245636D01*
X256806Y245621D01*
X256788Y245603D01*
X256766Y245585D01*
X256737Y245563D01*
X256704Y245545D01*
X256672Y245523D01*
X256631Y245501D01*
X256544Y245461D01*
X256442Y245428D01*
X256388Y245417D01*
X256329Y245410D01*
X256304Y245734D01*
X256308D01*
X256315D01*
X256326Y245738D01*
X256344Y245741D01*
X256384Y245752D01*
X256438Y245767D01*
X256493Y245789D01*
X256555Y245818D01*
X256610Y245854D01*
X256661Y245898D01*
X256664Y245905D01*
X256679Y245920D01*
X256697Y245949D01*
X256719Y245989D01*
X256741Y246033D01*
X256759Y246087D01*
X256773Y246149D01*
X256777Y246218D01*
Y246240D01*
X256773Y246254D01*
X256770Y246298D01*
X256755Y246349D01*
X256737Y246411D01*
X256708Y246473D01*
X256664Y246538D01*
X256639Y246568D01*
X256610Y246597D01*
X256606Y246600D01*
X256602Y246604D01*
X256591Y246611D01*
X256580Y246622D01*
X256540Y246648D01*
X256489Y246677D01*
X256428Y246702D01*
X256351Y246728D01*
X256260Y246746D01*
X256213Y246753D01*
X256162D01*
X256158D01*
X256151D01*
X256136D01*
X256118Y246749D01*
X256096D01*
X256071Y246746D01*
X256013Y246735D01*
X255943Y246717D01*
X255874Y246691D01*
X255809Y246655D01*
X255747Y246604D01*
X255743D01*
X255740Y246597D01*
X255721Y246579D01*
X255696Y246546D01*
X255667Y246502D01*
X255641Y246444D01*
X255616Y246378D01*
X255598Y246302D01*
X255590Y246258D01*
Y246189D01*
X255594Y246160D01*
X255598Y246124D01*
X255609Y246080D01*
X255620Y246036D01*
X255638Y245989D01*
X255660Y245941D01*
X255663Y245938D01*
X255670Y245923D01*
X255689Y245901D01*
X255707Y245872D01*
X255732Y245843D01*
X255765Y245814D01*
X255798Y245781D01*
X255838Y245756D01*
X255798Y245465D01*
X254502Y245708D01*
Y246961D01*
X254797D01*
Y245952D01*
X255478Y245818D01*
X255474Y245821D01*
X255470Y245829D01*
X255463Y245840D01*
X255452Y245858D01*
X255441Y245880D01*
X255427Y245905D01*
X255398Y245963D01*
X255368Y246036D01*
X255343Y246116D01*
X255325Y246203D01*
X255317Y246247D01*
Y246327D01*
X255321Y246349D01*
X255325Y246378D01*
X255328Y246411D01*
X255336Y246447D01*
X255346Y246487D01*
X255372Y246575D01*
X255390Y246622D01*
X255416Y246670D01*
X255441Y246717D01*
X255470Y246764D01*
X255507Y246808D01*
X255547Y246851D01*
X255550Y246855D01*
X255558Y246862D01*
X255569Y246873D01*
X255587Y246888D01*
X255612Y246906D01*
X255638Y246924D01*
X255670Y246946D01*
X255707Y246968D01*
X255747Y246986D01*
X255791Y247008D01*
X255842Y247026D01*
X255892Y247044D01*
X255947Y247059D01*
X256009Y247070D01*
X256071Y247077D01*
X256136Y247081D01*
X256140D01*
X256151D01*
X256169D01*
X256195Y247077D01*
D02*
G37*
G36*
X256300Y245101D02*
X256329Y245097D01*
X256362Y245090D01*
X256399Y245082D01*
X256438Y245075D01*
X256526Y245046D01*
X256573Y245024D01*
X256617Y245002D01*
X256664Y244973D01*
X256712Y244940D01*
X256759Y244904D01*
X256803Y244860D01*
X256806Y244857D01*
X256814Y244849D01*
X256824Y244835D01*
X256839Y244817D01*
X256857Y244795D01*
X256875Y244766D01*
X256897Y244733D01*
X256915Y244693D01*
X256937Y244653D01*
X256959Y244606D01*
X256977Y244558D01*
X256996Y244504D01*
X257010Y244445D01*
X257021Y244384D01*
X257028Y244322D01*
X257032Y244252D01*
Y244220D01*
X257028Y244198D01*
X257025Y244169D01*
X257021Y244136D01*
X257014Y244100D01*
X257006Y244060D01*
X256984Y243972D01*
X256948Y243881D01*
X256926Y243834D01*
X256901Y243790D01*
X256868Y243746D01*
X256835Y243703D01*
X256832Y243699D01*
X256824Y243692D01*
X256814Y243681D01*
X256799Y243670D01*
X256781Y243652D01*
X256755Y243634D01*
X256730Y243612D01*
X256697Y243590D01*
X256661Y243568D01*
X256624Y243546D01*
X256537Y243506D01*
X256435Y243474D01*
X256380Y243463D01*
X256322Y243455D01*
X256282Y243765D01*
X256286D01*
X256293Y243768D01*
X256308Y243772D01*
X256326Y243776D01*
X256348Y243779D01*
X256373Y243787D01*
X256428Y243805D01*
X256493Y243830D01*
X256555Y243863D01*
X256613Y243899D01*
X256664Y243943D01*
X256668Y243950D01*
X256682Y243965D01*
X256701Y243994D01*
X256719Y244030D01*
X256741Y244074D01*
X256759Y244129D01*
X256773Y244191D01*
X256777Y244256D01*
Y244278D01*
X256773Y244292D01*
X256770Y244333D01*
X256759Y244384D01*
X256741Y244442D01*
X256715Y244504D01*
X256679Y244566D01*
X256628Y244624D01*
X256621Y244631D01*
X256599Y244649D01*
X256566Y244671D01*
X256522Y244700D01*
X256468Y244729D01*
X256406Y244751D01*
X256333Y244769D01*
X256253Y244777D01*
X256249D01*
X256242D01*
X256231D01*
X256217Y244773D01*
X256176Y244769D01*
X256129Y244759D01*
X256071Y244744D01*
X256013Y244718D01*
X255954Y244682D01*
X255900Y244635D01*
X255892Y244627D01*
X255878Y244609D01*
X255856Y244580D01*
X255831Y244540D01*
X255805Y244489D01*
X255783Y244427D01*
X255769Y244358D01*
X255762Y244282D01*
Y244249D01*
X255765Y244223D01*
X255769Y244191D01*
X255776Y244154D01*
X255783Y244110D01*
X255794Y244063D01*
X255521Y244100D01*
Y244118D01*
X255525Y244132D01*
Y244180D01*
X255518Y244220D01*
X255510Y244267D01*
X255499Y244322D01*
X255481Y244384D01*
X255456Y244442D01*
X255423Y244504D01*
Y244507D01*
X255419Y244511D01*
X255405Y244529D01*
X255379Y244555D01*
X255346Y244584D01*
X255299Y244613D01*
X255245Y244638D01*
X255183Y244656D01*
X255146Y244664D01*
X255106D01*
X255103D01*
X255099D01*
X255077D01*
X255048Y244656D01*
X255008Y244649D01*
X254964Y244635D01*
X254917Y244617D01*
X254870Y244587D01*
X254826Y244547D01*
X254822Y244544D01*
X254808Y244526D01*
X254790Y244500D01*
X254768Y244467D01*
X254750Y244424D01*
X254731Y244373D01*
X254717Y244314D01*
X254713Y244249D01*
Y244220D01*
X254720Y244187D01*
X254728Y244143D01*
X254742Y244096D01*
X254761Y244049D01*
X254790Y243998D01*
X254826Y243950D01*
X254830Y243947D01*
X254848Y243932D01*
X254873Y243910D01*
X254910Y243885D01*
X254957Y243859D01*
X255015Y243834D01*
X255084Y243812D01*
X255165Y243797D01*
X255110Y243488D01*
X255106D01*
X255095Y243492D01*
X255081Y243495D01*
X255059Y243499D01*
X255033Y243506D01*
X255004Y243517D01*
X254935Y243539D01*
X254855Y243576D01*
X254775Y243619D01*
X254699Y243674D01*
X254629Y243743D01*
X254626Y243746D01*
X254622Y243754D01*
X254615Y243765D01*
X254604Y243779D01*
X254589Y243797D01*
X254575Y243823D01*
X254560Y243848D01*
X254542Y243881D01*
X254513Y243954D01*
X254484Y244038D01*
X254466Y244136D01*
X254458Y244187D01*
Y244278D01*
X254462Y244318D01*
X254469Y244365D01*
X254480Y244424D01*
X254498Y244489D01*
X254520Y244555D01*
X254549Y244620D01*
Y244624D01*
X254553Y244627D01*
X254564Y244649D01*
X254586Y244682D01*
X254611Y244718D01*
X254648Y244762D01*
X254688Y244806D01*
X254735Y244849D01*
X254790Y244886D01*
X254797Y244889D01*
X254815Y244900D01*
X254848Y244915D01*
X254888Y244933D01*
X254935Y244951D01*
X254990Y244966D01*
X255052Y244977D01*
X255114Y244981D01*
X255121D01*
X255143D01*
X255172Y244977D01*
X255212Y244970D01*
X255259Y244959D01*
X255310Y244940D01*
X255361Y244919D01*
X255412Y244889D01*
X255419Y244886D01*
X255434Y244875D01*
X255459Y244853D01*
X255488Y244824D01*
X255521Y244788D01*
X255558Y244744D01*
X255590Y244693D01*
X255623Y244631D01*
Y244635D01*
X255627Y244642D01*
X255630Y244653D01*
X255634Y244668D01*
X255649Y244707D01*
X255670Y244759D01*
X255700Y244817D01*
X255736Y244875D01*
X255783Y244930D01*
X255838Y244981D01*
X255845Y244984D01*
X255867Y244999D01*
X255904Y245021D01*
X255951Y245042D01*
X256009Y245064D01*
X256078Y245086D01*
X256158Y245101D01*
X256246Y245104D01*
X256249D01*
X256260D01*
X256278D01*
X256300Y245101D01*
D02*
G37*
G36*
X241963Y246173D02*
X241985D01*
X242043Y246162D01*
X242112Y246151D01*
X242185Y246133D01*
X242265Y246108D01*
X242342Y246071D01*
X242345D01*
X242349Y246068D01*
X242360Y246060D01*
X242374Y246053D01*
X242411Y246031D01*
X242458Y245998D01*
X242509Y245958D01*
X242560Y245911D01*
X242611Y245853D01*
X242655Y245791D01*
Y245787D01*
X242658Y245784D01*
X242666Y245773D01*
X242669Y245758D01*
X242687Y245722D01*
X242706Y245674D01*
X242727Y245613D01*
X242742Y245543D01*
X242757Y245467D01*
X242760Y245383D01*
Y245365D01*
X242757Y245347D01*
Y245318D01*
X242753Y245285D01*
X242746Y245249D01*
X242735Y245205D01*
X242724Y245161D01*
X242709Y245110D01*
X242691Y245059D01*
X242669Y245008D01*
X242640Y244954D01*
X242607Y244903D01*
X242571Y244852D01*
X242527Y244801D01*
X242476Y244754D01*
X242473Y244750D01*
X242462Y244743D01*
X242447Y244732D01*
X242422Y244717D01*
X242389Y244695D01*
X242353Y244677D01*
X242305Y244655D01*
X242254Y244633D01*
X242192Y244608D01*
X242123Y244586D01*
X242047Y244568D01*
X241963Y244550D01*
X241868Y244531D01*
X241767Y244521D01*
X241657Y244513D01*
X241541Y244510D01*
X241537D01*
X241533D01*
X241523D01*
X241508D01*
X241472Y244513D01*
X241421D01*
X241363Y244517D01*
X241293Y244524D01*
X241217Y244531D01*
X241133Y244542D01*
X241049Y244557D01*
X240958Y244575D01*
X240871Y244597D01*
X240784Y244622D01*
X240700Y244655D01*
X240620Y244692D01*
X240544Y244732D01*
X240478Y244779D01*
X240474Y244783D01*
X240467Y244790D01*
X240453Y244805D01*
X240431Y244823D01*
X240409Y244845D01*
X240387Y244874D01*
X240358Y244910D01*
X240332Y244946D01*
X240307Y244990D01*
X240278Y245037D01*
X240256Y245092D01*
X240230Y245147D01*
X240212Y245209D01*
X240198Y245274D01*
X240190Y245343D01*
X240187Y245416D01*
Y245445D01*
X240190Y245467D01*
Y245492D01*
X240194Y245522D01*
X240209Y245591D01*
X240227Y245667D01*
X240256Y245747D01*
X240300Y245827D01*
X240325Y245867D01*
X240354Y245904D01*
X240358Y245907D01*
X240361Y245911D01*
X240372Y245922D01*
X240383Y245933D01*
X240402Y245951D01*
X240423Y245966D01*
X240474Y246006D01*
X240540Y246046D01*
X240620Y246082D01*
X240711Y246115D01*
X240813Y246137D01*
X240838Y245827D01*
X240835D01*
X240831Y245824D01*
X240809Y245820D01*
X240776Y245809D01*
X240736Y245795D01*
X240693Y245780D01*
X240649Y245758D01*
X240609Y245733D01*
X240576Y245707D01*
X240569Y245700D01*
X240554Y245685D01*
X240532Y245660D01*
X240507Y245623D01*
X240485Y245576D01*
X240463Y245525D01*
X240449Y245463D01*
X240441Y245398D01*
Y245372D01*
X240445Y245343D01*
X240453Y245310D01*
X240463Y245267D01*
X240478Y245223D01*
X240496Y245179D01*
X240525Y245136D01*
X240529Y245128D01*
X240544Y245110D01*
X240569Y245085D01*
X240605Y245052D01*
X240649Y245016D01*
X240700Y244976D01*
X240766Y244939D01*
X240838Y244903D01*
X240842D01*
X240849Y244899D01*
X240860Y244896D01*
X240875Y244888D01*
X240897Y244885D01*
X240922Y244877D01*
X240951Y244870D01*
X240987Y244863D01*
X241028Y244852D01*
X241071Y244845D01*
X241119Y244837D01*
X241170Y244834D01*
X241228Y244826D01*
X241286Y244823D01*
X241352Y244819D01*
X241417D01*
X241413Y244823D01*
X241392Y244837D01*
X241363Y244863D01*
X241326Y244896D01*
X241282Y244932D01*
X241242Y244979D01*
X241202Y245030D01*
X241166Y245088D01*
Y245092D01*
X241162Y245096D01*
X241151Y245117D01*
X241140Y245150D01*
X241122Y245194D01*
X241108Y245245D01*
X241097Y245303D01*
X241086Y245365D01*
X241082Y245431D01*
Y245460D01*
X241086Y245481D01*
X241090Y245511D01*
X241093Y245540D01*
X241100Y245576D01*
X241111Y245613D01*
X241137Y245696D01*
X241155Y245740D01*
X241180Y245784D01*
X241206Y245827D01*
X241235Y245875D01*
X241271Y245918D01*
X241312Y245958D01*
X241315Y245962D01*
X241322Y245969D01*
X241333Y245980D01*
X241352Y245991D01*
X241377Y246009D01*
X241403Y246027D01*
X241435Y246046D01*
X241472Y246068D01*
X241512Y246089D01*
X241555Y246108D01*
X241606Y246126D01*
X241657Y246144D01*
X241712Y246155D01*
X241774Y246166D01*
X241836Y246173D01*
X241901Y246177D01*
X241905D01*
X241912D01*
X241923D01*
X241941D01*
X241963Y246173D01*
D02*
G37*
G36*
X242029Y244215D02*
X242058Y244211D01*
X242091Y244204D01*
X242127Y244197D01*
X242167Y244189D01*
X242254Y244160D01*
X242302Y244138D01*
X242345Y244116D01*
X242393Y244087D01*
X242440Y244055D01*
X242487Y244018D01*
X242531Y243975D01*
X242534Y243971D01*
X242542Y243964D01*
X242553Y243949D01*
X242567Y243931D01*
X242585Y243909D01*
X242604Y243880D01*
X242625Y243847D01*
X242644Y243807D01*
X242666Y243767D01*
X242687Y243720D01*
X242706Y243672D01*
X242724Y243618D01*
X242738Y243560D01*
X242749Y243498D01*
X242757Y243436D01*
X242760Y243367D01*
Y243334D01*
X242757Y243312D01*
X242753Y243283D01*
X242749Y243250D01*
X242742Y243214D01*
X242735Y243174D01*
X242713Y243086D01*
X242676Y242995D01*
X242655Y242948D01*
X242629Y242904D01*
X242596Y242861D01*
X242564Y242817D01*
X242560Y242813D01*
X242553Y242806D01*
X242542Y242795D01*
X242527Y242784D01*
X242509Y242766D01*
X242484Y242748D01*
X242458Y242726D01*
X242425Y242704D01*
X242389Y242682D01*
X242353Y242660D01*
X242265Y242620D01*
X242163Y242588D01*
X242109Y242577D01*
X242050Y242569D01*
X242010Y242879D01*
X242014D01*
X242021Y242883D01*
X242036Y242886D01*
X242054Y242890D01*
X242076Y242894D01*
X242101Y242901D01*
X242156Y242919D01*
X242221Y242944D01*
X242283Y242977D01*
X242342Y243014D01*
X242393Y243057D01*
X242396Y243065D01*
X242411Y243079D01*
X242429Y243108D01*
X242447Y243145D01*
X242469Y243188D01*
X242487Y243243D01*
X242502Y243305D01*
X242505Y243370D01*
Y243392D01*
X242502Y243407D01*
X242498Y243447D01*
X242487Y243498D01*
X242469Y243556D01*
X242443Y243618D01*
X242407Y243680D01*
X242356Y243738D01*
X242349Y243745D01*
X242327Y243763D01*
X242294Y243785D01*
X242251Y243814D01*
X242196Y243844D01*
X242134Y243865D01*
X242061Y243884D01*
X241981Y243891D01*
X241978D01*
X241970D01*
X241959D01*
X241945Y243887D01*
X241905Y243884D01*
X241858Y243873D01*
X241799Y243858D01*
X241741Y243833D01*
X241683Y243796D01*
X241628Y243749D01*
X241621Y243742D01*
X241606Y243723D01*
X241584Y243694D01*
X241559Y243654D01*
X241533Y243603D01*
X241512Y243541D01*
X241497Y243472D01*
X241490Y243396D01*
Y243363D01*
X241494Y243338D01*
X241497Y243305D01*
X241504Y243268D01*
X241512Y243225D01*
X241523Y243177D01*
X241250Y243214D01*
Y243232D01*
X241253Y243247D01*
Y243294D01*
X241246Y243334D01*
X241239Y243381D01*
X241228Y243436D01*
X241210Y243498D01*
X241184Y243556D01*
X241151Y243618D01*
Y243621D01*
X241148Y243625D01*
X241133Y243643D01*
X241108Y243669D01*
X241075Y243698D01*
X241028Y243727D01*
X240973Y243753D01*
X240911Y243771D01*
X240875Y243778D01*
X240835D01*
X240831D01*
X240827D01*
X240806D01*
X240776Y243771D01*
X240736Y243763D01*
X240693Y243749D01*
X240645Y243731D01*
X240598Y243702D01*
X240554Y243661D01*
X240551Y243658D01*
X240536Y243640D01*
X240518Y243614D01*
X240496Y243581D01*
X240478Y243538D01*
X240460Y243487D01*
X240445Y243429D01*
X240441Y243363D01*
Y243334D01*
X240449Y243301D01*
X240456Y243257D01*
X240471Y243210D01*
X240489Y243163D01*
X240518Y243112D01*
X240554Y243065D01*
X240558Y243061D01*
X240576Y243046D01*
X240602Y243024D01*
X240638Y242999D01*
X240685Y242974D01*
X240744Y242948D01*
X240813Y242926D01*
X240893Y242912D01*
X240838Y242602D01*
X240835D01*
X240824Y242606D01*
X240809Y242610D01*
X240787Y242613D01*
X240762Y242620D01*
X240733Y242631D01*
X240664Y242653D01*
X240583Y242690D01*
X240503Y242733D01*
X240427Y242788D01*
X240358Y242857D01*
X240354Y242861D01*
X240351Y242868D01*
X240343Y242879D01*
X240332Y242894D01*
X240318Y242912D01*
X240303Y242937D01*
X240289Y242963D01*
X240270Y242995D01*
X240241Y243068D01*
X240212Y243152D01*
X240194Y243250D01*
X240187Y243301D01*
Y243392D01*
X240190Y243432D01*
X240198Y243479D01*
X240209Y243538D01*
X240227Y243603D01*
X240249Y243669D01*
X240278Y243734D01*
Y243738D01*
X240281Y243742D01*
X240292Y243763D01*
X240314Y243796D01*
X240340Y243833D01*
X240376Y243876D01*
X240416Y243920D01*
X240463Y243964D01*
X240518Y244000D01*
X240525Y244004D01*
X240544Y244015D01*
X240576Y244029D01*
X240616Y244047D01*
X240664Y244066D01*
X240718Y244080D01*
X240780Y244091D01*
X240842Y244095D01*
X240849D01*
X240871D01*
X240900Y244091D01*
X240940Y244084D01*
X240987Y244073D01*
X241038Y244055D01*
X241090Y244033D01*
X241140Y244004D01*
X241148Y244000D01*
X241162Y243989D01*
X241188Y243967D01*
X241217Y243938D01*
X241250Y243902D01*
X241286Y243858D01*
X241319Y243807D01*
X241352Y243745D01*
Y243749D01*
X241355Y243756D01*
X241359Y243767D01*
X241363Y243782D01*
X241377Y243822D01*
X241399Y243873D01*
X241428Y243931D01*
X241464Y243989D01*
X241512Y244044D01*
X241566Y244095D01*
X241574Y244098D01*
X241595Y244113D01*
X241632Y244135D01*
X241679Y244157D01*
X241737Y244178D01*
X241807Y244200D01*
X241887Y244215D01*
X241974Y244218D01*
X241978D01*
X241988D01*
X242007D01*
X242029Y244215D01*
D02*
G37*
G36*
X243799Y72002D02*
X243796D01*
X243781D01*
X243759D01*
X243730Y72006D01*
X243697Y72010D01*
X243661Y72017D01*
X243624Y72024D01*
X243584Y72039D01*
X243581D01*
X243577Y72042D01*
X243555Y72050D01*
X243523Y72064D01*
X243479Y72086D01*
X243428Y72115D01*
X243370Y72151D01*
X243312Y72192D01*
X243250Y72242D01*
X243246D01*
X243242Y72250D01*
X243220Y72268D01*
X243188Y72301D01*
X243140Y72348D01*
X243086Y72403D01*
X243020Y72472D01*
X242947Y72556D01*
X242871Y72647D01*
X242867Y72650D01*
X242856Y72665D01*
X242838Y72687D01*
X242816Y72712D01*
X242787Y72745D01*
X242755Y72785D01*
X242718Y72825D01*
X242678Y72872D01*
X242591Y72963D01*
X242503Y73054D01*
X242460Y73098D01*
X242416Y73138D01*
X242376Y73174D01*
X242336Y73203D01*
X242332D01*
X242329Y73211D01*
X242318Y73218D01*
X242303Y73225D01*
X242263Y73251D01*
X242216Y73280D01*
X242158Y73305D01*
X242096Y73331D01*
X242026Y73346D01*
X241961Y73353D01*
X241957D01*
X241954D01*
X241932Y73349D01*
X241896Y73346D01*
X241856Y73334D01*
X241805Y73320D01*
X241754Y73295D01*
X241703Y73262D01*
X241652Y73218D01*
X241644Y73211D01*
X241630Y73193D01*
X241612Y73167D01*
X241586Y73127D01*
X241564Y73076D01*
X241542Y73018D01*
X241528Y72949D01*
X241524Y72872D01*
Y72850D01*
X241528Y72836D01*
X241531Y72792D01*
X241542Y72741D01*
X241557Y72687D01*
X241582Y72625D01*
X241615Y72566D01*
X241659Y72512D01*
X241666Y72505D01*
X241684Y72490D01*
X241714Y72468D01*
X241757Y72446D01*
X241808Y72421D01*
X241874Y72399D01*
X241947Y72385D01*
X242030Y72377D01*
X241997Y72061D01*
X241994D01*
X241983Y72064D01*
X241965D01*
X241939Y72068D01*
X241910Y72075D01*
X241877Y72082D01*
X241837Y72093D01*
X241797Y72104D01*
X241710Y72133D01*
X241622Y72177D01*
X241579Y72202D01*
X241535Y72235D01*
X241495Y72268D01*
X241459Y72304D01*
X241455Y72308D01*
X241451Y72315D01*
X241441Y72326D01*
X241430Y72344D01*
X241415Y72366D01*
X241401Y72392D01*
X241382Y72421D01*
X241364Y72457D01*
X241346Y72497D01*
X241328Y72541D01*
X241313Y72588D01*
X241299Y72639D01*
X241288Y72694D01*
X241277Y72752D01*
X241273Y72814D01*
X241269Y72879D01*
Y72916D01*
X241273Y72941D01*
X241277Y72970D01*
X241280Y73007D01*
X241288Y73047D01*
X241295Y73087D01*
X241320Y73182D01*
X241357Y73276D01*
X241379Y73324D01*
X241404Y73371D01*
X241437Y73415D01*
X241473Y73455D01*
X241477Y73458D01*
X241480Y73466D01*
X241495Y73473D01*
X241510Y73487D01*
X241528Y73506D01*
X241553Y73524D01*
X241579Y73542D01*
X241612Y73564D01*
X241681Y73600D01*
X241768Y73637D01*
X241812Y73651D01*
X241863Y73659D01*
X241914Y73666D01*
X241968Y73669D01*
X241976D01*
X241994D01*
X242023Y73666D01*
X242063Y73662D01*
X242107Y73655D01*
X242158Y73640D01*
X242212Y73626D01*
X242267Y73604D01*
X242274Y73600D01*
X242292Y73593D01*
X242321Y73578D01*
X242361Y73557D01*
X242405Y73527D01*
X242460Y73491D01*
X242514Y73447D01*
X242576Y73396D01*
X242583Y73389D01*
X242605Y73371D01*
X242623Y73353D01*
X242642Y73334D01*
X242664Y73313D01*
X242693Y73284D01*
X242722Y73254D01*
X242755Y73218D01*
X242791Y73182D01*
X242831Y73138D01*
X242871Y73091D01*
X242918Y73040D01*
X242966Y72981D01*
X243017Y72923D01*
X243020Y72920D01*
X243027Y72912D01*
X243039Y72898D01*
X243053Y72879D01*
X243075Y72858D01*
X243097Y72832D01*
X243144Y72774D01*
X243199Y72712D01*
X243253Y72654D01*
X243301Y72603D01*
X243319Y72581D01*
X243337Y72563D01*
X243341Y72559D01*
X243352Y72548D01*
X243366Y72534D01*
X243388Y72515D01*
X243413Y72497D01*
X243439Y72475D01*
X243501Y72432D01*
Y73673D01*
X243799D01*
Y72002D01*
D02*
G37*
G36*
X256988Y73110D02*
X255019D01*
X255023Y73106D01*
X255037Y73088D01*
X255059Y73066D01*
X255084Y73030D01*
X255117Y72989D01*
X255154Y72939D01*
X255194Y72880D01*
X255234Y72815D01*
Y72811D01*
X255237Y72808D01*
X255252Y72786D01*
X255270Y72749D01*
X255292Y72706D01*
X255317Y72655D01*
X255343Y72600D01*
X255368Y72545D01*
X255390Y72491D01*
X255092D01*
Y72494D01*
X255084Y72502D01*
X255081Y72516D01*
X255070Y72535D01*
X255059Y72556D01*
X255044Y72582D01*
X255008Y72644D01*
X254968Y72716D01*
X254917Y72789D01*
X254859Y72866D01*
X254797Y72942D01*
X254793Y72946D01*
X254790Y72949D01*
X254779Y72960D01*
X254768Y72975D01*
X254731Y73008D01*
X254688Y73051D01*
X254637Y73095D01*
X254578Y73142D01*
X254520Y73182D01*
X254458Y73219D01*
Y73419D01*
X256988D01*
Y73110D01*
D02*
G37*
G36*
X122537Y172959D02*
X122557Y172956D01*
X122583Y172953D01*
X122611Y172948D01*
X122639Y172943D01*
X122705Y172925D01*
X122771Y172900D01*
X122804Y172885D01*
X122838Y172867D01*
X122868Y172844D01*
X122896Y172818D01*
X122899Y172816D01*
X122904Y172813D01*
X122909Y172803D01*
X122919Y172793D01*
X122932Y172780D01*
X122945Y172762D01*
X122958Y172744D01*
X122973Y172721D01*
X122998Y172673D01*
X123024Y172612D01*
X123034Y172581D01*
X123039Y172545D01*
X123044Y172510D01*
X123047Y172471D01*
Y172466D01*
Y172454D01*
X123044Y172433D01*
X123042Y172405D01*
X123037Y172375D01*
X123026Y172339D01*
X123016Y172301D01*
X123001Y172262D01*
X122998Y172257D01*
X122993Y172245D01*
X122983Y172224D01*
X122968Y172196D01*
X122947Y172166D01*
X122922Y172127D01*
X122891Y172089D01*
X122855Y172046D01*
X122850Y172040D01*
X122838Y172025D01*
X122825Y172012D01*
X122812Y172000D01*
X122797Y171984D01*
X122776Y171964D01*
X122756Y171944D01*
X122731Y171921D01*
X122705Y171895D01*
X122675Y171867D01*
X122641Y171839D01*
X122606Y171806D01*
X122565Y171773D01*
X122524Y171737D01*
X122521Y171734D01*
X122516Y171729D01*
X122506Y171722D01*
X122493Y171712D01*
X122478Y171696D01*
X122460Y171681D01*
X122420Y171648D01*
X122376Y171610D01*
X122335Y171571D01*
X122300Y171538D01*
X122284Y171525D01*
X122272Y171513D01*
X122269Y171510D01*
X122261Y171502D01*
X122251Y171492D01*
X122238Y171477D01*
X122226Y171459D01*
X122210Y171441D01*
X122180Y171398D01*
X123049D01*
Y171189D01*
X121879D01*
Y171191D01*
Y171202D01*
Y171217D01*
X121881Y171237D01*
X121884Y171260D01*
X121889Y171286D01*
X121894Y171311D01*
X121904Y171339D01*
Y171342D01*
X121907Y171344D01*
X121912Y171360D01*
X121922Y171383D01*
X121938Y171413D01*
X121958Y171449D01*
X121983Y171490D01*
X122011Y171530D01*
X122047Y171574D01*
Y171576D01*
X122052Y171579D01*
X122065Y171594D01*
X122088Y171617D01*
X122121Y171650D01*
X122159Y171689D01*
X122208Y171734D01*
X122266Y171785D01*
X122330Y171839D01*
X122333Y171842D01*
X122343Y171849D01*
X122358Y171862D01*
X122376Y171877D01*
X122399Y171898D01*
X122427Y171921D01*
X122455Y171946D01*
X122488Y171974D01*
X122552Y172035D01*
X122616Y172097D01*
X122646Y172127D01*
X122675Y172158D01*
X122700Y172186D01*
X122720Y172214D01*
Y172216D01*
X122725Y172219D01*
X122731Y172227D01*
X122736Y172237D01*
X122754Y172265D01*
X122774Y172298D01*
X122792Y172339D01*
X122810Y172382D01*
X122820Y172431D01*
X122825Y172477D01*
Y172479D01*
Y172482D01*
X122822Y172497D01*
X122820Y172522D01*
X122812Y172550D01*
X122802Y172586D01*
X122784Y172622D01*
X122761Y172658D01*
X122731Y172693D01*
X122725Y172698D01*
X122713Y172709D01*
X122695Y172721D01*
X122667Y172739D01*
X122631Y172755D01*
X122590Y172770D01*
X122542Y172780D01*
X122488Y172783D01*
X122473D01*
X122463Y172780D01*
X122432Y172777D01*
X122397Y172770D01*
X122358Y172760D01*
X122315Y172742D01*
X122274Y172719D01*
X122236Y172688D01*
X122231Y172683D01*
X122221Y172670D01*
X122205Y172650D01*
X122190Y172619D01*
X122172Y172584D01*
X122157Y172538D01*
X122147Y172487D01*
X122142Y172428D01*
X121920Y172451D01*
Y172454D01*
X121922Y172461D01*
Y172474D01*
X121925Y172492D01*
X121930Y172512D01*
X121935Y172535D01*
X121943Y172563D01*
X121950Y172591D01*
X121971Y172652D01*
X122001Y172714D01*
X122019Y172744D01*
X122042Y172775D01*
X122065Y172803D01*
X122090Y172828D01*
X122093Y172831D01*
X122098Y172834D01*
X122106Y172841D01*
X122119Y172849D01*
X122134Y172859D01*
X122152Y172869D01*
X122172Y172882D01*
X122198Y172895D01*
X122226Y172907D01*
X122256Y172920D01*
X122289Y172931D01*
X122325Y172941D01*
X122363Y172948D01*
X122404Y172956D01*
X122448Y172959D01*
X122493Y172961D01*
X122519D01*
X122537Y172959D01*
D02*
G37*
G36*
X121165D02*
X121185Y172956D01*
X121211Y172953D01*
X121239Y172948D01*
X121267Y172943D01*
X121333Y172925D01*
X121399Y172900D01*
X121433Y172885D01*
X121466Y172867D01*
X121496Y172844D01*
X121524Y172818D01*
X121527Y172816D01*
X121532Y172813D01*
X121537Y172803D01*
X121547Y172793D01*
X121560Y172780D01*
X121573Y172762D01*
X121586Y172744D01*
X121601Y172721D01*
X121626Y172673D01*
X121652Y172612D01*
X121662Y172581D01*
X121667Y172545D01*
X121672Y172510D01*
X121675Y172471D01*
Y172466D01*
Y172454D01*
X121672Y172433D01*
X121670Y172405D01*
X121665Y172375D01*
X121654Y172339D01*
X121644Y172301D01*
X121629Y172262D01*
X121626Y172257D01*
X121621Y172245D01*
X121611Y172224D01*
X121596Y172196D01*
X121575Y172166D01*
X121550Y172127D01*
X121519Y172089D01*
X121484Y172046D01*
X121478Y172040D01*
X121466Y172025D01*
X121453Y172012D01*
X121440Y172000D01*
X121425Y171984D01*
X121405Y171964D01*
X121384Y171944D01*
X121359Y171921D01*
X121333Y171895D01*
X121303Y171867D01*
X121269Y171839D01*
X121234Y171806D01*
X121193Y171773D01*
X121152Y171737D01*
X121150Y171734D01*
X121144Y171729D01*
X121134Y171722D01*
X121122Y171712D01*
X121106Y171696D01*
X121088Y171681D01*
X121048Y171648D01*
X121004Y171610D01*
X120963Y171571D01*
X120928Y171538D01*
X120912Y171525D01*
X120900Y171513D01*
X120897Y171510D01*
X120889Y171502D01*
X120879Y171492D01*
X120867Y171477D01*
X120854Y171459D01*
X120838Y171441D01*
X120808Y171398D01*
X121677D01*
Y171189D01*
X120507D01*
Y171191D01*
Y171202D01*
Y171217D01*
X120510Y171237D01*
X120512Y171260D01*
X120517Y171286D01*
X120522Y171311D01*
X120533Y171339D01*
Y171342D01*
X120535Y171344D01*
X120540Y171360D01*
X120550Y171383D01*
X120566Y171413D01*
X120586Y171449D01*
X120612Y171490D01*
X120640Y171530D01*
X120675Y171574D01*
Y171576D01*
X120680Y171579D01*
X120693Y171594D01*
X120716Y171617D01*
X120749Y171650D01*
X120788Y171689D01*
X120836Y171734D01*
X120895Y171785D01*
X120958Y171839D01*
X120961Y171842D01*
X120971Y171849D01*
X120986Y171862D01*
X121004Y171877D01*
X121027Y171898D01*
X121055Y171921D01*
X121083Y171946D01*
X121116Y171974D01*
X121180Y172035D01*
X121244Y172097D01*
X121274Y172127D01*
X121303Y172158D01*
X121328Y172186D01*
X121349Y172214D01*
Y172216D01*
X121354Y172219D01*
X121359Y172227D01*
X121364Y172237D01*
X121382Y172265D01*
X121402Y172298D01*
X121420Y172339D01*
X121438Y172382D01*
X121448Y172431D01*
X121453Y172477D01*
Y172479D01*
Y172482D01*
X121450Y172497D01*
X121448Y172522D01*
X121440Y172550D01*
X121430Y172586D01*
X121412Y172622D01*
X121389Y172658D01*
X121359Y172693D01*
X121354Y172698D01*
X121341Y172709D01*
X121323Y172721D01*
X121295Y172739D01*
X121259Y172755D01*
X121218Y172770D01*
X121170Y172780D01*
X121116Y172783D01*
X121101D01*
X121091Y172780D01*
X121060Y172777D01*
X121025Y172770D01*
X120986Y172760D01*
X120943Y172742D01*
X120902Y172719D01*
X120864Y172688D01*
X120859Y172683D01*
X120849Y172670D01*
X120833Y172650D01*
X120818Y172619D01*
X120800Y172584D01*
X120785Y172538D01*
X120775Y172487D01*
X120770Y172428D01*
X120548Y172451D01*
Y172454D01*
X120550Y172461D01*
Y172474D01*
X120553Y172492D01*
X120558Y172512D01*
X120563Y172535D01*
X120571Y172563D01*
X120578Y172591D01*
X120599Y172652D01*
X120629Y172714D01*
X120647Y172744D01*
X120670Y172775D01*
X120693Y172803D01*
X120719Y172828D01*
X120721Y172831D01*
X120726Y172834D01*
X120734Y172841D01*
X120747Y172849D01*
X120762Y172859D01*
X120780Y172869D01*
X120800Y172882D01*
X120826Y172895D01*
X120854Y172907D01*
X120884Y172920D01*
X120917Y172931D01*
X120953Y172941D01*
X120992Y172948D01*
X121032Y172956D01*
X121076Y172959D01*
X121122Y172961D01*
X121147D01*
X121165Y172959D01*
D02*
G37*
G36*
X158638Y172859D02*
X158658Y172856D01*
X158684Y172853D01*
X158712Y172848D01*
X158740Y172843D01*
X158806Y172825D01*
X158872Y172800D01*
X158906Y172785D01*
X158939Y172767D01*
X158969Y172744D01*
X158997Y172718D01*
X159000Y172716D01*
X159005Y172713D01*
X159010Y172703D01*
X159020Y172693D01*
X159033Y172680D01*
X159046Y172662D01*
X159059Y172644D01*
X159074Y172621D01*
X159099Y172573D01*
X159125Y172512D01*
X159135Y172481D01*
X159140Y172445D01*
X159145Y172410D01*
X159148Y172371D01*
Y172366D01*
Y172354D01*
X159145Y172333D01*
X159143Y172305D01*
X159138Y172275D01*
X159127Y172239D01*
X159117Y172201D01*
X159102Y172162D01*
X159099Y172157D01*
X159094Y172144D01*
X159084Y172124D01*
X159069Y172096D01*
X159048Y172065D01*
X159023Y172027D01*
X158992Y171989D01*
X158957Y171946D01*
X158951Y171941D01*
X158939Y171925D01*
X158926Y171913D01*
X158913Y171900D01*
X158898Y171884D01*
X158878Y171864D01*
X158857Y171844D01*
X158832Y171821D01*
X158806Y171795D01*
X158776Y171767D01*
X158742Y171739D01*
X158707Y171706D01*
X158666Y171673D01*
X158625Y171637D01*
X158623Y171634D01*
X158617Y171629D01*
X158607Y171622D01*
X158595Y171612D01*
X158579Y171596D01*
X158561Y171581D01*
X158521Y171548D01*
X158477Y171510D01*
X158436Y171471D01*
X158401Y171438D01*
X158385Y171425D01*
X158373Y171413D01*
X158370Y171410D01*
X158362Y171403D01*
X158352Y171392D01*
X158340Y171377D01*
X158327Y171359D01*
X158311Y171341D01*
X158281Y171298D01*
X159150D01*
Y171089D01*
X157980D01*
Y171091D01*
Y171102D01*
Y171117D01*
X157983Y171137D01*
X157985Y171160D01*
X157990Y171186D01*
X157995Y171211D01*
X158005Y171239D01*
Y171242D01*
X158008Y171244D01*
X158013Y171260D01*
X158023Y171283D01*
X158039Y171313D01*
X158059Y171349D01*
X158084Y171390D01*
X158113Y171431D01*
X158148Y171474D01*
Y171476D01*
X158153Y171479D01*
X158166Y171494D01*
X158189Y171517D01*
X158222Y171550D01*
X158261Y171589D01*
X158309Y171634D01*
X158368Y171686D01*
X158431Y171739D01*
X158434Y171742D01*
X158444Y171749D01*
X158459Y171762D01*
X158477Y171777D01*
X158500Y171798D01*
X158528Y171821D01*
X158556Y171846D01*
X158589Y171874D01*
X158653Y171935D01*
X158717Y171997D01*
X158747Y172027D01*
X158776Y172058D01*
X158801Y172086D01*
X158821Y172114D01*
Y172116D01*
X158827Y172119D01*
X158832Y172127D01*
X158837Y172137D01*
X158855Y172165D01*
X158875Y172198D01*
X158893Y172239D01*
X158911Y172282D01*
X158921Y172331D01*
X158926Y172377D01*
Y172379D01*
Y172382D01*
X158923Y172397D01*
X158921Y172423D01*
X158913Y172450D01*
X158903Y172486D01*
X158885Y172522D01*
X158862Y172558D01*
X158832Y172593D01*
X158827Y172598D01*
X158814Y172609D01*
X158796Y172621D01*
X158768Y172639D01*
X158732Y172654D01*
X158691Y172670D01*
X158643Y172680D01*
X158589Y172683D01*
X158574D01*
X158564Y172680D01*
X158533Y172678D01*
X158498Y172670D01*
X158459Y172660D01*
X158416Y172642D01*
X158375Y172619D01*
X158337Y172588D01*
X158332Y172583D01*
X158322Y172570D01*
X158306Y172550D01*
X158291Y172519D01*
X158273Y172484D01*
X158258Y172438D01*
X158248Y172387D01*
X158243Y172328D01*
X158021Y172351D01*
Y172354D01*
X158023Y172361D01*
Y172374D01*
X158026Y172392D01*
X158031Y172412D01*
X158036Y172435D01*
X158044Y172463D01*
X158051Y172491D01*
X158072Y172553D01*
X158102Y172614D01*
X158120Y172644D01*
X158143Y172675D01*
X158166Y172703D01*
X158192Y172729D01*
X158194Y172731D01*
X158199Y172734D01*
X158207Y172741D01*
X158220Y172749D01*
X158235Y172759D01*
X158253Y172769D01*
X158273Y172782D01*
X158299Y172795D01*
X158327Y172808D01*
X158357Y172820D01*
X158390Y172830D01*
X158426Y172841D01*
X158465Y172848D01*
X158505Y172856D01*
X158549Y172859D01*
X158595Y172861D01*
X158620D01*
X158638Y172859D01*
D02*
G37*
G36*
X157455Y171089D02*
X157238D01*
Y172468D01*
X157235Y172466D01*
X157223Y172456D01*
X157207Y172440D01*
X157182Y172423D01*
X157154Y172399D01*
X157118Y172374D01*
X157077Y172346D01*
X157031Y172318D01*
X157029D01*
X157026Y172315D01*
X157011Y172305D01*
X156985Y172292D01*
X156955Y172277D01*
X156919Y172259D01*
X156881Y172241D01*
X156843Y172224D01*
X156804Y172208D01*
Y172417D01*
X156807D01*
X156812Y172423D01*
X156822Y172425D01*
X156835Y172433D01*
X156850Y172440D01*
X156868Y172450D01*
X156912Y172476D01*
X156963Y172504D01*
X157013Y172540D01*
X157067Y172581D01*
X157121Y172624D01*
X157123Y172626D01*
X157126Y172629D01*
X157133Y172637D01*
X157144Y172644D01*
X157167Y172670D01*
X157197Y172700D01*
X157228Y172736D01*
X157261Y172777D01*
X157289Y172818D01*
X157314Y172861D01*
X157455D01*
Y171089D01*
D02*
G37*
G36*
X162527Y167089D02*
X162310D01*
Y168468D01*
X162307Y168466D01*
X162294Y168456D01*
X162279Y168440D01*
X162254Y168422D01*
X162226Y168400D01*
X162190Y168374D01*
X162149Y168346D01*
X162103Y168318D01*
X162101D01*
X162098Y168315D01*
X162083Y168305D01*
X162057Y168292D01*
X162027Y168277D01*
X161991Y168259D01*
X161953Y168241D01*
X161915Y168224D01*
X161876Y168208D01*
Y168417D01*
X161879D01*
X161884Y168422D01*
X161894Y168425D01*
X161907Y168433D01*
X161922Y168440D01*
X161940Y168450D01*
X161983Y168476D01*
X162034Y168504D01*
X162085Y168540D01*
X162139Y168581D01*
X162192Y168624D01*
X162195Y168626D01*
X162198Y168629D01*
X162205Y168637D01*
X162215Y168644D01*
X162238Y168670D01*
X162269Y168700D01*
X162300Y168736D01*
X162333Y168777D01*
X162361Y168818D01*
X162386Y168861D01*
X162527D01*
Y167089D01*
D02*
G37*
G36*
X161155D02*
X160938D01*
Y168468D01*
X160935Y168466D01*
X160923Y168456D01*
X160907Y168440D01*
X160882Y168422D01*
X160854Y168400D01*
X160818Y168374D01*
X160777Y168346D01*
X160731Y168318D01*
X160729D01*
X160726Y168315D01*
X160711Y168305D01*
X160686Y168292D01*
X160655Y168277D01*
X160619Y168259D01*
X160581Y168241D01*
X160543Y168224D01*
X160504Y168208D01*
Y168417D01*
X160507D01*
X160512Y168422D01*
X160522Y168425D01*
X160535Y168433D01*
X160550Y168440D01*
X160568Y168450D01*
X160611Y168476D01*
X160662Y168504D01*
X160714Y168540D01*
X160767Y168581D01*
X160821Y168624D01*
X160823Y168626D01*
X160826Y168629D01*
X160833Y168637D01*
X160844Y168644D01*
X160866Y168670D01*
X160897Y168700D01*
X160928Y168736D01*
X160961Y168777D01*
X160989Y168818D01*
X161014Y168861D01*
X161155D01*
Y167089D01*
D02*
G37*
G36*
X162255Y133089D02*
X162038D01*
Y134468D01*
X162035Y134466D01*
X162023Y134456D01*
X162007Y134440D01*
X161982Y134423D01*
X161954Y134399D01*
X161918Y134374D01*
X161877Y134346D01*
X161831Y134318D01*
X161829D01*
X161826Y134315D01*
X161811Y134305D01*
X161785Y134292D01*
X161755Y134277D01*
X161719Y134259D01*
X161681Y134241D01*
X161643Y134224D01*
X161604Y134208D01*
Y134417D01*
X161607D01*
X161612Y134423D01*
X161622Y134425D01*
X161635Y134433D01*
X161650Y134440D01*
X161668Y134450D01*
X161712Y134476D01*
X161762Y134504D01*
X161813Y134540D01*
X161867Y134581D01*
X161921Y134624D01*
X161923Y134626D01*
X161926Y134629D01*
X161933Y134637D01*
X161944Y134644D01*
X161967Y134670D01*
X161997Y134700D01*
X162028Y134736D01*
X162061Y134777D01*
X162089Y134818D01*
X162114Y134861D01*
X162255D01*
Y133089D01*
D02*
G37*
G36*
X118981Y134659D02*
X119014Y134653D01*
X119055Y134646D01*
X119100Y134633D01*
X119146Y134618D01*
X119192Y134597D01*
X119195D01*
X119197Y134595D01*
X119213Y134587D01*
X119236Y134572D01*
X119261Y134554D01*
X119292Y134529D01*
X119322Y134500D01*
X119353Y134467D01*
X119378Y134429D01*
X119381Y134424D01*
X119389Y134411D01*
X119399Y134388D01*
X119412Y134360D01*
X119424Y134327D01*
X119435Y134289D01*
X119442Y134245D01*
X119445Y134202D01*
Y134197D01*
Y134182D01*
X119442Y134161D01*
X119437Y134133D01*
X119430Y134100D01*
X119417Y134064D01*
X119401Y134029D01*
X119381Y133993D01*
X119378Y133988D01*
X119371Y133978D01*
X119355Y133960D01*
X119335Y133939D01*
X119310Y133916D01*
X119279Y133891D01*
X119243Y133868D01*
X119200Y133845D01*
X119202D01*
X119208Y133843D01*
X119215Y133840D01*
X119226Y133837D01*
X119254Y133827D01*
X119289Y133812D01*
X119330Y133791D01*
X119371Y133766D01*
X119409Y133733D01*
X119445Y133695D01*
X119447Y133689D01*
X119457Y133674D01*
X119473Y133649D01*
X119488Y133616D01*
X119503Y133575D01*
X119519Y133526D01*
X119529Y133470D01*
X119532Y133409D01*
Y133406D01*
Y133399D01*
Y133386D01*
X119529Y133371D01*
X119526Y133350D01*
X119521Y133327D01*
X119516Y133302D01*
X119511Y133274D01*
X119491Y133213D01*
X119475Y133179D01*
X119460Y133149D01*
X119440Y133116D01*
X119417Y133083D01*
X119391Y133049D01*
X119361Y133019D01*
X119358Y133016D01*
X119353Y133011D01*
X119343Y133004D01*
X119330Y132993D01*
X119315Y132981D01*
X119294Y132968D01*
X119271Y132953D01*
X119243Y132940D01*
X119215Y132924D01*
X119182Y132909D01*
X119149Y132896D01*
X119111Y132884D01*
X119070Y132873D01*
X119027Y132866D01*
X118983Y132861D01*
X118935Y132858D01*
X118912D01*
X118896Y132861D01*
X118876Y132863D01*
X118853Y132866D01*
X118828Y132871D01*
X118800Y132876D01*
X118738Y132891D01*
X118675Y132917D01*
X118641Y132932D01*
X118611Y132950D01*
X118580Y132973D01*
X118550Y132996D01*
X118547Y132999D01*
X118542Y133004D01*
X118534Y133011D01*
X118527Y133021D01*
X118514Y133034D01*
X118501Y133052D01*
X118486Y133070D01*
X118471Y133093D01*
X118455Y133118D01*
X118440Y133144D01*
X118412Y133205D01*
X118389Y133276D01*
X118381Y133315D01*
X118376Y133355D01*
X118593Y133384D01*
Y133381D01*
X118596Y133376D01*
X118598Y133366D01*
X118601Y133353D01*
X118603Y133338D01*
X118608Y133320D01*
X118621Y133282D01*
X118639Y133236D01*
X118662Y133192D01*
X118687Y133151D01*
X118718Y133116D01*
X118723Y133113D01*
X118733Y133103D01*
X118754Y133090D01*
X118779Y133078D01*
X118810Y133062D01*
X118848Y133049D01*
X118891Y133039D01*
X118937Y133037D01*
X118953D01*
X118963Y133039D01*
X118991Y133042D01*
X119027Y133049D01*
X119067Y133062D01*
X119111Y133080D01*
X119154Y133106D01*
X119195Y133141D01*
X119200Y133146D01*
X119213Y133162D01*
X119228Y133185D01*
X119248Y133215D01*
X119269Y133254D01*
X119284Y133297D01*
X119297Y133348D01*
X119302Y133404D01*
Y133406D01*
Y133412D01*
Y133419D01*
X119299Y133429D01*
X119297Y133458D01*
X119289Y133491D01*
X119279Y133531D01*
X119261Y133572D01*
X119236Y133613D01*
X119202Y133651D01*
X119197Y133656D01*
X119185Y133667D01*
X119164Y133682D01*
X119136Y133700D01*
X119100Y133718D01*
X119057Y133733D01*
X119009Y133743D01*
X118955Y133748D01*
X118932D01*
X118914Y133746D01*
X118891Y133743D01*
X118866Y133738D01*
X118835Y133733D01*
X118802Y133725D01*
X118828Y133916D01*
X118840D01*
X118851Y133914D01*
X118884D01*
X118912Y133919D01*
X118945Y133924D01*
X118983Y133932D01*
X119027Y133944D01*
X119067Y133962D01*
X119111Y133985D01*
X119113D01*
X119116Y133988D01*
X119129Y133998D01*
X119146Y134016D01*
X119167Y134039D01*
X119187Y134072D01*
X119205Y134110D01*
X119218Y134154D01*
X119223Y134179D01*
Y134207D01*
Y134210D01*
Y134212D01*
Y134228D01*
X119218Y134248D01*
X119213Y134276D01*
X119202Y134307D01*
X119190Y134340D01*
X119169Y134373D01*
X119141Y134404D01*
X119139Y134406D01*
X119126Y134416D01*
X119108Y134429D01*
X119085Y134444D01*
X119055Y134457D01*
X119019Y134470D01*
X118978Y134480D01*
X118932Y134483D01*
X118912D01*
X118889Y134477D01*
X118858Y134472D01*
X118825Y134462D01*
X118792Y134449D01*
X118756Y134429D01*
X118723Y134404D01*
X118721Y134401D01*
X118710Y134388D01*
X118695Y134370D01*
X118677Y134345D01*
X118659Y134312D01*
X118641Y134271D01*
X118626Y134222D01*
X118616Y134166D01*
X118399Y134205D01*
Y134207D01*
X118402Y134215D01*
X118404Y134225D01*
X118407Y134240D01*
X118412Y134258D01*
X118420Y134279D01*
X118435Y134327D01*
X118461Y134383D01*
X118491Y134439D01*
X118529Y134493D01*
X118578Y134541D01*
X118580Y134544D01*
X118585Y134546D01*
X118593Y134551D01*
X118603Y134559D01*
X118616Y134569D01*
X118634Y134580D01*
X118652Y134590D01*
X118675Y134602D01*
X118726Y134623D01*
X118784Y134643D01*
X118853Y134656D01*
X118889Y134661D01*
X118953D01*
X118981Y134659D01*
D02*
G37*
G36*
X117609D02*
X117642Y134653D01*
X117683Y134646D01*
X117729Y134633D01*
X117774Y134618D01*
X117820Y134597D01*
X117823D01*
X117825Y134595D01*
X117841Y134587D01*
X117864Y134572D01*
X117889Y134554D01*
X117920Y134529D01*
X117950Y134500D01*
X117981Y134467D01*
X118007Y134429D01*
X118009Y134424D01*
X118017Y134411D01*
X118027Y134388D01*
X118040Y134360D01*
X118052Y134327D01*
X118063Y134289D01*
X118070Y134245D01*
X118073Y134202D01*
Y134197D01*
Y134182D01*
X118070Y134161D01*
X118065Y134133D01*
X118058Y134100D01*
X118045Y134064D01*
X118029Y134029D01*
X118009Y133993D01*
X118007Y133988D01*
X117999Y133978D01*
X117984Y133960D01*
X117963Y133939D01*
X117938Y133916D01*
X117907Y133891D01*
X117871Y133868D01*
X117828Y133845D01*
X117831D01*
X117836Y133843D01*
X117843Y133840D01*
X117854Y133837D01*
X117882Y133827D01*
X117917Y133812D01*
X117958Y133791D01*
X117999Y133766D01*
X118037Y133733D01*
X118073Y133695D01*
X118075Y133689D01*
X118086Y133674D01*
X118101Y133649D01*
X118116Y133616D01*
X118131Y133575D01*
X118147Y133526D01*
X118157Y133470D01*
X118160Y133409D01*
Y133406D01*
Y133399D01*
Y133386D01*
X118157Y133371D01*
X118155Y133350D01*
X118149Y133327D01*
X118144Y133302D01*
X118139Y133274D01*
X118119Y133213D01*
X118104Y133179D01*
X118088Y133149D01*
X118068Y133116D01*
X118045Y133083D01*
X118019Y133049D01*
X117989Y133019D01*
X117986Y133016D01*
X117981Y133011D01*
X117971Y133004D01*
X117958Y132993D01*
X117943Y132981D01*
X117922Y132968D01*
X117900Y132953D01*
X117871Y132940D01*
X117843Y132924D01*
X117810Y132909D01*
X117777Y132896D01*
X117739Y132884D01*
X117698Y132873D01*
X117655Y132866D01*
X117611Y132861D01*
X117563Y132858D01*
X117540D01*
X117525Y132861D01*
X117504Y132863D01*
X117481Y132866D01*
X117456Y132871D01*
X117428Y132876D01*
X117367Y132891D01*
X117303Y132917D01*
X117270Y132932D01*
X117239Y132950D01*
X117208Y132973D01*
X117178Y132996D01*
X117175Y132999D01*
X117170Y133004D01*
X117163Y133011D01*
X117155Y133021D01*
X117142Y133034D01*
X117129Y133052D01*
X117114Y133070D01*
X117099Y133093D01*
X117084Y133118D01*
X117068Y133144D01*
X117040Y133205D01*
X117017Y133276D01*
X117009Y133315D01*
X117004Y133355D01*
X117221Y133384D01*
Y133381D01*
X117224Y133376D01*
X117226Y133366D01*
X117229Y133353D01*
X117231Y133338D01*
X117236Y133320D01*
X117249Y133282D01*
X117267Y133236D01*
X117290Y133192D01*
X117315Y133151D01*
X117346Y133116D01*
X117351Y133113D01*
X117361Y133103D01*
X117382Y133090D01*
X117407Y133078D01*
X117438Y133062D01*
X117476Y133049D01*
X117519Y133039D01*
X117565Y133037D01*
X117581D01*
X117591Y133039D01*
X117619Y133042D01*
X117655Y133049D01*
X117695Y133062D01*
X117739Y133080D01*
X117782Y133106D01*
X117823Y133141D01*
X117828Y133146D01*
X117841Y133162D01*
X117856Y133185D01*
X117877Y133215D01*
X117897Y133254D01*
X117912Y133297D01*
X117925Y133348D01*
X117930Y133404D01*
Y133406D01*
Y133412D01*
Y133419D01*
X117928Y133429D01*
X117925Y133458D01*
X117917Y133491D01*
X117907Y133531D01*
X117889Y133572D01*
X117864Y133613D01*
X117831Y133651D01*
X117825Y133656D01*
X117813Y133667D01*
X117792Y133682D01*
X117764Y133700D01*
X117729Y133718D01*
X117685Y133733D01*
X117637Y133743D01*
X117583Y133748D01*
X117560D01*
X117543Y133746D01*
X117519Y133743D01*
X117494Y133738D01*
X117463Y133733D01*
X117430Y133725D01*
X117456Y133916D01*
X117469D01*
X117479Y133914D01*
X117512D01*
X117540Y133919D01*
X117573Y133924D01*
X117611Y133932D01*
X117655Y133944D01*
X117695Y133962D01*
X117739Y133985D01*
X117741D01*
X117744Y133988D01*
X117757Y133998D01*
X117774Y134016D01*
X117795Y134039D01*
X117815Y134072D01*
X117833Y134110D01*
X117846Y134154D01*
X117851Y134179D01*
Y134207D01*
Y134210D01*
Y134212D01*
Y134228D01*
X117846Y134248D01*
X117841Y134276D01*
X117831Y134307D01*
X117818Y134340D01*
X117798Y134373D01*
X117769Y134404D01*
X117767Y134406D01*
X117754Y134416D01*
X117736Y134429D01*
X117713Y134444D01*
X117683Y134457D01*
X117647Y134470D01*
X117606Y134480D01*
X117560Y134483D01*
X117540D01*
X117517Y134477D01*
X117486Y134472D01*
X117453Y134462D01*
X117420Y134449D01*
X117384Y134429D01*
X117351Y134404D01*
X117349Y134401D01*
X117339Y134388D01*
X117323Y134370D01*
X117305Y134345D01*
X117288Y134312D01*
X117270Y134271D01*
X117254Y134222D01*
X117244Y134166D01*
X117027Y134205D01*
Y134207D01*
X117030Y134215D01*
X117033Y134225D01*
X117035Y134240D01*
X117040Y134258D01*
X117048Y134279D01*
X117063Y134327D01*
X117089Y134383D01*
X117119Y134439D01*
X117157Y134493D01*
X117206Y134541D01*
X117208Y134544D01*
X117213Y134546D01*
X117221Y134551D01*
X117231Y134559D01*
X117244Y134569D01*
X117262Y134580D01*
X117280Y134590D01*
X117303Y134602D01*
X117354Y134623D01*
X117412Y134643D01*
X117481Y134656D01*
X117517Y134661D01*
X117581D01*
X117609Y134659D01*
D02*
G37*
G36*
X121209Y130059D02*
X121242Y130053D01*
X121283Y130046D01*
X121329Y130033D01*
X121374Y130018D01*
X121420Y129997D01*
X121423D01*
X121425Y129995D01*
X121441Y129987D01*
X121464Y129972D01*
X121489Y129954D01*
X121520Y129929D01*
X121551Y129900D01*
X121581Y129867D01*
X121607Y129829D01*
X121609Y129824D01*
X121617Y129811D01*
X121627Y129788D01*
X121640Y129760D01*
X121652Y129727D01*
X121663Y129689D01*
X121670Y129645D01*
X121673Y129602D01*
Y129597D01*
Y129582D01*
X121670Y129561D01*
X121665Y129533D01*
X121658Y129500D01*
X121645Y129464D01*
X121630Y129429D01*
X121609Y129393D01*
X121607Y129388D01*
X121599Y129378D01*
X121584Y129360D01*
X121563Y129339D01*
X121538Y129316D01*
X121507Y129291D01*
X121471Y129268D01*
X121428Y129245D01*
X121431D01*
X121436Y129243D01*
X121443Y129240D01*
X121454Y129237D01*
X121482Y129227D01*
X121517Y129212D01*
X121558Y129192D01*
X121599Y129166D01*
X121637Y129133D01*
X121673Y129095D01*
X121675Y129089D01*
X121686Y129074D01*
X121701Y129049D01*
X121716Y129016D01*
X121731Y128975D01*
X121747Y128926D01*
X121757Y128870D01*
X121760Y128809D01*
Y128806D01*
Y128799D01*
Y128786D01*
X121757Y128771D01*
X121755Y128750D01*
X121749Y128727D01*
X121744Y128702D01*
X121739Y128674D01*
X121719Y128613D01*
X121704Y128579D01*
X121688Y128549D01*
X121668Y128516D01*
X121645Y128483D01*
X121619Y128449D01*
X121589Y128419D01*
X121586Y128416D01*
X121581Y128411D01*
X121571Y128404D01*
X121558Y128393D01*
X121543Y128381D01*
X121522Y128368D01*
X121500Y128353D01*
X121471Y128340D01*
X121443Y128324D01*
X121410Y128309D01*
X121377Y128296D01*
X121339Y128284D01*
X121298Y128273D01*
X121255Y128266D01*
X121211Y128261D01*
X121163Y128258D01*
X121140D01*
X121125Y128261D01*
X121104Y128263D01*
X121081Y128266D01*
X121056Y128271D01*
X121028Y128276D01*
X120966Y128291D01*
X120903Y128317D01*
X120870Y128332D01*
X120839Y128350D01*
X120808Y128373D01*
X120778Y128396D01*
X120775Y128399D01*
X120770Y128404D01*
X120763Y128411D01*
X120755Y128421D01*
X120742Y128434D01*
X120729Y128452D01*
X120714Y128470D01*
X120699Y128493D01*
X120684Y128518D01*
X120668Y128544D01*
X120640Y128605D01*
X120617Y128676D01*
X120609Y128715D01*
X120604Y128755D01*
X120821Y128784D01*
Y128781D01*
X120824Y128776D01*
X120826Y128766D01*
X120829Y128753D01*
X120831Y128738D01*
X120836Y128720D01*
X120849Y128682D01*
X120867Y128636D01*
X120890Y128592D01*
X120915Y128551D01*
X120946Y128516D01*
X120951Y128513D01*
X120961Y128503D01*
X120982Y128490D01*
X121007Y128478D01*
X121038Y128462D01*
X121076Y128449D01*
X121119Y128439D01*
X121165Y128437D01*
X121181D01*
X121191Y128439D01*
X121219Y128442D01*
X121255Y128449D01*
X121295Y128462D01*
X121339Y128480D01*
X121382Y128506D01*
X121423Y128541D01*
X121428Y128546D01*
X121441Y128562D01*
X121456Y128585D01*
X121476Y128615D01*
X121497Y128654D01*
X121512Y128697D01*
X121525Y128748D01*
X121530Y128804D01*
Y128806D01*
Y128812D01*
Y128819D01*
X121528Y128829D01*
X121525Y128858D01*
X121517Y128891D01*
X121507Y128931D01*
X121489Y128972D01*
X121464Y129013D01*
X121431Y129051D01*
X121425Y129056D01*
X121413Y129067D01*
X121392Y129082D01*
X121364Y129100D01*
X121329Y129118D01*
X121285Y129133D01*
X121237Y129143D01*
X121183Y129148D01*
X121160D01*
X121142Y129146D01*
X121119Y129143D01*
X121094Y129138D01*
X121063Y129133D01*
X121030Y129125D01*
X121056Y129316D01*
X121069D01*
X121079Y129314D01*
X121112D01*
X121140Y129319D01*
X121173Y129324D01*
X121211Y129332D01*
X121255Y129344D01*
X121295Y129362D01*
X121339Y129385D01*
X121341D01*
X121344Y129388D01*
X121357Y129398D01*
X121374Y129416D01*
X121395Y129439D01*
X121415Y129472D01*
X121433Y129510D01*
X121446Y129554D01*
X121451Y129579D01*
Y129607D01*
Y129610D01*
Y129612D01*
Y129628D01*
X121446Y129648D01*
X121441Y129676D01*
X121431Y129707D01*
X121418Y129740D01*
X121397Y129773D01*
X121369Y129804D01*
X121367Y129806D01*
X121354Y129816D01*
X121336Y129829D01*
X121313Y129844D01*
X121283Y129857D01*
X121247Y129870D01*
X121206Y129880D01*
X121160Y129883D01*
X121140D01*
X121117Y129877D01*
X121086Y129872D01*
X121053Y129862D01*
X121020Y129849D01*
X120984Y129829D01*
X120951Y129804D01*
X120949Y129801D01*
X120939Y129788D01*
X120923Y129770D01*
X120905Y129745D01*
X120887Y129712D01*
X120870Y129671D01*
X120854Y129622D01*
X120844Y129566D01*
X120627Y129605D01*
Y129607D01*
X120630Y129615D01*
X120633Y129625D01*
X120635Y129640D01*
X120640Y129658D01*
X120648Y129679D01*
X120663Y129727D01*
X120689Y129783D01*
X120719Y129839D01*
X120757Y129893D01*
X120806Y129941D01*
X120808Y129944D01*
X120814Y129946D01*
X120821Y129951D01*
X120831Y129959D01*
X120844Y129969D01*
X120862Y129980D01*
X120880Y129990D01*
X120903Y130002D01*
X120954Y130023D01*
X121012Y130043D01*
X121081Y130056D01*
X121117Y130061D01*
X121181D01*
X121209Y130059D01*
D02*
G37*
G36*
X122884Y128911D02*
X123124D01*
Y128712D01*
X122884D01*
Y128289D01*
X122667D01*
Y128712D01*
X121900D01*
Y128911D01*
X122708Y130053D01*
X122884D01*
Y128911D01*
D02*
G37*
G36*
X158961Y128411D02*
X159200D01*
Y128212D01*
X158961D01*
Y127789D01*
X158744D01*
Y128212D01*
X157976D01*
Y128411D01*
X158785Y129553D01*
X158961D01*
Y128411D01*
D02*
G37*
G36*
X157589D02*
X157828D01*
Y128212D01*
X157589D01*
Y127789D01*
X157372D01*
Y128212D01*
X156604D01*
Y128411D01*
X157413Y129553D01*
X157589D01*
Y128411D01*
D02*
G37*
G36*
X107768Y135089D02*
X107614D01*
Y136073D01*
X107612Y136072D01*
X107603Y136064D01*
X107592Y136053D01*
X107574Y136041D01*
X107554Y136024D01*
X107528Y136006D01*
X107499Y135986D01*
X107466Y135966D01*
X107465D01*
X107463Y135964D01*
X107452Y135957D01*
X107434Y135948D01*
X107412Y135937D01*
X107386Y135924D01*
X107359Y135911D01*
X107332Y135899D01*
X107304Y135888D01*
Y136037D01*
X107306D01*
X107310Y136041D01*
X107317Y136042D01*
X107326Y136048D01*
X107337Y136053D01*
X107350Y136061D01*
X107381Y136079D01*
X107417Y136099D01*
X107454Y136124D01*
X107492Y136153D01*
X107530Y136184D01*
X107532Y136186D01*
X107534Y136188D01*
X107539Y136194D01*
X107546Y136199D01*
X107563Y136217D01*
X107585Y136239D01*
X107607Y136265D01*
X107630Y136294D01*
X107650Y136323D01*
X107668Y136354D01*
X107768D01*
Y135089D01*
D02*
G37*
G36*
X92747Y241189D02*
X92499D01*
Y242763D01*
X92496Y242760D01*
X92482Y242749D01*
X92464Y242731D01*
X92435Y242711D01*
X92403Y242685D01*
X92362Y242655D01*
X92316Y242623D01*
X92263Y242591D01*
X92260D01*
X92258Y242588D01*
X92240Y242577D01*
X92211Y242562D01*
X92176Y242545D01*
X92135Y242525D01*
X92092Y242504D01*
X92048Y242484D01*
X92004Y242466D01*
Y242705D01*
X92007D01*
X92013Y242711D01*
X92025Y242714D01*
X92039Y242722D01*
X92057Y242731D01*
X92077Y242743D01*
X92127Y242772D01*
X92185Y242804D01*
X92243Y242845D01*
X92304Y242891D01*
X92365Y242941D01*
X92368Y242944D01*
X92371Y242947D01*
X92380Y242955D01*
X92392Y242964D01*
X92418Y242993D01*
X92453Y243028D01*
X92488Y243069D01*
X92525Y243115D01*
X92557Y243162D01*
X92586Y243211D01*
X92747D01*
Y241189D01*
D02*
G37*
G36*
X156769Y317289D02*
X156614D01*
Y318273D01*
X156612Y318272D01*
X156603Y318264D01*
X156592Y318253D01*
X156574Y318241D01*
X156554Y318224D01*
X156528Y318206D01*
X156499Y318186D01*
X156466Y318166D01*
X156465D01*
X156463Y318164D01*
X156452Y318157D01*
X156434Y318148D01*
X156412Y318137D01*
X156386Y318124D01*
X156359Y318111D01*
X156332Y318099D01*
X156304Y318088D01*
Y318237D01*
X156306D01*
X156310Y318241D01*
X156317Y318243D01*
X156326Y318248D01*
X156337Y318253D01*
X156350Y318261D01*
X156381Y318279D01*
X156417Y318299D01*
X156454Y318324D01*
X156492Y318354D01*
X156530Y318385D01*
X156532Y318386D01*
X156534Y318388D01*
X156539Y318394D01*
X156546Y318399D01*
X156563Y318417D01*
X156585Y318439D01*
X156607Y318464D01*
X156630Y318494D01*
X156650Y318523D01*
X156668Y318554D01*
X156769D01*
Y317289D01*
D02*
G37*
G36*
X151433Y302189D02*
X151123D01*
Y304158D01*
X151120Y304154D01*
X151101Y304140D01*
X151080Y304118D01*
X151043Y304093D01*
X151003Y304060D01*
X150952Y304023D01*
X150894Y303983D01*
X150828Y303943D01*
X150825D01*
X150821Y303940D01*
X150799Y303925D01*
X150763Y303907D01*
X150719Y303885D01*
X150668Y303860D01*
X150614Y303834D01*
X150559Y303809D01*
X150504Y303787D01*
Y304085D01*
X150508D01*
X150515Y304093D01*
X150530Y304096D01*
X150548Y304107D01*
X150570Y304118D01*
X150595Y304133D01*
X150657Y304169D01*
X150730Y304209D01*
X150803Y304260D01*
X150879Y304318D01*
X150956Y304380D01*
X150959Y304384D01*
X150963Y304387D01*
X150974Y304398D01*
X150989Y304409D01*
X151021Y304446D01*
X151065Y304489D01*
X151109Y304540D01*
X151156Y304598D01*
X151196Y304657D01*
X151232Y304719D01*
X151433D01*
Y302189D01*
D02*
G37*
G36*
X175684Y114341D02*
X176787Y112845D01*
X176346D01*
X175451Y114116D01*
X175040Y113719D01*
Y112845D01*
X174705D01*
Y115364D01*
X175040D01*
Y114112D01*
X176285Y115364D01*
X176740D01*
X175684Y114341D01*
D02*
G37*
G36*
X48953Y100202D02*
X50324D01*
Y99619D01*
X48953D01*
Y98248D01*
X48377D01*
Y99619D01*
X46992D01*
Y100202D01*
X48377D01*
Y101573D01*
X48953D01*
Y100202D01*
D02*
G37*
G36*
X89801Y64785D02*
X89808Y64778D01*
X89812Y64763D01*
X89823Y64745D01*
X89834Y64723D01*
X89848Y64698D01*
X89885Y64636D01*
X89925Y64563D01*
X89976Y64490D01*
X90034Y64414D01*
X90096Y64337D01*
X90099Y64334D01*
X90103Y64330D01*
X90114Y64319D01*
X90125Y64305D01*
X90161Y64272D01*
X90205Y64228D01*
X90256Y64185D01*
X90314Y64137D01*
X90372Y64097D01*
X90434Y64061D01*
Y63861D01*
X87904D01*
Y64170D01*
X89874D01*
X89870Y64174D01*
X89855Y64192D01*
X89834Y64214D01*
X89808Y64250D01*
X89775Y64290D01*
X89739Y64341D01*
X89699Y64399D01*
X89659Y64465D01*
Y64468D01*
X89655Y64472D01*
X89641Y64494D01*
X89622Y64530D01*
X89601Y64574D01*
X89575Y64625D01*
X89550Y64680D01*
X89524Y64734D01*
X89502Y64789D01*
X89801D01*
Y64785D01*
D02*
G37*
G36*
X116083Y69052D02*
X116096D01*
X116110Y69050D01*
X116145Y69043D01*
X116183Y69034D01*
X116223Y69019D01*
X116263Y68997D01*
X116283Y68985D01*
X116302Y68970D01*
X116303Y68968D01*
X116305Y68966D01*
X116311Y68961D01*
X116316Y68955D01*
X116325Y68946D01*
X116332Y68935D01*
X116352Y68910D01*
X116373Y68877D01*
X116391Y68837D01*
X116407Y68792D01*
X116418Y68741D01*
X116263Y68728D01*
Y68730D01*
X116261Y68732D01*
X116260Y68743D01*
X116254Y68759D01*
X116247Y68779D01*
X116240Y68801D01*
X116229Y68823D01*
X116216Y68843D01*
X116203Y68859D01*
X116200Y68863D01*
X116192Y68870D01*
X116180Y68881D01*
X116161Y68894D01*
X116138Y68905D01*
X116112Y68915D01*
X116081Y68923D01*
X116049Y68926D01*
X116036D01*
X116021Y68924D01*
X116005Y68921D01*
X115983Y68915D01*
X115961Y68908D01*
X115939Y68899D01*
X115918Y68884D01*
X115914Y68883D01*
X115905Y68875D01*
X115892Y68863D01*
X115876Y68844D01*
X115857Y68823D01*
X115837Y68797D01*
X115819Y68764D01*
X115801Y68728D01*
Y68726D01*
X115799Y68722D01*
X115797Y68717D01*
X115794Y68710D01*
X115792Y68699D01*
X115788Y68686D01*
X115785Y68672D01*
X115781Y68653D01*
X115776Y68633D01*
X115772Y68612D01*
X115768Y68588D01*
X115766Y68562D01*
X115763Y68533D01*
X115761Y68504D01*
X115759Y68471D01*
Y68439D01*
X115761Y68440D01*
X115768Y68451D01*
X115781Y68466D01*
X115797Y68484D01*
X115816Y68506D01*
X115839Y68526D01*
X115865Y68546D01*
X115894Y68564D01*
X115896D01*
X115898Y68566D01*
X115908Y68571D01*
X115925Y68577D01*
X115947Y68586D01*
X115972Y68593D01*
X116001Y68599D01*
X116032Y68604D01*
X116065Y68606D01*
X116079D01*
X116090Y68604D01*
X116105Y68602D01*
X116120Y68600D01*
X116138Y68597D01*
X116156Y68591D01*
X116198Y68579D01*
X116220Y68570D01*
X116241Y68557D01*
X116263Y68544D01*
X116287Y68529D01*
X116309Y68511D01*
X116329Y68491D01*
X116331Y68489D01*
X116334Y68486D01*
X116340Y68480D01*
X116345Y68471D01*
X116354Y68459D01*
X116363Y68446D01*
X116373Y68429D01*
X116383Y68411D01*
X116394Y68391D01*
X116403Y68369D01*
X116412Y68344D01*
X116422Y68318D01*
X116427Y68291D01*
X116432Y68260D01*
X116436Y68229D01*
X116438Y68196D01*
Y68195D01*
Y68191D01*
Y68186D01*
Y68177D01*
X116436Y68165D01*
Y68155D01*
X116431Y68125D01*
X116425Y68091D01*
X116416Y68054D01*
X116403Y68015D01*
X116385Y67976D01*
Y67975D01*
X116383Y67973D01*
X116380Y67967D01*
X116376Y67960D01*
X116365Y67942D01*
X116349Y67918D01*
X116329Y67893D01*
X116305Y67867D01*
X116276Y67842D01*
X116245Y67820D01*
X116243D01*
X116241Y67818D01*
X116236Y67814D01*
X116229Y67813D01*
X116210Y67803D01*
X116187Y67794D01*
X116156Y67783D01*
X116121Y67776D01*
X116083Y67769D01*
X116041Y67767D01*
X116032D01*
X116023Y67769D01*
X116008D01*
X115992Y67771D01*
X115974Y67774D01*
X115952Y67780D01*
X115930Y67785D01*
X115905Y67792D01*
X115879Y67801D01*
X115854Y67813D01*
X115826Y67827D01*
X115801Y67843D01*
X115776Y67862D01*
X115750Y67883D01*
X115726Y67909D01*
X115725Y67911D01*
X115721Y67916D01*
X115716Y67923D01*
X115708Y67936D01*
X115697Y67953D01*
X115688Y67971D01*
X115677Y67994D01*
X115666Y68020D01*
X115654Y68051D01*
X115643Y68085D01*
X115634Y68124D01*
X115624Y68165D01*
X115615Y68213D01*
X115610Y68264D01*
X115606Y68318D01*
X115604Y68377D01*
Y68379D01*
Y68380D01*
Y68386D01*
Y68393D01*
X115606Y68411D01*
Y68437D01*
X115608Y68466D01*
X115612Y68500D01*
X115615Y68539D01*
X115621Y68581D01*
X115628Y68622D01*
X115637Y68668D01*
X115648Y68712D01*
X115661Y68755D01*
X115677Y68797D01*
X115695Y68837D01*
X115716Y68875D01*
X115739Y68908D01*
X115741Y68910D01*
X115745Y68914D01*
X115752Y68921D01*
X115761Y68932D01*
X115772Y68943D01*
X115786Y68954D01*
X115805Y68968D01*
X115823Y68981D01*
X115845Y68994D01*
X115868Y69008D01*
X115896Y69019D01*
X115923Y69032D01*
X115954Y69041D01*
X115987Y69048D01*
X116021Y69052D01*
X116058Y69054D01*
X116072D01*
X116083Y69052D01*
D02*
G37*
G36*
X117241Y68233D02*
X117412D01*
Y68091D01*
X117241D01*
Y67789D01*
X117086D01*
Y68091D01*
X116538D01*
Y68233D01*
X117115Y69048D01*
X117241D01*
Y68233D01*
D02*
G37*
G36*
X117153Y106452D02*
X117162D01*
X117175Y106450D01*
X117206Y106445D01*
X117241Y106437D01*
X117279Y106425D01*
X117317Y106408D01*
X117355Y106386D01*
X117357D01*
X117359Y106383D01*
X117364Y106379D01*
X117372Y106374D01*
X117390Y106359D01*
X117413Y106339D01*
X117437Y106312D01*
X117464Y106279D01*
X117488Y106241D01*
X117510Y106197D01*
Y106195D01*
X117512Y106192D01*
X117515Y106184D01*
X117519Y106175D01*
X117523Y106163D01*
X117528Y106146D01*
X117532Y106128D01*
X117537Y106108D01*
X117543Y106084D01*
X117548Y106057D01*
X117552Y106028D01*
X117555Y105997D01*
X117559Y105962D01*
X117563Y105926D01*
X117564Y105886D01*
Y105844D01*
Y105842D01*
Y105833D01*
Y105820D01*
Y105804D01*
X117563Y105784D01*
Y105760D01*
X117561Y105733D01*
X117557Y105706D01*
X117552Y105644D01*
X117543Y105578D01*
X117530Y105516D01*
X117521Y105485D01*
X117512Y105458D01*
Y105456D01*
X117510Y105453D01*
X117506Y105445D01*
X117503Y105435D01*
X117497Y105424D01*
X117490Y105409D01*
X117472Y105378D01*
X117450Y105343D01*
X117424Y105307D01*
X117392Y105272D01*
X117355Y105242D01*
X117353D01*
X117350Y105238D01*
X117344Y105234D01*
X117337Y105231D01*
X117326Y105225D01*
X117315Y105218D01*
X117301Y105211D01*
X117286Y105205D01*
X117251Y105191D01*
X117210Y105178D01*
X117164Y105171D01*
X117113Y105167D01*
X117099D01*
X117089Y105169D01*
X117077D01*
X117062Y105171D01*
X117028Y105178D01*
X116989Y105187D01*
X116949Y105201D01*
X116909Y105222D01*
X116889Y105234D01*
X116871Y105249D01*
X116869Y105251D01*
X116867Y105253D01*
X116862Y105258D01*
X116857Y105263D01*
X116849Y105272D01*
X116840Y105283D01*
X116822Y105309D01*
X116804Y105342D01*
X116786Y105382D01*
X116771Y105427D01*
X116760Y105480D01*
X116909Y105493D01*
Y105491D01*
X116911Y105487D01*
Y105484D01*
X116913Y105476D01*
X116918Y105456D01*
X116926Y105435D01*
X116935Y105409D01*
X116947Y105384D01*
X116962Y105360D01*
X116980Y105340D01*
X116982Y105338D01*
X116989Y105333D01*
X117002Y105325D01*
X117017Y105318D01*
X117037Y105309D01*
X117060Y105302D01*
X117088Y105296D01*
X117117Y105294D01*
X117130D01*
X117142Y105296D01*
X117159Y105298D01*
X117179Y105302D01*
X117199Y105307D01*
X117220Y105314D01*
X117241Y105325D01*
X117242Y105327D01*
X117250Y105331D01*
X117261Y105338D01*
X117271Y105349D01*
X117286Y105362D01*
X117301Y105376D01*
X117315Y105393D01*
X117330Y105413D01*
X117332Y105414D01*
X117335Y105424D01*
X117342Y105436D01*
X117350Y105453D01*
X117359Y105474D01*
X117368Y105500D01*
X117377Y105529D01*
X117386Y105562D01*
Y105564D01*
X117388Y105566D01*
Y105571D01*
X117390Y105578D01*
X117393Y105596D01*
X117399Y105620D01*
X117403Y105649D01*
X117406Y105680D01*
X117408Y105715D01*
X117410Y105751D01*
Y105753D01*
Y105759D01*
Y105768D01*
Y105782D01*
X117408Y105779D01*
X117401Y105769D01*
X117390Y105757D01*
X117377Y105738D01*
X117359Y105720D01*
X117337Y105700D01*
X117312Y105680D01*
X117282Y105662D01*
X117279Y105660D01*
X117268Y105655D01*
X117251Y105648D01*
X117231Y105640D01*
X117204Y105631D01*
X117175Y105624D01*
X117142Y105618D01*
X117108Y105616D01*
X117093D01*
X117082Y105618D01*
X117068Y105620D01*
X117053Y105622D01*
X117035Y105626D01*
X117017Y105631D01*
X116975Y105644D01*
X116953Y105653D01*
X116931Y105664D01*
X116908Y105677D01*
X116886Y105693D01*
X116864Y105709D01*
X116844Y105729D01*
X116842Y105731D01*
X116838Y105735D01*
X116835Y105740D01*
X116827Y105749D01*
X116818Y105762D01*
X116809Y105775D01*
X116800Y105791D01*
X116791Y105809D01*
X116780Y105829D01*
X116771Y105851D01*
X116762Y105877D01*
X116753Y105902D01*
X116745Y105931D01*
X116742Y105962D01*
X116738Y105993D01*
X116736Y106028D01*
Y106030D01*
Y106037D01*
Y106046D01*
X116738Y106059D01*
X116740Y106075D01*
X116742Y106095D01*
X116745Y106115D01*
X116751Y106139D01*
X116764Y106186D01*
X116773Y106212D01*
X116784Y106239D01*
X116796Y106264D01*
X116813Y106288D01*
X116829Y106314D01*
X116849Y106335D01*
X116851Y106337D01*
X116855Y106341D01*
X116860Y106346D01*
X116869Y106354D01*
X116880Y106363D01*
X116895Y106374D01*
X116909Y106383D01*
X116928Y106395D01*
X116946Y106406D01*
X116967Y106415D01*
X117017Y106436D01*
X117042Y106443D01*
X117071Y106448D01*
X117100Y106452D01*
X117131Y106454D01*
X117144D01*
X117153Y106452D01*
D02*
G37*
G36*
X116407Y105633D02*
X116578D01*
Y105491D01*
X116407D01*
Y105189D01*
X116252D01*
Y105491D01*
X115704D01*
Y105633D01*
X116281Y106448D01*
X116407D01*
Y105633D01*
D02*
G37*
G36*
X121107Y109933D02*
X121278D01*
Y109791D01*
X121107D01*
Y109489D01*
X120952D01*
Y109791D01*
X120404D01*
Y109933D01*
X120981Y110748D01*
X121107D01*
Y109933D01*
D02*
G37*
G36*
X121873Y110752D02*
X121888Y110750D01*
X121904Y110748D01*
X121922Y110746D01*
X121941Y110741D01*
X121984Y110730D01*
X122028Y110714D01*
X122050Y110703D01*
X122072Y110690D01*
X122092Y110674D01*
X122112Y110657D01*
X122113Y110655D01*
X122115Y110654D01*
X122121Y110648D01*
X122128Y110641D01*
X122135Y110630D01*
X122144Y110619D01*
X122163Y110592D01*
X122181Y110557D01*
X122197Y110517D01*
X122210Y110472D01*
X122212Y110448D01*
X122213Y110423D01*
Y110421D01*
Y110419D01*
Y110408D01*
X122212Y110391D01*
X122208Y110371D01*
X122203Y110346D01*
X122194Y110321D01*
X122183Y110295D01*
X122166Y110270D01*
X122164Y110266D01*
X122157Y110259D01*
X122146Y110248D01*
X122132Y110233D01*
X122112Y110217D01*
X122088Y110200D01*
X122061Y110184D01*
X122028Y110169D01*
X122030D01*
X122033Y110168D01*
X122039Y110166D01*
X122046Y110162D01*
X122068Y110153D01*
X122093Y110140D01*
X122121Y110122D01*
X122150Y110102D01*
X122177Y110077D01*
X122203Y110048D01*
Y110046D01*
X122204Y110044D01*
X122212Y110033D01*
X122223Y110015D01*
X122233Y109991D01*
X122245Y109962D01*
X122255Y109927D01*
X122263Y109889D01*
X122265Y109847D01*
Y109845D01*
Y109840D01*
Y109831D01*
X122263Y109820D01*
X122261Y109807D01*
X122259Y109791D01*
X122255Y109773D01*
X122250Y109753D01*
X122237Y109711D01*
X122228Y109687D01*
X122215Y109665D01*
X122203Y109642D01*
X122188Y109620D01*
X122170Y109598D01*
X122150Y109576D01*
X122148Y109574D01*
X122144Y109571D01*
X122139Y109565D01*
X122130Y109560D01*
X122117Y109551D01*
X122104Y109542D01*
X122088Y109532D01*
X122070Y109522D01*
X122050Y109511D01*
X122026Y109502D01*
X122001Y109493D01*
X121975Y109483D01*
X121946Y109478D01*
X121915Y109472D01*
X121884Y109469D01*
X121850Y109467D01*
X121831D01*
X121819Y109469D01*
X121802Y109471D01*
X121784Y109472D01*
X121764Y109476D01*
X121742Y109482D01*
X121693Y109494D01*
X121668Y109503D01*
X121644Y109512D01*
X121618Y109525D01*
X121593Y109540D01*
X121569Y109556D01*
X121547Y109576D01*
X121546Y109578D01*
X121542Y109582D01*
X121537Y109587D01*
X121529Y109596D01*
X121522Y109607D01*
X121511Y109620D01*
X121502Y109634D01*
X121491Y109653D01*
X121480Y109671D01*
X121471Y109693D01*
X121453Y109738D01*
X121446Y109766D01*
X121440Y109793D01*
X121436Y109822D01*
X121435Y109851D01*
Y109853D01*
Y109856D01*
Y109864D01*
X121436Y109871D01*
Y109882D01*
X121438Y109895D01*
X121442Y109924D01*
X121449Y109957D01*
X121460Y109989D01*
X121476Y110024D01*
X121496Y110057D01*
Y110058D01*
X121500Y110060D01*
X121507Y110069D01*
X121522Y110084D01*
X121542Y110102D01*
X121567Y110120D01*
X121598Y110140D01*
X121633Y110157D01*
X121675Y110169D01*
X121673D01*
X121671Y110171D01*
X121666Y110173D01*
X121658Y110177D01*
X121642Y110184D01*
X121620Y110195D01*
X121597Y110210D01*
X121573Y110228D01*
X121551Y110248D01*
X121531Y110270D01*
X121529Y110273D01*
X121524Y110281D01*
X121517Y110295D01*
X121509Y110313D01*
X121500Y110337D01*
X121493Y110364D01*
X121487Y110395D01*
X121485Y110428D01*
Y110430D01*
Y110433D01*
Y110441D01*
X121487Y110452D01*
X121489Y110462D01*
X121491Y110477D01*
X121498Y110508D01*
X121509Y110544D01*
X121527Y110583D01*
X121538Y110603D01*
X121551Y110623D01*
X121567Y110641D01*
X121584Y110659D01*
X121586Y110661D01*
X121589Y110663D01*
X121595Y110668D01*
X121602Y110674D01*
X121611Y110681D01*
X121624Y110688D01*
X121638Y110697D01*
X121653Y110706D01*
X121671Y110715D01*
X121691Y110725D01*
X121713Y110732D01*
X121737Y110739D01*
X121788Y110750D01*
X121817Y110752D01*
X121846Y110754D01*
X121862D01*
X121873Y110752D01*
D02*
G37*
G36*
X157615Y110552D02*
X157639Y110548D01*
X157668Y110543D01*
X157701Y110534D01*
X157733Y110523D01*
X157766Y110508D01*
X157768D01*
X157770Y110506D01*
X157781Y110501D01*
X157797Y110490D01*
X157815Y110477D01*
X157837Y110459D01*
X157859Y110439D01*
X157881Y110415D01*
X157899Y110388D01*
X157901Y110384D01*
X157906Y110375D01*
X157913Y110359D01*
X157922Y110339D01*
X157932Y110315D01*
X157939Y110288D01*
X157944Y110257D01*
X157946Y110226D01*
Y110222D01*
Y110212D01*
X157944Y110197D01*
X157941Y110177D01*
X157935Y110153D01*
X157926Y110128D01*
X157915Y110102D01*
X157901Y110077D01*
X157899Y110073D01*
X157893Y110066D01*
X157882Y110053D01*
X157868Y110039D01*
X157850Y110022D01*
X157828Y110004D01*
X157802Y109988D01*
X157772Y109971D01*
X157773D01*
X157777Y109969D01*
X157782Y109968D01*
X157790Y109966D01*
X157810Y109959D01*
X157835Y109948D01*
X157864Y109933D01*
X157893Y109915D01*
X157921Y109891D01*
X157946Y109864D01*
X157948Y109860D01*
X157955Y109849D01*
X157966Y109831D01*
X157977Y109808D01*
X157988Y109778D01*
X157999Y109744D01*
X158006Y109704D01*
X158008Y109660D01*
Y109658D01*
Y109653D01*
Y109644D01*
X158006Y109633D01*
X158004Y109618D01*
X158001Y109602D01*
X157997Y109584D01*
X157993Y109564D01*
X157979Y109520D01*
X157968Y109496D01*
X157957Y109475D01*
X157942Y109451D01*
X157926Y109427D01*
X157908Y109404D01*
X157886Y109382D01*
X157884Y109380D01*
X157881Y109376D01*
X157873Y109371D01*
X157864Y109363D01*
X157853Y109354D01*
X157839Y109345D01*
X157822Y109334D01*
X157802Y109325D01*
X157782Y109314D01*
X157759Y109303D01*
X157735Y109294D01*
X157708Y109285D01*
X157679Y109278D01*
X157648Y109272D01*
X157617Y109269D01*
X157582Y109267D01*
X157566D01*
X157555Y109269D01*
X157540Y109271D01*
X157524Y109272D01*
X157506Y109276D01*
X157486Y109280D01*
X157442Y109291D01*
X157396Y109309D01*
X157373Y109320D01*
X157351Y109333D01*
X157329Y109349D01*
X157307Y109365D01*
X157306Y109367D01*
X157302Y109371D01*
X157296Y109376D01*
X157291Y109383D01*
X157282Y109393D01*
X157273Y109405D01*
X157262Y109418D01*
X157251Y109434D01*
X157240Y109453D01*
X157229Y109471D01*
X157209Y109514D01*
X157193Y109565D01*
X157187Y109593D01*
X157184Y109622D01*
X157338Y109642D01*
Y109640D01*
X157340Y109636D01*
X157342Y109629D01*
X157344Y109620D01*
X157346Y109609D01*
X157349Y109596D01*
X157358Y109569D01*
X157371Y109536D01*
X157387Y109505D01*
X157406Y109476D01*
X157428Y109451D01*
X157431Y109449D01*
X157438Y109442D01*
X157453Y109433D01*
X157471Y109423D01*
X157493Y109413D01*
X157520Y109404D01*
X157551Y109396D01*
X157584Y109394D01*
X157595D01*
X157602Y109396D01*
X157622Y109398D01*
X157648Y109404D01*
X157677Y109413D01*
X157708Y109425D01*
X157739Y109443D01*
X157768Y109469D01*
X157772Y109473D01*
X157781Y109484D01*
X157791Y109500D01*
X157806Y109522D01*
X157821Y109549D01*
X157832Y109580D01*
X157841Y109616D01*
X157844Y109656D01*
Y109658D01*
Y109662D01*
Y109667D01*
X157842Y109675D01*
X157841Y109695D01*
X157835Y109718D01*
X157828Y109748D01*
X157815Y109777D01*
X157797Y109806D01*
X157773Y109833D01*
X157770Y109837D01*
X157761Y109844D01*
X157746Y109855D01*
X157726Y109868D01*
X157701Y109880D01*
X157669Y109891D01*
X157635Y109898D01*
X157597Y109902D01*
X157580D01*
X157568Y109900D01*
X157551Y109898D01*
X157533Y109895D01*
X157511Y109891D01*
X157487Y109886D01*
X157506Y110022D01*
X157515D01*
X157522Y110020D01*
X157546D01*
X157566Y110024D01*
X157589Y110028D01*
X157617Y110033D01*
X157648Y110042D01*
X157677Y110055D01*
X157708Y110071D01*
X157710D01*
X157711Y110073D01*
X157720Y110081D01*
X157733Y110093D01*
X157748Y110110D01*
X157762Y110133D01*
X157775Y110161D01*
X157784Y110192D01*
X157788Y110210D01*
Y110230D01*
Y110232D01*
Y110233D01*
Y110244D01*
X157784Y110259D01*
X157781Y110279D01*
X157773Y110301D01*
X157764Y110324D01*
X157750Y110348D01*
X157730Y110370D01*
X157728Y110372D01*
X157719Y110379D01*
X157706Y110388D01*
X157690Y110399D01*
X157668Y110408D01*
X157642Y110417D01*
X157613Y110424D01*
X157580Y110426D01*
X157566D01*
X157549Y110423D01*
X157528Y110419D01*
X157504Y110412D01*
X157480Y110403D01*
X157455Y110388D01*
X157431Y110370D01*
X157429Y110368D01*
X157422Y110359D01*
X157411Y110346D01*
X157398Y110328D01*
X157386Y110304D01*
X157373Y110275D01*
X157362Y110241D01*
X157355Y110201D01*
X157200Y110228D01*
Y110230D01*
X157202Y110235D01*
X157204Y110242D01*
X157205Y110253D01*
X157209Y110266D01*
X157214Y110281D01*
X157226Y110315D01*
X157244Y110355D01*
X157265Y110395D01*
X157293Y110434D01*
X157327Y110468D01*
X157329Y110470D01*
X157333Y110472D01*
X157338Y110476D01*
X157346Y110481D01*
X157355Y110488D01*
X157367Y110495D01*
X157380Y110503D01*
X157396Y110512D01*
X157433Y110526D01*
X157475Y110541D01*
X157524Y110550D01*
X157549Y110554D01*
X157595D01*
X157615Y110552D01*
D02*
G37*
G36*
X156636D02*
X156659Y110548D01*
X156689Y110543D01*
X156721Y110534D01*
X156754Y110523D01*
X156787Y110508D01*
X156789D01*
X156790Y110506D01*
X156801Y110501D01*
X156818Y110490D01*
X156836Y110477D01*
X156858Y110459D01*
X156880Y110439D01*
X156902Y110415D01*
X156920Y110388D01*
X156922Y110384D01*
X156927Y110375D01*
X156934Y110359D01*
X156943Y110339D01*
X156953Y110315D01*
X156960Y110288D01*
X156965Y110257D01*
X156967Y110226D01*
Y110222D01*
Y110212D01*
X156965Y110197D01*
X156962Y110177D01*
X156956Y110153D01*
X156947Y110128D01*
X156936Y110102D01*
X156922Y110077D01*
X156920Y110073D01*
X156914Y110066D01*
X156903Y110053D01*
X156889Y110039D01*
X156871Y110022D01*
X156849Y110004D01*
X156823Y109988D01*
X156792Y109971D01*
X156794D01*
X156798Y109969D01*
X156803Y109968D01*
X156810Y109966D01*
X156831Y109959D01*
X156856Y109948D01*
X156885Y109933D01*
X156914Y109915D01*
X156941Y109891D01*
X156967Y109864D01*
X156969Y109860D01*
X156976Y109849D01*
X156987Y109831D01*
X156998Y109808D01*
X157009Y109778D01*
X157020Y109744D01*
X157027Y109704D01*
X157029Y109660D01*
Y109658D01*
Y109653D01*
Y109644D01*
X157027Y109633D01*
X157025Y109618D01*
X157022Y109602D01*
X157018Y109584D01*
X157014Y109564D01*
X157000Y109520D01*
X156989Y109496D01*
X156978Y109475D01*
X156963Y109451D01*
X156947Y109427D01*
X156929Y109404D01*
X156907Y109382D01*
X156905Y109380D01*
X156902Y109376D01*
X156894Y109371D01*
X156885Y109363D01*
X156874Y109354D01*
X156860Y109345D01*
X156843Y109334D01*
X156823Y109325D01*
X156803Y109314D01*
X156780Y109303D01*
X156756Y109294D01*
X156729Y109285D01*
X156700Y109278D01*
X156668Y109272D01*
X156638Y109269D01*
X156603Y109267D01*
X156587D01*
X156576Y109269D01*
X156561Y109271D01*
X156545Y109272D01*
X156527Y109276D01*
X156507Y109280D01*
X156463Y109291D01*
X156417Y109309D01*
X156394Y109320D01*
X156372Y109333D01*
X156350Y109349D01*
X156328Y109365D01*
X156326Y109367D01*
X156323Y109371D01*
X156317Y109376D01*
X156312Y109383D01*
X156303Y109393D01*
X156294Y109405D01*
X156283Y109418D01*
X156272Y109434D01*
X156261Y109453D01*
X156250Y109471D01*
X156230Y109514D01*
X156213Y109565D01*
X156208Y109593D01*
X156204Y109622D01*
X156359Y109642D01*
Y109640D01*
X156361Y109636D01*
X156363Y109629D01*
X156365Y109620D01*
X156366Y109609D01*
X156370Y109596D01*
X156379Y109569D01*
X156392Y109536D01*
X156408Y109505D01*
X156427Y109476D01*
X156448Y109451D01*
X156452Y109449D01*
X156459Y109442D01*
X156474Y109433D01*
X156492Y109423D01*
X156514Y109413D01*
X156541Y109404D01*
X156572Y109396D01*
X156605Y109394D01*
X156616D01*
X156623Y109396D01*
X156643Y109398D01*
X156668Y109404D01*
X156698Y109413D01*
X156729Y109425D01*
X156760Y109443D01*
X156789Y109469D01*
X156792Y109473D01*
X156801Y109484D01*
X156812Y109500D01*
X156827Y109522D01*
X156841Y109549D01*
X156852Y109580D01*
X156861Y109616D01*
X156865Y109656D01*
Y109658D01*
Y109662D01*
Y109667D01*
X156863Y109675D01*
X156861Y109695D01*
X156856Y109718D01*
X156849Y109748D01*
X156836Y109777D01*
X156818Y109806D01*
X156794Y109833D01*
X156790Y109837D01*
X156781Y109844D01*
X156767Y109855D01*
X156747Y109868D01*
X156721Y109880D01*
X156690Y109891D01*
X156656Y109898D01*
X156618Y109902D01*
X156601D01*
X156588Y109900D01*
X156572Y109898D01*
X156554Y109895D01*
X156532Y109891D01*
X156508Y109886D01*
X156527Y110022D01*
X156536D01*
X156543Y110020D01*
X156567D01*
X156587Y110024D01*
X156610Y110028D01*
X156638Y110033D01*
X156668Y110042D01*
X156698Y110055D01*
X156729Y110071D01*
X156730D01*
X156732Y110073D01*
X156741Y110081D01*
X156754Y110093D01*
X156769Y110110D01*
X156783Y110133D01*
X156796Y110161D01*
X156805Y110192D01*
X156809Y110210D01*
Y110230D01*
Y110232D01*
Y110233D01*
Y110244D01*
X156805Y110259D01*
X156801Y110279D01*
X156794Y110301D01*
X156785Y110324D01*
X156771Y110348D01*
X156750Y110370D01*
X156749Y110372D01*
X156739Y110379D01*
X156727Y110388D01*
X156710Y110399D01*
X156689Y110408D01*
X156663Y110417D01*
X156634Y110424D01*
X156601Y110426D01*
X156587D01*
X156570Y110423D01*
X156548Y110419D01*
X156525Y110412D01*
X156501Y110403D01*
X156476Y110388D01*
X156452Y110370D01*
X156450Y110368D01*
X156443Y110359D01*
X156432Y110346D01*
X156419Y110328D01*
X156406Y110304D01*
X156394Y110275D01*
X156383Y110241D01*
X156376Y110201D01*
X156221Y110228D01*
Y110230D01*
X156223Y110235D01*
X156225Y110242D01*
X156226Y110253D01*
X156230Y110266D01*
X156235Y110281D01*
X156246Y110315D01*
X156264Y110355D01*
X156286Y110395D01*
X156314Y110434D01*
X156348Y110468D01*
X156350Y110470D01*
X156354Y110472D01*
X156359Y110476D01*
X156366Y110481D01*
X156376Y110488D01*
X156388Y110495D01*
X156401Y110503D01*
X156417Y110512D01*
X156454Y110526D01*
X156496Y110541D01*
X156545Y110550D01*
X156570Y110554D01*
X156616D01*
X156636Y110552D01*
D02*
G37*
G36*
X160336Y108152D02*
X160359Y108148D01*
X160389Y108143D01*
X160421Y108134D01*
X160454Y108123D01*
X160487Y108108D01*
X160489D01*
X160491Y108106D01*
X160501Y108101D01*
X160518Y108090D01*
X160536Y108077D01*
X160558Y108059D01*
X160580Y108039D01*
X160601Y108015D01*
X160620Y107988D01*
X160622Y107984D01*
X160627Y107975D01*
X160634Y107959D01*
X160643Y107939D01*
X160652Y107915D01*
X160660Y107888D01*
X160665Y107857D01*
X160667Y107826D01*
Y107823D01*
Y107812D01*
X160665Y107797D01*
X160662Y107777D01*
X160656Y107753D01*
X160647Y107728D01*
X160636Y107702D01*
X160622Y107677D01*
X160620Y107673D01*
X160614Y107666D01*
X160603Y107653D01*
X160589Y107639D01*
X160571Y107622D01*
X160549Y107604D01*
X160523Y107588D01*
X160492Y107571D01*
X160494D01*
X160498Y107570D01*
X160503Y107568D01*
X160511Y107566D01*
X160530Y107559D01*
X160556Y107548D01*
X160585Y107533D01*
X160614Y107515D01*
X160642Y107491D01*
X160667Y107464D01*
X160669Y107460D01*
X160676Y107449D01*
X160687Y107431D01*
X160698Y107407D01*
X160709Y107378D01*
X160720Y107344D01*
X160727Y107304D01*
X160729Y107260D01*
Y107258D01*
Y107253D01*
Y107244D01*
X160727Y107233D01*
X160725Y107218D01*
X160722Y107202D01*
X160718Y107184D01*
X160714Y107164D01*
X160700Y107120D01*
X160689Y107096D01*
X160678Y107074D01*
X160663Y107051D01*
X160647Y107027D01*
X160629Y107003D01*
X160607Y106982D01*
X160605Y106980D01*
X160601Y106976D01*
X160594Y106971D01*
X160585Y106963D01*
X160574Y106954D01*
X160560Y106945D01*
X160543Y106934D01*
X160523Y106925D01*
X160503Y106914D01*
X160480Y106903D01*
X160456Y106894D01*
X160429Y106885D01*
X160399Y106878D01*
X160369Y106872D01*
X160338Y106869D01*
X160303Y106867D01*
X160287D01*
X160276Y106869D01*
X160261Y106871D01*
X160245Y106872D01*
X160227Y106876D01*
X160207Y106880D01*
X160163Y106891D01*
X160117Y106909D01*
X160094Y106920D01*
X160072Y106932D01*
X160050Y106949D01*
X160028Y106965D01*
X160026Y106967D01*
X160023Y106971D01*
X160017Y106976D01*
X160012Y106983D01*
X160003Y106993D01*
X159994Y107005D01*
X159983Y107018D01*
X159972Y107034D01*
X159961Y107053D01*
X159950Y107071D01*
X159930Y107115D01*
X159914Y107166D01*
X159908Y107193D01*
X159904Y107222D01*
X160059Y107242D01*
Y107240D01*
X160061Y107236D01*
X160063Y107229D01*
X160065Y107220D01*
X160066Y107209D01*
X160070Y107196D01*
X160079Y107169D01*
X160092Y107136D01*
X160108Y107105D01*
X160126Y107076D01*
X160148Y107051D01*
X160152Y107049D01*
X160159Y107042D01*
X160174Y107033D01*
X160192Y107024D01*
X160214Y107013D01*
X160241Y107003D01*
X160272Y106996D01*
X160305Y106994D01*
X160316D01*
X160323Y106996D01*
X160343Y106998D01*
X160369Y107003D01*
X160398Y107013D01*
X160429Y107025D01*
X160459Y107044D01*
X160489Y107069D01*
X160492Y107073D01*
X160501Y107083D01*
X160512Y107100D01*
X160527Y107122D01*
X160541Y107149D01*
X160552Y107180D01*
X160562Y107216D01*
X160565Y107256D01*
Y107258D01*
Y107262D01*
Y107267D01*
X160563Y107275D01*
X160562Y107295D01*
X160556Y107318D01*
X160549Y107348D01*
X160536Y107377D01*
X160518Y107406D01*
X160494Y107433D01*
X160491Y107437D01*
X160481Y107444D01*
X160467Y107455D01*
X160447Y107468D01*
X160421Y107480D01*
X160390Y107491D01*
X160356Y107499D01*
X160318Y107502D01*
X160301D01*
X160289Y107500D01*
X160272Y107499D01*
X160254Y107495D01*
X160232Y107491D01*
X160208Y107486D01*
X160227Y107622D01*
X160236D01*
X160243Y107621D01*
X160267D01*
X160287Y107624D01*
X160310Y107628D01*
X160338Y107633D01*
X160369Y107642D01*
X160398Y107655D01*
X160429Y107671D01*
X160430D01*
X160432Y107673D01*
X160441Y107680D01*
X160454Y107693D01*
X160469Y107710D01*
X160483Y107733D01*
X160496Y107761D01*
X160505Y107791D01*
X160509Y107810D01*
Y107830D01*
Y107832D01*
Y107833D01*
Y107844D01*
X160505Y107859D01*
X160501Y107879D01*
X160494Y107901D01*
X160485Y107924D01*
X160470Y107948D01*
X160450Y107970D01*
X160449Y107972D01*
X160440Y107979D01*
X160427Y107988D01*
X160410Y107999D01*
X160389Y108008D01*
X160363Y108017D01*
X160334Y108025D01*
X160301Y108026D01*
X160287D01*
X160270Y108023D01*
X160248Y108019D01*
X160225Y108012D01*
X160201Y108003D01*
X160176Y107988D01*
X160152Y107970D01*
X160150Y107968D01*
X160143Y107959D01*
X160132Y107946D01*
X160119Y107928D01*
X160107Y107904D01*
X160094Y107875D01*
X160083Y107841D01*
X160075Y107801D01*
X159921Y107828D01*
Y107830D01*
X159923Y107835D01*
X159924Y107843D01*
X159926Y107853D01*
X159930Y107866D01*
X159935Y107881D01*
X159946Y107915D01*
X159965Y107955D01*
X159986Y107995D01*
X160014Y108034D01*
X160048Y108068D01*
X160050Y108070D01*
X160054Y108072D01*
X160059Y108075D01*
X160066Y108081D01*
X160075Y108088D01*
X160088Y108096D01*
X160101Y108103D01*
X160117Y108112D01*
X160154Y108126D01*
X160196Y108141D01*
X160245Y108150D01*
X160270Y108154D01*
X160316D01*
X160336Y108152D01*
D02*
G37*
G36*
X161329D02*
X161344Y108150D01*
X161362Y108148D01*
X161382Y108145D01*
X161402Y108141D01*
X161450Y108128D01*
X161497Y108110D01*
X161521Y108099D01*
X161544Y108086D01*
X161566Y108070D01*
X161586Y108052D01*
X161588Y108050D01*
X161592Y108048D01*
X161595Y108041D01*
X161602Y108034D01*
X161612Y108025D01*
X161621Y108012D01*
X161630Y107999D01*
X161641Y107983D01*
X161659Y107948D01*
X161677Y107904D01*
X161684Y107882D01*
X161688Y107857D01*
X161692Y107832D01*
X161694Y107804D01*
Y107801D01*
Y107791D01*
X161692Y107777D01*
X161690Y107757D01*
X161686Y107735D01*
X161679Y107710D01*
X161672Y107682D01*
X161661Y107655D01*
X161659Y107651D01*
X161655Y107642D01*
X161648Y107628D01*
X161637Y107608D01*
X161623Y107586D01*
X161604Y107559D01*
X161583Y107531D01*
X161557Y107500D01*
X161553Y107497D01*
X161544Y107486D01*
X161535Y107477D01*
X161526Y107468D01*
X161515Y107457D01*
X161501Y107442D01*
X161486Y107428D01*
X161468Y107411D01*
X161450Y107393D01*
X161428Y107373D01*
X161404Y107353D01*
X161379Y107329D01*
X161349Y107306D01*
X161320Y107280D01*
X161319Y107278D01*
X161315Y107275D01*
X161308Y107269D01*
X161299Y107262D01*
X161288Y107251D01*
X161275Y107240D01*
X161246Y107216D01*
X161215Y107189D01*
X161186Y107162D01*
X161160Y107138D01*
X161149Y107129D01*
X161140Y107120D01*
X161138Y107118D01*
X161133Y107113D01*
X161126Y107105D01*
X161117Y107095D01*
X161108Y107082D01*
X161097Y107069D01*
X161075Y107038D01*
X161695D01*
Y106889D01*
X160860D01*
Y106891D01*
Y106898D01*
Y106909D01*
X160862Y106923D01*
X160864Y106940D01*
X160867Y106958D01*
X160871Y106976D01*
X160878Y106996D01*
Y106998D01*
X160880Y107000D01*
X160884Y107011D01*
X160891Y107027D01*
X160902Y107049D01*
X160916Y107074D01*
X160935Y107104D01*
X160955Y107133D01*
X160980Y107164D01*
Y107166D01*
X160984Y107167D01*
X160993Y107178D01*
X161009Y107195D01*
X161033Y107218D01*
X161060Y107246D01*
X161095Y107278D01*
X161137Y107315D01*
X161182Y107353D01*
X161184Y107355D01*
X161191Y107360D01*
X161202Y107369D01*
X161215Y107380D01*
X161231Y107395D01*
X161251Y107411D01*
X161271Y107429D01*
X161295Y107449D01*
X161340Y107493D01*
X161386Y107537D01*
X161408Y107559D01*
X161428Y107580D01*
X161446Y107600D01*
X161460Y107621D01*
Y107622D01*
X161464Y107624D01*
X161468Y107630D01*
X161471Y107637D01*
X161484Y107657D01*
X161499Y107680D01*
X161512Y107710D01*
X161524Y107741D01*
X161531Y107775D01*
X161535Y107808D01*
Y107810D01*
Y107812D01*
X161533Y107823D01*
X161531Y107841D01*
X161526Y107861D01*
X161519Y107886D01*
X161506Y107912D01*
X161490Y107937D01*
X161468Y107963D01*
X161464Y107966D01*
X161455Y107974D01*
X161442Y107983D01*
X161422Y107995D01*
X161397Y108006D01*
X161368Y108017D01*
X161333Y108025D01*
X161295Y108026D01*
X161284D01*
X161277Y108025D01*
X161255Y108023D01*
X161229Y108017D01*
X161202Y108010D01*
X161171Y107997D01*
X161142Y107981D01*
X161115Y107959D01*
X161111Y107955D01*
X161104Y107946D01*
X161093Y107932D01*
X161082Y107910D01*
X161069Y107884D01*
X161058Y107852D01*
X161051Y107815D01*
X161047Y107773D01*
X160889Y107790D01*
Y107791D01*
X160891Y107797D01*
Y107806D01*
X160893Y107819D01*
X160896Y107833D01*
X160900Y107850D01*
X160905Y107870D01*
X160911Y107890D01*
X160925Y107933D01*
X160947Y107977D01*
X160960Y107999D01*
X160976Y108021D01*
X160993Y108041D01*
X161011Y108059D01*
X161013Y108061D01*
X161016Y108063D01*
X161022Y108068D01*
X161031Y108074D01*
X161042Y108081D01*
X161055Y108088D01*
X161069Y108097D01*
X161087Y108106D01*
X161108Y108115D01*
X161129Y108125D01*
X161153Y108132D01*
X161178Y108139D01*
X161206Y108145D01*
X161235Y108150D01*
X161266Y108152D01*
X161299Y108154D01*
X161317D01*
X161329Y108152D01*
D02*
G37*
G36*
X161592Y69110D02*
X161590Y69108D01*
X161586Y69104D01*
X161579Y69097D01*
X161572Y69086D01*
X161561Y69073D01*
X161546Y69059D01*
X161531Y69041D01*
X161515Y69019D01*
X161499Y68997D01*
X161479Y68972D01*
X161459Y68942D01*
X161439Y68913D01*
X161417Y68881D01*
X161395Y68846D01*
X161373Y68808D01*
X161351Y68770D01*
X161349Y68768D01*
X161346Y68761D01*
X161340Y68750D01*
X161331Y68733D01*
X161322Y68713D01*
X161311Y68691D01*
X161299Y68666D01*
X161286Y68637D01*
X161271Y68604D01*
X161255Y68571D01*
X161240Y68535D01*
X161226Y68497D01*
X161197Y68418D01*
X161169Y68335D01*
Y68333D01*
X161168Y68327D01*
X161166Y68318D01*
X161162Y68307D01*
X161158Y68293D01*
X161155Y68274D01*
X161149Y68255D01*
X161146Y68233D01*
X161140Y68207D01*
X161135Y68180D01*
X161126Y68122D01*
X161117Y68058D01*
X161111Y67989D01*
X160953D01*
Y67991D01*
Y67996D01*
Y68003D01*
X160955Y68014D01*
Y68029D01*
X160956Y68047D01*
X160958Y68067D01*
X160960Y68089D01*
X160964Y68114D01*
X160967Y68140D01*
X160973Y68171D01*
X160978Y68202D01*
X160984Y68234D01*
X160991Y68271D01*
X161009Y68345D01*
Y68347D01*
X161011Y68355D01*
X161015Y68366D01*
X161020Y68382D01*
X161026Y68400D01*
X161033Y68422D01*
X161040Y68448D01*
X161051Y68475D01*
X161062Y68506D01*
X161073Y68537D01*
X161100Y68606D01*
X161133Y68679D01*
X161169Y68751D01*
X161171Y68753D01*
X161175Y68761D01*
X161180Y68770D01*
X161188Y68784D01*
X161197Y68800D01*
X161209Y68821D01*
X161222Y68842D01*
X161237Y68866D01*
X161271Y68919D01*
X161308Y68973D01*
X161349Y69030D01*
X161393Y69083D01*
X160776D01*
Y69232D01*
X161592D01*
Y69110D01*
D02*
G37*
G36*
X160369Y67989D02*
X160214D01*
Y68973D01*
X160212Y68972D01*
X160203Y68964D01*
X160192Y68953D01*
X160174Y68941D01*
X160154Y68924D01*
X160128Y68906D01*
X160099Y68886D01*
X160066Y68866D01*
X160065D01*
X160063Y68864D01*
X160052Y68857D01*
X160034Y68848D01*
X160012Y68837D01*
X159986Y68824D01*
X159959Y68812D01*
X159932Y68799D01*
X159904Y68788D01*
Y68937D01*
X159906D01*
X159910Y68941D01*
X159917Y68942D01*
X159926Y68948D01*
X159937Y68953D01*
X159950Y68961D01*
X159981Y68979D01*
X160017Y68999D01*
X160054Y69024D01*
X160092Y69054D01*
X160130Y69085D01*
X160132Y69086D01*
X160134Y69088D01*
X160139Y69094D01*
X160146Y69099D01*
X160163Y69117D01*
X160185Y69139D01*
X160207Y69165D01*
X160230Y69194D01*
X160250Y69223D01*
X160268Y69254D01*
X160369D01*
Y67989D01*
D02*
G37*
G36*
X159037Y65552D02*
X159049D01*
X159064Y65550D01*
X159099Y65543D01*
X159137Y65534D01*
X159177Y65519D01*
X159217Y65497D01*
X159237Y65485D01*
X159255Y65470D01*
X159257Y65468D01*
X159259Y65466D01*
X159264Y65461D01*
X159270Y65455D01*
X159279Y65446D01*
X159286Y65435D01*
X159306Y65410D01*
X159326Y65377D01*
X159344Y65337D01*
X159361Y65292D01*
X159372Y65241D01*
X159217Y65228D01*
Y65230D01*
X159215Y65232D01*
X159213Y65242D01*
X159208Y65259D01*
X159201Y65279D01*
X159193Y65301D01*
X159182Y65323D01*
X159169Y65343D01*
X159157Y65359D01*
X159153Y65363D01*
X159146Y65370D01*
X159133Y65381D01*
X159115Y65394D01*
X159091Y65404D01*
X159066Y65415D01*
X159035Y65423D01*
X159002Y65426D01*
X158989D01*
X158975Y65425D01*
X158958Y65421D01*
X158937Y65415D01*
X158915Y65408D01*
X158893Y65399D01*
X158871Y65385D01*
X158867Y65383D01*
X158858Y65375D01*
X158846Y65363D01*
X158829Y65344D01*
X158811Y65323D01*
X158791Y65297D01*
X158773Y65264D01*
X158755Y65228D01*
Y65226D01*
X158753Y65223D01*
X158751Y65217D01*
X158747Y65210D01*
X158746Y65199D01*
X158742Y65186D01*
X158738Y65171D01*
X158735Y65153D01*
X158729Y65133D01*
X158726Y65112D01*
X158722Y65088D01*
X158720Y65062D01*
X158716Y65033D01*
X158714Y65004D01*
X158713Y64971D01*
Y64938D01*
X158714Y64940D01*
X158722Y64951D01*
X158735Y64966D01*
X158751Y64984D01*
X158769Y65006D01*
X158793Y65026D01*
X158818Y65046D01*
X158847Y65064D01*
X158849D01*
X158851Y65066D01*
X158862Y65071D01*
X158878Y65077D01*
X158900Y65086D01*
X158926Y65093D01*
X158955Y65099D01*
X158986Y65104D01*
X159019Y65106D01*
X159033D01*
X159044Y65104D01*
X159058Y65102D01*
X159073Y65101D01*
X159091Y65097D01*
X159109Y65091D01*
X159151Y65079D01*
X159173Y65070D01*
X159195Y65057D01*
X159217Y65044D01*
X159240Y65030D01*
X159262Y65011D01*
X159282Y64991D01*
X159284Y64990D01*
X159288Y64986D01*
X159293Y64980D01*
X159299Y64971D01*
X159308Y64959D01*
X159317Y64946D01*
X159326Y64929D01*
X159337Y64911D01*
X159348Y64891D01*
X159357Y64869D01*
X159366Y64844D01*
X159375Y64818D01*
X159381Y64791D01*
X159386Y64760D01*
X159390Y64729D01*
X159392Y64697D01*
Y64695D01*
Y64691D01*
Y64686D01*
Y64676D01*
X159390Y64666D01*
Y64655D01*
X159384Y64626D01*
X159379Y64591D01*
X159370Y64555D01*
X159357Y64514D01*
X159339Y64476D01*
Y64474D01*
X159337Y64473D01*
X159333Y64467D01*
X159330Y64460D01*
X159319Y64442D01*
X159302Y64418D01*
X159282Y64393D01*
X159259Y64367D01*
X159230Y64342D01*
X159199Y64320D01*
X159197D01*
X159195Y64318D01*
X159190Y64314D01*
X159182Y64312D01*
X159164Y64303D01*
X159140Y64294D01*
X159109Y64283D01*
X159075Y64276D01*
X159037Y64269D01*
X158995Y64267D01*
X158986D01*
X158977Y64269D01*
X158962D01*
X158946Y64271D01*
X158928Y64274D01*
X158906Y64280D01*
X158884Y64285D01*
X158858Y64292D01*
X158833Y64302D01*
X158807Y64312D01*
X158780Y64327D01*
X158755Y64343D01*
X158729Y64362D01*
X158704Y64384D01*
X158680Y64409D01*
X158678Y64411D01*
X158675Y64416D01*
X158669Y64424D01*
X158662Y64436D01*
X158651Y64453D01*
X158642Y64471D01*
X158631Y64495D01*
X158620Y64520D01*
X158607Y64551D01*
X158596Y64586D01*
X158587Y64624D01*
X158578Y64666D01*
X158569Y64713D01*
X158563Y64764D01*
X158560Y64818D01*
X158558Y64877D01*
Y64878D01*
Y64880D01*
Y64886D01*
Y64893D01*
X158560Y64911D01*
Y64937D01*
X158562Y64966D01*
X158565Y65000D01*
X158569Y65039D01*
X158574Y65080D01*
X158582Y65122D01*
X158591Y65168D01*
X158602Y65211D01*
X158614Y65255D01*
X158631Y65297D01*
X158649Y65337D01*
X158669Y65375D01*
X158693Y65408D01*
X158695Y65410D01*
X158698Y65414D01*
X158705Y65421D01*
X158714Y65432D01*
X158726Y65443D01*
X158740Y65454D01*
X158758Y65468D01*
X158776Y65481D01*
X158798Y65494D01*
X158822Y65508D01*
X158849Y65519D01*
X158877Y65532D01*
X158907Y65541D01*
X158940Y65548D01*
X158975Y65552D01*
X159011Y65554D01*
X159026D01*
X159037Y65552D01*
D02*
G37*
G36*
X158168Y64289D02*
X158014D01*
Y65273D01*
X158012Y65272D01*
X158003Y65264D01*
X157992Y65253D01*
X157974Y65241D01*
X157954Y65224D01*
X157928Y65206D01*
X157899Y65186D01*
X157866Y65166D01*
X157865D01*
X157863Y65164D01*
X157852Y65157D01*
X157834Y65148D01*
X157812Y65137D01*
X157786Y65124D01*
X157759Y65112D01*
X157732Y65099D01*
X157704Y65088D01*
Y65237D01*
X157706D01*
X157710Y65241D01*
X157717Y65242D01*
X157726Y65248D01*
X157737Y65253D01*
X157750Y65261D01*
X157781Y65279D01*
X157817Y65299D01*
X157854Y65324D01*
X157892Y65354D01*
X157930Y65385D01*
X157932Y65386D01*
X157934Y65388D01*
X157939Y65394D01*
X157947Y65399D01*
X157963Y65417D01*
X157985Y65439D01*
X158007Y65465D01*
X158030Y65494D01*
X158050Y65523D01*
X158068Y65554D01*
X158168D01*
Y64289D01*
D02*
G37*
G36*
X119269Y64789D02*
X119114D01*
Y65773D01*
X119112Y65772D01*
X119103Y65764D01*
X119092Y65753D01*
X119074Y65741D01*
X119054Y65724D01*
X119028Y65706D01*
X118999Y65686D01*
X118966Y65666D01*
X118965D01*
X118963Y65664D01*
X118952Y65657D01*
X118934Y65648D01*
X118912Y65637D01*
X118886Y65624D01*
X118859Y65611D01*
X118832Y65599D01*
X118804Y65588D01*
Y65737D01*
X118806D01*
X118810Y65741D01*
X118817Y65742D01*
X118826Y65748D01*
X118837Y65753D01*
X118850Y65761D01*
X118881Y65779D01*
X118917Y65799D01*
X118954Y65824D01*
X118992Y65854D01*
X119030Y65885D01*
X119032Y65886D01*
X119034Y65888D01*
X119039Y65894D01*
X119046Y65899D01*
X119063Y65917D01*
X119085Y65939D01*
X119107Y65965D01*
X119130Y65994D01*
X119150Y66023D01*
X119168Y66054D01*
X119269D01*
Y64789D01*
D02*
G37*
G36*
X189795Y208104D02*
X189797Y208106D01*
X189806Y208113D01*
X189817Y208124D01*
X189835Y208137D01*
X189855Y208153D01*
X189881Y208172D01*
X189910Y208192D01*
X189943Y208212D01*
X189944D01*
X189946Y208213D01*
X189957Y208221D01*
X189975Y208230D01*
X189997Y208241D01*
X190023Y208253D01*
X190050Y208266D01*
X190077Y208279D01*
X190104Y208290D01*
Y208141D01*
X190103D01*
X190099Y208137D01*
X190092Y208135D01*
X190083Y208130D01*
X190072Y208124D01*
X190059Y208117D01*
X190028Y208099D01*
X189992Y208079D01*
X189955Y208053D01*
X189917Y208024D01*
X189879Y207993D01*
X189877Y207991D01*
X189875Y207990D01*
X189870Y207984D01*
X189862Y207979D01*
X189846Y207960D01*
X189824Y207939D01*
X189802Y207913D01*
X189779Y207884D01*
X189759Y207855D01*
X189740Y207824D01*
X189640D01*
Y209089D01*
X189795D01*
Y208104D01*
D02*
G37*
G36*
X168711Y120944D02*
X167695Y120228D01*
X168013Y119899D01*
X168711D01*
Y119632D01*
X166697D01*
Y119899D01*
X167698D01*
X166697Y120895D01*
Y121258D01*
X167515Y120414D01*
X168711Y121296D01*
Y120944D01*
D02*
G37*
G36*
X102855Y86389D02*
X102638D01*
Y87768D01*
X102635Y87766D01*
X102623Y87756D01*
X102607Y87740D01*
X102582Y87722D01*
X102554Y87700D01*
X102518Y87674D01*
X102477Y87646D01*
X102431Y87618D01*
X102429D01*
X102426Y87615D01*
X102411Y87605D01*
X102385Y87592D01*
X102355Y87577D01*
X102319Y87559D01*
X102281Y87541D01*
X102243Y87524D01*
X102204Y87508D01*
Y87717D01*
X102207D01*
X102212Y87722D01*
X102222Y87725D01*
X102235Y87733D01*
X102250Y87740D01*
X102268Y87751D01*
X102312Y87776D01*
X102363Y87804D01*
X102413Y87840D01*
X102467Y87881D01*
X102521Y87924D01*
X102523Y87927D01*
X102526Y87929D01*
X102533Y87937D01*
X102544Y87944D01*
X102567Y87970D01*
X102597Y88000D01*
X102628Y88036D01*
X102661Y88077D01*
X102689Y88118D01*
X102714Y88161D01*
X102855D01*
Y86389D01*
D02*
G37*
G36*
X102969Y75289D02*
X102814D01*
Y76273D01*
X102812Y76272D01*
X102803Y76264D01*
X102792Y76253D01*
X102774Y76241D01*
X102754Y76224D01*
X102728Y76206D01*
X102699Y76186D01*
X102666Y76166D01*
X102665D01*
X102663Y76164D01*
X102652Y76157D01*
X102634Y76148D01*
X102612Y76137D01*
X102586Y76124D01*
X102559Y76112D01*
X102532Y76099D01*
X102504Y76088D01*
Y76237D01*
X102506D01*
X102510Y76241D01*
X102517Y76243D01*
X102526Y76248D01*
X102537Y76253D01*
X102550Y76261D01*
X102581Y76279D01*
X102617Y76299D01*
X102654Y76324D01*
X102692Y76354D01*
X102730Y76385D01*
X102732Y76386D01*
X102734Y76388D01*
X102739Y76394D01*
X102746Y76399D01*
X102763Y76417D01*
X102785Y76439D01*
X102807Y76464D01*
X102830Y76494D01*
X102850Y76523D01*
X102868Y76554D01*
X102969D01*
Y75289D01*
D02*
G37*
G36*
X102868Y144889D02*
X102714D01*
Y145873D01*
X102712Y145872D01*
X102703Y145864D01*
X102692Y145853D01*
X102674Y145841D01*
X102654Y145824D01*
X102628Y145806D01*
X102599Y145786D01*
X102566Y145766D01*
X102565D01*
X102563Y145764D01*
X102552Y145757D01*
X102534Y145748D01*
X102512Y145737D01*
X102486Y145724D01*
X102459Y145711D01*
X102432Y145699D01*
X102404Y145688D01*
Y145837D01*
X102406D01*
X102410Y145841D01*
X102417Y145843D01*
X102426Y145848D01*
X102437Y145853D01*
X102450Y145861D01*
X102481Y145879D01*
X102517Y145899D01*
X102554Y145924D01*
X102592Y145954D01*
X102630Y145984D01*
X102632Y145986D01*
X102634Y145988D01*
X102639Y145994D01*
X102647Y145999D01*
X102663Y146017D01*
X102685Y146039D01*
X102707Y146064D01*
X102730Y146094D01*
X102750Y146123D01*
X102768Y146154D01*
X102868D01*
Y144889D01*
D02*
G37*
G36*
X48746Y169184D02*
X50117D01*
Y168601D01*
X48746D01*
Y167231D01*
X48171D01*
Y168601D01*
X46786D01*
Y169184D01*
X48171D01*
Y170555D01*
X48746D01*
Y169184D01*
D02*
G37*
G36*
X125153Y220487D02*
X125156Y220483D01*
X125158Y220476D01*
X125164Y220467D01*
X125169Y220456D01*
X125176Y220443D01*
X125195Y220412D01*
X125215Y220376D01*
X125240Y220340D01*
X125269Y220301D01*
X125300Y220263D01*
X125302Y220261D01*
X125304Y220259D01*
X125309Y220254D01*
X125315Y220247D01*
X125333Y220230D01*
X125355Y220209D01*
X125380Y220187D01*
X125409Y220163D01*
X125438Y220143D01*
X125469Y220125D01*
Y220025D01*
X124204D01*
Y220179D01*
X125189D01*
X125187Y220181D01*
X125180Y220190D01*
X125169Y220201D01*
X125156Y220219D01*
X125140Y220239D01*
X125122Y220265D01*
X125102Y220294D01*
X125082Y220327D01*
Y220329D01*
X125080Y220331D01*
X125073Y220341D01*
X125064Y220360D01*
X125053Y220381D01*
X125040Y220407D01*
X125027Y220434D01*
X125014Y220462D01*
X125003Y220489D01*
X125153D01*
Y220487D01*
D02*
G37*
G36*
X122004Y225198D02*
X121020D01*
X121022Y225196D01*
X121029Y225187D01*
X121040Y225176D01*
X121053Y225158D01*
X121069Y225138D01*
X121087Y225113D01*
X121107Y225084D01*
X121127Y225051D01*
Y225049D01*
X121129Y225047D01*
X121136Y225036D01*
X121145Y225018D01*
X121156Y224996D01*
X121169Y224971D01*
X121182Y224943D01*
X121195Y224916D01*
X121205Y224889D01*
X121056D01*
Y224891D01*
X121053Y224894D01*
X121051Y224902D01*
X121045Y224911D01*
X121040Y224922D01*
X121033Y224934D01*
X121014Y224965D01*
X120994Y225002D01*
X120969Y225038D01*
X120940Y225076D01*
X120909Y225114D01*
X120907Y225116D01*
X120905Y225118D01*
X120900Y225124D01*
X120894Y225131D01*
X120876Y225147D01*
X120854Y225169D01*
X120829Y225191D01*
X120800Y225215D01*
X120771Y225235D01*
X120739Y225253D01*
Y225353D01*
X122004D01*
Y225198D01*
D02*
G37*
G36*
X48886Y238679D02*
X50257D01*
Y238095D01*
X48886D01*
Y236725D01*
X48310D01*
Y238095D01*
X46925D01*
Y238679D01*
X48310D01*
Y240049D01*
X48886D01*
Y238679D01*
D02*
G37*
G36*
X103068Y214089D02*
X102914D01*
Y215073D01*
X102912Y215072D01*
X102903Y215064D01*
X102892Y215053D01*
X102874Y215041D01*
X102854Y215024D01*
X102828Y215006D01*
X102799Y214986D01*
X102766Y214966D01*
X102765D01*
X102763Y214964D01*
X102752Y214957D01*
X102734Y214948D01*
X102712Y214937D01*
X102686Y214924D01*
X102659Y214912D01*
X102632Y214899D01*
X102604Y214888D01*
Y215037D01*
X102606D01*
X102610Y215041D01*
X102617Y215042D01*
X102626Y215048D01*
X102637Y215053D01*
X102650Y215061D01*
X102681Y215079D01*
X102717Y215099D01*
X102754Y215124D01*
X102792Y215154D01*
X102830Y215184D01*
X102832Y215186D01*
X102834Y215188D01*
X102839Y215194D01*
X102847Y215199D01*
X102863Y215217D01*
X102885Y215239D01*
X102907Y215265D01*
X102930Y215294D01*
X102950Y215323D01*
X102968Y215354D01*
X103068D01*
Y214089D01*
D02*
G37*
%LPC*%
G36*
X241919Y245860D02*
X241916D01*
X241909D01*
X241894D01*
X241876Y245856D01*
X241854D01*
X241828Y245853D01*
X241770Y245842D01*
X241705Y245827D01*
X241635Y245802D01*
X241570Y245765D01*
X241508Y245718D01*
X241501Y245711D01*
X241483Y245693D01*
X241461Y245663D01*
X241432Y245623D01*
X241403Y245572D01*
X241381Y245514D01*
X241363Y245445D01*
X241355Y245369D01*
Y245347D01*
X241359Y245332D01*
X241363Y245296D01*
X241373Y245245D01*
X241392Y245190D01*
X241421Y245128D01*
X241457Y245070D01*
X241508Y245012D01*
X241515Y245005D01*
X241533Y244990D01*
X241566Y244965D01*
X241614Y244939D01*
X241668Y244914D01*
X241737Y244888D01*
X241814Y244874D01*
X241901Y244866D01*
X241909D01*
X241927D01*
X241959Y244870D01*
X242000Y244874D01*
X242047Y244881D01*
X242098Y244896D01*
X242152Y244910D01*
X242207Y244932D01*
X242214Y244935D01*
X242232Y244946D01*
X242258Y244961D01*
X242291Y244983D01*
X242323Y245008D01*
X242364Y245041D01*
X242396Y245077D01*
X242429Y245121D01*
X242433Y245128D01*
X242440Y245143D01*
X242455Y245168D01*
X242465Y245201D01*
X242480Y245238D01*
X242495Y245281D01*
X242502Y245329D01*
X242505Y245380D01*
Y245398D01*
X242502Y245412D01*
X242498Y245449D01*
X242487Y245496D01*
X242465Y245547D01*
X242440Y245605D01*
X242400Y245663D01*
X242378Y245693D01*
X242349Y245718D01*
X242345D01*
X242342Y245725D01*
X242320Y245740D01*
X242283Y245762D01*
X242236Y245791D01*
X242174Y245816D01*
X242101Y245838D01*
X242018Y245853D01*
X241919Y245860D01*
D02*
G37*
G36*
X122667Y129701D02*
X122111Y128911D01*
X122667D01*
Y129701D01*
D02*
G37*
G36*
X158744Y129201D02*
X158188Y128411D01*
X158744D01*
Y129201D01*
D02*
G37*
G36*
X157372D02*
X156816Y128411D01*
X157372D01*
Y129201D01*
D02*
G37*
G36*
X116034Y68470D02*
X116023D01*
X116016Y68468D01*
X115998Y68466D01*
X115972Y68460D01*
X115945Y68451D01*
X115914Y68437D01*
X115885Y68419D01*
X115856Y68393D01*
X115852Y68389D01*
X115845Y68380D01*
X115832Y68364D01*
X115819Y68340D01*
X115806Y68313D01*
X115794Y68278D01*
X115786Y68240D01*
X115783Y68196D01*
Y68193D01*
Y68184D01*
X115785Y68167D01*
X115786Y68147D01*
X115790Y68124D01*
X115797Y68098D01*
X115805Y68071D01*
X115816Y68044D01*
X115817Y68040D01*
X115823Y68031D01*
X115830Y68018D01*
X115841Y68002D01*
X115854Y67985D01*
X115870Y67965D01*
X115888Y67949D01*
X115910Y67933D01*
X115914Y67931D01*
X115921Y67927D01*
X115934Y67920D01*
X115950Y67914D01*
X115968Y67907D01*
X115990Y67900D01*
X116014Y67896D01*
X116039Y67894D01*
X116049D01*
X116056Y67896D01*
X116074Y67898D01*
X116098Y67904D01*
X116123Y67914D01*
X116152Y67927D01*
X116181Y67947D01*
X116196Y67958D01*
X116209Y67973D01*
Y67975D01*
X116212Y67976D01*
X116220Y67987D01*
X116230Y68005D01*
X116245Y68029D01*
X116258Y68060D01*
X116269Y68096D01*
X116276Y68138D01*
X116280Y68187D01*
Y68189D01*
Y68193D01*
Y68200D01*
X116278Y68209D01*
Y68220D01*
X116276Y68233D01*
X116271Y68262D01*
X116263Y68295D01*
X116251Y68329D01*
X116232Y68362D01*
X116209Y68393D01*
X116205Y68397D01*
X116196Y68406D01*
X116181Y68417D01*
X116161Y68431D01*
X116136Y68446D01*
X116107Y68457D01*
X116072Y68466D01*
X116034Y68470D01*
D02*
G37*
G36*
X117086Y68797D02*
X116689Y68233D01*
X117086D01*
Y68797D01*
D02*
G37*
G36*
X117169Y106326D02*
X117140D01*
X117133Y106325D01*
X117113Y106323D01*
X117089Y106315D01*
X117060Y106306D01*
X117029Y106290D01*
X116999Y106270D01*
X116984Y106255D01*
X116969Y106241D01*
Y106239D01*
X116966Y106237D01*
X116962Y106232D01*
X116958Y106226D01*
X116946Y106208D01*
X116933Y106183D01*
X116918Y106152D01*
X116906Y106113D01*
X116898Y106070D01*
X116895Y106022D01*
Y106021D01*
Y106017D01*
Y106011D01*
X116896Y106002D01*
Y105991D01*
X116898Y105981D01*
X116904Y105953D01*
X116913Y105922D01*
X116924Y105889D01*
X116942Y105857D01*
X116966Y105828D01*
X116969Y105824D01*
X116978Y105817D01*
X116995Y105804D01*
X117015Y105791D01*
X117042Y105777D01*
X117073Y105764D01*
X117108Y105757D01*
X117146Y105753D01*
X117157D01*
X117164Y105755D01*
X117184Y105757D01*
X117208Y105762D01*
X117237Y105771D01*
X117266Y105784D01*
X117295Y105802D01*
X117322Y105828D01*
X117326Y105831D01*
X117333Y105842D01*
X117344Y105859D01*
X117359Y105882D01*
X117372Y105911D01*
X117383Y105946D01*
X117390Y105988D01*
X117393Y106035D01*
Y106037D01*
Y106041D01*
Y106048D01*
X117392Y106057D01*
Y106070D01*
X117390Y106082D01*
X117384Y106112D01*
X117377Y106146D01*
X117364Y106183D01*
X117346Y106217D01*
X117322Y106248D01*
Y106250D01*
X117319Y106252D01*
X117310Y106261D01*
X117295Y106273D01*
X117275Y106288D01*
X117250Y106301D01*
X117220Y106314D01*
X117188Y106323D01*
X117169Y106326D01*
D02*
G37*
G36*
X116252Y106197D02*
X115856Y105633D01*
X116252D01*
Y106197D01*
D02*
G37*
G36*
X120952Y110497D02*
X120555Y109933D01*
X120952D01*
Y110497D01*
D02*
G37*
G36*
X121850Y110626D02*
X121835D01*
X121819Y110623D01*
X121797Y110619D01*
X121773Y110612D01*
X121748Y110603D01*
X121724Y110588D01*
X121700Y110568D01*
X121698Y110566D01*
X121691Y110559D01*
X121682Y110546D01*
X121673Y110530D01*
X121662Y110510D01*
X121653Y110486D01*
X121646Y110461D01*
X121644Y110432D01*
Y110430D01*
Y110428D01*
X121646Y110417D01*
X121648Y110401D01*
X121651Y110381D01*
X121658Y110357D01*
X121668Y110333D01*
X121682Y110308D01*
X121700Y110286D01*
X121702Y110284D01*
X121711Y110277D01*
X121724Y110268D01*
X121740Y110259D01*
X121762Y110248D01*
X121788Y110239D01*
X121817Y110231D01*
X121850Y110230D01*
X121853D01*
X121864Y110231D01*
X121880Y110233D01*
X121902Y110237D01*
X121926Y110244D01*
X121950Y110253D01*
X121975Y110268D01*
X121997Y110286D01*
X121999Y110288D01*
X122006Y110297D01*
X122015Y110308D01*
X122026Y110324D01*
X122037Y110344D01*
X122046Y110368D01*
X122053Y110395D01*
X122055Y110424D01*
Y110426D01*
Y110428D01*
Y110439D01*
X122052Y110455D01*
X122048Y110475D01*
X122041Y110497D01*
X122030Y110521D01*
X122015Y110544D01*
X121995Y110568D01*
X121993Y110570D01*
X121984Y110577D01*
X121971Y110586D01*
X121955Y110597D01*
X121933Y110608D01*
X121910Y110617D01*
X121880Y110625D01*
X121850Y110626D01*
D02*
G37*
G36*
X121844Y110104D02*
X121833D01*
X121826Y110102D01*
X121806Y110100D01*
X121780Y110095D01*
X121751Y110086D01*
X121722Y110073D01*
X121691Y110055D01*
X121664Y110031D01*
X121660Y110028D01*
X121653Y110018D01*
X121642Y110002D01*
X121629Y109982D01*
X121615Y109955D01*
X121604Y109924D01*
X121597Y109889D01*
X121593Y109851D01*
Y109847D01*
Y109840D01*
X121595Y109827D01*
X121597Y109811D01*
X121600Y109791D01*
X121606Y109769D01*
X121613Y109747D01*
X121622Y109724D01*
X121624Y109722D01*
X121627Y109713D01*
X121635Y109702D01*
X121646Y109689D01*
X121658Y109673D01*
X121675Y109656D01*
X121693Y109642D01*
X121715Y109627D01*
X121719Y109625D01*
X121726Y109622D01*
X121739Y109616D01*
X121755Y109611D01*
X121775Y109605D01*
X121799Y109600D01*
X121824Y109596D01*
X121850Y109594D01*
X121860D01*
X121868Y109596D01*
X121890Y109598D01*
X121915Y109604D01*
X121944Y109613D01*
X121975Y109624D01*
X122004Y109642D01*
X122033Y109665D01*
X122037Y109669D01*
X122044Y109678D01*
X122057Y109695D01*
X122070Y109714D01*
X122082Y109740D01*
X122095Y109771D01*
X122102Y109807D01*
X122106Y109845D01*
Y109847D01*
Y109851D01*
Y109856D01*
X122104Y109864D01*
X122102Y109884D01*
X122097Y109911D01*
X122088Y109938D01*
X122075Y109969D01*
X122057Y110000D01*
X122031Y110029D01*
X122028Y110033D01*
X122019Y110040D01*
X122002Y110053D01*
X121981Y110068D01*
X121953Y110080D01*
X121921Y110093D01*
X121884Y110100D01*
X121844Y110104D01*
D02*
G37*
G36*
X158987Y64969D02*
X158977D01*
X158969Y64968D01*
X158951Y64966D01*
X158926Y64960D01*
X158898Y64951D01*
X158867Y64937D01*
X158838Y64919D01*
X158809Y64893D01*
X158806Y64889D01*
X158798Y64880D01*
X158785Y64864D01*
X158773Y64840D01*
X158760Y64813D01*
X158747Y64778D01*
X158740Y64740D01*
X158736Y64697D01*
Y64693D01*
Y64684D01*
X158738Y64667D01*
X158740Y64647D01*
X158744Y64624D01*
X158751Y64598D01*
X158758Y64571D01*
X158769Y64544D01*
X158771Y64540D01*
X158776Y64531D01*
X158784Y64518D01*
X158795Y64502D01*
X158807Y64485D01*
X158824Y64465D01*
X158842Y64449D01*
X158864Y64433D01*
X158867Y64431D01*
X158875Y64427D01*
X158887Y64420D01*
X158904Y64414D01*
X158922Y64407D01*
X158944Y64400D01*
X158967Y64396D01*
X158993Y64394D01*
X159002D01*
X159009Y64396D01*
X159028Y64398D01*
X159051Y64403D01*
X159077Y64414D01*
X159106Y64427D01*
X159135Y64447D01*
X159150Y64458D01*
X159162Y64473D01*
Y64474D01*
X159166Y64476D01*
X159173Y64487D01*
X159184Y64505D01*
X159199Y64529D01*
X159211Y64560D01*
X159222Y64596D01*
X159230Y64638D01*
X159233Y64687D01*
Y64689D01*
Y64693D01*
Y64700D01*
X159231Y64709D01*
Y64720D01*
X159230Y64733D01*
X159224Y64762D01*
X159217Y64795D01*
X159204Y64829D01*
X159186Y64862D01*
X159162Y64893D01*
X159159Y64897D01*
X159150Y64906D01*
X159135Y64917D01*
X159115Y64931D01*
X159090Y64946D01*
X159060Y64957D01*
X159026Y64966D01*
X158987Y64969D01*
D02*
G37*
%LPD*%
D10*
X417402Y175916D02*
X417500Y176015D01*
X0Y369767D02*
X330709D01*
Y-311D02*
Y369767D01*
D11*
X166546Y114710D02*
Y118648D01*
Y114710D02*
X168908D01*
Y118648D01*
X166546D02*
X168908D01*
D13*
X322854Y39026D02*
G03*
X322854Y39026I-7894J0D01*
G01*
X23642D02*
G03*
X23642Y39026I-7894J0D01*
G01*
Y330365D02*
G03*
X23642Y330365I-7894J0D01*
G01*
X69337Y332640D02*
G03*
X59337Y322640I0J-10000D01*
G01*
X130544Y332640D02*
G03*
X130544Y340514I0J3937D01*
G01*
X158130D02*
G03*
X158130Y332640I0J-3937D01*
G01*
X31501Y243643D02*
G03*
X39375Y243643I3937J0D01*
G01*
Y216057D02*
G03*
X31501Y216057I-3937J0D01*
G01*
X39375Y146837D02*
G03*
X31501Y146837I-3937J0D01*
G01*
Y174423D02*
G03*
X39375Y174423I3937J0D01*
G01*
Y77617D02*
G03*
X31501Y77617I-3937J0D01*
G01*
Y105203D02*
G03*
X39375Y105203I3937J0D01*
G01*
X301229Y189965D02*
G03*
X293355Y189965I-3937J0D01*
G01*
Y217550D02*
G03*
X301229Y217550I3937J0D01*
G01*
Y102560D02*
G03*
X293355Y102560I-3937J0D01*
G01*
Y130145D02*
G03*
X301229Y130145I3937J0D01*
G01*
X176885Y39059D02*
G03*
X176885Y31185I0J-3937D01*
G01*
X149299D02*
G03*
X149299Y39059I0J3937D01*
G01*
X322859Y330398D02*
G03*
X322859Y330398I-7894J0D01*
G01*
X23646D02*
G03*
X23646Y330398I-7894J0D01*
G01*
X293355Y247055D02*
G03*
X287355Y253055I-6000J0D01*
G01*
Y67055D02*
G03*
X293355Y73055I0J6000D01*
G01*
X215337Y67055D02*
G03*
X215093Y67045I0J-3000D01*
G01*
X42375Y253055D02*
G03*
X39375Y250055I0J-3000D01*
G01*
Y209645D02*
G03*
X42375Y206645I3000J0D01*
G01*
X59337Y298140D02*
G03*
X69337Y288140I10000J0D01*
G01*
X111837D02*
G03*
X114837Y291140I0J3000D01*
G01*
X173837Y296140D02*
G03*
X170837Y296140I-1500J0D01*
G01*
X173837Y291140D02*
G03*
X176837Y288140I3000J-0D01*
G01*
X229337Y322640D02*
G03*
X219337Y332640I-10000J0D01*
G01*
X117837Y296140D02*
G03*
X114837Y296140I-1500J0D01*
G01*
X69337Y332640D02*
G03*
X59337Y322640I0J-10000D01*
G01*
X219337Y288140D02*
G03*
X229337Y298140I-0J10000D01*
G01*
X98337Y46055D02*
G03*
X92337Y46055I-3000J0D01*
G01*
X86799Y39362D02*
G03*
X92337Y43055I1539J3692D01*
G01*
X68694Y62439D02*
G03*
X86799Y39362I29643J4615D01*
G01*
X72646Y67055D02*
G03*
X68694Y62439I0J-4000D01*
G01*
X78337Y67055D02*
G03*
X81328Y69825I0J3000D01*
G01*
D02*
G03*
X78337Y72595I-2991J-230D01*
G01*
X170837Y249118D02*
G03*
X173837Y249118I1500J0D01*
G01*
X214932Y67027D02*
G03*
X214921Y61084I405J-2973D01*
G01*
X81337Y134425D02*
G03*
X78337Y137425I-3000J0D01*
G01*
Y183835D02*
G03*
X81337Y186835I0J3000D01*
G01*
X78337Y114615D02*
G03*
X81337Y117615I0J3000D01*
G01*
Y203645D02*
G03*
X78337Y206645I-3000J0D01*
G01*
X200347Y39059D02*
G03*
X201887Y39367I0J4000D01*
G01*
X121837Y43059D02*
G03*
X125837Y39059I4000J0D01*
G01*
X218062Y55595D02*
G03*
X214921Y61084I-3697J1528D01*
G01*
X201887Y39367D02*
G03*
X218062Y55595I-11550J27688D01*
G01*
X121837Y46055D02*
G03*
X115837Y46055I-3000J0D01*
G01*
X114837Y249118D02*
G03*
X117837Y249118I1500J0D01*
G01*
X66809Y72595D02*
G03*
X64854Y70855I0J-1969D01*
G01*
X61875Y68205D02*
G03*
X64854Y70855I0J3000D01*
G01*
X39375Y71205D02*
G03*
X42375Y68205I3000J0D01*
G01*
Y114615D02*
G03*
X39375Y111615I0J-3000D01*
G01*
X42375Y183835D02*
G03*
X39375Y180835I0J-3000D01*
G01*
Y140425D02*
G03*
X42375Y137425I3000J0D01*
G01*
X51463Y298140D02*
G03*
X69337Y280266I17874J0D01*
G01*
Y340514D02*
G03*
X51463Y322640I0J-17874D01*
G01*
X237211D02*
G03*
X219337Y340514I-17874J0D01*
G01*
Y280266D02*
G03*
X237211Y298140I-0J17874D01*
G01*
X42375Y260929D02*
G03*
X31501Y250055I0J-10874D01*
G01*
Y209645D02*
G03*
X42375Y198771I10874J0D01*
G01*
Y191709D02*
G03*
X31501Y180835I0J-10874D01*
G01*
Y140425D02*
G03*
X42375Y129551I10874J0D01*
G01*
Y122489D02*
G03*
X31501Y111615I0J-10874D01*
G01*
Y71205D02*
G03*
X42375Y60331I10874J0D01*
G01*
X61065D02*
G03*
X83770Y32094I37272J6724D01*
G01*
X83770Y32094D02*
G03*
X88650Y31185I4567J10961D01*
G01*
X202494Y31185D02*
G03*
X227384Y59181I-12157J35870D01*
G01*
X287355D02*
G03*
X301229Y73055I0J13874D01*
G01*
Y247055D02*
G03*
X287355Y260929I-13874J0D01*
G01*
X59337Y322640D02*
X59337D01*
X238236Y67055D02*
X287355D01*
X238236Y253055D02*
X287355D01*
X293355Y73055D02*
Y102570D01*
X215337Y67055D02*
X223132D01*
X215093Y253055D02*
X223132D01*
X78214Y72595D02*
X78227D01*
X78214Y114615D02*
X78227D01*
X78214Y137425D02*
X78227D01*
X78214Y183835D02*
X78227D01*
X78214Y206645D02*
X78227D01*
X78214Y253055D02*
X114837D01*
X117837Y251874D02*
Y252679D01*
X170837Y251874D02*
Y252679D01*
X173837Y253055D02*
X215093D01*
X214932Y67027D02*
X215093Y67045D01*
X70871Y114615D02*
X72649D01*
X70871Y72595D02*
X72649D01*
X170837Y292867D02*
Y292873D01*
X117837Y292867D02*
Y292873D01*
X170837Y284827D02*
Y292867D01*
X117837Y284827D02*
Y292867D01*
X72649Y72595D02*
X78214D01*
X72649Y114615D02*
X78214D01*
X70871Y137425D02*
X72649D01*
X70871Y183835D02*
X72649D01*
X70871Y253055D02*
X72649D01*
X70871Y206645D02*
X72649D01*
Y137425D02*
X78214D01*
X72649Y183835D02*
X78214D01*
X170837Y257368D02*
Y262504D01*
X117837Y257368D02*
Y262504D01*
X233133Y67055D02*
X238236D01*
X223132Y253055D02*
X238236D01*
X72649Y206645D02*
X78214D01*
X72649Y253055D02*
X78214D01*
X117837Y252679D02*
Y257368D01*
X170837Y252679D02*
Y257368D01*
Y267194D02*
Y284827D01*
X117837Y267194D02*
Y284827D01*
Y262504D02*
Y267194D01*
X170837Y262504D02*
Y267194D01*
X42375Y253055D02*
X70871D01*
X42375Y206645D02*
X70871D01*
X223132Y67055D02*
X233133D01*
X173837Y291140D02*
Y296140D01*
X170837Y292873D02*
Y296140D01*
X69337Y288140D02*
X111837D01*
X59337Y298140D02*
Y322640D01*
X114837Y291140D02*
Y296140D01*
X117837Y292873D02*
Y296140D01*
X69337Y332641D02*
X130553D01*
X229337Y298140D02*
Y322640D01*
X176837Y288140D02*
X219337D01*
X92337Y43055D02*
Y46055D01*
X72646Y67055D02*
X78337D01*
X78227Y72595D02*
X78337D01*
X78227Y114615D02*
X78337D01*
X170837Y249118D02*
Y251874D01*
X173837Y249118D02*
Y253055D01*
X115837Y44413D02*
Y46055D01*
X98337Y44413D02*
X115837D01*
X98337D02*
Y46055D01*
X78227Y206645D02*
X78337D01*
X78227Y253055D02*
X114837Y253055D01*
X81337Y117615D02*
Y134425D01*
X78227Y137425D02*
X78337D01*
X78227Y183835D02*
X78337D01*
X125837Y39059D02*
X149312D01*
X114837Y249118D02*
Y253055D01*
X81337Y186835D02*
Y203645D01*
X117837Y249118D02*
Y251874D01*
X121837Y43059D02*
Y46055D01*
X42375Y114615D02*
X70871D01*
X66809Y72595D02*
X70871D01*
X42375Y68205D02*
X61875D01*
X39375Y71205D02*
Y77617D01*
X42375Y183835D02*
X70871D01*
X42375Y137425D02*
X70871D01*
X39375Y140425D02*
Y146837D01*
X69337Y280266D02*
X109963D01*
X51463Y298140D02*
Y322640D01*
X69337Y340514D02*
X130544D01*
X237211Y298140D02*
Y322640D01*
X178711Y280266D02*
X219337D01*
X109963Y260929D02*
Y280266D01*
X178711Y260929D02*
Y280266D01*
X42375Y260929D02*
X109963D01*
X31501Y209645D02*
Y216064D01*
X42375Y198771D02*
X73463D01*
Y191709D02*
Y198771D01*
X42375Y191709D02*
X73463D01*
X31501Y140425D02*
Y146844D01*
X42375Y129551D02*
X73463D01*
Y122489D02*
Y129551D01*
X42375Y122489D02*
X73463D01*
X31501Y71205D02*
Y77624D01*
X42375Y60331D02*
X61065D01*
X88024Y31185D02*
X149299D01*
X227384Y59181D02*
X287355D01*
X301229Y73055D02*
Y102560D01*
X178711Y260929D02*
X287355D01*
X117837Y262504D02*
Y267194D01*
X293355Y217540D02*
Y247055D01*
Y130135D02*
Y189975D01*
X176872Y39059D02*
X200347D01*
X31501Y105196D02*
Y111615D01*
Y174416D02*
Y180835D01*
Y243636D02*
Y250055D01*
X158121Y332641D02*
X219337D01*
X39375Y174423D02*
Y180835D01*
Y243643D02*
Y250055D01*
Y105203D02*
Y111615D01*
X176885Y31185D02*
X202494D01*
X158130Y340514D02*
X219337D01*
X301229Y217550D02*
Y247055D01*
Y130145D02*
Y189965D01*
X39375Y209645D02*
Y216057D01*
D14*
X0Y-312D02*
X330709D01*
X0Y-311D02*
Y369768D01*
D15*
X215337Y67055D02*
G03*
X215093Y67045I0J-3000D01*
G01*
X218062Y55595D02*
G03*
X214921Y61084I-3697J1528D01*
G01*
X201887Y39367D02*
G03*
X218062Y55595I-11550J27688D01*
G01*
X200347Y39059D02*
G03*
X201887Y39367I0J4000D01*
G01*
X121837Y43059D02*
G03*
X125837Y39059I4000J0D01*
G01*
X121837Y46055D02*
G03*
X115837Y46055I-3000J0D01*
G01*
X98337D02*
G03*
X92337Y46055I-3000J0D01*
G01*
X86799Y39362D02*
G03*
X92337Y43055I1539J3692D01*
G01*
X68694Y62439D02*
G03*
X86799Y39362I29643J4615D01*
G01*
X72646Y67055D02*
G03*
X68694Y62439I0J-4000D01*
G01*
X78337Y67055D02*
G03*
X81328Y69825I0J3000D01*
G01*
D02*
G03*
X78337Y72595I-2991J-230D01*
G01*
Y114615D02*
G03*
X81337Y117615I0J3000D01*
G01*
Y134425D02*
G03*
X78337Y137425I-3000J0D01*
G01*
Y183835D02*
G03*
X81337Y186835I0J3000D01*
G01*
Y203645D02*
G03*
X78337Y206645I-3000J0D01*
G01*
X114837Y249118D02*
G03*
X117837Y249118I1500J0D01*
G01*
X170837D02*
G03*
X173837Y249118I1500J0D01*
G01*
X215093Y67045D02*
G03*
X214921Y61084I244J-2990D01*
G01*
X39375Y71205D02*
G03*
X42375Y68205I3000J0D01*
G01*
Y114615D02*
G03*
X39375Y111615I0J-3000D01*
G01*
X66809Y72595D02*
G03*
X64854Y70855I0J-1969D01*
G01*
X61875Y68205D02*
G03*
X64854Y70855I0J3000D01*
G01*
X117837Y296140D02*
G03*
X114837Y296140I-1500J0D01*
G01*
X111837Y288140D02*
G03*
X114837Y291140I0J3000D01*
G01*
X229337Y322640D02*
G03*
X219337Y332640I-10000J0D01*
G01*
X173837Y291140D02*
G03*
X176837Y288140I3000J0D01*
G01*
X173837Y296140D02*
G03*
X170837Y296140I-1500J0D01*
G01*
X59337Y298140D02*
G03*
X69337Y288140I10000J0D01*
G01*
Y332640D02*
G03*
X59337Y322640I0J-10000D01*
G01*
X219337Y288140D02*
G03*
X229337Y298140I0J10000D01*
G01*
X42375Y183835D02*
G03*
X39375Y180835I0J-3000D01*
G01*
Y140425D02*
G03*
X42375Y137425I3000J0D01*
G01*
X39375Y209645D02*
G03*
X42375Y206645I3000J0D01*
G01*
Y253055D02*
G03*
X39375Y250055I0J-3000D01*
G01*
X293355Y247055D02*
G03*
X287355Y253055I-6000J0D01*
G01*
Y67055D02*
G03*
X293355Y73055I0J6000D01*
G01*
X215337Y67055D02*
X223132D01*
X215093Y253055D02*
X223132D01*
X125837Y39059D02*
X200347D01*
X121837Y43059D02*
Y46055D01*
X115837Y44413D02*
Y46055D01*
X98337Y44413D02*
X115837D01*
X98337D02*
Y46055D01*
X92337Y43055D02*
Y46055D01*
X72646Y67055D02*
X78337D01*
X78214Y72595D02*
X78337D01*
X78214Y114615D02*
X78337D01*
X81337Y117615D02*
Y134425D01*
X78214Y137425D02*
X78337D01*
X78214Y183835D02*
X78337D01*
X81337Y186835D02*
Y203645D01*
X78214Y206645D02*
X78337D01*
X78214Y253055D02*
X114837D01*
Y249118D02*
Y253055D01*
X117837Y249118D02*
Y252679D01*
X170837Y249118D02*
Y252679D01*
X173837Y249118D02*
Y253055D01*
X215093D01*
X42375Y68205D02*
X61875D01*
X39375Y71205D02*
Y111615D01*
X42375Y114615D02*
X72649D01*
X66809Y72595D02*
X72649D01*
X114837Y291140D02*
Y296140D01*
X69337Y288140D02*
X111837D01*
X69337Y332640D02*
X219337D01*
X229337Y298140D02*
Y322640D01*
X173837Y291140D02*
Y296140D01*
X170837Y292867D02*
Y296140D01*
X59337Y298140D02*
Y322640D01*
X117837Y292867D02*
Y296140D01*
X176837Y288140D02*
X219337D01*
X42375Y183835D02*
X72649D01*
X39375Y140425D02*
Y180835D01*
X42375Y137425D02*
X72649D01*
X42375Y253055D02*
X72649D01*
X42375Y206645D02*
X72649D01*
Y137425D02*
X78214D01*
X72649Y183835D02*
X78214D01*
X170837Y252679D02*
Y257368D01*
X117837Y252679D02*
Y257368D01*
X72649Y206645D02*
X78214D01*
X72649Y253055D02*
X78214D01*
X72649Y72595D02*
X78214D01*
X72649Y114615D02*
X78214D01*
X170837Y257368D02*
Y262504D01*
X117837Y257368D02*
Y262504D01*
X170837Y284827D02*
Y292867D01*
X117837Y284827D02*
Y292867D01*
X170837Y267194D02*
Y284827D01*
X117837Y267194D02*
Y284827D01*
X293355Y73055D02*
Y247055D01*
X223132Y253055D02*
X287355D01*
X223132Y67055D02*
X287355D01*
X117837Y262504D02*
Y267194D01*
X170837Y262504D02*
Y267194D01*
X39375Y209645D02*
Y250055D01*
D16*
X37711Y68125D02*
G03*
X59365Y68125I10827J0D01*
G01*
Y113400D02*
G03*
X37711Y113400I-10827J0D01*
G01*
X59365Y182600D02*
G03*
X37711Y182600I-10827J0D01*
G01*
Y137325D02*
G03*
X59365Y137325I10827J0D01*
G01*
X37644Y206601D02*
G03*
X59298Y206601I10827J0D01*
G01*
Y251877D02*
G03*
X37644Y251877I-10827J0D01*
G01*
X59365Y68125D02*
Y113400D01*
X37711Y68125D02*
Y113400D01*
Y137325D02*
Y182600D01*
X59365Y137325D02*
Y182600D01*
X59298Y206601D02*
Y251877D01*
X37644Y206601D02*
Y251877D01*
D50*
X108574Y126029D02*
G03*
X108574Y123667I0J-1181D01*
G01*
X149518Y303589D02*
G03*
X150305Y302801I787J0D01*
G01*
X90463Y57959D02*
G03*
X90463Y56384I0J-787D01*
G01*
X185639Y207722D02*
G03*
X184065Y207722I-787J0D01*
G01*
X101782Y87250D02*
G03*
X100207Y85675I0J-1575D01*
G01*
X96368Y75127D02*
G03*
X95187Y75127I-591J0D01*
G01*
X206368Y245055D02*
G03*
X206368Y245055I-2362J0D01*
G01*
X96368Y144426D02*
G03*
X95187Y144426I-591J0D01*
G01*
X213730Y245055D02*
G03*
X213730Y245055I-2362J0D01*
G01*
X206368Y235055D02*
G03*
X206368Y235055I-2362J0D01*
G01*
X213835D02*
G03*
X213835Y235055I-2362J0D01*
G01*
X206368Y225055D02*
G03*
X206368Y225055I-2362J0D01*
G01*
X213835D02*
G03*
X213835Y225055I-2362J0D01*
G01*
X206368Y215055D02*
G03*
X206368Y215055I-2362J0D01*
G01*
X213746D02*
G03*
X213746Y215055I-2362J0D01*
G01*
X206368Y205055D02*
G03*
X206368Y205055I-2362J0D01*
G01*
X213746D02*
G03*
X213746Y205055I-2362J0D01*
G01*
X206368Y195055D02*
G03*
X206368Y195055I-2362J0D01*
G01*
X213746D02*
G03*
X213746Y195055I-2362J0D01*
G01*
X206368Y185055D02*
G03*
X206368Y185055I-2362J0D01*
G01*
X213746D02*
G03*
X213746Y185055I-2362J0D01*
G01*
X206368Y175055D02*
G03*
X206368Y175055I-2362J0D01*
G01*
X213746D02*
G03*
X213746Y175055I-2362J0D01*
G01*
X206368Y165055D02*
G03*
X206368Y165055I-2362J0D01*
G01*
X213933D02*
G03*
X213933Y165055I-2362J0D01*
G01*
Y155055D02*
G03*
X213933Y155055I-2362J0D01*
G01*
X206368Y85055D02*
G03*
X206368Y85055I-2362J0D01*
G01*
Y145055D02*
G03*
X206368Y145055I-2362J0D01*
G01*
X213933D02*
G03*
X213933Y145055I-2362J0D01*
G01*
X206368Y135055D02*
G03*
X206368Y135055I-2362J0D01*
G01*
X213933D02*
G03*
X213933Y135055I-2362J0D01*
G01*
X206368Y125055D02*
G03*
X206368Y125055I-2362J0D01*
G01*
X213933D02*
G03*
X213933Y125055I-2362J0D01*
G01*
X206368Y115055D02*
G03*
X206368Y115055I-2362J0D01*
G01*
X213933D02*
G03*
X213933Y115055I-2362J0D01*
G01*
X206368Y105055D02*
G03*
X206368Y105055I-2362J0D01*
G01*
X213933D02*
G03*
X213933Y105055I-2362J0D01*
G01*
X206368Y95055D02*
G03*
X206368Y95055I-2362J0D01*
G01*
X213933D02*
G03*
X213933Y95055I-2362J0D01*
G01*
X206368Y155055D02*
G03*
X206368Y155055I-2362J0D01*
G01*
X213933Y85055D02*
G03*
X213933Y85055I-2362J0D01*
G01*
X206368Y75055D02*
G03*
X206368Y75055I-2362J0D01*
G01*
X125861Y215792D02*
G03*
X125861Y214218I0J-787D01*
G01*
X120581Y229377D02*
G03*
X120581Y230951I0J787D01*
G01*
X96368Y213627D02*
G03*
X95187Y213627I-591J0D01*
G01*
X213933Y75055D02*
G03*
X213933Y75055I-2362J0D01*
G01*
X116447Y182525D02*
X122746D01*
Y185675D01*
X116447D02*
X122746D01*
X116447Y182525D02*
Y185675D01*
X113297Y181639D02*
Y186560D01*
X105423D02*
X113297D01*
X105423Y181639D02*
Y186560D01*
Y181639D02*
X113297D01*
X239006Y250055D02*
X259006D01*
X239006Y70055D02*
Y250055D01*
Y70055D02*
X259006D01*
Y250055D01*
X163199Y126817D02*
X163200Y126817D01*
X163199Y126817D02*
Y174061D01*
X115955D02*
X163199D01*
X115955Y126817D02*
Y174061D01*
Y126817D02*
X163200D01*
X108574Y115202D02*
Y123667D01*
Y126029D02*
Y134493D01*
X96763Y115202D02*
X108574D01*
X96763D02*
Y134493D01*
X108574D01*
X103317Y231443D02*
Y243254D01*
X93475Y231443D02*
X103317D01*
X93475D02*
Y243254D01*
X103317D01*
X157393Y304180D02*
X173141D01*
Y319928D01*
X157393D02*
X173141D01*
X157393Y304180D02*
Y319928D01*
X139951Y310674D02*
Y314611D01*
X137589Y310674D02*
X139951D01*
X137589D02*
Y314611D01*
X139951D01*
X140463Y295714D02*
X150305D01*
X140463D02*
Y303589D01*
X149518D01*
X150305Y295714D02*
Y302801D01*
X197451Y68547D02*
Y78390D01*
X184853D02*
X197451D01*
X184853Y68547D02*
Y78390D01*
Y68547D02*
X197451D01*
X193022Y110675D02*
Y117368D01*
X177865Y110675D02*
X193022D01*
X177865D02*
Y117368D01*
X193022D01*
X193022Y117368D01*
X170089Y150636D02*
X199617D01*
X170089Y121108D02*
Y150636D01*
Y121108D02*
X199617D01*
Y150636D01*
X62313Y96579D02*
Y109177D01*
X68613D01*
Y96579D02*
Y109177D01*
X62313Y96579D02*
X68613D01*
X78652Y63077D02*
X90463D01*
X78652Y51266D02*
Y63077D01*
Y51266D02*
X90463D01*
Y57959D02*
Y63077D01*
Y51266D02*
Y56384D01*
X172053Y196403D02*
X197250D01*
Y205458D01*
X172053D02*
X197250D01*
X172053Y196403D02*
Y205458D01*
X127865Y56421D02*
Y59571D01*
X121566Y56421D02*
X127865D01*
X121566D02*
Y59571D01*
X127865D01*
X114872Y63923D02*
X162115D01*
X162116Y63924D01*
Y111168D01*
X114872D02*
X162116D01*
X114872Y63924D02*
Y111168D01*
X189183Y207722D02*
Y215596D01*
X180522D02*
X189183D01*
X180522Y207722D02*
Y215596D01*
Y207722D02*
X184065D01*
X184065Y207722D01*
X185640Y207722D02*
X189183D01*
X185640Y207722D02*
X185640Y207722D01*
X179537Y71305D02*
Y76226D01*
X171663D02*
X179537D01*
X171663Y71305D02*
Y76226D01*
Y71305D02*
X179537D01*
X101782Y87250D02*
Y105360D01*
X89183D02*
X101782D01*
X89183Y85675D02*
Y105360D01*
Y85675D02*
X100207D01*
X77470Y319927D02*
Y323076D01*
X83770D01*
Y319927D02*
Y323076D01*
X77470Y319927D02*
X83770D01*
X96368Y75128D02*
X96369Y75127D01*
X101883D01*
Y84182D01*
X95187Y75127D02*
X95187Y75128D01*
X89671Y75127D02*
X95187D01*
X89671D02*
Y84182D01*
X101883D01*
X87117Y86265D02*
Y90202D01*
X85149Y86265D02*
X87117D01*
X85149D02*
Y90202D01*
X87117D01*
X173435Y243943D02*
X197057D01*
Y220321D02*
Y243943D01*
X173435Y220321D02*
X197057D01*
X173435D02*
Y243943D01*
X167228Y239945D02*
X169197D01*
Y243882D01*
X167228D02*
X169197D01*
X167228Y239945D02*
Y243882D01*
X177373Y322093D02*
X181310D01*
Y320124D02*
Y322093D01*
X177373Y320124D02*
X181310D01*
X177373D02*
Y322093D01*
X142985Y209592D02*
X146922D01*
X142985D02*
Y211560D01*
X146922D01*
Y209592D02*
Y211560D01*
X188840Y63662D02*
Y65631D01*
X184903D02*
X188840D01*
X184903Y63662D02*
Y65631D01*
Y63662D02*
X188840D01*
X177914D02*
X181851D01*
X177914D02*
Y65631D01*
X181851D01*
Y63662D02*
Y65631D01*
X170247Y65636D02*
X174184D01*
Y63668D02*
Y65636D01*
X170247Y63668D02*
X174184D01*
X170247D02*
Y65636D01*
X188840Y59430D02*
Y61399D01*
X184903D02*
X188840D01*
X184903Y59430D02*
Y61399D01*
Y59430D02*
X188840D01*
X177914D02*
X181851D01*
X177914D02*
Y61399D01*
X181851D01*
Y59430D02*
Y61399D01*
X170247Y61502D02*
X174184D01*
Y59534D02*
Y61502D01*
X170247Y59534D02*
X174184D01*
X170247D02*
Y61502D01*
X195483Y60025D02*
X198633D01*
X195483D02*
Y66324D01*
X198633D01*
Y60025D02*
Y66324D01*
X136132Y297683D02*
Y301620D01*
X138100D01*
Y297683D02*
Y301620D01*
X136132Y297683D02*
X138100D01*
X68022Y310675D02*
X71959D01*
X68022D02*
Y312643D01*
X71959D01*
Y310675D02*
Y312643D01*
X109911Y307959D02*
Y311896D01*
X111880D01*
Y307959D02*
Y311896D01*
X109911Y307959D02*
X111880D01*
X105188Y311895D02*
X107156D01*
X105188Y307958D02*
Y311895D01*
Y307958D02*
X107156D01*
Y311895D01*
X100462Y307959D02*
X102431D01*
Y311896D01*
X100462D02*
X102431D01*
X100462Y307959D02*
Y311896D01*
X97708Y307958D02*
Y311895D01*
X95739Y307958D02*
X97708D01*
X95739D02*
Y311895D01*
X97708D01*
X115730Y310676D02*
X118092D01*
Y314613D01*
X115730D02*
X118092D01*
X115730Y310676D02*
Y314613D01*
X126944Y320320D02*
Y324257D01*
X124975Y320320D02*
X126944D01*
X124975D02*
Y324257D01*
X126944D01*
X124974Y310676D02*
X126943D01*
Y314613D01*
X124974D02*
X126943D01*
X124974Y310676D02*
Y314613D01*
X150206Y310084D02*
X154143D01*
X150206D02*
Y312052D01*
X154143D01*
Y310084D02*
Y312052D01*
X145659Y310675D02*
Y314612D01*
X147628D01*
Y310675D02*
Y314612D01*
X145659Y310675D02*
X147628D01*
X141526Y314611D02*
X143888D01*
X141526Y310674D02*
Y314611D01*
Y310674D02*
X143888D01*
Y314611D01*
X154637Y297682D02*
Y301620D01*
X152668Y297682D02*
X154637D01*
X152668D02*
Y301620D01*
X154637D01*
X159557Y297584D02*
X163494D01*
X159557D02*
Y299552D01*
X163494D01*
Y297584D02*
Y299552D01*
X171301Y323471D02*
Y327408D01*
X173269D01*
Y323471D02*
Y327408D01*
X171301Y323471D02*
X173269D01*
X167431D02*
Y327408D01*
X169399D01*
Y323471D02*
Y327408D01*
X167431Y323471D02*
X169399D01*
X163494D02*
Y327408D01*
X165463D01*
Y323471D02*
Y327408D01*
X163494Y323471D02*
X165463D01*
X159853Y323568D02*
Y327505D01*
X157491Y323568D02*
X159853D01*
X157491D02*
Y327505D01*
X159853D01*
X153553D02*
X155916D01*
X153553Y323568D02*
Y327505D01*
Y323568D02*
X155916D01*
Y327505D01*
X151979Y323568D02*
Y327505D01*
X149617Y323568D02*
X151979D01*
X149617D02*
Y327505D01*
X151979D01*
X177373Y318352D02*
X181310D01*
Y315990D02*
Y318352D01*
X177373Y315990D02*
X181310D01*
X177373D02*
Y318352D01*
Y314219D02*
X181310D01*
Y312250D02*
Y314219D01*
X177373Y312250D02*
X181310D01*
X177373D02*
Y314219D01*
Y307329D02*
Y309691D01*
Y307329D02*
X181310D01*
Y309691D01*
X177373D02*
X181310D01*
X177373Y305498D02*
X181310D01*
Y303530D02*
Y305498D01*
X177373Y303530D02*
X181310D01*
X177373D02*
Y305498D01*
X185542Y304513D02*
Y308450D01*
X183574Y304513D02*
X185542D01*
X183574D02*
Y308450D01*
X185542D01*
X193023Y307041D02*
Y310978D01*
X191054Y307041D02*
X193023D01*
X191054D02*
Y310978D01*
X193023D01*
X200208Y307041D02*
Y310978D01*
X198239Y307041D02*
X200208D01*
X198239D02*
Y310978D01*
X200208D01*
X188101Y316088D02*
X192038D01*
Y313726D02*
Y316088D01*
X188101Y313726D02*
X192038D01*
X188101D02*
Y316088D01*
X202668Y315892D02*
X206605D01*
Y313924D02*
Y315892D01*
X202668Y313924D02*
X206605D01*
X202668D02*
Y315892D01*
X206408Y301303D02*
X208377D01*
X206408Y297366D02*
Y301303D01*
Y297366D02*
X208377D01*
Y301303D01*
X203652Y297366D02*
Y301303D01*
X201684Y297366D02*
X203652D01*
X201684D02*
Y301303D01*
X203652D01*
X196959D02*
X198928D01*
X196959Y297366D02*
Y301303D01*
Y297366D02*
X198928D01*
Y301303D01*
X194204Y297366D02*
Y301303D01*
X192235Y297366D02*
X194204D01*
X192235D02*
Y301303D01*
X194204D01*
X106015Y224455D02*
Y229376D01*
Y224455D02*
X113889D01*
Y229376D01*
X106015D02*
X113889D01*
X94007Y224455D02*
Y229376D01*
Y224455D02*
X101881D01*
Y229376D01*
X94007D02*
X101881D01*
X189971Y153097D02*
Y156246D01*
X183672Y153097D02*
X189971D01*
X183672D02*
Y156246D01*
X189971D01*
X125798Y117958D02*
Y121895D01*
X123830Y117958D02*
X125798D01*
X123830D02*
Y121895D01*
X125798D01*
X133574Y117270D02*
X137511D01*
Y115302D02*
Y117270D01*
X133574Y115302D02*
X137511D01*
X133574D02*
Y117270D01*
X146861Y118647D02*
Y122584D01*
X144893Y118647D02*
X146861D01*
X144893D02*
Y122584D01*
X146861D01*
X166742Y107624D02*
Y111561D01*
X168710D01*
Y107624D02*
Y111561D01*
X166742Y107624D02*
X168710D01*
X166447Y71798D02*
Y75735D01*
X168415D01*
Y71798D02*
Y75735D01*
X166447Y71798D02*
X168415D01*
X166447Y84593D02*
Y88530D01*
X168415D01*
Y84593D02*
Y88530D01*
X166447Y84593D02*
X168415D01*
X148337Y54021D02*
Y57958D01*
X146369Y54021D02*
X148337D01*
X146369D02*
Y57958D01*
X148337D01*
X139676Y55400D02*
X143613D01*
Y53431D02*
Y55400D01*
X139676Y53431D02*
X143613D01*
X139676D02*
Y55400D01*
X132491Y53431D02*
Y55400D01*
Y53431D02*
X136428D01*
Y55400D01*
X132491D02*
X136428D01*
X132490Y57427D02*
X136427D01*
X132490D02*
Y59395D01*
X136427D01*
Y57427D02*
Y59395D01*
X115463Y61342D02*
X117432D01*
X115463Y57405D02*
Y61342D01*
Y57405D02*
X117432D01*
Y61342D01*
X106211Y68845D02*
Y70813D01*
Y68845D02*
X110148D01*
Y70813D01*
X106211D02*
X110148D01*
X106211Y72879D02*
X110148D01*
X106211D02*
Y74848D01*
X110148D01*
Y72879D02*
Y74848D01*
X82589Y45950D02*
X86526D01*
X82589D02*
Y47919D01*
X86526D01*
Y45950D02*
Y47919D01*
X94400Y57959D02*
X97549D01*
Y51660D02*
Y57959D01*
X94400Y51660D02*
X97549D01*
X94400D02*
Y57959D01*
X75797Y58353D02*
X77766D01*
Y62290D01*
X75797D02*
X77766D01*
X75797Y58353D02*
Y62290D01*
X90857Y69124D02*
Y73061D01*
X88889Y69124D02*
X90857D01*
X88889D02*
Y73061D01*
X90857D01*
X103947Y86364D02*
Y90301D01*
X105915D01*
Y86364D02*
Y90301D01*
X103947Y86364D02*
X105915D01*
X106014Y97387D02*
X109951D01*
X106014D02*
Y99356D01*
X109951D01*
Y97387D02*
Y99356D01*
X106014Y101324D02*
X109951D01*
X106014D02*
Y103293D01*
X109951D01*
Y101324D02*
Y103293D01*
X91053Y107985D02*
Y111922D01*
X93022D01*
Y107985D02*
Y111922D01*
X91053Y107985D02*
X93022D01*
X110345Y132722D02*
X112314D01*
X110345Y128785D02*
Y132722D01*
Y128785D02*
X112314D01*
Y132722D01*
X110246Y146896D02*
Y150833D01*
X112215D01*
Y146896D02*
Y150833D01*
X110246Y146896D02*
X112215D01*
X90857Y155352D02*
Y159289D01*
X88889Y155352D02*
X90857D01*
X88889D02*
Y159289D01*
X90857D01*
Y207624D02*
Y211561D01*
X88889Y207624D02*
X90857D01*
X88889D02*
Y211561D01*
X90857D01*
Y224553D02*
Y228490D01*
X88889Y224553D02*
X90857D01*
X88889D02*
Y228490D01*
X90857D01*
X85935Y232525D02*
X89872D01*
X85935D02*
Y234493D01*
X89872D01*
Y232525D02*
Y234493D01*
X90267Y237129D02*
Y241066D01*
X88298Y237129D02*
X90267D01*
X88298D02*
Y241066D01*
X90267D01*
X118810Y230261D02*
Y234198D01*
X116841Y230261D02*
X118810D01*
X116841D02*
Y234198D01*
X118810D01*
X107983Y233510D02*
X111920D01*
Y231542D02*
Y233510D01*
X107983Y231542D02*
X111920D01*
X107983D02*
Y233510D01*
X111329Y211857D02*
X115267D01*
Y209888D02*
Y211857D01*
X111329Y209888D02*
X115267D01*
X111329D02*
Y211857D01*
X166939Y159888D02*
Y163825D01*
X168907D01*
Y159888D02*
Y163825D01*
X166939Y159888D02*
X168907D01*
X162904Y178883D02*
X166054D01*
X162904D02*
Y185182D01*
X166054D01*
Y178883D02*
Y185182D01*
X139184Y179967D02*
X143121D01*
Y177998D02*
Y179967D01*
X139184Y177998D02*
X143121D01*
X139184D02*
Y179967D01*
X105916Y107132D02*
Y109101D01*
Y107132D02*
X109853D01*
Y109101D01*
X105916D02*
X109853D01*
X135641Y200714D02*
Y204651D01*
X133672Y200714D02*
X135641D01*
X133672D02*
Y204651D01*
X135641D01*
X169006Y214219D02*
Y218156D01*
X170974D01*
Y214219D02*
Y218156D01*
X169006Y214219D02*
X170974D01*
X169006Y207526D02*
Y211463D01*
X170974D01*
Y207526D02*
Y211463D01*
X169006Y207526D02*
X170974D01*
X173239Y211462D02*
X175208D01*
X173239Y207525D02*
Y211462D01*
Y207525D02*
X175208D01*
Y211462D01*
X173239Y218155D02*
X175208D01*
X173239Y214218D02*
Y218155D01*
Y214218D02*
X175208D01*
Y218155D01*
X127632Y213038D02*
Y216975D01*
X129600D01*
Y213038D02*
Y216975D01*
X127632Y213038D02*
X129600D01*
X131569Y211954D02*
X134719D01*
X131569D02*
Y218253D01*
X134719D01*
Y211954D02*
Y218253D01*
X90857Y138423D02*
Y142360D01*
X88889Y138423D02*
X90857D01*
X88889D02*
Y142360D01*
X90857D01*
X93023Y142368D02*
X94991D01*
X93023Y138431D02*
Y142368D01*
Y138431D02*
X94991D01*
Y142368D01*
X89671Y153481D02*
X101883D01*
X89671Y144426D02*
Y153481D01*
Y144426D02*
X95187D01*
X95187Y144427D01*
X101883Y144426D02*
Y153481D01*
X96369Y144426D02*
X101883D01*
X96368Y144427D02*
X96369Y144426D01*
X93023Y211613D02*
X94991D01*
X93023Y207676D02*
Y211613D01*
Y207676D02*
X94991D01*
Y211613D01*
X166743Y104671D02*
X168711D01*
X166743Y100734D02*
Y104671D01*
Y100734D02*
X168711D01*
Y104671D01*
X62313Y166067D02*
Y178665D01*
X68613D01*
Y166067D02*
Y178665D01*
X62313Y166067D02*
X68613D01*
X95187Y244730D02*
Y247880D01*
X101486D01*
Y244730D02*
Y247880D01*
X95187Y244730D02*
X101486D01*
X116045Y240400D02*
Y243549D01*
X109746Y240400D02*
X116045D01*
X109746D02*
Y243549D01*
X116045D01*
X151253Y209100D02*
Y212250D01*
X157552D01*
Y209100D02*
Y212250D01*
X151253Y209100D02*
X157552D01*
X117987Y219336D02*
X125861D01*
X117987Y210675D02*
Y219336D01*
Y210675D02*
X125861D01*
Y214218D01*
X125861Y214218D02*
X125861Y214218D01*
Y215793D02*
Y219336D01*
X125861Y215793D02*
X125861Y215793D01*
X93416Y73061D02*
X95385D01*
X93416Y69124D02*
Y73061D01*
Y69124D02*
X95385D01*
Y73061D01*
X183573Y310971D02*
Y314908D01*
X185541D01*
Y310971D02*
Y314908D01*
X183573Y310971D02*
X185541D01*
X195286Y313726D02*
Y316088D01*
Y313726D02*
X199223D01*
Y316088D01*
X195286D02*
X199223D01*
X109755Y118942D02*
X112904D01*
X109755D02*
Y125242D01*
X112904D01*
Y118942D02*
Y125242D01*
X183679Y159690D02*
Y162840D01*
X189978D01*
Y159690D02*
Y162840D01*
X183679Y159690D02*
X189978D01*
X151253Y186640D02*
X159127D01*
Y181719D02*
Y186640D01*
X151253Y181719D02*
X159127D01*
X151253D02*
Y186640D01*
X120581Y225833D02*
X128455D01*
Y234494D01*
X120581D02*
X128455D01*
X120581Y230951D02*
Y234494D01*
Y230951D02*
X120581Y230951D01*
X120581Y225833D02*
Y229376D01*
X120581Y229376D01*
X130226Y225242D02*
X135148D01*
Y233116D01*
X130226D02*
X135148D01*
X130226Y225242D02*
Y233116D01*
X213888Y311266D02*
X223731D01*
Y323864D01*
X213888D02*
X223731D01*
X213888Y311266D02*
Y323864D01*
X173140Y191581D02*
X196762D01*
Y167958D02*
Y191581D01*
X173140Y167958D02*
X196762D01*
X173140D02*
Y191581D01*
X62313Y234964D02*
Y247563D01*
X68613D01*
Y234964D02*
Y247563D01*
X62313Y234964D02*
X68613D01*
X96368Y213628D02*
X96369Y213627D01*
X101883D01*
Y222682D01*
X95187Y213627D02*
X95187Y213628D01*
X89671Y213627D02*
X95187D01*
X89671D02*
Y222682D01*
X101883D01*
X170041Y79725D02*
X199568D01*
Y109253D01*
X170041D02*
X199568D01*
X170041Y79725D02*
Y109253D01*
D119*
X139478Y213234D02*
X163888D01*
X139478D02*
Y232919D01*
X163888D01*
Y213234D02*
Y232919D01*
X104771Y187840D02*
X129180D01*
X104771D02*
Y207525D01*
X129180D01*
Y187840D02*
Y207525D01*
X139478Y187820D02*
X163888D01*
X139478D02*
Y207505D01*
X163888D01*
Y187820D02*
Y207505D01*
D167*
X159164Y318156D02*
D03*
D168*
X74709Y317504D02*
X86520D01*
X74709Y305693D02*
Y317504D01*
Y305693D02*
X86520D01*
Y317504D01*
M02*
