G04*
G04 #@! TF.GenerationSoftware,Altium Limited,Altium Designer,18.1.9 (240)*
G04*
G04 Layer_Color=65535*
%FSLAX25Y25*%
%MOIN*%
G70*
G01*
G75*
%ADD10C,0.01000*%
%ADD11C,0.00039*%
%ADD12C,0.00030*%
%ADD13C,0.00118*%
%ADD14C,0.00504*%
%ADD15C,0.00158*%
D10*
X76429Y316289D02*
G03*
X76429Y316289I-424J0D01*
G01*
X160425Y133989D02*
G03*
X160425Y133989I-721J0D01*
G01*
X120234Y67589D02*
G03*
X120234Y67589I-1030J0D01*
G01*
X0Y369767D02*
X330709D01*
Y-311D02*
Y369767D01*
D11*
X14525Y15776D02*
X14000D01*
Y15382D01*
X14262D01*
X14000D01*
Y14988D01*
X14787D02*
X15049D01*
X14918D01*
Y15513D01*
X14787D01*
X15968Y15776D02*
Y14988D01*
X15574D01*
X15443Y15120D01*
Y15382D01*
X15574Y15513D01*
X15968D01*
X16230Y14988D02*
X16493D01*
X16361D01*
Y15776D01*
X16230Y15644D01*
X16886Y15776D02*
X17411D01*
Y15644D01*
X16886Y15120D01*
Y14988D01*
X314300Y38589D02*
Y39376D01*
X314562Y39113D01*
X314825Y39376D01*
Y38589D01*
X315612Y39376D02*
X315350Y39244D01*
X315087Y38982D01*
Y38720D01*
X315218Y38589D01*
X315481D01*
X315612Y38720D01*
Y38851D01*
X315481Y38982D01*
X315087D01*
X15100Y38589D02*
Y39376D01*
X15362Y39113D01*
X15625Y39376D01*
Y38589D01*
X16412Y39376D02*
X15887D01*
Y38982D01*
X16150Y39113D01*
X16281D01*
X16412Y38982D01*
Y38720D01*
X16281Y38589D01*
X16018D01*
X15887Y38720D01*
X15100Y329989D02*
Y330776D01*
X15362Y330513D01*
X15625Y330776D01*
Y329989D01*
X16281D02*
Y330776D01*
X15887Y330382D01*
X16412D01*
X314300Y329989D02*
Y330776D01*
X314562Y330513D01*
X314825Y330776D01*
Y329989D01*
X315087Y330644D02*
X315218Y330776D01*
X315481D01*
X315612Y330644D01*
Y330513D01*
X315481Y330382D01*
X315350D01*
X315481D01*
X315612Y330251D01*
Y330120D01*
X315481Y329989D01*
X315218D01*
X315087Y330120D01*
X219325Y295276D02*
X218800D01*
Y294882D01*
X219062D01*
X218800D01*
Y294489D01*
X219587D02*
X219849D01*
X219718D01*
Y295013D01*
X219587D01*
X220768Y295276D02*
Y294489D01*
X220374D01*
X220243Y294620D01*
Y294882D01*
X220374Y295013D01*
X220768D01*
X221030Y294489D02*
X221293D01*
X221161D01*
Y295276D01*
X221030Y295144D01*
X222211Y295276D02*
X221949Y295144D01*
X221686Y294882D01*
Y294620D01*
X221817Y294489D01*
X222080D01*
X222211Y294620D01*
Y294751D01*
X222080Y294882D01*
X221686D01*
X83425Y246076D02*
X82900D01*
Y245682D01*
X83162D01*
X82900D01*
Y245288D01*
X83687D02*
X83950D01*
X83818D01*
Y245813D01*
X83687D01*
X84868Y246076D02*
Y245288D01*
X84474D01*
X84343Y245420D01*
Y245682D01*
X84474Y245813D01*
X84868D01*
X85130Y245288D02*
X85393D01*
X85261D01*
Y246076D01*
X85130Y245944D01*
X86311Y246076D02*
X85786D01*
Y245682D01*
X86049Y245813D01*
X86180D01*
X86311Y245682D01*
Y245420D01*
X86180Y245288D01*
X85917D01*
X85786Y245420D01*
X211425Y55176D02*
X210900D01*
Y54782D01*
X211162D01*
X210900D01*
Y54388D01*
X211687D02*
X211949D01*
X211818D01*
Y54913D01*
X211687D01*
X212868Y55176D02*
Y54388D01*
X212474D01*
X212343Y54520D01*
Y54782D01*
X212474Y54913D01*
X212868D01*
X213130Y54388D02*
X213393D01*
X213261D01*
Y55176D01*
X213130Y55044D01*
X214311Y54388D02*
X213786D01*
X214311Y54913D01*
Y55044D01*
X214180Y55176D01*
X213917D01*
X213786Y55044D01*
X65925Y326776D02*
X65400D01*
Y326382D01*
X65662D01*
X65400D01*
Y325989D01*
X66187D02*
X66449D01*
X66318D01*
Y326513D01*
X66187D01*
X67368Y326776D02*
Y325989D01*
X66974D01*
X66843Y326120D01*
Y326382D01*
X66974Y326513D01*
X67368D01*
X67630Y325989D02*
X67893D01*
X67761D01*
Y326776D01*
X67630Y326644D01*
X68286Y325989D02*
X68549D01*
X68417D01*
Y326776D01*
X68286Y326644D01*
X14525Y39376D02*
X14000D01*
Y38982D01*
X14262D01*
X14000D01*
Y38589D01*
X14787D02*
X15049D01*
X14918D01*
Y39113D01*
X14787D01*
X15968Y39376D02*
Y38589D01*
X15574D01*
X15443Y38720D01*
Y38982D01*
X15574Y39113D01*
X15968D01*
X16230Y38589D02*
X16493D01*
X16361D01*
Y39376D01*
X16230Y39244D01*
X16886D02*
X17017Y39376D01*
X17280D01*
X17411Y39244D01*
Y38720D01*
X17280Y38589D01*
X17017D01*
X16886Y38720D01*
Y39244D01*
X314125Y354376D02*
X313600D01*
Y353982D01*
X313862D01*
X313600D01*
Y353589D01*
X314387D02*
X314650D01*
X314518D01*
Y354113D01*
X314387D01*
X315568Y354376D02*
Y353589D01*
X315174D01*
X315043Y353720D01*
Y353982D01*
X315174Y354113D01*
X315568D01*
X315830Y354244D02*
X315961Y354376D01*
X316224D01*
X316355Y354244D01*
Y354113D01*
X316224Y353982D01*
X316355Y353851D01*
Y353720D01*
X316224Y353589D01*
X315961D01*
X315830Y353720D01*
Y353851D01*
X315961Y353982D01*
X315830Y354113D01*
Y354244D01*
X315961Y353982D02*
X316224D01*
X183042Y322654D02*
X182780Y322917D01*
X182255D01*
X181993Y322654D01*
Y321605D01*
X182255Y321342D01*
X182780D01*
X183042Y321605D01*
X183567Y322654D02*
X183829Y322917D01*
X184354D01*
X184616Y322654D01*
Y322392D01*
X184354Y322130D01*
X184092D01*
X184354D01*
X184616Y321867D01*
Y321605D01*
X184354Y321342D01*
X183829D01*
X183567Y321605D01*
X185928Y321342D02*
Y322917D01*
X185141Y322130D01*
X186191D01*
X183900Y232963D02*
Y231388D01*
X184950D01*
X185474Y231651D02*
X185737Y231388D01*
X186261D01*
X186524Y231651D01*
Y232700D01*
X186261Y232963D01*
X185737D01*
X185474Y232700D01*
Y232438D01*
X185737Y232176D01*
X186524D01*
X160500Y242588D02*
Y244163D01*
X161287D01*
X161549Y243900D01*
Y243376D01*
X161287Y243113D01*
X160500D01*
X161025D02*
X161549Y242588D01*
X162074Y244163D02*
Y243113D01*
X162599Y242588D01*
X163124Y243113D01*
Y244163D01*
X163649Y242588D02*
X164173D01*
X163911D01*
Y244163D01*
X163649Y243900D01*
X201100Y245863D02*
X202150D01*
X201625D01*
Y244288D01*
X202674D02*
Y245863D01*
X203461D01*
X203724Y245600D01*
Y245076D01*
X203461Y244813D01*
X202674D01*
X204249Y245600D02*
X204511Y245863D01*
X205036D01*
X205298Y245600D01*
Y245338D01*
X205036Y245076D01*
X204773D01*
X205036D01*
X205298Y244813D01*
Y244551D01*
X205036Y244288D01*
X204511D01*
X204249Y244551D01*
X206872Y245863D02*
X206348Y245600D01*
X205823Y245076D01*
Y244551D01*
X206085Y244288D01*
X206610D01*
X206872Y244551D01*
Y244813D01*
X206610Y245076D01*
X205823D01*
X208500Y245863D02*
X209549D01*
X209025D01*
Y244288D01*
X210074D02*
Y245863D01*
X210861D01*
X211124Y245600D01*
Y245076D01*
X210861Y244813D01*
X210074D01*
X211649Y245600D02*
X211911Y245863D01*
X212436D01*
X212698Y245600D01*
Y245338D01*
X212436Y245076D01*
X212173D01*
X212436D01*
X212698Y244813D01*
Y244551D01*
X212436Y244288D01*
X211911D01*
X211649Y244551D01*
X214272Y245863D02*
X213223D01*
Y245076D01*
X213748Y245338D01*
X214010D01*
X214272Y245076D01*
Y244551D01*
X214010Y244288D01*
X213485D01*
X213223Y244551D01*
X201100Y235863D02*
X202150D01*
X201625D01*
Y234289D01*
X202674D02*
Y235863D01*
X203461D01*
X203724Y235600D01*
Y235076D01*
X203461Y234813D01*
X202674D01*
X204249Y235600D02*
X204511Y235863D01*
X205036D01*
X205298Y235600D01*
Y235338D01*
X205036Y235076D01*
X204773D01*
X205036D01*
X205298Y234813D01*
Y234551D01*
X205036Y234289D01*
X204511D01*
X204249Y234551D01*
X206610Y234289D02*
Y235863D01*
X205823Y235076D01*
X206872D01*
X208600Y235863D02*
X209649D01*
X209125D01*
Y234289D01*
X210174D02*
Y235863D01*
X210961D01*
X211224Y235600D01*
Y235076D01*
X210961Y234813D01*
X210174D01*
X211749Y235600D02*
X212011Y235863D01*
X212536D01*
X212798Y235600D01*
Y235338D01*
X212536Y235076D01*
X212273D01*
X212536D01*
X212798Y234813D01*
Y234551D01*
X212536Y234289D01*
X212011D01*
X211749Y234551D01*
X213323Y235600D02*
X213585Y235863D01*
X214110D01*
X214372Y235600D01*
Y235338D01*
X214110Y235076D01*
X213848D01*
X214110D01*
X214372Y234813D01*
Y234551D01*
X214110Y234289D01*
X213585D01*
X213323Y234551D01*
X201100Y225863D02*
X202150D01*
X201625D01*
Y224289D01*
X202674D02*
Y225863D01*
X203461D01*
X203724Y225600D01*
Y225076D01*
X203461Y224813D01*
X202674D01*
X204249Y225600D02*
X204511Y225863D01*
X205036D01*
X205298Y225600D01*
Y225338D01*
X205036Y225076D01*
X204773D01*
X205036D01*
X205298Y224813D01*
Y224551D01*
X205036Y224289D01*
X204511D01*
X204249Y224551D01*
X206872Y224289D02*
X205823D01*
X206872Y225338D01*
Y225600D01*
X206610Y225863D01*
X206085D01*
X205823Y225600D01*
X208800Y225863D02*
X209850D01*
X209325D01*
Y224289D01*
X210374D02*
Y225863D01*
X211161D01*
X211424Y225600D01*
Y225076D01*
X211161Y224813D01*
X210374D01*
X211949Y225600D02*
X212211Y225863D01*
X212736D01*
X212998Y225600D01*
Y225338D01*
X212736Y225076D01*
X212473D01*
X212736D01*
X212998Y224813D01*
Y224551D01*
X212736Y224289D01*
X212211D01*
X211949Y224551D01*
X213523Y224289D02*
X214048D01*
X213785D01*
Y225863D01*
X213523Y225600D01*
X201100Y215863D02*
X202150D01*
X201625D01*
Y214288D01*
X202674D02*
Y215863D01*
X203461D01*
X203724Y215600D01*
Y215076D01*
X203461Y214813D01*
X202674D01*
X204249Y215600D02*
X204511Y215863D01*
X205036D01*
X205298Y215600D01*
Y215338D01*
X205036Y215076D01*
X204773D01*
X205036D01*
X205298Y214813D01*
Y214551D01*
X205036Y214288D01*
X204511D01*
X204249Y214551D01*
X205823Y215600D02*
X206085Y215863D01*
X206610D01*
X206872Y215600D01*
Y214551D01*
X206610Y214288D01*
X206085D01*
X205823Y214551D01*
Y215600D01*
X208500Y215863D02*
X209549D01*
X209025D01*
Y214288D01*
X210074D02*
Y215863D01*
X210861D01*
X211124Y215600D01*
Y215076D01*
X210861Y214813D01*
X210074D01*
X212698Y214288D02*
X211649D01*
X212698Y215338D01*
Y215600D01*
X212436Y215863D01*
X211911D01*
X211649Y215600D01*
X213223Y214551D02*
X213485Y214288D01*
X214010D01*
X214272Y214551D01*
Y215600D01*
X214010Y215863D01*
X213485D01*
X213223Y215600D01*
Y215338D01*
X213485Y215076D01*
X214272D01*
X201100Y205863D02*
X202150D01*
X201625D01*
Y204288D01*
X202674D02*
Y205863D01*
X203461D01*
X203724Y205600D01*
Y205076D01*
X203461Y204813D01*
X202674D01*
X205298Y204288D02*
X204249D01*
X205298Y205338D01*
Y205600D01*
X205036Y205863D01*
X204511D01*
X204249Y205600D01*
X205823D02*
X206085Y205863D01*
X206610D01*
X206872Y205600D01*
Y205338D01*
X206610Y205076D01*
X206872Y204813D01*
Y204551D01*
X206610Y204288D01*
X206085D01*
X205823Y204551D01*
Y204813D01*
X206085Y205076D01*
X205823Y205338D01*
Y205600D01*
X206085Y205076D02*
X206610D01*
X208500Y205863D02*
X209549D01*
X209025D01*
Y204288D01*
X210074D02*
Y205863D01*
X210861D01*
X211124Y205600D01*
Y205076D01*
X210861Y204813D01*
X210074D01*
X212698Y204288D02*
X211649D01*
X212698Y205338D01*
Y205600D01*
X212436Y205863D01*
X211911D01*
X211649Y205600D01*
X213223Y205863D02*
X214272D01*
Y205600D01*
X213223Y204551D01*
Y204288D01*
X201100Y195863D02*
X202150D01*
X201625D01*
Y194288D01*
X202674D02*
Y195863D01*
X203461D01*
X203724Y195600D01*
Y195076D01*
X203461Y194813D01*
X202674D01*
X205298Y194288D02*
X204249D01*
X205298Y195338D01*
Y195600D01*
X205036Y195863D01*
X204511D01*
X204249Y195600D01*
X206872Y195863D02*
X206348Y195600D01*
X205823Y195076D01*
Y194551D01*
X206085Y194288D01*
X206610D01*
X206872Y194551D01*
Y194813D01*
X206610Y195076D01*
X205823D01*
X208500Y195863D02*
X209549D01*
X209025D01*
Y194288D01*
X210074D02*
Y195863D01*
X210861D01*
X211124Y195600D01*
Y195076D01*
X210861Y194813D01*
X210074D01*
X212698Y194288D02*
X211649D01*
X212698Y195338D01*
Y195600D01*
X212436Y195863D01*
X211911D01*
X211649Y195600D01*
X214272Y195863D02*
X213223D01*
Y195076D01*
X213748Y195338D01*
X214010D01*
X214272Y195076D01*
Y194551D01*
X214010Y194288D01*
X213485D01*
X213223Y194551D01*
X201100Y185863D02*
X202150D01*
X201625D01*
Y184288D01*
X202674D02*
Y185863D01*
X203461D01*
X203724Y185600D01*
Y185076D01*
X203461Y184813D01*
X202674D01*
X205298Y184288D02*
X204249D01*
X205298Y185338D01*
Y185600D01*
X205036Y185863D01*
X204511D01*
X204249Y185600D01*
X206610Y184288D02*
Y185863D01*
X205823Y185076D01*
X206872D01*
X208500Y185863D02*
X209549D01*
X209025D01*
Y184288D01*
X210074D02*
Y185863D01*
X210861D01*
X211124Y185600D01*
Y185076D01*
X210861Y184813D01*
X210074D01*
X212698Y184288D02*
X211649D01*
X212698Y185338D01*
Y185600D01*
X212436Y185863D01*
X211911D01*
X211649Y185600D01*
X213223D02*
X213485Y185863D01*
X214010D01*
X214272Y185600D01*
Y185338D01*
X214010Y185076D01*
X213748D01*
X214010D01*
X214272Y184813D01*
Y184551D01*
X214010Y184288D01*
X213485D01*
X213223Y184551D01*
X201100Y175863D02*
X202150D01*
X201625D01*
Y174288D01*
X202674D02*
Y175863D01*
X203461D01*
X203724Y175600D01*
Y175076D01*
X203461Y174813D01*
X202674D01*
X205298Y174288D02*
X204249D01*
X205298Y175338D01*
Y175600D01*
X205036Y175863D01*
X204511D01*
X204249Y175600D01*
X206872Y174288D02*
X205823D01*
X206872Y175338D01*
Y175600D01*
X206610Y175863D01*
X206085D01*
X205823Y175600D01*
X208800Y175863D02*
X209850D01*
X209325D01*
Y174288D01*
X210374D02*
Y175863D01*
X211161D01*
X211424Y175600D01*
Y175076D01*
X211161Y174813D01*
X210374D01*
X212998Y174288D02*
X211949D01*
X212998Y175338D01*
Y175600D01*
X212736Y175863D01*
X212211D01*
X211949Y175600D01*
X213523Y174288D02*
X214048D01*
X213785D01*
Y175863D01*
X213523Y175600D01*
X201100Y165863D02*
X202150D01*
X201625D01*
Y164288D01*
X202674D02*
Y165863D01*
X203461D01*
X203724Y165600D01*
Y165076D01*
X203461Y164813D01*
X202674D01*
X205298Y164288D02*
X204249D01*
X205298Y165338D01*
Y165600D01*
X205036Y165863D01*
X204511D01*
X204249Y165600D01*
X205823D02*
X206085Y165863D01*
X206610D01*
X206872Y165600D01*
Y164551D01*
X206610Y164288D01*
X206085D01*
X205823Y164551D01*
Y165600D01*
X208800Y165863D02*
X209850D01*
X209325D01*
Y164288D01*
X210374D02*
Y165863D01*
X211161D01*
X211424Y165600D01*
Y165076D01*
X211161Y164813D01*
X210374D01*
X211949Y164288D02*
X212473D01*
X212211D01*
Y165863D01*
X211949Y165600D01*
X213261Y164551D02*
X213523Y164288D01*
X214048D01*
X214310Y164551D01*
Y165600D01*
X214048Y165863D01*
X213523D01*
X213261Y165600D01*
Y165338D01*
X213523Y165076D01*
X214310D01*
X208800Y155863D02*
X209850D01*
X209325D01*
Y154288D01*
X210374D02*
Y155863D01*
X211161D01*
X211424Y155600D01*
Y155076D01*
X211161Y154813D01*
X210374D01*
X211949Y154288D02*
X212473D01*
X212211D01*
Y155863D01*
X211949Y155600D01*
X213261D02*
X213523Y155863D01*
X214048D01*
X214310Y155600D01*
Y155338D01*
X214048Y155076D01*
X214310Y154813D01*
Y154551D01*
X214048Y154288D01*
X213523D01*
X213261Y154551D01*
Y154813D01*
X213523Y155076D01*
X213261Y155338D01*
Y155600D01*
X213523Y155076D02*
X214048D01*
X201300Y85863D02*
X202349D01*
X201825D01*
Y84289D01*
X202874D02*
Y85863D01*
X203661D01*
X203924Y85600D01*
Y85076D01*
X203661Y84813D01*
X202874D01*
X204449Y84289D02*
X204973D01*
X204711D01*
Y85863D01*
X204449Y85600D01*
X205761Y85863D02*
X206810D01*
Y85600D01*
X205761Y84551D01*
Y84289D01*
X201300Y145863D02*
X202349D01*
X201825D01*
Y144288D01*
X202874D02*
Y145863D01*
X203661D01*
X203924Y145600D01*
Y145076D01*
X203661Y144813D01*
X202874D01*
X204449Y144288D02*
X204973D01*
X204711D01*
Y145863D01*
X204449Y145600D01*
X206810Y145863D02*
X206285Y145600D01*
X205761Y145076D01*
Y144551D01*
X206023Y144288D01*
X206548D01*
X206810Y144551D01*
Y144813D01*
X206548Y145076D01*
X205761D01*
X208800Y145863D02*
X209850D01*
X209325D01*
Y144288D01*
X210374D02*
Y145863D01*
X211161D01*
X211424Y145600D01*
Y145076D01*
X211161Y144813D01*
X210374D01*
X211949Y144288D02*
X212473D01*
X212211D01*
Y145863D01*
X211949Y145600D01*
X214310Y145863D02*
X213261D01*
Y145076D01*
X213785Y145338D01*
X214048D01*
X214310Y145076D01*
Y144551D01*
X214048Y144288D01*
X213523D01*
X213261Y144551D01*
X201300Y135863D02*
X202349D01*
X201825D01*
Y134288D01*
X202874D02*
Y135863D01*
X203661D01*
X203924Y135600D01*
Y135076D01*
X203661Y134813D01*
X202874D01*
X204449Y134288D02*
X204973D01*
X204711D01*
Y135863D01*
X204449Y135600D01*
X206548Y134288D02*
Y135863D01*
X205761Y135076D01*
X206810D01*
X208800Y135863D02*
X209850D01*
X209325D01*
Y134288D01*
X210374D02*
Y135863D01*
X211161D01*
X211424Y135600D01*
Y135076D01*
X211161Y134813D01*
X210374D01*
X211949Y134288D02*
X212473D01*
X212211D01*
Y135863D01*
X211949Y135600D01*
X213261D02*
X213523Y135863D01*
X214048D01*
X214310Y135600D01*
Y135338D01*
X214048Y135076D01*
X213785D01*
X214048D01*
X214310Y134813D01*
Y134551D01*
X214048Y134288D01*
X213523D01*
X213261Y134551D01*
X201300Y125863D02*
X202349D01*
X201825D01*
Y124288D01*
X202874D02*
Y125863D01*
X203661D01*
X203924Y125600D01*
Y125076D01*
X203661Y124813D01*
X202874D01*
X204449Y124288D02*
X204973D01*
X204711D01*
Y125863D01*
X204449Y125600D01*
X206810Y124288D02*
X205761D01*
X206810Y125338D01*
Y125600D01*
X206548Y125863D01*
X206023D01*
X205761Y125600D01*
X209100Y125863D02*
X210150D01*
X209625D01*
Y124288D01*
X210674D02*
Y125863D01*
X211461D01*
X211724Y125600D01*
Y125076D01*
X211461Y124813D01*
X210674D01*
X212249Y124288D02*
X212773D01*
X212511D01*
Y125863D01*
X212249Y125600D01*
X213561Y124288D02*
X214085D01*
X213823D01*
Y125863D01*
X213561Y125600D01*
X201300Y115863D02*
X202349D01*
X201825D01*
Y114288D01*
X202874D02*
Y115863D01*
X203661D01*
X203924Y115600D01*
Y115076D01*
X203661Y114813D01*
X202874D01*
X204449Y114288D02*
X204973D01*
X204711D01*
Y115863D01*
X204449Y115600D01*
X205761D02*
X206023Y115863D01*
X206548D01*
X206810Y115600D01*
Y114551D01*
X206548Y114288D01*
X206023D01*
X205761Y114551D01*
Y115600D01*
X209500Y115863D02*
X210549D01*
X210025D01*
Y114288D01*
X211074D02*
Y115863D01*
X211861D01*
X212124Y115600D01*
Y115076D01*
X211861Y114813D01*
X211074D01*
X212649Y114551D02*
X212911Y114288D01*
X213436D01*
X213698Y114551D01*
Y115600D01*
X213436Y115863D01*
X212911D01*
X212649Y115600D01*
Y115338D01*
X212911Y115076D01*
X213698D01*
X201900Y105863D02*
X202950D01*
X202425D01*
Y104288D01*
X203474D02*
Y105863D01*
X204261D01*
X204524Y105600D01*
Y105076D01*
X204261Y104813D01*
X203474D01*
X205049Y105600D02*
X205311Y105863D01*
X205836D01*
X206098Y105600D01*
Y105338D01*
X205836Y105076D01*
X206098Y104813D01*
Y104551D01*
X205836Y104288D01*
X205311D01*
X205049Y104551D01*
Y104813D01*
X205311Y105076D01*
X205049Y105338D01*
Y105600D01*
X205311Y105076D02*
X205836D01*
X209500Y105863D02*
X210549D01*
X210025D01*
Y104288D01*
X211074D02*
Y105863D01*
X211861D01*
X212124Y105600D01*
Y105076D01*
X211861Y104813D01*
X211074D01*
X212649Y105863D02*
X213698D01*
Y105600D01*
X212649Y104551D01*
Y104288D01*
X201900Y95863D02*
X202950D01*
X202425D01*
Y94288D01*
X203474D02*
Y95863D01*
X204261D01*
X204524Y95600D01*
Y95076D01*
X204261Y94813D01*
X203474D01*
X206098Y95863D02*
X205573Y95600D01*
X205049Y95076D01*
Y94551D01*
X205311Y94288D01*
X205836D01*
X206098Y94551D01*
Y94813D01*
X205836Y95076D01*
X205049D01*
X209500Y95863D02*
X210549D01*
X210025D01*
Y94288D01*
X211074D02*
Y95863D01*
X211861D01*
X212124Y95600D01*
Y95076D01*
X211861Y94813D01*
X211074D01*
X213698Y95863D02*
X212649D01*
Y95076D01*
X213173Y95338D01*
X213436D01*
X213698Y95076D01*
Y94551D01*
X213436Y94288D01*
X212911D01*
X212649Y94551D01*
X201900Y155863D02*
X202950D01*
X202425D01*
Y154288D01*
X203474D02*
Y155863D01*
X204261D01*
X204524Y155600D01*
Y155076D01*
X204261Y154813D01*
X203474D01*
X205836Y154288D02*
Y155863D01*
X205049Y155076D01*
X206098D01*
X209500Y85863D02*
X210549D01*
X210025D01*
Y84289D01*
X211074D02*
Y85863D01*
X211861D01*
X212124Y85600D01*
Y85076D01*
X211861Y84813D01*
X211074D01*
X212649Y85600D02*
X212911Y85863D01*
X213436D01*
X213698Y85600D01*
Y85338D01*
X213436Y85076D01*
X213173D01*
X213436D01*
X213698Y84813D01*
Y84551D01*
X213436Y84289D01*
X212911D01*
X212649Y84551D01*
X201900Y75863D02*
X202950D01*
X202425D01*
Y74288D01*
X203474D02*
Y75863D01*
X204261D01*
X204524Y75600D01*
Y75076D01*
X204261Y74813D01*
X203474D01*
X206098Y74288D02*
X205049D01*
X206098Y75338D01*
Y75600D01*
X205836Y75863D01*
X205311D01*
X205049Y75600D01*
X209700Y75863D02*
X210750D01*
X210225D01*
Y74288D01*
X211274D02*
Y75863D01*
X212061D01*
X212324Y75600D01*
Y75076D01*
X212061Y74813D01*
X211274D01*
X212849Y74288D02*
X213373D01*
X213111D01*
Y75863D01*
X212849Y75600D01*
X81894Y84334D02*
Y85909D01*
X82681D01*
X82944Y85646D01*
Y85122D01*
X82681Y84859D01*
X81894D01*
X82419D02*
X82944Y84334D01*
X83469D02*
X83993D01*
X83731D01*
Y85909D01*
X83469Y85646D01*
X85830Y84334D02*
X84780D01*
X85830Y85384D01*
Y85646D01*
X85568Y85909D01*
X85043D01*
X84780Y85646D01*
X86355D02*
X86617Y85909D01*
X87142D01*
X87404Y85646D01*
Y85384D01*
X87142Y85122D01*
X87404Y84859D01*
Y84597D01*
X87142Y84334D01*
X86617D01*
X86355Y84597D01*
Y84859D01*
X86617Y85122D01*
X86355Y85384D01*
Y85646D01*
X86617Y85122D02*
X87142D01*
X91540Y155594D02*
Y157169D01*
X92327D01*
X92589Y156906D01*
Y156381D01*
X92327Y156119D01*
X91540D01*
X92065D02*
X92589Y155594D01*
X93114D02*
X93639D01*
X93376D01*
Y157169D01*
X93114Y156906D01*
X95476Y155594D02*
X94426D01*
X95476Y156644D01*
Y156906D01*
X95213Y157169D01*
X94688D01*
X94426Y156906D01*
X96788Y155594D02*
Y157169D01*
X96000Y156381D01*
X97050D01*
X95379Y139551D02*
Y141125D01*
X96166D01*
X96428Y140863D01*
Y140338D01*
X96166Y140076D01*
X95379D01*
X95903D02*
X96428Y139551D01*
X96953D02*
X97478D01*
X97215D01*
Y141125D01*
X96953Y140863D01*
X99314Y139551D02*
X98265D01*
X99314Y140601D01*
Y140863D01*
X99052Y141125D01*
X98527D01*
X98265Y140863D01*
X99839D02*
X100101Y141125D01*
X100626D01*
X100889Y140863D01*
Y140601D01*
X100626Y140338D01*
X100364D01*
X100626D01*
X100889Y140076D01*
Y139813D01*
X100626Y139551D01*
X100101D01*
X99839Y139813D01*
X84256Y228823D02*
Y230397D01*
X85044D01*
X85306Y230135D01*
Y229610D01*
X85044Y229347D01*
X84256D01*
X84781D02*
X85306Y228823D01*
X85831D02*
X86356D01*
X86093D01*
Y230397D01*
X85831Y230135D01*
X88192Y228823D02*
X87143D01*
X88192Y229872D01*
Y230135D01*
X87930Y230397D01*
X87405D01*
X87143Y230135D01*
X88717D02*
X88979Y230397D01*
X89504D01*
X89766Y230135D01*
Y229085D01*
X89504Y228823D01*
X88979D01*
X88717Y229085D01*
Y230135D01*
X93115Y205791D02*
Y207365D01*
X93902D01*
X94164Y207103D01*
Y206578D01*
X93902Y206316D01*
X93115D01*
X93639D02*
X94164Y205791D01*
X94689D02*
X95214D01*
X94951D01*
Y207365D01*
X94689Y207103D01*
X96001Y205791D02*
X96526D01*
X96263D01*
Y207365D01*
X96001Y207103D01*
X97313Y206053D02*
X97575Y205791D01*
X98100D01*
X98362Y206053D01*
Y207103D01*
X98100Y207365D01*
X97575D01*
X97313Y207103D01*
Y206841D01*
X97575Y206578D01*
X98362D01*
X93900Y80463D02*
Y79151D01*
X94162Y78888D01*
X94687D01*
X94950Y79151D01*
Y80463D01*
X96524D02*
X95474D01*
Y79676D01*
X95999Y79938D01*
X96261D01*
X96524Y79676D01*
Y79151D01*
X96261Y78888D01*
X95737D01*
X95474Y79151D01*
X97049Y80200D02*
X97311Y80463D01*
X97836D01*
X98098Y80200D01*
Y79151D01*
X97836Y78888D01*
X97311D01*
X97049Y79151D01*
Y80200D01*
X91835Y149688D02*
Y148376D01*
X92098Y148114D01*
X92622D01*
X92885Y148376D01*
Y149688D01*
X94197Y148114D02*
Y149688D01*
X93409Y148901D01*
X94459D01*
X94984Y148376D02*
X95246Y148114D01*
X95771D01*
X96033Y148376D01*
Y149426D01*
X95771Y149688D01*
X95246D01*
X94984Y149426D01*
Y149163D01*
X95246Y148901D01*
X96033D01*
X93900Y218963D02*
Y217651D01*
X94162Y217389D01*
X94687D01*
X94950Y217651D01*
Y218963D01*
X96261Y217389D02*
Y218963D01*
X95474Y218176D01*
X96524D01*
X97049Y218700D02*
X97311Y218963D01*
X97836D01*
X98098Y218700D01*
Y218438D01*
X97836Y218176D01*
X98098Y217913D01*
Y217651D01*
X97836Y217389D01*
X97311D01*
X97049Y217651D01*
Y217913D01*
X97311Y218176D01*
X97049Y218438D01*
Y218700D01*
X97311Y218176D02*
X97836D01*
X87078Y68520D02*
X86815Y68783D01*
X86290D01*
X86028Y68520D01*
Y67471D01*
X86290Y67208D01*
X86815D01*
X87078Y67471D01*
X87602Y67208D02*
X88127D01*
X87865D01*
Y68783D01*
X87602Y68520D01*
X88914D02*
X89177Y68783D01*
X89701D01*
X89964Y68520D01*
Y67471D01*
X89701Y67208D01*
X89177D01*
X88914Y67471D01*
Y68520D01*
X90488D02*
X90751Y68783D01*
X91276D01*
X91538Y68520D01*
Y67471D01*
X91276Y67208D01*
X90751D01*
X90488Y67471D01*
Y68520D01*
X84617Y140666D02*
X84355Y140928D01*
X83830D01*
X83567Y140666D01*
Y139617D01*
X83830Y139354D01*
X84355D01*
X84617Y139617D01*
X85142D02*
X85404Y139354D01*
X85929D01*
X86191Y139617D01*
Y140666D01*
X85929Y140928D01*
X85404D01*
X85142Y140666D01*
Y140404D01*
X85404Y140141D01*
X86191D01*
X86716Y140666D02*
X86978Y140928D01*
X87503D01*
X87766Y140666D01*
Y140404D01*
X87503Y140141D01*
X87766Y139879D01*
Y139617D01*
X87503Y139354D01*
X86978D01*
X86716Y139617D01*
Y139879D01*
X86978Y140141D01*
X86716Y140404D01*
Y140666D01*
X86978Y140141D02*
X87503D01*
X87865Y207005D02*
X87603Y207267D01*
X87078D01*
X86816Y207005D01*
Y205955D01*
X87078Y205693D01*
X87603D01*
X87865Y205955D01*
X88390D02*
X88652Y205693D01*
X89177D01*
X89439Y205955D01*
Y207005D01*
X89177Y207267D01*
X88652D01*
X88390Y207005D01*
Y206742D01*
X88652Y206480D01*
X89439D01*
X91014Y207267D02*
X90489Y207005D01*
X89964Y206480D01*
Y205955D01*
X90226Y205693D01*
X90751D01*
X91014Y205955D01*
Y206218D01*
X90751Y206480D01*
X89964D01*
X176579Y66421D02*
Y67995D01*
X177366D01*
X177629Y67733D01*
Y67208D01*
X177366Y66946D01*
X176579D01*
X177104D02*
X177629Y66421D01*
X178154D02*
X178678D01*
X178416D01*
Y67995D01*
X178154Y67733D01*
X180515Y66421D02*
X179465D01*
X180515Y67471D01*
Y67733D01*
X180253Y67995D01*
X179728D01*
X179465Y67733D01*
X181040Y66684D02*
X181302Y66421D01*
X181827D01*
X182089Y66684D01*
Y67733D01*
X181827Y67995D01*
X181302D01*
X181040Y67733D01*
Y67471D01*
X181302Y67208D01*
X182089D01*
X185339Y66126D02*
Y67700D01*
X186126D01*
X186389Y67438D01*
Y66913D01*
X186126Y66651D01*
X185339D01*
X185864D02*
X186389Y66126D01*
X186913D02*
X187438D01*
X187176D01*
Y67700D01*
X186913Y67438D01*
X189275Y66126D02*
X188225D01*
X189275Y67175D01*
Y67438D01*
X189012Y67700D01*
X188488D01*
X188225Y67438D01*
X190849Y67700D02*
X190324Y67438D01*
X189800Y66913D01*
Y66388D01*
X190062Y66126D01*
X190587D01*
X190849Y66388D01*
Y66651D01*
X190587Y66913D01*
X189800D01*
X177071Y57169D02*
Y58743D01*
X177858D01*
X178121Y58481D01*
Y57956D01*
X177858Y57694D01*
X177071D01*
X177596D02*
X178121Y57169D01*
X178646D02*
X179170D01*
X178908D01*
Y58743D01*
X178646Y58481D01*
X181007Y57169D02*
X179958D01*
X181007Y58219D01*
Y58481D01*
X180745Y58743D01*
X180220D01*
X179958Y58481D01*
X182581Y58743D02*
X181532D01*
Y57956D01*
X182057Y58219D01*
X182319D01*
X182581Y57956D01*
Y57432D01*
X182319Y57169D01*
X181794D01*
X181532Y57432D01*
X184847Y56972D02*
Y58547D01*
X185634D01*
X185897Y58284D01*
Y57759D01*
X185634Y57497D01*
X184847D01*
X185372D02*
X185897Y56972D01*
X186421D02*
X186946D01*
X186684D01*
Y58547D01*
X186421Y58284D01*
X188783Y56972D02*
X187733D01*
X188783Y58022D01*
Y58284D01*
X188520Y58547D01*
X187996D01*
X187733Y58284D01*
X190357Y56972D02*
X189307D01*
X190357Y58022D01*
Y58284D01*
X190095Y58547D01*
X189570D01*
X189307Y58284D01*
X139374Y51264D02*
Y52838D01*
X140162D01*
X140424Y52575D01*
Y52051D01*
X140162Y51788D01*
X139374D01*
X139899D02*
X140424Y51264D01*
X140949D02*
X141474D01*
X141211D01*
Y52838D01*
X140949Y52575D01*
X143310Y51264D02*
X142261D01*
X143310Y52313D01*
Y52575D01*
X143048Y52838D01*
X142523D01*
X142261Y52575D01*
X143835Y51264D02*
X144360D01*
X144097D01*
Y52838D01*
X143835Y52575D01*
X131205Y51460D02*
Y53035D01*
X131992D01*
X132255Y52772D01*
Y52248D01*
X131992Y51985D01*
X131205D01*
X131730D02*
X132255Y51460D01*
X132780D02*
X133304D01*
X133042D01*
Y53035D01*
X132780Y52772D01*
X134091Y51460D02*
X134616D01*
X134354D01*
Y53035D01*
X134091Y52772D01*
X135403D02*
X135666Y53035D01*
X136190D01*
X136453Y52772D01*
Y52510D01*
X136190Y52248D01*
X136453Y51985D01*
Y51723D01*
X136190Y51460D01*
X135666D01*
X135403Y51723D01*
Y51985D01*
X135666Y52248D01*
X135403Y52510D01*
Y52772D01*
X135666Y52248D02*
X136190D01*
X169361Y67536D02*
X169099Y67799D01*
X168574D01*
X168312Y67536D01*
Y66487D01*
X168574Y66224D01*
X169099D01*
X169361Y66487D01*
X169886Y66224D02*
X170411D01*
X170148D01*
Y67799D01*
X169886Y67536D01*
X171198D02*
X171460Y67799D01*
X171985D01*
X172247Y67536D01*
Y66487D01*
X171985Y66224D01*
X171460D01*
X171198Y66487D01*
Y67536D01*
X172772Y66224D02*
X173297D01*
X173034D01*
Y67799D01*
X172772Y67536D01*
X170936Y58481D02*
X170674Y58743D01*
X170149D01*
X169886Y58481D01*
Y57432D01*
X170149Y57169D01*
X170674D01*
X170936Y57432D01*
X171461D02*
X171723Y57169D01*
X172248D01*
X172510Y57432D01*
Y58481D01*
X172248Y58743D01*
X171723D01*
X171461Y58481D01*
Y58219D01*
X171723Y57956D01*
X172510D01*
X173035Y57432D02*
X173297Y57169D01*
X173822D01*
X174084Y57432D01*
Y58481D01*
X173822Y58743D01*
X173297D01*
X173035Y58481D01*
Y58219D01*
X173297Y57956D01*
X174084D01*
X150070Y55036D02*
X149807Y55299D01*
X149283D01*
X149020Y55036D01*
Y53987D01*
X149283Y53724D01*
X149807D01*
X150070Y53987D01*
X150594D02*
X150857Y53724D01*
X151382D01*
X151644Y53987D01*
Y55036D01*
X151382Y55299D01*
X150857D01*
X150594Y55036D01*
Y54774D01*
X150857Y54511D01*
X151644D01*
X152169Y55299D02*
X153218D01*
Y55036D01*
X152169Y53987D01*
Y53724D01*
X78700Y320689D02*
Y322263D01*
X79487D01*
X79750Y322000D01*
Y321476D01*
X79487Y321213D01*
X78700D01*
X79225D02*
X79750Y320689D01*
X80274D02*
X80799D01*
X80537D01*
Y322263D01*
X80274Y322000D01*
X82373Y320689D02*
Y322263D01*
X81586Y321476D01*
X82636D01*
X68869Y310056D02*
X68607Y310318D01*
X68082D01*
X67819Y310056D01*
Y309006D01*
X68082Y308744D01*
X68607D01*
X68869Y309006D01*
X69394Y310318D02*
X70443D01*
Y310056D01*
X69394Y309006D01*
Y308744D01*
X94200Y95763D02*
Y95500D01*
X94725Y94976D01*
X95249Y95500D01*
Y95763D01*
X94725Y94976D02*
Y94188D01*
X96824D02*
X95774D01*
X96824Y95238D01*
Y95500D01*
X96561Y95763D01*
X96037D01*
X95774Y95500D01*
X105910Y109925D02*
Y111499D01*
X106697D01*
X106959Y111237D01*
Y110712D01*
X106697Y110450D01*
X105910D01*
X106435D02*
X106959Y109925D01*
X107484D02*
X108009D01*
X107747D01*
Y111499D01*
X107484Y111237D01*
X108796Y109925D02*
X109321D01*
X109058D01*
Y111499D01*
X108796Y111237D01*
X110895Y109925D02*
Y111499D01*
X110108Y110712D01*
X111158D01*
X103252Y66716D02*
Y68291D01*
X104040D01*
X104302Y68028D01*
Y67503D01*
X104040Y67241D01*
X103252D01*
X103777D02*
X104302Y66716D01*
X104827D02*
X105351D01*
X105089D01*
Y68291D01*
X104827Y68028D01*
X106139Y66716D02*
X106663D01*
X106401D01*
Y68291D01*
X106139Y68028D01*
X108500Y66716D02*
X107451D01*
X108500Y67766D01*
Y68028D01*
X108238Y68291D01*
X107713D01*
X107451Y68028D01*
X160804Y118363D02*
Y116789D01*
X161854D01*
X163428Y118363D02*
X162379D01*
Y116789D01*
X163428D01*
X162379Y117576D02*
X162903D01*
X163953Y118363D02*
Y116789D01*
X164740D01*
X165003Y117051D01*
Y118101D01*
X164740Y118363D01*
X163953D01*
X165527Y116789D02*
X166052D01*
X165790D01*
Y118363D01*
X165527Y118101D01*
X165752Y111893D02*
Y113468D01*
X166540D01*
X166802Y113205D01*
Y112681D01*
X166540Y112418D01*
X165752D01*
X166277D02*
X166802Y111893D01*
X167327D02*
X167851D01*
X167589D01*
Y113468D01*
X167327Y113205D01*
X168639Y111893D02*
X169163D01*
X168901D01*
Y113468D01*
X168639Y113205D01*
X169951Y111893D02*
X170475D01*
X170213D01*
Y113468D01*
X169951Y113205D01*
X112603Y55496D02*
Y57070D01*
X113390D01*
X113652Y56808D01*
Y56283D01*
X113390Y56021D01*
X112603D01*
X113128D02*
X113652Y55496D01*
X114177D02*
X114702D01*
X114439D01*
Y57070D01*
X114177Y56808D01*
X115489D02*
X115751Y57070D01*
X116276D01*
X116539Y56808D01*
Y55758D01*
X116276Y55496D01*
X115751D01*
X115489Y55758D01*
Y56808D01*
X117063D02*
X117326Y57070D01*
X117850D01*
X118113Y56808D01*
Y56545D01*
X117850Y56283D01*
X117588D01*
X117850D01*
X118113Y56021D01*
Y55758D01*
X117850Y55496D01*
X117326D01*
X117063Y55758D01*
X172800Y72988D02*
Y74563D01*
X173587D01*
X173849Y74300D01*
Y73776D01*
X173587Y73513D01*
X172800D01*
X173325D02*
X173849Y72988D01*
X174374D02*
X174899D01*
X174637D01*
Y74563D01*
X174374Y74300D01*
X175686D02*
X175949Y74563D01*
X176473D01*
X176736Y74300D01*
Y73251D01*
X176473Y72988D01*
X175949D01*
X175686Y73251D01*
Y74300D01*
X177260D02*
X177523Y74563D01*
X178048D01*
X178310Y74300D01*
Y73251D01*
X178048Y72988D01*
X177523D01*
X177260Y73251D01*
Y74300D01*
X175792Y216716D02*
Y218291D01*
X176579D01*
X176841Y218028D01*
Y217503D01*
X176579Y217241D01*
X175792D01*
X176317D02*
X176841Y216716D01*
X177366D02*
X177891D01*
X177629D01*
Y218291D01*
X177366Y218028D01*
X178678D02*
X178940Y218291D01*
X179465D01*
X179728Y218028D01*
Y216979D01*
X179465Y216716D01*
X178940D01*
X178678Y216979D01*
Y218028D01*
X180252Y216716D02*
X180777D01*
X180515D01*
Y218291D01*
X180252Y218028D01*
X163095Y208153D02*
Y209728D01*
X163882D01*
X164145Y209465D01*
Y208941D01*
X163882Y208678D01*
X163095D01*
X163620D02*
X164145Y208153D01*
X164669D02*
X165194D01*
X164932D01*
Y209728D01*
X164669Y209465D01*
X165981D02*
X166244Y209728D01*
X166768D01*
X167031Y209465D01*
Y208416D01*
X166768Y208153D01*
X166244D01*
X165981Y208416D01*
Y209465D01*
X168605Y209728D02*
X167555D01*
Y208941D01*
X168080Y209203D01*
X168343D01*
X168605Y208941D01*
Y208416D01*
X168343Y208153D01*
X167818D01*
X167555Y208416D01*
X175398Y205890D02*
Y207464D01*
X176185D01*
X176448Y207202D01*
Y206677D01*
X176185Y206414D01*
X175398D01*
X175923D02*
X176448Y205890D01*
X176972D02*
X177497D01*
X177235D01*
Y207464D01*
X176972Y207202D01*
X178284D02*
X178547Y207464D01*
X179071D01*
X179334Y207202D01*
Y206152D01*
X179071Y205890D01*
X178547D01*
X178284Y206152D01*
Y207202D01*
X180908Y205890D02*
X179859D01*
X180908Y206939D01*
Y207202D01*
X180646Y207464D01*
X180121D01*
X179859Y207202D01*
X183000Y212463D02*
Y211151D01*
X183262Y210889D01*
X183787D01*
X184049Y211151D01*
Y212463D01*
X185361Y210889D02*
Y212463D01*
X184574Y211676D01*
X185624D01*
X186149Y212463D02*
X187198D01*
Y212200D01*
X186149Y211151D01*
Y210889D01*
X136400Y88563D02*
Y87251D01*
X136662Y86989D01*
X137187D01*
X137450Y87251D01*
Y88563D01*
X138761Y86989D02*
Y88563D01*
X137974Y87776D01*
X139024D01*
X140598Y88563D02*
X140073Y88300D01*
X139549Y87776D01*
Y87251D01*
X139811Y86989D01*
X140336D01*
X140598Y87251D01*
Y87513D01*
X140336Y87776D01*
X139549D01*
X123101Y55430D02*
X122839Y55692D01*
X122314D01*
X122052Y55430D01*
Y54380D01*
X122314Y54118D01*
X122839D01*
X123101Y54380D01*
X123626D02*
X123888Y54118D01*
X124413D01*
X124676Y54380D01*
Y55430D01*
X124413Y55692D01*
X123888D01*
X123626Y55430D01*
Y55168D01*
X123888Y54905D01*
X124676D01*
X126250Y54118D02*
X125200D01*
X126250Y55168D01*
Y55430D01*
X125987Y55692D01*
X125463D01*
X125200Y55430D01*
X105385Y85548D02*
X105122Y85810D01*
X104597D01*
X104335Y85548D01*
Y84498D01*
X104597Y84236D01*
X105122D01*
X105385Y84498D01*
X105909D02*
X106172Y84236D01*
X106697D01*
X106959Y84498D01*
Y85548D01*
X106697Y85810D01*
X106172D01*
X105909Y85548D01*
Y85286D01*
X106172Y85023D01*
X106959D01*
X107484Y84236D02*
X108009D01*
X107746D01*
Y85810D01*
X107484Y85548D01*
X94755Y111040D02*
X94492Y111302D01*
X93968D01*
X93705Y111040D01*
Y109991D01*
X93968Y109728D01*
X94492D01*
X94755Y109991D01*
X95280Y111040D02*
X95542Y111302D01*
X96067D01*
X96329Y111040D01*
Y110778D01*
X96067Y110515D01*
X96329Y110253D01*
Y109991D01*
X96067Y109728D01*
X95542D01*
X95280Y109991D01*
Y110253D01*
X95542Y110515D01*
X95280Y110778D01*
Y111040D01*
X95542Y110515D02*
X96067D01*
X96854Y111302D02*
X97903D01*
Y111040D01*
X96854Y109991D01*
Y109728D01*
X105385Y104938D02*
X105122Y105200D01*
X104597D01*
X104335Y104938D01*
Y103888D01*
X104597Y103626D01*
X105122D01*
X105385Y103888D01*
X105909D02*
X106172Y103626D01*
X106697D01*
X106959Y103888D01*
Y104938D01*
X106697Y105200D01*
X106172D01*
X105909Y104938D01*
Y104675D01*
X106172Y104413D01*
X106959D01*
X108533Y105200D02*
X107484D01*
Y104413D01*
X108009Y104675D01*
X108271D01*
X108533Y104413D01*
Y103888D01*
X108271Y103626D01*
X107746D01*
X107484Y103888D01*
X166211Y77871D02*
X165949Y78133D01*
X165424D01*
X165162Y77871D01*
Y76821D01*
X165424Y76559D01*
X165949D01*
X166211Y76821D01*
X166736D02*
X166999Y76559D01*
X167523D01*
X167786Y76821D01*
Y77871D01*
X167523Y78133D01*
X166999D01*
X166736Y77871D01*
Y77608D01*
X166999Y77346D01*
X167786D01*
X169098Y76559D02*
Y78133D01*
X168310Y77346D01*
X169360D01*
X102629Y73343D02*
X102366Y73606D01*
X101842D01*
X101579Y73343D01*
Y72294D01*
X101842Y72031D01*
X102366D01*
X102629Y72294D01*
X103154D02*
X103416Y72031D01*
X103941D01*
X104203Y72294D01*
Y73343D01*
X103941Y73606D01*
X103416D01*
X103154Y73343D01*
Y73081D01*
X103416Y72818D01*
X104203D01*
X104728Y73343D02*
X104990Y73606D01*
X105515D01*
X105777Y73343D01*
Y73081D01*
X105515Y72818D01*
X105253D01*
X105515D01*
X105777Y72556D01*
Y72294D01*
X105515Y72031D01*
X104990D01*
X104728Y72294D01*
X165129Y84072D02*
X164866Y84334D01*
X164342D01*
X164079Y84072D01*
Y83022D01*
X164342Y82760D01*
X164866D01*
X165129Y83022D01*
X165654Y84072D02*
X165916Y84334D01*
X166441D01*
X166703Y84072D01*
Y83809D01*
X166441Y83547D01*
X166703Y83284D01*
Y83022D01*
X166441Y82760D01*
X165916D01*
X165654Y83022D01*
Y83284D01*
X165916Y83547D01*
X165654Y83809D01*
Y84072D01*
X165916Y83547D02*
X166441D01*
X167228Y83022D02*
X167490Y82760D01*
X168015D01*
X168277Y83022D01*
Y84072D01*
X168015Y84334D01*
X167490D01*
X167228Y84072D01*
Y83809D01*
X167490Y83547D01*
X168277D01*
X133534Y61237D02*
X133272Y61499D01*
X132747D01*
X132485Y61237D01*
Y60187D01*
X132747Y59925D01*
X133272D01*
X133534Y60187D01*
X134059Y61237D02*
X134321Y61499D01*
X134846D01*
X135109Y61237D01*
Y60975D01*
X134846Y60712D01*
X135109Y60450D01*
Y60187D01*
X134846Y59925D01*
X134321D01*
X134059Y60187D01*
Y60450D01*
X134321Y60712D01*
X134059Y60975D01*
Y61237D01*
X134321Y60712D02*
X134846D01*
X135633Y61237D02*
X135896Y61499D01*
X136421D01*
X136683Y61237D01*
Y60975D01*
X136421Y60712D01*
X136683Y60450D01*
Y60187D01*
X136421Y59925D01*
X135896D01*
X135633Y60187D01*
Y60450D01*
X135896Y60712D01*
X135633Y60975D01*
Y61237D01*
X135896Y60712D02*
X136421D01*
X105975Y96768D02*
X105713Y97031D01*
X105188D01*
X104926Y96768D01*
Y95719D01*
X105188Y95456D01*
X105713D01*
X105975Y95719D01*
X106500Y96768D02*
X106762Y97031D01*
X107287D01*
X107550Y96768D01*
Y96506D01*
X107287Y96244D01*
X107550Y95981D01*
Y95719D01*
X107287Y95456D01*
X106762D01*
X106500Y95719D01*
Y95981D01*
X106762Y96244D01*
X106500Y96506D01*
Y96768D01*
X106762Y96244D02*
X107287D01*
X109124Y97031D02*
X108599Y96768D01*
X108074Y96244D01*
Y95719D01*
X108337Y95456D01*
X108861D01*
X109124Y95719D01*
Y95981D01*
X108861Y96244D01*
X108074D01*
X135404Y119406D02*
X135142Y119669D01*
X134617D01*
X134355Y119406D01*
Y118357D01*
X134617Y118094D01*
X135142D01*
X135404Y118357D01*
X135929Y119406D02*
X136191Y119669D01*
X136716D01*
X136979Y119406D01*
Y119144D01*
X136716Y118881D01*
X136979Y118619D01*
Y118357D01*
X136716Y118094D01*
X136191D01*
X135929Y118357D01*
Y118619D01*
X136191Y118881D01*
X135929Y119144D01*
Y119406D01*
X136191Y118881D02*
X136716D01*
X138553Y119669D02*
X137503D01*
Y118881D01*
X138028Y119144D01*
X138291D01*
X138553Y118881D01*
Y118357D01*
X138291Y118094D01*
X137766D01*
X137503Y118357D01*
X167885Y219898D02*
X167622Y220161D01*
X167097D01*
X166835Y219898D01*
Y218849D01*
X167097Y218586D01*
X167622D01*
X167885Y218849D01*
X168409D02*
X168672Y218586D01*
X169197D01*
X169459Y218849D01*
Y219898D01*
X169197Y220161D01*
X168672D01*
X168409Y219898D01*
Y219636D01*
X168672Y219374D01*
X169459D01*
X169984Y219898D02*
X170246Y220161D01*
X170771D01*
X171033Y219898D01*
Y218849D01*
X170771Y218586D01*
X170246D01*
X169984Y218849D01*
Y219898D01*
X183850Y201500D02*
X183587Y201763D01*
X183062D01*
X182800Y201500D01*
Y201238D01*
X183062Y200976D01*
X183587D01*
X183850Y200713D01*
Y200451D01*
X183587Y200188D01*
X183062D01*
X182800Y200451D01*
X184374Y201763D02*
Y200188D01*
X184899Y200713D01*
X185424Y200188D01*
Y201763D01*
X185949Y200188D02*
X186473D01*
X186211D01*
Y201763D01*
X185949Y201500D01*
X82288Y48311D02*
Y49885D01*
X83075D01*
X83337Y49623D01*
Y49098D01*
X83075Y48836D01*
X82288D01*
X82813D02*
X83337Y48311D01*
X83862Y49623D02*
X84125Y49885D01*
X84649D01*
X84912Y49623D01*
Y49360D01*
X84649Y49098D01*
X84912Y48836D01*
Y48573D01*
X84649Y48311D01*
X84125D01*
X83862Y48573D01*
Y48836D01*
X84125Y49098D01*
X83862Y49360D01*
Y49623D01*
X84125Y49098D02*
X84649D01*
X86486Y49885D02*
X85961Y49623D01*
X85436Y49098D01*
Y48573D01*
X85699Y48311D01*
X86224D01*
X86486Y48573D01*
Y48836D01*
X86224Y49098D01*
X85436D01*
X72938Y56382D02*
Y57956D01*
X73725D01*
X73987Y57694D01*
Y57169D01*
X73725Y56906D01*
X72938D01*
X73462D02*
X73987Y56382D01*
X74512Y57694D02*
X74774Y57956D01*
X75299D01*
X75561Y57694D01*
Y57431D01*
X75299Y57169D01*
X75561Y56906D01*
Y56644D01*
X75299Y56382D01*
X74774D01*
X74512Y56644D01*
Y56906D01*
X74774Y57169D01*
X74512Y57431D01*
Y57694D01*
X74774Y57169D02*
X75299D01*
X77136Y57956D02*
X76086D01*
Y57169D01*
X76611Y57431D01*
X76873D01*
X77136Y57169D01*
Y56644D01*
X76873Y56382D01*
X76349D01*
X76086Y56644D01*
X82500Y58463D02*
Y57151D01*
X82762Y56889D01*
X83287D01*
X83549Y57151D01*
Y58463D01*
X84074Y58200D02*
X84337Y58463D01*
X84861D01*
X85124Y58200D01*
Y57938D01*
X84861Y57676D01*
X84599D01*
X84861D01*
X85124Y57413D01*
Y57151D01*
X84861Y56889D01*
X84337D01*
X84074Y57151D01*
X85649Y58200D02*
X85911Y58463D01*
X86436D01*
X86698Y58200D01*
Y57938D01*
X86436Y57676D01*
X86698Y57413D01*
Y57151D01*
X86436Y56889D01*
X85911D01*
X85649Y57151D01*
Y57413D01*
X85911Y57676D01*
X85649Y57938D01*
Y58200D01*
X85911Y57676D02*
X86436D01*
X45700Y91563D02*
Y89988D01*
X46487D01*
X46749Y90251D01*
Y90513D01*
X46487Y90776D01*
X45700D01*
X46487D01*
X46749Y91038D01*
Y91300D01*
X46487Y91563D01*
X45700D01*
X47274Y89988D02*
Y91038D01*
X47799Y91563D01*
X48324Y91038D01*
Y89988D01*
Y90776D01*
X47274D01*
X48849Y91563D02*
X49898D01*
X49373D01*
Y89988D01*
X50423Y91300D02*
X50685Y91563D01*
X51210D01*
X51472Y91300D01*
Y91038D01*
X51210Y90776D01*
X50948D01*
X51210D01*
X51472Y90513D01*
Y90251D01*
X51210Y89988D01*
X50685D01*
X50423Y90251D01*
X65250Y103663D02*
X64200D01*
Y102876D01*
X64725D01*
X64200D01*
Y102088D01*
X66561D02*
Y103663D01*
X65774Y102876D01*
X66824D01*
X99184Y56906D02*
X98922Y57169D01*
X98397D01*
X98134Y56906D01*
Y55857D01*
X98397Y55594D01*
X98922D01*
X99184Y55857D01*
X99709Y57169D02*
X100758D01*
Y56906D01*
X99709Y55857D01*
Y55594D01*
X101283Y57169D02*
X102332D01*
Y56906D01*
X101283Y55857D01*
Y55594D01*
X45700Y160763D02*
Y159188D01*
X46487D01*
X46749Y159451D01*
Y159713D01*
X46487Y159976D01*
X45700D01*
X46487D01*
X46749Y160238D01*
Y160500D01*
X46487Y160763D01*
X45700D01*
X47274Y159188D02*
Y160238D01*
X47799Y160763D01*
X48324Y160238D01*
Y159188D01*
Y159976D01*
X47274D01*
X48849Y160763D02*
X49898D01*
X49373D01*
Y159188D01*
X51472D02*
X50423D01*
X51472Y160238D01*
Y160500D01*
X51210Y160763D01*
X50685D01*
X50423Y160500D01*
X65250Y173163D02*
X64200D01*
Y172376D01*
X64725D01*
X64200D01*
Y171588D01*
X65774Y172900D02*
X66037Y173163D01*
X66561D01*
X66824Y172900D01*
Y172638D01*
X66561Y172376D01*
X66299D01*
X66561D01*
X66824Y172113D01*
Y171851D01*
X66561Y171588D01*
X66037D01*
X65774Y171851D01*
X45800Y230063D02*
Y228488D01*
X46587D01*
X46850Y228751D01*
Y229013D01*
X46587Y229276D01*
X45800D01*
X46587D01*
X46850Y229538D01*
Y229800D01*
X46587Y230063D01*
X45800D01*
X47374Y228488D02*
Y229538D01*
X47899Y230063D01*
X48424Y229538D01*
Y228488D01*
Y229276D01*
X47374D01*
X48949Y230063D02*
X49998D01*
X49473D01*
Y228488D01*
X50523D02*
X51048D01*
X50785D01*
Y230063D01*
X50523Y229800D01*
X65250Y242063D02*
X64200D01*
Y241276D01*
X64725D01*
X64200D01*
Y240489D01*
X66824D02*
X65774D01*
X66824Y241538D01*
Y241800D01*
X66561Y242063D01*
X66037D01*
X65774Y241800D01*
X183600Y180563D02*
Y178988D01*
X184650D01*
X185174Y180300D02*
X185437Y180563D01*
X185961D01*
X186224Y180300D01*
Y180038D01*
X185961Y179776D01*
X186224Y179513D01*
Y179251D01*
X185961Y178988D01*
X185437D01*
X185174Y179251D01*
Y179513D01*
X185437Y179776D01*
X185174Y180038D01*
Y180300D01*
X185437Y179776D02*
X185961D01*
X183500Y136663D02*
Y135088D01*
X184549D01*
X185074Y136663D02*
X186124D01*
Y136400D01*
X185074Y135351D01*
Y135088D01*
X178843Y154118D02*
Y155692D01*
X179630D01*
X179893Y155430D01*
Y154905D01*
X179630Y154643D01*
X178843D01*
X179368D02*
X179893Y154118D01*
X180417Y155430D02*
X180680Y155692D01*
X181204D01*
X181467Y155430D01*
Y155167D01*
X181204Y154905D01*
X180942D01*
X181204D01*
X181467Y154643D01*
Y154380D01*
X181204Y154118D01*
X180680D01*
X180417Y154380D01*
X181992Y155692D02*
X183041D01*
Y155430D01*
X181992Y154380D01*
Y154118D01*
X183500Y95263D02*
Y93688D01*
X184549D01*
X186124Y95263D02*
X185599Y95000D01*
X185074Y94476D01*
Y93951D01*
X185337Y93688D01*
X185861D01*
X186124Y93951D01*
Y94213D01*
X185861Y94476D01*
X185074D01*
X194296Y116421D02*
Y114846D01*
X195083D01*
X195345Y115109D01*
Y116158D01*
X195083Y116421D01*
X194296D01*
X196920Y114846D02*
X195870D01*
X196920Y115896D01*
Y116158D01*
X196657Y116421D01*
X196132D01*
X195870Y116158D01*
X196067Y57760D02*
Y59334D01*
X196855D01*
X197117Y59072D01*
Y58547D01*
X196855Y58284D01*
X196067D01*
X196592D02*
X197117Y57760D01*
X197642Y59072D02*
X197904Y59334D01*
X198429D01*
X198691Y59072D01*
Y58809D01*
X198429Y58547D01*
X198167D01*
X198429D01*
X198691Y58284D01*
Y58022D01*
X198429Y57760D01*
X197904D01*
X197642Y58022D01*
X200266Y57760D02*
X199216D01*
X200266Y58809D01*
Y59072D01*
X200003Y59334D01*
X199478D01*
X199216Y59072D01*
X189735Y74229D02*
X189473Y74491D01*
X188948D01*
X188686Y74229D01*
Y73180D01*
X188948Y72917D01*
X189473D01*
X189735Y73180D01*
X191047Y72917D02*
Y74491D01*
X190260Y73704D01*
X191309D01*
X192621Y72917D02*
Y74491D01*
X191834Y73704D01*
X192884D01*
X144800Y300463D02*
Y300200D01*
X145325Y299676D01*
X145850Y300200D01*
Y300463D01*
X145325Y299676D02*
Y298888D01*
X146374D02*
X146899D01*
X146637D01*
Y300463D01*
X146374Y300200D01*
X169000Y327740D02*
X167426D01*
Y328527D01*
X167689Y328789D01*
X168213D01*
X168476Y328527D01*
Y327740D01*
Y328265D02*
X169000Y328789D01*
Y330364D02*
Y329314D01*
X167951Y330364D01*
X167689D01*
X167426Y330101D01*
Y329577D01*
X167689Y329314D01*
Y330889D02*
X167426Y331151D01*
Y331676D01*
X167689Y331938D01*
X167951D01*
X168213Y331676D01*
X168476Y331938D01*
X168738D01*
X169000Y331676D01*
Y331151D01*
X168738Y330889D01*
X168476D01*
X168213Y331151D01*
X167951Y330889D01*
X167689D01*
X168213Y331151D02*
Y331676D01*
X137702Y316388D02*
Y315338D01*
X138489D01*
Y315863D01*
Y315338D01*
X139276D01*
X137702Y316913D02*
X139276D01*
Y317700D01*
X139014Y317962D01*
X138751D01*
X138489Y317700D01*
Y316913D01*
Y317700D01*
X138227Y317962D01*
X137964D01*
X137702Y317700D01*
Y316913D01*
Y319536D02*
Y318487D01*
X138489D01*
X138227Y319012D01*
Y319274D01*
X138489Y319536D01*
X139014D01*
X139276Y319274D01*
Y318749D01*
X139014Y318487D01*
X141540Y316191D02*
Y315142D01*
X142327D01*
Y315666D01*
Y315142D01*
X143115D01*
X141540Y316716D02*
X143115D01*
Y317503D01*
X142852Y317765D01*
X142590D01*
X142327Y317503D01*
Y316716D01*
Y317503D01*
X142065Y317765D01*
X141803D01*
X141540Y317503D01*
Y316716D01*
X143115Y319077D02*
X141540D01*
X142327Y318290D01*
Y319340D01*
X146133Y325968D02*
X145083D01*
Y325181D01*
X145608D01*
X145083D01*
Y324394D01*
X146658Y325968D02*
Y324394D01*
X147445D01*
X147707Y324656D01*
Y324918D01*
X147445Y325181D01*
X146658D01*
X147445D01*
X147707Y325443D01*
Y325705D01*
X147445Y325968D01*
X146658D01*
X148232Y325705D02*
X148494Y325968D01*
X149019D01*
X149281Y325705D01*
Y325443D01*
X149019Y325181D01*
X148757D01*
X149019D01*
X149281Y324918D01*
Y324656D01*
X149019Y324394D01*
X148494D01*
X148232Y324656D01*
X153843Y328888D02*
Y327838D01*
X154631D01*
Y328363D01*
Y327838D01*
X155418D01*
X153843Y329413D02*
X155418D01*
Y330200D01*
X155155Y330462D01*
X154893D01*
X154631Y330200D01*
Y329413D01*
Y330200D01*
X154368Y330462D01*
X154106D01*
X153843Y330200D01*
Y329413D01*
X155418Y332036D02*
Y330987D01*
X154368Y332036D01*
X154106D01*
X153843Y331774D01*
Y331249D01*
X154106Y330987D01*
X157485Y328888D02*
Y327838D01*
X158272D01*
Y328363D01*
Y327838D01*
X159060D01*
X157485Y329413D02*
X159060D01*
Y330200D01*
X158797Y330462D01*
X158535D01*
X158272Y330200D01*
Y329413D01*
Y330200D01*
X158010Y330462D01*
X157748D01*
X157485Y330200D01*
Y329413D01*
X159060Y330987D02*
Y331512D01*
Y331249D01*
X157485D01*
X157748Y330987D01*
X124414Y308547D02*
Y310121D01*
X125201D01*
X125463Y309859D01*
Y309334D01*
X125201Y309072D01*
X124414D01*
X124939D02*
X125463Y308547D01*
X127038D02*
X125988D01*
X127038Y309597D01*
Y309859D01*
X126775Y310121D01*
X126251D01*
X125988Y309859D01*
X127562Y310121D02*
X128612D01*
Y309859D01*
X127562Y308809D01*
Y308547D01*
X116048Y310220D02*
Y308646D01*
X117097D01*
X117622D02*
X118147D01*
X117884D01*
Y310220D01*
X117622Y309957D01*
X188981Y318094D02*
Y316519D01*
X190030D01*
X190555Y317831D02*
X190817Y318094D01*
X191342D01*
X191605Y317831D01*
Y317569D01*
X191342Y317307D01*
X191080D01*
X191342D01*
X191605Y317044D01*
Y316782D01*
X191342Y316519D01*
X190817D01*
X190555Y316782D01*
X174119Y309137D02*
Y307563D01*
X175168D01*
X176742Y309137D02*
X175693D01*
Y308350D01*
X176218Y308612D01*
X176480D01*
X176742Y308350D01*
Y307825D01*
X176480Y307563D01*
X175955D01*
X175693Y307825D01*
X174119Y318094D02*
Y316519D01*
X175168D01*
X176742D02*
X175693D01*
X176742Y317569D01*
Y317831D01*
X176480Y318094D01*
X175955D01*
X175693Y317831D01*
X162900Y312863D02*
Y311551D01*
X163162Y311288D01*
X163687D01*
X163950Y311551D01*
Y312863D01*
X164474Y311288D02*
X164999D01*
X164737D01*
Y312863D01*
X164474Y312600D01*
X166573Y311288D02*
Y312863D01*
X165786Y312076D01*
X166836D01*
X160798Y296867D02*
X160536Y297129D01*
X160011D01*
X159748Y296867D01*
Y295817D01*
X160011Y295555D01*
X160536D01*
X160798Y295817D01*
X161323Y296867D02*
X161585Y297129D01*
X162110D01*
X162372Y296867D01*
Y296604D01*
X162110Y296342D01*
X161848D01*
X162110D01*
X162372Y296080D01*
Y295817D01*
X162110Y295555D01*
X161585D01*
X161323Y295817D01*
X162897Y297129D02*
X163947D01*
Y296867D01*
X162897Y295817D01*
Y295555D01*
X171626Y328789D02*
X171363Y328527D01*
Y328002D01*
X171626Y327740D01*
X172675D01*
X172938Y328002D01*
Y328527D01*
X172675Y328789D01*
X172938Y330364D02*
Y329314D01*
X171888Y330364D01*
X171626D01*
X171363Y330101D01*
Y329577D01*
X171626Y329314D01*
X171363Y331938D02*
X171626Y331413D01*
X172150Y330889D01*
X172675D01*
X172938Y331151D01*
Y331676D01*
X172675Y331938D01*
X172413D01*
X172150Y331676D01*
Y330889D01*
X178416Y302871D02*
X178154Y303133D01*
X177629D01*
X177367Y302871D01*
Y301821D01*
X177629Y301559D01*
X178154D01*
X178416Y301821D01*
X179990Y301559D02*
X178941D01*
X179990Y302608D01*
Y302871D01*
X179728Y303133D01*
X179203D01*
X178941Y302871D01*
X180515D02*
X180778Y303133D01*
X181302D01*
X181565Y302871D01*
Y302608D01*
X181302Y302346D01*
X181565Y302084D01*
Y301821D01*
X181302Y301559D01*
X180778D01*
X180515Y301821D01*
Y302084D01*
X180778Y302346D01*
X180515Y302608D01*
Y302871D01*
X180778Y302346D02*
X181302D01*
X163456Y328789D02*
X163194Y328527D01*
Y328002D01*
X163456Y327740D01*
X164506D01*
X164768Y328002D01*
Y328527D01*
X164506Y328789D01*
X164768Y330364D02*
Y329314D01*
X163719Y330364D01*
X163456D01*
X163194Y330101D01*
Y329577D01*
X163456Y329314D01*
X164768Y331676D02*
X163194D01*
X163981Y330889D01*
Y331938D01*
X134814Y297261D02*
X134551Y297523D01*
X134027D01*
X133764Y297261D01*
Y296211D01*
X134027Y295949D01*
X134551D01*
X134814Y296211D01*
X135339Y297261D02*
X135601Y297523D01*
X136126D01*
X136388Y297261D01*
Y296998D01*
X136126Y296736D01*
X135863D01*
X136126D01*
X136388Y296473D01*
Y296211D01*
X136126Y295949D01*
X135601D01*
X135339Y296211D01*
X136913D02*
X137175Y295949D01*
X137700D01*
X137962Y296211D01*
Y297261D01*
X137700Y297523D01*
X137175D01*
X136913Y297261D01*
Y296998D01*
X137175Y296736D01*
X137962D01*
X153023Y296965D02*
X152760Y297228D01*
X152235D01*
X151973Y296965D01*
Y295916D01*
X152235Y295653D01*
X152760D01*
X153023Y295916D01*
X153547Y296965D02*
X153810Y297228D01*
X154334D01*
X154597Y296965D01*
Y296703D01*
X154334Y296441D01*
X154072D01*
X154334D01*
X154597Y296178D01*
Y295916D01*
X154334Y295653D01*
X153810D01*
X153547Y295916D01*
X155122Y296965D02*
X155384Y297228D01*
X155909D01*
X156171Y296965D01*
Y296703D01*
X155909Y296441D01*
X156171Y296178D01*
Y295916D01*
X155909Y295653D01*
X155384D01*
X155122Y295916D01*
Y296178D01*
X155384Y296441D01*
X155122Y296703D01*
Y296965D01*
X155384Y296441D02*
X155909D01*
X145937Y316093D02*
X145674Y315830D01*
Y315305D01*
X145937Y315043D01*
X146986D01*
X147248Y315305D01*
Y315830D01*
X146986Y316093D01*
X145937Y316617D02*
X145674Y316880D01*
Y317405D01*
X145937Y317667D01*
X146199D01*
X146461Y317405D01*
Y317142D01*
Y317405D01*
X146724Y317667D01*
X146986D01*
X147248Y317405D01*
Y316880D01*
X146986Y316617D01*
X145674Y319241D02*
Y318192D01*
X146461D01*
X146199Y318717D01*
Y318979D01*
X146461Y319241D01*
X146986D01*
X147248Y318979D01*
Y318454D01*
X146986Y318192D01*
X151448Y313796D02*
X151185Y314058D01*
X150661D01*
X150398Y313796D01*
Y312747D01*
X150661Y312484D01*
X151185D01*
X151448Y312747D01*
X151972Y313796D02*
X152235Y314058D01*
X152760D01*
X153022Y313796D01*
Y313534D01*
X152760Y313271D01*
X152497D01*
X152760D01*
X153022Y313009D01*
Y312747D01*
X152760Y312484D01*
X152235D01*
X151972Y312747D01*
X153547Y313796D02*
X153809Y314058D01*
X154334D01*
X154596Y313796D01*
Y313534D01*
X154334Y313271D01*
X154071D01*
X154334D01*
X154596Y313009D01*
Y312747D01*
X154334Y312484D01*
X153809D01*
X153547Y312747D01*
X125562Y319505D02*
X125300Y319767D01*
X124775D01*
X124512Y319505D01*
Y318455D01*
X124775Y318193D01*
X125300D01*
X125562Y318455D01*
X127136Y318193D02*
X126087D01*
X127136Y319242D01*
Y319505D01*
X126874Y319767D01*
X126349D01*
X126087Y319505D01*
X127661D02*
X127923Y319767D01*
X128448D01*
X128710Y319505D01*
Y319242D01*
X128448Y318980D01*
X128186D01*
X128448D01*
X128710Y318718D01*
Y318455D01*
X128448Y318193D01*
X127923D01*
X127661Y318455D01*
X217750Y318100D02*
X217487Y318363D01*
X216962D01*
X216700Y318100D01*
Y317051D01*
X216962Y316789D01*
X217487D01*
X217750Y317051D01*
X219324Y316789D02*
X218274D01*
X219324Y317838D01*
Y318100D01*
X219061Y318363D01*
X218537D01*
X218274Y318100D01*
X220898Y318363D02*
X219849D01*
Y317576D01*
X220373Y317838D01*
X220636D01*
X220898Y317576D01*
Y317051D01*
X220636Y316789D01*
X220111D01*
X219849Y317051D01*
X203613Y317733D02*
X203351Y317995D01*
X202826D01*
X202564Y317733D01*
Y316684D01*
X202826Y316421D01*
X203351D01*
X203613Y316684D01*
X205187Y316421D02*
X204138D01*
X205187Y317471D01*
Y317733D01*
X204925Y317995D01*
X204400D01*
X204138Y317733D01*
X205712Y317995D02*
X206762D01*
Y317733D01*
X205712Y316684D01*
Y316421D01*
X199873Y306217D02*
X199610Y306480D01*
X199086D01*
X198823Y306217D01*
Y305168D01*
X199086Y304905D01*
X199610D01*
X199873Y305168D01*
X200398Y306217D02*
X200660Y306480D01*
X201185D01*
X201447Y306217D01*
Y305955D01*
X201185Y305693D01*
X200922D01*
X201185D01*
X201447Y305430D01*
Y305168D01*
X201185Y304905D01*
X200660D01*
X200398Y305168D01*
X201972Y306217D02*
X202234Y306480D01*
X202759D01*
X203022Y306217D01*
Y305168D01*
X202759Y304905D01*
X202234D01*
X201972Y305168D01*
Y306217D01*
X191999Y306119D02*
X191736Y306381D01*
X191212D01*
X190949Y306119D01*
Y305069D01*
X191212Y304807D01*
X191736D01*
X191999Y305069D01*
X192524Y306119D02*
X192786Y306381D01*
X193311D01*
X193573Y306119D01*
Y305856D01*
X193311Y305594D01*
X193048D01*
X193311D01*
X193573Y305332D01*
Y305069D01*
X193311Y304807D01*
X192786D01*
X192524Y305069D01*
X194098Y304807D02*
X194623D01*
X194360D01*
Y306381D01*
X194098Y306119D01*
X186488Y305168D02*
X186225Y304905D01*
Y304380D01*
X186488Y304118D01*
X187537D01*
X187800Y304380D01*
Y304905D01*
X187537Y305168D01*
X186488Y305692D02*
X186225Y305955D01*
Y306479D01*
X186488Y306742D01*
X186750D01*
X187013Y306479D01*
Y306217D01*
Y306479D01*
X187275Y306742D01*
X187537D01*
X187800Y306479D01*
Y305955D01*
X187537Y305692D01*
X186225Y308316D02*
X186488Y307791D01*
X187013Y307266D01*
X187537D01*
X187800Y307529D01*
Y308054D01*
X187537Y308316D01*
X187275D01*
X187013Y308054D01*
Y307266D01*
X175366Y311467D02*
X175103Y311204D01*
Y310680D01*
X175366Y310417D01*
X176415D01*
X176678Y310680D01*
Y311204D01*
X176415Y311467D01*
X176678Y313041D02*
Y311991D01*
X175628Y313041D01*
X175366D01*
X175103Y312779D01*
Y312254D01*
X175366Y311991D01*
X176415Y313566D02*
X176678Y313828D01*
Y314353D01*
X176415Y314615D01*
X175366D01*
X175103Y314353D01*
Y313828D01*
X175366Y313566D01*
X175628D01*
X175891Y313828D01*
Y314615D01*
X130910Y209827D02*
Y211401D01*
X131697D01*
X131959Y211139D01*
Y210614D01*
X131697Y210351D01*
X130910D01*
X131435D02*
X131959Y209827D01*
X133534D02*
X132484D01*
X133534Y210876D01*
Y211139D01*
X133271Y211401D01*
X132747D01*
X132484Y211139D01*
X135108Y209827D02*
X134058D01*
X135108Y210876D01*
Y211139D01*
X134846Y211401D01*
X134321D01*
X134058Y211139D01*
X107900Y226089D02*
Y227663D01*
X108687D01*
X108949Y227400D01*
Y226876D01*
X108687Y226613D01*
X107900D01*
X108425D02*
X108949Y226089D01*
X110524D02*
X109474D01*
X110524Y227138D01*
Y227400D01*
X110261Y227663D01*
X109737D01*
X109474Y227400D01*
X112098Y227663D02*
X111573Y227400D01*
X111049Y226876D01*
Y226351D01*
X111311Y226089D01*
X111836D01*
X112098Y226351D01*
Y226613D01*
X111836Y226876D01*
X111049D01*
X95800Y226089D02*
Y227663D01*
X96587D01*
X96850Y227400D01*
Y226876D01*
X96587Y226613D01*
X95800D01*
X96325D02*
X96850Y226089D01*
X98424D02*
X97374D01*
X98424Y227138D01*
Y227400D01*
X98161Y227663D01*
X97637D01*
X97374Y227400D01*
X99998Y227663D02*
X98949D01*
Y226876D01*
X99473Y227138D01*
X99736D01*
X99998Y226876D01*
Y226351D01*
X99736Y226089D01*
X99211D01*
X98949Y226351D01*
X96200Y245489D02*
Y247063D01*
X96987D01*
X97250Y246800D01*
Y246276D01*
X96987Y246013D01*
X96200D01*
X96725D02*
X97250Y245489D01*
X98824D02*
X97774D01*
X98824Y246538D01*
Y246800D01*
X98561Y247063D01*
X98037D01*
X97774Y246800D01*
X100136Y245489D02*
Y247063D01*
X99349Y246276D01*
X100398D01*
X110800Y241189D02*
Y242763D01*
X111587D01*
X111849Y242500D01*
Y241976D01*
X111587Y241713D01*
X110800D01*
X111325D02*
X111849Y241189D01*
X113424D02*
X112374D01*
X113424Y242238D01*
Y242500D01*
X113161Y242763D01*
X112637D01*
X112374Y242500D01*
X113949D02*
X114211Y242763D01*
X114736D01*
X114998Y242500D01*
Y241451D01*
X114736Y241189D01*
X114211D01*
X113949Y241451D01*
Y242500D01*
X131008Y233646D02*
Y235220D01*
X131796D01*
X132058Y234957D01*
Y234433D01*
X131796Y234170D01*
X131008D01*
X131533D02*
X132058Y233646D01*
X133632D02*
X132583D01*
X133632Y234695D01*
Y234957D01*
X133370Y235220D01*
X132845D01*
X132583Y234957D01*
X134157D02*
X134419Y235220D01*
X134944D01*
X135206Y234957D01*
Y234695D01*
X134944Y234433D01*
X134682D01*
X134944D01*
X135206Y234170D01*
Y233908D01*
X134944Y233646D01*
X134419D01*
X134157Y233908D01*
X152400Y209889D02*
Y211463D01*
X153187D01*
X153449Y211200D01*
Y210676D01*
X153187Y210413D01*
X152400D01*
X152925D02*
X153449Y209889D01*
X153974D02*
X154499D01*
X154237D01*
Y211463D01*
X153974Y211200D01*
X155286Y210151D02*
X155549Y209889D01*
X156073D01*
X156336Y210151D01*
Y211200D01*
X156073Y211463D01*
X155549D01*
X155286Y211200D01*
Y210938D01*
X155549Y210676D01*
X156336D01*
X95400Y238163D02*
Y236851D01*
X95662Y236589D01*
X96187D01*
X96450Y236851D01*
Y238163D01*
X96974Y236589D02*
X97499D01*
X97237D01*
Y238163D01*
X96974Y237900D01*
X98286D02*
X98549Y238163D01*
X99073D01*
X99336Y237900D01*
Y237638D01*
X99073Y237376D01*
X98811D01*
X99073D01*
X99336Y237113D01*
Y236851D01*
X99073Y236589D01*
X98549D01*
X98286Y236851D01*
X120000Y216063D02*
Y214751D01*
X120262Y214489D01*
X120787D01*
X121049Y214751D01*
Y216063D01*
X121574Y214489D02*
X122099D01*
X121837D01*
Y216063D01*
X121574Y215800D01*
X123936Y214489D02*
X122886D01*
X123936Y215538D01*
Y215800D01*
X123673Y216063D01*
X123149D01*
X122886Y215800D01*
X122800Y230663D02*
Y229351D01*
X123062Y229088D01*
X123587D01*
X123849Y229351D01*
Y230663D01*
X124374Y229088D02*
X124899D01*
X124637D01*
Y230663D01*
X124374Y230400D01*
X125686Y229088D02*
X126211D01*
X125949D01*
Y230663D01*
X125686Y230400D01*
X150400Y223863D02*
Y222551D01*
X150662Y222288D01*
X151187D01*
X151450Y222551D01*
Y223863D01*
X151974Y222551D02*
X152237Y222288D01*
X152761D01*
X153024Y222551D01*
Y223600D01*
X152761Y223863D01*
X152237D01*
X151974Y223600D01*
Y223338D01*
X152237Y223076D01*
X153024D01*
X108830Y235253D02*
X108567Y235515D01*
X108042D01*
X107780Y235253D01*
Y234203D01*
X108042Y233941D01*
X108567D01*
X108830Y234203D01*
X110404Y233941D02*
X109354D01*
X110404Y234990D01*
Y235253D01*
X110142Y235515D01*
X109617D01*
X109354Y235253D01*
X111978Y233941D02*
X110929D01*
X111978Y234990D01*
Y235253D01*
X111716Y235515D01*
X111191D01*
X110929Y235253D01*
X84125Y236335D02*
X83863Y236598D01*
X83338D01*
X83075Y236335D01*
Y235286D01*
X83338Y235023D01*
X83863D01*
X84125Y235286D01*
X85699Y235023D02*
X84650D01*
X85699Y236073D01*
Y236335D01*
X85437Y236598D01*
X84912D01*
X84650Y236335D01*
X86224Y235023D02*
X86749D01*
X86486D01*
Y236598D01*
X86224Y236335D01*
X84617Y241847D02*
X84355Y242110D01*
X83830D01*
X83567Y241847D01*
Y240798D01*
X83830Y240535D01*
X84355D01*
X84617Y240798D01*
X86191Y240535D02*
X85142D01*
X86191Y241585D01*
Y241847D01*
X85929Y242110D01*
X85404D01*
X85142Y241847D01*
X86716D02*
X86978Y242110D01*
X87503D01*
X87766Y241847D01*
Y240798D01*
X87503Y240535D01*
X86978D01*
X86716Y240798D01*
Y241847D01*
X129645Y205104D02*
X129383Y204842D01*
Y204317D01*
X129645Y204055D01*
X130695D01*
X130957Y204317D01*
Y204842D01*
X130695Y205104D01*
X130957Y205629D02*
Y206154D01*
Y205892D01*
X129383D01*
X129645Y205629D01*
Y206941D02*
X129383Y207204D01*
Y207728D01*
X129645Y207991D01*
X129908D01*
X130170Y207728D01*
X130432Y207991D01*
X130695D01*
X130957Y207728D01*
Y207204D01*
X130695Y206941D01*
X130432D01*
X130170Y207204D01*
X129908Y206941D01*
X129645D01*
X130170Y207204D02*
Y207728D01*
X116900Y236237D02*
X116638Y236499D01*
X116113D01*
X115851Y236237D01*
Y235187D01*
X116113Y234925D01*
X116638D01*
X116900Y235187D01*
X117425Y234925D02*
X117950D01*
X117688D01*
Y236499D01*
X117425Y236237D01*
X119787Y236499D02*
X119262Y236237D01*
X118737Y235712D01*
Y235187D01*
X119000Y234925D01*
X119524D01*
X119787Y235187D01*
Y235450D01*
X119524Y235712D01*
X118737D01*
X139440Y210942D02*
X139177Y211204D01*
X138653D01*
X138390Y210942D01*
Y209892D01*
X138653Y209630D01*
X139177D01*
X139440Y209892D01*
X139965Y209630D02*
X140489D01*
X140227D01*
Y211204D01*
X139965Y210942D01*
X142326Y211204D02*
X141277D01*
Y210417D01*
X141801Y210679D01*
X142064D01*
X142326Y210417D01*
Y209892D01*
X142064Y209630D01*
X141539D01*
X141277Y209892D01*
X117618Y180069D02*
Y181644D01*
X118405D01*
X118668Y181381D01*
Y180857D01*
X118405Y180594D01*
X117618D01*
X118143D02*
X118668Y180069D01*
X120242D02*
X119192D01*
X120242Y181119D01*
Y181381D01*
X119980Y181644D01*
X119455D01*
X119192Y181381D01*
X120767Y180069D02*
X121291D01*
X121029D01*
Y181644D01*
X120767Y181381D01*
X166048Y185712D02*
Y187287D01*
X166835D01*
X167097Y187024D01*
Y186500D01*
X166835Y186237D01*
X166048D01*
X166572D02*
X167097Y185712D01*
X167622D02*
X168147D01*
X167884D01*
Y187287D01*
X167622Y187024D01*
X168934D02*
X169196Y187287D01*
X169721D01*
X169983Y187024D01*
Y186762D01*
X169721Y186500D01*
X169983Y186237D01*
Y185975D01*
X169721Y185712D01*
X169196D01*
X168934Y185975D01*
Y186237D01*
X169196Y186500D01*
X168934Y186762D01*
Y187024D01*
X169196Y186500D02*
X169721D01*
X115000Y198463D02*
Y197151D01*
X115262Y196888D01*
X115787D01*
X116050Y197151D01*
Y198463D01*
X116574Y196888D02*
X117099D01*
X116837D01*
Y198463D01*
X116574Y198200D01*
X117886D02*
X118149Y198463D01*
X118673D01*
X118936Y198200D01*
Y197151D01*
X118673Y196888D01*
X118149D01*
X117886Y197151D01*
Y198200D01*
X150400Y198463D02*
Y197151D01*
X150662Y196888D01*
X151187D01*
X151450Y197151D01*
Y198463D01*
X151974Y198200D02*
X152237Y198463D01*
X152761D01*
X153024Y198200D01*
Y197938D01*
X152761Y197676D01*
X153024Y197413D01*
Y197151D01*
X152761Y196888D01*
X152237D01*
X151974Y197151D01*
Y197413D01*
X152237Y197676D01*
X151974Y197938D01*
Y198200D01*
X152237Y197676D02*
X152761D01*
X112373Y213501D02*
X112110Y213763D01*
X111586D01*
X111323Y213501D01*
Y212451D01*
X111586Y212189D01*
X112110D01*
X112373Y212451D01*
X112898Y212189D02*
X113422D01*
X113160D01*
Y213763D01*
X112898Y213501D01*
X114209Y212451D02*
X114472Y212189D01*
X114997D01*
X115259Y212451D01*
Y213501D01*
X114997Y213763D01*
X114472D01*
X114209Y213501D01*
Y213238D01*
X114472Y212976D01*
X115259D01*
X107841Y180496D02*
X107579Y180758D01*
X107054D01*
X106791Y180496D01*
Y179446D01*
X107054Y179184D01*
X107579D01*
X107841Y179446D01*
X108366Y179184D02*
X108890D01*
X108628D01*
Y180758D01*
X108366Y180496D01*
X109678Y180758D02*
X110727D01*
Y180496D01*
X109678Y179446D01*
Y179184D01*
X133042Y199918D02*
X132780Y200180D01*
X132255D01*
X131993Y199918D01*
Y198869D01*
X132255Y198606D01*
X132780D01*
X133042Y198869D01*
X133567Y198606D02*
X134092D01*
X133829D01*
Y200180D01*
X133567Y199918D01*
X135666Y198606D02*
Y200180D01*
X134879Y199393D01*
X135928D01*
X152137Y180922D02*
X151874Y181184D01*
X151349D01*
X151087Y180922D01*
Y179873D01*
X151349Y179610D01*
X151874D01*
X152137Y179873D01*
X152661Y179610D02*
X153186D01*
X152924D01*
Y181184D01*
X152661Y180922D01*
X153973D02*
X154236Y181184D01*
X154761D01*
X155023Y180922D01*
Y180660D01*
X154761Y180397D01*
X154498D01*
X154761D01*
X155023Y180135D01*
Y179873D01*
X154761Y179610D01*
X154236D01*
X153973Y179873D01*
X119197Y116913D02*
Y118488D01*
X119984D01*
X120247Y118225D01*
Y117700D01*
X119984Y117438D01*
X119197D01*
X119722D02*
X120247Y116913D01*
X120772D02*
X121296D01*
X121034D01*
Y118488D01*
X120772Y118225D01*
X122083Y118488D02*
X123133D01*
Y118225D01*
X122083Y117176D01*
Y116913D01*
X184748Y163271D02*
Y164846D01*
X185536D01*
X185798Y164583D01*
Y164059D01*
X185536Y163796D01*
X184748D01*
X185273D02*
X185798Y163271D01*
X186323D02*
X186848D01*
X186585D01*
Y164846D01*
X186323Y164583D01*
X188684Y164846D02*
X188160Y164583D01*
X187635Y164059D01*
Y163534D01*
X187897Y163271D01*
X188422D01*
X188684Y163534D01*
Y163796D01*
X188422Y164059D01*
X187635D01*
X109355Y126854D02*
Y128428D01*
X110142D01*
X110404Y128166D01*
Y127641D01*
X110142Y127379D01*
X109355D01*
X109880D02*
X110404Y126854D01*
X110929D02*
X111454D01*
X111191D01*
Y128428D01*
X110929Y128166D01*
X113291Y128428D02*
X112241D01*
Y127641D01*
X112766Y127904D01*
X113028D01*
X113291Y127641D01*
Y127117D01*
X113028Y126854D01*
X112503D01*
X112241Y127117D01*
X101400Y126063D02*
Y124751D01*
X101662Y124488D01*
X102187D01*
X102450Y124751D01*
Y126063D01*
X104024D02*
X103499Y125800D01*
X102974Y125276D01*
Y124751D01*
X103237Y124488D01*
X103761D01*
X104024Y124751D01*
Y125013D01*
X103761Y125276D01*
X102974D01*
X137800Y151163D02*
Y149851D01*
X138062Y149588D01*
X138587D01*
X138849Y149851D01*
Y151163D01*
X139374D02*
X140424D01*
Y150900D01*
X139374Y149851D01*
Y149588D01*
X140621Y181808D02*
X140358Y182070D01*
X139834D01*
X139571Y181808D01*
Y180758D01*
X139834Y180496D01*
X140358D01*
X140621Y180758D01*
X141146Y180496D02*
X141670D01*
X141408D01*
Y182070D01*
X141146Y181808D01*
X143507Y180496D02*
X142458D01*
X143507Y181545D01*
Y181808D01*
X143245Y182070D01*
X142720D01*
X142458Y181808D01*
X109519Y152477D02*
X109256Y152740D01*
X108731D01*
X108469Y152477D01*
Y151428D01*
X108731Y151165D01*
X109256D01*
X109519Y151428D01*
X110043Y151165D02*
X110568D01*
X110306D01*
Y152740D01*
X110043Y152477D01*
X111355Y151165D02*
X111880D01*
X111618D01*
Y152740D01*
X111355Y152477D01*
X144755Y117438D02*
X144492Y117700D01*
X143968D01*
X143705Y117438D01*
Y116388D01*
X143968Y116126D01*
X144492D01*
X144755Y116388D01*
X145280Y116126D02*
X145804D01*
X145542D01*
Y117700D01*
X145280Y117438D01*
X146591D02*
X146854Y117700D01*
X147379D01*
X147641Y117438D01*
Y116388D01*
X147379Y116126D01*
X146854D01*
X146591Y116388D01*
Y117438D01*
X170641Y162910D02*
X170378Y163173D01*
X169853D01*
X169591Y162910D01*
Y161861D01*
X169853Y161598D01*
X170378D01*
X170641Y161861D01*
X171165D02*
X171428Y161598D01*
X171952D01*
X172215Y161861D01*
Y162910D01*
X171952Y163173D01*
X171428D01*
X171165Y162910D01*
Y162648D01*
X171428Y162385D01*
X172215D01*
X111093Y117635D02*
X110831Y117897D01*
X110306D01*
X110044Y117635D01*
Y116585D01*
X110306Y116323D01*
X110831D01*
X111093Y116585D01*
X111618Y117635D02*
X111881Y117897D01*
X112405D01*
X112668Y117635D01*
Y117372D01*
X112405Y117110D01*
X112668Y116847D01*
Y116585D01*
X112405Y116323D01*
X111881D01*
X111618Y116585D01*
Y116847D01*
X111881Y117110D01*
X111618Y117372D01*
Y117635D01*
X111881Y117110D02*
X112405D01*
X109055Y301329D02*
X110105Y299755D01*
Y301329D02*
X109055Y299755D01*
X110629Y301066D02*
X110892Y301329D01*
X111417D01*
X111679Y301066D01*
Y300804D01*
X111417Y300542D01*
X111154D01*
X111417D01*
X111679Y300279D01*
Y300017D01*
X111417Y299755D01*
X110892D01*
X110629Y300017D01*
X113253Y299755D02*
X112204D01*
X113253Y300804D01*
Y301066D01*
X112991Y301329D01*
X112466D01*
X112204Y301066D01*
X99803Y300738D02*
X100853Y299164D01*
Y300738D02*
X99803Y299164D01*
X101377Y300476D02*
X101640Y300738D01*
X102165D01*
X102427Y300476D01*
Y300214D01*
X102165Y299951D01*
X101902D01*
X102165D01*
X102427Y299689D01*
Y299426D01*
X102165Y299164D01*
X101640D01*
X101377Y299426D01*
X102952Y299164D02*
X103477D01*
X103214D01*
Y300738D01*
X102952Y300476D01*
X198626Y330003D02*
X199676Y328429D01*
Y330003D02*
X198626Y328429D01*
X200201D02*
X200726D01*
X200463D01*
Y330003D01*
X200201Y329741D01*
X202562Y328429D02*
X201513D01*
X202562Y329479D01*
Y329741D01*
X202300Y330003D01*
X201775D01*
X201513Y329741D01*
X219886Y329708D02*
X220936Y328134D01*
Y329708D02*
X219886Y328134D01*
X221461D02*
X221985D01*
X221723D01*
Y329708D01*
X221461Y329446D01*
X222773Y328134D02*
X223297D01*
X223035D01*
Y329708D01*
X222773Y329446D01*
X207600Y311563D02*
X208649Y309988D01*
Y311563D02*
X207600Y309988D01*
X209961D02*
Y311563D01*
X209174Y310776D01*
X210224D01*
X90700Y296063D02*
X91750Y294489D01*
Y296063D02*
X90700Y294489D01*
X92274Y295800D02*
X92537Y296063D01*
X93061D01*
X93324Y295800D01*
Y295538D01*
X93061Y295276D01*
X92799D01*
X93061D01*
X93324Y295013D01*
Y294751D01*
X93061Y294489D01*
X92537D01*
X92274Y294751D01*
X207800Y327063D02*
X208850Y325488D01*
Y327063D02*
X207800Y325488D01*
X209374D02*
X209899D01*
X209637D01*
Y327063D01*
X209374Y326800D01*
X105123Y305890D02*
Y307464D01*
X105910D01*
X106172Y307202D01*
Y306677D01*
X105910Y306414D01*
X105123D01*
X105647D02*
X106172Y305890D01*
X106697Y307202D02*
X106959Y307464D01*
X107484D01*
X107746Y307202D01*
Y306939D01*
X107484Y306677D01*
X107746Y306414D01*
Y306152D01*
X107484Y305890D01*
X106959D01*
X106697Y306152D01*
Y306414D01*
X106959Y306677D01*
X106697Y306939D01*
Y307202D01*
X106959Y306677D02*
X107484D01*
X95083Y305988D02*
Y307562D01*
X95870D01*
X96133Y307300D01*
Y306775D01*
X95870Y306513D01*
X95083D01*
X95608D02*
X96133Y305988D01*
X96658Y307562D02*
X97707D01*
Y307300D01*
X96658Y306250D01*
Y305988D01*
X100103Y305890D02*
Y307464D01*
X100890D01*
X101152Y307202D01*
Y306677D01*
X100890Y306414D01*
X100103D01*
X100628D02*
X101152Y305890D01*
X102727Y307464D02*
X101677D01*
Y306677D01*
X102202Y306939D01*
X102464D01*
X102727Y306677D01*
Y306152D01*
X102464Y305890D01*
X101939D01*
X101677Y306152D01*
X109650Y305890D02*
Y307464D01*
X110437D01*
X110700Y307202D01*
Y306677D01*
X110437Y306414D01*
X109650D01*
X110175D02*
X110700Y305890D01*
X112274Y307464D02*
X111749Y307202D01*
X111224Y306677D01*
Y306152D01*
X111487Y305890D01*
X112012D01*
X112274Y306152D01*
Y306414D01*
X112012Y306677D01*
X111224D01*
X208174Y294079D02*
X206599D01*
Y294866D01*
X206862Y295128D01*
X207387D01*
X207649Y294866D01*
Y294079D01*
Y294603D02*
X208174Y295128D01*
X206862Y295653D02*
X206599Y295915D01*
Y296440D01*
X206862Y296702D01*
X207124D01*
X207387Y296440D01*
Y296178D01*
Y296440D01*
X207649Y296702D01*
X207911D01*
X208174Y296440D01*
Y295915D01*
X207911Y295653D01*
X194000Y294079D02*
X192426D01*
Y294866D01*
X192689Y295128D01*
X193213D01*
X193476Y294866D01*
Y294079D01*
Y294603D02*
X194000Y295128D01*
Y296440D02*
X192426D01*
X193213Y295653D01*
Y296702D01*
X198626Y294079D02*
X197052D01*
Y294866D01*
X197315Y295128D01*
X197839D01*
X198102Y294866D01*
Y294079D01*
Y294603D02*
X198626Y295128D01*
Y296702D02*
Y295653D01*
X197577Y296702D01*
X197315D01*
X197052Y296440D01*
Y295915D01*
X197315Y295653D01*
X203253Y294472D02*
X201678D01*
Y295259D01*
X201941Y295522D01*
X202465D01*
X202728Y295259D01*
Y294472D01*
Y294997D02*
X203253Y295522D01*
Y296047D02*
Y296571D01*
Y296309D01*
X201678D01*
X201941Y296047D01*
X196067Y318291D02*
Y316716D01*
X197117D01*
X198429D02*
Y318291D01*
X197642Y317503D01*
X198691D01*
X183732Y316585D02*
X183469Y316322D01*
Y315798D01*
X183732Y315535D01*
X184781D01*
X185044Y315798D01*
Y316322D01*
X184781Y316585D01*
X183732Y317110D02*
X183469Y317372D01*
Y317897D01*
X183732Y318159D01*
X183994D01*
X184257Y317897D01*
Y317634D01*
Y317897D01*
X184519Y318159D01*
X184781D01*
X185044Y317897D01*
Y317372D01*
X184781Y317110D01*
X185044Y319733D02*
Y318684D01*
X183994Y319733D01*
X183732D01*
X183469Y319471D01*
Y318946D01*
X183732Y318684D01*
X94296Y66913D02*
Y68488D01*
X95083D01*
X95345Y68225D01*
Y67700D01*
X95083Y67438D01*
X94296D01*
X94820D02*
X95345Y66913D01*
X95870D02*
X96395D01*
X96132D01*
Y68488D01*
X95870Y68225D01*
X98232Y66913D02*
X97182D01*
X98232Y67963D01*
Y68225D01*
X97969Y68488D01*
X97444D01*
X97182Y68225D01*
X98756Y68488D02*
X99806D01*
Y68225D01*
X98756Y67176D01*
Y66913D01*
X248000Y161763D02*
Y160188D01*
Y160976D01*
X249049D01*
Y161763D01*
Y160188D01*
X249574D02*
X250099D01*
X249837D01*
Y161763D01*
X249574Y161500D01*
X90700Y326870D02*
X91750Y325295D01*
Y326870D02*
X90700Y325295D01*
X93324Y326870D02*
X92274D01*
Y326083D01*
X92799Y326345D01*
X93061D01*
X93324Y326083D01*
Y325558D01*
X93061Y325295D01*
X92537D01*
X92274Y325558D01*
D12*
X72804Y319288D02*
Y318039D01*
X73054Y317789D01*
X73554D01*
X73804Y318039D01*
Y319288D01*
X75304D02*
X74304D01*
Y318539D01*
X74804Y318789D01*
X75054D01*
X75304Y318539D01*
Y318039D01*
X75054Y317789D01*
X74554D01*
X74304Y318039D01*
X167600Y239203D02*
X167433Y239370D01*
X167100D01*
X166934Y239203D01*
Y238537D01*
X167100Y238370D01*
X167433D01*
X167600Y238537D01*
X168600Y239370D02*
X167933D01*
Y238870D01*
X168266Y239036D01*
X168433D01*
X168600Y238870D01*
Y238537D01*
X168433Y238370D01*
X168100D01*
X167933Y238537D01*
X168933D02*
X169099Y238370D01*
X169433D01*
X169599Y238537D01*
Y239203D01*
X169433Y239370D01*
X169099D01*
X168933Y239203D01*
Y239036D01*
X169099Y238870D01*
X169599D01*
D13*
X322854Y39026D02*
G03*
X322854Y39026I-7894J0D01*
G01*
X23642D02*
G03*
X23642Y39026I-7894J0D01*
G01*
Y330365D02*
G03*
X23642Y330365I-7894J0D01*
G01*
X69337Y332640D02*
G03*
X59337Y322640I0J-10000D01*
G01*
X130544Y332640D02*
G03*
X130544Y340514I0J3937D01*
G01*
X158130D02*
G03*
X158130Y332640I0J-3937D01*
G01*
X31501Y243643D02*
G03*
X39375Y243643I3937J0D01*
G01*
Y216057D02*
G03*
X31501Y216057I-3937J0D01*
G01*
X39375Y146837D02*
G03*
X31501Y146837I-3937J0D01*
G01*
Y174423D02*
G03*
X39375Y174423I3937J0D01*
G01*
Y77617D02*
G03*
X31501Y77617I-3937J0D01*
G01*
Y105203D02*
G03*
X39375Y105203I3937J0D01*
G01*
X301229Y189965D02*
G03*
X293355Y189965I-3937J0D01*
G01*
Y217550D02*
G03*
X301229Y217550I3937J0D01*
G01*
Y102560D02*
G03*
X293355Y102560I-3937J0D01*
G01*
Y130145D02*
G03*
X301229Y130145I3937J0D01*
G01*
X176885Y39059D02*
G03*
X176885Y31185I0J-3937D01*
G01*
X149299D02*
G03*
X149299Y39059I0J3937D01*
G01*
X322859Y330398D02*
G03*
X322859Y330398I-7894J0D01*
G01*
X23646D02*
G03*
X23646Y330398I-7894J0D01*
G01*
X293355Y247055D02*
G03*
X287355Y253055I-6000J0D01*
G01*
Y67055D02*
G03*
X293355Y73055I0J6000D01*
G01*
X215337Y67055D02*
G03*
X215093Y67045I0J-3000D01*
G01*
X42375Y253055D02*
G03*
X39375Y250055I0J-3000D01*
G01*
Y209645D02*
G03*
X42375Y206645I3000J0D01*
G01*
X59337Y298140D02*
G03*
X69337Y288140I10000J0D01*
G01*
X111837D02*
G03*
X114837Y291140I0J3000D01*
G01*
X173837Y296140D02*
G03*
X170837Y296140I-1500J0D01*
G01*
X173837Y291140D02*
G03*
X176837Y288140I3000J-0D01*
G01*
X229337Y322640D02*
G03*
X219337Y332640I-10000J0D01*
G01*
X117837Y296140D02*
G03*
X114837Y296140I-1500J0D01*
G01*
X69337Y332640D02*
G03*
X59337Y322640I0J-10000D01*
G01*
X219337Y288140D02*
G03*
X229337Y298140I-0J10000D01*
G01*
X98337Y46055D02*
G03*
X92337Y46055I-3000J0D01*
G01*
X86799Y39362D02*
G03*
X92337Y43055I1539J3692D01*
G01*
X68694Y62439D02*
G03*
X86799Y39362I29643J4615D01*
G01*
X72646Y67055D02*
G03*
X68694Y62439I0J-4000D01*
G01*
X78337Y67055D02*
G03*
X81328Y69825I0J3000D01*
G01*
D02*
G03*
X78337Y72595I-2991J-230D01*
G01*
X170837Y249118D02*
G03*
X173837Y249118I1500J0D01*
G01*
X214932Y67027D02*
G03*
X214921Y61084I405J-2973D01*
G01*
X81337Y134425D02*
G03*
X78337Y137425I-3000J0D01*
G01*
Y183835D02*
G03*
X81337Y186835I0J3000D01*
G01*
X78337Y114615D02*
G03*
X81337Y117615I0J3000D01*
G01*
Y203645D02*
G03*
X78337Y206645I-3000J0D01*
G01*
X200347Y39059D02*
G03*
X201887Y39367I0J4000D01*
G01*
X121837Y43059D02*
G03*
X125837Y39059I4000J0D01*
G01*
X218062Y55595D02*
G03*
X214921Y61084I-3697J1528D01*
G01*
X201887Y39367D02*
G03*
X218062Y55595I-11550J27688D01*
G01*
X121837Y46055D02*
G03*
X115837Y46055I-3000J0D01*
G01*
X114837Y249118D02*
G03*
X117837Y249118I1500J0D01*
G01*
X66809Y72595D02*
G03*
X64854Y70855I0J-1969D01*
G01*
X61875Y68205D02*
G03*
X64854Y70855I0J3000D01*
G01*
X39375Y71205D02*
G03*
X42375Y68205I3000J0D01*
G01*
Y114615D02*
G03*
X39375Y111615I0J-3000D01*
G01*
X42375Y183835D02*
G03*
X39375Y180835I0J-3000D01*
G01*
Y140425D02*
G03*
X42375Y137425I3000J0D01*
G01*
X51463Y298140D02*
G03*
X69337Y280266I17874J0D01*
G01*
Y340514D02*
G03*
X51463Y322640I0J-17874D01*
G01*
X237211D02*
G03*
X219337Y340514I-17874J0D01*
G01*
Y280266D02*
G03*
X237211Y298140I-0J17874D01*
G01*
X42375Y260929D02*
G03*
X31501Y250055I0J-10874D01*
G01*
Y209645D02*
G03*
X42375Y198771I10874J0D01*
G01*
Y191709D02*
G03*
X31501Y180835I0J-10874D01*
G01*
Y140425D02*
G03*
X42375Y129551I10874J0D01*
G01*
Y122489D02*
G03*
X31501Y111615I0J-10874D01*
G01*
Y71205D02*
G03*
X42375Y60331I10874J0D01*
G01*
X61065D02*
G03*
X83770Y32094I37272J6724D01*
G01*
X83770Y32094D02*
G03*
X88650Y31185I4567J10961D01*
G01*
X202494Y31185D02*
G03*
X227384Y59181I-12157J35870D01*
G01*
X287355D02*
G03*
X301229Y73055I0J13874D01*
G01*
Y247055D02*
G03*
X287355Y260929I-13874J0D01*
G01*
X59337Y322640D02*
X59337D01*
X238236Y67055D02*
X287355D01*
X238236Y253055D02*
X287355D01*
X293355Y73055D02*
Y102570D01*
X215337Y67055D02*
X223132D01*
X215093Y253055D02*
X223132D01*
X78214Y72595D02*
X78227D01*
X78214Y114615D02*
X78227D01*
X78214Y137425D02*
X78227D01*
X78214Y183835D02*
X78227D01*
X78214Y206645D02*
X78227D01*
X78214Y253055D02*
X114837D01*
X117837Y251874D02*
Y252679D01*
X170837Y251874D02*
Y252679D01*
X173837Y253055D02*
X215093D01*
X214932Y67027D02*
X215093Y67045D01*
X70871Y114615D02*
X72649D01*
X70871Y72595D02*
X72649D01*
X170837Y292867D02*
Y292873D01*
X117837Y292867D02*
Y292873D01*
X170837Y284827D02*
Y292867D01*
X117837Y284827D02*
Y292867D01*
X72649Y72595D02*
X78214D01*
X72649Y114615D02*
X78214D01*
X70871Y137425D02*
X72649D01*
X70871Y183835D02*
X72649D01*
X70871Y253055D02*
X72649D01*
X70871Y206645D02*
X72649D01*
Y137425D02*
X78214D01*
X72649Y183835D02*
X78214D01*
X170837Y257368D02*
Y262504D01*
X117837Y257368D02*
Y262504D01*
X233133Y67055D02*
X238236D01*
X223132Y253055D02*
X238236D01*
X72649Y206645D02*
X78214D01*
X72649Y253055D02*
X78214D01*
X117837Y252679D02*
Y257368D01*
X170837Y252679D02*
Y257368D01*
Y267194D02*
Y284827D01*
X117837Y267194D02*
Y284827D01*
Y262504D02*
Y267194D01*
X170837Y262504D02*
Y267194D01*
X42375Y253055D02*
X70871D01*
X42375Y206645D02*
X70871D01*
X223132Y67055D02*
X233133D01*
X173837Y291140D02*
Y296140D01*
X170837Y292873D02*
Y296140D01*
X69337Y288140D02*
X111837D01*
X59337Y298140D02*
Y322640D01*
X114837Y291140D02*
Y296140D01*
X117837Y292873D02*
Y296140D01*
X69337Y332641D02*
X130553D01*
X229337Y298140D02*
Y322640D01*
X176837Y288140D02*
X219337D01*
X92337Y43055D02*
Y46055D01*
X72646Y67055D02*
X78337D01*
X78227Y72595D02*
X78337D01*
X78227Y114615D02*
X78337D01*
X170837Y249118D02*
Y251874D01*
X173837Y249118D02*
Y253055D01*
X115837Y44413D02*
Y46055D01*
X98337Y44413D02*
X115837D01*
X98337D02*
Y46055D01*
X78227Y206645D02*
X78337D01*
X78227Y253055D02*
X114837Y253055D01*
X81337Y117615D02*
Y134425D01*
X78227Y137425D02*
X78337D01*
X78227Y183835D02*
X78337D01*
X125837Y39059D02*
X149312D01*
X114837Y249118D02*
Y253055D01*
X81337Y186835D02*
Y203645D01*
X117837Y249118D02*
Y251874D01*
X121837Y43059D02*
Y46055D01*
X42375Y114615D02*
X70871D01*
X66809Y72595D02*
X70871D01*
X42375Y68205D02*
X61875D01*
X39375Y71205D02*
Y77617D01*
X42375Y183835D02*
X70871D01*
X42375Y137425D02*
X70871D01*
X39375Y140425D02*
Y146837D01*
X69337Y280266D02*
X109963D01*
X51463Y298140D02*
Y322640D01*
X69337Y340514D02*
X130544D01*
X237211Y298140D02*
Y322640D01*
X178711Y280266D02*
X219337D01*
X109963Y260929D02*
Y280266D01*
X178711Y260929D02*
Y280266D01*
X42375Y260929D02*
X109963D01*
X31501Y209645D02*
Y216064D01*
X42375Y198771D02*
X73463D01*
Y191709D02*
Y198771D01*
X42375Y191709D02*
X73463D01*
X31501Y140425D02*
Y146844D01*
X42375Y129551D02*
X73463D01*
Y122489D02*
Y129551D01*
X42375Y122489D02*
X73463D01*
X31501Y71205D02*
Y77624D01*
X42375Y60331D02*
X61065D01*
X88024Y31185D02*
X149299D01*
X227384Y59181D02*
X287355D01*
X301229Y73055D02*
Y102560D01*
X178711Y260929D02*
X287355D01*
X117837Y262504D02*
Y267194D01*
X293355Y217540D02*
Y247055D01*
Y130135D02*
Y189975D01*
X176872Y39059D02*
X200347D01*
X31501Y105196D02*
Y111615D01*
Y174416D02*
Y180835D01*
Y243636D02*
Y250055D01*
X158121Y332641D02*
X219337D01*
X39375Y174423D02*
Y180835D01*
Y243643D02*
Y250055D01*
Y105203D02*
Y111615D01*
X176885Y31185D02*
X202494D01*
X158130Y340514D02*
X219337D01*
X301229Y217550D02*
Y247055D01*
Y130145D02*
Y189965D01*
X39375Y209645D02*
Y216057D01*
D14*
X0Y-312D02*
X330709D01*
X0Y-311D02*
Y369768D01*
D15*
X215337Y67055D02*
G03*
X215093Y67045I0J-3000D01*
G01*
X218062Y55595D02*
G03*
X214921Y61084I-3697J1528D01*
G01*
X201887Y39367D02*
G03*
X218062Y55595I-11550J27688D01*
G01*
X200347Y39059D02*
G03*
X201887Y39367I0J4000D01*
G01*
X121837Y43059D02*
G03*
X125837Y39059I4000J0D01*
G01*
X121837Y46055D02*
G03*
X115837Y46055I-3000J0D01*
G01*
X98337D02*
G03*
X92337Y46055I-3000J0D01*
G01*
X86799Y39362D02*
G03*
X92337Y43055I1539J3692D01*
G01*
X68694Y62439D02*
G03*
X86799Y39362I29643J4615D01*
G01*
X72646Y67055D02*
G03*
X68694Y62439I0J-4000D01*
G01*
X78337Y67055D02*
G03*
X81328Y69825I0J3000D01*
G01*
D02*
G03*
X78337Y72595I-2991J-230D01*
G01*
Y114615D02*
G03*
X81337Y117615I0J3000D01*
G01*
Y134425D02*
G03*
X78337Y137425I-3000J0D01*
G01*
Y183835D02*
G03*
X81337Y186835I0J3000D01*
G01*
Y203645D02*
G03*
X78337Y206645I-3000J0D01*
G01*
X114837Y249118D02*
G03*
X117837Y249118I1500J0D01*
G01*
X170837D02*
G03*
X173837Y249118I1500J0D01*
G01*
X215093Y67045D02*
G03*
X214921Y61084I244J-2990D01*
G01*
X39375Y71205D02*
G03*
X42375Y68205I3000J0D01*
G01*
Y114615D02*
G03*
X39375Y111615I0J-3000D01*
G01*
X66809Y72595D02*
G03*
X64854Y70855I0J-1969D01*
G01*
X61875Y68205D02*
G03*
X64854Y70855I0J3000D01*
G01*
X117837Y296140D02*
G03*
X114837Y296140I-1500J0D01*
G01*
X111837Y288140D02*
G03*
X114837Y291140I0J3000D01*
G01*
X229337Y322640D02*
G03*
X219337Y332640I-10000J0D01*
G01*
X173837Y291140D02*
G03*
X176837Y288140I3000J0D01*
G01*
X173837Y296140D02*
G03*
X170837Y296140I-1500J0D01*
G01*
X59337Y298140D02*
G03*
X69337Y288140I10000J0D01*
G01*
Y332640D02*
G03*
X59337Y322640I0J-10000D01*
G01*
X219337Y288140D02*
G03*
X229337Y298140I0J10000D01*
G01*
X42375Y183835D02*
G03*
X39375Y180835I0J-3000D01*
G01*
Y140425D02*
G03*
X42375Y137425I3000J0D01*
G01*
X39375Y209645D02*
G03*
X42375Y206645I3000J0D01*
G01*
Y253055D02*
G03*
X39375Y250055I0J-3000D01*
G01*
X293355Y247055D02*
G03*
X287355Y253055I-6000J0D01*
G01*
Y67055D02*
G03*
X293355Y73055I0J6000D01*
G01*
X215337Y67055D02*
X223132D01*
X215093Y253055D02*
X223132D01*
X125837Y39059D02*
X200347D01*
X121837Y43059D02*
Y46055D01*
X115837Y44413D02*
Y46055D01*
X98337Y44413D02*
X115837D01*
X98337D02*
Y46055D01*
X92337Y43055D02*
Y46055D01*
X72646Y67055D02*
X78337D01*
X78214Y72595D02*
X78337D01*
X78214Y114615D02*
X78337D01*
X81337Y117615D02*
Y134425D01*
X78214Y137425D02*
X78337D01*
X78214Y183835D02*
X78337D01*
X81337Y186835D02*
Y203645D01*
X78214Y206645D02*
X78337D01*
X78214Y253055D02*
X114837D01*
Y249118D02*
Y253055D01*
X117837Y249118D02*
Y252679D01*
X170837Y249118D02*
Y252679D01*
X173837Y249118D02*
Y253055D01*
X215093D01*
X42375Y68205D02*
X61875D01*
X39375Y71205D02*
Y111615D01*
X42375Y114615D02*
X72649D01*
X66809Y72595D02*
X72649D01*
X114837Y291140D02*
Y296140D01*
X69337Y288140D02*
X111837D01*
X69337Y332640D02*
X219337D01*
X229337Y298140D02*
Y322640D01*
X173837Y291140D02*
Y296140D01*
X170837Y292867D02*
Y296140D01*
X59337Y298140D02*
Y322640D01*
X117837Y292867D02*
Y296140D01*
X176837Y288140D02*
X219337D01*
X42375Y183835D02*
X72649D01*
X39375Y140425D02*
Y180835D01*
X42375Y137425D02*
X72649D01*
X42375Y253055D02*
X72649D01*
X42375Y206645D02*
X72649D01*
Y137425D02*
X78214D01*
X72649Y183835D02*
X78214D01*
X170837Y252679D02*
Y257368D01*
X117837Y252679D02*
Y257368D01*
X72649Y206645D02*
X78214D01*
X72649Y253055D02*
X78214D01*
X72649Y72595D02*
X78214D01*
X72649Y114615D02*
X78214D01*
X170837Y257368D02*
Y262504D01*
X117837Y257368D02*
Y262504D01*
X170837Y284827D02*
Y292867D01*
X117837Y284827D02*
Y292867D01*
X170837Y267194D02*
Y284827D01*
X117837Y267194D02*
Y284827D01*
X293355Y73055D02*
Y247055D01*
X223132Y253055D02*
X287355D01*
X223132Y67055D02*
X287355D01*
X117837Y262504D02*
Y267194D01*
X170837Y262504D02*
Y267194D01*
X39375Y209645D02*
Y250055D01*
M02*
