G04*
G04 #@! TF.GenerationSoftware,Altium Limited,Altium Designer,18.1.9 (240)*
G04*
G04 Layer_Color=128*
%FSLAX25Y25*%
%MOIN*%
G70*
G01*
G75*
%ADD10C,0.00118*%
%ADD11C,0.00504*%
%ADD12C,0.01000*%
%ADD13C,0.00158*%
%ADD14C,0.00200*%
D10*
X322854Y39026D02*
G03*
X322854Y39026I-7894J0D01*
G01*
X23642D02*
G03*
X23642Y39026I-7894J0D01*
G01*
Y330365D02*
G03*
X23642Y330365I-7894J0D01*
G01*
X69337Y332640D02*
G03*
X59337Y322640I0J-10000D01*
G01*
X130544Y332640D02*
G03*
X130544Y340514I0J3937D01*
G01*
X158130D02*
G03*
X158130Y332640I0J-3937D01*
G01*
X31501Y243643D02*
G03*
X39375Y243643I3937J0D01*
G01*
Y216057D02*
G03*
X31501Y216057I-3937J0D01*
G01*
X39375Y146837D02*
G03*
X31501Y146837I-3937J0D01*
G01*
Y174423D02*
G03*
X39375Y174423I3937J0D01*
G01*
Y77617D02*
G03*
X31501Y77617I-3937J0D01*
G01*
Y105203D02*
G03*
X39375Y105203I3937J0D01*
G01*
X301229Y189965D02*
G03*
X293355Y189965I-3937J0D01*
G01*
Y217550D02*
G03*
X301229Y217550I3937J0D01*
G01*
Y102560D02*
G03*
X293355Y102560I-3937J0D01*
G01*
Y130145D02*
G03*
X301229Y130145I3937J0D01*
G01*
X176885Y39059D02*
G03*
X176885Y31185I0J-3937D01*
G01*
X149299D02*
G03*
X149299Y39059I0J3937D01*
G01*
X322859Y330398D02*
G03*
X322859Y330398I-7894J0D01*
G01*
X23646D02*
G03*
X23646Y330398I-7894J0D01*
G01*
X293355Y247055D02*
G03*
X287355Y253055I-6000J0D01*
G01*
Y67055D02*
G03*
X293355Y73055I0J6000D01*
G01*
X215337Y67055D02*
G03*
X215093Y67045I0J-3000D01*
G01*
X42375Y253055D02*
G03*
X39375Y250055I0J-3000D01*
G01*
Y209645D02*
G03*
X42375Y206645I3000J0D01*
G01*
X59337Y298140D02*
G03*
X69337Y288140I10000J0D01*
G01*
X111837D02*
G03*
X114837Y291140I0J3000D01*
G01*
X173837Y296140D02*
G03*
X170837Y296140I-1500J0D01*
G01*
X173837Y291140D02*
G03*
X176837Y288140I3000J-0D01*
G01*
X229337Y322640D02*
G03*
X219337Y332640I-10000J0D01*
G01*
X117837Y296140D02*
G03*
X114837Y296140I-1500J0D01*
G01*
X69337Y332640D02*
G03*
X59337Y322640I0J-10000D01*
G01*
X219337Y288140D02*
G03*
X229337Y298140I-0J10000D01*
G01*
X98337Y46055D02*
G03*
X92337Y46055I-3000J0D01*
G01*
X86799Y39362D02*
G03*
X92337Y43055I1539J3692D01*
G01*
X68694Y62439D02*
G03*
X86799Y39362I29643J4615D01*
G01*
X72646Y67055D02*
G03*
X68694Y62439I0J-4000D01*
G01*
X78337Y67055D02*
G03*
X81328Y69825I0J3000D01*
G01*
D02*
G03*
X78337Y72595I-2991J-230D01*
G01*
X170837Y249118D02*
G03*
X173837Y249118I1500J0D01*
G01*
X214932Y67027D02*
G03*
X214921Y61084I405J-2973D01*
G01*
X81337Y134425D02*
G03*
X78337Y137425I-3000J0D01*
G01*
Y183835D02*
G03*
X81337Y186835I0J3000D01*
G01*
X78337Y114615D02*
G03*
X81337Y117615I0J3000D01*
G01*
Y203645D02*
G03*
X78337Y206645I-3000J0D01*
G01*
X200347Y39059D02*
G03*
X201887Y39367I0J4000D01*
G01*
X121837Y43059D02*
G03*
X125837Y39059I4000J0D01*
G01*
X218062Y55595D02*
G03*
X214921Y61084I-3697J1528D01*
G01*
X201887Y39367D02*
G03*
X218062Y55595I-11550J27688D01*
G01*
X121837Y46055D02*
G03*
X115837Y46055I-3000J0D01*
G01*
X114837Y249118D02*
G03*
X117837Y249118I1500J0D01*
G01*
X66809Y72595D02*
G03*
X64854Y70855I0J-1969D01*
G01*
X61875Y68205D02*
G03*
X64854Y70855I0J3000D01*
G01*
X39375Y71205D02*
G03*
X42375Y68205I3000J0D01*
G01*
Y114615D02*
G03*
X39375Y111615I0J-3000D01*
G01*
X42375Y183835D02*
G03*
X39375Y180835I0J-3000D01*
G01*
Y140425D02*
G03*
X42375Y137425I3000J0D01*
G01*
X51463Y298140D02*
G03*
X69337Y280266I17874J0D01*
G01*
Y340514D02*
G03*
X51463Y322640I0J-17874D01*
G01*
X237211D02*
G03*
X219337Y340514I-17874J0D01*
G01*
Y280266D02*
G03*
X237211Y298140I-0J17874D01*
G01*
X42375Y260929D02*
G03*
X31501Y250055I0J-10874D01*
G01*
Y209645D02*
G03*
X42375Y198771I10874J0D01*
G01*
Y191709D02*
G03*
X31501Y180835I0J-10874D01*
G01*
Y140425D02*
G03*
X42375Y129551I10874J0D01*
G01*
Y122489D02*
G03*
X31501Y111615I0J-10874D01*
G01*
Y71205D02*
G03*
X42375Y60331I10874J0D01*
G01*
X61065D02*
G03*
X83770Y32094I37272J6724D01*
G01*
X83770Y32094D02*
G03*
X88650Y31185I4567J10961D01*
G01*
X202494Y31185D02*
G03*
X227384Y59181I-12157J35870D01*
G01*
X287355D02*
G03*
X301229Y73055I0J13874D01*
G01*
Y247055D02*
G03*
X287355Y260929I-13874J0D01*
G01*
X59337Y322640D02*
X59337D01*
X238236Y67055D02*
X287355D01*
X238236Y253055D02*
X287355D01*
X293355Y73055D02*
Y102570D01*
X215337Y67055D02*
X223132D01*
X215093Y253055D02*
X223132D01*
X78214Y72595D02*
X78227D01*
X78214Y114615D02*
X78227D01*
X78214Y137425D02*
X78227D01*
X78214Y183835D02*
X78227D01*
X78214Y206645D02*
X78227D01*
X78214Y253055D02*
X114837D01*
X117837Y251874D02*
Y252679D01*
X170837Y251874D02*
Y252679D01*
X173837Y253055D02*
X215093D01*
X214932Y67027D02*
X215093Y67045D01*
X70871Y114615D02*
X72649D01*
X70871Y72595D02*
X72649D01*
X170837Y292867D02*
Y292873D01*
X117837Y292867D02*
Y292873D01*
X170837Y284827D02*
Y292867D01*
X117837Y284827D02*
Y292867D01*
X72649Y72595D02*
X78214D01*
X72649Y114615D02*
X78214D01*
X70871Y137425D02*
X72649D01*
X70871Y183835D02*
X72649D01*
X70871Y253055D02*
X72649D01*
X70871Y206645D02*
X72649D01*
Y137425D02*
X78214D01*
X72649Y183835D02*
X78214D01*
X170837Y257368D02*
Y262504D01*
X117837Y257368D02*
Y262504D01*
X233133Y67055D02*
X238236D01*
X223132Y253055D02*
X238236D01*
X72649Y206645D02*
X78214D01*
X72649Y253055D02*
X78214D01*
X117837Y252679D02*
Y257368D01*
X170837Y252679D02*
Y257368D01*
Y267194D02*
Y284827D01*
X117837Y267194D02*
Y284827D01*
Y262504D02*
Y267194D01*
X170837Y262504D02*
Y267194D01*
X42375Y253055D02*
X70871D01*
X42375Y206645D02*
X70871D01*
X223132Y67055D02*
X233133D01*
X173837Y291140D02*
Y296140D01*
X170837Y292873D02*
Y296140D01*
X69337Y288140D02*
X111837D01*
X59337Y298140D02*
Y322640D01*
X114837Y291140D02*
Y296140D01*
X117837Y292873D02*
Y296140D01*
X69337Y332641D02*
X130553D01*
X229337Y298140D02*
Y322640D01*
X176837Y288140D02*
X219337D01*
X92337Y43055D02*
Y46055D01*
X72646Y67055D02*
X78337D01*
X78227Y72595D02*
X78337D01*
X78227Y114615D02*
X78337D01*
X170837Y249118D02*
Y251874D01*
X173837Y249118D02*
Y253055D01*
X115837Y44413D02*
Y46055D01*
X98337Y44413D02*
X115837D01*
X98337D02*
Y46055D01*
X78227Y206645D02*
X78337D01*
X78227Y253055D02*
X114837Y253055D01*
X81337Y117615D02*
Y134425D01*
X78227Y137425D02*
X78337D01*
X78227Y183835D02*
X78337D01*
X125837Y39059D02*
X149312D01*
X114837Y249118D02*
Y253055D01*
X81337Y186835D02*
Y203645D01*
X117837Y249118D02*
Y251874D01*
X121837Y43059D02*
Y46055D01*
X42375Y114615D02*
X70871D01*
X66809Y72595D02*
X70871D01*
X42375Y68205D02*
X61875D01*
X39375Y71205D02*
Y77617D01*
X42375Y183835D02*
X70871D01*
X42375Y137425D02*
X70871D01*
X39375Y140425D02*
Y146837D01*
X69337Y280266D02*
X109963D01*
X51463Y298140D02*
Y322640D01*
X69337Y340514D02*
X130544D01*
X237211Y298140D02*
Y322640D01*
X178711Y280266D02*
X219337D01*
X109963Y260929D02*
Y280266D01*
X178711Y260929D02*
Y280266D01*
X42375Y260929D02*
X109963D01*
X31501Y209645D02*
Y216064D01*
X42375Y198771D02*
X73463D01*
Y191709D02*
Y198771D01*
X42375Y191709D02*
X73463D01*
X31501Y140425D02*
Y146844D01*
X42375Y129551D02*
X73463D01*
Y122489D02*
Y129551D01*
X42375Y122489D02*
X73463D01*
X31501Y71205D02*
Y77624D01*
X42375Y60331D02*
X61065D01*
X88024Y31185D02*
X149299D01*
X227384Y59181D02*
X287355D01*
X301229Y73055D02*
Y102560D01*
X178711Y260929D02*
X287355D01*
X117837Y262504D02*
Y267194D01*
X293355Y217540D02*
Y247055D01*
Y130135D02*
Y189975D01*
X176872Y39059D02*
X200347D01*
X31501Y105196D02*
Y111615D01*
Y174416D02*
Y180835D01*
Y243636D02*
Y250055D01*
X158121Y332641D02*
X219337D01*
X39375Y174423D02*
Y180835D01*
Y243643D02*
Y250055D01*
Y105203D02*
Y111615D01*
X176885Y31185D02*
X202494D01*
X158130Y340514D02*
X219337D01*
X301229Y217550D02*
Y247055D01*
Y130145D02*
Y189965D01*
X39375Y209645D02*
Y216057D01*
D11*
X0Y-312D02*
X330709D01*
X0Y-311D02*
Y369768D01*
D12*
Y369767D02*
X330709D01*
Y-311D02*
Y369767D01*
D13*
X215337Y67055D02*
G03*
X215093Y67045I0J-3000D01*
G01*
X218062Y55595D02*
G03*
X214921Y61084I-3697J1528D01*
G01*
X201887Y39367D02*
G03*
X218062Y55595I-11550J27688D01*
G01*
X200347Y39059D02*
G03*
X201887Y39367I0J4000D01*
G01*
X121837Y43059D02*
G03*
X125837Y39059I4000J0D01*
G01*
X121837Y46055D02*
G03*
X115837Y46055I-3000J0D01*
G01*
X98337D02*
G03*
X92337Y46055I-3000J0D01*
G01*
X86799Y39362D02*
G03*
X92337Y43055I1539J3692D01*
G01*
X68694Y62439D02*
G03*
X86799Y39362I29643J4615D01*
G01*
X72646Y67055D02*
G03*
X68694Y62439I0J-4000D01*
G01*
X78337Y67055D02*
G03*
X81328Y69825I0J3000D01*
G01*
D02*
G03*
X78337Y72595I-2991J-230D01*
G01*
Y114615D02*
G03*
X81337Y117615I0J3000D01*
G01*
Y134425D02*
G03*
X78337Y137425I-3000J0D01*
G01*
Y183835D02*
G03*
X81337Y186835I0J3000D01*
G01*
Y203645D02*
G03*
X78337Y206645I-3000J0D01*
G01*
X114837Y249118D02*
G03*
X117837Y249118I1500J0D01*
G01*
X170837D02*
G03*
X173837Y249118I1500J0D01*
G01*
X215093Y67045D02*
G03*
X214921Y61084I244J-2990D01*
G01*
X39375Y71205D02*
G03*
X42375Y68205I3000J0D01*
G01*
Y114615D02*
G03*
X39375Y111615I0J-3000D01*
G01*
X66809Y72595D02*
G03*
X64854Y70855I0J-1969D01*
G01*
X61875Y68205D02*
G03*
X64854Y70855I0J3000D01*
G01*
X117837Y296140D02*
G03*
X114837Y296140I-1500J0D01*
G01*
X111837Y288140D02*
G03*
X114837Y291140I0J3000D01*
G01*
X229337Y322640D02*
G03*
X219337Y332640I-10000J0D01*
G01*
X173837Y291140D02*
G03*
X176837Y288140I3000J0D01*
G01*
X173837Y296140D02*
G03*
X170837Y296140I-1500J0D01*
G01*
X59337Y298140D02*
G03*
X69337Y288140I10000J0D01*
G01*
Y332640D02*
G03*
X59337Y322640I0J-10000D01*
G01*
X219337Y288140D02*
G03*
X229337Y298140I0J10000D01*
G01*
X42375Y183835D02*
G03*
X39375Y180835I0J-3000D01*
G01*
Y140425D02*
G03*
X42375Y137425I3000J0D01*
G01*
X39375Y209645D02*
G03*
X42375Y206645I3000J0D01*
G01*
Y253055D02*
G03*
X39375Y250055I0J-3000D01*
G01*
X293355Y247055D02*
G03*
X287355Y253055I-6000J0D01*
G01*
Y67055D02*
G03*
X293355Y73055I0J6000D01*
G01*
X215337Y67055D02*
X223132D01*
X215093Y253055D02*
X223132D01*
X125837Y39059D02*
X200347D01*
X121837Y43059D02*
Y46055D01*
X115837Y44413D02*
Y46055D01*
X98337Y44413D02*
X115837D01*
X98337D02*
Y46055D01*
X92337Y43055D02*
Y46055D01*
X72646Y67055D02*
X78337D01*
X78214Y72595D02*
X78337D01*
X78214Y114615D02*
X78337D01*
X81337Y117615D02*
Y134425D01*
X78214Y137425D02*
X78337D01*
X78214Y183835D02*
X78337D01*
X81337Y186835D02*
Y203645D01*
X78214Y206645D02*
X78337D01*
X78214Y253055D02*
X114837D01*
Y249118D02*
Y253055D01*
X117837Y249118D02*
Y252679D01*
X170837Y249118D02*
Y252679D01*
X173837Y249118D02*
Y253055D01*
X215093D01*
X42375Y68205D02*
X61875D01*
X39375Y71205D02*
Y111615D01*
X42375Y114615D02*
X72649D01*
X66809Y72595D02*
X72649D01*
X114837Y291140D02*
Y296140D01*
X69337Y288140D02*
X111837D01*
X69337Y332640D02*
X219337D01*
X229337Y298140D02*
Y322640D01*
X173837Y291140D02*
Y296140D01*
X170837Y292867D02*
Y296140D01*
X59337Y298140D02*
Y322640D01*
X117837Y292867D02*
Y296140D01*
X176837Y288140D02*
X219337D01*
X42375Y183835D02*
X72649D01*
X39375Y140425D02*
Y180835D01*
X42375Y137425D02*
X72649D01*
X42375Y253055D02*
X72649D01*
X42375Y206645D02*
X72649D01*
Y137425D02*
X78214D01*
X72649Y183835D02*
X78214D01*
X170837Y252679D02*
Y257368D01*
X117837Y252679D02*
Y257368D01*
X72649Y206645D02*
X78214D01*
X72649Y253055D02*
X78214D01*
X72649Y72595D02*
X78214D01*
X72649Y114615D02*
X78214D01*
X170837Y257368D02*
Y262504D01*
X117837Y257368D02*
Y262504D01*
X170837Y284827D02*
Y292867D01*
X117837Y284827D02*
Y292867D01*
X170837Y267194D02*
Y284827D01*
X117837Y267194D02*
Y284827D01*
X293355Y73055D02*
Y247055D01*
X223132Y253055D02*
X287355D01*
X223132Y67055D02*
X287355D01*
X117837Y262504D02*
Y267194D01*
X170837Y262504D02*
Y267194D01*
X39375Y209645D02*
Y250055D01*
D14*
X183967Y242073D02*
X184361D01*
X184164Y241876D02*
Y242269D01*
X145384Y215301D02*
X145778D01*
X145581Y215104D02*
Y215498D01*
X190274Y155951D02*
X190668D01*
X190471Y155754D02*
Y156148D01*
X194014Y137348D02*
X194408D01*
X194211Y137151D02*
Y137545D01*
X155424Y140990D02*
X155817D01*
X155621Y140793D02*
Y141187D01*
X190660Y101325D02*
X191053D01*
X190857Y101128D02*
Y101522D01*
X181802Y107132D02*
X182195D01*
X181998Y106935D02*
Y107329D01*
X206113Y75832D02*
X206506D01*
X206309Y75636D02*
Y76029D01*
X193727Y75931D02*
X194121D01*
X193924Y75734D02*
Y76128D01*
X172550Y75832D02*
X172943D01*
X172746Y75636D02*
Y76029D01*
X181703Y75931D02*
X182097D01*
X181900Y75734D02*
Y76128D01*
X174617Y64514D02*
X175010D01*
X174813Y64317D02*
Y64710D01*
X152865Y91400D02*
X153258D01*
X153061Y91203D02*
Y91597D01*
X155365Y127532D02*
X155758D01*
X155561Y127335D02*
Y127729D01*
X166644Y230754D02*
X167038D01*
X166841Y230557D02*
Y230951D01*
X153357Y222388D02*
X153750D01*
X153553Y222191D02*
Y222585D01*
X149124Y225734D02*
X149518D01*
X149321Y225537D02*
Y225931D01*
X146565Y196502D02*
X146959D01*
X146762Y196305D02*
Y196699D01*
X144104Y178982D02*
X144498D01*
X144301Y178785D02*
Y179179D01*
X149715Y155695D02*
X150109D01*
X149912Y155498D02*
Y155892D01*
X161723Y75636D02*
X162117D01*
X161920Y75439D02*
Y75832D01*
X146467Y58822D02*
X146861D01*
X146664Y58625D02*
Y59018D01*
X140266Y74750D02*
X140660D01*
X140463Y74553D02*
Y74947D01*
X171491Y153982D02*
X172278D01*
X171884Y153588D02*
Y154376D01*
X127274Y199993D02*
X127668D01*
X127471Y199796D02*
Y200189D01*
X125699Y199993D02*
X126093D01*
X125896Y199796D02*
Y200189D01*
X124124Y199993D02*
X124518D01*
X124321Y199796D02*
Y200189D01*
X126683Y136060D02*
X127077D01*
X126880Y135863D02*
Y136257D01*
X126683Y137635D02*
X127077D01*
X126880Y137438D02*
Y137832D01*
X126683Y139210D02*
X127077D01*
X126880Y139013D02*
Y139407D01*
X128258Y70941D02*
X128652D01*
X128455Y70745D02*
Y71138D01*
X126683Y70941D02*
X127077D01*
X126880Y70745D02*
Y71138D01*
X125109Y70941D02*
X125502D01*
X125305Y70745D02*
Y71138D01*
X104538Y74947D02*
X104931D01*
X104735Y74750D02*
Y75144D01*
X128849Y61250D02*
X129243D01*
X129046Y61053D02*
Y61447D01*
X126067Y81821D02*
X126460D01*
X126263Y81624D02*
Y82018D01*
X115365Y95502D02*
X115758D01*
X115561Y95305D02*
Y95699D01*
X120483Y99439D02*
X120876D01*
X120679Y99242D02*
Y99636D01*
X125716Y107928D02*
X126110D01*
X125913Y107731D02*
Y108125D01*
X100798Y108002D02*
X101191D01*
X100995Y107805D02*
Y108199D01*
X96861Y108002D02*
X97255D01*
X97058Y107805D02*
Y108199D01*
X92924Y108002D02*
X93317D01*
X93120Y107805D02*
Y108199D01*
X85050Y108002D02*
X85444D01*
X85247Y107805D02*
Y108199D01*
X90463Y88514D02*
X90857D01*
X90660Y88317D02*
Y88710D01*
X90463Y92451D02*
X90857D01*
X90660Y92254D02*
Y92647D01*
X94417Y94419D02*
X94810D01*
X94613Y94222D02*
Y94616D01*
X90463Y94419D02*
X90857D01*
X90660Y94222D02*
Y94616D01*
X86526Y94419D02*
X86920D01*
X86723Y94222D02*
Y94616D01*
X86526Y86545D02*
X86920D01*
X86723Y86348D02*
Y86742D01*
X90463Y86545D02*
X90857D01*
X90660Y86348D02*
Y86742D01*
X94390Y86545D02*
X94783D01*
X94586Y86348D02*
Y86742D01*
X94417Y90482D02*
X94810D01*
X94613Y90285D02*
Y90679D01*
X92431Y90482D02*
X92825D01*
X92628Y90285D02*
Y90679D01*
X86526Y90482D02*
X86920D01*
X86723Y90285D02*
Y90679D01*
X88494Y90482D02*
X88888D01*
X88691Y90285D02*
Y90679D01*
X90463Y90482D02*
X90857D01*
X90660Y90285D02*
Y90679D01*
X115365Y91088D02*
X115758D01*
X115561Y90892D02*
Y91285D01*
X91447Y72978D02*
X91841D01*
X91644Y72781D02*
Y73175D01*
X95384Y72978D02*
X95778D01*
X95581Y72781D02*
Y73175D01*
X102569Y74947D02*
X102963D01*
X102766Y74750D02*
Y75144D01*
X84754Y127301D02*
X85148D01*
X84951Y127104D02*
Y127498D01*
X102471Y138915D02*
X102865D01*
X102668Y138718D02*
Y139112D01*
X95385Y139704D02*
X95779D01*
X95582Y139507D02*
Y139901D01*
X91448Y139704D02*
X91842D01*
X91645Y139507D02*
Y139901D01*
X109406Y158305D02*
X109799D01*
X109602Y158108D02*
Y158502D01*
X90463Y159781D02*
X90857D01*
X90660Y159584D02*
Y159978D01*
X88494Y159781D02*
X88888D01*
X88691Y159584D02*
Y159978D01*
X86526Y159781D02*
X86920D01*
X86723Y159584D02*
Y159978D01*
X92431Y159781D02*
X92825D01*
X92628Y159584D02*
Y159978D01*
X94417Y159781D02*
X94810D01*
X94613Y159584D02*
Y159978D01*
X94390Y155844D02*
X94783D01*
X94586Y155648D02*
Y156041D01*
X90463Y155844D02*
X90857D01*
X90660Y155648D02*
Y156041D01*
X86526Y155844D02*
X86920D01*
X86723Y155648D02*
Y156041D01*
X86526Y163718D02*
X86920D01*
X86723Y163522D02*
Y163915D01*
X90463Y163718D02*
X90857D01*
X90660Y163522D02*
Y163915D01*
X94417Y163718D02*
X94810D01*
X94613Y163522D02*
Y163915D01*
X90463Y161750D02*
X90857D01*
X90660Y161553D02*
Y161947D01*
X90463Y157813D02*
X90857D01*
X90660Y157616D02*
Y158010D01*
X85050Y177301D02*
X85444D01*
X85247Y177105D02*
Y177498D01*
X92924Y177301D02*
X93317D01*
X93120Y177104D02*
Y177498D01*
X96861Y177301D02*
X97255D01*
X97058Y177105D02*
Y177498D01*
X100798Y177301D02*
X101191D01*
X100995Y177104D02*
Y177498D01*
X124437Y178408D02*
X124830D01*
X124633Y178211D02*
Y178605D01*
X120384Y166179D02*
X120778D01*
X120581Y165982D02*
Y166376D01*
X115266Y162242D02*
X115660D01*
X115463Y162045D02*
Y162439D01*
X126067Y148462D02*
X126460D01*
X126263Y148266D02*
Y148659D01*
X115793Y138923D02*
X116186D01*
X115990Y138726D02*
Y139120D01*
X99715Y129072D02*
X100109D01*
X99912Y128875D02*
Y129269D01*
X104439Y138915D02*
X104833D01*
X104636Y138718D02*
Y139112D01*
X104439Y208116D02*
X104833D01*
X104636Y207919D02*
Y208313D01*
X99715Y198273D02*
X100109D01*
X99912Y198076D02*
Y198470D01*
X109656Y190892D02*
X110050D01*
X109853Y190695D02*
Y191088D01*
X130522Y191532D02*
X130916D01*
X130719Y191335D02*
Y191728D01*
X122648Y187447D02*
X123042D01*
X122845Y187250D02*
Y187644D01*
X126067Y210872D02*
X126460D01*
X126263Y210675D02*
Y211069D01*
X115266Y224651D02*
X115660D01*
X115463Y224455D02*
Y224848D01*
X120384Y228588D02*
X120778D01*
X120581Y228392D02*
Y228785D01*
X124437Y240818D02*
X124830D01*
X124633Y240621D02*
Y241014D01*
X100798Y246502D02*
X101191D01*
X100995Y246305D02*
Y246699D01*
X96861Y246502D02*
X97255D01*
X97058Y246305D02*
Y246699D01*
X92924Y246502D02*
X93317D01*
X93120Y246305D02*
Y246699D01*
X85050Y246502D02*
X85444D01*
X85247Y246305D02*
Y246699D01*
X90463Y227014D02*
X90857D01*
X90660Y226817D02*
Y227210D01*
X90463Y230951D02*
X90857D01*
X90660Y230754D02*
Y231148D01*
X94417Y232919D02*
X94810D01*
X94613Y232722D02*
Y233116D01*
X90463Y232919D02*
X90857D01*
X90660Y232722D02*
Y233116D01*
X86526Y232919D02*
X86920D01*
X86723Y232722D02*
Y233116D01*
X86526Y225045D02*
X86920D01*
X86723Y224848D02*
Y225242D01*
X90463Y225045D02*
X90857D01*
X90660Y224848D02*
Y225242D01*
X94390Y225045D02*
X94783D01*
X94586Y224848D02*
Y225242D01*
X94417Y228982D02*
X94810D01*
X94613Y228785D02*
Y229179D01*
X92431Y228982D02*
X92825D01*
X92628Y228785D02*
Y229179D01*
X86526Y228982D02*
X86920D01*
X86723Y228785D02*
Y229179D01*
X88494Y228982D02*
X88888D01*
X88691Y228785D02*
Y229179D01*
X90463Y228982D02*
X90857D01*
X90660Y228785D02*
Y229179D01*
X109406Y220714D02*
X109799D01*
X109602Y220518D02*
Y220911D01*
X91448Y208904D02*
X91842D01*
X91645Y208708D02*
Y209101D01*
X95385Y208904D02*
X95779D01*
X95582Y208708D02*
Y209101D01*
X102471Y208116D02*
X102865D01*
X102668Y207919D02*
Y208313D01*
X84754Y196502D02*
X85148D01*
X84951Y196305D02*
Y196699D01*
X171491Y156738D02*
X172278D01*
X171884Y156344D02*
Y157132D01*
X171491Y151325D02*
X172278D01*
X171884Y150931D02*
Y151718D01*
X168735Y151325D02*
X169522D01*
X169128Y150931D02*
Y151718D01*
X168735Y153982D02*
X169522D01*
X169128Y153588D02*
Y154376D01*
X168735Y156738D02*
X169522D01*
X169128Y156344D02*
Y157132D01*
X174617Y62683D02*
X175010D01*
X174813Y62486D02*
Y62880D01*
X174617Y66187D02*
X175010D01*
X174813Y65990D02*
Y66384D01*
M02*
