G04*
G04 #@! TF.GenerationSoftware,Altium Limited,Altium Designer,18.1.9 (240)*
G04*
G04 Layer_Color=2752767*
%FSLAX25Y25*%
%MOIN*%
G70*
G01*
G75*
%ADD10C,0.00118*%
%ADD11C,0.00504*%
%ADD12C,0.01000*%
%ADD13C,0.00158*%
%ADD14C,0.00200*%
%ADD15C,0.01500*%
%ADD16C,0.01600*%
G36*
X487883Y379124D02*
X486310D01*
Y380919D01*
X487883D01*
Y379124D01*
D02*
G37*
G36*
X429207D02*
X427633D01*
Y380919D01*
X429207D01*
Y379124D01*
D02*
G37*
G36*
X494936Y377587D02*
X495139Y377569D01*
X495380Y377532D01*
X495639Y377476D01*
X495917Y377402D01*
X496176Y377291D01*
X496213Y377273D01*
X496287Y377236D01*
X496416Y377180D01*
X496564Y377088D01*
X496750Y376976D01*
X496916Y376829D01*
X497083Y376680D01*
X497231Y376495D01*
X497249Y376477D01*
X497286Y376403D01*
X497342Y376310D01*
X497435Y376181D01*
X497508Y375995D01*
X497583Y375810D01*
X497675Y375588D01*
X497731Y375348D01*
Y375329D01*
X497749Y375255D01*
X497768Y375144D01*
X497786Y374996D01*
Y374774D01*
X497805Y374515D01*
X497823Y374200D01*
Y373811D01*
Y368110D01*
X496250D01*
Y373737D01*
Y373756D01*
Y373774D01*
Y373904D01*
Y374071D01*
X496231Y374274D01*
X496213Y374515D01*
X496176Y374755D01*
X496120Y374977D01*
X496065Y375181D01*
Y375200D01*
X496028Y375255D01*
X495972Y375348D01*
X495917Y375459D01*
X495824Y375570D01*
X495713Y375699D01*
X495565Y375829D01*
X495398Y375940D01*
X495380Y375958D01*
X495324Y375995D01*
X495213Y376032D01*
X495084Y376088D01*
X494936Y376144D01*
X494750Y376199D01*
X494528Y376218D01*
X494306Y376236D01*
X494214D01*
X494140Y376218D01*
X493955Y376199D01*
X493714Y376162D01*
X493455Y376069D01*
X493159Y375958D01*
X492863Y375810D01*
X492585Y375588D01*
X492548Y375551D01*
X492474Y375459D01*
X492418Y375385D01*
X492363Y375292D01*
X492289Y375181D01*
X492233Y375051D01*
X492159Y374903D01*
X492085Y374718D01*
X492030Y374515D01*
X491974Y374293D01*
X491937Y374052D01*
X491900Y373793D01*
X491863Y373478D01*
Y373164D01*
Y368110D01*
X490290D01*
Y377402D01*
X491696D01*
Y376069D01*
X491715Y376088D01*
X491752Y376144D01*
X491807Y376218D01*
X491882Y376310D01*
X491993Y376421D01*
X492122Y376551D01*
X492270Y376699D01*
X492455Y376847D01*
X492640Y376976D01*
X492863Y377125D01*
X493103Y377254D01*
X493362Y377365D01*
X493658Y377458D01*
X493955Y377532D01*
X494288Y377587D01*
X494639Y377606D01*
X494788D01*
X494936Y377587D01*
D02*
G37*
G36*
X461173D02*
X461377Y377550D01*
X461618Y377476D01*
X461877Y377384D01*
X462173Y377254D01*
X462488Y377088D01*
X461914Y375644D01*
X461895Y375662D01*
X461821Y375699D01*
X461710Y375755D01*
X461562Y375810D01*
X461396Y375866D01*
X461192Y375922D01*
X460988Y375958D01*
X460785Y375977D01*
X460692D01*
X460600Y375958D01*
X460470Y375940D01*
X460340Y375903D01*
X460174Y375847D01*
X460007Y375773D01*
X459859Y375662D01*
X459841Y375644D01*
X459785Y375607D01*
X459730Y375533D01*
X459637Y375440D01*
X459545Y375311D01*
X459452Y375163D01*
X459359Y374996D01*
X459285Y374792D01*
X459267Y374755D01*
X459248Y374644D01*
X459211Y374478D01*
X459156Y374256D01*
X459100Y373978D01*
X459063Y373663D01*
X459045Y373330D01*
X459026Y372960D01*
Y368110D01*
X457453D01*
Y377402D01*
X458878D01*
Y375995D01*
X458897Y376014D01*
X458971Y376144D01*
X459063Y376310D01*
X459211Y376514D01*
X459359Y376717D01*
X459526Y376940D01*
X459693Y377125D01*
X459859Y377273D01*
X459878Y377291D01*
X459933Y377328D01*
X460044Y377384D01*
X460155Y377439D01*
X460303Y377495D01*
X460489Y377550D01*
X460674Y377587D01*
X460877Y377606D01*
X461007D01*
X461173Y377587D01*
D02*
G37*
G36*
X425375D02*
X425579Y377550D01*
X425819Y377476D01*
X426078Y377384D01*
X426375Y377254D01*
X426689Y377088D01*
X426116Y375644D01*
X426097Y375662D01*
X426023Y375699D01*
X425912Y375755D01*
X425764Y375810D01*
X425597Y375866D01*
X425394Y375922D01*
X425190Y375958D01*
X424986Y375977D01*
X424894D01*
X424801Y375958D01*
X424672Y375940D01*
X424542Y375903D01*
X424375Y375847D01*
X424209Y375773D01*
X424061Y375662D01*
X424042Y375644D01*
X423987Y375607D01*
X423931Y375533D01*
X423839Y375440D01*
X423746Y375311D01*
X423654Y375163D01*
X423561Y374996D01*
X423487Y374792D01*
X423468Y374755D01*
X423450Y374644D01*
X423413Y374478D01*
X423357Y374256D01*
X423302Y373978D01*
X423265Y373663D01*
X423246Y373330D01*
X423228Y372960D01*
Y368110D01*
X421655D01*
Y377402D01*
X423080D01*
Y375995D01*
X423098Y376014D01*
X423172Y376144D01*
X423265Y376310D01*
X423413Y376514D01*
X423561Y376717D01*
X423728Y376940D01*
X423894Y377125D01*
X424061Y377273D01*
X424079Y377291D01*
X424135Y377328D01*
X424246Y377384D01*
X424357Y377439D01*
X424505Y377495D01*
X424690Y377550D01*
X424875Y377587D01*
X425079Y377606D01*
X425209D01*
X425375Y377587D01*
D02*
G37*
G36*
X482053Y368110D02*
X480442D01*
X478962Y373663D01*
X478591Y375255D01*
X476722Y368110D01*
X475056D01*
X472242Y377402D01*
X473890D01*
X475371Y372034D01*
X475889Y370035D01*
Y370054D01*
X475907Y370091D01*
X475926Y370183D01*
X475944Y370239D01*
X475963Y370331D01*
X475981Y370443D01*
X476018Y370572D01*
X476055Y370720D01*
X476111Y370905D01*
X476166Y371109D01*
X476222Y371350D01*
X476296Y371627D01*
X476370Y371942D01*
X477851Y377402D01*
X479461D01*
X480850Y371997D01*
X481312Y370220D01*
X481849Y372016D01*
X483441Y377402D01*
X484977D01*
X482053Y368110D01*
D02*
G37*
G36*
X487883D02*
X486310D01*
Y377402D01*
X487883D01*
Y368110D01*
D02*
G37*
G36*
X467763Y377587D02*
X468041Y377569D01*
X468355Y377532D01*
X468670Y377476D01*
X468985Y377402D01*
X469281Y377310D01*
X469318Y377291D01*
X469410Y377254D01*
X469540Y377199D01*
X469706Y377125D01*
X469892Y377013D01*
X470077Y376903D01*
X470243Y376754D01*
X470391Y376606D01*
X470410Y376588D01*
X470447Y376532D01*
X470502Y376440D01*
X470576Y376329D01*
X470669Y376162D01*
X470743Y375995D01*
X470817Y375792D01*
X470873Y375551D01*
Y375533D01*
X470891Y375477D01*
X470910Y375366D01*
X470928Y375218D01*
Y375014D01*
X470947Y374774D01*
X470965Y374459D01*
Y374108D01*
Y371997D01*
Y371979D01*
Y371905D01*
Y371794D01*
Y371646D01*
Y371479D01*
Y371275D01*
X470984Y370831D01*
Y370369D01*
X471002Y369906D01*
X471021Y369702D01*
Y369517D01*
X471039Y369350D01*
X471058Y369221D01*
Y369202D01*
X471076Y369128D01*
X471095Y369017D01*
X471150Y368869D01*
X471187Y368703D01*
X471261Y368517D01*
X471354Y368314D01*
X471447Y368110D01*
X469799D01*
X469781Y368129D01*
X469762Y368203D01*
X469725Y368295D01*
X469669Y368443D01*
X469614Y368610D01*
X469577Y368814D01*
X469540Y369036D01*
X469503Y369276D01*
X469484D01*
X469466Y369239D01*
X469355Y369147D01*
X469188Y369017D01*
X468966Y368851D01*
X468688Y368684D01*
X468411Y368499D01*
X468115Y368332D01*
X467800Y368203D01*
X467763Y368184D01*
X467652Y368166D01*
X467485Y368110D01*
X467282Y368055D01*
X467023Y367999D01*
X466726Y367962D01*
X466393Y367925D01*
X466060Y367907D01*
X465912D01*
X465801Y367925D01*
X465671D01*
X465523Y367944D01*
X465190Y367999D01*
X464820Y368092D01*
X464413Y368221D01*
X464043Y368406D01*
X463709Y368647D01*
X463672Y368684D01*
X463580Y368777D01*
X463450Y368943D01*
X463302Y369165D01*
X463154Y369443D01*
X463024Y369758D01*
X462932Y370146D01*
X462913Y370331D01*
X462895Y370554D01*
Y370591D01*
Y370665D01*
X462913Y370794D01*
X462932Y370961D01*
X462969Y371164D01*
X463024Y371368D01*
X463098Y371590D01*
X463191Y371794D01*
X463209Y371812D01*
X463246Y371886D01*
X463321Y371997D01*
X463413Y372127D01*
X463524Y372275D01*
X463672Y372423D01*
X463820Y372571D01*
X464005Y372701D01*
X464024Y372719D01*
X464098Y372756D01*
X464190Y372830D01*
X464339Y372904D01*
X464505Y372978D01*
X464709Y373071D01*
X464912Y373145D01*
X465153Y373219D01*
X465172D01*
X465246Y373237D01*
X465357Y373274D01*
X465505Y373293D01*
X465690Y373330D01*
X465931Y373367D01*
X466208Y373423D01*
X466541Y373460D01*
X466560D01*
X466634Y373478D01*
X466726D01*
X466856Y373497D01*
X467004Y373515D01*
X467189Y373552D01*
X467393Y373571D01*
X467615Y373608D01*
X468059Y373700D01*
X468540Y373793D01*
X468966Y373904D01*
X469170Y373959D01*
X469355Y374015D01*
Y374033D01*
Y374071D01*
X469373Y374182D01*
Y374311D01*
Y374385D01*
Y374422D01*
Y374441D01*
Y374459D01*
Y374570D01*
X469355Y374755D01*
X469318Y374959D01*
X469262Y375181D01*
X469170Y375403D01*
X469059Y375607D01*
X468911Y375773D01*
X468892Y375792D01*
X468799Y375866D01*
X468651Y375940D01*
X468466Y376051D01*
X468207Y376144D01*
X467911Y376236D01*
X467541Y376292D01*
X467115Y376310D01*
X466930D01*
X466745Y376292D01*
X466486Y376255D01*
X466227Y376218D01*
X465949Y376144D01*
X465690Y376051D01*
X465468Y375922D01*
X465449Y375903D01*
X465375Y375847D01*
X465283Y375755D01*
X465172Y375607D01*
X465061Y375422D01*
X464931Y375181D01*
X464820Y374885D01*
X464709Y374552D01*
X463172Y374755D01*
Y374774D01*
X463191Y374792D01*
Y374848D01*
X463209Y374922D01*
X463265Y375089D01*
X463339Y375329D01*
X463432Y375570D01*
X463543Y375829D01*
X463691Y376088D01*
X463857Y376329D01*
X463876Y376347D01*
X463950Y376421D01*
X464061Y376532D01*
X464209Y376680D01*
X464413Y376829D01*
X464653Y376976D01*
X464931Y377143D01*
X465246Y377273D01*
X465264D01*
X465283Y377291D01*
X465338Y377310D01*
X465412Y377328D01*
X465597Y377384D01*
X465856Y377439D01*
X466153Y377495D01*
X466523Y377550D01*
X466912Y377587D01*
X467356Y377606D01*
X467559D01*
X467763Y377587D01*
D02*
G37*
G36*
X450012Y380901D02*
X450382Y380882D01*
X450752Y380845D01*
X451123Y380790D01*
X451437Y380734D01*
X451456D01*
X451493Y380715D01*
X451548D01*
X451622Y380679D01*
X451826Y380623D01*
X452085Y380531D01*
X452381Y380401D01*
X452696Y380234D01*
X453011Y380049D01*
X453307Y379809D01*
X453325Y379790D01*
X453344Y379771D01*
X453399Y379716D01*
X453473Y379661D01*
X453658Y379475D01*
X453881Y379216D01*
X454121Y378902D01*
X454380Y378531D01*
X454621Y378106D01*
X454824Y377624D01*
Y377606D01*
X454843Y377569D01*
X454880Y377495D01*
X454899Y377384D01*
X454954Y377254D01*
X454991Y377106D01*
X455028Y376940D01*
X455084Y376736D01*
X455139Y376532D01*
X455176Y376292D01*
X455269Y375773D01*
X455324Y375200D01*
X455343Y374570D01*
Y374552D01*
Y374515D01*
Y374422D01*
Y374330D01*
X455324Y374200D01*
Y374052D01*
X455306Y373700D01*
X455250Y373293D01*
X455195Y372867D01*
X455102Y372423D01*
X454991Y371979D01*
Y371960D01*
X454973Y371923D01*
X454954Y371868D01*
X454936Y371794D01*
X454861Y371590D01*
X454750Y371331D01*
X454639Y371035D01*
X454491Y370739D01*
X454306Y370424D01*
X454121Y370128D01*
X454103Y370091D01*
X454029Y369998D01*
X453918Y369869D01*
X453769Y369702D01*
X453603Y369517D01*
X453399Y369332D01*
X453196Y369128D01*
X452955Y368962D01*
X452918Y368943D01*
X452844Y368888D01*
X452714Y368814D01*
X452529Y368721D01*
X452307Y368610D01*
X452048Y368517D01*
X451752Y368406D01*
X451419Y368314D01*
X451382D01*
X451326Y368295D01*
X451271Y368277D01*
X451086Y368258D01*
X450826Y368221D01*
X450530Y368184D01*
X450178Y368147D01*
X449790Y368129D01*
X449364Y368110D01*
X444755D01*
Y380919D01*
X449679D01*
X450012Y380901D01*
D02*
G37*
G36*
X437129Y368110D02*
X435556D01*
Y380919D01*
X437129D01*
Y368110D01*
D02*
G37*
G36*
X433149D02*
X431576D01*
Y380919D01*
X433149D01*
Y368110D01*
D02*
G37*
G36*
X429207D02*
X427633D01*
Y377402D01*
X429207D01*
Y368110D01*
D02*
G37*
G36*
X414214Y380901D02*
X414584Y380882D01*
X414954Y380845D01*
X415324Y380790D01*
X415639Y380734D01*
X415657D01*
X415694Y380715D01*
X415750D01*
X415824Y380679D01*
X416027Y380623D01*
X416287Y380531D01*
X416583Y380401D01*
X416897Y380234D01*
X417212Y380049D01*
X417508Y379809D01*
X417527Y379790D01*
X417545Y379771D01*
X417601Y379716D01*
X417675Y379661D01*
X417860Y379475D01*
X418082Y379216D01*
X418323Y378902D01*
X418582Y378531D01*
X418822Y378106D01*
X419026Y377624D01*
Y377606D01*
X419045Y377569D01*
X419082Y377495D01*
X419100Y377384D01*
X419156Y377254D01*
X419193Y377106D01*
X419230Y376940D01*
X419285Y376736D01*
X419341Y376532D01*
X419378Y376292D01*
X419470Y375773D01*
X419526Y375200D01*
X419544Y374570D01*
Y374552D01*
Y374515D01*
Y374422D01*
Y374330D01*
X419526Y374200D01*
Y374052D01*
X419507Y373700D01*
X419452Y373293D01*
X419396Y372867D01*
X419304Y372423D01*
X419193Y371979D01*
Y371960D01*
X419174Y371923D01*
X419156Y371868D01*
X419137Y371794D01*
X419063Y371590D01*
X418952Y371331D01*
X418841Y371035D01*
X418693Y370739D01*
X418508Y370424D01*
X418323Y370128D01*
X418304Y370091D01*
X418230Y369998D01*
X418119Y369869D01*
X417971Y369702D01*
X417804Y369517D01*
X417601Y369332D01*
X417397Y369128D01*
X417157Y368962D01*
X417120Y368943D01*
X417046Y368888D01*
X416916Y368814D01*
X416731Y368721D01*
X416509Y368610D01*
X416250Y368517D01*
X415953Y368406D01*
X415620Y368314D01*
X415583D01*
X415528Y368295D01*
X415472Y368277D01*
X415287Y368258D01*
X415028Y368221D01*
X414732Y368184D01*
X414380Y368147D01*
X413991Y368129D01*
X413566Y368110D01*
X408957D01*
Y380919D01*
X413880D01*
X414214Y380901D01*
D02*
G37*
G36*
X503932Y377587D02*
X504061Y377569D01*
X504228Y377532D01*
X504413Y377495D01*
X504616Y377439D01*
X504820Y377365D01*
X505042Y377273D01*
X505264Y377162D01*
X505505Y377032D01*
X505727Y376884D01*
X505949Y376699D01*
X506171Y376495D01*
X506375Y376255D01*
Y377402D01*
X507819D01*
Y369369D01*
Y369350D01*
Y369276D01*
Y369165D01*
Y369017D01*
X507800Y368851D01*
Y368647D01*
X507782Y368425D01*
X507763Y368184D01*
X507708Y367685D01*
X507633Y367166D01*
X507578Y366926D01*
X507522Y366704D01*
X507448Y366500D01*
X507374Y366315D01*
Y366296D01*
X507356Y366278D01*
X507282Y366167D01*
X507189Y366000D01*
X507041Y365796D01*
X506838Y365574D01*
X506597Y365334D01*
X506301Y365093D01*
X505968Y364890D01*
X505949D01*
X505931Y364871D01*
X505875Y364834D01*
X505801Y364815D01*
X505709Y364760D01*
X505597Y364723D01*
X505320Y364630D01*
X504987Y364519D01*
X504579Y364445D01*
X504117Y364371D01*
X503617Y364353D01*
X503450D01*
X503339Y364371D01*
X503191D01*
X503043Y364390D01*
X502858Y364408D01*
X502654Y364445D01*
X502229Y364538D01*
X501784Y364667D01*
X501340Y364852D01*
X500933Y365112D01*
X500914Y365130D01*
X500896Y365149D01*
X500766Y365260D01*
X500618Y365426D01*
X500433Y365667D01*
X500248Y365982D01*
X500081Y366370D01*
X500026Y366592D01*
X499989Y366833D01*
X499952Y367074D01*
Y367351D01*
X501488Y367148D01*
Y367111D01*
X501507Y367037D01*
X501544Y366907D01*
X501581Y366740D01*
X501655Y366574D01*
X501747Y366407D01*
X501858Y366241D01*
X502006Y366111D01*
X502043Y366093D01*
X502117Y366037D01*
X502247Y365963D01*
X502432Y365889D01*
X502654Y365796D01*
X502932Y365722D01*
X503265Y365667D01*
X503617Y365648D01*
X503802D01*
X503987Y365667D01*
X504246Y365704D01*
X504505Y365759D01*
X504783Y365833D01*
X505061Y365945D01*
X505301Y366093D01*
X505320Y366111D01*
X505394Y366167D01*
X505505Y366278D01*
X505634Y366407D01*
X505764Y366592D01*
X505894Y366796D01*
X506023Y367037D01*
X506116Y367314D01*
Y367333D01*
X506134Y367407D01*
X506153Y367555D01*
X506171Y367740D01*
X506190Y367870D01*
Y368018D01*
X506208Y368184D01*
Y368369D01*
Y368573D01*
X506227Y368814D01*
Y369054D01*
Y369332D01*
X506208Y369313D01*
X506171Y369276D01*
X506116Y369221D01*
X506042Y369147D01*
X505949Y369054D01*
X505820Y368943D01*
X505671Y368832D01*
X505523Y368721D01*
X505135Y368499D01*
X504709Y368295D01*
X504468Y368221D01*
X504209Y368166D01*
X503932Y368129D01*
X503654Y368110D01*
X503561D01*
X503469Y368129D01*
X503339D01*
X503173Y368147D01*
X502987Y368184D01*
X502784Y368221D01*
X502562Y368277D01*
X502321Y368351D01*
X502080Y368443D01*
X501840Y368554D01*
X501581Y368684D01*
X501340Y368851D01*
X501099Y369036D01*
X500877Y369239D01*
X500674Y369480D01*
X500655Y369498D01*
X500637Y369535D01*
X500581Y369628D01*
X500507Y369721D01*
X500433Y369869D01*
X500341Y370017D01*
X500248Y370202D01*
X500155Y370424D01*
X500063Y370646D01*
X499970Y370905D01*
X499878Y371164D01*
X499804Y371461D01*
X499674Y372090D01*
X499656Y372442D01*
X499637Y372793D01*
Y372812D01*
Y372849D01*
Y372923D01*
Y373015D01*
X499656Y373145D01*
Y373274D01*
X499693Y373608D01*
X499748Y373978D01*
X499841Y374385D01*
X499952Y374811D01*
X500118Y375237D01*
Y375255D01*
X500137Y375292D01*
X500174Y375348D01*
X500211Y375422D01*
X500322Y375625D01*
X500470Y375884D01*
X500674Y376162D01*
X500914Y376440D01*
X501192Y376736D01*
X501507Y376976D01*
X501525D01*
X501544Y376995D01*
X501599Y377032D01*
X501673Y377069D01*
X501858Y377180D01*
X502117Y377291D01*
X502432Y377402D01*
X502802Y377513D01*
X503210Y377587D01*
X503654Y377606D01*
X503820D01*
X503932Y377587D01*
D02*
G37*
%LPC*%
G36*
X469373Y372775D02*
X469355D01*
X469336Y372756D01*
X469281Y372738D01*
X469207Y372719D01*
X469114Y372682D01*
X469003Y372645D01*
X468874Y372608D01*
X468725Y372571D01*
X468559Y372516D01*
X468355Y372479D01*
X468152Y372423D01*
X467911Y372368D01*
X467652Y372312D01*
X467393Y372256D01*
X467097Y372219D01*
X466782Y372164D01*
X466745D01*
X466634Y372145D01*
X466449Y372108D01*
X466245Y372071D01*
X466023Y372034D01*
X465801Y371979D01*
X465597Y371923D01*
X465412Y371849D01*
X465394D01*
X465338Y371812D01*
X465264Y371775D01*
X465190Y371720D01*
X464968Y371572D01*
X464783Y371350D01*
Y371331D01*
X464746Y371294D01*
X464727Y371220D01*
X464690Y371127D01*
X464653Y371016D01*
X464616Y370905D01*
X464598Y370757D01*
X464579Y370609D01*
Y370591D01*
Y370498D01*
X464598Y370387D01*
X464635Y370239D01*
X464690Y370072D01*
X464783Y369906D01*
X464894Y369721D01*
X465042Y369554D01*
X465061Y369535D01*
X465134Y369498D01*
X465246Y369424D01*
X465394Y369350D01*
X465597Y369276D01*
X465838Y369202D01*
X466116Y369165D01*
X466449Y369147D01*
X466597D01*
X466782Y369165D01*
X466986Y369202D01*
X467245Y369239D01*
X467504Y369313D01*
X467781Y369406D01*
X468059Y369535D01*
X468096Y369554D01*
X468170Y369609D01*
X468300Y369702D01*
X468448Y369832D01*
X468614Y369980D01*
X468799Y370165D01*
X468948Y370387D01*
X469096Y370628D01*
X469114Y370646D01*
X469133Y370720D01*
X469170Y370850D01*
X469225Y371016D01*
X469281Y371238D01*
X469318Y371498D01*
X469336Y371812D01*
X469355Y372182D01*
X469373Y372775D01*
D02*
G37*
G36*
X449419Y379401D02*
X446458D01*
Y369628D01*
X449494D01*
X449623Y369647D01*
X449901Y369665D01*
X450215Y369684D01*
X450549Y369721D01*
X450882Y369776D01*
X451159Y369850D01*
X451196Y369869D01*
X451289Y369887D01*
X451419Y369943D01*
X451585Y370017D01*
X451770Y370128D01*
X451955Y370239D01*
X452141Y370369D01*
X452326Y370516D01*
X452344Y370554D01*
X452418Y370628D01*
X452529Y370757D01*
X452659Y370942D01*
X452807Y371183D01*
X452974Y371461D01*
X453122Y371775D01*
X453251Y372127D01*
Y372145D01*
X453270Y372182D01*
X453288Y372238D01*
X453307Y372312D01*
X453325Y372405D01*
X453362Y372534D01*
X453399Y372664D01*
X453436Y372812D01*
X453492Y373182D01*
X453547Y373608D01*
X453584Y374089D01*
X453603Y374607D01*
Y374626D01*
Y374700D01*
Y374792D01*
X453584Y374940D01*
Y375107D01*
X453566Y375292D01*
X453547Y375514D01*
X453529Y375736D01*
X453436Y376236D01*
X453325Y376754D01*
X453159Y377236D01*
X453048Y377476D01*
X452936Y377680D01*
Y377698D01*
X452899Y377735D01*
X452862Y377791D01*
X452825Y377865D01*
X452677Y378050D01*
X452492Y378272D01*
X452252Y378513D01*
X451974Y378753D01*
X451659Y378957D01*
X451326Y379124D01*
X451289Y379142D01*
X451196Y379161D01*
X451030Y379216D01*
X450789Y379272D01*
X450493Y379309D01*
X450123Y379364D01*
X449901Y379383D01*
X449660D01*
X449419Y379401D01*
D02*
G37*
G36*
X413621D02*
X410660D01*
Y369628D01*
X413695D01*
X413825Y369647D01*
X414103Y369665D01*
X414417Y369684D01*
X414750Y369721D01*
X415084Y369776D01*
X415361Y369850D01*
X415398Y369869D01*
X415491Y369887D01*
X415620Y369943D01*
X415787Y370017D01*
X415972Y370128D01*
X416157Y370239D01*
X416342Y370369D01*
X416527Y370516D01*
X416546Y370554D01*
X416620Y370628D01*
X416731Y370757D01*
X416860Y370942D01*
X417008Y371183D01*
X417175Y371461D01*
X417323Y371775D01*
X417453Y372127D01*
Y372145D01*
X417471Y372182D01*
X417490Y372238D01*
X417508Y372312D01*
X417527Y372405D01*
X417564Y372534D01*
X417601Y372664D01*
X417638Y372812D01*
X417693Y373182D01*
X417749Y373608D01*
X417786Y374089D01*
X417804Y374607D01*
Y374626D01*
Y374700D01*
Y374792D01*
X417786Y374940D01*
Y375107D01*
X417767Y375292D01*
X417749Y375514D01*
X417730Y375736D01*
X417638Y376236D01*
X417527Y376754D01*
X417360Y377236D01*
X417249Y377476D01*
X417138Y377680D01*
Y377698D01*
X417101Y377735D01*
X417064Y377791D01*
X417027Y377865D01*
X416879Y378050D01*
X416694Y378272D01*
X416453Y378513D01*
X416176Y378753D01*
X415861Y378957D01*
X415528Y379124D01*
X415491Y379142D01*
X415398Y379161D01*
X415232Y379216D01*
X414991Y379272D01*
X414695Y379309D01*
X414325Y379364D01*
X414103Y379383D01*
X413862D01*
X413621Y379401D01*
D02*
G37*
G36*
X503968Y376310D02*
X503672D01*
X503598Y376292D01*
X503395Y376273D01*
X503154Y376199D01*
X502858Y376107D01*
X502562Y375940D01*
X502266Y375736D01*
X502117Y375588D01*
X501969Y375440D01*
Y375422D01*
X501932Y375403D01*
X501895Y375348D01*
X501858Y375274D01*
X501803Y375200D01*
X501747Y375089D01*
X501673Y374959D01*
X501618Y374811D01*
X501544Y374644D01*
X501470Y374441D01*
X501414Y374237D01*
X501359Y374015D01*
X501322Y373756D01*
X501285Y373497D01*
X501248Y373219D01*
Y372904D01*
Y372886D01*
Y372830D01*
Y372738D01*
X501266Y372608D01*
Y372460D01*
X501285Y372275D01*
X501340Y371886D01*
X501433Y371442D01*
X501544Y371016D01*
X501729Y370591D01*
X501840Y370406D01*
X501969Y370239D01*
X502006Y370202D01*
X502099Y370109D01*
X502247Y369980D01*
X502469Y369832D01*
X502728Y369665D01*
X503043Y369535D01*
X503395Y369443D01*
X503580Y369424D01*
X503783Y369406D01*
X503895D01*
X503968Y369424D01*
X504172Y369443D01*
X504431Y369517D01*
X504709Y369609D01*
X505024Y369758D01*
X505320Y369961D01*
X505468Y370091D01*
X505616Y370239D01*
Y370257D01*
X505653Y370276D01*
X505690Y370331D01*
X505727Y370406D01*
X505783Y370479D01*
X505857Y370591D01*
X505912Y370720D01*
X505986Y370887D01*
X506060Y371053D01*
X506116Y371238D01*
X506190Y371461D01*
X506245Y371701D01*
X506282Y371942D01*
X506319Y372219D01*
X506356Y372534D01*
Y372849D01*
Y372867D01*
Y372923D01*
Y373015D01*
X506338Y373127D01*
Y373274D01*
X506319Y373441D01*
X506264Y373811D01*
X506171Y374237D01*
X506042Y374663D01*
X505857Y375089D01*
X505727Y375274D01*
X505597Y375440D01*
Y375459D01*
X505560Y375477D01*
X505468Y375570D01*
X505301Y375718D01*
X505079Y375884D01*
X504820Y376032D01*
X504505Y376181D01*
X504154Y376273D01*
X503968Y376310D01*
D02*
G37*
%LPD*%
D10*
X322854Y39026D02*
G03*
X322854Y39026I-7894J0D01*
G01*
X23642D02*
G03*
X23642Y39026I-7894J0D01*
G01*
Y330365D02*
G03*
X23642Y330365I-7894J0D01*
G01*
X69337Y332640D02*
G03*
X59337Y322640I0J-10000D01*
G01*
X130544Y332640D02*
G03*
X130544Y340514I0J3937D01*
G01*
X158130D02*
G03*
X158130Y332640I0J-3937D01*
G01*
X31501Y243643D02*
G03*
X39375Y243643I3937J0D01*
G01*
Y216057D02*
G03*
X31501Y216057I-3937J0D01*
G01*
X39375Y146837D02*
G03*
X31501Y146837I-3937J0D01*
G01*
Y174423D02*
G03*
X39375Y174423I3937J0D01*
G01*
Y77617D02*
G03*
X31501Y77617I-3937J0D01*
G01*
Y105203D02*
G03*
X39375Y105203I3937J0D01*
G01*
X301229Y189965D02*
G03*
X293355Y189965I-3937J0D01*
G01*
Y217550D02*
G03*
X301229Y217550I3937J0D01*
G01*
Y102560D02*
G03*
X293355Y102560I-3937J0D01*
G01*
Y130145D02*
G03*
X301229Y130145I3937J0D01*
G01*
X176885Y39059D02*
G03*
X176885Y31185I0J-3937D01*
G01*
X149299D02*
G03*
X149299Y39059I0J3937D01*
G01*
X322859Y330398D02*
G03*
X322859Y330398I-7894J0D01*
G01*
X23646D02*
G03*
X23646Y330398I-7894J0D01*
G01*
X293355Y247055D02*
G03*
X287355Y253055I-6000J0D01*
G01*
Y67055D02*
G03*
X293355Y73055I0J6000D01*
G01*
X215337Y67055D02*
G03*
X215093Y67045I0J-3000D01*
G01*
X42375Y253055D02*
G03*
X39375Y250055I0J-3000D01*
G01*
Y209645D02*
G03*
X42375Y206645I3000J0D01*
G01*
X59337Y298140D02*
G03*
X69337Y288140I10000J0D01*
G01*
X111837D02*
G03*
X114837Y291140I0J3000D01*
G01*
X173837Y296140D02*
G03*
X170837Y296140I-1500J0D01*
G01*
X173837Y291140D02*
G03*
X176837Y288140I3000J-0D01*
G01*
X229337Y322640D02*
G03*
X219337Y332640I-10000J0D01*
G01*
X117837Y296140D02*
G03*
X114837Y296140I-1500J0D01*
G01*
X69337Y332640D02*
G03*
X59337Y322640I0J-10000D01*
G01*
X219337Y288140D02*
G03*
X229337Y298140I-0J10000D01*
G01*
X98337Y46055D02*
G03*
X92337Y46055I-3000J0D01*
G01*
X86799Y39362D02*
G03*
X92337Y43055I1539J3692D01*
G01*
X68694Y62439D02*
G03*
X86799Y39362I29643J4615D01*
G01*
X72646Y67055D02*
G03*
X68694Y62439I0J-4000D01*
G01*
X78337Y67055D02*
G03*
X81328Y69825I0J3000D01*
G01*
D02*
G03*
X78337Y72595I-2991J-230D01*
G01*
X170837Y249118D02*
G03*
X173837Y249118I1500J0D01*
G01*
X214932Y67027D02*
G03*
X214921Y61084I405J-2973D01*
G01*
X81337Y134425D02*
G03*
X78337Y137425I-3000J0D01*
G01*
Y183835D02*
G03*
X81337Y186835I0J3000D01*
G01*
X78337Y114615D02*
G03*
X81337Y117615I0J3000D01*
G01*
Y203645D02*
G03*
X78337Y206645I-3000J0D01*
G01*
X200347Y39059D02*
G03*
X201887Y39367I0J4000D01*
G01*
X121837Y43059D02*
G03*
X125837Y39059I4000J0D01*
G01*
X218062Y55595D02*
G03*
X214921Y61084I-3697J1528D01*
G01*
X201887Y39367D02*
G03*
X218062Y55595I-11550J27688D01*
G01*
X121837Y46055D02*
G03*
X115837Y46055I-3000J0D01*
G01*
X114837Y249118D02*
G03*
X117837Y249118I1500J0D01*
G01*
X66809Y72595D02*
G03*
X64854Y70855I0J-1969D01*
G01*
X61875Y68205D02*
G03*
X64854Y70855I0J3000D01*
G01*
X39375Y71205D02*
G03*
X42375Y68205I3000J0D01*
G01*
Y114615D02*
G03*
X39375Y111615I0J-3000D01*
G01*
X42375Y183835D02*
G03*
X39375Y180835I0J-3000D01*
G01*
Y140425D02*
G03*
X42375Y137425I3000J0D01*
G01*
X51463Y298140D02*
G03*
X69337Y280266I17874J0D01*
G01*
Y340514D02*
G03*
X51463Y322640I0J-17874D01*
G01*
X237211D02*
G03*
X219337Y340514I-17874J0D01*
G01*
Y280266D02*
G03*
X237211Y298140I-0J17874D01*
G01*
X42375Y260929D02*
G03*
X31501Y250055I0J-10874D01*
G01*
Y209645D02*
G03*
X42375Y198771I10874J0D01*
G01*
Y191709D02*
G03*
X31501Y180835I0J-10874D01*
G01*
Y140425D02*
G03*
X42375Y129551I10874J0D01*
G01*
Y122489D02*
G03*
X31501Y111615I0J-10874D01*
G01*
Y71205D02*
G03*
X42375Y60331I10874J0D01*
G01*
X61065D02*
G03*
X83770Y32094I37272J6724D01*
G01*
X83770Y32094D02*
G03*
X88650Y31185I4567J10961D01*
G01*
X202494Y31185D02*
G03*
X227384Y59181I-12157J35870D01*
G01*
X287355D02*
G03*
X301229Y73055I0J13874D01*
G01*
Y247055D02*
G03*
X287355Y260929I-13874J0D01*
G01*
X59337Y322640D02*
X59337D01*
X238236Y67055D02*
X287355D01*
X238236Y253055D02*
X287355D01*
X293355Y73055D02*
Y102570D01*
X215337Y67055D02*
X223132D01*
X215093Y253055D02*
X223132D01*
X78214Y72595D02*
X78227D01*
X78214Y114615D02*
X78227D01*
X78214Y137425D02*
X78227D01*
X78214Y183835D02*
X78227D01*
X78214Y206645D02*
X78227D01*
X78214Y253055D02*
X114837D01*
X117837Y251874D02*
Y252679D01*
X170837Y251874D02*
Y252679D01*
X173837Y253055D02*
X215093D01*
X214932Y67027D02*
X215093Y67045D01*
X70871Y114615D02*
X72649D01*
X70871Y72595D02*
X72649D01*
X170837Y292867D02*
Y292873D01*
X117837Y292867D02*
Y292873D01*
X170837Y284827D02*
Y292867D01*
X117837Y284827D02*
Y292867D01*
X72649Y72595D02*
X78214D01*
X72649Y114615D02*
X78214D01*
X70871Y137425D02*
X72649D01*
X70871Y183835D02*
X72649D01*
X70871Y253055D02*
X72649D01*
X70871Y206645D02*
X72649D01*
Y137425D02*
X78214D01*
X72649Y183835D02*
X78214D01*
X170837Y257368D02*
Y262504D01*
X117837Y257368D02*
Y262504D01*
X233133Y67055D02*
X238236D01*
X223132Y253055D02*
X238236D01*
X72649Y206645D02*
X78214D01*
X72649Y253055D02*
X78214D01*
X117837Y252679D02*
Y257368D01*
X170837Y252679D02*
Y257368D01*
Y267194D02*
Y284827D01*
X117837Y267194D02*
Y284827D01*
Y262504D02*
Y267194D01*
X170837Y262504D02*
Y267194D01*
X42375Y253055D02*
X70871D01*
X42375Y206645D02*
X70871D01*
X223132Y67055D02*
X233133D01*
X173837Y291140D02*
Y296140D01*
X170837Y292873D02*
Y296140D01*
X69337Y288140D02*
X111837D01*
X59337Y298140D02*
Y322640D01*
X114837Y291140D02*
Y296140D01*
X117837Y292873D02*
Y296140D01*
X69337Y332641D02*
X130553D01*
X229337Y298140D02*
Y322640D01*
X176837Y288140D02*
X219337D01*
X92337Y43055D02*
Y46055D01*
X72646Y67055D02*
X78337D01*
X78227Y72595D02*
X78337D01*
X78227Y114615D02*
X78337D01*
X170837Y249118D02*
Y251874D01*
X173837Y249118D02*
Y253055D01*
X115837Y44413D02*
Y46055D01*
X98337Y44413D02*
X115837D01*
X98337D02*
Y46055D01*
X78227Y206645D02*
X78337D01*
X78227Y253055D02*
X114837Y253055D01*
X81337Y117615D02*
Y134425D01*
X78227Y137425D02*
X78337D01*
X78227Y183835D02*
X78337D01*
X125837Y39059D02*
X149312D01*
X114837Y249118D02*
Y253055D01*
X81337Y186835D02*
Y203645D01*
X117837Y249118D02*
Y251874D01*
X121837Y43059D02*
Y46055D01*
X42375Y114615D02*
X70871D01*
X66809Y72595D02*
X70871D01*
X42375Y68205D02*
X61875D01*
X39375Y71205D02*
Y77617D01*
X42375Y183835D02*
X70871D01*
X42375Y137425D02*
X70871D01*
X39375Y140425D02*
Y146837D01*
X69337Y280266D02*
X109963D01*
X51463Y298140D02*
Y322640D01*
X69337Y340514D02*
X130544D01*
X237211Y298140D02*
Y322640D01*
X178711Y280266D02*
X219337D01*
X109963Y260929D02*
Y280266D01*
X178711Y260929D02*
Y280266D01*
X42375Y260929D02*
X109963D01*
X31501Y209645D02*
Y216064D01*
X42375Y198771D02*
X73463D01*
Y191709D02*
Y198771D01*
X42375Y191709D02*
X73463D01*
X31501Y140425D02*
Y146844D01*
X42375Y129551D02*
X73463D01*
Y122489D02*
Y129551D01*
X42375Y122489D02*
X73463D01*
X31501Y71205D02*
Y77624D01*
X42375Y60331D02*
X61065D01*
X88024Y31185D02*
X149299D01*
X227384Y59181D02*
X287355D01*
X301229Y73055D02*
Y102560D01*
X178711Y260929D02*
X287355D01*
X117837Y262504D02*
Y267194D01*
X293355Y217540D02*
Y247055D01*
Y130135D02*
Y189975D01*
X176872Y39059D02*
X200347D01*
X31501Y105196D02*
Y111615D01*
Y174416D02*
Y180835D01*
Y243636D02*
Y250055D01*
X158121Y332641D02*
X219337D01*
X39375Y174423D02*
Y180835D01*
Y243643D02*
Y250055D01*
Y105203D02*
Y111615D01*
X176885Y31185D02*
X202494D01*
X158130Y340514D02*
X219337D01*
X301229Y217550D02*
Y247055D01*
Y130145D02*
Y189965D01*
X39375Y209645D02*
Y216057D01*
D11*
X0Y-312D02*
X330709D01*
X0Y-311D02*
Y369768D01*
D12*
Y369767D02*
X330709D01*
Y-311D02*
Y369767D01*
X421955Y83444D02*
G03*
X421955Y83444I-2000J0D01*
G01*
X423288D02*
G03*
X423288Y83444I-3333J0D01*
G01*
X1124441Y86108D02*
Y82110D01*
X1126440Y80110D01*
X1128440Y82110D01*
Y86108D01*
X1130439Y80110D02*
X1132438D01*
X1131439D01*
Y84109D01*
X1130439D01*
X1136437D02*
X1138436D01*
X1139436Y83109D01*
Y80110D01*
X1136437D01*
X1135437Y81110D01*
X1136437Y82110D01*
X1139436D01*
X991080Y85109D02*
X992080Y86108D01*
X994079D01*
X995079Y85109D01*
Y84109D01*
X994079Y83109D01*
X993079D01*
X994079D01*
X995079Y82110D01*
Y81110D01*
X994079Y80110D01*
X992080D01*
X991080Y81110D01*
X997078Y80110D02*
Y81110D01*
X998078D01*
Y80110D01*
X997078D01*
X1002076Y81110D02*
X1003076Y80110D01*
X1005075D01*
X1006075Y81110D01*
Y85109D01*
X1005075Y86108D01*
X1003076D01*
X1002076Y85109D01*
Y84109D01*
X1003076Y83109D01*
X1006075D01*
X1008074Y85109D02*
X1009074Y86108D01*
X1011073D01*
X1012073Y85109D01*
Y84109D01*
X1011073Y83109D01*
X1010074D01*
X1011073D01*
X1012073Y82110D01*
Y81110D01*
X1011073Y80110D01*
X1009074D01*
X1008074Y81110D01*
X1014073Y86108D02*
X1018071D01*
Y85109D01*
X1014073Y81110D01*
Y80110D01*
X1020071D02*
Y84109D01*
X1021070D01*
X1022070Y83109D01*
Y80110D01*
Y83109D01*
X1023070Y84109D01*
X1024069Y83109D01*
Y80110D01*
X1026069D02*
X1028068D01*
X1027068D01*
Y84109D01*
X1026069D01*
X1031067Y80110D02*
X1033066D01*
X1032067D01*
Y86108D01*
X1031067D01*
X1044063Y80110D02*
X1042064Y82110D01*
Y84109D01*
X1044063Y86108D01*
X1047062Y85109D02*
X1048061Y86108D01*
X1050061D01*
X1051061Y85109D01*
Y81110D01*
X1050061Y80110D01*
X1048061D01*
X1047062Y81110D01*
Y85109D01*
X1053060Y80110D02*
Y81110D01*
X1054060D01*
Y80110D01*
X1053060D01*
X1058058D02*
X1060058D01*
X1059058D01*
Y86108D01*
X1058058Y85109D01*
X1063057D02*
X1064056Y86108D01*
X1066056D01*
X1067055Y85109D01*
Y81110D01*
X1066056Y80110D01*
X1064056D01*
X1063057Y81110D01*
Y85109D01*
X1069055D02*
X1070054Y86108D01*
X1072054D01*
X1073053Y85109D01*
Y81110D01*
X1072054Y80110D01*
X1070054D01*
X1069055Y81110D01*
Y85109D01*
X1075053D02*
X1076052Y86108D01*
X1078052D01*
X1079051Y85109D01*
Y81110D01*
X1078052Y80110D01*
X1076052D01*
X1075053Y81110D01*
Y85109D01*
X1081051Y80110D02*
Y84109D01*
X1082051D01*
X1083050Y83109D01*
Y80110D01*
Y83109D01*
X1084050Y84109D01*
X1085050Y83109D01*
Y80110D01*
X1087049D02*
Y84109D01*
X1088049D01*
X1089048Y83109D01*
Y80110D01*
Y83109D01*
X1090048Y84109D01*
X1091048Y83109D01*
Y80110D01*
X1093047D02*
X1095046Y82110D01*
Y84109D01*
X1093047Y86108D01*
X857719Y85109D02*
X858719Y86108D01*
X860718D01*
X861718Y85109D01*
Y81110D01*
X860718Y80110D01*
X858719D01*
X857719Y81110D01*
Y85109D01*
X863717Y80110D02*
Y81110D01*
X864717D01*
Y80110D01*
X863717D01*
X868716Y85109D02*
X869715Y86108D01*
X871715D01*
X872714Y85109D01*
Y81110D01*
X871715Y80110D01*
X869715D01*
X868716Y81110D01*
Y85109D01*
X874714D02*
X875713Y86108D01*
X877713D01*
X878712Y85109D01*
Y81110D01*
X877713Y80110D01*
X875713D01*
X874714Y81110D01*
Y85109D01*
X880712D02*
X881711Y86108D01*
X883711D01*
X884711Y85109D01*
Y81110D01*
X883711Y80110D01*
X881711D01*
X880712Y81110D01*
Y85109D01*
X886710Y80110D02*
Y84109D01*
X887710D01*
X888709Y83109D01*
Y80110D01*
Y83109D01*
X889709Y84109D01*
X890709Y83109D01*
Y80110D01*
X892708D02*
X894707D01*
X893708D01*
Y84109D01*
X892708D01*
X897706Y80110D02*
X899706D01*
X898706D01*
Y86108D01*
X897706D01*
X910702Y80110D02*
X908703Y82110D01*
Y84109D01*
X910702Y86108D01*
X913701Y85109D02*
X914701Y86108D01*
X916700D01*
X917700Y85109D01*
Y81110D01*
X916700Y80110D01*
X914701D01*
X913701Y81110D01*
Y85109D01*
X919699Y80110D02*
Y81110D01*
X920699D01*
Y80110D01*
X919699D01*
X924697Y85109D02*
X925697Y86108D01*
X927697D01*
X928696Y85109D01*
Y81110D01*
X927697Y80110D01*
X925697D01*
X924697Y81110D01*
Y85109D01*
X930696D02*
X931695Y86108D01*
X933695D01*
X934694Y85109D01*
Y81110D01*
X933695Y80110D01*
X931695D01*
X930696Y81110D01*
Y85109D01*
X936694D02*
X937693Y86108D01*
X939693D01*
X940692Y85109D01*
Y81110D01*
X939693Y80110D01*
X937693D01*
X936694Y81110D01*
Y85109D01*
X942692D02*
X943691Y86108D01*
X945691D01*
X946690Y85109D01*
Y81110D01*
X945691Y80110D01*
X943691D01*
X942692Y81110D01*
Y85109D01*
X948690Y80110D02*
Y84109D01*
X949689D01*
X950689Y83109D01*
Y80110D01*
Y83109D01*
X951689Y84109D01*
X952689Y83109D01*
Y80110D01*
X954688D02*
Y84109D01*
X955688D01*
X956687Y83109D01*
Y80110D01*
Y83109D01*
X957687Y84109D01*
X958687Y83109D01*
Y80110D01*
X960686D02*
X962685Y82110D01*
Y84109D01*
X960686Y86108D01*
X693769D02*
Y80110D01*
X697767D01*
X699767D02*
X701766D01*
X700766D01*
Y86108D01*
X699767Y85109D01*
X710763Y83109D02*
X714762D01*
X722759Y86108D02*
X726758D01*
X724759D01*
Y80110D01*
X729757D02*
X731756D01*
X732756Y81110D01*
Y83109D01*
X731756Y84109D01*
X729757D01*
X728757Y83109D01*
Y81110D01*
X729757Y80110D01*
X734755Y78111D02*
Y84109D01*
X737754D01*
X738754Y83109D01*
Y81110D01*
X737754Y80110D01*
X734755D01*
X750750Y85109D02*
X749751Y86108D01*
X747751D01*
X746751Y85109D01*
Y81110D01*
X747751Y80110D01*
X749751D01*
X750750Y81110D01*
X753749Y80110D02*
X755749D01*
X756748Y81110D01*
Y83109D01*
X755749Y84109D01*
X753749D01*
X752750Y83109D01*
Y81110D01*
X753749Y80110D01*
X758748Y78111D02*
Y84109D01*
X761747D01*
X762746Y83109D01*
Y81110D01*
X761747Y80110D01*
X758748D01*
X764746Y78111D02*
Y84109D01*
X767745D01*
X768744Y83109D01*
Y81110D01*
X767745Y80110D01*
X764746D01*
X773743D02*
X771743D01*
X770744Y81110D01*
Y83109D01*
X771743Y84109D01*
X773743D01*
X774743Y83109D01*
Y82110D01*
X770744D01*
X776742Y84109D02*
Y80110D01*
Y82110D01*
X777741Y83109D01*
X778741Y84109D01*
X779741D01*
X788738Y83109D02*
X792737D01*
X800734Y86108D02*
Y80110D01*
X804733D01*
X810731D02*
X806732D01*
X810731Y84109D01*
Y85109D01*
X809731Y86108D01*
X807732D01*
X806732Y85109D01*
X818728Y83109D02*
X822727D01*
X834723Y85109D02*
X833723Y86108D01*
X831724D01*
X830724Y85109D01*
Y81110D01*
X831724Y80110D01*
X833723D01*
X834723Y81110D01*
Y83109D01*
X832724D01*
X836722Y80110D02*
Y86108D01*
X840721Y80110D01*
Y86108D01*
X842721D02*
Y80110D01*
X845720D01*
X846719Y81110D01*
Y85109D01*
X845720Y86108D01*
X842721D01*
X643181Y80110D02*
Y86108D01*
X646180D01*
X647180Y85109D01*
Y83109D01*
X646180Y82110D01*
X643181D01*
X649179Y86108D02*
X653178D01*
X651179D01*
Y80110D01*
X655177Y86108D02*
Y80110D01*
Y83109D01*
X659176D01*
Y86108D01*
Y80110D01*
X528215Y85109D02*
X529214Y86108D01*
X531214D01*
X532213Y85109D01*
Y84109D01*
X531214Y83109D01*
X530214D01*
X531214D01*
X532213Y82110D01*
Y81110D01*
X531214Y80110D01*
X529214D01*
X528215Y81110D01*
X534213Y80110D02*
Y81110D01*
X535213D01*
Y80110D01*
X534213D01*
X539211Y81110D02*
X540211Y80110D01*
X542210D01*
X543210Y81110D01*
Y85109D01*
X542210Y86108D01*
X540211D01*
X539211Y85109D01*
Y84109D01*
X540211Y83109D01*
X543210D01*
X545209Y85109D02*
X546209Y86108D01*
X548208D01*
X549208Y85109D01*
Y84109D01*
X548208Y83109D01*
X547209D01*
X548208D01*
X549208Y82110D01*
Y81110D01*
X548208Y80110D01*
X546209D01*
X545209Y81110D01*
X551207Y86108D02*
X555206D01*
Y85109D01*
X551207Y81110D01*
Y80110D01*
X557205D02*
Y84109D01*
X558205D01*
X559205Y83109D01*
Y80110D01*
Y83109D01*
X560204Y84109D01*
X561204Y83109D01*
Y80110D01*
X563203D02*
X565203D01*
X564203D01*
Y84109D01*
X563203D01*
X568202Y80110D02*
X570201D01*
X569202D01*
Y86108D01*
X568202D01*
X581198Y80110D02*
X579198Y82110D01*
Y84109D01*
X581198Y86108D01*
X584197Y85109D02*
X585196Y86108D01*
X587196D01*
X588195Y85109D01*
Y81110D01*
X587196Y80110D01*
X585196D01*
X584197Y81110D01*
Y85109D01*
X590195Y80110D02*
Y81110D01*
X591194D01*
Y80110D01*
X590195D01*
X595193D02*
X597192D01*
X596193D01*
Y86108D01*
X595193Y85109D01*
X600191D02*
X601191Y86108D01*
X603191D01*
X604190Y85109D01*
Y81110D01*
X603191Y80110D01*
X601191D01*
X600191Y81110D01*
Y85109D01*
X606189D02*
X607189Y86108D01*
X609189D01*
X610188Y85109D01*
Y81110D01*
X609189Y80110D01*
X607189D01*
X606189Y81110D01*
Y85109D01*
X612188D02*
X613187Y86108D01*
X615187D01*
X616186Y85109D01*
Y81110D01*
X615187Y80110D01*
X613187D01*
X612188Y81110D01*
Y85109D01*
X618186Y80110D02*
Y84109D01*
X619185D01*
X620185Y83109D01*
Y80110D01*
Y83109D01*
X621185Y84109D01*
X622184Y83109D01*
Y80110D01*
X624184D02*
Y84109D01*
X625183D01*
X626183Y83109D01*
Y80110D01*
Y83109D01*
X627183Y84109D01*
X628182Y83109D01*
Y80110D01*
X630182D02*
X632181Y82110D01*
Y84109D01*
X630182Y86108D01*
X470230Y65110D02*
X472229D01*
X471230D01*
Y71108D01*
X470230Y70109D01*
X475228Y65110D02*
X477228D01*
X476228D01*
Y71108D01*
X475228Y70109D01*
X483226Y65110D02*
Y71108D01*
X480227Y68109D01*
X484225D01*
X492223Y71108D02*
X496222D01*
X494222D01*
Y65110D01*
X499221D02*
X501220D01*
X502220Y66110D01*
Y68109D01*
X501220Y69109D01*
X499221D01*
X498221Y68109D01*
Y66110D01*
X499221Y65110D01*
X505219Y70109D02*
Y69109D01*
X504219D01*
X506218D01*
X505219D01*
Y66110D01*
X506218Y65110D01*
X510217Y69109D02*
X512216D01*
X513216Y68109D01*
Y65110D01*
X510217D01*
X509217Y66110D01*
X510217Y67110D01*
X513216D01*
X515215Y65110D02*
X517215D01*
X516215D01*
Y71108D01*
X515215D01*
X470230Y80110D02*
X472229D01*
X471230D01*
Y86108D01*
X470230Y85109D01*
X475228Y80110D02*
X477228D01*
X476228D01*
Y86108D01*
X475228Y85109D01*
X483226Y80110D02*
Y86108D01*
X480227Y83109D01*
X484225D01*
D13*
X215337Y67055D02*
G03*
X215093Y67045I0J-3000D01*
G01*
X218062Y55595D02*
G03*
X214921Y61084I-3697J1528D01*
G01*
X201887Y39367D02*
G03*
X218062Y55595I-11550J27688D01*
G01*
X200347Y39059D02*
G03*
X201887Y39367I0J4000D01*
G01*
X121837Y43059D02*
G03*
X125837Y39059I4000J0D01*
G01*
X121837Y46055D02*
G03*
X115837Y46055I-3000J0D01*
G01*
X98337D02*
G03*
X92337Y46055I-3000J0D01*
G01*
X86799Y39362D02*
G03*
X92337Y43055I1539J3692D01*
G01*
X68694Y62439D02*
G03*
X86799Y39362I29643J4615D01*
G01*
X72646Y67055D02*
G03*
X68694Y62439I0J-4000D01*
G01*
X78337Y67055D02*
G03*
X81328Y69825I0J3000D01*
G01*
D02*
G03*
X78337Y72595I-2991J-230D01*
G01*
Y114615D02*
G03*
X81337Y117615I0J3000D01*
G01*
Y134425D02*
G03*
X78337Y137425I-3000J0D01*
G01*
Y183835D02*
G03*
X81337Y186835I0J3000D01*
G01*
Y203645D02*
G03*
X78337Y206645I-3000J0D01*
G01*
X114837Y249118D02*
G03*
X117837Y249118I1500J0D01*
G01*
X170837D02*
G03*
X173837Y249118I1500J0D01*
G01*
X215093Y67045D02*
G03*
X214921Y61084I244J-2990D01*
G01*
X39375Y71205D02*
G03*
X42375Y68205I3000J0D01*
G01*
Y114615D02*
G03*
X39375Y111615I0J-3000D01*
G01*
X66809Y72595D02*
G03*
X64854Y70855I0J-1969D01*
G01*
X61875Y68205D02*
G03*
X64854Y70855I0J3000D01*
G01*
X117837Y296140D02*
G03*
X114837Y296140I-1500J0D01*
G01*
X111837Y288140D02*
G03*
X114837Y291140I0J3000D01*
G01*
X229337Y322640D02*
G03*
X219337Y332640I-10000J0D01*
G01*
X173837Y291140D02*
G03*
X176837Y288140I3000J0D01*
G01*
X173837Y296140D02*
G03*
X170837Y296140I-1500J0D01*
G01*
X59337Y298140D02*
G03*
X69337Y288140I10000J0D01*
G01*
Y332640D02*
G03*
X59337Y322640I0J-10000D01*
G01*
X219337Y288140D02*
G03*
X229337Y298140I0J10000D01*
G01*
X42375Y183835D02*
G03*
X39375Y180835I0J-3000D01*
G01*
Y140425D02*
G03*
X42375Y137425I3000J0D01*
G01*
X39375Y209645D02*
G03*
X42375Y206645I3000J0D01*
G01*
Y253055D02*
G03*
X39375Y250055I0J-3000D01*
G01*
X293355Y247055D02*
G03*
X287355Y253055I-6000J0D01*
G01*
Y67055D02*
G03*
X293355Y73055I0J6000D01*
G01*
X215337Y67055D02*
X223132D01*
X215093Y253055D02*
X223132D01*
X125837Y39059D02*
X200347D01*
X121837Y43059D02*
Y46055D01*
X115837Y44413D02*
Y46055D01*
X98337Y44413D02*
X115837D01*
X98337D02*
Y46055D01*
X92337Y43055D02*
Y46055D01*
X72646Y67055D02*
X78337D01*
X78214Y72595D02*
X78337D01*
X78214Y114615D02*
X78337D01*
X81337Y117615D02*
Y134425D01*
X78214Y137425D02*
X78337D01*
X78214Y183835D02*
X78337D01*
X81337Y186835D02*
Y203645D01*
X78214Y206645D02*
X78337D01*
X78214Y253055D02*
X114837D01*
Y249118D02*
Y253055D01*
X117837Y249118D02*
Y252679D01*
X170837Y249118D02*
Y252679D01*
X173837Y249118D02*
Y253055D01*
X215093D01*
X42375Y68205D02*
X61875D01*
X39375Y71205D02*
Y111615D01*
X42375Y114615D02*
X72649D01*
X66809Y72595D02*
X72649D01*
X114837Y291140D02*
Y296140D01*
X69337Y288140D02*
X111837D01*
X69337Y332640D02*
X219337D01*
X229337Y298140D02*
Y322640D01*
X173837Y291140D02*
Y296140D01*
X170837Y292867D02*
Y296140D01*
X59337Y298140D02*
Y322640D01*
X117837Y292867D02*
Y296140D01*
X176837Y288140D02*
X219337D01*
X42375Y183835D02*
X72649D01*
X39375Y140425D02*
Y180835D01*
X42375Y137425D02*
X72649D01*
X42375Y253055D02*
X72649D01*
X42375Y206645D02*
X72649D01*
Y137425D02*
X78214D01*
X72649Y183835D02*
X78214D01*
X170837Y252679D02*
Y257368D01*
X117837Y252679D02*
Y257368D01*
X72649Y206645D02*
X78214D01*
X72649Y253055D02*
X78214D01*
X72649Y72595D02*
X78214D01*
X72649Y114615D02*
X78214D01*
X170837Y257368D02*
Y262504D01*
X117837Y257368D02*
Y262504D01*
X170837Y284827D02*
Y292867D01*
X117837Y284827D02*
Y292867D01*
X170837Y267194D02*
Y284827D01*
X117837Y267194D02*
Y284827D01*
X293355Y73055D02*
Y247055D01*
X223132Y253055D02*
X287355D01*
X223132Y67055D02*
X287355D01*
X117837Y262504D02*
Y267194D01*
X170837Y262504D02*
Y267194D01*
X39375Y209645D02*
Y250055D01*
D14*
X89882Y237130D02*
G03*
X89882Y237130I-600J0D01*
G01*
X90282D02*
G03*
X90282Y237130I-1000J0D01*
G01*
X128071Y57996D02*
G03*
X128071Y57996I-600J0D01*
G01*
X128471D02*
G03*
X128471Y57996I-1000J0D01*
G01*
X96575Y57565D02*
G03*
X96575Y57565I-600J0D01*
G01*
X96975D02*
G03*
X96975Y57565I-1000J0D01*
G01*
X189488Y211659D02*
G03*
X189488Y211659I-600J0D01*
G01*
X189888D02*
G03*
X189888Y211659I-1000J0D01*
G01*
X125118Y226128D02*
G03*
X125118Y226128I-600J0D01*
G01*
X125518D02*
G03*
X125518Y226128I-1000J0D01*
G01*
X133287Y232722D02*
G03*
X133287Y232722I-600J0D01*
G01*
X133687D02*
G03*
X133687Y232722I-1000J0D01*
G01*
X143585Y210577D02*
G03*
X143585Y210577I-600J0D01*
G01*
X143985D02*
G03*
X143985Y210577I-1000J0D01*
G01*
X163701Y230577D02*
G03*
X163701Y230577I-600J0D01*
G01*
X164101D02*
G03*
X164101Y230577I-1000J0D01*
G01*
X163701Y205163D02*
G03*
X163701Y205163I-600J0D01*
G01*
X164101D02*
G03*
X164101Y205163I-1000J0D01*
G01*
X140866Y200163D02*
G03*
X140866Y200163I-600J0D01*
G01*
X141266D02*
G03*
X141266Y200163I-1000J0D01*
G01*
X159333Y184179D02*
G03*
X159333Y184179I-600J0D01*
G01*
X159733D02*
G03*
X159733Y184179I-1000J0D01*
G01*
X130728Y127211D02*
G03*
X130728Y127211I-600J0D01*
G01*
X131128D02*
G03*
X131128Y127211I-1000J0D01*
G01*
X168524Y163825D02*
G03*
X168524Y163825I-600J0D01*
G01*
X168924D02*
G03*
X168924Y163825I-1000J0D01*
G01*
X163406Y144140D02*
G03*
X163406Y144140I-600J0D01*
G01*
X163805D02*
G03*
X163805Y144140I-1000J0D01*
G01*
X174784Y60518D02*
G03*
X174784Y60518I-600J0D01*
G01*
X175184D02*
G03*
X175184Y60518I-1000J0D01*
G01*
X174783Y64651D02*
G03*
X174783Y64651I-600J0D01*
G01*
X175183D02*
G03*
X175183Y64651I-1000J0D01*
G01*
X147953Y54022D02*
G03*
X147953Y54022I-600J0D01*
G01*
X148353D02*
G03*
X148353Y54022I-1000J0D01*
G01*
X111831Y150832D02*
G03*
X111831Y150832I-600J0D01*
G01*
X112231D02*
G03*
X112231Y150832I-1000J0D01*
G01*
X106811Y73864D02*
G03*
X106811Y73864I-600J0D01*
G01*
X107211D02*
G03*
X107211Y73864I-1000J0D01*
G01*
X168032Y88529D02*
G03*
X168032Y88529I-600J0D01*
G01*
X168431D02*
G03*
X168431Y88529I-1000J0D01*
G01*
X146476Y118648D02*
G03*
X146476Y118648I-600J0D01*
G01*
X146876D02*
G03*
X146876Y118648I-1000J0D01*
G01*
X138110Y116285D02*
G03*
X138110Y116285I-600J0D01*
G01*
X138510D02*
G03*
X138510Y116285I-1000J0D01*
G01*
X136142Y110774D02*
G03*
X136142Y110774I-600J0D01*
G01*
X136542D02*
G03*
X136542Y110774I-1000J0D01*
G01*
X162323Y88529D02*
G03*
X162323Y88529I-600J0D01*
G01*
X162723D02*
G03*
X162723Y88529I-1000J0D01*
G01*
X162323Y74750D02*
G03*
X162323Y74750I-600J0D01*
G01*
X162723D02*
G03*
X162723Y74750I-1000J0D01*
G01*
X134173Y64317D02*
G03*
X134173Y64317I-600J0D01*
G01*
X134573D02*
G03*
X134573Y64317I-1000J0D01*
G01*
X115866Y82624D02*
G03*
X115866Y82624I-600J0D01*
G01*
X116266D02*
G03*
X116266Y82624I-1000J0D01*
G01*
X115866Y84592D02*
G03*
X115866Y84592I-600J0D01*
G01*
X116266D02*
G03*
X116266Y84592I-1000J0D01*
G01*
X115866Y100340D02*
G03*
X115866Y100340I-600J0D01*
G01*
X116266D02*
G03*
X116266Y100340I-1000J0D01*
G01*
X106614Y98372D02*
G03*
X106614Y98372I-600J0D01*
G01*
X107014D02*
G03*
X107014Y98372I-1000J0D01*
G01*
X106614Y102309D02*
G03*
X106614Y102309I-600J0D01*
G01*
X107014D02*
G03*
X107014Y102309I-1000J0D01*
G01*
X92638Y111922D02*
G03*
X92638Y111922I-600J0D01*
G01*
X93038D02*
G03*
X93038Y111922I-1000J0D01*
G01*
X99429Y116187D02*
G03*
X99429Y116187I-600J0D01*
G01*
X99829D02*
G03*
X99829Y116187I-1000J0D01*
G01*
X101988D02*
G03*
X101988Y116187I-600J0D01*
G01*
X102388D02*
G03*
X102388Y116187I-1000J0D01*
G01*
X111929Y119336D02*
G03*
X111929Y119336I-600J0D01*
G01*
X112329D02*
G03*
X112329Y119336I-1000J0D01*
G01*
X104547Y133510D02*
G03*
X104547Y133510I-600J0D01*
G01*
X104947D02*
G03*
X104947Y133510I-1000J0D01*
G01*
X99429D02*
G03*
X99429Y133510I-600J0D01*
G01*
X99829D02*
G03*
X99829Y133510I-1000J0D01*
G01*
X116949Y150439D02*
G03*
X116949Y150439I-600J0D01*
G01*
X117349D02*
G03*
X117349Y150439I-1000J0D01*
G01*
X116949Y163037D02*
G03*
X116949Y163037I-600J0D01*
G01*
X117349D02*
G03*
X117349Y163037I-1000J0D01*
G01*
X143326Y173668D02*
G03*
X143326Y173668I-600J0D01*
G01*
X143727D02*
G03*
X143727Y173668I-1000J0D01*
G01*
X106417Y184100D02*
G03*
X106417Y184100I-600J0D01*
G01*
X106817D02*
G03*
X106817Y184100I-1000J0D01*
G01*
X128993Y205183D02*
G03*
X128993Y205183I-600J0D01*
G01*
X129393D02*
G03*
X129393Y205183I-1000J0D01*
G01*
X106159Y200183D02*
G03*
X106159Y200183I-600J0D01*
G01*
X106559D02*
G03*
X106559Y200183I-1000J0D01*
G01*
X86535Y233510D02*
G03*
X86535Y233510I-600J0D01*
G01*
X86935D02*
G03*
X86935Y233510I-1000J0D01*
G01*
X147244Y314611D02*
G03*
X147244Y314611I-600J0D01*
G01*
X147644D02*
G03*
X147644Y314611I-1000J0D01*
G01*
X68621Y311659D02*
G03*
X68621Y311659I-600J0D01*
G01*
X69021D02*
G03*
X69021Y311659I-1000J0D01*
G01*
X77376Y318094D02*
G03*
X77376Y318094I-600J0D01*
G01*
X77776D02*
G03*
X77776Y318094I-1000J0D01*
G01*
X199823Y307042D02*
G03*
X199823Y307042I-600J0D01*
G01*
X200223D02*
G03*
X200223Y307042I-1000J0D01*
G01*
X192638D02*
G03*
X192638Y307042I-600J0D01*
G01*
X193038D02*
G03*
X193038Y307042I-1000J0D01*
G01*
X181909Y313234D02*
G03*
X181909Y313234I-600J0D01*
G01*
X182309D02*
G03*
X182309Y313234I-1000J0D01*
G01*
X185158Y304514D02*
G03*
X185158Y304514I-600J0D01*
G01*
X185557D02*
G03*
X185557Y304514I-1000J0D01*
G01*
X169803Y319790D02*
G03*
X169803Y319790I-600J0D01*
G01*
X170203D02*
G03*
X170203Y319790I-1000J0D01*
G01*
X163898D02*
G03*
X163898Y319790I-600J0D01*
G01*
X164298D02*
G03*
X164298Y319790I-1000J0D01*
G01*
X150807Y311069D02*
G03*
X150807Y311069I-600J0D01*
G01*
X151207D02*
G03*
X151207Y311069I-1000J0D01*
G01*
X169016Y327407D02*
G03*
X169016Y327407I-600J0D01*
G01*
X169416D02*
G03*
X169416Y327407I-1000J0D01*
G01*
X169803Y315990D02*
G03*
X169803Y315990I-600J0D01*
G01*
X170203D02*
G03*
X170203Y315990I-1000J0D01*
G01*
X169803Y314022D02*
G03*
X169803Y314022I-600J0D01*
G01*
X170203D02*
G03*
X170203Y314022I-1000J0D01*
G01*
X169803Y312053D02*
G03*
X169803Y312053I-600J0D01*
G01*
X170203D02*
G03*
X170203Y312053I-1000J0D01*
G01*
X169803Y310085D02*
G03*
X169803Y310085I-600J0D01*
G01*
X170203D02*
G03*
X170203Y310085I-1000J0D01*
G01*
X169803Y308117D02*
G03*
X169803Y308117I-600J0D01*
G01*
X170203D02*
G03*
X170203Y308117I-1000J0D01*
G01*
X167835D02*
G03*
X167835Y308117I-600J0D01*
G01*
X168235D02*
G03*
X168235Y308117I-1000J0D01*
G01*
X167835Y310085D02*
G03*
X167835Y310085I-600J0D01*
G01*
X168235D02*
G03*
X168235Y310085I-1000J0D01*
G01*
X167835Y312053D02*
G03*
X167835Y312053I-600J0D01*
G01*
X168235D02*
G03*
X168235Y312053I-1000J0D01*
G01*
X167835Y314022D02*
G03*
X167835Y314022I-600J0D01*
G01*
X168235D02*
G03*
X168235Y314022I-1000J0D01*
G01*
X167835Y315990D02*
G03*
X167835Y315990I-600J0D01*
G01*
X168235D02*
G03*
X168235Y315990I-1000J0D01*
G01*
X165866D02*
G03*
X165866Y315990I-600J0D01*
G01*
X166266D02*
G03*
X166266Y315990I-1000J0D01*
G01*
X165866Y314022D02*
G03*
X165866Y314022I-600J0D01*
G01*
X166266D02*
G03*
X166266Y314022I-1000J0D01*
G01*
X165866Y308117D02*
G03*
X165866Y308117I-600J0D01*
G01*
X166266D02*
G03*
X166266Y308117I-1000J0D01*
G01*
X165866Y310085D02*
G03*
X165866Y310085I-600J0D01*
G01*
X166266D02*
G03*
X166266Y310085I-1000J0D01*
G01*
X161929D02*
G03*
X161929Y310085I-600J0D01*
G01*
X162329D02*
G03*
X162329Y310085I-1000J0D01*
G01*
X161929Y308117D02*
G03*
X161929Y308117I-600J0D01*
G01*
X162329D02*
G03*
X162329Y308117I-1000J0D01*
G01*
X163898D02*
G03*
X163898Y308117I-600J0D01*
G01*
X164298D02*
G03*
X164298Y308117I-1000J0D01*
G01*
X163898Y310085D02*
G03*
X163898Y310085I-600J0D01*
G01*
X164298D02*
G03*
X164298Y310085I-1000J0D01*
G01*
X163898Y314022D02*
G03*
X163898Y314022I-600J0D01*
G01*
X164298D02*
G03*
X164298Y314022I-1000J0D01*
G01*
X163898Y315990D02*
G03*
X163898Y315990I-600J0D01*
G01*
X164298D02*
G03*
X164298Y315990I-1000J0D01*
G01*
X161929D02*
G03*
X161929Y315990I-600J0D01*
G01*
X162329D02*
G03*
X162329Y315990I-1000J0D01*
G01*
X161929Y314022D02*
G03*
X161929Y314022I-600J0D01*
G01*
X162329D02*
G03*
X162329Y314022I-1000J0D01*
G01*
X161929Y312053D02*
G03*
X161929Y312053I-600J0D01*
G01*
X162329D02*
G03*
X162329Y312053I-1000J0D01*
G01*
X163898D02*
G03*
X163898Y312053I-600J0D01*
G01*
X164298D02*
G03*
X164298Y312053I-1000J0D01*
G01*
X165866D02*
G03*
X165866Y312053I-600J0D01*
G01*
X166266D02*
G03*
X166266Y312053I-1000J0D01*
G01*
X165079Y327407D02*
G03*
X165079Y327407I-600J0D01*
G01*
X165479D02*
G03*
X165479Y327407I-1000J0D01*
G01*
X181909Y321108D02*
G03*
X181909Y321108I-600J0D01*
G01*
X182309D02*
G03*
X182309Y321108I-1000J0D01*
G01*
X149331Y297092D02*
G03*
X149331Y297092I-600J0D01*
G01*
X149731D02*
G03*
X149731Y297092I-1000J0D01*
G01*
X142638Y302210D02*
G03*
X142638Y302210I-600J0D01*
G01*
X143038D02*
G03*
X143038Y302210I-1000J0D01*
G01*
X160158Y298569D02*
G03*
X160158Y298569I-600J0D01*
G01*
X160557D02*
G03*
X160557Y298569I-1000J0D01*
G01*
X172886Y327407D02*
G03*
X172886Y327407I-600J0D01*
G01*
X173286D02*
G03*
X173286Y327407I-1000J0D01*
G01*
X85158Y62289D02*
G03*
X85158Y62289I-600J0D01*
G01*
X85558D02*
G03*
X85558Y62289I-1000J0D01*
G01*
X102284Y221108D02*
G03*
X102284Y221108I-600J0D01*
G01*
X102683D02*
G03*
X102683Y221108I-1000J0D01*
G01*
X90472Y207624D02*
G03*
X90472Y207624I-600J0D01*
G01*
X90872D02*
G03*
X90872Y207624I-1000J0D01*
G01*
X90472Y138423D02*
G03*
X90472Y138423I-600J0D01*
G01*
X90872D02*
G03*
X90872Y138423I-1000J0D01*
G01*
X102284Y151907D02*
G03*
X102284Y151907I-600J0D01*
G01*
X102683D02*
G03*
X102683Y151907I-1000J0D01*
G01*
X90472Y69124D02*
G03*
X90472Y69124I-600J0D01*
G01*
X90872D02*
G03*
X90872Y69124I-1000J0D01*
G01*
X102284Y82608D02*
G03*
X102284Y82608I-600J0D01*
G01*
X102683D02*
G03*
X102683Y82608I-1000J0D01*
G01*
X105532Y90301D02*
G03*
X105532Y90301I-600J0D01*
G01*
X105931D02*
G03*
X105931Y90301I-1000J0D01*
G01*
X197854Y200931D02*
G03*
X197854Y200931I-600J0D01*
G01*
X198254D02*
G03*
X198254Y200931I-1000J0D01*
G01*
X112520Y232525D02*
G03*
X112520Y232525I-600J0D01*
G01*
X112920D02*
G03*
X112920Y232525I-1000J0D01*
G01*
X114094Y226915D02*
G03*
X114094Y226915I-600J0D01*
G01*
X114495D02*
G03*
X114495Y226915I-1000J0D01*
G01*
X118425Y230262D02*
G03*
X118425Y230262I-600J0D01*
G01*
X118825D02*
G03*
X118825Y230262I-1000J0D01*
G01*
X119964Y219041D02*
G03*
X119964Y219041I-600J0D01*
G01*
X120364D02*
G03*
X120364Y219041I-1000J0D01*
G01*
X115866Y210872D02*
G03*
X115866Y210872I-600J0D01*
G01*
X116266D02*
G03*
X116266Y210872I-1000J0D01*
G01*
X129216Y216974D02*
G03*
X129216Y216974I-600J0D01*
G01*
X129616D02*
G03*
X129616Y216974I-1000J0D01*
G01*
X102992Y237348D02*
G03*
X102992Y237348I-600J0D01*
G01*
X103392D02*
G03*
X103392Y237348I-1000J0D01*
G01*
X168327Y118451D02*
G03*
X168327Y118451I-600J0D01*
G01*
X168727D02*
G03*
X168727Y118451I-1000J0D01*
G01*
X185846Y73469D02*
G03*
X185846Y73469I-600J0D01*
G01*
X186247D02*
G03*
X186247Y73469I-1000J0D01*
G01*
X185846Y76069D02*
G03*
X185846Y76069I-600J0D01*
G01*
X186247D02*
G03*
X186247Y76069I-1000J0D01*
G01*
X185846Y70951D02*
G03*
X185846Y70951I-600J0D01*
G01*
X186247D02*
G03*
X186247Y70951I-1000J0D01*
G01*
X178515Y64647D02*
G03*
X178515Y64647I-600J0D01*
G01*
X178915D02*
G03*
X178915Y64647I-1000J0D01*
G01*
X178515Y60415D02*
G03*
X178515Y60415I-600J0D01*
G01*
X178915D02*
G03*
X178915Y60415I-1000J0D01*
G01*
X144213Y54415D02*
G03*
X144213Y54415I-600J0D01*
G01*
X144613D02*
G03*
X144613Y54415I-1000J0D01*
G01*
X170591Y211462D02*
G03*
X170591Y211462I-600J0D01*
G01*
X170991D02*
G03*
X170991Y211462I-1000J0D01*
G01*
X170591Y218155D02*
G03*
X170591Y218155I-600J0D01*
G01*
X170991D02*
G03*
X170991Y218155I-1000J0D01*
G01*
X154252Y297683D02*
G03*
X154252Y297683I-600J0D01*
G01*
X154652D02*
G03*
X154652Y297683I-1000J0D01*
G01*
X181909Y304514D02*
G03*
X181909Y304514I-600J0D01*
G01*
X182309D02*
G03*
X182309Y304514I-1000J0D01*
G01*
X137716Y301620D02*
G03*
X137716Y301620I-600J0D01*
G01*
X138117D02*
G03*
X138117Y301620I-1000J0D01*
G01*
D15*
X410642Y90610D02*
X1183426D01*
X410642Y75610D02*
X1183426D01*
X410642Y60610D02*
X1183426D01*
Y105610D01*
X410642D02*
X1183426D01*
X410642Y60610D02*
Y105610D01*
X1119941Y60610D02*
Y105610D01*
X986580Y60610D02*
Y105610D01*
X853219Y60610D02*
Y105610D01*
X689269Y60610D02*
Y105610D01*
X638681Y60610D02*
Y105610D01*
X523715Y60610D02*
Y105610D01*
X465730Y60610D02*
Y105610D01*
D16*
X1124441Y102308D02*
Y97509D01*
X1126840Y95110D01*
X1129239Y97509D01*
Y102308D01*
X1131638Y95110D02*
X1134038D01*
X1132838D01*
Y99909D01*
X1131638D01*
X1138836D02*
X1141235D01*
X1142435Y98709D01*
Y95110D01*
X1138836D01*
X1137636Y96310D01*
X1138836Y97509D01*
X1142435D01*
X1144834Y95110D02*
X1149633Y99909D01*
X1152032Y95110D02*
Y102308D01*
X1155631D01*
X1156830Y101108D01*
Y98709D01*
X1155631Y97509D01*
X1152032D01*
X1160429Y99909D02*
X1162828D01*
X1164028Y98709D01*
Y95110D01*
X1160429D01*
X1159229Y96310D01*
X1160429Y97509D01*
X1164028D01*
X1171226Y102308D02*
Y95110D01*
X1167627D01*
X1166427Y96310D01*
Y98709D01*
X1167627Y99909D01*
X1171226D01*
X991080Y102308D02*
Y95110D01*
Y98709D01*
X995878D01*
Y102308D01*
Y95110D01*
X999477D02*
X1001877D01*
X1003076Y96310D01*
Y98709D01*
X1001877Y99909D01*
X999477D01*
X998278Y98709D01*
Y96310D01*
X999477Y95110D01*
X1005475D02*
X1007875D01*
X1006675D01*
Y102308D01*
X1005475D01*
X1015072Y95110D02*
X1012673D01*
X1011473Y96310D01*
Y98709D01*
X1012673Y99909D01*
X1015072D01*
X1016272Y98709D01*
Y97509D01*
X1011473D01*
X1025869Y102308D02*
X1030667D01*
X1028268D01*
Y95110D01*
X1034266D02*
X1036665D01*
X1037865Y96310D01*
Y98709D01*
X1036665Y99909D01*
X1034266D01*
X1033066Y98709D01*
Y96310D01*
X1034266Y95110D01*
X1040264D02*
X1042663D01*
X1041464D01*
Y102308D01*
X1040264D01*
X1049861Y95110D02*
X1047462D01*
X1046262Y96310D01*
Y98709D01*
X1047462Y99909D01*
X1049861D01*
X1051061Y98709D01*
Y97509D01*
X1046262D01*
X1053460Y99909D02*
Y95110D01*
Y97509D01*
X1054659Y98709D01*
X1055859Y99909D01*
X1057059D01*
X1061857D02*
X1064256D01*
X1065456Y98709D01*
Y95110D01*
X1061857D01*
X1060658Y96310D01*
X1061857Y97509D01*
X1065456D01*
X1067855Y95110D02*
Y99909D01*
X1071454D01*
X1072654Y98709D01*
Y95110D01*
X1079851Y99909D02*
X1076252D01*
X1075053Y98709D01*
Y96310D01*
X1076252Y95110D01*
X1079851D01*
X1085849D02*
X1083450D01*
X1082250Y96310D01*
Y98709D01*
X1083450Y99909D01*
X1085849D01*
X1087049Y98709D01*
Y97509D01*
X1082250D01*
X1099045Y95110D02*
X1096646Y97509D01*
Y99909D01*
X1099045Y102308D01*
X1102644Y98709D02*
X1107442D01*
X1109842Y95110D02*
X1112241Y97509D01*
Y99909D01*
X1109842Y102308D01*
X857719D02*
Y95110D01*
Y98709D01*
X862518D01*
Y102308D01*
Y95110D01*
X866117D02*
X868516D01*
X869715Y96310D01*
Y98709D01*
X868516Y99909D01*
X866117D01*
X864917Y98709D01*
Y96310D01*
X866117Y95110D01*
X872115D02*
X874514D01*
X873314D01*
Y102308D01*
X872115D01*
X881711Y95110D02*
X879312D01*
X878113Y96310D01*
Y98709D01*
X879312Y99909D01*
X881711D01*
X882911Y98709D01*
Y97509D01*
X878113D01*
X892508Y102308D02*
X897306D01*
X894907D01*
Y95110D01*
X900905D02*
X903304D01*
X904504Y96310D01*
Y98709D01*
X903304Y99909D01*
X900905D01*
X899706Y98709D01*
Y96310D01*
X900905Y95110D01*
X906903D02*
X909303D01*
X908103D01*
Y102308D01*
X906903D01*
X916500Y95110D02*
X914101D01*
X912901Y96310D01*
Y98709D01*
X914101Y99909D01*
X916500D01*
X917700Y98709D01*
Y97509D01*
X912901D01*
X920099Y99909D02*
Y95110D01*
Y97509D01*
X921299Y98709D01*
X922498Y99909D01*
X923698D01*
X928496D02*
X930896D01*
X932095Y98709D01*
Y95110D01*
X928496D01*
X927297Y96310D01*
X928496Y97509D01*
X932095D01*
X934494Y95110D02*
Y99909D01*
X938093D01*
X939293Y98709D01*
Y95110D01*
X946490Y99909D02*
X942892D01*
X941692Y98709D01*
Y96310D01*
X942892Y95110D01*
X946490D01*
X952489D02*
X950089D01*
X948890Y96310D01*
Y98709D01*
X950089Y99909D01*
X952489D01*
X953688Y98709D01*
Y97509D01*
X948890D01*
X965684Y95110D02*
X963285Y97509D01*
Y99909D01*
X965684Y102308D01*
X969283Y98709D02*
X974082D01*
X971682Y101108D02*
Y96310D01*
X976481Y95110D02*
X978880Y97509D01*
Y99909D01*
X976481Y102308D01*
X693769D02*
Y95110D01*
X697367D01*
X698567Y96310D01*
Y101108D01*
X697367Y102308D01*
X693769D01*
X700966Y99909D02*
Y95110D01*
Y97509D01*
X702166Y98709D01*
X703366Y99909D01*
X704565D01*
X708164Y95110D02*
X710563D01*
X709364D01*
Y99909D01*
X708164D01*
X714162Y95110D02*
X716561D01*
X715362D01*
Y102308D01*
X714162D01*
X720160Y95110D02*
X722559D01*
X721360D01*
Y102308D01*
X720160D01*
X733356D02*
Y95110D01*
X738154D01*
X741753Y99909D02*
X744152D01*
X745352Y98709D01*
Y95110D01*
X741753D01*
X740554Y96310D01*
X741753Y97509D01*
X745352D01*
X747751Y99909D02*
Y96310D01*
X748951Y95110D01*
X752550D01*
Y93911D01*
X751350Y92711D01*
X750150D01*
X752550Y95110D02*
Y99909D01*
X758548Y95110D02*
X756148D01*
X754949Y96310D01*
Y98709D01*
X756148Y99909D01*
X758548D01*
X759747Y98709D01*
Y97509D01*
X754949D01*
X762147Y99909D02*
Y95110D01*
Y97509D01*
X763346Y98709D01*
X764546Y99909D01*
X765745D01*
X776542Y95110D02*
Y102308D01*
X780141D01*
X781340Y101108D01*
Y98709D01*
X780141Y97509D01*
X776542D01*
X784939Y99909D02*
X787338D01*
X788538Y98709D01*
Y95110D01*
X784939D01*
X783740Y96310D01*
X784939Y97509D01*
X788538D01*
X790937Y95110D02*
X793336D01*
X792137D01*
Y99909D01*
X790937D01*
X796935D02*
Y95110D01*
Y97509D01*
X798135Y98709D01*
X799334Y99909D01*
X800534D01*
X643181Y95110D02*
Y102308D01*
X646780D01*
X647980Y101108D01*
Y98709D01*
X646780Y97509D01*
X643181D01*
X650379Y95110D02*
X652778D01*
X651578D01*
Y102308D01*
X650379D01*
X657576Y99909D02*
X659976D01*
X661175Y98709D01*
Y95110D01*
X657576D01*
X656377Y96310D01*
X657576Y97509D01*
X661175D01*
X664774Y101108D02*
Y99909D01*
X663575D01*
X665974D01*
X664774D01*
Y96310D01*
X665974Y95110D01*
X673171D02*
X670772D01*
X669573Y96310D01*
Y98709D01*
X670772Y99909D01*
X673171D01*
X674371Y98709D01*
Y97509D01*
X669573D01*
X681569Y102308D02*
Y95110D01*
X677970D01*
X676770Y96310D01*
Y98709D01*
X677970Y99909D01*
X681569D01*
X528215Y102308D02*
Y95110D01*
Y98709D01*
X533013D01*
Y102308D01*
Y95110D01*
X536612D02*
X539011D01*
X540211Y96310D01*
Y98709D01*
X539011Y99909D01*
X536612D01*
X535412Y98709D01*
Y96310D01*
X536612Y95110D01*
X542610D02*
X545009D01*
X543810D01*
Y102308D01*
X542610D01*
X552207Y95110D02*
X549808D01*
X548608Y96310D01*
Y98709D01*
X549808Y99909D01*
X552207D01*
X553407Y98709D01*
Y97509D01*
X548608D01*
X567802Y101108D02*
X566602Y102308D01*
X564203D01*
X563003Y101108D01*
Y99909D01*
X564203Y98709D01*
X566602D01*
X567802Y97509D01*
Y96310D01*
X566602Y95110D01*
X564203D01*
X563003Y96310D01*
X570201Y95110D02*
X572600D01*
X571401D01*
Y99909D01*
X570201D01*
X576199D02*
X580998D01*
X576199Y95110D01*
X580998D01*
X586996D02*
X584596D01*
X583397Y96310D01*
Y98709D01*
X584596Y99909D01*
X586996D01*
X588195Y98709D01*
Y97509D01*
X583397D01*
X475028Y101108D02*
X473829Y102308D01*
X471430D01*
X470230Y101108D01*
Y96310D01*
X471430Y95110D01*
X473829D01*
X475028Y96310D01*
X478627Y95110D02*
X481027D01*
X482226Y96310D01*
Y98709D01*
X481027Y99909D01*
X478627D01*
X477428Y98709D01*
Y96310D01*
X478627Y95110D01*
X484625Y99909D02*
Y96310D01*
X485825Y95110D01*
X489424D01*
Y99909D01*
X491823Y95110D02*
Y99909D01*
X495422D01*
X496621Y98709D01*
Y95110D01*
X500220Y101108D02*
Y99909D01*
X499021D01*
X501420D01*
X500220D01*
Y96310D01*
X501420Y95110D01*
X424441Y101108D02*
X423241Y102308D01*
X420842D01*
X419642Y101108D01*
Y99909D01*
X420842Y98709D01*
X423241D01*
X424441Y97509D01*
Y96310D01*
X423241Y95110D01*
X420842D01*
X419642Y96310D01*
X426840Y99909D02*
Y96310D01*
X428040Y95110D01*
X431638D01*
Y93911D01*
X430439Y92711D01*
X429239D01*
X431638Y95110D02*
Y99909D01*
X434038Y95110D02*
Y99909D01*
X435237D01*
X436437Y98709D01*
Y95110D01*
Y98709D01*
X437637Y99909D01*
X438836Y98709D01*
Y95110D01*
X441235Y102308D02*
Y95110D01*
X444834D01*
X446034Y96310D01*
Y97509D01*
Y98709D01*
X444834Y99909D01*
X441235D01*
X449633Y95110D02*
X452032D01*
X453231Y96310D01*
Y98709D01*
X452032Y99909D01*
X449633D01*
X448433Y98709D01*
Y96310D01*
X449633Y95110D01*
X455631D02*
X458030D01*
X456830D01*
Y102308D01*
X455631D01*
M02*
