G04*
G04 #@! TF.GenerationSoftware,Altium Limited,Altium Designer,18.1.9 (240)*
G04*
G04 Layer_Color=128*
%FSLAX25Y25*%
%MOIN*%
G70*
G01*
G75*
%ADD10C,0.00118*%
%ADD11C,0.00504*%
%ADD12C,0.01000*%
%ADD13C,0.00158*%
%ADD14C,0.00200*%
D10*
X322854Y39026D02*
G03*
X322854Y39026I-7894J0D01*
G01*
X23642D02*
G03*
X23642Y39026I-7894J0D01*
G01*
Y330365D02*
G03*
X23642Y330365I-7894J0D01*
G01*
X69337Y332640D02*
G03*
X59337Y322640I0J-10000D01*
G01*
X130544Y332640D02*
G03*
X130544Y340514I0J3937D01*
G01*
X158130D02*
G03*
X158130Y332640I0J-3937D01*
G01*
X31501Y243643D02*
G03*
X39375Y243643I3937J0D01*
G01*
Y216057D02*
G03*
X31501Y216057I-3937J0D01*
G01*
X39375Y146837D02*
G03*
X31501Y146837I-3937J0D01*
G01*
Y174423D02*
G03*
X39375Y174423I3937J0D01*
G01*
Y77617D02*
G03*
X31501Y77617I-3937J0D01*
G01*
Y105203D02*
G03*
X39375Y105203I3937J0D01*
G01*
X301229Y189965D02*
G03*
X293355Y189965I-3937J0D01*
G01*
Y217550D02*
G03*
X301229Y217550I3937J0D01*
G01*
Y102560D02*
G03*
X293355Y102560I-3937J0D01*
G01*
Y130145D02*
G03*
X301229Y130145I3937J0D01*
G01*
X176885Y39059D02*
G03*
X176885Y31185I0J-3937D01*
G01*
X149299D02*
G03*
X149299Y39059I0J3937D01*
G01*
X322859Y330398D02*
G03*
X322859Y330398I-7894J0D01*
G01*
X23646D02*
G03*
X23646Y330398I-7894J0D01*
G01*
X293355Y247055D02*
G03*
X287355Y253055I-6000J0D01*
G01*
Y67055D02*
G03*
X293355Y73055I0J6000D01*
G01*
X215337Y67055D02*
G03*
X215093Y67045I0J-3000D01*
G01*
X42375Y253055D02*
G03*
X39375Y250055I0J-3000D01*
G01*
Y209645D02*
G03*
X42375Y206645I3000J0D01*
G01*
X59337Y298140D02*
G03*
X69337Y288140I10000J0D01*
G01*
X111837D02*
G03*
X114837Y291140I0J3000D01*
G01*
X173837Y296140D02*
G03*
X170837Y296140I-1500J0D01*
G01*
X173837Y291140D02*
G03*
X176837Y288140I3000J-0D01*
G01*
X229337Y322640D02*
G03*
X219337Y332640I-10000J0D01*
G01*
X117837Y296140D02*
G03*
X114837Y296140I-1500J0D01*
G01*
X69337Y332640D02*
G03*
X59337Y322640I0J-10000D01*
G01*
X219337Y288140D02*
G03*
X229337Y298140I-0J10000D01*
G01*
X98337Y46055D02*
G03*
X92337Y46055I-3000J0D01*
G01*
X86799Y39362D02*
G03*
X92337Y43055I1539J3692D01*
G01*
X68694Y62439D02*
G03*
X86799Y39362I29643J4615D01*
G01*
X72646Y67055D02*
G03*
X68694Y62439I0J-4000D01*
G01*
X78337Y67055D02*
G03*
X81328Y69825I0J3000D01*
G01*
D02*
G03*
X78337Y72595I-2991J-230D01*
G01*
X170837Y249118D02*
G03*
X173837Y249118I1500J0D01*
G01*
X214932Y67027D02*
G03*
X214921Y61084I405J-2973D01*
G01*
X81337Y134425D02*
G03*
X78337Y137425I-3000J0D01*
G01*
Y183835D02*
G03*
X81337Y186835I0J3000D01*
G01*
X78337Y114615D02*
G03*
X81337Y117615I0J3000D01*
G01*
Y203645D02*
G03*
X78337Y206645I-3000J0D01*
G01*
X200347Y39059D02*
G03*
X201887Y39367I0J4000D01*
G01*
X121837Y43059D02*
G03*
X125837Y39059I4000J0D01*
G01*
X218062Y55595D02*
G03*
X214921Y61084I-3697J1528D01*
G01*
X201887Y39367D02*
G03*
X218062Y55595I-11550J27688D01*
G01*
X121837Y46055D02*
G03*
X115837Y46055I-3000J0D01*
G01*
X114837Y249118D02*
G03*
X117837Y249118I1500J0D01*
G01*
X66809Y72595D02*
G03*
X64854Y70855I0J-1969D01*
G01*
X61875Y68205D02*
G03*
X64854Y70855I0J3000D01*
G01*
X39375Y71205D02*
G03*
X42375Y68205I3000J0D01*
G01*
Y114615D02*
G03*
X39375Y111615I0J-3000D01*
G01*
X42375Y183835D02*
G03*
X39375Y180835I0J-3000D01*
G01*
Y140425D02*
G03*
X42375Y137425I3000J0D01*
G01*
X51463Y298140D02*
G03*
X69337Y280266I17874J0D01*
G01*
Y340514D02*
G03*
X51463Y322640I0J-17874D01*
G01*
X237211D02*
G03*
X219337Y340514I-17874J0D01*
G01*
Y280266D02*
G03*
X237211Y298140I-0J17874D01*
G01*
X42375Y260929D02*
G03*
X31501Y250055I0J-10874D01*
G01*
Y209645D02*
G03*
X42375Y198771I10874J0D01*
G01*
Y191709D02*
G03*
X31501Y180835I0J-10874D01*
G01*
Y140425D02*
G03*
X42375Y129551I10874J0D01*
G01*
Y122489D02*
G03*
X31501Y111615I0J-10874D01*
G01*
Y71205D02*
G03*
X42375Y60331I10874J0D01*
G01*
X61065D02*
G03*
X83770Y32094I37272J6724D01*
G01*
X83770Y32094D02*
G03*
X88650Y31185I4567J10961D01*
G01*
X202494Y31185D02*
G03*
X227384Y59181I-12157J35870D01*
G01*
X287355D02*
G03*
X301229Y73055I0J13874D01*
G01*
Y247055D02*
G03*
X287355Y260929I-13874J0D01*
G01*
X59337Y322640D02*
X59337D01*
X238236Y67055D02*
X287355D01*
X238236Y253055D02*
X287355D01*
X293355Y73055D02*
Y102570D01*
X215337Y67055D02*
X223132D01*
X215093Y253055D02*
X223132D01*
X78214Y72595D02*
X78227D01*
X78214Y114615D02*
X78227D01*
X78214Y137425D02*
X78227D01*
X78214Y183835D02*
X78227D01*
X78214Y206645D02*
X78227D01*
X78214Y253055D02*
X114837D01*
X117837Y251874D02*
Y252679D01*
X170837Y251874D02*
Y252679D01*
X173837Y253055D02*
X215093D01*
X214932Y67027D02*
X215093Y67045D01*
X70871Y114615D02*
X72649D01*
X70871Y72595D02*
X72649D01*
X170837Y292867D02*
Y292873D01*
X117837Y292867D02*
Y292873D01*
X170837Y284827D02*
Y292867D01*
X117837Y284827D02*
Y292867D01*
X72649Y72595D02*
X78214D01*
X72649Y114615D02*
X78214D01*
X70871Y137425D02*
X72649D01*
X70871Y183835D02*
X72649D01*
X70871Y253055D02*
X72649D01*
X70871Y206645D02*
X72649D01*
Y137425D02*
X78214D01*
X72649Y183835D02*
X78214D01*
X170837Y257368D02*
Y262504D01*
X117837Y257368D02*
Y262504D01*
X233133Y67055D02*
X238236D01*
X223132Y253055D02*
X238236D01*
X72649Y206645D02*
X78214D01*
X72649Y253055D02*
X78214D01*
X117837Y252679D02*
Y257368D01*
X170837Y252679D02*
Y257368D01*
Y267194D02*
Y284827D01*
X117837Y267194D02*
Y284827D01*
Y262504D02*
Y267194D01*
X170837Y262504D02*
Y267194D01*
X42375Y253055D02*
X70871D01*
X42375Y206645D02*
X70871D01*
X223132Y67055D02*
X233133D01*
X173837Y291140D02*
Y296140D01*
X170837Y292873D02*
Y296140D01*
X69337Y288140D02*
X111837D01*
X59337Y298140D02*
Y322640D01*
X114837Y291140D02*
Y296140D01*
X117837Y292873D02*
Y296140D01*
X69337Y332641D02*
X130553D01*
X229337Y298140D02*
Y322640D01*
X176837Y288140D02*
X219337D01*
X92337Y43055D02*
Y46055D01*
X72646Y67055D02*
X78337D01*
X78227Y72595D02*
X78337D01*
X78227Y114615D02*
X78337D01*
X170837Y249118D02*
Y251874D01*
X173837Y249118D02*
Y253055D01*
X115837Y44413D02*
Y46055D01*
X98337Y44413D02*
X115837D01*
X98337D02*
Y46055D01*
X78227Y206645D02*
X78337D01*
X78227Y253055D02*
X114837Y253055D01*
X81337Y117615D02*
Y134425D01*
X78227Y137425D02*
X78337D01*
X78227Y183835D02*
X78337D01*
X125837Y39059D02*
X149312D01*
X114837Y249118D02*
Y253055D01*
X81337Y186835D02*
Y203645D01*
X117837Y249118D02*
Y251874D01*
X121837Y43059D02*
Y46055D01*
X42375Y114615D02*
X70871D01*
X66809Y72595D02*
X70871D01*
X42375Y68205D02*
X61875D01*
X39375Y71205D02*
Y77617D01*
X42375Y183835D02*
X70871D01*
X42375Y137425D02*
X70871D01*
X39375Y140425D02*
Y146837D01*
X69337Y280266D02*
X109963D01*
X51463Y298140D02*
Y322640D01*
X69337Y340514D02*
X130544D01*
X237211Y298140D02*
Y322640D01*
X178711Y280266D02*
X219337D01*
X109963Y260929D02*
Y280266D01*
X178711Y260929D02*
Y280266D01*
X42375Y260929D02*
X109963D01*
X31501Y209645D02*
Y216064D01*
X42375Y198771D02*
X73463D01*
Y191709D02*
Y198771D01*
X42375Y191709D02*
X73463D01*
X31501Y140425D02*
Y146844D01*
X42375Y129551D02*
X73463D01*
Y122489D02*
Y129551D01*
X42375Y122489D02*
X73463D01*
X31501Y71205D02*
Y77624D01*
X42375Y60331D02*
X61065D01*
X88024Y31185D02*
X149299D01*
X227384Y59181D02*
X287355D01*
X301229Y73055D02*
Y102560D01*
X178711Y260929D02*
X287355D01*
X117837Y262504D02*
Y267194D01*
X293355Y217540D02*
Y247055D01*
Y130135D02*
Y189975D01*
X176872Y39059D02*
X200347D01*
X31501Y105196D02*
Y111615D01*
Y174416D02*
Y180835D01*
Y243636D02*
Y250055D01*
X158121Y332641D02*
X219337D01*
X39375Y174423D02*
Y180835D01*
Y243643D02*
Y250055D01*
Y105203D02*
Y111615D01*
X176885Y31185D02*
X202494D01*
X158130Y340514D02*
X219337D01*
X301229Y217550D02*
Y247055D01*
Y130145D02*
Y189965D01*
X39375Y209645D02*
Y216057D01*
D11*
X0Y-312D02*
X330709D01*
X0Y-311D02*
Y369768D01*
D12*
Y369767D02*
X330709D01*
Y-311D02*
Y369767D01*
D13*
X215337Y67055D02*
G03*
X215093Y67045I0J-3000D01*
G01*
X218062Y55595D02*
G03*
X214921Y61084I-3697J1528D01*
G01*
X201887Y39367D02*
G03*
X218062Y55595I-11550J27688D01*
G01*
X200347Y39059D02*
G03*
X201887Y39367I0J4000D01*
G01*
X121837Y43059D02*
G03*
X125837Y39059I4000J0D01*
G01*
X121837Y46055D02*
G03*
X115837Y46055I-3000J0D01*
G01*
X98337D02*
G03*
X92337Y46055I-3000J0D01*
G01*
X86799Y39362D02*
G03*
X92337Y43055I1539J3692D01*
G01*
X68694Y62439D02*
G03*
X86799Y39362I29643J4615D01*
G01*
X72646Y67055D02*
G03*
X68694Y62439I0J-4000D01*
G01*
X78337Y67055D02*
G03*
X81328Y69825I0J3000D01*
G01*
D02*
G03*
X78337Y72595I-2991J-230D01*
G01*
Y114615D02*
G03*
X81337Y117615I0J3000D01*
G01*
Y134425D02*
G03*
X78337Y137425I-3000J0D01*
G01*
Y183835D02*
G03*
X81337Y186835I0J3000D01*
G01*
Y203645D02*
G03*
X78337Y206645I-3000J0D01*
G01*
X114837Y249118D02*
G03*
X117837Y249118I1500J0D01*
G01*
X170837D02*
G03*
X173837Y249118I1500J0D01*
G01*
X215093Y67045D02*
G03*
X214921Y61084I244J-2990D01*
G01*
X39375Y71205D02*
G03*
X42375Y68205I3000J0D01*
G01*
Y114615D02*
G03*
X39375Y111615I0J-3000D01*
G01*
X66809Y72595D02*
G03*
X64854Y70855I0J-1969D01*
G01*
X61875Y68205D02*
G03*
X64854Y70855I0J3000D01*
G01*
X117837Y296140D02*
G03*
X114837Y296140I-1500J0D01*
G01*
X111837Y288140D02*
G03*
X114837Y291140I0J3000D01*
G01*
X229337Y322640D02*
G03*
X219337Y332640I-10000J0D01*
G01*
X173837Y291140D02*
G03*
X176837Y288140I3000J0D01*
G01*
X173837Y296140D02*
G03*
X170837Y296140I-1500J0D01*
G01*
X59337Y298140D02*
G03*
X69337Y288140I10000J0D01*
G01*
Y332640D02*
G03*
X59337Y322640I0J-10000D01*
G01*
X219337Y288140D02*
G03*
X229337Y298140I0J10000D01*
G01*
X42375Y183835D02*
G03*
X39375Y180835I0J-3000D01*
G01*
Y140425D02*
G03*
X42375Y137425I3000J0D01*
G01*
X39375Y209645D02*
G03*
X42375Y206645I3000J0D01*
G01*
Y253055D02*
G03*
X39375Y250055I0J-3000D01*
G01*
X293355Y247055D02*
G03*
X287355Y253055I-6000J0D01*
G01*
Y67055D02*
G03*
X293355Y73055I0J6000D01*
G01*
X215337Y67055D02*
X223132D01*
X215093Y253055D02*
X223132D01*
X125837Y39059D02*
X200347D01*
X121837Y43059D02*
Y46055D01*
X115837Y44413D02*
Y46055D01*
X98337Y44413D02*
X115837D01*
X98337D02*
Y46055D01*
X92337Y43055D02*
Y46055D01*
X72646Y67055D02*
X78337D01*
X78214Y72595D02*
X78337D01*
X78214Y114615D02*
X78337D01*
X81337Y117615D02*
Y134425D01*
X78214Y137425D02*
X78337D01*
X78214Y183835D02*
X78337D01*
X81337Y186835D02*
Y203645D01*
X78214Y206645D02*
X78337D01*
X78214Y253055D02*
X114837D01*
Y249118D02*
Y253055D01*
X117837Y249118D02*
Y252679D01*
X170837Y249118D02*
Y252679D01*
X173837Y249118D02*
Y253055D01*
X215093D01*
X42375Y68205D02*
X61875D01*
X39375Y71205D02*
Y111615D01*
X42375Y114615D02*
X72649D01*
X66809Y72595D02*
X72649D01*
X114837Y291140D02*
Y296140D01*
X69337Y288140D02*
X111837D01*
X69337Y332640D02*
X219337D01*
X229337Y298140D02*
Y322640D01*
X173837Y291140D02*
Y296140D01*
X170837Y292867D02*
Y296140D01*
X59337Y298140D02*
Y322640D01*
X117837Y292867D02*
Y296140D01*
X176837Y288140D02*
X219337D01*
X42375Y183835D02*
X72649D01*
X39375Y140425D02*
Y180835D01*
X42375Y137425D02*
X72649D01*
X42375Y253055D02*
X72649D01*
X42375Y206645D02*
X72649D01*
Y137425D02*
X78214D01*
X72649Y183835D02*
X78214D01*
X170837Y252679D02*
Y257368D01*
X117837Y252679D02*
Y257368D01*
X72649Y206645D02*
X78214D01*
X72649Y253055D02*
X78214D01*
X72649Y72595D02*
X78214D01*
X72649Y114615D02*
X78214D01*
X170837Y257368D02*
Y262504D01*
X117837Y257368D02*
Y262504D01*
X170837Y284827D02*
Y292867D01*
X117837Y284827D02*
Y292867D01*
X170837Y267194D02*
Y284827D01*
X117837Y267194D02*
Y284827D01*
X293355Y73055D02*
Y247055D01*
X223132Y253055D02*
X287355D01*
X223132Y67055D02*
X287355D01*
X117837Y262504D02*
Y267194D01*
X170837Y262504D02*
Y267194D01*
X39375Y209645D02*
Y250055D01*
D14*
X136920Y301620D02*
X137313D01*
X137117Y301423D02*
Y301817D01*
X181113Y304514D02*
X181506D01*
X181309Y304317D02*
Y304711D01*
X153455Y297683D02*
X153849D01*
X153652Y297486D02*
Y297880D01*
X169794Y218155D02*
X170187D01*
X169991Y217958D02*
Y218352D01*
X169794Y211462D02*
X170187D01*
X169991Y211266D02*
Y211659D01*
X143416Y54415D02*
X143809D01*
X143613Y54218D02*
Y54612D01*
X177718Y60415D02*
X178112D01*
X177915Y60218D02*
Y60612D01*
X177718Y64647D02*
X178112D01*
X177915Y64450D02*
Y64844D01*
X185050Y70951D02*
X185443D01*
X185247Y70754D02*
Y71148D01*
X185050Y76069D02*
X185443D01*
X185247Y75872D02*
Y76266D01*
X185050Y73469D02*
X185443D01*
X185247Y73272D02*
Y73666D01*
X167530Y118451D02*
X167924D01*
X167727Y118254D02*
Y118648D01*
X102195Y237348D02*
X102589D01*
X102392Y237151D02*
Y237545D01*
X128419Y216974D02*
X128813D01*
X128616Y216777D02*
Y217171D01*
X115069Y210872D02*
X115463D01*
X115266Y210675D02*
Y211069D01*
X119168Y219041D02*
X119561D01*
X119364Y218844D02*
Y219238D01*
X117628Y230262D02*
X118022D01*
X117825Y230065D02*
Y230458D01*
X113298Y226915D02*
X113691D01*
X113495Y226718D02*
Y227112D01*
X111723Y232525D02*
X112117D01*
X111920Y232329D02*
Y232722D01*
X197057Y200931D02*
X197451D01*
X197254Y200734D02*
Y201128D01*
X104735Y90301D02*
X105128D01*
X104931Y90104D02*
Y90498D01*
X101487Y82608D02*
X101880D01*
X101683Y82411D02*
Y82805D01*
X89676Y69124D02*
X90069D01*
X89872Y68927D02*
Y69321D01*
X101487Y151907D02*
X101880D01*
X101683Y151710D02*
Y152104D01*
X89676Y138423D02*
X90069D01*
X89872Y138226D02*
Y138620D01*
X89676Y207624D02*
X90069D01*
X89872Y207427D02*
Y207821D01*
X101487Y221108D02*
X101880D01*
X101683Y220911D02*
Y221305D01*
X84361Y62289D02*
X84754D01*
X84557Y62092D02*
Y62486D01*
X172089Y327407D02*
X172483D01*
X172286Y327210D02*
Y327604D01*
X159361Y298569D02*
X159754D01*
X159557Y298372D02*
Y298766D01*
X141841Y302210D02*
X142235D01*
X142038Y302014D02*
Y302407D01*
X148534Y297092D02*
X148927D01*
X148731Y296896D02*
Y297289D01*
X181113Y321108D02*
X181506D01*
X181309Y320911D02*
Y321305D01*
X164282Y327407D02*
X164676D01*
X164479Y327210D02*
Y327604D01*
X165069Y312053D02*
X165463D01*
X165266Y311857D02*
Y312250D01*
X163101Y312053D02*
X163495D01*
X163298Y311857D02*
Y312250D01*
X161132Y312053D02*
X161526D01*
X161329Y311857D02*
Y312250D01*
X161132Y314022D02*
X161526D01*
X161329Y313825D02*
Y314219D01*
X161132Y315990D02*
X161526D01*
X161329Y315794D02*
Y316187D01*
X163101Y315990D02*
X163495D01*
X163298Y315794D02*
Y316187D01*
X163101Y314022D02*
X163495D01*
X163298Y313825D02*
Y314219D01*
X163101Y310085D02*
X163495D01*
X163298Y309888D02*
Y310282D01*
X163101Y308117D02*
X163495D01*
X163298Y307920D02*
Y308313D01*
X161132Y308117D02*
X161526D01*
X161329Y307920D02*
Y308313D01*
X161132Y310085D02*
X161526D01*
X161329Y309888D02*
Y310282D01*
X165069Y310085D02*
X165463D01*
X165266Y309888D02*
Y310282D01*
X165069Y308117D02*
X165463D01*
X165266Y307920D02*
Y308313D01*
X165069Y314022D02*
X165463D01*
X165266Y313825D02*
Y314219D01*
X165069Y315990D02*
X165463D01*
X165266Y315794D02*
Y316187D01*
X167038Y315990D02*
X167431D01*
X167235Y315794D02*
Y316187D01*
X167038Y314022D02*
X167431D01*
X167235Y313825D02*
Y314219D01*
X167038Y312053D02*
X167431D01*
X167235Y311857D02*
Y312250D01*
X167038Y310085D02*
X167431D01*
X167235Y309888D02*
Y310282D01*
X167038Y308117D02*
X167431D01*
X167235Y307920D02*
Y308313D01*
X169006Y308117D02*
X169400D01*
X169203Y307920D02*
Y308313D01*
X169006Y310085D02*
X169400D01*
X169203Y309888D02*
Y310282D01*
X169006Y312053D02*
X169400D01*
X169203Y311857D02*
Y312250D01*
X169006Y314022D02*
X169400D01*
X169203Y313825D02*
Y314219D01*
X169006Y315990D02*
X169400D01*
X169203Y315794D02*
Y316187D01*
X168219Y327407D02*
X168613D01*
X168416Y327210D02*
Y327604D01*
X150010Y311069D02*
X150404D01*
X150207Y310872D02*
Y311266D01*
X163101Y319790D02*
X163495D01*
X163298Y319593D02*
Y319987D01*
X169006Y319790D02*
X169400D01*
X169203Y319593D02*
Y319987D01*
X184361Y304514D02*
X184754D01*
X184557Y304317D02*
Y304711D01*
X181113Y313234D02*
X181506D01*
X181309Y313037D02*
Y313431D01*
X191841Y307042D02*
X192235D01*
X192038Y306845D02*
Y307238D01*
X199026Y307042D02*
X199420D01*
X199223Y306845D02*
Y307238D01*
X76579Y318094D02*
X76973D01*
X76776Y317898D02*
Y318291D01*
X67824Y311659D02*
X68218D01*
X68021Y311462D02*
Y311856D01*
X146447Y314611D02*
X146841D01*
X146644Y314415D02*
Y314808D01*
X85739Y233510D02*
X86132D01*
X85935Y233313D02*
Y233707D01*
X105362Y200183D02*
X105755D01*
X105559Y199986D02*
Y200380D01*
X128197Y205183D02*
X128590D01*
X128393Y204986D02*
Y205380D01*
X105621Y184100D02*
X106014D01*
X105817Y183903D02*
Y184297D01*
X142530Y173668D02*
X142923D01*
X142727Y173471D02*
Y173864D01*
X116152Y163037D02*
X116546D01*
X116349Y162840D02*
Y163234D01*
X116152Y150439D02*
X116546D01*
X116349Y150242D02*
Y150636D01*
X98632Y133510D02*
X99026D01*
X98829Y133313D02*
Y133706D01*
X103750Y133510D02*
X104144D01*
X103947Y133313D02*
Y133706D01*
X111132Y119336D02*
X111526D01*
X111329Y119140D02*
Y119533D01*
X101191Y116187D02*
X101585D01*
X101388Y115990D02*
Y116384D01*
X98632Y116187D02*
X99026D01*
X98829Y115990D02*
Y116384D01*
X91841Y111922D02*
X92235D01*
X92038Y111725D02*
Y112119D01*
X105817Y102309D02*
X106211D01*
X106014Y102112D02*
Y102506D01*
X105817Y98372D02*
X106211D01*
X106014Y98175D02*
Y98569D01*
X115069Y100340D02*
X115463D01*
X115266Y100144D02*
Y100537D01*
X115069Y84592D02*
X115463D01*
X115266Y84395D02*
Y84789D01*
X115069Y82624D02*
X115463D01*
X115266Y82427D02*
Y82821D01*
X133376Y64317D02*
X133770D01*
X133573Y64120D02*
Y64514D01*
X161526Y74750D02*
X161920D01*
X161723Y74553D02*
Y74947D01*
X161526Y88529D02*
X161920D01*
X161723Y88333D02*
Y88726D01*
X135345Y110774D02*
X135739D01*
X135542Y110577D02*
Y110970D01*
X137313Y116285D02*
X137707D01*
X137510Y116088D02*
Y116482D01*
X145679Y118648D02*
X146073D01*
X145876Y118451D02*
Y118844D01*
X167235Y88529D02*
X167628D01*
X167431Y88333D02*
Y88726D01*
X106014Y73864D02*
X106408D01*
X106211Y73667D02*
Y74061D01*
X111034Y150832D02*
X111428D01*
X111231Y150636D02*
Y151029D01*
X147156Y54022D02*
X147550D01*
X147353Y53825D02*
Y54218D01*
X173987Y64651D02*
X174380D01*
X174183Y64455D02*
Y64848D01*
X173987Y60518D02*
X174381D01*
X174184Y60321D02*
Y60714D01*
X162609Y144140D02*
X163002D01*
X162805Y143943D02*
Y144336D01*
X167727Y163825D02*
X168121D01*
X167924Y163628D02*
Y164022D01*
X129931Y127211D02*
X130325D01*
X130128Y127014D02*
Y127408D01*
X158537Y184179D02*
X158930D01*
X158733Y183982D02*
Y184376D01*
X140069Y200163D02*
X140463D01*
X140266Y199966D02*
Y200360D01*
X162904Y205163D02*
X163298D01*
X163101Y204966D02*
Y205360D01*
X162904Y230577D02*
X163298D01*
X163101Y230380D02*
Y230773D01*
X142789Y210577D02*
X143182D01*
X142985Y210380D02*
Y210773D01*
X132491Y232722D02*
X132884D01*
X132687Y232525D02*
Y232919D01*
X124321Y226128D02*
X124715D01*
X124518Y225931D02*
Y226325D01*
X188691Y211659D02*
X189085D01*
X188888Y211462D02*
Y211856D01*
X95778Y57565D02*
X96172D01*
X95975Y57368D02*
Y57762D01*
X127274Y57996D02*
X127668D01*
X127471Y57799D02*
Y58193D01*
X89085Y237130D02*
X89479D01*
X89282Y236933D02*
Y237327D01*
M02*
