M48
;Layer_Color=9474304
;FILE_FORMAT=2:5
INCH,LZ
;TYPE=PLATED
T1F00S00C0.00394
%
T01
X0084557Y0062289
X0089872Y0069124
X0095975Y0057565
X0106211Y0073864
X0101683Y0082608
X0104931Y0090301
X0106014Y0098372
Y0102309
X0115266Y010034
Y0084592
Y0082624
X0127471Y0057996
X0130128Y0127211
X0111329Y0119336
X0101388Y0116187
X0098829
X0092038Y0111922
X0098829Y013351
X0103947
X013751Y0116285
X0135542Y0110774
X0145876Y0118648
X0167727Y0118451
X0167431Y0088529
X0161723Y0088529
Y007475
X0174183Y0064651
X0177915Y0064647
Y0060415
X0174184Y0060518
X0185247Y0070951
X0185247Y0073469
X0185247Y0076069
X0147353Y0054022
X0143613Y0054415
X0133573Y0064317
X0162805Y014414
X0167924Y0163825
X0158733Y0184179
X0163101Y0205163
X0169991Y0211462
Y0218155
X0163101Y0230577
X0132687Y0232722
X0142985Y0210577
X0140266Y0200163
X0142727Y0173668
X0197254Y0200931
X0188888Y0211659
X0128616Y0216974
X0119364Y0219041
X0124518Y0226128
X0117825Y0230262
X0113495Y0226915
X011192Y0232525
X0102392Y0237348
X0089282Y023713
X0085935Y023351
X0101683Y0221108
X0115266Y0210872
X0128393Y0205183
X0105559Y0200183
X0105817Y01841
X0116349Y0163037
Y0150439
X0111231Y0150832
X0101683Y0151907
X0089872Y0138423
Y0207624
X0076776Y0318094
X0068021Y0311659
X0137117Y030162
X0142038Y030221
X0148731Y0297092
X0153652Y0297683
X0159557Y0298569
X0161329Y0308117
Y0310085
Y0312053
Y0314022
Y031599
X0163298
X0165266
X0167235
Y0314022
X0165266
X0163298
Y0312053
X0165266
X0167235
Y0310085
X0165266
X0163298
Y0308117
X0165266
X0167235
X0169203
Y0310085
Y0312053
Y0314022
Y031599
X0169203Y031979
X0163298
X0164479Y0327407
X0168416
X0172286
X0181309Y0321108
Y0313234
Y0304514
X0184557
X0192038Y0307042
X0199223
X0150207Y0311069
X0146644Y0314611
M30
