M48
;Layer_Color=9474304
;FILE_FORMAT=2:5
INCH,LZ
;TYPE=PLATED
T1F00S00C0.00394
T2F00S00C0.00787
T3F00S00C0.01575
T4F00S00C0.02500
T5F00S00C0.03000
T6F00S00C0.03543
T7F00S00C0.04600
T8F00S00C0.06000
%
T01
X0214873Y031166
X0216842
X021881
X0220779
X0222747
T02
X0088888Y0046935
X0081014Y0055596
X0076782Y0064651
X0084459Y0073061
X0084459Y0078671
X0082687Y008064
X008446Y0082608
X008377Y0094336
X0066841Y0093429
X0064479
X0089183Y0109953
X0084853Y0116187
X0089676Y0122675
X0105424Y0112053
X011014Y011421
X0113888Y010723
X0119695Y010162
X0130621
X0131113Y0092073
X0126634Y0092023
X0122648Y0085577
X0119892Y0080655
Y0075735
Y0072781
Y0068746
X0114479
X0109754Y0066915
X0109262Y007662
X0104833Y0077703
X0097353Y008064
X0097943Y0063825
X0118022Y0064809
X0119794Y0063114
X0126093Y0074258
X0129735Y0084691
X0109459Y0087939
X0109361Y0091974
X0121959Y0113175
X0124715Y0115203
X0127668Y0114907
X0127668Y0117565
Y0119927
X0130227Y0131443
X0115955Y0132427
X0129439Y0054415
X0139478Y0059789
X0141411Y0069533
X013751
X0139478Y0071797
X0133573Y0070222
X0133179Y0084691
X0141447Y0082033
X0145778Y0077348
X0150502Y00841
X015503Y0080951
X0156211Y0078687
Y007475
X0157211Y0082624
X0167431Y0078687
X0171959Y008223
X0166349Y0091777
X0167727Y009847
X0157392Y0098372
X015316
X0150561Y0100915
X0148042Y0103234
X0145561Y0099556
X0143317Y0097584
X0147943Y0096403
X0141447Y010536
X0133573Y0101112
Y0118943
X0141447Y0119632
X0145876Y0132919
X0158733Y0134691
X0162707Y0127532
X0162805Y0122584
Y0116088
Y0113234
X0158179Y0107624
X0179046Y0101955
X0176487Y0122289
X0181113Y0127998
X0186034
X018655Y0130951
X0188495Y011914
X01975Y0114366
X0201211Y0111699
Y0121699
X0207392Y0116657
X0207589Y010524
Y0102681
Y0100122
X0201093Y0092445
X0205227Y0081618
X0207589Y0083587
Y0079494
X0206802Y0069179
X021005
X0204006Y0070557
X0179341Y006973
X0167431Y0069829
X0162313Y0068155
X0162805Y0063825
X0206998Y0128468
X0206802Y0131699
Y0141699
X0211723Y0140083
X0211526Y0148547
X0204006Y0150616
X0205817Y0158783
X0206802Y0161699
Y0168232
Y0171699
Y0178862
Y0181699
Y018772
Y0191699
X0205227Y0198941
X0204046Y02015
X0206408Y020839
X0206802Y0211699
X0206211Y0218626
X0206802Y0221699
Y0231699
X0211526Y0230043
Y0240083
X0206802Y0241699
X0211329Y0249335
X019066Y0233707
X0180424Y0237447
X0174912Y0237447
X017255Y0225636
X0169794
X0167727Y022347
X0158672Y0220577
X0149223Y0220071
X0145679Y0220124
X0135581Y0220594
X0133144Y0215203
X0146762Y0206541
X0163942Y0210577
X0177228Y0210872
X0184853Y019975
X0199715Y0189689
X019627Y0179462
X0193908
X0191447
X0191455Y017682
X0193916
X0196278
X0186829Y0158214
X0182589Y0149356
X0169128Y0147683
X0170309Y014601
X0169128Y0144336
X015877Y0147289
Y0150439
Y0153588
X0158573Y014099
X0158701Y0137315
X0152865
X0170483Y0159888
X0165266Y0176522
X0164479Y0187348
X0133573Y01841
X0132038Y0181738
X0134164Y0178982
X0137412Y0165203
X0141152Y0168155
X0135581Y0195163
X0140266Y0233313
X0143317
X0139676Y0236736
X0140168Y0240793
Y0245222
X0153061Y0245754
X0155621Y0245791
X0130128Y0248903
X0126634Y0249002
X0119695Y0241581
Y0238136
X0107156Y0244558
X0104597Y0244573
X011014Y0248273
X0089085Y0249138
X0082687Y0223864
X008446Y0221108
X0082687Y021914
X0084459Y0217171
X0084459Y0211561
X0097353Y0216187
X0109754Y0217565
X011018Y0205163
X0110381Y0195183
X011566Y0194413
X01194
X0121172Y0200242
X0121762Y0202998
X0127372Y022101
X0130916
X0126978Y0169042
X012688Y0158707
X0131113
X0131309Y0152309
X0121762Y0148766
Y0145518
X0111231Y0144041
X0111329Y0141187
X0109262Y0155458
X0097451Y0159289
X0097353Y0149939
X0097353Y0146986
X0084459Y014797
Y0145321
X0082687Y0149939
X008446Y0151907
X0066447Y0162917
X0063888
X0089183Y0179253
X0090266Y0182209
X0092431
X010129Y0186758
X0100699Y0189809
X0109476Y0184789
X0119597Y0176226
X0120384Y0173668
X0066644Y0231815
X0064085
X0079341Y0303884
X0084459
X0087707Y0311659
X0085935Y0321579
X0096762Y0305831
X0106211
X0116911Y0307919
X0122416
Y0310675
Y0314612
Y0317368
X0125959
X0129502
Y0314612
Y0310675
Y0307919
X0125959
X013877Y0316974
X0142707
X0142924Y0324258
X0150798Y0329868
X0154735Y0329867
X0158672Y0329868
X0161723Y032347
X0175109Y0322683
X0177372Y0301856
X0195581Y0304059
X020503
X0202668Y0295201
X0197943
X01569Y029851
T03
X0091742Y0052053
Y0062285
X0081309Y0088514
Y0100325
Y0111447
X0094696Y0132812
X011566Y0126364
X012127Y0121797
X0172648Y0109396
X0167727Y0094435
X0200109Y0116325
X0201487Y0060026
Y0050085
X0199801Y0145518
X0194006Y0159592
X0179931Y0161266
X0176683Y0175832
X0176585Y018351
X0157097Y0158411
X0162344Y0240891
Y0245891
X0187904Y0238037
Y0228195
X0184164
X0180424
X0195679Y0219435
X0094696Y0202013
X0081309Y0180746
Y0169624
Y0157813
Y0227014
Y0238825
Y0249947
T04
X0092032Y0295227
Y0326231
X0208882
X0208888Y0310763
T05
X0101532Y0295227
X0111031
Y0326231
X0101532
X017763
X018713
Y0295227
X017763
T06
X0244006Y0075055
X0254006
Y0085055
X0244006
Y0095055
X0254006
Y0105055
X0244006
Y0115055
X0254006
Y0125055
X0244006
Y0135055
X0254006
Y0145055
X0244006
Y0155055
X0254006
Y0165055
X0244006
Y0175055
X0254006
Y0185055
X0244006
Y0195055
X0254006
Y0205055
X0244006
Y0215055
X0254006
Y0225055
X0244006
Y0235055
X0254006
Y0245055
X0244006
T07
X0048538Y0072862
Y0142062
X0048471Y0211339
T08
X0048538Y0108463
Y0177663
X0048471Y0246939
M30
