G04*
G04 #@! TF.GenerationSoftware,Altium Limited,Altium Designer,18.1.9 (240)*
G04*
G04 Layer_Color=2752767*
%FSLAX25Y25*%
%MOIN*%
G70*
G01*
G75*
%ADD10C,0.00118*%
%ADD11C,0.00504*%
%ADD12C,0.01000*%
%ADD13C,0.00158*%
%ADD14C,0.00200*%
%ADD15C,0.01500*%
%ADD16C,0.01600*%
G36*
X487883Y379124D02*
X486310D01*
Y380919D01*
X487883D01*
Y379124D01*
D02*
G37*
G36*
X429207D02*
X427633D01*
Y380919D01*
X429207D01*
Y379124D01*
D02*
G37*
G36*
X494936Y377587D02*
X495139Y377569D01*
X495380Y377532D01*
X495639Y377476D01*
X495917Y377402D01*
X496176Y377291D01*
X496213Y377273D01*
X496287Y377236D01*
X496416Y377180D01*
X496564Y377088D01*
X496750Y376976D01*
X496916Y376829D01*
X497083Y376680D01*
X497231Y376495D01*
X497249Y376477D01*
X497286Y376403D01*
X497342Y376310D01*
X497435Y376181D01*
X497508Y375995D01*
X497583Y375810D01*
X497675Y375588D01*
X497731Y375348D01*
Y375329D01*
X497749Y375255D01*
X497768Y375144D01*
X497786Y374996D01*
Y374774D01*
X497805Y374515D01*
X497823Y374200D01*
Y373811D01*
Y368110D01*
X496250D01*
Y373737D01*
Y373756D01*
Y373774D01*
Y373904D01*
Y374071D01*
X496231Y374274D01*
X496213Y374515D01*
X496176Y374755D01*
X496120Y374977D01*
X496065Y375181D01*
Y375200D01*
X496028Y375255D01*
X495972Y375348D01*
X495917Y375459D01*
X495824Y375570D01*
X495713Y375699D01*
X495565Y375829D01*
X495398Y375940D01*
X495380Y375958D01*
X495324Y375995D01*
X495213Y376032D01*
X495084Y376088D01*
X494936Y376144D01*
X494750Y376199D01*
X494528Y376218D01*
X494306Y376236D01*
X494214D01*
X494140Y376218D01*
X493955Y376199D01*
X493714Y376162D01*
X493455Y376069D01*
X493159Y375958D01*
X492863Y375810D01*
X492585Y375588D01*
X492548Y375551D01*
X492474Y375459D01*
X492418Y375385D01*
X492363Y375292D01*
X492289Y375181D01*
X492233Y375051D01*
X492159Y374903D01*
X492085Y374718D01*
X492030Y374515D01*
X491974Y374293D01*
X491937Y374052D01*
X491900Y373793D01*
X491863Y373478D01*
Y373164D01*
Y368110D01*
X490290D01*
Y377402D01*
X491696D01*
Y376069D01*
X491715Y376088D01*
X491752Y376144D01*
X491807Y376218D01*
X491882Y376310D01*
X491993Y376421D01*
X492122Y376551D01*
X492270Y376699D01*
X492455Y376847D01*
X492640Y376976D01*
X492863Y377125D01*
X493103Y377254D01*
X493362Y377365D01*
X493658Y377458D01*
X493955Y377532D01*
X494288Y377587D01*
X494639Y377606D01*
X494788D01*
X494936Y377587D01*
D02*
G37*
G36*
X461173D02*
X461377Y377550D01*
X461618Y377476D01*
X461877Y377384D01*
X462173Y377254D01*
X462488Y377088D01*
X461914Y375644D01*
X461895Y375662D01*
X461821Y375699D01*
X461710Y375755D01*
X461562Y375810D01*
X461396Y375866D01*
X461192Y375922D01*
X460988Y375958D01*
X460785Y375977D01*
X460692D01*
X460600Y375958D01*
X460470Y375940D01*
X460340Y375903D01*
X460174Y375847D01*
X460007Y375773D01*
X459859Y375662D01*
X459841Y375644D01*
X459785Y375607D01*
X459730Y375533D01*
X459637Y375440D01*
X459545Y375311D01*
X459452Y375163D01*
X459359Y374996D01*
X459285Y374792D01*
X459267Y374755D01*
X459248Y374644D01*
X459211Y374478D01*
X459156Y374256D01*
X459100Y373978D01*
X459063Y373663D01*
X459045Y373330D01*
X459026Y372960D01*
Y368110D01*
X457453D01*
Y377402D01*
X458878D01*
Y375995D01*
X458897Y376014D01*
X458971Y376144D01*
X459063Y376310D01*
X459211Y376514D01*
X459359Y376717D01*
X459526Y376940D01*
X459693Y377125D01*
X459859Y377273D01*
X459878Y377291D01*
X459933Y377328D01*
X460044Y377384D01*
X460155Y377439D01*
X460303Y377495D01*
X460489Y377550D01*
X460674Y377587D01*
X460877Y377606D01*
X461007D01*
X461173Y377587D01*
D02*
G37*
G36*
X425375D02*
X425579Y377550D01*
X425819Y377476D01*
X426078Y377384D01*
X426375Y377254D01*
X426689Y377088D01*
X426116Y375644D01*
X426097Y375662D01*
X426023Y375699D01*
X425912Y375755D01*
X425764Y375810D01*
X425597Y375866D01*
X425394Y375922D01*
X425190Y375958D01*
X424986Y375977D01*
X424894D01*
X424801Y375958D01*
X424672Y375940D01*
X424542Y375903D01*
X424375Y375847D01*
X424209Y375773D01*
X424061Y375662D01*
X424042Y375644D01*
X423987Y375607D01*
X423931Y375533D01*
X423839Y375440D01*
X423746Y375311D01*
X423654Y375163D01*
X423561Y374996D01*
X423487Y374792D01*
X423468Y374755D01*
X423450Y374644D01*
X423413Y374478D01*
X423357Y374256D01*
X423302Y373978D01*
X423265Y373663D01*
X423246Y373330D01*
X423228Y372960D01*
Y368110D01*
X421655D01*
Y377402D01*
X423080D01*
Y375995D01*
X423098Y376014D01*
X423172Y376144D01*
X423265Y376310D01*
X423413Y376514D01*
X423561Y376717D01*
X423728Y376940D01*
X423894Y377125D01*
X424061Y377273D01*
X424079Y377291D01*
X424135Y377328D01*
X424246Y377384D01*
X424357Y377439D01*
X424505Y377495D01*
X424690Y377550D01*
X424875Y377587D01*
X425079Y377606D01*
X425209D01*
X425375Y377587D01*
D02*
G37*
G36*
X482053Y368110D02*
X480442D01*
X478962Y373663D01*
X478591Y375255D01*
X476722Y368110D01*
X475056D01*
X472242Y377402D01*
X473890D01*
X475371Y372034D01*
X475889Y370035D01*
Y370054D01*
X475907Y370091D01*
X475926Y370183D01*
X475944Y370239D01*
X475963Y370331D01*
X475981Y370443D01*
X476018Y370572D01*
X476055Y370720D01*
X476111Y370905D01*
X476166Y371109D01*
X476222Y371350D01*
X476296Y371627D01*
X476370Y371942D01*
X477851Y377402D01*
X479461D01*
X480850Y371997D01*
X481312Y370220D01*
X481849Y372016D01*
X483441Y377402D01*
X484977D01*
X482053Y368110D01*
D02*
G37*
G36*
X487883D02*
X486310D01*
Y377402D01*
X487883D01*
Y368110D01*
D02*
G37*
G36*
X467763Y377587D02*
X468041Y377569D01*
X468355Y377532D01*
X468670Y377476D01*
X468985Y377402D01*
X469281Y377310D01*
X469318Y377291D01*
X469410Y377254D01*
X469540Y377199D01*
X469706Y377125D01*
X469892Y377013D01*
X470077Y376903D01*
X470243Y376754D01*
X470391Y376606D01*
X470410Y376588D01*
X470447Y376532D01*
X470502Y376440D01*
X470576Y376329D01*
X470669Y376162D01*
X470743Y375995D01*
X470817Y375792D01*
X470873Y375551D01*
Y375533D01*
X470891Y375477D01*
X470910Y375366D01*
X470928Y375218D01*
Y375014D01*
X470947Y374774D01*
X470965Y374459D01*
Y374108D01*
Y371997D01*
Y371979D01*
Y371905D01*
Y371794D01*
Y371646D01*
Y371479D01*
Y371275D01*
X470984Y370831D01*
Y370369D01*
X471002Y369906D01*
X471021Y369702D01*
Y369517D01*
X471039Y369350D01*
X471058Y369221D01*
Y369202D01*
X471076Y369128D01*
X471095Y369017D01*
X471150Y368869D01*
X471187Y368703D01*
X471261Y368517D01*
X471354Y368314D01*
X471447Y368110D01*
X469799D01*
X469781Y368129D01*
X469762Y368203D01*
X469725Y368295D01*
X469669Y368443D01*
X469614Y368610D01*
X469577Y368814D01*
X469540Y369036D01*
X469503Y369276D01*
X469484D01*
X469466Y369239D01*
X469355Y369147D01*
X469188Y369017D01*
X468966Y368851D01*
X468688Y368684D01*
X468411Y368499D01*
X468115Y368332D01*
X467800Y368203D01*
X467763Y368184D01*
X467652Y368166D01*
X467485Y368110D01*
X467282Y368055D01*
X467023Y367999D01*
X466726Y367962D01*
X466393Y367925D01*
X466060Y367907D01*
X465912D01*
X465801Y367925D01*
X465671D01*
X465523Y367944D01*
X465190Y367999D01*
X464820Y368092D01*
X464413Y368221D01*
X464043Y368406D01*
X463709Y368647D01*
X463672Y368684D01*
X463580Y368777D01*
X463450Y368943D01*
X463302Y369165D01*
X463154Y369443D01*
X463024Y369758D01*
X462932Y370146D01*
X462913Y370331D01*
X462895Y370554D01*
Y370591D01*
Y370665D01*
X462913Y370794D01*
X462932Y370961D01*
X462969Y371164D01*
X463024Y371368D01*
X463098Y371590D01*
X463191Y371794D01*
X463209Y371812D01*
X463246Y371886D01*
X463321Y371997D01*
X463413Y372127D01*
X463524Y372275D01*
X463672Y372423D01*
X463820Y372571D01*
X464005Y372701D01*
X464024Y372719D01*
X464098Y372756D01*
X464190Y372830D01*
X464339Y372904D01*
X464505Y372978D01*
X464709Y373071D01*
X464912Y373145D01*
X465153Y373219D01*
X465172D01*
X465246Y373237D01*
X465357Y373274D01*
X465505Y373293D01*
X465690Y373330D01*
X465931Y373367D01*
X466208Y373423D01*
X466541Y373460D01*
X466560D01*
X466634Y373478D01*
X466726D01*
X466856Y373497D01*
X467004Y373515D01*
X467189Y373552D01*
X467393Y373571D01*
X467615Y373608D01*
X468059Y373700D01*
X468540Y373793D01*
X468966Y373904D01*
X469170Y373959D01*
X469355Y374015D01*
Y374033D01*
Y374071D01*
X469373Y374182D01*
Y374311D01*
Y374385D01*
Y374422D01*
Y374441D01*
Y374459D01*
Y374570D01*
X469355Y374755D01*
X469318Y374959D01*
X469262Y375181D01*
X469170Y375403D01*
X469059Y375607D01*
X468911Y375773D01*
X468892Y375792D01*
X468799Y375866D01*
X468651Y375940D01*
X468466Y376051D01*
X468207Y376144D01*
X467911Y376236D01*
X467541Y376292D01*
X467115Y376310D01*
X466930D01*
X466745Y376292D01*
X466486Y376255D01*
X466227Y376218D01*
X465949Y376144D01*
X465690Y376051D01*
X465468Y375922D01*
X465449Y375903D01*
X465375Y375847D01*
X465283Y375755D01*
X465172Y375607D01*
X465061Y375422D01*
X464931Y375181D01*
X464820Y374885D01*
X464709Y374552D01*
X463172Y374755D01*
Y374774D01*
X463191Y374792D01*
Y374848D01*
X463209Y374922D01*
X463265Y375089D01*
X463339Y375329D01*
X463432Y375570D01*
X463543Y375829D01*
X463691Y376088D01*
X463857Y376329D01*
X463876Y376347D01*
X463950Y376421D01*
X464061Y376532D01*
X464209Y376680D01*
X464413Y376829D01*
X464653Y376976D01*
X464931Y377143D01*
X465246Y377273D01*
X465264D01*
X465283Y377291D01*
X465338Y377310D01*
X465412Y377328D01*
X465597Y377384D01*
X465856Y377439D01*
X466153Y377495D01*
X466523Y377550D01*
X466912Y377587D01*
X467356Y377606D01*
X467559D01*
X467763Y377587D01*
D02*
G37*
G36*
X450012Y380901D02*
X450382Y380882D01*
X450752Y380845D01*
X451123Y380790D01*
X451437Y380734D01*
X451456D01*
X451493Y380715D01*
X451548D01*
X451622Y380679D01*
X451826Y380623D01*
X452085Y380531D01*
X452381Y380401D01*
X452696Y380234D01*
X453011Y380049D01*
X453307Y379809D01*
X453325Y379790D01*
X453344Y379771D01*
X453399Y379716D01*
X453473Y379661D01*
X453658Y379475D01*
X453881Y379216D01*
X454121Y378902D01*
X454380Y378531D01*
X454621Y378106D01*
X454824Y377624D01*
Y377606D01*
X454843Y377569D01*
X454880Y377495D01*
X454899Y377384D01*
X454954Y377254D01*
X454991Y377106D01*
X455028Y376940D01*
X455084Y376736D01*
X455139Y376532D01*
X455176Y376292D01*
X455269Y375773D01*
X455324Y375200D01*
X455343Y374570D01*
Y374552D01*
Y374515D01*
Y374422D01*
Y374330D01*
X455324Y374200D01*
Y374052D01*
X455306Y373700D01*
X455250Y373293D01*
X455195Y372867D01*
X455102Y372423D01*
X454991Y371979D01*
Y371960D01*
X454973Y371923D01*
X454954Y371868D01*
X454936Y371794D01*
X454861Y371590D01*
X454750Y371331D01*
X454639Y371035D01*
X454491Y370739D01*
X454306Y370424D01*
X454121Y370128D01*
X454103Y370091D01*
X454029Y369998D01*
X453918Y369869D01*
X453769Y369702D01*
X453603Y369517D01*
X453399Y369332D01*
X453196Y369128D01*
X452955Y368962D01*
X452918Y368943D01*
X452844Y368888D01*
X452714Y368814D01*
X452529Y368721D01*
X452307Y368610D01*
X452048Y368517D01*
X451752Y368406D01*
X451419Y368314D01*
X451382D01*
X451326Y368295D01*
X451271Y368277D01*
X451086Y368258D01*
X450826Y368221D01*
X450530Y368184D01*
X450178Y368147D01*
X449790Y368129D01*
X449364Y368110D01*
X444755D01*
Y380919D01*
X449679D01*
X450012Y380901D01*
D02*
G37*
G36*
X437129Y368110D02*
X435556D01*
Y380919D01*
X437129D01*
Y368110D01*
D02*
G37*
G36*
X433149D02*
X431576D01*
Y380919D01*
X433149D01*
Y368110D01*
D02*
G37*
G36*
X429207D02*
X427633D01*
Y377402D01*
X429207D01*
Y368110D01*
D02*
G37*
G36*
X414214Y380901D02*
X414584Y380882D01*
X414954Y380845D01*
X415324Y380790D01*
X415639Y380734D01*
X415657D01*
X415694Y380715D01*
X415750D01*
X415824Y380679D01*
X416027Y380623D01*
X416287Y380531D01*
X416583Y380401D01*
X416897Y380234D01*
X417212Y380049D01*
X417508Y379809D01*
X417527Y379790D01*
X417545Y379771D01*
X417601Y379716D01*
X417675Y379661D01*
X417860Y379475D01*
X418082Y379216D01*
X418323Y378902D01*
X418582Y378531D01*
X418822Y378106D01*
X419026Y377624D01*
Y377606D01*
X419045Y377569D01*
X419082Y377495D01*
X419100Y377384D01*
X419156Y377254D01*
X419193Y377106D01*
X419230Y376940D01*
X419285Y376736D01*
X419341Y376532D01*
X419378Y376292D01*
X419470Y375773D01*
X419526Y375200D01*
X419544Y374570D01*
Y374552D01*
Y374515D01*
Y374422D01*
Y374330D01*
X419526Y374200D01*
Y374052D01*
X419507Y373700D01*
X419452Y373293D01*
X419396Y372867D01*
X419304Y372423D01*
X419193Y371979D01*
Y371960D01*
X419174Y371923D01*
X419156Y371868D01*
X419137Y371794D01*
X419063Y371590D01*
X418952Y371331D01*
X418841Y371035D01*
X418693Y370739D01*
X418508Y370424D01*
X418323Y370128D01*
X418304Y370091D01*
X418230Y369998D01*
X418119Y369869D01*
X417971Y369702D01*
X417804Y369517D01*
X417601Y369332D01*
X417397Y369128D01*
X417157Y368962D01*
X417120Y368943D01*
X417046Y368888D01*
X416916Y368814D01*
X416731Y368721D01*
X416509Y368610D01*
X416250Y368517D01*
X415953Y368406D01*
X415620Y368314D01*
X415583D01*
X415528Y368295D01*
X415472Y368277D01*
X415287Y368258D01*
X415028Y368221D01*
X414732Y368184D01*
X414380Y368147D01*
X413991Y368129D01*
X413566Y368110D01*
X408957D01*
Y380919D01*
X413880D01*
X414214Y380901D01*
D02*
G37*
G36*
X503932Y377587D02*
X504061Y377569D01*
X504228Y377532D01*
X504413Y377495D01*
X504616Y377439D01*
X504820Y377365D01*
X505042Y377273D01*
X505264Y377162D01*
X505505Y377032D01*
X505727Y376884D01*
X505949Y376699D01*
X506171Y376495D01*
X506375Y376255D01*
Y377402D01*
X507819D01*
Y369369D01*
Y369350D01*
Y369276D01*
Y369165D01*
Y369017D01*
X507800Y368851D01*
Y368647D01*
X507782Y368425D01*
X507763Y368184D01*
X507708Y367685D01*
X507633Y367166D01*
X507578Y366926D01*
X507522Y366704D01*
X507448Y366500D01*
X507374Y366315D01*
Y366296D01*
X507356Y366278D01*
X507282Y366167D01*
X507189Y366000D01*
X507041Y365796D01*
X506838Y365574D01*
X506597Y365334D01*
X506301Y365093D01*
X505968Y364890D01*
X505949D01*
X505931Y364871D01*
X505875Y364834D01*
X505801Y364815D01*
X505709Y364760D01*
X505597Y364723D01*
X505320Y364630D01*
X504987Y364519D01*
X504579Y364445D01*
X504117Y364371D01*
X503617Y364353D01*
X503450D01*
X503339Y364371D01*
X503191D01*
X503043Y364390D01*
X502858Y364408D01*
X502654Y364445D01*
X502229Y364538D01*
X501784Y364667D01*
X501340Y364852D01*
X500933Y365112D01*
X500914Y365130D01*
X500896Y365149D01*
X500766Y365260D01*
X500618Y365426D01*
X500433Y365667D01*
X500248Y365982D01*
X500081Y366370D01*
X500026Y366592D01*
X499989Y366833D01*
X499952Y367074D01*
Y367351D01*
X501488Y367148D01*
Y367111D01*
X501507Y367037D01*
X501544Y366907D01*
X501581Y366740D01*
X501655Y366574D01*
X501747Y366407D01*
X501858Y366241D01*
X502006Y366111D01*
X502043Y366093D01*
X502117Y366037D01*
X502247Y365963D01*
X502432Y365889D01*
X502654Y365796D01*
X502932Y365722D01*
X503265Y365667D01*
X503617Y365648D01*
X503802D01*
X503987Y365667D01*
X504246Y365704D01*
X504505Y365759D01*
X504783Y365833D01*
X505061Y365945D01*
X505301Y366093D01*
X505320Y366111D01*
X505394Y366167D01*
X505505Y366278D01*
X505634Y366407D01*
X505764Y366592D01*
X505894Y366796D01*
X506023Y367037D01*
X506116Y367314D01*
Y367333D01*
X506134Y367407D01*
X506153Y367555D01*
X506171Y367740D01*
X506190Y367870D01*
Y368018D01*
X506208Y368184D01*
Y368369D01*
Y368573D01*
X506227Y368814D01*
Y369054D01*
Y369332D01*
X506208Y369313D01*
X506171Y369276D01*
X506116Y369221D01*
X506042Y369147D01*
X505949Y369054D01*
X505820Y368943D01*
X505671Y368832D01*
X505523Y368721D01*
X505135Y368499D01*
X504709Y368295D01*
X504468Y368221D01*
X504209Y368166D01*
X503932Y368129D01*
X503654Y368110D01*
X503561D01*
X503469Y368129D01*
X503339D01*
X503173Y368147D01*
X502987Y368184D01*
X502784Y368221D01*
X502562Y368277D01*
X502321Y368351D01*
X502080Y368443D01*
X501840Y368554D01*
X501581Y368684D01*
X501340Y368851D01*
X501099Y369036D01*
X500877Y369239D01*
X500674Y369480D01*
X500655Y369498D01*
X500637Y369535D01*
X500581Y369628D01*
X500507Y369721D01*
X500433Y369869D01*
X500341Y370017D01*
X500248Y370202D01*
X500155Y370424D01*
X500063Y370646D01*
X499970Y370905D01*
X499878Y371164D01*
X499804Y371461D01*
X499674Y372090D01*
X499656Y372442D01*
X499637Y372793D01*
Y372812D01*
Y372849D01*
Y372923D01*
Y373015D01*
X499656Y373145D01*
Y373274D01*
X499693Y373608D01*
X499748Y373978D01*
X499841Y374385D01*
X499952Y374811D01*
X500118Y375237D01*
Y375255D01*
X500137Y375292D01*
X500174Y375348D01*
X500211Y375422D01*
X500322Y375625D01*
X500470Y375884D01*
X500674Y376162D01*
X500914Y376440D01*
X501192Y376736D01*
X501507Y376976D01*
X501525D01*
X501544Y376995D01*
X501599Y377032D01*
X501673Y377069D01*
X501858Y377180D01*
X502117Y377291D01*
X502432Y377402D01*
X502802Y377513D01*
X503210Y377587D01*
X503654Y377606D01*
X503820D01*
X503932Y377587D01*
D02*
G37*
%LPC*%
G36*
X469373Y372775D02*
X469355D01*
X469336Y372756D01*
X469281Y372738D01*
X469207Y372719D01*
X469114Y372682D01*
X469003Y372645D01*
X468874Y372608D01*
X468725Y372571D01*
X468559Y372516D01*
X468355Y372479D01*
X468152Y372423D01*
X467911Y372368D01*
X467652Y372312D01*
X467393Y372256D01*
X467097Y372219D01*
X466782Y372164D01*
X466745D01*
X466634Y372145D01*
X466449Y372108D01*
X466245Y372071D01*
X466023Y372034D01*
X465801Y371979D01*
X465597Y371923D01*
X465412Y371849D01*
X465394D01*
X465338Y371812D01*
X465264Y371775D01*
X465190Y371720D01*
X464968Y371572D01*
X464783Y371350D01*
Y371331D01*
X464746Y371294D01*
X464727Y371220D01*
X464690Y371127D01*
X464653Y371016D01*
X464616Y370905D01*
X464598Y370757D01*
X464579Y370609D01*
Y370591D01*
Y370498D01*
X464598Y370387D01*
X464635Y370239D01*
X464690Y370072D01*
X464783Y369906D01*
X464894Y369721D01*
X465042Y369554D01*
X465061Y369535D01*
X465134Y369498D01*
X465246Y369424D01*
X465394Y369350D01*
X465597Y369276D01*
X465838Y369202D01*
X466116Y369165D01*
X466449Y369147D01*
X466597D01*
X466782Y369165D01*
X466986Y369202D01*
X467245Y369239D01*
X467504Y369313D01*
X467781Y369406D01*
X468059Y369535D01*
X468096Y369554D01*
X468170Y369609D01*
X468300Y369702D01*
X468448Y369832D01*
X468614Y369980D01*
X468799Y370165D01*
X468948Y370387D01*
X469096Y370628D01*
X469114Y370646D01*
X469133Y370720D01*
X469170Y370850D01*
X469225Y371016D01*
X469281Y371238D01*
X469318Y371498D01*
X469336Y371812D01*
X469355Y372182D01*
X469373Y372775D01*
D02*
G37*
G36*
X449419Y379401D02*
X446458D01*
Y369628D01*
X449494D01*
X449623Y369647D01*
X449901Y369665D01*
X450215Y369684D01*
X450549Y369721D01*
X450882Y369776D01*
X451159Y369850D01*
X451196Y369869D01*
X451289Y369887D01*
X451419Y369943D01*
X451585Y370017D01*
X451770Y370128D01*
X451955Y370239D01*
X452141Y370369D01*
X452326Y370516D01*
X452344Y370554D01*
X452418Y370628D01*
X452529Y370757D01*
X452659Y370942D01*
X452807Y371183D01*
X452974Y371461D01*
X453122Y371775D01*
X453251Y372127D01*
Y372145D01*
X453270Y372182D01*
X453288Y372238D01*
X453307Y372312D01*
X453325Y372405D01*
X453362Y372534D01*
X453399Y372664D01*
X453436Y372812D01*
X453492Y373182D01*
X453547Y373608D01*
X453584Y374089D01*
X453603Y374607D01*
Y374626D01*
Y374700D01*
Y374792D01*
X453584Y374940D01*
Y375107D01*
X453566Y375292D01*
X453547Y375514D01*
X453529Y375736D01*
X453436Y376236D01*
X453325Y376754D01*
X453159Y377236D01*
X453048Y377476D01*
X452936Y377680D01*
Y377698D01*
X452899Y377735D01*
X452862Y377791D01*
X452825Y377865D01*
X452677Y378050D01*
X452492Y378272D01*
X452252Y378513D01*
X451974Y378753D01*
X451659Y378957D01*
X451326Y379124D01*
X451289Y379142D01*
X451196Y379161D01*
X451030Y379216D01*
X450789Y379272D01*
X450493Y379309D01*
X450123Y379364D01*
X449901Y379383D01*
X449660D01*
X449419Y379401D01*
D02*
G37*
G36*
X413621D02*
X410660D01*
Y369628D01*
X413695D01*
X413825Y369647D01*
X414103Y369665D01*
X414417Y369684D01*
X414750Y369721D01*
X415084Y369776D01*
X415361Y369850D01*
X415398Y369869D01*
X415491Y369887D01*
X415620Y369943D01*
X415787Y370017D01*
X415972Y370128D01*
X416157Y370239D01*
X416342Y370369D01*
X416527Y370516D01*
X416546Y370554D01*
X416620Y370628D01*
X416731Y370757D01*
X416860Y370942D01*
X417008Y371183D01*
X417175Y371461D01*
X417323Y371775D01*
X417453Y372127D01*
Y372145D01*
X417471Y372182D01*
X417490Y372238D01*
X417508Y372312D01*
X417527Y372405D01*
X417564Y372534D01*
X417601Y372664D01*
X417638Y372812D01*
X417693Y373182D01*
X417749Y373608D01*
X417786Y374089D01*
X417804Y374607D01*
Y374626D01*
Y374700D01*
Y374792D01*
X417786Y374940D01*
Y375107D01*
X417767Y375292D01*
X417749Y375514D01*
X417730Y375736D01*
X417638Y376236D01*
X417527Y376754D01*
X417360Y377236D01*
X417249Y377476D01*
X417138Y377680D01*
Y377698D01*
X417101Y377735D01*
X417064Y377791D01*
X417027Y377865D01*
X416879Y378050D01*
X416694Y378272D01*
X416453Y378513D01*
X416176Y378753D01*
X415861Y378957D01*
X415528Y379124D01*
X415491Y379142D01*
X415398Y379161D01*
X415232Y379216D01*
X414991Y379272D01*
X414695Y379309D01*
X414325Y379364D01*
X414103Y379383D01*
X413862D01*
X413621Y379401D01*
D02*
G37*
G36*
X503968Y376310D02*
X503672D01*
X503598Y376292D01*
X503395Y376273D01*
X503154Y376199D01*
X502858Y376107D01*
X502562Y375940D01*
X502266Y375736D01*
X502117Y375588D01*
X501969Y375440D01*
Y375422D01*
X501932Y375403D01*
X501895Y375348D01*
X501858Y375274D01*
X501803Y375200D01*
X501747Y375089D01*
X501673Y374959D01*
X501618Y374811D01*
X501544Y374644D01*
X501470Y374441D01*
X501414Y374237D01*
X501359Y374015D01*
X501322Y373756D01*
X501285Y373497D01*
X501248Y373219D01*
Y372904D01*
Y372886D01*
Y372830D01*
Y372738D01*
X501266Y372608D01*
Y372460D01*
X501285Y372275D01*
X501340Y371886D01*
X501433Y371442D01*
X501544Y371016D01*
X501729Y370591D01*
X501840Y370406D01*
X501969Y370239D01*
X502006Y370202D01*
X502099Y370109D01*
X502247Y369980D01*
X502469Y369832D01*
X502728Y369665D01*
X503043Y369535D01*
X503395Y369443D01*
X503580Y369424D01*
X503783Y369406D01*
X503895D01*
X503968Y369424D01*
X504172Y369443D01*
X504431Y369517D01*
X504709Y369609D01*
X505024Y369758D01*
X505320Y369961D01*
X505468Y370091D01*
X505616Y370239D01*
Y370257D01*
X505653Y370276D01*
X505690Y370331D01*
X505727Y370406D01*
X505783Y370479D01*
X505857Y370591D01*
X505912Y370720D01*
X505986Y370887D01*
X506060Y371053D01*
X506116Y371238D01*
X506190Y371461D01*
X506245Y371701D01*
X506282Y371942D01*
X506319Y372219D01*
X506356Y372534D01*
Y372849D01*
Y372867D01*
Y372923D01*
Y373015D01*
X506338Y373127D01*
Y373274D01*
X506319Y373441D01*
X506264Y373811D01*
X506171Y374237D01*
X506042Y374663D01*
X505857Y375089D01*
X505727Y375274D01*
X505597Y375440D01*
Y375459D01*
X505560Y375477D01*
X505468Y375570D01*
X505301Y375718D01*
X505079Y375884D01*
X504820Y376032D01*
X504505Y376181D01*
X504154Y376273D01*
X503968Y376310D01*
D02*
G37*
%LPD*%
D10*
X322854Y39026D02*
G03*
X322854Y39026I-7894J0D01*
G01*
X23642D02*
G03*
X23642Y39026I-7894J0D01*
G01*
Y330365D02*
G03*
X23642Y330365I-7894J0D01*
G01*
X69337Y332640D02*
G03*
X59337Y322640I0J-10000D01*
G01*
X130544Y332640D02*
G03*
X130544Y340514I0J3937D01*
G01*
X158130D02*
G03*
X158130Y332640I0J-3937D01*
G01*
X31501Y243643D02*
G03*
X39375Y243643I3937J0D01*
G01*
Y216057D02*
G03*
X31501Y216057I-3937J0D01*
G01*
X39375Y146837D02*
G03*
X31501Y146837I-3937J0D01*
G01*
Y174423D02*
G03*
X39375Y174423I3937J0D01*
G01*
Y77617D02*
G03*
X31501Y77617I-3937J0D01*
G01*
Y105203D02*
G03*
X39375Y105203I3937J0D01*
G01*
X301229Y189965D02*
G03*
X293355Y189965I-3937J0D01*
G01*
Y217550D02*
G03*
X301229Y217550I3937J0D01*
G01*
Y102560D02*
G03*
X293355Y102560I-3937J0D01*
G01*
Y130145D02*
G03*
X301229Y130145I3937J0D01*
G01*
X176885Y39059D02*
G03*
X176885Y31185I0J-3937D01*
G01*
X149299D02*
G03*
X149299Y39059I0J3937D01*
G01*
X322859Y330398D02*
G03*
X322859Y330398I-7894J0D01*
G01*
X23646D02*
G03*
X23646Y330398I-7894J0D01*
G01*
X293355Y247055D02*
G03*
X287355Y253055I-6000J0D01*
G01*
Y67055D02*
G03*
X293355Y73055I0J6000D01*
G01*
X215337Y67055D02*
G03*
X215093Y67045I0J-3000D01*
G01*
X42375Y253055D02*
G03*
X39375Y250055I0J-3000D01*
G01*
Y209645D02*
G03*
X42375Y206645I3000J0D01*
G01*
X59337Y298140D02*
G03*
X69337Y288140I10000J0D01*
G01*
X111837D02*
G03*
X114837Y291140I0J3000D01*
G01*
X173837Y296140D02*
G03*
X170837Y296140I-1500J0D01*
G01*
X173837Y291140D02*
G03*
X176837Y288140I3000J-0D01*
G01*
X229337Y322640D02*
G03*
X219337Y332640I-10000J0D01*
G01*
X117837Y296140D02*
G03*
X114837Y296140I-1500J0D01*
G01*
X69337Y332640D02*
G03*
X59337Y322640I0J-10000D01*
G01*
X219337Y288140D02*
G03*
X229337Y298140I-0J10000D01*
G01*
X98337Y46055D02*
G03*
X92337Y46055I-3000J0D01*
G01*
X86799Y39362D02*
G03*
X92337Y43055I1539J3692D01*
G01*
X68694Y62439D02*
G03*
X86799Y39362I29643J4615D01*
G01*
X72646Y67055D02*
G03*
X68694Y62439I0J-4000D01*
G01*
X78337Y67055D02*
G03*
X81328Y69825I0J3000D01*
G01*
D02*
G03*
X78337Y72595I-2991J-230D01*
G01*
X170837Y249118D02*
G03*
X173837Y249118I1500J0D01*
G01*
X214932Y67027D02*
G03*
X214921Y61084I405J-2973D01*
G01*
X81337Y134425D02*
G03*
X78337Y137425I-3000J0D01*
G01*
Y183835D02*
G03*
X81337Y186835I0J3000D01*
G01*
X78337Y114615D02*
G03*
X81337Y117615I0J3000D01*
G01*
Y203645D02*
G03*
X78337Y206645I-3000J0D01*
G01*
X200347Y39059D02*
G03*
X201887Y39367I0J4000D01*
G01*
X121837Y43059D02*
G03*
X125837Y39059I4000J0D01*
G01*
X218062Y55595D02*
G03*
X214921Y61084I-3697J1528D01*
G01*
X201887Y39367D02*
G03*
X218062Y55595I-11550J27688D01*
G01*
X121837Y46055D02*
G03*
X115837Y46055I-3000J0D01*
G01*
X114837Y249118D02*
G03*
X117837Y249118I1500J0D01*
G01*
X66809Y72595D02*
G03*
X64854Y70855I0J-1969D01*
G01*
X61875Y68205D02*
G03*
X64854Y70855I0J3000D01*
G01*
X39375Y71205D02*
G03*
X42375Y68205I3000J0D01*
G01*
Y114615D02*
G03*
X39375Y111615I0J-3000D01*
G01*
X42375Y183835D02*
G03*
X39375Y180835I0J-3000D01*
G01*
Y140425D02*
G03*
X42375Y137425I3000J0D01*
G01*
X51463Y298140D02*
G03*
X69337Y280266I17874J0D01*
G01*
Y340514D02*
G03*
X51463Y322640I0J-17874D01*
G01*
X237211D02*
G03*
X219337Y340514I-17874J0D01*
G01*
Y280266D02*
G03*
X237211Y298140I-0J17874D01*
G01*
X42375Y260929D02*
G03*
X31501Y250055I0J-10874D01*
G01*
Y209645D02*
G03*
X42375Y198771I10874J0D01*
G01*
Y191709D02*
G03*
X31501Y180835I0J-10874D01*
G01*
Y140425D02*
G03*
X42375Y129551I10874J0D01*
G01*
Y122489D02*
G03*
X31501Y111615I0J-10874D01*
G01*
Y71205D02*
G03*
X42375Y60331I10874J0D01*
G01*
X61065D02*
G03*
X83770Y32094I37272J6724D01*
G01*
X83770Y32094D02*
G03*
X88650Y31185I4567J10961D01*
G01*
X202494Y31185D02*
G03*
X227384Y59181I-12157J35870D01*
G01*
X287355D02*
G03*
X301229Y73055I0J13874D01*
G01*
Y247055D02*
G03*
X287355Y260929I-13874J0D01*
G01*
X59337Y322640D02*
X59337D01*
X238236Y67055D02*
X287355D01*
X238236Y253055D02*
X287355D01*
X293355Y73055D02*
Y102570D01*
X215337Y67055D02*
X223132D01*
X215093Y253055D02*
X223132D01*
X78214Y72595D02*
X78227D01*
X78214Y114615D02*
X78227D01*
X78214Y137425D02*
X78227D01*
X78214Y183835D02*
X78227D01*
X78214Y206645D02*
X78227D01*
X78214Y253055D02*
X114837D01*
X117837Y251874D02*
Y252679D01*
X170837Y251874D02*
Y252679D01*
X173837Y253055D02*
X215093D01*
X214932Y67027D02*
X215093Y67045D01*
X70871Y114615D02*
X72649D01*
X70871Y72595D02*
X72649D01*
X170837Y292867D02*
Y292873D01*
X117837Y292867D02*
Y292873D01*
X170837Y284827D02*
Y292867D01*
X117837Y284827D02*
Y292867D01*
X72649Y72595D02*
X78214D01*
X72649Y114615D02*
X78214D01*
X70871Y137425D02*
X72649D01*
X70871Y183835D02*
X72649D01*
X70871Y253055D02*
X72649D01*
X70871Y206645D02*
X72649D01*
Y137425D02*
X78214D01*
X72649Y183835D02*
X78214D01*
X170837Y257368D02*
Y262504D01*
X117837Y257368D02*
Y262504D01*
X233133Y67055D02*
X238236D01*
X223132Y253055D02*
X238236D01*
X72649Y206645D02*
X78214D01*
X72649Y253055D02*
X78214D01*
X117837Y252679D02*
Y257368D01*
X170837Y252679D02*
Y257368D01*
Y267194D02*
Y284827D01*
X117837Y267194D02*
Y284827D01*
Y262504D02*
Y267194D01*
X170837Y262504D02*
Y267194D01*
X42375Y253055D02*
X70871D01*
X42375Y206645D02*
X70871D01*
X223132Y67055D02*
X233133D01*
X173837Y291140D02*
Y296140D01*
X170837Y292873D02*
Y296140D01*
X69337Y288140D02*
X111837D01*
X59337Y298140D02*
Y322640D01*
X114837Y291140D02*
Y296140D01*
X117837Y292873D02*
Y296140D01*
X69337Y332641D02*
X130553D01*
X229337Y298140D02*
Y322640D01*
X176837Y288140D02*
X219337D01*
X92337Y43055D02*
Y46055D01*
X72646Y67055D02*
X78337D01*
X78227Y72595D02*
X78337D01*
X78227Y114615D02*
X78337D01*
X170837Y249118D02*
Y251874D01*
X173837Y249118D02*
Y253055D01*
X115837Y44413D02*
Y46055D01*
X98337Y44413D02*
X115837D01*
X98337D02*
Y46055D01*
X78227Y206645D02*
X78337D01*
X78227Y253055D02*
X114837Y253055D01*
X81337Y117615D02*
Y134425D01*
X78227Y137425D02*
X78337D01*
X78227Y183835D02*
X78337D01*
X125837Y39059D02*
X149312D01*
X114837Y249118D02*
Y253055D01*
X81337Y186835D02*
Y203645D01*
X117837Y249118D02*
Y251874D01*
X121837Y43059D02*
Y46055D01*
X42375Y114615D02*
X70871D01*
X66809Y72595D02*
X70871D01*
X42375Y68205D02*
X61875D01*
X39375Y71205D02*
Y77617D01*
X42375Y183835D02*
X70871D01*
X42375Y137425D02*
X70871D01*
X39375Y140425D02*
Y146837D01*
X69337Y280266D02*
X109963D01*
X51463Y298140D02*
Y322640D01*
X69337Y340514D02*
X130544D01*
X237211Y298140D02*
Y322640D01*
X178711Y280266D02*
X219337D01*
X109963Y260929D02*
Y280266D01*
X178711Y260929D02*
Y280266D01*
X42375Y260929D02*
X109963D01*
X31501Y209645D02*
Y216064D01*
X42375Y198771D02*
X73463D01*
Y191709D02*
Y198771D01*
X42375Y191709D02*
X73463D01*
X31501Y140425D02*
Y146844D01*
X42375Y129551D02*
X73463D01*
Y122489D02*
Y129551D01*
X42375Y122489D02*
X73463D01*
X31501Y71205D02*
Y77624D01*
X42375Y60331D02*
X61065D01*
X88024Y31185D02*
X149299D01*
X227384Y59181D02*
X287355D01*
X301229Y73055D02*
Y102560D01*
X178711Y260929D02*
X287355D01*
X117837Y262504D02*
Y267194D01*
X293355Y217540D02*
Y247055D01*
Y130135D02*
Y189975D01*
X176872Y39059D02*
X200347D01*
X31501Y105196D02*
Y111615D01*
Y174416D02*
Y180835D01*
Y243636D02*
Y250055D01*
X158121Y332641D02*
X219337D01*
X39375Y174423D02*
Y180835D01*
Y243643D02*
Y250055D01*
Y105203D02*
Y111615D01*
X176885Y31185D02*
X202494D01*
X158130Y340514D02*
X219337D01*
X301229Y217550D02*
Y247055D01*
Y130145D02*
Y189965D01*
X39375Y209645D02*
Y216057D01*
D11*
X0Y-312D02*
X330709D01*
X0Y-311D02*
Y369768D01*
D12*
Y369767D02*
X330709D01*
Y-311D02*
Y369767D01*
X419879Y156589D02*
X421879Y160589D01*
X417879D02*
X421879D01*
X417879D02*
X419879Y156589D01*
Y155256D02*
X423212Y161923D01*
X416545D02*
X423212D01*
X416545D02*
X419879Y155256D01*
X418879Y142589D02*
X419879Y141589D01*
X417879Y142589D02*
X418879D01*
X417879D02*
X418879Y143589D01*
X417879Y144589D02*
X418879Y143589D01*
X417879Y144589D02*
X418879D01*
X419879Y145589D01*
X420879Y144589D01*
X421879D01*
X420879Y143589D02*
X421879Y144589D01*
X420879Y143589D02*
X421879Y142589D01*
X420879D02*
X421879D01*
X419879Y141589D02*
X420879Y142589D01*
X418212Y141923D02*
X419879Y140256D01*
X416545Y141923D02*
X418212D01*
X416545D02*
X418212Y143589D01*
X416545Y145256D02*
X418212Y143589D01*
X416545Y145256D02*
X418212D01*
X419879Y146923D01*
X421545Y145256D01*
X423212D01*
X421545Y143589D02*
X423212Y145256D01*
X421545Y143589D02*
X423212Y141923D01*
X421545D02*
X423212D01*
X419879Y140256D02*
X421545Y141923D01*
X1142359Y161254D02*
Y157255D01*
X1144358Y155256D01*
X1146358Y157255D01*
Y161254D01*
X1148357Y155256D02*
X1150356D01*
X1149357D01*
Y159255D01*
X1148357D01*
X1154355D02*
X1156354D01*
X1157354Y158255D01*
Y155256D01*
X1154355D01*
X1153355Y156256D01*
X1154355Y157255D01*
X1157354D01*
X1142359Y146254D02*
Y142255D01*
X1144358Y140256D01*
X1146358Y142255D01*
Y146254D01*
X1148357Y140256D02*
X1150356D01*
X1149357D01*
Y144255D01*
X1148357D01*
X1154355D02*
X1156354D01*
X1157354Y143255D01*
Y140256D01*
X1154355D01*
X1153355Y141256D01*
X1154355Y142255D01*
X1157354D01*
X1008998Y160254D02*
X1009998Y161254D01*
X1011997D01*
X1012997Y160254D01*
Y159255D01*
X1011997Y158255D01*
X1010997D01*
X1011997D01*
X1012997Y157255D01*
Y156256D01*
X1011997Y155256D01*
X1009998D01*
X1008998Y156256D01*
X1014996Y155256D02*
Y156256D01*
X1015996D01*
Y155256D01*
X1014996D01*
X1019995Y156256D02*
X1020994Y155256D01*
X1022993D01*
X1023993Y156256D01*
Y160254D01*
X1022993Y161254D01*
X1020994D01*
X1019995Y160254D01*
Y159255D01*
X1020994Y158255D01*
X1023993D01*
X1025993Y160254D02*
X1026992Y161254D01*
X1028992D01*
X1029991Y160254D01*
Y159255D01*
X1028992Y158255D01*
X1027992D01*
X1028992D01*
X1029991Y157255D01*
Y156256D01*
X1028992Y155256D01*
X1026992D01*
X1025993Y156256D01*
X1031991Y161254D02*
X1035989D01*
Y160254D01*
X1031991Y156256D01*
Y155256D01*
X1037989Y160254D02*
X1038988Y161254D01*
X1040988D01*
X1041987Y160254D01*
Y156256D01*
X1040988Y155256D01*
X1038988D01*
X1037989Y156256D01*
Y160254D01*
X1043987Y155256D02*
Y159255D01*
X1044986D01*
X1045986Y158255D01*
Y155256D01*
Y158255D01*
X1046986Y159255D01*
X1047985Y158255D01*
Y155256D01*
X1049985D02*
X1051984D01*
X1050984D01*
Y159255D01*
X1049985D01*
X1054983Y155256D02*
X1056983D01*
X1055983D01*
Y161254D01*
X1054983D01*
X1067979Y155256D02*
X1065980Y157255D01*
Y159255D01*
X1067979Y161254D01*
X1070978Y160254D02*
X1071978Y161254D01*
X1073977D01*
X1074977Y160254D01*
Y156256D01*
X1073977Y155256D01*
X1071978D01*
X1070978Y156256D01*
Y160254D01*
X1076976Y155256D02*
Y156256D01*
X1077976D01*
Y155256D01*
X1076976D01*
X1081975D02*
X1083974D01*
X1082974D01*
Y161254D01*
X1081975Y160254D01*
X1086973D02*
X1087973Y161254D01*
X1089972D01*
X1090971Y160254D01*
Y156256D01*
X1089972Y155256D01*
X1087973D01*
X1086973Y156256D01*
Y160254D01*
X1092971D02*
X1093971Y161254D01*
X1095970D01*
X1096970Y160254D01*
Y156256D01*
X1095970Y155256D01*
X1093971D01*
X1092971Y156256D01*
Y160254D01*
X1098969Y155256D02*
Y159255D01*
X1099969D01*
X1100968Y158255D01*
Y155256D01*
Y158255D01*
X1101968Y159255D01*
X1102968Y158255D01*
Y155256D01*
X1104967D02*
Y159255D01*
X1105967D01*
X1106966Y158255D01*
Y155256D01*
Y158255D01*
X1107966Y159255D01*
X1108966Y158255D01*
Y155256D01*
X1110965D02*
X1112964Y157255D01*
Y159255D01*
X1110965Y161254D01*
X1008998Y146254D02*
X1012997D01*
Y145254D01*
X1008998Y141256D01*
Y140256D01*
X1014996D02*
Y141256D01*
X1015996D01*
Y140256D01*
X1014996D01*
X1019995Y145254D02*
X1020994Y146254D01*
X1022993D01*
X1023993Y145254D01*
Y144255D01*
X1022993Y143255D01*
X1023993Y142255D01*
Y141256D01*
X1022993Y140256D01*
X1020994D01*
X1019995Y141256D01*
Y142255D01*
X1020994Y143255D01*
X1019995Y144255D01*
Y145254D01*
X1020994Y143255D02*
X1022993D01*
X1025993Y146254D02*
X1029991D01*
Y145254D01*
X1025993Y141256D01*
Y140256D01*
X1034990D02*
Y146254D01*
X1031991Y143255D01*
X1035989D01*
X1037989Y145254D02*
X1038988Y146254D01*
X1040988D01*
X1041987Y145254D01*
Y141256D01*
X1040988Y140256D01*
X1038988D01*
X1037989Y141256D01*
Y145254D01*
X1043987Y140256D02*
Y144255D01*
X1044986D01*
X1045986Y143255D01*
Y140256D01*
Y143255D01*
X1046986Y144255D01*
X1047985Y143255D01*
Y140256D01*
X1049985D02*
X1051984D01*
X1050984D01*
Y144255D01*
X1049985D01*
X1054983Y140256D02*
X1056983D01*
X1055983D01*
Y146254D01*
X1054983D01*
X1067979Y140256D02*
X1065980Y142255D01*
Y144255D01*
X1067979Y146254D01*
X1070978Y145254D02*
X1071978Y146254D01*
X1073977D01*
X1074977Y145254D01*
Y141256D01*
X1073977Y140256D01*
X1071978D01*
X1070978Y141256D01*
Y145254D01*
X1076976Y140256D02*
Y141256D01*
X1077976D01*
Y140256D01*
X1076976D01*
X1085973D02*
X1081975D01*
X1085973Y144255D01*
Y145254D01*
X1084974Y146254D01*
X1082974D01*
X1081975Y145254D01*
X1087973D02*
X1088972Y146254D01*
X1090971D01*
X1091971Y145254D01*
Y141256D01*
X1090971Y140256D01*
X1088972D01*
X1087973Y141256D01*
Y145254D01*
X1093971D02*
X1094970Y146254D01*
X1096970D01*
X1097969Y145254D01*
Y141256D01*
X1096970Y140256D01*
X1094970D01*
X1093971Y141256D01*
Y145254D01*
X1099969Y140256D02*
Y144255D01*
X1100968D01*
X1101968Y143255D01*
Y140256D01*
Y143255D01*
X1102968Y144255D01*
X1103967Y143255D01*
Y140256D01*
X1105967D02*
Y144255D01*
X1106966D01*
X1107966Y143255D01*
Y140256D01*
Y143255D01*
X1108966Y144255D01*
X1109965Y143255D01*
Y140256D01*
X1111965D02*
X1113964Y142255D01*
Y144255D01*
X1111965Y146254D01*
X875637Y160254D02*
X876637Y161254D01*
X878636D01*
X879636Y160254D01*
Y156256D01*
X878636Y155256D01*
X876637D01*
X875637Y156256D01*
Y160254D01*
X881635Y155256D02*
Y156256D01*
X882635D01*
Y155256D01*
X881635D01*
X886634Y160254D02*
X887633Y161254D01*
X889633D01*
X890632Y160254D01*
Y156256D01*
X889633Y155256D01*
X887633D01*
X886634Y156256D01*
Y160254D01*
X892632D02*
X893631Y161254D01*
X895631D01*
X896630Y160254D01*
Y156256D01*
X895631Y155256D01*
X893631D01*
X892632Y156256D01*
Y160254D01*
X898630D02*
X899629Y161254D01*
X901629D01*
X902629Y160254D01*
Y156256D01*
X901629Y155256D01*
X899629D01*
X898630Y156256D01*
Y160254D01*
X904628D02*
X905628Y161254D01*
X907627D01*
X908627Y160254D01*
Y156256D01*
X907627Y155256D01*
X905628D01*
X904628Y156256D01*
Y160254D01*
X910626Y155256D02*
Y159255D01*
X911626D01*
X912625Y158255D01*
Y155256D01*
Y158255D01*
X913625Y159255D01*
X914625Y158255D01*
Y155256D01*
X916624D02*
X918623D01*
X917624D01*
Y159255D01*
X916624D01*
X921622Y155256D02*
X923622D01*
X922622D01*
Y161254D01*
X921622D01*
X934618Y155256D02*
X932619Y157255D01*
Y159255D01*
X934618Y161254D01*
X937617Y160254D02*
X938617Y161254D01*
X940616D01*
X941616Y160254D01*
Y156256D01*
X940616Y155256D01*
X938617D01*
X937617Y156256D01*
Y160254D01*
X943615Y155256D02*
Y156256D01*
X944615D01*
Y155256D01*
X943615D01*
X948614Y160254D02*
X949613Y161254D01*
X951613D01*
X952612Y160254D01*
Y156256D01*
X951613Y155256D01*
X949613D01*
X948614Y156256D01*
Y160254D01*
X954612D02*
X955611Y161254D01*
X957611D01*
X958610Y160254D01*
Y156256D01*
X957611Y155256D01*
X955611D01*
X954612Y156256D01*
Y160254D01*
X960610D02*
X961609Y161254D01*
X963609D01*
X964608Y160254D01*
Y156256D01*
X963609Y155256D01*
X961609D01*
X960610Y156256D01*
Y160254D01*
X966608Y155256D02*
Y159255D01*
X967607D01*
X968607Y158255D01*
Y155256D01*
Y158255D01*
X969607Y159255D01*
X970607Y158255D01*
Y155256D01*
X972606D02*
Y159255D01*
X973606D01*
X974605Y158255D01*
Y155256D01*
Y158255D01*
X975605Y159255D01*
X976605Y158255D01*
Y155256D01*
X978604D02*
X980603Y157255D01*
Y159255D01*
X978604Y161254D01*
X875637Y145254D02*
X876637Y146254D01*
X878636D01*
X879636Y145254D01*
Y141256D01*
X878636Y140256D01*
X876637D01*
X875637Y141256D01*
Y145254D01*
X881635Y140256D02*
Y141256D01*
X882635D01*
Y140256D01*
X881635D01*
X886634Y145254D02*
X887633Y146254D01*
X889633D01*
X890632Y145254D01*
Y141256D01*
X889633Y140256D01*
X887633D01*
X886634Y141256D01*
Y145254D01*
X892632D02*
X893631Y146254D01*
X895631D01*
X896630Y145254D01*
Y141256D01*
X895631Y140256D01*
X893631D01*
X892632Y141256D01*
Y145254D01*
X898630D02*
X899629Y146254D01*
X901629D01*
X902629Y145254D01*
Y141256D01*
X901629Y140256D01*
X899629D01*
X898630Y141256D01*
Y145254D01*
X904628D02*
X905628Y146254D01*
X907627D01*
X908627Y145254D01*
Y141256D01*
X907627Y140256D01*
X905628D01*
X904628Y141256D01*
Y145254D01*
X910626Y140256D02*
Y144255D01*
X911626D01*
X912625Y143255D01*
Y140256D01*
Y143255D01*
X913625Y144255D01*
X914625Y143255D01*
Y140256D01*
X916624D02*
X918623D01*
X917624D01*
Y144255D01*
X916624D01*
X921622Y140256D02*
X923622D01*
X922622D01*
Y146254D01*
X921622D01*
X934618Y140256D02*
X932619Y142255D01*
Y144255D01*
X934618Y146254D01*
X937617Y145254D02*
X938617Y146254D01*
X940616D01*
X941616Y145254D01*
Y141256D01*
X940616Y140256D01*
X938617D01*
X937617Y141256D01*
Y145254D01*
X943615Y140256D02*
Y141256D01*
X944615D01*
Y140256D01*
X943615D01*
X948614Y145254D02*
X949613Y146254D01*
X951613D01*
X952612Y145254D01*
Y141256D01*
X951613Y140256D01*
X949613D01*
X948614Y141256D01*
Y145254D01*
X954612D02*
X955611Y146254D01*
X957611D01*
X958610Y145254D01*
Y141256D01*
X957611Y140256D01*
X955611D01*
X954612Y141256D01*
Y145254D01*
X960610D02*
X961609Y146254D01*
X963609D01*
X964608Y145254D01*
Y141256D01*
X963609Y140256D01*
X961609D01*
X960610Y141256D01*
Y145254D01*
X966608Y140256D02*
Y144255D01*
X967607D01*
X968607Y143255D01*
Y140256D01*
Y143255D01*
X969607Y144255D01*
X970607Y143255D01*
Y140256D01*
X972606D02*
Y144255D01*
X973606D01*
X974605Y143255D01*
Y140256D01*
Y143255D01*
X975605Y144255D01*
X976605Y143255D01*
Y140256D01*
X978604D02*
X980603Y142255D01*
Y144255D01*
X978604Y146254D01*
X695692Y161254D02*
Y155256D01*
X699691D01*
X701690Y161254D02*
X705689D01*
Y160254D01*
X701690Y156256D01*
Y155256D01*
X713686Y158255D02*
X717685D01*
X729681Y160254D02*
X728681Y161254D01*
X726682D01*
X725682Y160254D01*
Y156256D01*
X726682Y155256D01*
X728681D01*
X729681Y156256D01*
Y158255D01*
X727682D01*
X731680Y155256D02*
Y161254D01*
X735679Y155256D01*
Y161254D01*
X737678D02*
Y155256D01*
X740677D01*
X741677Y156256D01*
Y160254D01*
X740677Y161254D01*
X737678D01*
X749675Y158255D02*
X753673D01*
X761671Y161254D02*
Y155256D01*
X765669D01*
X767669Y160254D02*
X768668Y161254D01*
X770668D01*
X771667Y160254D01*
Y159255D01*
X770668Y158255D01*
X771667Y157255D01*
Y156256D01*
X770668Y155256D01*
X768668D01*
X767669Y156256D01*
Y157255D01*
X768668Y158255D01*
X767669Y159255D01*
Y160254D01*
X768668Y158255D02*
X770668D01*
X779665D02*
X783664D01*
X791661Y161254D02*
Y155256D01*
X794660D01*
X795660Y156256D01*
Y157255D01*
X794660Y158255D01*
X791661D01*
X794660D01*
X795660Y159255D01*
Y160254D01*
X794660Y161254D01*
X791661D01*
X798659Y155256D02*
X800658D01*
X801658Y156256D01*
Y158255D01*
X800658Y159255D01*
X798659D01*
X797659Y158255D01*
Y156256D01*
X798659Y155256D01*
X804657Y160254D02*
Y159255D01*
X803657D01*
X805656D01*
X804657D01*
Y156256D01*
X805656Y155256D01*
X809655Y160254D02*
Y159255D01*
X808655D01*
X810655D01*
X809655D01*
Y156256D01*
X810655Y155256D01*
X814653D02*
X816653D01*
X817653Y156256D01*
Y158255D01*
X816653Y159255D01*
X814653D01*
X813654Y158255D01*
Y156256D01*
X814653Y155256D01*
X819652D02*
Y159255D01*
X820652D01*
X821651Y158255D01*
Y155256D01*
Y158255D01*
X822651Y159255D01*
X823650Y158255D01*
Y155256D01*
X835647Y160254D02*
X834647Y161254D01*
X832648D01*
X831648Y160254D01*
Y156256D01*
X832648Y155256D01*
X834647D01*
X835647Y156256D01*
X838646Y155256D02*
X840645D01*
X841645Y156256D01*
Y158255D01*
X840645Y159255D01*
X838646D01*
X837646Y158255D01*
Y156256D01*
X838646Y155256D01*
X843644Y153256D02*
Y159255D01*
X846643D01*
X847643Y158255D01*
Y156256D01*
X846643Y155256D01*
X843644D01*
X849642Y153256D02*
Y159255D01*
X852641D01*
X853641Y158255D01*
Y156256D01*
X852641Y155256D01*
X849642D01*
X858639D02*
X856640D01*
X855640Y156256D01*
Y158255D01*
X856640Y159255D01*
X858639D01*
X859639Y158255D01*
Y157255D01*
X855640D01*
X861638Y159255D02*
Y155256D01*
Y157255D01*
X862638Y158255D01*
X863638Y159255D01*
X864637D01*
X695692Y146254D02*
Y140256D01*
X699691D01*
X701690Y146254D02*
X705689D01*
Y145254D01*
X701690Y141256D01*
Y140256D01*
X713686Y143255D02*
X717685D01*
X729681Y145254D02*
X728681Y146254D01*
X726682D01*
X725682Y145254D01*
Y141256D01*
X726682Y140256D01*
X728681D01*
X729681Y141256D01*
Y143255D01*
X727682D01*
X731680Y140256D02*
Y146254D01*
X735679Y140256D01*
Y146254D01*
X737678D02*
Y140256D01*
X740677D01*
X741677Y141256D01*
Y145254D01*
X740677Y146254D01*
X737678D01*
X749675Y143255D02*
X753673D01*
X761671Y146254D02*
Y140256D01*
X765669D01*
X767669Y145254D02*
X768668Y146254D01*
X770668D01*
X771667Y145254D01*
Y144255D01*
X770668Y143255D01*
X771667Y142255D01*
Y141256D01*
X770668Y140256D01*
X768668D01*
X767669Y141256D01*
Y142255D01*
X768668Y143255D01*
X767669Y144255D01*
Y145254D01*
X768668Y143255D02*
X770668D01*
X779665D02*
X783664D01*
X791661Y146254D02*
Y140256D01*
X794660D01*
X795660Y141256D01*
Y142255D01*
X794660Y143255D01*
X791661D01*
X794660D01*
X795660Y144255D01*
Y145254D01*
X794660Y146254D01*
X791661D01*
X798659Y140256D02*
X800658D01*
X801658Y141256D01*
Y143255D01*
X800658Y144255D01*
X798659D01*
X797659Y143255D01*
Y141256D01*
X798659Y140256D01*
X804657Y145254D02*
Y144255D01*
X803657D01*
X805656D01*
X804657D01*
Y141256D01*
X805656Y140256D01*
X809655Y145254D02*
Y144255D01*
X808655D01*
X810655D01*
X809655D01*
Y141256D01*
X810655Y140256D01*
X814653D02*
X816653D01*
X817653Y141256D01*
Y143255D01*
X816653Y144255D01*
X814653D01*
X813654Y143255D01*
Y141256D01*
X814653Y140256D01*
X819652D02*
Y144255D01*
X820652D01*
X821651Y143255D01*
Y140256D01*
Y143255D01*
X822651Y144255D01*
X823650Y143255D01*
Y140256D01*
X835647Y145254D02*
X834647Y146254D01*
X832648D01*
X831648Y145254D01*
Y141256D01*
X832648Y140256D01*
X834647D01*
X835647Y141256D01*
X838646Y140256D02*
X840645D01*
X841645Y141256D01*
Y143255D01*
X840645Y144255D01*
X838646D01*
X837646Y143255D01*
Y141256D01*
X838646Y140256D01*
X843644Y138257D02*
Y144255D01*
X846643D01*
X847643Y143255D01*
Y141256D01*
X846643Y140256D01*
X843644D01*
X849642Y138257D02*
Y144255D01*
X852641D01*
X853641Y143255D01*
Y141256D01*
X852641Y140256D01*
X849642D01*
X858639D02*
X856640D01*
X855640Y141256D01*
Y143255D01*
X856640Y144255D01*
X858639D01*
X859639Y143255D01*
Y142255D01*
X855640D01*
X861638Y144255D02*
Y140256D01*
Y142255D01*
X862638Y143255D01*
X863638Y144255D01*
X864637D01*
X645104Y155256D02*
Y161254D01*
X648103D01*
X649103Y160254D01*
Y158255D01*
X648103Y157255D01*
X645104D01*
X651102Y161254D02*
X655101D01*
X653102D01*
Y155256D01*
X657100Y161254D02*
Y155256D01*
Y158255D01*
X661099D01*
Y161254D01*
Y155256D01*
X645104Y140256D02*
Y146254D01*
X648103D01*
X649103Y145254D01*
Y143255D01*
X648103Y142255D01*
X645104D01*
X651102Y146254D02*
X655101D01*
X653102D01*
Y140256D01*
X657100Y146254D02*
Y140256D01*
Y143255D01*
X661099D01*
Y146254D01*
Y140256D01*
X529138Y160254D02*
X530138Y161254D01*
X532137D01*
X533137Y160254D01*
Y159255D01*
X532137Y158255D01*
X531138D01*
X532137D01*
X533137Y157255D01*
Y156256D01*
X532137Y155256D01*
X530138D01*
X529138Y156256D01*
X535136Y155256D02*
Y156256D01*
X536136D01*
Y155256D01*
X535136D01*
X540135Y156256D02*
X541135Y155256D01*
X543134D01*
X544134Y156256D01*
Y160254D01*
X543134Y161254D01*
X541135D01*
X540135Y160254D01*
Y159255D01*
X541135Y158255D01*
X544134D01*
X546133Y160254D02*
X547132Y161254D01*
X549132D01*
X550132Y160254D01*
Y159255D01*
X549132Y158255D01*
X548132D01*
X549132D01*
X550132Y157255D01*
Y156256D01*
X549132Y155256D01*
X547132D01*
X546133Y156256D01*
X552131Y161254D02*
X556130D01*
Y160254D01*
X552131Y156256D01*
Y155256D01*
X558129Y160254D02*
X559129Y161254D01*
X561128D01*
X562128Y160254D01*
Y156256D01*
X561128Y155256D01*
X559129D01*
X558129Y156256D01*
Y160254D01*
X564127Y155256D02*
Y159255D01*
X565127D01*
X566126Y158255D01*
Y155256D01*
Y158255D01*
X567126Y159255D01*
X568126Y158255D01*
Y155256D01*
X570125D02*
X572124D01*
X571125D01*
Y159255D01*
X570125D01*
X575123Y155256D02*
X577123D01*
X576123D01*
Y161254D01*
X575123D01*
X588119Y155256D02*
X586120Y157255D01*
Y159255D01*
X588119Y161254D01*
X591118Y160254D02*
X592118Y161254D01*
X594117D01*
X595117Y160254D01*
Y156256D01*
X594117Y155256D01*
X592118D01*
X591118Y156256D01*
Y160254D01*
X597116Y155256D02*
Y156256D01*
X598116D01*
Y155256D01*
X597116D01*
X602115D02*
X604114D01*
X603114D01*
Y161254D01*
X602115Y160254D01*
X607113D02*
X608113Y161254D01*
X610112D01*
X611112Y160254D01*
Y156256D01*
X610112Y155256D01*
X608113D01*
X607113Y156256D01*
Y160254D01*
X613111D02*
X614111Y161254D01*
X616110D01*
X617110Y160254D01*
Y156256D01*
X616110Y155256D01*
X614111D01*
X613111Y156256D01*
Y160254D01*
X619109Y155256D02*
Y159255D01*
X620109D01*
X621109Y158255D01*
Y155256D01*
Y158255D01*
X622108Y159255D01*
X623108Y158255D01*
Y155256D01*
X625107D02*
Y159255D01*
X626107D01*
X627107Y158255D01*
Y155256D01*
Y158255D01*
X628106Y159255D01*
X629106Y158255D01*
Y155256D01*
X631105D02*
X633105Y157255D01*
Y159255D01*
X631105Y161254D01*
X529138Y146254D02*
X533137D01*
Y145254D01*
X529138Y141256D01*
Y140256D01*
X535136D02*
Y141256D01*
X536136D01*
Y140256D01*
X535136D01*
X540135Y145254D02*
X541135Y146254D01*
X543134D01*
X544134Y145254D01*
Y144255D01*
X543134Y143255D01*
X544134Y142255D01*
Y141256D01*
X543134Y140256D01*
X541135D01*
X540135Y141256D01*
Y142255D01*
X541135Y143255D01*
X540135Y144255D01*
Y145254D01*
X541135Y143255D02*
X543134D01*
X546133Y146254D02*
X550132D01*
Y145254D01*
X546133Y141256D01*
Y140256D01*
X555130D02*
Y146254D01*
X552131Y143255D01*
X556130D01*
X558129Y145254D02*
X559129Y146254D01*
X561128D01*
X562128Y145254D01*
Y141256D01*
X561128Y140256D01*
X559129D01*
X558129Y141256D01*
Y145254D01*
X564127Y140256D02*
Y144255D01*
X565127D01*
X566126Y143255D01*
Y140256D01*
Y143255D01*
X567126Y144255D01*
X568126Y143255D01*
Y140256D01*
X570125D02*
X572124D01*
X571125D01*
Y144255D01*
X570125D01*
X575123Y140256D02*
X577123D01*
X576123D01*
Y146254D01*
X575123D01*
X588119Y140256D02*
X586120Y142255D01*
Y144255D01*
X588119Y146254D01*
X591118Y145254D02*
X592118Y146254D01*
X594117D01*
X595117Y145254D01*
Y141256D01*
X594117Y140256D01*
X592118D01*
X591118Y141256D01*
Y145254D01*
X597116Y140256D02*
Y141256D01*
X598116D01*
Y140256D01*
X597116D01*
X606113D02*
X602115D01*
X606113Y144255D01*
Y145254D01*
X605114Y146254D01*
X603114D01*
X602115Y145254D01*
X608113D02*
X609112Y146254D01*
X611112D01*
X612112Y145254D01*
Y141256D01*
X611112Y140256D01*
X609112D01*
X608113Y141256D01*
Y145254D01*
X614111D02*
X615110Y146254D01*
X617110D01*
X618110Y145254D01*
Y141256D01*
X617110Y140256D01*
X615110D01*
X614111Y141256D01*
Y145254D01*
X620109Y140256D02*
Y144255D01*
X621109D01*
X622108Y143255D01*
Y140256D01*
Y143255D01*
X623108Y144255D01*
X624108Y143255D01*
Y140256D01*
X626107D02*
Y144255D01*
X627107D01*
X628106Y143255D01*
Y140256D01*
Y143255D01*
X629106Y144255D01*
X630106Y143255D01*
Y140256D01*
X632105D02*
X634104Y142255D01*
Y144255D01*
X632105Y146254D01*
X470154Y125256D02*
X472153D01*
X471153D01*
Y131254D01*
X470154Y130254D01*
X479151Y125256D02*
X475152D01*
X479151Y129255D01*
Y130254D01*
X478151Y131254D01*
X476152D01*
X475152Y130254D01*
X481150Y131254D02*
X485149D01*
Y130254D01*
X481150Y126256D01*
Y125256D01*
X493146Y131254D02*
X497145D01*
X495146D01*
Y125256D01*
X500144D02*
X502143D01*
X503143Y126256D01*
Y128255D01*
X502143Y129255D01*
X500144D01*
X499145Y128255D01*
Y126256D01*
X500144Y125256D01*
X506142Y130254D02*
Y129255D01*
X505142D01*
X507142D01*
X506142D01*
Y126256D01*
X507142Y125256D01*
X511141Y129255D02*
X513140D01*
X514140Y128255D01*
Y125256D01*
X511141D01*
X510141Y126256D01*
X511141Y127255D01*
X514140D01*
X516139Y125256D02*
X518138D01*
X517139D01*
Y131254D01*
X516139D01*
X470154Y155256D02*
X472153D01*
X471153D01*
Y161254D01*
X470154Y160254D01*
X479151Y155256D02*
X475152D01*
X479151Y159255D01*
Y160254D01*
X478151Y161254D01*
X476152D01*
X475152Y160254D01*
X481150Y155256D02*
X483150D01*
X482150D01*
Y161254D01*
X481150Y160254D01*
X474153Y146254D02*
X472153Y145254D01*
X470154Y143255D01*
Y141256D01*
X471153Y140256D01*
X473153D01*
X474153Y141256D01*
Y142255D01*
X473153Y143255D01*
X470154D01*
D13*
X215337Y67055D02*
G03*
X215093Y67045I0J-3000D01*
G01*
X218062Y55595D02*
G03*
X214921Y61084I-3697J1528D01*
G01*
X201887Y39367D02*
G03*
X218062Y55595I-11550J27688D01*
G01*
X200347Y39059D02*
G03*
X201887Y39367I0J4000D01*
G01*
X121837Y43059D02*
G03*
X125837Y39059I4000J0D01*
G01*
X121837Y46055D02*
G03*
X115837Y46055I-3000J0D01*
G01*
X98337D02*
G03*
X92337Y46055I-3000J0D01*
G01*
X86799Y39362D02*
G03*
X92337Y43055I1539J3692D01*
G01*
X68694Y62439D02*
G03*
X86799Y39362I29643J4615D01*
G01*
X72646Y67055D02*
G03*
X68694Y62439I0J-4000D01*
G01*
X78337Y67055D02*
G03*
X81328Y69825I0J3000D01*
G01*
D02*
G03*
X78337Y72595I-2991J-230D01*
G01*
Y114615D02*
G03*
X81337Y117615I0J3000D01*
G01*
Y134425D02*
G03*
X78337Y137425I-3000J0D01*
G01*
Y183835D02*
G03*
X81337Y186835I0J3000D01*
G01*
Y203645D02*
G03*
X78337Y206645I-3000J0D01*
G01*
X114837Y249118D02*
G03*
X117837Y249118I1500J0D01*
G01*
X170837D02*
G03*
X173837Y249118I1500J0D01*
G01*
X215093Y67045D02*
G03*
X214921Y61084I244J-2990D01*
G01*
X39375Y71205D02*
G03*
X42375Y68205I3000J0D01*
G01*
Y114615D02*
G03*
X39375Y111615I0J-3000D01*
G01*
X66809Y72595D02*
G03*
X64854Y70855I0J-1969D01*
G01*
X61875Y68205D02*
G03*
X64854Y70855I0J3000D01*
G01*
X117837Y296140D02*
G03*
X114837Y296140I-1500J0D01*
G01*
X111837Y288140D02*
G03*
X114837Y291140I0J3000D01*
G01*
X229337Y322640D02*
G03*
X219337Y332640I-10000J0D01*
G01*
X173837Y291140D02*
G03*
X176837Y288140I3000J0D01*
G01*
X173837Y296140D02*
G03*
X170837Y296140I-1500J0D01*
G01*
X59337Y298140D02*
G03*
X69337Y288140I10000J0D01*
G01*
Y332640D02*
G03*
X59337Y322640I0J-10000D01*
G01*
X219337Y288140D02*
G03*
X229337Y298140I0J10000D01*
G01*
X42375Y183835D02*
G03*
X39375Y180835I0J-3000D01*
G01*
Y140425D02*
G03*
X42375Y137425I3000J0D01*
G01*
X39375Y209645D02*
G03*
X42375Y206645I3000J0D01*
G01*
Y253055D02*
G03*
X39375Y250055I0J-3000D01*
G01*
X293355Y247055D02*
G03*
X287355Y253055I-6000J0D01*
G01*
Y67055D02*
G03*
X293355Y73055I0J6000D01*
G01*
X215337Y67055D02*
X223132D01*
X215093Y253055D02*
X223132D01*
X125837Y39059D02*
X200347D01*
X121837Y43059D02*
Y46055D01*
X115837Y44413D02*
Y46055D01*
X98337Y44413D02*
X115837D01*
X98337D02*
Y46055D01*
X92337Y43055D02*
Y46055D01*
X72646Y67055D02*
X78337D01*
X78214Y72595D02*
X78337D01*
X78214Y114615D02*
X78337D01*
X81337Y117615D02*
Y134425D01*
X78214Y137425D02*
X78337D01*
X78214Y183835D02*
X78337D01*
X81337Y186835D02*
Y203645D01*
X78214Y206645D02*
X78337D01*
X78214Y253055D02*
X114837D01*
Y249118D02*
Y253055D01*
X117837Y249118D02*
Y252679D01*
X170837Y249118D02*
Y252679D01*
X173837Y249118D02*
Y253055D01*
X215093D01*
X42375Y68205D02*
X61875D01*
X39375Y71205D02*
Y111615D01*
X42375Y114615D02*
X72649D01*
X66809Y72595D02*
X72649D01*
X114837Y291140D02*
Y296140D01*
X69337Y288140D02*
X111837D01*
X69337Y332640D02*
X219337D01*
X229337Y298140D02*
Y322640D01*
X173837Y291140D02*
Y296140D01*
X170837Y292867D02*
Y296140D01*
X59337Y298140D02*
Y322640D01*
X117837Y292867D02*
Y296140D01*
X176837Y288140D02*
X219337D01*
X42375Y183835D02*
X72649D01*
X39375Y140425D02*
Y180835D01*
X42375Y137425D02*
X72649D01*
X42375Y253055D02*
X72649D01*
X42375Y206645D02*
X72649D01*
Y137425D02*
X78214D01*
X72649Y183835D02*
X78214D01*
X170837Y252679D02*
Y257368D01*
X117837Y252679D02*
Y257368D01*
X72649Y206645D02*
X78214D01*
X72649Y253055D02*
X78214D01*
X72649Y72595D02*
X78214D01*
X72649Y114615D02*
X78214D01*
X170837Y257368D02*
Y262504D01*
X117837Y257368D02*
Y262504D01*
X170837Y284827D02*
Y292867D01*
X117837Y284827D02*
Y292867D01*
X170837Y267194D02*
Y284827D01*
X117837Y267194D02*
Y284827D01*
X293355Y73055D02*
Y247055D01*
X223132Y253055D02*
X287355D01*
X223132Y67055D02*
X287355D01*
X117837Y262504D02*
Y267194D01*
X170837Y262504D02*
Y267194D01*
X39375Y209645D02*
Y250055D01*
D14*
X174813Y65587D02*
X175413Y66787D01*
X174213D02*
X175413D01*
X174213D02*
X174813Y65587D01*
Y65187D02*
X175813Y67187D01*
X173813D02*
X175813D01*
X173813D02*
X174813Y65187D01*
X174813Y62083D02*
X175413Y63283D01*
X174213D02*
X175413D01*
X174213D02*
X174813Y62083D01*
Y61683D02*
X175813Y63683D01*
X173813D02*
X175813D01*
X173813D02*
X174813Y61683D01*
X168828Y156438D02*
X169128Y156138D01*
X168528Y156438D02*
X168828D01*
X168528D02*
X168828Y156738D01*
X168528Y157038D02*
X168828Y156738D01*
X168528Y157038D02*
X168828D01*
X169128Y157338D01*
X169428Y157038D01*
X169728D01*
X169428Y156738D02*
X169728Y157038D01*
X169428Y156738D02*
X169728Y156438D01*
X169428D02*
X169728D01*
X169128Y156138D02*
X169428Y156438D01*
X168628Y156238D02*
X169128Y155738D01*
X168128Y156238D02*
X168628D01*
X168128D02*
X168628Y156738D01*
X168128Y157238D02*
X168628Y156738D01*
X168128Y157238D02*
X168628D01*
X169128Y157738D01*
X169628Y157238D01*
X170128D01*
X169628Y156738D02*
X170128Y157238D01*
X169628Y156738D02*
X170128Y156238D01*
X169628D02*
X170128D01*
X169128Y155738D02*
X169628Y156238D01*
X168828Y153682D02*
X169128Y153382D01*
X168528Y153682D02*
X168828D01*
X168528D02*
X168828Y153982D01*
X168528Y154282D02*
X168828Y153982D01*
X168528Y154282D02*
X168828D01*
X169128Y154582D01*
X169428Y154282D01*
X169728D01*
X169428Y153982D02*
X169728Y154282D01*
X169428Y153982D02*
X169728Y153682D01*
X169428D02*
X169728D01*
X169128Y153382D02*
X169428Y153682D01*
X168628Y153482D02*
X169128Y152982D01*
X168128Y153482D02*
X168628D01*
X168128D02*
X168628Y153982D01*
X168128Y154482D02*
X168628Y153982D01*
X168128Y154482D02*
X168628D01*
X169128Y154982D01*
X169628Y154482D01*
X170128D01*
X169628Y153982D02*
X170128Y154482D01*
X169628Y153982D02*
X170128Y153482D01*
X169628D02*
X170128D01*
X169128Y152982D02*
X169628Y153482D01*
X168828Y151025D02*
X169128Y150725D01*
X168528Y151025D02*
X168828D01*
X168528D02*
X168828Y151325D01*
X168528Y151625D02*
X168828Y151325D01*
X168528Y151625D02*
X168828D01*
X169128Y151925D01*
X169428Y151625D01*
X169728D01*
X169428Y151325D02*
X169728Y151625D01*
X169428Y151325D02*
X169728Y151025D01*
X169428D02*
X169728D01*
X169128Y150725D02*
X169428Y151025D01*
X168628Y150825D02*
X169128Y150325D01*
X168128Y150825D02*
X168628D01*
X168128D02*
X168628Y151325D01*
X168128Y151825D02*
X168628Y151325D01*
X168128Y151825D02*
X168628D01*
X169128Y152325D01*
X169628Y151825D01*
X170128D01*
X169628Y151325D02*
X170128Y151825D01*
X169628Y151325D02*
X170128Y150825D01*
X169628D02*
X170128D01*
X169128Y150325D02*
X169628Y150825D01*
X171584Y151025D02*
X171884Y150725D01*
X171284Y151025D02*
X171584D01*
X171284D02*
X171584Y151325D01*
X171284Y151625D02*
X171584Y151325D01*
X171284Y151625D02*
X171584D01*
X171884Y151925D01*
X172184Y151625D01*
X172484D01*
X172184Y151325D02*
X172484Y151625D01*
X172184Y151325D02*
X172484Y151025D01*
X172184D02*
X172484D01*
X171884Y150725D02*
X172184Y151025D01*
X171384Y150825D02*
X171884Y150325D01*
X170884Y150825D02*
X171384D01*
X170884D02*
X171384Y151325D01*
X170884Y151825D02*
X171384Y151325D01*
X170884Y151825D02*
X171384D01*
X171884Y152325D01*
X172384Y151825D01*
X172884D01*
X172384Y151325D02*
X172884Y151825D01*
X172384Y151325D02*
X172884Y150825D01*
X172384D02*
X172884D01*
X171884Y150325D02*
X172384Y150825D01*
X171584Y156438D02*
X171884Y156138D01*
X171284Y156438D02*
X171584D01*
X171284D02*
X171584Y156738D01*
X171284Y157038D02*
X171584Y156738D01*
X171284Y157038D02*
X171584D01*
X171884Y157338D01*
X172184Y157038D01*
X172484D01*
X172184Y156738D02*
X172484Y157038D01*
X172184Y156738D02*
X172484Y156438D01*
X172184D02*
X172484D01*
X171884Y156138D02*
X172184Y156438D01*
X171384Y156238D02*
X171884Y155738D01*
X170884Y156238D02*
X171384D01*
X170884D02*
X171384Y156738D01*
X170884Y157238D02*
X171384Y156738D01*
X170884Y157238D02*
X171384D01*
X171884Y157738D01*
X172384Y157238D01*
X172884D01*
X172384Y156738D02*
X172884Y157238D01*
X172384Y156738D02*
X172884Y156238D01*
X172384D02*
X172884D01*
X171884Y155738D02*
X172384Y156238D01*
X84951Y195902D02*
X85551Y197102D01*
X84351D02*
X85551D01*
X84351D02*
X84951Y195902D01*
Y195502D02*
X85951Y197502D01*
X83951D02*
X85951D01*
X83951D02*
X84951Y195502D01*
X102668Y207516D02*
X103268Y208716D01*
X102068D02*
X103268D01*
X102068D02*
X102668Y207516D01*
Y207116D02*
X103668Y209116D01*
X101668D02*
X103668D01*
X101668D02*
X102668Y207116D01*
X95582Y208304D02*
X96182Y209504D01*
X94982D02*
X96182D01*
X94982D02*
X95582Y208304D01*
Y207904D02*
X96582Y209904D01*
X94582D02*
X96582D01*
X94582D02*
X95582Y207904D01*
X91645Y208304D02*
X92245Y209504D01*
X91045D02*
X92245D01*
X91045D02*
X91645Y208304D01*
Y207904D02*
X92645Y209904D01*
X90645D02*
X92645D01*
X90645D02*
X91645Y207904D01*
X109602Y220114D02*
X110203Y221314D01*
X109002D02*
X110203D01*
X109002D02*
X109602Y220114D01*
Y219714D02*
X110602Y221714D01*
X108602D02*
X110602D01*
X108602D02*
X109602Y219714D01*
X90660Y228382D02*
X91260Y229582D01*
X90060D02*
X91260D01*
X90060D02*
X90660Y228382D01*
Y227982D02*
X91660Y229982D01*
X89660D02*
X91660D01*
X89660D02*
X90660Y227982D01*
X88691Y228382D02*
X89291Y229582D01*
X88091D02*
X89291D01*
X88091D02*
X88691Y228382D01*
Y227982D02*
X89691Y229982D01*
X87691D02*
X89691D01*
X87691D02*
X88691Y227982D01*
X86723Y228382D02*
X87323Y229582D01*
X86123D02*
X87323D01*
X86123D02*
X86723Y228382D01*
Y227982D02*
X87723Y229982D01*
X85723D02*
X87723D01*
X85723D02*
X86723Y227982D01*
X92628Y228382D02*
X93228Y229582D01*
X92028D02*
X93228D01*
X92028D02*
X92628Y228382D01*
Y227982D02*
X93628Y229982D01*
X91628D02*
X93628D01*
X91628D02*
X92628Y227982D01*
X94613Y228382D02*
X95214Y229582D01*
X94014D02*
X95214D01*
X94014D02*
X94613Y228382D01*
Y227982D02*
X95613Y229982D01*
X93613D02*
X95613D01*
X93613D02*
X94613Y227982D01*
X94586Y224445D02*
X95186Y225645D01*
X93986D02*
X95186D01*
X93986D02*
X94586Y224445D01*
Y224045D02*
X95586Y226045D01*
X93586D02*
X95586D01*
X93586D02*
X94586Y224045D01*
X90660Y224445D02*
X91260Y225645D01*
X90060D02*
X91260D01*
X90060D02*
X90660Y224445D01*
Y224045D02*
X91660Y226045D01*
X89660D02*
X91660D01*
X89660D02*
X90660Y224045D01*
X86723Y224445D02*
X87323Y225645D01*
X86123D02*
X87323D01*
X86123D02*
X86723Y224445D01*
Y224045D02*
X87723Y226045D01*
X85723D02*
X87723D01*
X85723D02*
X86723Y224045D01*
Y232319D02*
X87323Y233519D01*
X86123D02*
X87323D01*
X86123D02*
X86723Y232319D01*
Y231919D02*
X87723Y233919D01*
X85723D02*
X87723D01*
X85723D02*
X86723Y231919D01*
X90660Y232319D02*
X91260Y233519D01*
X90060D02*
X91260D01*
X90060D02*
X90660Y232319D01*
Y231919D02*
X91660Y233919D01*
X89660D02*
X91660D01*
X89660D02*
X90660Y231919D01*
X94613Y232319D02*
X95214Y233519D01*
X94014D02*
X95214D01*
X94014D02*
X94613Y232319D01*
Y231919D02*
X95613Y233919D01*
X93613D02*
X95613D01*
X93613D02*
X94613Y231919D01*
X90660Y230351D02*
X91260Y231551D01*
X90060D02*
X91260D01*
X90060D02*
X90660Y230351D01*
Y229951D02*
X91660Y231951D01*
X89660D02*
X91660D01*
X89660D02*
X90660Y229951D01*
Y226414D02*
X91260Y227614D01*
X90060D02*
X91260D01*
X90060D02*
X90660Y226414D01*
Y226014D02*
X91660Y228014D01*
X89660D02*
X91660D01*
X89660D02*
X90660Y226014D01*
X85247Y245902D02*
X85847Y247102D01*
X84647D02*
X85847D01*
X84647D02*
X85247Y245902D01*
Y245502D02*
X86247Y247502D01*
X84247D02*
X86247D01*
X84247D02*
X85247Y245502D01*
X93120Y245902D02*
X93721Y247102D01*
X92520D02*
X93721D01*
X92520D02*
X93120Y245902D01*
Y245502D02*
X94121Y247502D01*
X92120D02*
X94121D01*
X92120D02*
X93120Y245502D01*
X97058Y245902D02*
X97658Y247102D01*
X96458D02*
X97658D01*
X96458D02*
X97058Y245902D01*
Y245502D02*
X98058Y247502D01*
X96058D02*
X98058D01*
X96058D02*
X97058Y245502D01*
X100995Y245902D02*
X101594Y247102D01*
X100394D02*
X101594D01*
X100394D02*
X100995Y245902D01*
Y245502D02*
X101995Y247502D01*
X99994D02*
X101995D01*
X99994D02*
X100995Y245502D01*
X124633Y240218D02*
X125233Y241418D01*
X124033D02*
X125233D01*
X124033D02*
X124633Y240218D01*
Y239818D02*
X125633Y241818D01*
X123633D02*
X125633D01*
X123633D02*
X124633Y239818D01*
X120581Y227988D02*
X121181Y229188D01*
X119981D02*
X121181D01*
X119981D02*
X120581Y227988D01*
Y227588D02*
X121581Y229588D01*
X119581D02*
X121581D01*
X119581D02*
X120581Y227588D01*
X115463Y224051D02*
X116063Y225251D01*
X114863D02*
X116063D01*
X114863D02*
X115463Y224051D01*
Y223651D02*
X116463Y225651D01*
X114463D02*
X116463D01*
X114463D02*
X115463Y223651D01*
X126263Y210272D02*
X126863Y211472D01*
X125663D02*
X126863D01*
X125663D02*
X126263Y210272D01*
Y209872D02*
X127263Y211872D01*
X125263D02*
X127263D01*
X125263D02*
X126263Y209872D01*
X122845Y186847D02*
X123445Y188047D01*
X122245D02*
X123445D01*
X122245D02*
X122845Y186847D01*
Y186447D02*
X123845Y188447D01*
X121845D02*
X123845D01*
X121845D02*
X122845Y186447D01*
X130719Y190932D02*
X131319Y192132D01*
X130119D02*
X131319D01*
X130119D02*
X130719Y190932D01*
Y190532D02*
X131719Y192532D01*
X129719D02*
X131719D01*
X129719D02*
X130719Y190532D01*
X109853Y190292D02*
X110453Y191492D01*
X109253D02*
X110453D01*
X109253D02*
X109853Y190292D01*
Y189892D02*
X110853Y191892D01*
X108853D02*
X110853D01*
X108853D02*
X109853Y189892D01*
X99912Y197673D02*
X100512Y198873D01*
X99312D02*
X100512D01*
X99312D02*
X99912Y197673D01*
Y197273D02*
X100912Y199273D01*
X98912D02*
X100912D01*
X98912D02*
X99912Y197273D01*
X104636Y207516D02*
X105236Y208716D01*
X104036D02*
X105236D01*
X104036D02*
X104636Y207516D01*
Y207116D02*
X105636Y209116D01*
X103636D02*
X105636D01*
X103636D02*
X104636Y207116D01*
Y138315D02*
X105236Y139515D01*
X104036D02*
X105236D01*
X104036D02*
X104636Y138315D01*
Y137915D02*
X105636Y139915D01*
X103636D02*
X105636D01*
X103636D02*
X104636Y137915D01*
X99912Y128472D02*
X100512Y129672D01*
X99312D02*
X100512D01*
X99312D02*
X99912Y128472D01*
Y128072D02*
X100912Y130072D01*
X98912D02*
X100912D01*
X98912D02*
X99912Y128072D01*
X115990Y138323D02*
X116590Y139523D01*
X115390D02*
X116590D01*
X115390D02*
X115990Y138323D01*
Y137923D02*
X116990Y139923D01*
X114990D02*
X116990D01*
X114990D02*
X115990Y137923D01*
X126263Y147862D02*
X126863Y149062D01*
X125663D02*
X126863D01*
X125663D02*
X126263Y147862D01*
Y147462D02*
X127263Y149462D01*
X125263D02*
X127263D01*
X125263D02*
X126263Y147462D01*
X115463Y161642D02*
X116063Y162842D01*
X114863D02*
X116063D01*
X114863D02*
X115463Y161642D01*
Y161242D02*
X116463Y163242D01*
X114463D02*
X116463D01*
X114463D02*
X115463Y161242D01*
X120581Y165579D02*
X121181Y166779D01*
X119981D02*
X121181D01*
X119981D02*
X120581Y165579D01*
Y165179D02*
X121581Y167179D01*
X119581D02*
X121581D01*
X119581D02*
X120581Y165179D01*
X124633Y177808D02*
X125233Y179008D01*
X124033D02*
X125233D01*
X124033D02*
X124633Y177808D01*
Y177408D02*
X125633Y179408D01*
X123633D02*
X125633D01*
X123633D02*
X124633Y177408D01*
X100995Y176701D02*
X101594Y177901D01*
X100394D02*
X101594D01*
X100394D02*
X100995Y176701D01*
Y176301D02*
X101995Y178301D01*
X99994D02*
X101995D01*
X99994D02*
X100995Y176301D01*
X97058Y176701D02*
X97658Y177901D01*
X96458D02*
X97658D01*
X96458D02*
X97058Y176701D01*
Y176301D02*
X98058Y178301D01*
X96058D02*
X98058D01*
X96058D02*
X97058Y176301D01*
X93120Y176701D02*
X93721Y177901D01*
X92520D02*
X93721D01*
X92520D02*
X93120Y176701D01*
Y176301D02*
X94121Y178301D01*
X92120D02*
X94121D01*
X92120D02*
X93120Y176301D01*
X85247Y176701D02*
X85847Y177901D01*
X84647D02*
X85847D01*
X84647D02*
X85247Y176701D01*
Y176301D02*
X86247Y178301D01*
X84247D02*
X86247D01*
X84247D02*
X85247Y176301D01*
X90660Y157213D02*
X91260Y158413D01*
X90060D02*
X91260D01*
X90060D02*
X90660Y157213D01*
Y156813D02*
X91660Y158813D01*
X89660D02*
X91660D01*
X89660D02*
X90660Y156813D01*
Y161150D02*
X91260Y162350D01*
X90060D02*
X91260D01*
X90060D02*
X90660Y161150D01*
Y160750D02*
X91660Y162750D01*
X89660D02*
X91660D01*
X89660D02*
X90660Y160750D01*
X94613Y163118D02*
X95214Y164318D01*
X94014D02*
X95214D01*
X94014D02*
X94613Y163118D01*
Y162718D02*
X95613Y164718D01*
X93613D02*
X95613D01*
X93613D02*
X94613Y162718D01*
X90660Y163118D02*
X91260Y164318D01*
X90060D02*
X91260D01*
X90060D02*
X90660Y163118D01*
Y162718D02*
X91660Y164718D01*
X89660D02*
X91660D01*
X89660D02*
X90660Y162718D01*
X86723Y163118D02*
X87323Y164318D01*
X86123D02*
X87323D01*
X86123D02*
X86723Y163118D01*
Y162718D02*
X87723Y164718D01*
X85723D02*
X87723D01*
X85723D02*
X86723Y162718D01*
Y155244D02*
X87323Y156444D01*
X86123D02*
X87323D01*
X86123D02*
X86723Y155244D01*
Y154844D02*
X87723Y156844D01*
X85723D02*
X87723D01*
X85723D02*
X86723Y154844D01*
X90660Y155244D02*
X91260Y156444D01*
X90060D02*
X91260D01*
X90060D02*
X90660Y155244D01*
Y154844D02*
X91660Y156844D01*
X89660D02*
X91660D01*
X89660D02*
X90660Y154844D01*
X94586Y155244D02*
X95186Y156444D01*
X93986D02*
X95186D01*
X93986D02*
X94586Y155244D01*
Y154844D02*
X95586Y156844D01*
X93586D02*
X95586D01*
X93586D02*
X94586Y154844D01*
X94613Y159181D02*
X95214Y160381D01*
X94014D02*
X95214D01*
X94014D02*
X94613Y159181D01*
Y158781D02*
X95613Y160781D01*
X93613D02*
X95613D01*
X93613D02*
X94613Y158781D01*
X92628Y159181D02*
X93228Y160381D01*
X92028D02*
X93228D01*
X92028D02*
X92628Y159181D01*
Y158781D02*
X93628Y160781D01*
X91628D02*
X93628D01*
X91628D02*
X92628Y158781D01*
X86723Y159181D02*
X87323Y160381D01*
X86123D02*
X87323D01*
X86123D02*
X86723Y159181D01*
Y158781D02*
X87723Y160781D01*
X85723D02*
X87723D01*
X85723D02*
X86723Y158781D01*
X88691Y159181D02*
X89291Y160381D01*
X88091D02*
X89291D01*
X88091D02*
X88691Y159181D01*
Y158781D02*
X89691Y160781D01*
X87691D02*
X89691D01*
X87691D02*
X88691Y158781D01*
X90660Y159181D02*
X91260Y160381D01*
X90060D02*
X91260D01*
X90060D02*
X90660Y159181D01*
Y158781D02*
X91660Y160781D01*
X89660D02*
X91660D01*
X89660D02*
X90660Y158781D01*
X109602Y157705D02*
X110203Y158905D01*
X109002D02*
X110203D01*
X109002D02*
X109602Y157705D01*
Y157305D02*
X110602Y159305D01*
X108602D02*
X110602D01*
X108602D02*
X109602Y157305D01*
X91645Y139104D02*
X92245Y140304D01*
X91045D02*
X92245D01*
X91045D02*
X91645Y139104D01*
Y138704D02*
X92645Y140704D01*
X90645D02*
X92645D01*
X90645D02*
X91645Y138704D01*
X95582Y139104D02*
X96182Y140304D01*
X94982D02*
X96182D01*
X94982D02*
X95582Y139104D01*
Y138704D02*
X96582Y140704D01*
X94582D02*
X96582D01*
X94582D02*
X95582Y138704D01*
X102668Y138315D02*
X103268Y139515D01*
X102068D02*
X103268D01*
X102068D02*
X102668Y138315D01*
Y137915D02*
X103668Y139915D01*
X101668D02*
X103668D01*
X101668D02*
X102668Y137915D01*
X84951Y126701D02*
X85551Y127901D01*
X84351D02*
X85551D01*
X84351D02*
X84951Y126701D01*
Y126301D02*
X85951Y128301D01*
X83951D02*
X85951D01*
X83951D02*
X84951Y126301D01*
X102766Y74347D02*
X103366Y75547D01*
X102166D02*
X103366D01*
X102166D02*
X102766Y74347D01*
Y73947D02*
X103766Y75947D01*
X101766D02*
X103766D01*
X101766D02*
X102766Y73947D01*
X95581Y72378D02*
X96181Y73578D01*
X94981D02*
X96181D01*
X94981D02*
X95581Y72378D01*
Y71978D02*
X96581Y73978D01*
X94581D02*
X96581D01*
X94581D02*
X95581Y71978D01*
X91644Y72378D02*
X92244Y73578D01*
X91044D02*
X92244D01*
X91044D02*
X91644Y72378D01*
Y71978D02*
X92644Y73978D01*
X90644D02*
X92644D01*
X90644D02*
X91644Y71978D01*
X115561Y90488D02*
X116161Y91689D01*
X114961D02*
X116161D01*
X114961D02*
X115561Y90488D01*
Y90088D02*
X116561Y92089D01*
X114561D02*
X116561D01*
X114561D02*
X115561Y90088D01*
X90660Y89882D02*
X91260Y91082D01*
X90060D02*
X91260D01*
X90060D02*
X90660Y89882D01*
Y89482D02*
X91660Y91482D01*
X89660D02*
X91660D01*
X89660D02*
X90660Y89482D01*
X88691Y89882D02*
X89291Y91082D01*
X88091D02*
X89291D01*
X88091D02*
X88691Y89882D01*
Y89482D02*
X89691Y91482D01*
X87691D02*
X89691D01*
X87691D02*
X88691Y89482D01*
X86723Y89882D02*
X87323Y91082D01*
X86123D02*
X87323D01*
X86123D02*
X86723Y89882D01*
Y89482D02*
X87723Y91482D01*
X85723D02*
X87723D01*
X85723D02*
X86723Y89482D01*
X92628Y89882D02*
X93228Y91082D01*
X92028D02*
X93228D01*
X92028D02*
X92628Y89882D01*
Y89482D02*
X93628Y91482D01*
X91628D02*
X93628D01*
X91628D02*
X92628Y89482D01*
X94613Y89882D02*
X95214Y91082D01*
X94014D02*
X95214D01*
X94014D02*
X94613Y89882D01*
Y89482D02*
X95613Y91482D01*
X93613D02*
X95613D01*
X93613D02*
X94613Y89482D01*
X94586Y85945D02*
X95186Y87145D01*
X93986D02*
X95186D01*
X93986D02*
X94586Y85945D01*
Y85545D02*
X95586Y87545D01*
X93586D02*
X95586D01*
X93586D02*
X94586Y85545D01*
X90660Y85945D02*
X91260Y87145D01*
X90060D02*
X91260D01*
X90060D02*
X90660Y85945D01*
Y85545D02*
X91660Y87545D01*
X89660D02*
X91660D01*
X89660D02*
X90660Y85545D01*
X86723Y85945D02*
X87323Y87145D01*
X86123D02*
X87323D01*
X86123D02*
X86723Y85945D01*
Y85545D02*
X87723Y87545D01*
X85723D02*
X87723D01*
X85723D02*
X86723Y85545D01*
Y93819D02*
X87323Y95019D01*
X86123D02*
X87323D01*
X86123D02*
X86723Y93819D01*
Y93419D02*
X87723Y95419D01*
X85723D02*
X87723D01*
X85723D02*
X86723Y93419D01*
X90660Y93819D02*
X91260Y95019D01*
X90060D02*
X91260D01*
X90060D02*
X90660Y93819D01*
Y93419D02*
X91660Y95419D01*
X89660D02*
X91660D01*
X89660D02*
X90660Y93419D01*
X94613Y93819D02*
X95214Y95019D01*
X94014D02*
X95214D01*
X94014D02*
X94613Y93819D01*
Y93419D02*
X95613Y95419D01*
X93613D02*
X95613D01*
X93613D02*
X94613Y93419D01*
X90660Y91851D02*
X91260Y93051D01*
X90060D02*
X91260D01*
X90060D02*
X90660Y91851D01*
Y91451D02*
X91660Y93451D01*
X89660D02*
X91660D01*
X89660D02*
X90660Y91451D01*
Y87914D02*
X91260Y89114D01*
X90060D02*
X91260D01*
X90060D02*
X90660Y87914D01*
Y87514D02*
X91660Y89514D01*
X89660D02*
X91660D01*
X89660D02*
X90660Y87514D01*
X85247Y107402D02*
X85847Y108602D01*
X84647D02*
X85847D01*
X84647D02*
X85247Y107402D01*
Y107002D02*
X86247Y109002D01*
X84247D02*
X86247D01*
X84247D02*
X85247Y107002D01*
X93120Y107402D02*
X93721Y108602D01*
X92520D02*
X93721D01*
X92520D02*
X93120Y107402D01*
Y107002D02*
X94121Y109002D01*
X92120D02*
X94121D01*
X92120D02*
X93120Y107002D01*
X97058Y107402D02*
X97658Y108602D01*
X96458D02*
X97658D01*
X96458D02*
X97058Y107402D01*
Y107002D02*
X98058Y109002D01*
X96058D02*
X98058D01*
X96058D02*
X97058Y107002D01*
X100995Y107402D02*
X101594Y108602D01*
X100394D02*
X101594D01*
X100394D02*
X100995Y107402D01*
Y107002D02*
X101995Y109002D01*
X99994D02*
X101995D01*
X99994D02*
X100995Y107002D01*
X125913Y107328D02*
X126513Y108528D01*
X125313D02*
X126513D01*
X125313D02*
X125913Y107328D01*
Y106928D02*
X126913Y108928D01*
X124913D02*
X126913D01*
X124913D02*
X125913Y106928D01*
X120679Y98839D02*
X121280Y100039D01*
X120080D02*
X121280D01*
X120080D02*
X120679Y98839D01*
Y98439D02*
X121679Y100439D01*
X119679D02*
X121679D01*
X119679D02*
X120679Y98439D01*
X115561Y94902D02*
X116161Y96102D01*
X114961D02*
X116161D01*
X114961D02*
X115561Y94902D01*
Y94502D02*
X116561Y96502D01*
X114561D02*
X116561D01*
X114561D02*
X115561Y94502D01*
X126263Y81221D02*
X126863Y82421D01*
X125663D02*
X126863D01*
X125663D02*
X126263Y81221D01*
Y80821D02*
X127263Y82821D01*
X125263D02*
X127263D01*
X125263D02*
X126263Y80821D01*
X129046Y60650D02*
X129646Y61850D01*
X128446D02*
X129646D01*
X128446D02*
X129046Y60650D01*
Y60250D02*
X130046Y62250D01*
X128046D02*
X130046D01*
X128046D02*
X129046Y60250D01*
X104735Y74347D02*
X105335Y75547D01*
X104135D02*
X105335D01*
X104135D02*
X104735Y74347D01*
Y73947D02*
X105735Y75947D01*
X103735D02*
X105735D01*
X103735D02*
X104735Y73947D01*
X125305Y70341D02*
X125906Y71541D01*
X124706D02*
X125906D01*
X124706D02*
X125305Y70341D01*
Y69941D02*
X126305Y71941D01*
X124305D02*
X126305D01*
X124305D02*
X125305Y69941D01*
X126880Y70341D02*
X127480Y71541D01*
X126280D02*
X127480D01*
X126280D02*
X126880Y70341D01*
Y69941D02*
X127880Y71941D01*
X125880D02*
X127880D01*
X125880D02*
X126880Y69941D01*
X128455Y70341D02*
X129055Y71541D01*
X127855D02*
X129055D01*
X127855D02*
X128455Y70341D01*
Y69941D02*
X129455Y71941D01*
X127455D02*
X129455D01*
X127455D02*
X128455Y69941D01*
X126880Y138610D02*
X127480Y139810D01*
X126280D02*
X127480D01*
X126280D02*
X126880Y138610D01*
Y138210D02*
X127880Y140210D01*
X125880D02*
X127880D01*
X125880D02*
X126880Y138210D01*
Y137035D02*
X127480Y138235D01*
X126280D02*
X127480D01*
X126280D02*
X126880Y137035D01*
Y136635D02*
X127880Y138635D01*
X125880D02*
X127880D01*
X125880D02*
X126880Y136635D01*
Y135460D02*
X127480Y136660D01*
X126280D02*
X127480D01*
X126280D02*
X126880Y135460D01*
Y135060D02*
X127880Y137060D01*
X125880D02*
X127880D01*
X125880D02*
X126880Y135060D01*
X124321Y199393D02*
X124921Y200593D01*
X123721D02*
X124921D01*
X123721D02*
X124321Y199393D01*
Y198993D02*
X125321Y200993D01*
X123321D02*
X125321D01*
X123321D02*
X124321Y198993D01*
X125896Y199393D02*
X126496Y200593D01*
X125296D02*
X126496D01*
X125296D02*
X125896Y199393D01*
Y198993D02*
X126896Y200993D01*
X124896D02*
X126896D01*
X124896D02*
X125896Y198993D01*
X127471Y199393D02*
X128071Y200593D01*
X126871D02*
X128071D01*
X126871D02*
X127471Y199393D01*
Y198993D02*
X128471Y200993D01*
X126471D02*
X128471D01*
X126471D02*
X127471Y198993D01*
X171584Y153682D02*
X171884Y153382D01*
X171284Y153682D02*
X171584D01*
X171284D02*
X171584Y153982D01*
X171284Y154282D02*
X171584Y153982D01*
X171284Y154282D02*
X171584D01*
X171884Y154582D01*
X172184Y154282D01*
X172484D01*
X172184Y153982D02*
X172484Y154282D01*
X172184Y153982D02*
X172484Y153682D01*
X172184D02*
X172484D01*
X171884Y153382D02*
X172184Y153682D01*
X171384Y153482D02*
X171884Y152982D01*
X170884Y153482D02*
X171384D01*
X170884D02*
X171384Y153982D01*
X170884Y154482D02*
X171384Y153982D01*
X170884Y154482D02*
X171384D01*
X171884Y154982D01*
X172384Y154482D01*
X172884D01*
X172384Y153982D02*
X172884Y154482D01*
X172384Y153982D02*
X172884Y153482D01*
X172384D02*
X172884D01*
X171884Y152982D02*
X172384Y153482D01*
X140463Y74150D02*
X141063Y75350D01*
X139863D02*
X141063D01*
X139863D02*
X140463Y74150D01*
Y73750D02*
X141463Y75750D01*
X139463D02*
X141463D01*
X139463D02*
X140463Y73750D01*
X146664Y58222D02*
X147264Y59422D01*
X146064D02*
X147264D01*
X146064D02*
X146664Y58222D01*
Y57822D02*
X147664Y59822D01*
X145664D02*
X147664D01*
X145664D02*
X146664Y57822D01*
X161920Y75036D02*
X162520Y76236D01*
X161320D02*
X162520D01*
X161320D02*
X161920Y75036D01*
Y74636D02*
X162920Y76636D01*
X160920D02*
X162920D01*
X160920D02*
X161920Y74636D01*
X149912Y155095D02*
X150512Y156295D01*
X149312D02*
X150512D01*
X149312D02*
X149912Y155095D01*
Y154695D02*
X150912Y156695D01*
X148912D02*
X150912D01*
X148912D02*
X149912Y154695D01*
X144301Y178382D02*
X144901Y179582D01*
X143701D02*
X144901D01*
X143701D02*
X144301Y178382D01*
Y177982D02*
X145301Y179982D01*
X143301D02*
X145301D01*
X143301D02*
X144301Y177982D01*
X146762Y195902D02*
X147362Y197102D01*
X146162D02*
X147362D01*
X146162D02*
X146762Y195902D01*
Y195502D02*
X147762Y197502D01*
X145762D02*
X147762D01*
X145762D02*
X146762Y195502D01*
X149321Y225134D02*
X149921Y226334D01*
X148721D02*
X149921D01*
X148721D02*
X149321Y225134D01*
Y224734D02*
X150321Y226734D01*
X148321D02*
X150321D01*
X148321D02*
X149321Y224734D01*
X153553Y221788D02*
X154154Y222988D01*
X152954D02*
X154154D01*
X152954D02*
X153553Y221788D01*
Y221388D02*
X154553Y223388D01*
X152553D02*
X154553D01*
X152553D02*
X153553Y221388D01*
X166841Y230154D02*
X167441Y231354D01*
X166241D02*
X167441D01*
X166241D02*
X166841Y230154D01*
Y229754D02*
X167841Y231754D01*
X165841D02*
X167841D01*
X165841D02*
X166841Y229754D01*
X155561Y126932D02*
X156161Y128132D01*
X154961D02*
X156161D01*
X154961D02*
X155561Y126932D01*
Y126532D02*
X156561Y128532D01*
X154561D02*
X156561D01*
X154561D02*
X155561Y126532D01*
X153061Y90800D02*
X153661Y92000D01*
X152461D02*
X153661D01*
X152461D02*
X153061Y90800D01*
Y90400D02*
X154061Y92400D01*
X152061D02*
X154061D01*
X152061D02*
X153061Y90400D01*
X174813Y63914D02*
X175413Y65114D01*
X174213D02*
X175413D01*
X174213D02*
X174813Y63914D01*
Y63514D02*
X175813Y65514D01*
X173813D02*
X175813D01*
X173813D02*
X174813Y63514D01*
X181900Y75331D02*
X182500Y76531D01*
X181300D02*
X182500D01*
X181300D02*
X181900Y75331D01*
Y74931D02*
X182900Y76931D01*
X180900D02*
X182900D01*
X180900D02*
X181900Y74931D01*
X172746Y75232D02*
X173346Y76433D01*
X172146D02*
X173346D01*
X172146D02*
X172746Y75232D01*
Y74832D02*
X173746Y76832D01*
X171746D02*
X173746D01*
X171746D02*
X172746Y74832D01*
X193924Y75331D02*
X194524Y76531D01*
X193324D02*
X194524D01*
X193324D02*
X193924Y75331D01*
Y74931D02*
X194924Y76931D01*
X192924D02*
X194924D01*
X192924D02*
X193924Y74931D01*
X206309Y75232D02*
X206909Y76433D01*
X205709D02*
X206909D01*
X205709D02*
X206309Y75232D01*
Y74832D02*
X207309Y76832D01*
X205309D02*
X207309D01*
X205309D02*
X206309Y74832D01*
X181998Y106532D02*
X182598Y107732D01*
X181398D02*
X182598D01*
X181398D02*
X181998Y106532D01*
Y106132D02*
X182998Y108132D01*
X180998D02*
X182998D01*
X180998D02*
X181998Y106132D01*
X190857Y100725D02*
X191457Y101925D01*
X190257D02*
X191457D01*
X190257D02*
X190857Y100725D01*
Y100325D02*
X191857Y102325D01*
X189857D02*
X191857D01*
X189857D02*
X190857Y100325D01*
X155621Y140390D02*
X156220Y141590D01*
X155020D02*
X156220D01*
X155020D02*
X155621Y140390D01*
Y139990D02*
X156621Y141990D01*
X154621D02*
X156621D01*
X154621D02*
X155621Y139990D01*
X194211Y136748D02*
X194811Y137948D01*
X193611D02*
X194811D01*
X193611D02*
X194211Y136748D01*
Y136348D02*
X195211Y138348D01*
X193211D02*
X195211D01*
X193211D02*
X194211Y136348D01*
X190471Y155351D02*
X191071Y156551D01*
X189871D02*
X191071D01*
X189871D02*
X190471Y155351D01*
Y154951D02*
X191471Y156951D01*
X189471D02*
X191471D01*
X189471D02*
X190471Y154951D01*
X145581Y214701D02*
X146181Y215901D01*
X144981D02*
X146181D01*
X144981D02*
X145581Y214701D01*
Y214301D02*
X146581Y216301D01*
X144581D02*
X146581D01*
X144581D02*
X145581Y214301D01*
X184164Y241473D02*
X184764Y242673D01*
X183564D02*
X184764D01*
X183564D02*
X184164Y241473D01*
Y241073D02*
X185164Y243073D01*
X183164D02*
X185164D01*
X183164D02*
X184164Y241073D01*
D15*
X410566Y165756D02*
X1201344D01*
X410566Y135756D02*
X1201344D01*
X410566Y120756D02*
X1201344D01*
Y180756D01*
X410566D02*
X1201344D01*
X410566Y120756D02*
Y180756D01*
X1137859Y120756D02*
Y180756D01*
X1004498Y120756D02*
Y180756D01*
X871137Y120756D02*
Y180756D01*
X691192Y120756D02*
Y180756D01*
X640604Y120756D02*
Y180756D01*
X524638Y120756D02*
Y180756D01*
X465654Y120756D02*
Y180756D01*
D16*
X1142359Y177454D02*
Y172655D01*
X1144758Y170256D01*
X1147157Y172655D01*
Y177454D01*
X1149557Y170256D02*
X1151956D01*
X1150756D01*
Y175054D01*
X1149557D01*
X1156754D02*
X1159153D01*
X1160353Y173855D01*
Y170256D01*
X1156754D01*
X1155555Y171456D01*
X1156754Y172655D01*
X1160353D01*
X1162752Y170256D02*
X1167551Y175054D01*
X1169950Y170256D02*
Y177454D01*
X1173549D01*
X1174748Y176254D01*
Y173855D01*
X1173549Y172655D01*
X1169950D01*
X1178347Y175054D02*
X1180746D01*
X1181946Y173855D01*
Y170256D01*
X1178347D01*
X1177148Y171456D01*
X1178347Y172655D01*
X1181946D01*
X1189144Y177454D02*
Y170256D01*
X1185545D01*
X1184345Y171456D01*
Y173855D01*
X1185545Y175054D01*
X1189144D01*
X1008998Y177454D02*
Y170256D01*
Y173855D01*
X1013797D01*
Y177454D01*
Y170256D01*
X1017395D02*
X1019795D01*
X1020994Y171456D01*
Y173855D01*
X1019795Y175054D01*
X1017395D01*
X1016196Y173855D01*
Y171456D01*
X1017395Y170256D01*
X1023393D02*
X1025793D01*
X1024593D01*
Y177454D01*
X1023393D01*
X1032990Y170256D02*
X1030591D01*
X1029391Y171456D01*
Y173855D01*
X1030591Y175054D01*
X1032990D01*
X1034190Y173855D01*
Y172655D01*
X1029391D01*
X1043787Y177454D02*
X1048585D01*
X1046186D01*
Y170256D01*
X1052184D02*
X1054583D01*
X1055783Y171456D01*
Y173855D01*
X1054583Y175054D01*
X1052184D01*
X1050984Y173855D01*
Y171456D01*
X1052184Y170256D01*
X1058182D02*
X1060581D01*
X1059382D01*
Y177454D01*
X1058182D01*
X1067779Y170256D02*
X1065380D01*
X1064180Y171456D01*
Y173855D01*
X1065380Y175054D01*
X1067779D01*
X1068979Y173855D01*
Y172655D01*
X1064180D01*
X1071378Y175054D02*
Y170256D01*
Y172655D01*
X1072577Y173855D01*
X1073777Y175054D01*
X1074977D01*
X1079775D02*
X1082174D01*
X1083374Y173855D01*
Y170256D01*
X1079775D01*
X1078576Y171456D01*
X1079775Y172655D01*
X1083374D01*
X1085773Y170256D02*
Y175054D01*
X1089372D01*
X1090572Y173855D01*
Y170256D01*
X1097769Y175054D02*
X1094170D01*
X1092971Y173855D01*
Y171456D01*
X1094170Y170256D01*
X1097769D01*
X1103767D02*
X1101368D01*
X1100169Y171456D01*
Y173855D01*
X1101368Y175054D01*
X1103767D01*
X1104967Y173855D01*
Y172655D01*
X1100169D01*
X1116963Y170256D02*
X1114564Y172655D01*
Y175054D01*
X1116963Y177454D01*
X1120562Y173855D02*
X1125360D01*
X1127760Y170256D02*
X1130159Y172655D01*
Y175054D01*
X1127760Y177454D01*
X875637D02*
Y170256D01*
Y173855D01*
X880436D01*
Y177454D01*
Y170256D01*
X884035D02*
X886434D01*
X887633Y171456D01*
Y173855D01*
X886434Y175054D01*
X884035D01*
X882835Y173855D01*
Y171456D01*
X884035Y170256D01*
X890033D02*
X892432D01*
X891232D01*
Y177454D01*
X890033D01*
X899629Y170256D02*
X897230D01*
X896031Y171456D01*
Y173855D01*
X897230Y175054D01*
X899629D01*
X900829Y173855D01*
Y172655D01*
X896031D01*
X910426Y177454D02*
X915224D01*
X912825D01*
Y170256D01*
X918823D02*
X921222D01*
X922422Y171456D01*
Y173855D01*
X921222Y175054D01*
X918823D01*
X917624Y173855D01*
Y171456D01*
X918823Y170256D01*
X924821D02*
X927221D01*
X926021D01*
Y177454D01*
X924821D01*
X934418Y170256D02*
X932019D01*
X930819Y171456D01*
Y173855D01*
X932019Y175054D01*
X934418D01*
X935618Y173855D01*
Y172655D01*
X930819D01*
X938017Y175054D02*
Y170256D01*
Y172655D01*
X939217Y173855D01*
X940416Y175054D01*
X941616D01*
X946414D02*
X948814D01*
X950013Y173855D01*
Y170256D01*
X946414D01*
X945215Y171456D01*
X946414Y172655D01*
X950013D01*
X952412Y170256D02*
Y175054D01*
X956011D01*
X957211Y173855D01*
Y170256D01*
X964409Y175054D02*
X960810D01*
X959610Y173855D01*
Y171456D01*
X960810Y170256D01*
X964409D01*
X970407D02*
X968007D01*
X966808Y171456D01*
Y173855D01*
X968007Y175054D01*
X970407D01*
X971606Y173855D01*
Y172655D01*
X966808D01*
X983602Y170256D02*
X981203Y172655D01*
Y175054D01*
X983602Y177454D01*
X987201Y173855D02*
X992000D01*
X989600Y176254D02*
Y171456D01*
X994399Y170256D02*
X996798Y172655D01*
Y175054D01*
X994399Y177454D01*
X695692D02*
Y170256D01*
X699291D01*
X700490Y171456D01*
Y176254D01*
X699291Y177454D01*
X695692D01*
X702890Y175054D02*
Y170256D01*
Y172655D01*
X704089Y173855D01*
X705289Y175054D01*
X706489D01*
X710087Y170256D02*
X712487D01*
X711287D01*
Y175054D01*
X710087D01*
X716085Y170256D02*
X718485D01*
X717285D01*
Y177454D01*
X716085D01*
X722083Y170256D02*
X724483D01*
X723283D01*
Y177454D01*
X722083D01*
X735279D02*
Y170256D01*
X740078D01*
X743676Y175054D02*
X746076D01*
X747275Y173855D01*
Y170256D01*
X743676D01*
X742477Y171456D01*
X743676Y172655D01*
X747275D01*
X749675Y175054D02*
Y171456D01*
X750874Y170256D01*
X754473D01*
Y169056D01*
X753273Y167857D01*
X752074D01*
X754473Y170256D02*
Y175054D01*
X760471Y170256D02*
X758072D01*
X756872Y171456D01*
Y173855D01*
X758072Y175054D01*
X760471D01*
X761671Y173855D01*
Y172655D01*
X756872D01*
X764070Y175054D02*
Y170256D01*
Y172655D01*
X765269Y173855D01*
X766469Y175054D01*
X767669D01*
X778465Y170256D02*
Y177454D01*
X782064D01*
X783264Y176254D01*
Y173855D01*
X782064Y172655D01*
X778465D01*
X786862Y175054D02*
X789262D01*
X790461Y173855D01*
Y170256D01*
X786862D01*
X785663Y171456D01*
X786862Y172655D01*
X790461D01*
X792861Y170256D02*
X795260D01*
X794060D01*
Y175054D01*
X792861D01*
X798859D02*
Y170256D01*
Y172655D01*
X800058Y173855D01*
X801258Y175054D01*
X802457D01*
X645104Y170256D02*
Y177454D01*
X648703D01*
X649903Y176254D01*
Y173855D01*
X648703Y172655D01*
X645104D01*
X652302Y170256D02*
X654701D01*
X653502D01*
Y177454D01*
X652302D01*
X659500Y175054D02*
X661899D01*
X663098Y173855D01*
Y170256D01*
X659500D01*
X658300Y171456D01*
X659500Y172655D01*
X663098D01*
X666697Y176254D02*
Y175054D01*
X665498D01*
X667897D01*
X666697D01*
Y171456D01*
X667897Y170256D01*
X675095D02*
X672695D01*
X671496Y171456D01*
Y173855D01*
X672695Y175054D01*
X675095D01*
X676294Y173855D01*
Y172655D01*
X671496D01*
X683492Y177454D02*
Y170256D01*
X679893D01*
X678693Y171456D01*
Y173855D01*
X679893Y175054D01*
X683492D01*
X529138Y177454D02*
Y170256D01*
Y173855D01*
X533937D01*
Y177454D01*
Y170256D01*
X537536D02*
X539935D01*
X541135Y171456D01*
Y173855D01*
X539935Y175054D01*
X537536D01*
X536336Y173855D01*
Y171456D01*
X537536Y170256D01*
X543534D02*
X545933D01*
X544733D01*
Y177454D01*
X543534D01*
X553131Y170256D02*
X550731D01*
X549532Y171456D01*
Y173855D01*
X550731Y175054D01*
X553131D01*
X554330Y173855D01*
Y172655D01*
X549532D01*
X568725Y176254D02*
X567526Y177454D01*
X565127D01*
X563927Y176254D01*
Y175054D01*
X565127Y173855D01*
X567526D01*
X568725Y172655D01*
Y171456D01*
X567526Y170256D01*
X565127D01*
X563927Y171456D01*
X571125Y170256D02*
X573524D01*
X572324D01*
Y175054D01*
X571125D01*
X577123D02*
X581921D01*
X577123Y170256D01*
X581921D01*
X587919D02*
X585520D01*
X584320Y171456D01*
Y173855D01*
X585520Y175054D01*
X587919D01*
X589119Y173855D01*
Y172655D01*
X584320D01*
X474952Y176254D02*
X473753Y177454D01*
X471353D01*
X470154Y176254D01*
Y171456D01*
X471353Y170256D01*
X473753D01*
X474952Y171456D01*
X478551Y170256D02*
X480950D01*
X482150Y171456D01*
Y173855D01*
X480950Y175054D01*
X478551D01*
X477352Y173855D01*
Y171456D01*
X478551Y170256D01*
X484549Y175054D02*
Y171456D01*
X485749Y170256D01*
X489348D01*
Y175054D01*
X491747Y170256D02*
Y175054D01*
X495346D01*
X496545Y173855D01*
Y170256D01*
X500144Y176254D02*
Y175054D01*
X498945D01*
X501344D01*
X500144D01*
Y171456D01*
X501344Y170256D01*
X424365Y176254D02*
X423165Y177454D01*
X420766D01*
X419566Y176254D01*
Y175054D01*
X420766Y173855D01*
X423165D01*
X424365Y172655D01*
Y171456D01*
X423165Y170256D01*
X420766D01*
X419566Y171456D01*
X426764Y175054D02*
Y171456D01*
X427964Y170256D01*
X431562D01*
Y169056D01*
X430363Y167857D01*
X429163D01*
X431562Y170256D02*
Y175054D01*
X433962Y170256D02*
Y175054D01*
X435161D01*
X436361Y173855D01*
Y170256D01*
Y173855D01*
X437561Y175054D01*
X438760Y173855D01*
Y170256D01*
X441159Y177454D02*
Y170256D01*
X444758D01*
X445958Y171456D01*
Y172655D01*
Y173855D01*
X444758Y175054D01*
X441159D01*
X449557Y170256D02*
X451956D01*
X453155Y171456D01*
Y173855D01*
X451956Y175054D01*
X449557D01*
X448357Y173855D01*
Y171456D01*
X449557Y170256D01*
X455555D02*
X457954D01*
X456754D01*
Y177454D01*
X455555D01*
M02*
