M48
;Layer_Color=9474304
;FILE_FORMAT=2:5
INCH,LZ
;TYPE=PLATED
T1F00S00C0.00394
T2F00S00C0.00787
%
T01
X0091644Y0072978
X0095581
X0102766Y0074947
X0104735
X0094586Y0086545
X009066
Y0088514
Y0090482
Y0092451
X009066Y0094419
X0086723
Y0090482
X0088691
X0092628
X0094613
Y0094419
X009312Y0108002
X0097058Y0108002
X0100995Y0108002
X0085247Y0108002
X0084951Y0127301
X0099912Y0129072
X0125913Y0107928
X0120679Y0099439
X0115561Y0095502
Y0091088
X0126263Y0081821
X012688Y0070941
X0128455
X0125305
X0129046Y006125
X0086723Y0086545
X0140463Y007475
X0146664Y0058822
X0174813Y0062683
Y0064514
X0174813Y0066187
X0172746Y0075832
X01819Y0075931
X0193924
X0206309Y0075832
X0190857Y0101325
X0181998Y0107132
X0153061Y00914
X016192Y0075636
X0155561Y0127532
X0155621Y014099
X0149912Y0155695
X0144301Y0178982
X0146762Y0196502
X0145581Y0215301
X0149321Y0225734
X0153553Y0222388
X0166841Y0230754
X0184164Y0242073
X0190471Y0155951
X0194211Y0137348
X012688Y0137635
Y013921
Y013606
X0126263Y0148462
X011599Y0138923
X0104636Y0138915
X0102668
X0095582Y0139704
X0091645
X009066Y0155844
Y0157813
Y0159781
X0088691
X0086723
Y0155844
X0094586
X0094613Y0159781
X0092628
X009066Y016175
X009066Y0163718
X0086723
X0094613
X009312Y0177301
X0097058Y0177301
X0100995Y0177301
X0085247Y0177301
X0084951Y0196502
X0099912Y0198273
X0102668Y0208116
X0104636
X0095582Y0208904
X0091645
X009066Y0225045
Y0227014
Y0228982
Y0230951
X009066Y0232919
X0086723
Y0228982
X0088691
X0092628
X0094613
Y0232919
X0094586Y0225045
X0086723
X0085247Y0246502
X009312Y0246502
X0097058Y0246502
X0100995Y0246502
X0124633Y0240818
X0120581Y0228588
X0115463Y0224651
X0109602Y0220714
X0126263Y0210872
X0125896Y0199993
X0127471
X0124321
X0122845Y0187447
X0124633Y0178408
X0120581Y0166179
X0115463Y0162242
X0109602Y0158305
X0109853Y0190892
X0130719Y0191532
T02
X0169128Y0151325
Y0153982
X0171884
Y0151325
Y0156738
X0169128
M30
