G04*
G04 #@! TF.GenerationSoftware,Altium Limited,Altium Designer,18.1.9 (240)*
G04*
G04 Layer_Color=128*
%FSLAX25Y25*%
%MOIN*%
G70*
G01*
G75*
%ADD10C,0.00118*%
%ADD11C,0.00504*%
%ADD12C,0.01000*%
%ADD13C,0.00158*%
%ADD14C,0.00200*%
D10*
X322854Y39026D02*
G03*
X322854Y39026I-7894J0D01*
G01*
X23642D02*
G03*
X23642Y39026I-7894J0D01*
G01*
Y330365D02*
G03*
X23642Y330365I-7894J0D01*
G01*
X69337Y332640D02*
G03*
X59337Y322640I0J-10000D01*
G01*
X130544Y332640D02*
G03*
X130544Y340514I0J3937D01*
G01*
X158130D02*
G03*
X158130Y332640I0J-3937D01*
G01*
X31501Y243643D02*
G03*
X39375Y243643I3937J0D01*
G01*
Y216057D02*
G03*
X31501Y216057I-3937J0D01*
G01*
X39375Y146837D02*
G03*
X31501Y146837I-3937J0D01*
G01*
Y174423D02*
G03*
X39375Y174423I3937J0D01*
G01*
Y77617D02*
G03*
X31501Y77617I-3937J0D01*
G01*
Y105203D02*
G03*
X39375Y105203I3937J0D01*
G01*
X301229Y189965D02*
G03*
X293355Y189965I-3937J0D01*
G01*
Y217550D02*
G03*
X301229Y217550I3937J0D01*
G01*
Y102560D02*
G03*
X293355Y102560I-3937J0D01*
G01*
Y130145D02*
G03*
X301229Y130145I3937J0D01*
G01*
X176885Y39059D02*
G03*
X176885Y31185I0J-3937D01*
G01*
X149299D02*
G03*
X149299Y39059I0J3937D01*
G01*
X322859Y330398D02*
G03*
X322859Y330398I-7894J0D01*
G01*
X23646D02*
G03*
X23646Y330398I-7894J0D01*
G01*
X293355Y247055D02*
G03*
X287355Y253055I-6000J0D01*
G01*
Y67055D02*
G03*
X293355Y73055I0J6000D01*
G01*
X215337Y67055D02*
G03*
X215093Y67045I0J-3000D01*
G01*
X42375Y253055D02*
G03*
X39375Y250055I0J-3000D01*
G01*
Y209645D02*
G03*
X42375Y206645I3000J0D01*
G01*
X59337Y298140D02*
G03*
X69337Y288140I10000J0D01*
G01*
X111837D02*
G03*
X114837Y291140I0J3000D01*
G01*
X173837Y296140D02*
G03*
X170837Y296140I-1500J0D01*
G01*
X173837Y291140D02*
G03*
X176837Y288140I3000J-0D01*
G01*
X229337Y322640D02*
G03*
X219337Y332640I-10000J0D01*
G01*
X117837Y296140D02*
G03*
X114837Y296140I-1500J0D01*
G01*
X69337Y332640D02*
G03*
X59337Y322640I0J-10000D01*
G01*
X219337Y288140D02*
G03*
X229337Y298140I-0J10000D01*
G01*
X98337Y46055D02*
G03*
X92337Y46055I-3000J0D01*
G01*
X86799Y39362D02*
G03*
X92337Y43055I1539J3692D01*
G01*
X68694Y62439D02*
G03*
X86799Y39362I29643J4615D01*
G01*
X72646Y67055D02*
G03*
X68694Y62439I0J-4000D01*
G01*
X78337Y67055D02*
G03*
X81328Y69825I0J3000D01*
G01*
D02*
G03*
X78337Y72595I-2991J-230D01*
G01*
X170837Y249118D02*
G03*
X173837Y249118I1500J0D01*
G01*
X214932Y67027D02*
G03*
X214921Y61084I405J-2973D01*
G01*
X81337Y134425D02*
G03*
X78337Y137425I-3000J0D01*
G01*
Y183835D02*
G03*
X81337Y186835I0J3000D01*
G01*
X78337Y114615D02*
G03*
X81337Y117615I0J3000D01*
G01*
Y203645D02*
G03*
X78337Y206645I-3000J0D01*
G01*
X200347Y39059D02*
G03*
X201887Y39367I0J4000D01*
G01*
X121837Y43059D02*
G03*
X125837Y39059I4000J0D01*
G01*
X218062Y55595D02*
G03*
X214921Y61084I-3697J1528D01*
G01*
X201887Y39367D02*
G03*
X218062Y55595I-11550J27688D01*
G01*
X121837Y46055D02*
G03*
X115837Y46055I-3000J0D01*
G01*
X114837Y249118D02*
G03*
X117837Y249118I1500J0D01*
G01*
X66809Y72595D02*
G03*
X64854Y70855I0J-1969D01*
G01*
X61875Y68205D02*
G03*
X64854Y70855I0J3000D01*
G01*
X39375Y71205D02*
G03*
X42375Y68205I3000J0D01*
G01*
Y114615D02*
G03*
X39375Y111615I0J-3000D01*
G01*
X42375Y183835D02*
G03*
X39375Y180835I0J-3000D01*
G01*
Y140425D02*
G03*
X42375Y137425I3000J0D01*
G01*
X51463Y298140D02*
G03*
X69337Y280266I17874J0D01*
G01*
Y340514D02*
G03*
X51463Y322640I0J-17874D01*
G01*
X237211D02*
G03*
X219337Y340514I-17874J0D01*
G01*
Y280266D02*
G03*
X237211Y298140I-0J17874D01*
G01*
X42375Y260929D02*
G03*
X31501Y250055I0J-10874D01*
G01*
Y209645D02*
G03*
X42375Y198771I10874J0D01*
G01*
Y191709D02*
G03*
X31501Y180835I0J-10874D01*
G01*
Y140425D02*
G03*
X42375Y129551I10874J0D01*
G01*
Y122489D02*
G03*
X31501Y111615I0J-10874D01*
G01*
Y71205D02*
G03*
X42375Y60331I10874J0D01*
G01*
X61065D02*
G03*
X83770Y32094I37272J6724D01*
G01*
X83770Y32094D02*
G03*
X88650Y31185I4567J10961D01*
G01*
X202494Y31185D02*
G03*
X227384Y59181I-12157J35870D01*
G01*
X287355D02*
G03*
X301229Y73055I0J13874D01*
G01*
Y247055D02*
G03*
X287355Y260929I-13874J0D01*
G01*
X59337Y322640D02*
X59337D01*
X238236Y67055D02*
X287355D01*
X238236Y253055D02*
X287355D01*
X293355Y73055D02*
Y102570D01*
X215337Y67055D02*
X223132D01*
X215093Y253055D02*
X223132D01*
X78214Y72595D02*
X78227D01*
X78214Y114615D02*
X78227D01*
X78214Y137425D02*
X78227D01*
X78214Y183835D02*
X78227D01*
X78214Y206645D02*
X78227D01*
X78214Y253055D02*
X114837D01*
X117837Y251874D02*
Y252679D01*
X170837Y251874D02*
Y252679D01*
X173837Y253055D02*
X215093D01*
X214932Y67027D02*
X215093Y67045D01*
X70871Y114615D02*
X72649D01*
X70871Y72595D02*
X72649D01*
X170837Y292867D02*
Y292873D01*
X117837Y292867D02*
Y292873D01*
X170837Y284827D02*
Y292867D01*
X117837Y284827D02*
Y292867D01*
X72649Y72595D02*
X78214D01*
X72649Y114615D02*
X78214D01*
X70871Y137425D02*
X72649D01*
X70871Y183835D02*
X72649D01*
X70871Y253055D02*
X72649D01*
X70871Y206645D02*
X72649D01*
Y137425D02*
X78214D01*
X72649Y183835D02*
X78214D01*
X170837Y257368D02*
Y262504D01*
X117837Y257368D02*
Y262504D01*
X233133Y67055D02*
X238236D01*
X223132Y253055D02*
X238236D01*
X72649Y206645D02*
X78214D01*
X72649Y253055D02*
X78214D01*
X117837Y252679D02*
Y257368D01*
X170837Y252679D02*
Y257368D01*
Y267194D02*
Y284827D01*
X117837Y267194D02*
Y284827D01*
Y262504D02*
Y267194D01*
X170837Y262504D02*
Y267194D01*
X42375Y253055D02*
X70871D01*
X42375Y206645D02*
X70871D01*
X223132Y67055D02*
X233133D01*
X173837Y291140D02*
Y296140D01*
X170837Y292873D02*
Y296140D01*
X69337Y288140D02*
X111837D01*
X59337Y298140D02*
Y322640D01*
X114837Y291140D02*
Y296140D01*
X117837Y292873D02*
Y296140D01*
X69337Y332641D02*
X130553D01*
X229337Y298140D02*
Y322640D01*
X176837Y288140D02*
X219337D01*
X92337Y43055D02*
Y46055D01*
X72646Y67055D02*
X78337D01*
X78227Y72595D02*
X78337D01*
X78227Y114615D02*
X78337D01*
X170837Y249118D02*
Y251874D01*
X173837Y249118D02*
Y253055D01*
X115837Y44413D02*
Y46055D01*
X98337Y44413D02*
X115837D01*
X98337D02*
Y46055D01*
X78227Y206645D02*
X78337D01*
X78227Y253055D02*
X114837Y253055D01*
X81337Y117615D02*
Y134425D01*
X78227Y137425D02*
X78337D01*
X78227Y183835D02*
X78337D01*
X125837Y39059D02*
X149312D01*
X114837Y249118D02*
Y253055D01*
X81337Y186835D02*
Y203645D01*
X117837Y249118D02*
Y251874D01*
X121837Y43059D02*
Y46055D01*
X42375Y114615D02*
X70871D01*
X66809Y72595D02*
X70871D01*
X42375Y68205D02*
X61875D01*
X39375Y71205D02*
Y77617D01*
X42375Y183835D02*
X70871D01*
X42375Y137425D02*
X70871D01*
X39375Y140425D02*
Y146837D01*
X69337Y280266D02*
X109963D01*
X51463Y298140D02*
Y322640D01*
X69337Y340514D02*
X130544D01*
X237211Y298140D02*
Y322640D01*
X178711Y280266D02*
X219337D01*
X109963Y260929D02*
Y280266D01*
X178711Y260929D02*
Y280266D01*
X42375Y260929D02*
X109963D01*
X31501Y209645D02*
Y216064D01*
X42375Y198771D02*
X73463D01*
Y191709D02*
Y198771D01*
X42375Y191709D02*
X73463D01*
X31501Y140425D02*
Y146844D01*
X42375Y129551D02*
X73463D01*
Y122489D02*
Y129551D01*
X42375Y122489D02*
X73463D01*
X31501Y71205D02*
Y77624D01*
X42375Y60331D02*
X61065D01*
X88024Y31185D02*
X149299D01*
X227384Y59181D02*
X287355D01*
X301229Y73055D02*
Y102560D01*
X178711Y260929D02*
X287355D01*
X117837Y262504D02*
Y267194D01*
X293355Y217540D02*
Y247055D01*
Y130135D02*
Y189975D01*
X176872Y39059D02*
X200347D01*
X31501Y105196D02*
Y111615D01*
Y174416D02*
Y180835D01*
Y243636D02*
Y250055D01*
X158121Y332641D02*
X219337D01*
X39375Y174423D02*
Y180835D01*
Y243643D02*
Y250055D01*
Y105203D02*
Y111615D01*
X176885Y31185D02*
X202494D01*
X158130Y340514D02*
X219337D01*
X301229Y217550D02*
Y247055D01*
Y130145D02*
Y189965D01*
X39375Y209645D02*
Y216057D01*
D11*
X0Y-312D02*
X330709D01*
X0Y-311D02*
Y369768D01*
D12*
Y369767D02*
X330709D01*
Y-311D02*
Y369767D01*
D13*
X215337Y67055D02*
G03*
X215093Y67045I0J-3000D01*
G01*
X218062Y55595D02*
G03*
X214921Y61084I-3697J1528D01*
G01*
X201887Y39367D02*
G03*
X218062Y55595I-11550J27688D01*
G01*
X200347Y39059D02*
G03*
X201887Y39367I0J4000D01*
G01*
X121837Y43059D02*
G03*
X125837Y39059I4000J0D01*
G01*
X121837Y46055D02*
G03*
X115837Y46055I-3000J0D01*
G01*
X98337D02*
G03*
X92337Y46055I-3000J0D01*
G01*
X86799Y39362D02*
G03*
X92337Y43055I1539J3692D01*
G01*
X68694Y62439D02*
G03*
X86799Y39362I29643J4615D01*
G01*
X72646Y67055D02*
G03*
X68694Y62439I0J-4000D01*
G01*
X78337Y67055D02*
G03*
X81328Y69825I0J3000D01*
G01*
D02*
G03*
X78337Y72595I-2991J-230D01*
G01*
Y114615D02*
G03*
X81337Y117615I0J3000D01*
G01*
Y134425D02*
G03*
X78337Y137425I-3000J0D01*
G01*
Y183835D02*
G03*
X81337Y186835I0J3000D01*
G01*
Y203645D02*
G03*
X78337Y206645I-3000J0D01*
G01*
X114837Y249118D02*
G03*
X117837Y249118I1500J0D01*
G01*
X170837D02*
G03*
X173837Y249118I1500J0D01*
G01*
X215093Y67045D02*
G03*
X214921Y61084I244J-2990D01*
G01*
X39375Y71205D02*
G03*
X42375Y68205I3000J0D01*
G01*
Y114615D02*
G03*
X39375Y111615I0J-3000D01*
G01*
X66809Y72595D02*
G03*
X64854Y70855I0J-1969D01*
G01*
X61875Y68205D02*
G03*
X64854Y70855I0J3000D01*
G01*
X117837Y296140D02*
G03*
X114837Y296140I-1500J0D01*
G01*
X111837Y288140D02*
G03*
X114837Y291140I0J3000D01*
G01*
X229337Y322640D02*
G03*
X219337Y332640I-10000J0D01*
G01*
X173837Y291140D02*
G03*
X176837Y288140I3000J0D01*
G01*
X173837Y296140D02*
G03*
X170837Y296140I-1500J0D01*
G01*
X59337Y298140D02*
G03*
X69337Y288140I10000J0D01*
G01*
Y332640D02*
G03*
X59337Y322640I0J-10000D01*
G01*
X219337Y288140D02*
G03*
X229337Y298140I0J10000D01*
G01*
X42375Y183835D02*
G03*
X39375Y180835I0J-3000D01*
G01*
Y140425D02*
G03*
X42375Y137425I3000J0D01*
G01*
X39375Y209645D02*
G03*
X42375Y206645I3000J0D01*
G01*
Y253055D02*
G03*
X39375Y250055I0J-3000D01*
G01*
X293355Y247055D02*
G03*
X287355Y253055I-6000J0D01*
G01*
Y67055D02*
G03*
X293355Y73055I0J6000D01*
G01*
X215337Y67055D02*
X223132D01*
X215093Y253055D02*
X223132D01*
X125837Y39059D02*
X200347D01*
X121837Y43059D02*
Y46055D01*
X115837Y44413D02*
Y46055D01*
X98337Y44413D02*
X115837D01*
X98337D02*
Y46055D01*
X92337Y43055D02*
Y46055D01*
X72646Y67055D02*
X78337D01*
X78214Y72595D02*
X78337D01*
X78214Y114615D02*
X78337D01*
X81337Y117615D02*
Y134425D01*
X78214Y137425D02*
X78337D01*
X78214Y183835D02*
X78337D01*
X81337Y186835D02*
Y203645D01*
X78214Y206645D02*
X78337D01*
X78214Y253055D02*
X114837D01*
Y249118D02*
Y253055D01*
X117837Y249118D02*
Y252679D01*
X170837Y249118D02*
Y252679D01*
X173837Y249118D02*
Y253055D01*
X215093D01*
X42375Y68205D02*
X61875D01*
X39375Y71205D02*
Y111615D01*
X42375Y114615D02*
X72649D01*
X66809Y72595D02*
X72649D01*
X114837Y291140D02*
Y296140D01*
X69337Y288140D02*
X111837D01*
X69337Y332640D02*
X219337D01*
X229337Y298140D02*
Y322640D01*
X173837Y291140D02*
Y296140D01*
X170837Y292867D02*
Y296140D01*
X59337Y298140D02*
Y322640D01*
X117837Y292867D02*
Y296140D01*
X176837Y288140D02*
X219337D01*
X42375Y183835D02*
X72649D01*
X39375Y140425D02*
Y180835D01*
X42375Y137425D02*
X72649D01*
X42375Y253055D02*
X72649D01*
X42375Y206645D02*
X72649D01*
Y137425D02*
X78214D01*
X72649Y183835D02*
X78214D01*
X170837Y252679D02*
Y257368D01*
X117837Y252679D02*
Y257368D01*
X72649Y206645D02*
X78214D01*
X72649Y253055D02*
X78214D01*
X72649Y72595D02*
X78214D01*
X72649Y114615D02*
X78214D01*
X170837Y257368D02*
Y262504D01*
X117837Y257368D02*
Y262504D01*
X170837Y284827D02*
Y292867D01*
X117837Y284827D02*
Y292867D01*
X170837Y267194D02*
Y284827D01*
X117837Y267194D02*
Y284827D01*
X293355Y73055D02*
Y247055D01*
X223132Y253055D02*
X287355D01*
X223132Y67055D02*
X287355D01*
X117837Y262504D02*
Y267194D01*
X170837Y262504D02*
Y267194D01*
X39375Y209645D02*
Y250055D01*
D14*
X100031Y295227D02*
X103032D01*
X101532Y293727D02*
Y296727D01*
X109531Y295227D02*
X112531D01*
X111031Y293727D02*
Y296727D01*
X307061Y39026D02*
X322860D01*
X314961Y31127D02*
Y46926D01*
X7848Y39026D02*
X23648D01*
X15748Y31127D02*
Y46926D01*
X7848Y330365D02*
X23648D01*
X15748Y322465D02*
Y338264D01*
X307061Y330365D02*
X322860D01*
X314961Y322465D02*
Y338264D01*
X252235Y75055D02*
X255778D01*
X254006Y73283D02*
Y76827D01*
X242235Y75055D02*
X245778D01*
X244006Y73283D02*
Y76827D01*
X252235Y85055D02*
X255778D01*
X254006Y83283D02*
Y86827D01*
X242235Y85055D02*
X245778D01*
X244006Y83283D02*
Y86827D01*
X252235Y95055D02*
X255778D01*
X254006Y93283D02*
Y96827D01*
X242235Y95055D02*
X245778D01*
X244006Y93283D02*
Y96827D01*
X252235Y105055D02*
X255778D01*
X254006Y103283D02*
Y106827D01*
X242235Y105055D02*
X245778D01*
X244006Y103283D02*
Y106827D01*
X252235Y115055D02*
X255778D01*
X254006Y113283D02*
Y116827D01*
X242235Y115055D02*
X245778D01*
X244006Y113283D02*
Y116827D01*
X252235Y125055D02*
X255778D01*
X254006Y123283D02*
Y126827D01*
X252235Y135055D02*
X255778D01*
X254006Y133283D02*
Y136827D01*
X242235Y135055D02*
X245778D01*
X244006Y133283D02*
Y136827D01*
X252235Y145055D02*
X255778D01*
X254006Y143283D02*
Y146827D01*
X242235Y145055D02*
X245778D01*
X244006Y143283D02*
Y146827D01*
X252235Y155055D02*
X255778D01*
X254006Y153283D02*
Y156827D01*
X242235Y155055D02*
X245778D01*
X244006Y153283D02*
Y156827D01*
X252235Y165055D02*
X255778D01*
X254006Y163283D02*
Y166827D01*
X242235Y165055D02*
X245778D01*
X244006Y163283D02*
Y166827D01*
X252235Y175055D02*
X255778D01*
X254006Y173283D02*
Y176827D01*
X242235Y175055D02*
X245778D01*
X244006Y173283D02*
Y176827D01*
X252235Y185055D02*
X255778D01*
X254006Y183283D02*
Y186827D01*
X242235Y185055D02*
X245778D01*
X244006Y183283D02*
Y186827D01*
X252235Y195055D02*
X255778D01*
X254006Y193283D02*
Y196827D01*
X242235Y195055D02*
X245778D01*
X244006Y193283D02*
Y196827D01*
X252235Y205055D02*
X255778D01*
X254006Y203283D02*
Y206827D01*
X242235Y205055D02*
X245778D01*
X244006Y203283D02*
Y206827D01*
X252235Y215055D02*
X255778D01*
X254006Y213283D02*
Y216827D01*
X242235Y215055D02*
X245778D01*
X244006Y213283D02*
Y216827D01*
X252235Y225055D02*
X255778D01*
X254006Y223283D02*
Y226827D01*
X242235Y225055D02*
X245778D01*
X244006Y223283D02*
Y226827D01*
X252235Y235055D02*
X255778D01*
X254006Y233283D02*
Y236827D01*
X242235Y235055D02*
X245778D01*
X244006Y233283D02*
Y236827D01*
X252235Y245055D02*
X255778D01*
X254006Y243283D02*
Y246827D01*
X242235Y245055D02*
X245778D01*
X244006Y243283D02*
Y246827D01*
X242235Y125055D02*
X245778D01*
X244006Y123283D02*
Y126827D01*
X207638Y310763D02*
X210138D01*
X208888Y309512D02*
Y312013D01*
X109531Y326231D02*
X112531D01*
X111031Y324731D02*
Y327731D01*
X45538Y108463D02*
X51538D01*
X48538Y105463D02*
Y111462D01*
X46238Y72862D02*
X50838D01*
X48538Y70562D02*
Y75163D01*
X161556Y245891D02*
X163131D01*
X162344Y245104D02*
Y246679D01*
X161556Y240891D02*
X163131D01*
X162344Y240104D02*
Y241679D01*
X100031Y326231D02*
X103032D01*
X101532Y324731D02*
Y327731D01*
X176130Y326231D02*
X179130D01*
X177630Y324731D02*
Y327731D01*
X46238Y142062D02*
X50838D01*
X48538Y139762D02*
Y144362D01*
X45538Y177663D02*
X51538D01*
X48538Y174662D02*
Y180663D01*
X90781Y295227D02*
X93282D01*
X92032Y293977D02*
Y296477D01*
X176130Y295227D02*
X179130D01*
X177630Y293727D02*
Y296727D01*
X185630Y295227D02*
X188630D01*
X187130Y293727D02*
Y296727D01*
X207632Y326231D02*
X210132D01*
X208882Y324981D02*
Y327481D01*
X185630Y326231D02*
X188630D01*
X187130Y324731D02*
Y327731D01*
X45471Y246939D02*
X51471D01*
X48471Y243939D02*
Y249939D01*
X46171Y211339D02*
X50771D01*
X48471Y209039D02*
Y213639D01*
X90781Y326231D02*
X93282D01*
X92032Y324981D02*
Y327481D01*
X90955Y52053D02*
X92530D01*
X91742Y51266D02*
Y52840D01*
X158376Y150439D02*
X159164D01*
X158770Y150045D02*
Y150832D01*
X158307Y137315D02*
X159094D01*
X158701Y136922D02*
Y137709D01*
X158179Y140990D02*
X158967D01*
X158573Y140596D02*
Y141384D01*
X162412Y113234D02*
X163199D01*
X162805Y112840D02*
Y113628D01*
X162412Y116088D02*
X163199D01*
X162805Y115695D02*
Y116482D01*
X158340Y134691D02*
X159127D01*
X158733Y134297D02*
Y135084D01*
X170089Y159888D02*
X170876D01*
X170483Y159494D02*
Y160281D01*
X158376Y147289D02*
X159164D01*
X158770Y146896D02*
Y147683D01*
X158278Y329868D02*
X159065D01*
X158672Y329474D02*
Y330262D01*
X104203Y244573D02*
X104990D01*
X104597Y244179D02*
Y244966D01*
X106762Y244558D02*
X107550D01*
X107156Y244164D02*
Y244951D01*
X199321Y116325D02*
X200896D01*
X200109Y115537D02*
Y117112D01*
X200699Y60026D02*
X202274D01*
X201487Y59238D02*
Y60813D01*
X150168Y100915D02*
X150955D01*
X150561Y100522D02*
Y101309D01*
X152471Y137315D02*
X153258D01*
X152865Y136922D02*
Y137709D01*
X145384Y77348D02*
X146172D01*
X145778Y76955D02*
Y77742D01*
X109361Y66915D02*
X110148D01*
X109754Y66522D02*
Y67309D01*
X210935Y249335D02*
X211723D01*
X211329Y248941D02*
Y249728D01*
X211132Y240083D02*
X211920D01*
X211526Y239689D02*
Y240476D01*
X211132Y230043D02*
X211920D01*
X211526Y229649D02*
Y230437D01*
X205817Y218626D02*
X206605D01*
X206211Y218232D02*
Y219020D01*
X206014Y208390D02*
X206802D01*
X206408Y207996D02*
Y208783D01*
X204833Y198941D02*
X205621D01*
X205227Y198547D02*
Y199335D01*
X206408Y187720D02*
X207195D01*
X206802Y187327D02*
Y188114D01*
X206408Y178862D02*
X207195D01*
X206802Y178468D02*
Y179256D01*
X206408Y168232D02*
X207195D01*
X206802Y167838D02*
Y168626D01*
X205424Y158783D02*
X206211D01*
X205817Y158390D02*
Y159177D01*
X206605Y128468D02*
X207392D01*
X206998Y128075D02*
Y128862D01*
Y116657D02*
X207786D01*
X207392Y116264D02*
Y117051D01*
X207195Y105240D02*
X207983D01*
X207589Y104846D02*
Y105634D01*
X207195Y100122D02*
X207983D01*
X207589Y99728D02*
Y100516D01*
X204833Y81618D02*
X205621D01*
X205227Y81224D02*
Y82012D01*
X203613Y150616D02*
X204400D01*
X204006Y150222D02*
Y151010D01*
X206408Y241699D02*
X207195D01*
X206802Y241305D02*
Y242092D01*
X206408Y231699D02*
X207195D01*
X206802Y231305D02*
Y232092D01*
X206408Y221699D02*
X207195D01*
X206802Y221305D02*
Y222092D01*
X206408Y211699D02*
X207195D01*
X206802Y211305D02*
Y212092D01*
X206408Y191699D02*
X207195D01*
X206802Y191305D02*
Y192092D01*
X206408Y181699D02*
X207195D01*
X206802Y181305D02*
Y182092D01*
X206408Y171699D02*
X207195D01*
X206802Y171305D02*
Y172092D01*
X206408Y161699D02*
X207195D01*
X206802Y161305D02*
Y162092D01*
X206408Y141699D02*
X207195D01*
X206802Y141305D02*
Y142092D01*
X206408Y131699D02*
X207195D01*
X206802Y131305D02*
Y132092D01*
X207195Y83587D02*
X207983D01*
X207589Y83193D02*
Y83980D01*
X200817Y121699D02*
X201605D01*
X201211Y121305D02*
Y122092D01*
X200817Y111699D02*
X201605D01*
X201211Y111305D02*
Y112092D01*
X200699Y92445D02*
X201487D01*
X201093Y92051D02*
Y92838D01*
X207195Y102681D02*
X207983D01*
X207589Y102287D02*
Y103075D01*
X203613Y70557D02*
X204400D01*
X204006Y70163D02*
Y70951D01*
X171565Y82230D02*
X172353D01*
X171959Y81836D02*
Y82624D01*
X139085Y59789D02*
X139872D01*
X139478Y59396D02*
Y60183D01*
X127274Y114907D02*
X128061D01*
X127668Y114514D02*
Y115301D01*
X110837Y144041D02*
X111624D01*
X111231Y143648D02*
Y144435D01*
X154636Y80951D02*
X155424D01*
X155030Y80557D02*
Y81344D01*
X176834Y210872D02*
X177622D01*
X177228Y210478D02*
Y211266D01*
X109786Y205163D02*
X110574D01*
X110180Y204770D02*
Y205557D01*
X139872Y233313D02*
X140660D01*
X140266Y232919D02*
Y233707D01*
X146369Y206541D02*
X147156D01*
X146762Y206148D02*
Y206935D01*
X93909Y132812D02*
X95483D01*
X94696Y132025D02*
Y133600D01*
X93909Y202013D02*
X95483D01*
X94696Y201226D02*
Y202801D01*
X126487Y158707D02*
X127274D01*
X126880Y158313D02*
Y159100D01*
X126979Y221010D02*
X127766D01*
X127372Y220616D02*
Y221403D01*
X114872Y126364D02*
X116447D01*
X115660Y125577D02*
Y127151D01*
X199013Y145518D02*
X200588D01*
X199801Y144730D02*
Y146305D01*
X131644Y181738D02*
X132431D01*
X132038Y181344D02*
Y182132D01*
X163548Y210577D02*
X164336D01*
X163942Y210183D02*
Y210970D01*
X188101Y119140D02*
X188888D01*
X188495Y118746D02*
Y119533D01*
X130916Y152309D02*
X131703D01*
X131309Y151915D02*
Y152703D01*
X158376Y153588D02*
X159164D01*
X158770Y153195D02*
Y153982D01*
X121369Y145518D02*
X122156D01*
X121762Y145124D02*
Y145911D01*
X130227Y101620D02*
X131014D01*
X130621Y101226D02*
Y102014D01*
X124321Y115203D02*
X125109D01*
X124715Y114809D02*
Y115596D01*
X154341Y329867D02*
X155129D01*
X154735Y329474D02*
Y330261D01*
X150109Y84100D02*
X150896D01*
X150502Y83707D02*
Y84494D01*
X156998Y98372D02*
X157786D01*
X157392Y97978D02*
Y98766D01*
X162313Y127532D02*
X163101D01*
X162707Y127138D02*
Y127926D01*
X167333Y98470D02*
X168121D01*
X167727Y98077D02*
Y98864D01*
X117628Y64809D02*
X118416D01*
X118022Y64415D02*
Y65203D01*
X157786Y107624D02*
X158573D01*
X158179Y107230D02*
Y108018D01*
X176093Y122289D02*
X176880D01*
X176487Y121896D02*
Y122683D01*
X184459Y199750D02*
X185247D01*
X184853Y199356D02*
Y200144D01*
X119302Y101620D02*
X120089D01*
X119695Y101226D02*
Y102014D01*
X141053Y82033D02*
X141841D01*
X141447Y81640D02*
Y82427D01*
X122254Y85577D02*
X123042D01*
X122648Y85183D02*
Y85970D01*
X119498Y72781D02*
X120286D01*
X119892Y72388D02*
Y73175D01*
X162412Y63825D02*
X163199D01*
X162805Y63431D02*
Y64218D01*
X119498Y80655D02*
X120286D01*
X119892Y80262D02*
Y81049D01*
X155817Y78687D02*
X156605D01*
X156211Y78293D02*
Y79081D01*
X167037Y78687D02*
X167825D01*
X167431Y78293D02*
Y79081D01*
X155817Y74750D02*
X156605D01*
X156211Y74356D02*
Y75144D01*
X132786Y84691D02*
X133573D01*
X133179Y84297D02*
Y85084D01*
X139085Y71797D02*
X139872D01*
X139478Y71403D02*
Y72191D01*
X129341Y84691D02*
X130128D01*
X129735Y84297D02*
Y85084D01*
X141017Y69533D02*
X141804D01*
X141411Y69140D02*
Y69927D01*
X119498Y75735D02*
X120286D01*
X119892Y75341D02*
Y76128D01*
X197107Y114366D02*
X197894D01*
X197500Y113972D02*
Y114760D01*
X164873Y176522D02*
X165660D01*
X165266Y176128D02*
Y176915D01*
X109746Y114210D02*
X110533D01*
X110140Y113816D02*
Y114604D01*
X156309Y158411D02*
X157884D01*
X157097Y157624D02*
Y159199D01*
X179144Y161266D02*
X180719D01*
X179931Y160478D02*
Y162053D01*
X156506Y298510D02*
X157294D01*
X156900Y298116D02*
Y298903D01*
X161329Y323470D02*
X162117D01*
X161723Y323077D02*
Y323864D01*
X138376Y316974D02*
X139163D01*
X138770Y316580D02*
Y317367D01*
X142313Y316974D02*
X143101D01*
X142707Y316580D02*
Y317367D01*
X105030Y112053D02*
X105817D01*
X105424Y111659D02*
Y112447D01*
X121369Y202998D02*
X122156D01*
X121762Y202604D02*
Y203392D01*
X164085Y187348D02*
X164872D01*
X164479Y186955D02*
Y187742D01*
X133770Y178982D02*
X134557D01*
X134164Y178588D02*
Y179376D01*
X100896Y186758D02*
X101683D01*
X101290Y186364D02*
Y187151D01*
X126585Y169042D02*
X127372D01*
X126978Y168648D02*
Y169435D01*
X119991Y173668D02*
X120778D01*
X120384Y173274D02*
Y174061D01*
X121369Y148766D02*
X122156D01*
X121762Y148372D02*
Y149159D01*
X110935Y141187D02*
X111723D01*
X111329Y140793D02*
Y141581D01*
X145483Y132919D02*
X146270D01*
X145876Y132526D02*
Y133313D01*
X162412Y122584D02*
X163199D01*
X162805Y122191D02*
Y122978D01*
X133179Y184100D02*
X133967D01*
X133573Y183707D02*
Y184494D01*
X109082Y184789D02*
X109870D01*
X109476Y184396D02*
Y185183D01*
X108869Y155458D02*
X109656D01*
X109262Y155065D02*
Y155852D01*
X115561Y132427D02*
X116349D01*
X115955Y132033D02*
Y132821D01*
X141053Y119632D02*
X141841D01*
X141447Y119238D02*
Y120026D01*
X141053Y105360D02*
X141841D01*
X141447Y104966D02*
Y105754D01*
X152766Y98372D02*
X153553D01*
X153160Y97978D02*
Y98766D01*
X147648Y103234D02*
X148435D01*
X148042Y102840D02*
Y103628D01*
X109065Y87939D02*
X109853D01*
X109459Y87545D02*
Y88332D01*
X127274Y117565D02*
X128061D01*
X127668Y117171D02*
Y117958D01*
X133179Y118943D02*
X133967D01*
X133573Y118549D02*
Y119336D01*
X127274Y119927D02*
X128061D01*
X127668Y119533D02*
Y120321D01*
X114085Y68746D02*
X114872D01*
X114479Y68352D02*
Y69140D01*
X133179Y70222D02*
X133967D01*
X133573Y69829D02*
Y70616D01*
X125699Y74258D02*
X126487D01*
X126093Y73864D02*
Y74651D01*
X140758Y168155D02*
X141546D01*
X141152Y167762D02*
Y168549D01*
X137117Y69533D02*
X137904D01*
X137510Y69140D02*
Y69927D01*
X133179Y101112D02*
X133967D01*
X133573Y100718D02*
Y101506D01*
X142924Y97584D02*
X143711D01*
X143317Y97191D02*
Y97978D01*
X145168Y99556D02*
X145955D01*
X145561Y99163D02*
Y99950D01*
X147550Y96403D02*
X148337D01*
X147943Y96010D02*
Y96797D01*
X190266Y233707D02*
X191053D01*
X190660Y233313D02*
Y234100D01*
X90955Y62285D02*
X92530D01*
X91742Y61498D02*
Y63072D01*
X187117Y238037D02*
X188691D01*
X187904Y237250D02*
Y238825D01*
X194892Y219435D02*
X196467D01*
X195679Y218648D02*
Y220222D01*
X175798Y183510D02*
X177372D01*
X176585Y182722D02*
Y184297D01*
X175896Y175832D02*
X177471D01*
X176683Y175045D02*
Y176620D01*
X171861Y109396D02*
X173435D01*
X172648Y108608D02*
Y110183D01*
X166939Y94435D02*
X168514D01*
X167727Y93647D02*
Y95222D01*
X180719Y127998D02*
X181506D01*
X181113Y127604D02*
Y128392D01*
X185640Y127998D02*
X186428D01*
X186034Y127604D02*
Y128392D01*
X135187Y195163D02*
X135975D01*
X135581Y194770D02*
Y195557D01*
X139774Y240793D02*
X140561D01*
X140168Y240400D02*
Y241187D01*
X139774Y245222D02*
X140561D01*
X140168Y244829D02*
Y245616D01*
X109988Y195183D02*
X110775D01*
X110381Y194789D02*
Y195577D01*
X84066Y82608D02*
X84853D01*
X84460Y82214D02*
Y83002D01*
X84065Y78671D02*
X84853D01*
X84459Y78277D02*
Y79065D01*
X96959Y80640D02*
X97746D01*
X97353Y80246D02*
Y81033D01*
X84065Y73061D02*
X84853D01*
X84459Y72667D02*
Y73455D01*
X84066Y151907D02*
X84853D01*
X84460Y151514D02*
Y152301D01*
X84065Y147970D02*
X84853D01*
X84459Y147577D02*
Y148364D01*
X96959Y149939D02*
X97746D01*
X97353Y149545D02*
Y150332D01*
X84065Y145321D02*
X84853D01*
X84459Y144927D02*
Y145714D01*
X97057Y159289D02*
X97845D01*
X97451Y158896D02*
Y159683D01*
X84065Y211561D02*
X84853D01*
X84459Y211167D02*
Y211955D01*
X120483Y121797D02*
X122057D01*
X121270Y121010D02*
Y122584D01*
X129833Y131443D02*
X130621D01*
X130227Y131049D02*
Y131836D01*
X80522Y100325D02*
X82097D01*
X81309Y99537D02*
Y101112D01*
X80522Y88514D02*
X82097D01*
X81309Y87726D02*
Y89301D01*
X80522Y111447D02*
X82097D01*
X81309Y110659D02*
Y112234D01*
X88790Y109953D02*
X89577D01*
X89183Y109560D02*
Y110347D01*
X119498Y68746D02*
X120286D01*
X119892Y68352D02*
Y69140D01*
X130719Y92073D02*
X131506D01*
X131113Y91679D02*
Y92466D01*
X89282Y122675D02*
X90070D01*
X89676Y122281D02*
Y123068D01*
X88790Y179253D02*
X89577D01*
X89183Y178859D02*
Y179646D01*
X80522Y180746D02*
X82097D01*
X81309Y179958D02*
Y181533D01*
X80522Y157813D02*
X82097D01*
X81309Y157026D02*
Y158600D01*
X80522Y169624D02*
X82097D01*
X81309Y168836D02*
Y170411D01*
X84459Y116187D02*
X85246D01*
X84853Y115793D02*
Y116581D01*
X100305Y189809D02*
X101093D01*
X100699Y189415D02*
Y190203D01*
X80522Y238825D02*
X82097D01*
X81309Y238037D02*
Y239612D01*
X80522Y227014D02*
X82097D01*
X81309Y226226D02*
Y227801D01*
X80522Y249947D02*
X82097D01*
X81309Y249159D02*
Y250734D01*
X84065Y217171D02*
X84853D01*
X84459Y216777D02*
Y217565D01*
X84066Y221108D02*
X84853D01*
X84460Y220714D02*
Y221502D01*
X130522Y221010D02*
X131309D01*
X130916Y220616D02*
Y221403D01*
X174715Y322683D02*
X175502D01*
X175109Y322289D02*
Y323077D01*
X116517Y307919D02*
X117305D01*
X116911Y307525D02*
Y308313D01*
X176979Y301856D02*
X177766D01*
X177372Y301463D02*
Y302250D01*
X129109Y314612D02*
X129896D01*
X129502Y314218D02*
Y315006D01*
X125565Y317368D02*
X126353D01*
X125959Y316974D02*
Y317762D01*
X125565Y307919D02*
X126353D01*
X125959Y307525D02*
Y308313D01*
X129109Y310675D02*
X129896D01*
X129502Y310281D02*
Y311069D01*
X122022Y310675D02*
X122809D01*
X122416Y310281D02*
Y311069D01*
X122022Y314612D02*
X122809D01*
X122416Y314218D02*
Y315006D01*
X129109Y317368D02*
X129896D01*
X129502Y316974D02*
Y317762D01*
X122022Y317368D02*
X122809D01*
X122416Y316974D02*
Y317762D01*
X122022Y307919D02*
X122809D01*
X122416Y307525D02*
Y308313D01*
X129109Y307919D02*
X129896D01*
X129502Y307525D02*
Y308313D01*
X218614Y311660D02*
X219007D01*
X218810Y311463D02*
Y311857D01*
X216645Y311660D02*
X217039D01*
X216842Y311463D02*
Y311857D01*
X214677Y311660D02*
X215070D01*
X214873Y311463D02*
Y311857D01*
X220582Y311660D02*
X220976D01*
X220779Y311463D02*
Y311857D01*
X222551Y311660D02*
X222944D01*
X222747Y311463D02*
Y311857D01*
X78947Y303884D02*
X79735D01*
X79341Y303490D02*
Y304277D01*
X183376Y228195D02*
X184951D01*
X184164Y227407D02*
Y228982D01*
X180030Y237447D02*
X180817D01*
X180424Y237053D02*
Y237840D01*
X187117Y228195D02*
X188691D01*
X187904Y227407D02*
Y228982D01*
X179636Y228195D02*
X181211D01*
X180424Y227407D02*
Y228982D01*
X168735Y147683D02*
X169522D01*
X169128Y147289D02*
Y148077D01*
X168735Y144336D02*
X169522D01*
X169128Y143943D02*
Y144730D01*
X169916Y146010D02*
X170703D01*
X170309Y145616D02*
Y146403D01*
X186156Y130951D02*
X186943D01*
X186550Y130557D02*
Y131344D01*
X182195Y149356D02*
X182983D01*
X182589Y148962D02*
Y149750D01*
X186435Y158214D02*
X187223D01*
X186829Y157821D02*
Y158608D01*
X193514Y179462D02*
X194302D01*
X193908Y179068D02*
Y179855D01*
X191053Y179462D02*
X191841D01*
X191447Y179068D02*
Y179855D01*
X195876Y179462D02*
X196664D01*
X196270Y179068D02*
Y179855D01*
X195884Y176820D02*
X196672D01*
X196278Y176426D02*
Y177214D01*
X191061Y176820D02*
X191849D01*
X191455Y176426D02*
Y177214D01*
X193522Y176820D02*
X194309D01*
X193916Y176426D02*
Y177214D01*
X158278Y220577D02*
X159065D01*
X158672Y220183D02*
Y220970D01*
X130719Y158707D02*
X131506D01*
X131113Y158313D02*
Y159100D01*
X161920Y68155D02*
X162707D01*
X162313Y67762D02*
Y68549D01*
X109361Y217565D02*
X110148D01*
X109754Y217171D02*
Y217958D01*
X193219Y159592D02*
X194794D01*
X194006Y158805D02*
Y160380D01*
X178947Y69730D02*
X179735D01*
X179341Y69336D02*
Y70124D01*
X167038Y69829D02*
X167825D01*
X167431Y69435D02*
Y70223D01*
X108869Y76620D02*
X109656D01*
X109262Y76226D02*
Y77014D01*
X113495Y107230D02*
X114282D01*
X113888Y106836D02*
Y107624D01*
X108967Y91974D02*
X109754D01*
X109361Y91581D02*
Y92368D01*
X142530Y324258D02*
X143317D01*
X142924Y323864D02*
Y324651D01*
X126241Y249002D02*
X127028D01*
X126634Y248608D02*
Y249395D01*
X109746Y248273D02*
X110533D01*
X110140Y247880D02*
Y248667D01*
X82294Y223864D02*
X83081D01*
X82687Y223470D02*
Y224258D01*
X83376Y94336D02*
X84164D01*
X83770Y93943D02*
Y94730D01*
X167333Y223470D02*
X168121D01*
X167727Y223077D02*
Y223864D01*
X132750Y215203D02*
X133538D01*
X133144Y214809D02*
Y215596D01*
X126241Y92023D02*
X127028D01*
X126634Y91630D02*
Y92417D01*
X121565Y113175D02*
X122353D01*
X121959Y112781D02*
Y113569D01*
X174518Y237447D02*
X175305D01*
X174912Y237053D02*
Y237840D01*
X142924Y233313D02*
X143711D01*
X143317Y232919D02*
Y233707D01*
X119203Y176226D02*
X119991D01*
X119597Y175832D02*
Y176620D01*
X96959Y146986D02*
X97746D01*
X97353Y146592D02*
Y147380D01*
X96959Y216187D02*
X97746D01*
X97353Y215793D02*
Y216581D01*
X104439Y77703D02*
X105227D01*
X104833Y77309D02*
Y78096D01*
X84065Y303884D02*
X84853D01*
X84459Y303490D02*
Y304277D01*
X119302Y238136D02*
X120089D01*
X119695Y237742D02*
Y238529D01*
X156817Y82624D02*
X157605D01*
X157211Y82230D02*
Y83018D01*
X145286Y220124D02*
X146073D01*
X145679Y219730D02*
Y220518D01*
X172156Y225636D02*
X172943D01*
X172550Y225242D02*
Y226029D01*
X82294Y80640D02*
X83081D01*
X82687Y80246D02*
Y81033D01*
X82294Y149939D02*
X83081D01*
X82687Y149545D02*
Y150332D01*
X82294Y219140D02*
X83081D01*
X82687Y218746D02*
Y219533D01*
X87313Y311659D02*
X88101D01*
X87707Y311266D02*
Y312053D01*
X119302Y241581D02*
X120089D01*
X119695Y241187D02*
Y241974D01*
X165955Y91777D02*
X166743D01*
X166349Y91384D02*
Y92171D01*
X148829Y220071D02*
X149617D01*
X149223Y219677D02*
Y220464D01*
X169400Y225636D02*
X170187D01*
X169794Y225242D02*
Y226029D01*
X150405Y329868D02*
X151192D01*
X150798Y329474D02*
Y330261D01*
X211132Y148547D02*
X211920D01*
X211526Y148153D02*
Y148941D01*
X137018Y165203D02*
X137805D01*
X137412Y164809D02*
Y165596D01*
X211329Y140083D02*
X212117D01*
X211723Y139689D02*
Y140476D01*
X209656Y69179D02*
X210443D01*
X210050Y68785D02*
Y69573D01*
X206408Y69179D02*
X207195D01*
X206802Y68785D02*
Y69573D01*
X200699Y50085D02*
X202274D01*
X201487Y49297D02*
Y50872D01*
X88494Y46935D02*
X89282D01*
X88888Y46541D02*
Y47329D01*
X76388Y64651D02*
X77176D01*
X76782Y64258D02*
Y65045D01*
X80620Y55596D02*
X81408D01*
X81014Y55203D02*
Y55990D01*
X97550Y63825D02*
X98337D01*
X97943Y63431D02*
Y64218D01*
X129046Y54415D02*
X129833D01*
X129439Y54022D02*
Y54809D01*
X129735Y248903D02*
X130522D01*
X130128Y248510D02*
Y249297D01*
X119400Y63114D02*
X120187D01*
X119794Y62720D02*
Y63508D01*
X85542Y321579D02*
X86329D01*
X85935Y321185D02*
Y321972D01*
X105817Y305831D02*
X106605D01*
X106211Y305437D02*
Y306224D01*
X152668Y245754D02*
X153455D01*
X153061Y245360D02*
Y246147D01*
X155227Y245791D02*
X156014D01*
X155621Y245397D02*
Y246185D01*
X119006Y194413D02*
X119794D01*
X119400Y194019D02*
Y194807D01*
X115266Y194413D02*
X116053D01*
X115660Y194019D02*
Y194807D01*
X120778Y200242D02*
X121565D01*
X121172Y199848D02*
Y200636D01*
X139282Y236736D02*
X140069D01*
X139676Y236342D02*
Y237130D01*
X135187Y220594D02*
X135975D01*
X135581Y220201D02*
Y220988D01*
X197550Y295201D02*
X198337D01*
X197943Y294807D02*
Y295594D01*
X195187Y304059D02*
X195975D01*
X195581Y303665D02*
Y304453D01*
X204636Y304059D02*
X205424D01*
X205030Y303665D02*
Y304453D01*
X202274Y295201D02*
X203061D01*
X202668Y294807D02*
Y295594D01*
X203652Y201500D02*
X204439D01*
X204046Y201106D02*
Y201893D01*
X199321Y189689D02*
X200109D01*
X199715Y189295D02*
Y190083D01*
X207195Y79494D02*
X207983D01*
X207589Y79100D02*
Y79888D01*
X63691Y231815D02*
X64479D01*
X64085Y231421D02*
Y232208D01*
X66250Y231815D02*
X67038D01*
X66644Y231421D02*
Y232208D01*
X63494Y162917D02*
X64282D01*
X63888Y162523D02*
Y163311D01*
X66053Y162917D02*
X66841D01*
X66447Y162523D02*
Y163311D01*
X64085Y93429D02*
X64872D01*
X64479Y93035D02*
Y93823D01*
X66447Y93429D02*
X67235D01*
X66841Y93035D02*
Y93823D01*
X92038Y182209D02*
X92825D01*
X92431Y181815D02*
Y182602D01*
X89872Y182209D02*
X90660D01*
X90266Y181815D02*
Y182602D01*
X88691Y249138D02*
X89479D01*
X89085Y248744D02*
Y249531D01*
X96368Y305831D02*
X97156D01*
X96762Y305437D02*
Y306224D01*
X178652Y101955D02*
X179439D01*
X179046Y101561D02*
Y102348D01*
M02*
