%TF.GenerationSoftware,KiCad,Pcbnew,8.0.2*%
%TF.CreationDate,2024-09-08T21:35:49-05:00*%
%TF.ProjectId,PM1C_Rev_1_2,504d3143-5f52-4657-965f-315f322e6b69,1*%
%TF.SameCoordinates,PX297003ePY8770cd2*%
%TF.FileFunction,Drillmap*%
%TF.FilePolarity,Positive*%
%FSLAX45Y45*%
G04 Gerber Fmt 4.5, Leading zero omitted, Abs format (unit mm)*
G04 Created by KiCad (PCBNEW 8.0.2) date 2024-09-08 21:35:49*
%MOMM*%
%LPD*%
G01*
G04 APERTURE LIST*
%ADD10C,0.050000*%
%ADD11C,0.200000*%
%ADD12C,0.100000*%
G04 APERTURE END LIST*
D10*
X4009706Y8456956D02*
G75*
G02*
X4010127Y8656730I6571J99873D01*
G01*
X1696916Y1851797D02*
X2092457Y1851479D01*
X7451299Y1855148D02*
X7451299Y2619468D01*
X4415422Y6335486D02*
G75*
G02*
X4339222Y6335486I-38100J0D01*
G01*
X1307262Y8204388D02*
X1307358Y7554619D01*
X-43Y9399979D02*
X8399957Y9399979D01*
X8399957Y-21D01*
X-43Y-21D01*
X-43Y9399979D01*
X2916820Y7529854D02*
G75*
G02*
X2993020Y7529854I38100J0D01*
G01*
X999858Y6189978D02*
G75*
G02*
X799599Y6191485I-100091J5911D01*
G01*
X799986Y3738974D02*
G75*
G02*
X1000074Y3742414I100096J-1285D01*
G01*
X2245477Y800264D02*
G75*
G02*
X2155679Y812856I-3740J299815D01*
G01*
X2204555Y1007820D02*
G75*
G02*
X1744683Y1593732I293102J703480D01*
G01*
X2793187Y6636154D02*
X2793283Y7104836D01*
X7651176Y3318797D02*
G75*
G02*
X7451262Y3320089I-99999J-5867D01*
G01*
X799986Y2850461D02*
G75*
G02*
X1078675Y3119543I276211J-7212D01*
G01*
X5824962Y7558971D02*
X5825124Y8202955D01*
X1865390Y5059220D02*
X1865390Y4880216D01*
X4339222Y7529854D02*
G75*
G02*
X4415422Y7529854I38100J0D01*
G01*
X2109728Y3498509D02*
G75*
G02*
X2109728Y3422070I769J-38219D01*
G01*
X5142444Y800461D02*
X4492170Y800461D01*
X1507118Y8202955D02*
X1507214Y7558843D01*
X2345320Y1101480D02*
G75*
G02*
X2204554Y1007817I-101563J29D01*
G01*
X5573408Y8656730D02*
G75*
G02*
X6024981Y8204417I-2171J-453741D01*
G01*
X5573408Y8656730D02*
X4010127Y8656730D01*
X7451169Y6283086D02*
X7451169Y5531874D01*
X2942220Y1177680D02*
G75*
G02*
X3094620Y1177680I76200J0D01*
G01*
X1000074Y2842906D02*
X1000074Y2675173D01*
X1865347Y3298542D02*
X1865347Y3119538D01*
X2155679Y812855D02*
G75*
G02*
X1550548Y1540413I337998J896554D01*
G01*
X1000074Y4601096D02*
G75*
G02*
X1076274Y4677292I76203J-7D01*
G01*
X4539055Y6636182D02*
X7300975Y6636182D01*
X1758834Y8656702D02*
X3322115Y8656702D01*
X2993020Y6335486D02*
G75*
G02*
X2916820Y6335486I-38100J0D01*
G01*
X799986Y3567126D02*
X799986Y3738974D01*
X2449227Y7304870D02*
X2840716Y7304842D01*
X4009706Y8456956D02*
X5571123Y8456956D01*
X2109730Y2995409D02*
X2065730Y2995500D01*
X6024818Y7554775D02*
G75*
G02*
X5572415Y7104991I-454011J4244D01*
G01*
X1076500Y5256500D02*
X1989589Y5256428D01*
X2168877Y1780399D02*
G75*
G02*
X2089957Y1709974I-76130J5881D01*
G01*
X2065728Y3421969D02*
X2065691Y2995485D01*
X2916916Y7381042D02*
G75*
G02*
X2840716Y7304840I-76209J8D01*
G01*
X7298769Y6435486D02*
G75*
G02*
X7451174Y6283086I8J-152397D01*
G01*
X2109959Y4676971D02*
X1989591Y4677062D01*
X3798164Y800264D02*
X2245477Y800264D01*
X2916820Y6335486D02*
X2916820Y6435486D01*
X1761215Y7304842D02*
G75*
G02*
X1507219Y7558843I2J253998D01*
G01*
X1000074Y1816491D02*
X1000074Y1981804D01*
X2109730Y2995409D02*
G75*
G02*
X2109730Y2918970I777J-38220D01*
G01*
X1076271Y3498489D02*
X1989360Y3498417D01*
X1865347Y3119538D02*
X1078675Y3119538D01*
X3196221Y999984D02*
G75*
G02*
X3094622Y1101584I16J101615D01*
G01*
X799599Y6363333D02*
G75*
G02*
X1078885Y6636149I278658J-5904D01*
G01*
X7651176Y3318797D02*
X7651176Y4835700D01*
X1865390Y5059220D02*
X1078717Y5059220D01*
X4339222Y6335486D02*
X4339222Y7529854D01*
X1865390Y4880216D02*
X1078717Y4880216D01*
X2942220Y1135984D02*
X2942220Y1177680D01*
X5463321Y1710827D02*
X5469523Y1711080D01*
X5469523Y1711081D02*
X7298769Y1711081D01*
X7451266Y3320089D02*
X7451266Y4836992D01*
X1076500Y5256500D02*
G75*
G02*
X999998Y5333000I-53J76449D01*
G01*
X1000074Y2842906D02*
G75*
G02*
X1076274Y2919102I76203J-7D01*
G01*
X4490412Y1000098D02*
X5088774Y1000098D01*
X1000500Y5496500D02*
X1000000Y5333000D01*
X2793283Y7104836D02*
X2448806Y7105096D01*
X3094620Y1177680D02*
X3094620Y1101584D01*
X1989490Y2919285D02*
X1076045Y2919285D01*
X5119940Y1005167D02*
G75*
G02*
X5088774Y999983I-28313J73943D01*
G01*
X4539055Y6636182D02*
X4538893Y7104993D01*
X4882949Y7304941D02*
G75*
G02*
X4883370Y7105164I-6152J-99902D01*
G01*
X7302216Y1511511D02*
X5775190Y1511511D01*
X4415422Y7529854D02*
X4415260Y7381170D01*
X1647256Y1807619D02*
G75*
G02*
X1696916Y1851799I49651J-5809D01*
G01*
X7451299Y2619468D02*
G75*
G02*
X7650611Y2619818I99668J-6669D01*
G01*
X1076274Y3498481D02*
G75*
G02*
X1000079Y3574681I-7J76188D01*
G01*
X2109728Y3498509D02*
X1989360Y3498417D01*
X2345320Y1177680D02*
G75*
G02*
X2497720Y1177680I76200J0D01*
G01*
X2109957Y5180071D02*
X2065957Y5179979D01*
X3196221Y999984D02*
X3799351Y999984D01*
X4538893Y7104993D02*
X4883370Y7105167D01*
X999858Y6189978D02*
X999858Y6358266D01*
X800029Y5499652D02*
G75*
G02*
X1000494Y5496500I100188J-4402D01*
G01*
X1000074Y3574681D02*
X1000074Y3742414D01*
X1865347Y3298542D02*
X1078675Y3298542D01*
X7451299Y1855148D02*
G75*
G02*
X7298769Y1711078I-152542J8722D01*
G01*
X2793187Y6636154D02*
X1078885Y6636154D01*
X999858Y6358266D02*
G75*
G02*
X1076274Y6435483I76419J793D01*
G01*
X3799351Y999984D02*
G75*
G02*
X3798164Y800264I-8234J-99815D01*
G01*
X2916820Y6435486D02*
X1076274Y6435486D01*
X2448806Y7105096D02*
G75*
G02*
X2449227Y7304870I6571J99874D01*
G01*
X1761215Y7304842D02*
G75*
G02*
X1759761Y7104838I-6158J-99962D01*
G01*
X7451266Y4836992D02*
G75*
G02*
X7651178Y4835700I99931J-4533D01*
G01*
X799982Y1982425D02*
G75*
G02*
X1000071Y1981804I100035J-3266D01*
G01*
X4415422Y6435486D02*
X4415422Y6335486D01*
X799986Y2850461D02*
X799986Y2678613D01*
X5458944Y1559418D02*
G75*
G02*
X5538730Y1419991I-14097J-100609D01*
G01*
X2993020Y7529854D02*
X2993020Y6335486D01*
X2065957Y5179979D02*
X2065920Y4753496D01*
X4491460Y7304970D02*
X4882949Y7304941D01*
X2109959Y4753420D02*
G75*
G02*
X2109959Y4676979I778J-38220D01*
G01*
X7298769Y6435486D02*
X4415422Y6435486D01*
X2092457Y1851479D02*
G75*
G02*
X2168881Y1780399I-330J-76980D01*
G01*
X5571123Y8456956D02*
G75*
G02*
X5825124Y8202955I-16J-254017D01*
G01*
X2109730Y2918960D02*
X1989362Y2919052D01*
X1000116Y4435851D02*
G75*
G02*
X800028Y4439291I-99993J4735D01*
G01*
X2109957Y5256519D02*
G75*
G02*
X2109957Y5180079I770J-38220D01*
G01*
X800029Y4611139D02*
X800029Y4439291D01*
X5538732Y1419991D02*
G75*
G02*
X5119939Y1005169I-702525J290439D01*
G01*
X1078675Y3298542D02*
G75*
G02*
X799987Y3567126I-2988J275777D01*
G01*
X800029Y4611139D02*
G75*
G02*
X1078717Y4880221I276208J-7210D01*
G01*
X1507118Y8202955D02*
G75*
G02*
X1761119Y8456958I253989J14D01*
G01*
X2497720Y1177680D02*
X2497720Y1135984D01*
X2497720Y1135984D02*
X2942220Y1135984D01*
X2109957Y5256519D02*
X1989589Y5256428D01*
X2109728Y3422060D02*
X2065728Y3421969D01*
X1075846Y1540413D02*
G75*
G02*
X799981Y1817113I411J276276D01*
G01*
X7650683Y6285306D02*
X7651290Y5534094D01*
X2916916Y7381042D02*
X2916820Y7529854D01*
X1744682Y1593732D02*
G75*
G02*
X1844957Y1709972I99535J15507D01*
G01*
X1076274Y1740291D02*
G75*
G02*
X1000079Y1816491I-7J76188D01*
G01*
X800029Y5327804D02*
X800029Y5499652D01*
X1759761Y7104836D02*
G75*
G02*
X1307361Y7554619I1596J454013D01*
G01*
X5824962Y7558971D02*
G75*
G02*
X5570961Y7304974I-253985J-12D01*
G01*
X4492170Y800461D02*
G75*
G02*
X4490412Y1000098I227J99828D01*
G01*
X799982Y1817113D02*
X799982Y1982425D01*
X3322536Y8456927D02*
X1761119Y8456927D01*
X799599Y6363333D02*
X799599Y6191485D01*
X5572415Y7104993D02*
G75*
G02*
X5570961Y7304966I4702J100026D01*
G01*
X1307262Y8204388D02*
G75*
G02*
X1758834Y8656702I453750J-1433D01*
G01*
X1078717Y5059220D02*
G75*
G02*
X800025Y5327804I-3000J275769D01*
G01*
X4491460Y7304970D02*
G75*
G02*
X4415258Y7381170I-3J76199D01*
G01*
X2089957Y1709979D02*
X1844957Y1709979D01*
X7300975Y6636182D02*
G75*
G02*
X7650679Y6285306I-3408J-353103D01*
G01*
X1076274Y1740291D02*
X1571574Y1740291D01*
X1000074Y4601096D02*
X1000116Y4435851D01*
X6024980Y8204417D02*
X6024818Y7554775D01*
X1000074Y2675173D02*
G75*
G02*
X799987Y2678613I-99992J4726D01*
G01*
X3322115Y8656702D02*
G75*
G02*
X3322536Y8456924I-6158J-99902D01*
G01*
X1550549Y1540413D02*
X1075846Y1540413D01*
X7650603Y1855498D02*
X7650603Y2619818D01*
X2345320Y1101480D02*
X2345320Y1177680D01*
X1647256Y1807619D02*
G75*
G02*
X1571574Y1740293I-75679J8871D01*
G01*
X5775190Y1511511D02*
G75*
G02*
X5142444Y800461I-940919J200243D01*
G01*
X5458944Y1559418D02*
G75*
G02*
X5463321Y1710825I10564J75461D01*
G01*
X7650667Y1855496D02*
G75*
G02*
X7302216Y1511516I-351900J7993D01*
G01*
X2109959Y4753420D02*
X2065959Y4753511D01*
X7651290Y5534094D02*
G75*
G02*
X7451165Y5531874I-100074J-125D01*
G01*
X1989719Y4677296D02*
X1076274Y4677296D01*
D11*
D12*
X2150457Y4975479D02*
X2166457Y4959479D01*
X2166457Y4975479D02*
X2150457Y4959479D01*
X2150457Y3217479D02*
X2166457Y3201479D01*
X2166457Y3217479D02*
X2150457Y3201479D01*
X2287069Y2784339D02*
X2303069Y2768339D01*
X2303069Y2784339D02*
X2287069Y2768339D01*
X2295469Y6275989D02*
X2311469Y6259989D01*
X2311469Y6275989D02*
X2295469Y6259989D01*
X2317047Y4553489D02*
X2333047Y4537489D01*
X2333047Y4553489D02*
X2317047Y4537489D01*
X2319741Y5322060D02*
X2335741Y5306060D01*
X2335741Y5322060D02*
X2319741Y5306060D01*
X2319741Y3564360D02*
X2335741Y3548360D01*
X2335741Y3564360D02*
X2319741Y3548360D01*
X2323722Y2460479D02*
X2339722Y2444479D01*
X2339722Y2460479D02*
X2323722Y2444479D01*
X2323722Y2360479D02*
X2339722Y2344479D01*
X2339722Y2360479D02*
X2323722Y2344479D01*
X2323722Y2260479D02*
X2339722Y2244479D01*
X2339722Y2260479D02*
X2323722Y2244479D01*
X2335957Y1796979D02*
X2351957Y1780979D01*
X2351957Y1796979D02*
X2335957Y1780979D01*
X2354535Y4208479D02*
X2370535Y4192479D01*
X2370535Y4208479D02*
X2354535Y4192479D01*
X2354535Y4108479D02*
X2370535Y4092479D01*
X2370535Y4108479D02*
X2354535Y4092479D01*
X2354535Y4008479D02*
X2370535Y3992479D01*
X2370535Y4008479D02*
X2354535Y3992479D01*
X2368035Y5924979D02*
X2384035Y5908979D01*
X2384035Y5924979D02*
X2368035Y5908979D01*
X2368035Y5824979D02*
X2384035Y5808979D01*
X2384035Y5824979D02*
X2368035Y5808979D01*
X2368035Y5724979D02*
X2384035Y5708979D01*
X2384035Y5724979D02*
X2368035Y5708979D01*
X2373722Y2360479D02*
X2389722Y2344479D01*
X2389722Y2360479D02*
X2373722Y2344479D01*
X2404535Y4108479D02*
X2420535Y4092479D01*
X2420535Y4108479D02*
X2404535Y4092479D01*
X2418035Y5824979D02*
X2434035Y5808979D01*
X2434035Y5824979D02*
X2418035Y5808979D01*
X2419741Y5322060D02*
X2435741Y5306060D01*
X2435741Y5322060D02*
X2419741Y5306060D01*
X2423722Y2460479D02*
X2439722Y2444479D01*
X2439722Y2460479D02*
X2423722Y2444479D01*
X2423722Y2410479D02*
X2439722Y2394479D01*
X2439722Y2410479D02*
X2423722Y2394479D01*
X2423722Y2360479D02*
X2439722Y2344479D01*
X2439722Y2360479D02*
X2423722Y2344479D01*
X2423722Y2310479D02*
X2439722Y2294479D01*
X2439722Y2310479D02*
X2423722Y2294479D01*
X2423722Y2260479D02*
X2439722Y2244479D01*
X2439722Y2260479D02*
X2423722Y2244479D01*
X2424957Y3562979D02*
X2440957Y3546979D01*
X2440957Y3562979D02*
X2424957Y3546979D01*
X2437957Y1796979D02*
X2453957Y1780979D01*
X2453957Y1796979D02*
X2437957Y1780979D01*
X2454535Y4208479D02*
X2470535Y4192479D01*
X2470535Y4208479D02*
X2454535Y4192479D01*
X2454535Y4158479D02*
X2470535Y4142479D01*
X2470535Y4158479D02*
X2454535Y4142479D01*
X2454535Y4108479D02*
X2470535Y4092479D01*
X2470535Y4108479D02*
X2454535Y4092479D01*
X2454535Y4058479D02*
X2470535Y4042479D01*
X2470535Y4058479D02*
X2454535Y4042479D01*
X2454535Y4008479D02*
X2470535Y3992479D01*
X2470535Y4008479D02*
X2454535Y3992479D01*
X2468035Y5924979D02*
X2484035Y5908979D01*
X2484035Y5924979D02*
X2468035Y5908979D01*
X2468035Y5874979D02*
X2484035Y5858979D01*
X2484035Y5874979D02*
X2468035Y5858979D01*
X2468035Y5824979D02*
X2484035Y5808979D01*
X2484035Y5824979D02*
X2468035Y5808979D01*
X2468035Y5774979D02*
X2484035Y5758979D01*
X2484035Y5774979D02*
X2468035Y5758979D01*
X2468035Y5724979D02*
X2484035Y5708979D01*
X2484035Y5724979D02*
X2468035Y5708979D01*
X2473722Y2360479D02*
X2489722Y2344479D01*
X2489722Y2360479D02*
X2473722Y2344479D01*
X2487057Y2784329D02*
X2503057Y2768329D01*
X2503057Y2784329D02*
X2487057Y2768329D01*
X2491957Y2869479D02*
X2507957Y2853479D01*
X2507957Y2869479D02*
X2491957Y2853479D01*
X2503957Y6275479D02*
X2519957Y6259479D01*
X2519957Y6275479D02*
X2503957Y6259479D01*
X2504535Y4108479D02*
X2520535Y4092479D01*
X2520535Y4108479D02*
X2504535Y4092479D01*
X2517035Y4553479D02*
X2533035Y4537479D01*
X2533035Y4553479D02*
X2517035Y4537479D01*
X2518035Y5824979D02*
X2534035Y5808979D01*
X2534035Y5824979D02*
X2518035Y5808979D01*
X2523457Y2260479D02*
X2539457Y2244479D01*
X2539457Y2260479D02*
X2523457Y2244479D01*
X2524144Y2460479D02*
X2540144Y2444479D01*
X2540144Y2460479D02*
X2524144Y2444479D01*
X2524144Y2360479D02*
X2540144Y2344479D01*
X2540144Y2360479D02*
X2524144Y2344479D01*
X2526957Y6359479D02*
X2542957Y6343479D01*
X2542957Y6359479D02*
X2526957Y6343479D01*
X2529720Y5052023D02*
X2545720Y5036023D01*
X2545720Y5052023D02*
X2529720Y5036023D01*
X2529720Y3294323D02*
X2545720Y3278323D01*
X2545720Y3294323D02*
X2529720Y3278323D01*
X2554270Y4008479D02*
X2570270Y3992479D01*
X2570270Y4008479D02*
X2554270Y3992479D01*
X2554957Y4208479D02*
X2570957Y4192479D01*
X2570957Y4208479D02*
X2554957Y4192479D01*
X2554957Y4108479D02*
X2570957Y4092479D01*
X2570957Y4108479D02*
X2554957Y4092479D01*
X2566957Y5924979D02*
X2582957Y5908979D01*
X2582957Y5924979D02*
X2566957Y5908979D01*
X2567770Y5724979D02*
X2583770Y5708979D01*
X2583770Y5724979D02*
X2567770Y5708979D01*
X2568457Y5824979D02*
X2584457Y5808979D01*
X2584457Y5824979D02*
X2568457Y5808979D01*
X2587069Y2784339D02*
X2603069Y2768339D01*
X2603069Y2784339D02*
X2587069Y2768339D01*
X2599720Y5302035D02*
X2615720Y5286035D01*
X2615720Y5302035D02*
X2599720Y5286035D01*
X2609457Y6275979D02*
X2625457Y6259979D01*
X2625457Y6275979D02*
X2609457Y6259979D01*
X2617047Y4553489D02*
X2633047Y4537489D01*
X2633047Y4553489D02*
X2617047Y4537489D01*
X2640957Y1649479D02*
X2656957Y1633479D01*
X2656957Y1649479D02*
X2640957Y1633479D01*
X2649720Y5302035D02*
X2665720Y5286035D01*
X2665720Y5302035D02*
X2649720Y5286035D01*
X2649720Y3544335D02*
X2665720Y3528335D01*
X2665720Y3544335D02*
X2649720Y3528335D01*
X2690957Y1649479D02*
X2706957Y1633479D01*
X2706957Y1649479D02*
X2690957Y1633479D01*
X2775864Y5622035D02*
X2791864Y5606035D01*
X2791864Y5622035D02*
X2775864Y5606035D01*
X2775864Y4036835D02*
X2791864Y4020835D01*
X2791864Y4036835D02*
X2775864Y4020835D01*
X2782220Y4864535D02*
X2798220Y4848535D01*
X2798220Y4864535D02*
X2782220Y4848535D01*
X2924720Y5722035D02*
X2940720Y5706035D01*
X2940720Y5722035D02*
X2924720Y5706035D01*
X2924720Y4136835D02*
X2940720Y4120835D01*
X2940720Y4136835D02*
X2924720Y4120835D01*
X2927220Y2441635D02*
X2943220Y2425635D01*
X2943220Y2441635D02*
X2927220Y2425635D01*
X2927220Y2329535D02*
X2943220Y2313535D01*
X2943220Y2329535D02*
X2927220Y2313535D01*
X2938000Y3547500D02*
X2954000Y3531500D01*
X2954000Y3547500D02*
X2938000Y3531500D01*
X2991500Y2533500D02*
X3007500Y2517500D01*
X3007500Y2533500D02*
X2991500Y2517500D01*
X3054720Y5822035D02*
X3070720Y5806035D01*
X3070720Y5822035D02*
X3054720Y5806035D01*
X3054720Y4236835D02*
X3070720Y4220835D01*
X3070720Y4236835D02*
X3054720Y4220835D01*
X3112220Y4777035D02*
X3128220Y4761035D01*
X3128220Y4777035D02*
X3112220Y4761035D01*
X3149720Y5095700D02*
X3165720Y5079700D01*
X3165720Y5095700D02*
X3149720Y5079700D01*
X3157648Y6132655D02*
X3173648Y6116655D01*
X3173648Y6132655D02*
X3157648Y6116655D01*
X3157648Y4547455D02*
X3173648Y4531455D01*
X3173648Y4547455D02*
X3157648Y4531455D01*
X3174720Y1817800D02*
X3190720Y1801800D01*
X3190720Y1817800D02*
X3174720Y1801800D01*
X3189720Y5095700D02*
X3205720Y5079700D01*
X3205720Y5095700D02*
X3189720Y5079700D01*
X3190148Y2757255D02*
X3206148Y2741255D01*
X3206148Y2757255D02*
X3190148Y2741255D01*
X3199049Y5372035D02*
X3215049Y5356035D01*
X3215049Y5372035D02*
X3199049Y5356035D01*
X3199049Y3786835D02*
X3215049Y3770835D01*
X3215049Y3786835D02*
X3199049Y3770835D01*
X3199049Y2094135D02*
X3215049Y2078135D01*
X3215049Y2094135D02*
X3199049Y2078135D01*
X3214720Y3551822D02*
X3230720Y3535822D01*
X3230720Y3551822D02*
X3214720Y3535822D01*
X3214720Y3511823D02*
X3230720Y3495823D01*
X3230720Y3511823D02*
X3214720Y3495823D01*
X3214720Y3471822D02*
X3230720Y3455822D01*
X3230720Y3471822D02*
X3214720Y3455822D01*
X3214720Y1817800D02*
X3230720Y1801800D01*
X3230720Y1817800D02*
X3214720Y1801800D01*
X3229720Y5095700D02*
X3245720Y5079700D01*
X3245720Y5095700D02*
X3229720Y5079700D01*
X3254720Y1817800D02*
X3270720Y1801800D01*
X3270720Y1817800D02*
X3254720Y1801800D01*
X3268500Y1574500D02*
X3284500Y1558500D01*
X3284500Y1574500D02*
X3268500Y1558500D01*
X3312220Y4880792D02*
X3328220Y4864792D01*
X3328220Y4880792D02*
X3312220Y4864792D01*
X3559720Y1914535D02*
X3575720Y1898535D01*
X3575720Y1914535D02*
X3559720Y1898535D01*
X3657210Y4562035D02*
X3673210Y4546035D01*
X3673210Y4562035D02*
X3657210Y4546035D01*
X3689720Y5484534D02*
X3705720Y5468534D01*
X3705720Y5484534D02*
X3689720Y5468534D01*
X3717220Y1509957D02*
X3733220Y1493957D01*
X3733220Y1509957D02*
X3717220Y1493957D01*
X3719720Y5007035D02*
X3735720Y4991035D01*
X3735720Y5007035D02*
X3719720Y4991035D01*
X3784720Y5749535D02*
X3800720Y5733535D01*
X3800720Y5749535D02*
X3784720Y5733535D01*
X3799720Y3970535D02*
X3815720Y3954535D01*
X3815720Y3970535D02*
X3799720Y3954535D01*
X3879720Y2337456D02*
X3895720Y2321456D01*
X3895720Y2337456D02*
X3879720Y2321456D01*
X3892220Y5664535D02*
X3908220Y5648535D01*
X3908220Y5664535D02*
X3892220Y5648535D01*
X3943221Y3255203D02*
X3959221Y3239203D01*
X3959221Y3255203D02*
X3943221Y3239203D01*
X3944720Y3597035D02*
X3960720Y3581035D01*
X3960720Y3597035D02*
X3944720Y3581035D01*
X4104720Y1937035D02*
X4120720Y1921035D01*
X4120720Y1937035D02*
X4104720Y1921035D01*
X4229720Y5877035D02*
X4245720Y5861035D01*
X4245720Y5877035D02*
X4229720Y5861035D01*
X4379720Y1942035D02*
X4395720Y1926035D01*
X4395720Y1942035D02*
X4379720Y1926035D01*
X4432220Y1697035D02*
X4448220Y1681035D01*
X4448220Y1697035D02*
X4432220Y1681035D01*
X4432220Y1654535D02*
X4448220Y1638535D01*
X4448220Y1654535D02*
X4432220Y1638535D01*
X4432220Y1608035D02*
X4448220Y1592035D01*
X4448220Y1608035D02*
X4432220Y1592035D01*
X4612220Y1944535D02*
X4628220Y1928535D01*
X4628220Y1944535D02*
X4612220Y1928535D01*
X4614720Y2737035D02*
X4630720Y2721035D01*
X4630720Y2737035D02*
X4614720Y2721035D01*
X4669720Y6164535D02*
X4685720Y6148535D01*
X4685720Y6164535D02*
X4669720Y6148535D01*
X4829920Y3977035D02*
X4845920Y3961035D01*
X4845920Y3977035D02*
X4829920Y3961035D01*
X4839720Y2589535D02*
X4855720Y2573535D01*
X4855720Y2589535D02*
X4839720Y2573535D01*
X4917620Y1944535D02*
X4933620Y1928535D01*
X4933620Y1944535D02*
X4917620Y1928535D01*
X4924920Y3504535D02*
X4940920Y3488535D01*
X4940920Y3504535D02*
X4924920Y3488535D01*
X5232220Y1942035D02*
X5248220Y1926035D01*
X5248220Y1942035D02*
X5232220Y1926035D01*
X4305820Y3989035D02*
G75*
G02*
X4285820Y3989035I-10000J0D01*
G01*
X4285820Y3989035D02*
G75*
G02*
X4305820Y3989035I10000J0D01*
G01*
X4305820Y3919035D02*
G75*
G02*
X4285820Y3919035I-10000J0D01*
G01*
X4285820Y3919035D02*
G75*
G02*
X4305820Y3919035I10000J0D01*
G01*
X4305820Y3851535D02*
G75*
G02*
X4285820Y3851535I-10000J0D01*
G01*
X4285820Y3851535D02*
G75*
G02*
X4305820Y3851535I10000J0D01*
G01*
X4375820Y3989035D02*
G75*
G02*
X4355820Y3989035I-10000J0D01*
G01*
X4355820Y3989035D02*
G75*
G02*
X4375820Y3989035I10000J0D01*
G01*
X4375820Y3919035D02*
G75*
G02*
X4355820Y3919035I-10000J0D01*
G01*
X4355820Y3919035D02*
G75*
G02*
X4375820Y3919035I10000J0D01*
G01*
X4375820Y3851535D02*
G75*
G02*
X4355820Y3851535I-10000J0D01*
G01*
X4355820Y3851535D02*
G75*
G02*
X4375820Y3851535I10000J0D01*
G01*
D11*
X258234Y-314004D02*
X258234Y-114004D01*
X258234Y-114004D02*
X305853Y-114004D01*
X305853Y-114004D02*
X334424Y-123528D01*
X334424Y-123528D02*
X353472Y-142576D01*
X353472Y-142576D02*
X362996Y-161623D01*
X362996Y-161623D02*
X372519Y-199719D01*
X372519Y-199719D02*
X372519Y-228290D01*
X372519Y-228290D02*
X362996Y-266385D01*
X362996Y-266385D02*
X353472Y-285433D01*
X353472Y-285433D02*
X334424Y-304481D01*
X334424Y-304481D02*
X305853Y-314004D01*
X305853Y-314004D02*
X258234Y-314004D01*
X458234Y-314004D02*
X458234Y-180671D01*
X458234Y-218766D02*
X467758Y-199719D01*
X467758Y-199719D02*
X477281Y-190195D01*
X477281Y-190195D02*
X496329Y-180671D01*
X496329Y-180671D02*
X515377Y-180671D01*
X582043Y-314004D02*
X582043Y-180671D01*
X582043Y-114004D02*
X572520Y-123528D01*
X572520Y-123528D02*
X582043Y-133052D01*
X582043Y-133052D02*
X591567Y-123528D01*
X591567Y-123528D02*
X582043Y-114004D01*
X582043Y-114004D02*
X582043Y-133052D01*
X705853Y-314004D02*
X686805Y-304481D01*
X686805Y-304481D02*
X677281Y-285433D01*
X677281Y-285433D02*
X677281Y-114004D01*
X810615Y-314004D02*
X791567Y-304481D01*
X791567Y-304481D02*
X782043Y-285433D01*
X782043Y-285433D02*
X782043Y-114004D01*
X1039186Y-314004D02*
X1039186Y-114004D01*
X1039186Y-114004D02*
X1105853Y-256861D01*
X1105853Y-256861D02*
X1172520Y-114004D01*
X1172520Y-114004D02*
X1172520Y-314004D01*
X1353472Y-314004D02*
X1353472Y-209242D01*
X1353472Y-209242D02*
X1343948Y-190195D01*
X1343948Y-190195D02*
X1324901Y-180671D01*
X1324901Y-180671D02*
X1286805Y-180671D01*
X1286805Y-180671D02*
X1267758Y-190195D01*
X1353472Y-304481D02*
X1334424Y-314004D01*
X1334424Y-314004D02*
X1286805Y-314004D01*
X1286805Y-314004D02*
X1267758Y-304481D01*
X1267758Y-304481D02*
X1258234Y-285433D01*
X1258234Y-285433D02*
X1258234Y-266385D01*
X1258234Y-266385D02*
X1267758Y-247338D01*
X1267758Y-247338D02*
X1286805Y-237814D01*
X1286805Y-237814D02*
X1334424Y-237814D01*
X1334424Y-237814D02*
X1353472Y-228290D01*
X1448710Y-180671D02*
X1448710Y-380671D01*
X1448710Y-190195D02*
X1467758Y-180671D01*
X1467758Y-180671D02*
X1505853Y-180671D01*
X1505853Y-180671D02*
X1524900Y-190195D01*
X1524900Y-190195D02*
X1534424Y-199719D01*
X1534424Y-199719D02*
X1543948Y-218766D01*
X1543948Y-218766D02*
X1543948Y-275909D01*
X1543948Y-275909D02*
X1534424Y-294957D01*
X1534424Y-294957D02*
X1524900Y-304481D01*
X1524900Y-304481D02*
X1505853Y-314004D01*
X1505853Y-314004D02*
X1467758Y-314004D01*
X1467758Y-314004D02*
X1448710Y-304481D01*
X1629662Y-294957D02*
X1639186Y-304481D01*
X1639186Y-304481D02*
X1629662Y-314004D01*
X1629662Y-314004D02*
X1620139Y-304481D01*
X1620139Y-304481D02*
X1629662Y-294957D01*
X1629662Y-294957D02*
X1629662Y-314004D01*
X1629662Y-190195D02*
X1639186Y-199719D01*
X1639186Y-199719D02*
X1629662Y-209242D01*
X1629662Y-209242D02*
X1620139Y-199719D01*
X1620139Y-199719D02*
X1629662Y-190195D01*
X1629662Y-190195D02*
X1629662Y-209242D01*
D12*
X-18543Y-634521D02*
X-2543Y-650521D01*
X-2543Y-634521D02*
X-18543Y-650521D01*
D11*
X296329Y-534004D02*
X315377Y-534004D01*
X315377Y-534004D02*
X334424Y-543528D01*
X334424Y-543528D02*
X343948Y-553052D01*
X343948Y-553052D02*
X353472Y-572100D01*
X353472Y-572100D02*
X362996Y-610195D01*
X362996Y-610195D02*
X362996Y-657814D01*
X362996Y-657814D02*
X353472Y-695909D01*
X353472Y-695909D02*
X343948Y-714957D01*
X343948Y-714957D02*
X334424Y-724481D01*
X334424Y-724481D02*
X315377Y-734004D01*
X315377Y-734004D02*
X296329Y-734004D01*
X296329Y-734004D02*
X277281Y-724481D01*
X277281Y-724481D02*
X267758Y-714957D01*
X267758Y-714957D02*
X258234Y-695909D01*
X258234Y-695909D02*
X248710Y-657814D01*
X248710Y-657814D02*
X248710Y-610195D01*
X248710Y-610195D02*
X258234Y-572100D01*
X258234Y-572100D02*
X267758Y-553052D01*
X267758Y-553052D02*
X277281Y-543528D01*
X277281Y-543528D02*
X296329Y-534004D01*
X448710Y-714957D02*
X458234Y-724481D01*
X458234Y-724481D02*
X448710Y-734004D01*
X448710Y-734004D02*
X439186Y-724481D01*
X439186Y-724481D02*
X448710Y-714957D01*
X448710Y-714957D02*
X448710Y-734004D01*
X648710Y-734004D02*
X534424Y-734004D01*
X591567Y-734004D02*
X591567Y-534004D01*
X591567Y-534004D02*
X572520Y-562576D01*
X572520Y-562576D02*
X553472Y-581623D01*
X553472Y-581623D02*
X534424Y-591147D01*
X820139Y-534004D02*
X782043Y-534004D01*
X782043Y-534004D02*
X762996Y-543528D01*
X762996Y-543528D02*
X753472Y-553052D01*
X753472Y-553052D02*
X734424Y-581623D01*
X734424Y-581623D02*
X724900Y-619719D01*
X724900Y-619719D02*
X724900Y-695909D01*
X724900Y-695909D02*
X734424Y-714957D01*
X734424Y-714957D02*
X743948Y-724481D01*
X743948Y-724481D02*
X762996Y-734004D01*
X762996Y-734004D02*
X801091Y-734004D01*
X801091Y-734004D02*
X820139Y-724481D01*
X820139Y-724481D02*
X829662Y-714957D01*
X829662Y-714957D02*
X839186Y-695909D01*
X839186Y-695909D02*
X839186Y-648290D01*
X839186Y-648290D02*
X829662Y-629243D01*
X829662Y-629243D02*
X820139Y-619719D01*
X820139Y-619719D02*
X801091Y-610195D01*
X801091Y-610195D02*
X762996Y-610195D01*
X762996Y-610195D02*
X743948Y-619719D01*
X743948Y-619719D02*
X734424Y-629243D01*
X734424Y-629243D02*
X724900Y-648290D01*
X962996Y-534004D02*
X982043Y-534004D01*
X982043Y-534004D02*
X1001091Y-543528D01*
X1001091Y-543528D02*
X1010615Y-553052D01*
X1010615Y-553052D02*
X1020139Y-572100D01*
X1020139Y-572100D02*
X1029662Y-610195D01*
X1029662Y-610195D02*
X1029662Y-657814D01*
X1029662Y-657814D02*
X1020139Y-695909D01*
X1020139Y-695909D02*
X1010615Y-714957D01*
X1010615Y-714957D02*
X1001091Y-724481D01*
X1001091Y-724481D02*
X982043Y-734004D01*
X982043Y-734004D02*
X962996Y-734004D01*
X962996Y-734004D02*
X943948Y-724481D01*
X943948Y-724481D02*
X934424Y-714957D01*
X934424Y-714957D02*
X924900Y-695909D01*
X924900Y-695909D02*
X915377Y-657814D01*
X915377Y-657814D02*
X915377Y-610195D01*
X915377Y-610195D02*
X924900Y-572100D01*
X924900Y-572100D02*
X934424Y-553052D01*
X934424Y-553052D02*
X943948Y-543528D01*
X943948Y-543528D02*
X962996Y-534004D01*
X1115377Y-734004D02*
X1115377Y-600671D01*
X1115377Y-619719D02*
X1124901Y-610195D01*
X1124901Y-610195D02*
X1143948Y-600671D01*
X1143948Y-600671D02*
X1172520Y-600671D01*
X1172520Y-600671D02*
X1191567Y-610195D01*
X1191567Y-610195D02*
X1201091Y-629243D01*
X1201091Y-629243D02*
X1201091Y-734004D01*
X1201091Y-629243D02*
X1210615Y-610195D01*
X1210615Y-610195D02*
X1229662Y-600671D01*
X1229662Y-600671D02*
X1258234Y-600671D01*
X1258234Y-600671D02*
X1277282Y-610195D01*
X1277282Y-610195D02*
X1286805Y-629243D01*
X1286805Y-629243D02*
X1286805Y-734004D01*
X1382043Y-734004D02*
X1382043Y-600671D01*
X1382043Y-619719D02*
X1391567Y-610195D01*
X1391567Y-610195D02*
X1410615Y-600671D01*
X1410615Y-600671D02*
X1439186Y-600671D01*
X1439186Y-600671D02*
X1458234Y-610195D01*
X1458234Y-610195D02*
X1467758Y-629243D01*
X1467758Y-629243D02*
X1467758Y-734004D01*
X1467758Y-629243D02*
X1477281Y-610195D01*
X1477281Y-610195D02*
X1496329Y-600671D01*
X1496329Y-600671D02*
X1524900Y-600671D01*
X1524900Y-600671D02*
X1543948Y-610195D01*
X1543948Y-610195D02*
X1553472Y-629243D01*
X1553472Y-629243D02*
X1553472Y-734004D01*
X1943948Y-524481D02*
X1772520Y-781623D01*
X2201091Y-534004D02*
X2220139Y-534004D01*
X2220139Y-534004D02*
X2239186Y-543528D01*
X2239186Y-543528D02*
X2248710Y-553052D01*
X2248710Y-553052D02*
X2258234Y-572100D01*
X2258234Y-572100D02*
X2267758Y-610195D01*
X2267758Y-610195D02*
X2267758Y-657814D01*
X2267758Y-657814D02*
X2258234Y-695909D01*
X2258234Y-695909D02*
X2248710Y-714957D01*
X2248710Y-714957D02*
X2239186Y-724481D01*
X2239186Y-724481D02*
X2220139Y-734004D01*
X2220139Y-734004D02*
X2201091Y-734004D01*
X2201091Y-734004D02*
X2182044Y-724481D01*
X2182044Y-724481D02*
X2172520Y-714957D01*
X2172520Y-714957D02*
X2162996Y-695909D01*
X2162996Y-695909D02*
X2153472Y-657814D01*
X2153472Y-657814D02*
X2153472Y-610195D01*
X2153472Y-610195D02*
X2162996Y-572100D01*
X2162996Y-572100D02*
X2172520Y-553052D01*
X2172520Y-553052D02*
X2182044Y-543528D01*
X2182044Y-543528D02*
X2201091Y-534004D01*
X2353472Y-714957D02*
X2362996Y-724481D01*
X2362996Y-724481D02*
X2353472Y-734004D01*
X2353472Y-734004D02*
X2343948Y-724481D01*
X2343948Y-724481D02*
X2353472Y-714957D01*
X2353472Y-714957D02*
X2353472Y-734004D01*
X2486805Y-534004D02*
X2505853Y-534004D01*
X2505853Y-534004D02*
X2524901Y-543528D01*
X2524901Y-543528D02*
X2534425Y-553052D01*
X2534425Y-553052D02*
X2543948Y-572100D01*
X2543948Y-572100D02*
X2553472Y-610195D01*
X2553472Y-610195D02*
X2553472Y-657814D01*
X2553472Y-657814D02*
X2543948Y-695909D01*
X2543948Y-695909D02*
X2534425Y-714957D01*
X2534425Y-714957D02*
X2524901Y-724481D01*
X2524901Y-724481D02*
X2505853Y-734004D01*
X2505853Y-734004D02*
X2486805Y-734004D01*
X2486805Y-734004D02*
X2467758Y-724481D01*
X2467758Y-724481D02*
X2458234Y-714957D01*
X2458234Y-714957D02*
X2448710Y-695909D01*
X2448710Y-695909D02*
X2439186Y-657814D01*
X2439186Y-657814D02*
X2439186Y-610195D01*
X2439186Y-610195D02*
X2448710Y-572100D01*
X2448710Y-572100D02*
X2458234Y-553052D01*
X2458234Y-553052D02*
X2467758Y-543528D01*
X2467758Y-543528D02*
X2486805Y-534004D01*
X2677282Y-534004D02*
X2696329Y-534004D01*
X2696329Y-534004D02*
X2715377Y-543528D01*
X2715377Y-543528D02*
X2724901Y-553052D01*
X2724901Y-553052D02*
X2734425Y-572100D01*
X2734425Y-572100D02*
X2743948Y-610195D01*
X2743948Y-610195D02*
X2743948Y-657814D01*
X2743948Y-657814D02*
X2734425Y-695909D01*
X2734425Y-695909D02*
X2724901Y-714957D01*
X2724901Y-714957D02*
X2715377Y-724481D01*
X2715377Y-724481D02*
X2696329Y-734004D01*
X2696329Y-734004D02*
X2677282Y-734004D01*
X2677282Y-734004D02*
X2658234Y-724481D01*
X2658234Y-724481D02*
X2648710Y-714957D01*
X2648710Y-714957D02*
X2639186Y-695909D01*
X2639186Y-695909D02*
X2629663Y-657814D01*
X2629663Y-657814D02*
X2629663Y-610195D01*
X2629663Y-610195D02*
X2639186Y-572100D01*
X2639186Y-572100D02*
X2648710Y-553052D01*
X2648710Y-553052D02*
X2658234Y-543528D01*
X2658234Y-543528D02*
X2677282Y-534004D01*
X2915377Y-534004D02*
X2877282Y-534004D01*
X2877282Y-534004D02*
X2858234Y-543528D01*
X2858234Y-543528D02*
X2848710Y-553052D01*
X2848710Y-553052D02*
X2829663Y-581623D01*
X2829663Y-581623D02*
X2820139Y-619719D01*
X2820139Y-619719D02*
X2820139Y-695909D01*
X2820139Y-695909D02*
X2829663Y-714957D01*
X2829663Y-714957D02*
X2839186Y-724481D01*
X2839186Y-724481D02*
X2858234Y-734004D01*
X2858234Y-734004D02*
X2896329Y-734004D01*
X2896329Y-734004D02*
X2915377Y-724481D01*
X2915377Y-724481D02*
X2924901Y-714957D01*
X2924901Y-714957D02*
X2934424Y-695909D01*
X2934424Y-695909D02*
X2934424Y-648290D01*
X2934424Y-648290D02*
X2924901Y-629243D01*
X2924901Y-629243D02*
X2915377Y-619719D01*
X2915377Y-619719D02*
X2896329Y-610195D01*
X2896329Y-610195D02*
X2858234Y-610195D01*
X2858234Y-610195D02*
X2839186Y-619719D01*
X2839186Y-619719D02*
X2829663Y-629243D01*
X2829663Y-629243D02*
X2820139Y-648290D01*
X3001091Y-534004D02*
X3124901Y-534004D01*
X3124901Y-534004D02*
X3058234Y-610195D01*
X3058234Y-610195D02*
X3086805Y-610195D01*
X3086805Y-610195D02*
X3105853Y-619719D01*
X3105853Y-619719D02*
X3115377Y-629243D01*
X3115377Y-629243D02*
X3124901Y-648290D01*
X3124901Y-648290D02*
X3124901Y-695909D01*
X3124901Y-695909D02*
X3115377Y-714957D01*
X3115377Y-714957D02*
X3105853Y-724481D01*
X3105853Y-724481D02*
X3086805Y-734004D01*
X3086805Y-734004D02*
X3029663Y-734004D01*
X3029663Y-734004D02*
X3010615Y-724481D01*
X3010615Y-724481D02*
X3001091Y-714957D01*
X3201091Y-534004D02*
X3201091Y-572100D01*
X3277282Y-534004D02*
X3277282Y-572100D01*
X3572520Y-810195D02*
X3562996Y-800671D01*
X3562996Y-800671D02*
X3543948Y-772100D01*
X3543948Y-772100D02*
X3534425Y-753052D01*
X3534425Y-753052D02*
X3524901Y-724481D01*
X3524901Y-724481D02*
X3515377Y-676862D01*
X3515377Y-676862D02*
X3515377Y-638766D01*
X3515377Y-638766D02*
X3524901Y-591147D01*
X3524901Y-591147D02*
X3534425Y-562576D01*
X3534425Y-562576D02*
X3543948Y-543528D01*
X3543948Y-543528D02*
X3562996Y-514957D01*
X3562996Y-514957D02*
X3572520Y-505433D01*
X3753472Y-734004D02*
X3639186Y-734004D01*
X3696329Y-734004D02*
X3696329Y-534004D01*
X3696329Y-534004D02*
X3677282Y-562576D01*
X3677282Y-562576D02*
X3658234Y-581623D01*
X3658234Y-581623D02*
X3639186Y-591147D01*
X3943948Y-734004D02*
X3829663Y-734004D01*
X3886805Y-734004D02*
X3886805Y-534004D01*
X3886805Y-534004D02*
X3867758Y-562576D01*
X3867758Y-562576D02*
X3848710Y-581623D01*
X3848710Y-581623D02*
X3829663Y-591147D01*
X4039186Y-734004D02*
X4077282Y-734004D01*
X4077282Y-734004D02*
X4096329Y-724481D01*
X4096329Y-724481D02*
X4105853Y-714957D01*
X4105853Y-714957D02*
X4124901Y-686385D01*
X4124901Y-686385D02*
X4134425Y-648290D01*
X4134425Y-648290D02*
X4134425Y-572100D01*
X4134425Y-572100D02*
X4124901Y-553052D01*
X4124901Y-553052D02*
X4115377Y-543528D01*
X4115377Y-543528D02*
X4096329Y-534004D01*
X4096329Y-534004D02*
X4058234Y-534004D01*
X4058234Y-534004D02*
X4039186Y-543528D01*
X4039186Y-543528D02*
X4029663Y-553052D01*
X4029663Y-553052D02*
X4020139Y-572100D01*
X4020139Y-572100D02*
X4020139Y-619719D01*
X4020139Y-619719D02*
X4029663Y-638766D01*
X4029663Y-638766D02*
X4039186Y-648290D01*
X4039186Y-648290D02*
X4058234Y-657814D01*
X4058234Y-657814D02*
X4096329Y-657814D01*
X4096329Y-657814D02*
X4115377Y-648290D01*
X4115377Y-648290D02*
X4124901Y-638766D01*
X4124901Y-638766D02*
X4134425Y-619719D01*
X4372520Y-734004D02*
X4372520Y-534004D01*
X4458234Y-734004D02*
X4458234Y-629243D01*
X4458234Y-629243D02*
X4448710Y-610195D01*
X4448710Y-610195D02*
X4429663Y-600671D01*
X4429663Y-600671D02*
X4401091Y-600671D01*
X4401091Y-600671D02*
X4382044Y-610195D01*
X4382044Y-610195D02*
X4372520Y-619719D01*
X4582044Y-734004D02*
X4562996Y-724481D01*
X4562996Y-724481D02*
X4553472Y-714957D01*
X4553472Y-714957D02*
X4543949Y-695909D01*
X4543949Y-695909D02*
X4543949Y-638766D01*
X4543949Y-638766D02*
X4553472Y-619719D01*
X4553472Y-619719D02*
X4562996Y-610195D01*
X4562996Y-610195D02*
X4582044Y-600671D01*
X4582044Y-600671D02*
X4610615Y-600671D01*
X4610615Y-600671D02*
X4629663Y-610195D01*
X4629663Y-610195D02*
X4639187Y-619719D01*
X4639187Y-619719D02*
X4648710Y-638766D01*
X4648710Y-638766D02*
X4648710Y-695909D01*
X4648710Y-695909D02*
X4639187Y-714957D01*
X4639187Y-714957D02*
X4629663Y-724481D01*
X4629663Y-724481D02*
X4610615Y-734004D01*
X4610615Y-734004D02*
X4582044Y-734004D01*
X4762996Y-734004D02*
X4743949Y-724481D01*
X4743949Y-724481D02*
X4734425Y-705433D01*
X4734425Y-705433D02*
X4734425Y-534004D01*
X4915377Y-724481D02*
X4896330Y-734004D01*
X4896330Y-734004D02*
X4858234Y-734004D01*
X4858234Y-734004D02*
X4839187Y-724481D01*
X4839187Y-724481D02*
X4829663Y-705433D01*
X4829663Y-705433D02*
X4829663Y-629243D01*
X4829663Y-629243D02*
X4839187Y-610195D01*
X4839187Y-610195D02*
X4858234Y-600671D01*
X4858234Y-600671D02*
X4896330Y-600671D01*
X4896330Y-600671D02*
X4915377Y-610195D01*
X4915377Y-610195D02*
X4924901Y-629243D01*
X4924901Y-629243D02*
X4924901Y-648290D01*
X4924901Y-648290D02*
X4829663Y-667338D01*
X5001091Y-724481D02*
X5020139Y-734004D01*
X5020139Y-734004D02*
X5058234Y-734004D01*
X5058234Y-734004D02*
X5077282Y-724481D01*
X5077282Y-724481D02*
X5086806Y-705433D01*
X5086806Y-705433D02*
X5086806Y-695909D01*
X5086806Y-695909D02*
X5077282Y-676862D01*
X5077282Y-676862D02*
X5058234Y-667338D01*
X5058234Y-667338D02*
X5029663Y-667338D01*
X5029663Y-667338D02*
X5010615Y-657814D01*
X5010615Y-657814D02*
X5001091Y-638766D01*
X5001091Y-638766D02*
X5001091Y-629243D01*
X5001091Y-629243D02*
X5010615Y-610195D01*
X5010615Y-610195D02*
X5029663Y-600671D01*
X5029663Y-600671D02*
X5058234Y-600671D01*
X5058234Y-600671D02*
X5077282Y-610195D01*
X5153472Y-810195D02*
X5162996Y-800671D01*
X5162996Y-800671D02*
X5182044Y-772100D01*
X5182044Y-772100D02*
X5191568Y-753052D01*
X5191568Y-753052D02*
X5201091Y-724481D01*
X5201091Y-724481D02*
X5210615Y-676862D01*
X5210615Y-676862D02*
X5210615Y-638766D01*
X5210615Y-638766D02*
X5201091Y-591147D01*
X5201091Y-591147D02*
X5191568Y-562576D01*
X5191568Y-562576D02*
X5182044Y-543528D01*
X5182044Y-543528D02*
X5162996Y-514957D01*
X5162996Y-514957D02*
X5153472Y-505433D01*
D12*
X-2543Y-906521D02*
G75*
G02*
X-22543Y-906521I-10000J0D01*
G01*
X-22543Y-906521D02*
G75*
G02*
X-2543Y-906521I10000J0D01*
G01*
D11*
X296329Y-798004D02*
X315377Y-798004D01*
X315377Y-798004D02*
X334424Y-807528D01*
X334424Y-807528D02*
X343948Y-817052D01*
X343948Y-817052D02*
X353472Y-836100D01*
X353472Y-836100D02*
X362996Y-874195D01*
X362996Y-874195D02*
X362996Y-921814D01*
X362996Y-921814D02*
X353472Y-959909D01*
X353472Y-959909D02*
X343948Y-978957D01*
X343948Y-978957D02*
X334424Y-988481D01*
X334424Y-988481D02*
X315377Y-998004D01*
X315377Y-998004D02*
X296329Y-998004D01*
X296329Y-998004D02*
X277281Y-988481D01*
X277281Y-988481D02*
X267758Y-978957D01*
X267758Y-978957D02*
X258234Y-959909D01*
X258234Y-959909D02*
X248710Y-921814D01*
X248710Y-921814D02*
X248710Y-874195D01*
X248710Y-874195D02*
X258234Y-836100D01*
X258234Y-836100D02*
X267758Y-817052D01*
X267758Y-817052D02*
X277281Y-807528D01*
X277281Y-807528D02*
X296329Y-798004D01*
X448710Y-978957D02*
X458234Y-988481D01*
X458234Y-988481D02*
X448710Y-998004D01*
X448710Y-998004D02*
X439186Y-988481D01*
X439186Y-988481D02*
X448710Y-978957D01*
X448710Y-978957D02*
X448710Y-998004D01*
X534424Y-817052D02*
X543948Y-807528D01*
X543948Y-807528D02*
X562996Y-798004D01*
X562996Y-798004D02*
X610615Y-798004D01*
X610615Y-798004D02*
X629662Y-807528D01*
X629662Y-807528D02*
X639186Y-817052D01*
X639186Y-817052D02*
X648710Y-836100D01*
X648710Y-836100D02*
X648710Y-855147D01*
X648710Y-855147D02*
X639186Y-883719D01*
X639186Y-883719D02*
X524901Y-998004D01*
X524901Y-998004D02*
X648710Y-998004D01*
X772519Y-798004D02*
X791567Y-798004D01*
X791567Y-798004D02*
X810615Y-807528D01*
X810615Y-807528D02*
X820139Y-817052D01*
X820139Y-817052D02*
X829662Y-836100D01*
X829662Y-836100D02*
X839186Y-874195D01*
X839186Y-874195D02*
X839186Y-921814D01*
X839186Y-921814D02*
X829662Y-959909D01*
X829662Y-959909D02*
X820139Y-978957D01*
X820139Y-978957D02*
X810615Y-988481D01*
X810615Y-988481D02*
X791567Y-998004D01*
X791567Y-998004D02*
X772519Y-998004D01*
X772519Y-998004D02*
X753472Y-988481D01*
X753472Y-988481D02*
X743948Y-978957D01*
X743948Y-978957D02*
X734424Y-959909D01*
X734424Y-959909D02*
X724900Y-921814D01*
X724900Y-921814D02*
X724900Y-874195D01*
X724900Y-874195D02*
X734424Y-836100D01*
X734424Y-836100D02*
X743948Y-817052D01*
X743948Y-817052D02*
X753472Y-807528D01*
X753472Y-807528D02*
X772519Y-798004D01*
X962996Y-798004D02*
X982043Y-798004D01*
X982043Y-798004D02*
X1001091Y-807528D01*
X1001091Y-807528D02*
X1010615Y-817052D01*
X1010615Y-817052D02*
X1020139Y-836100D01*
X1020139Y-836100D02*
X1029662Y-874195D01*
X1029662Y-874195D02*
X1029662Y-921814D01*
X1029662Y-921814D02*
X1020139Y-959909D01*
X1020139Y-959909D02*
X1010615Y-978957D01*
X1010615Y-978957D02*
X1001091Y-988481D01*
X1001091Y-988481D02*
X982043Y-998004D01*
X982043Y-998004D02*
X962996Y-998004D01*
X962996Y-998004D02*
X943948Y-988481D01*
X943948Y-988481D02*
X934424Y-978957D01*
X934424Y-978957D02*
X924900Y-959909D01*
X924900Y-959909D02*
X915377Y-921814D01*
X915377Y-921814D02*
X915377Y-874195D01*
X915377Y-874195D02*
X924900Y-836100D01*
X924900Y-836100D02*
X934424Y-817052D01*
X934424Y-817052D02*
X943948Y-807528D01*
X943948Y-807528D02*
X962996Y-798004D01*
X1115377Y-998004D02*
X1115377Y-864671D01*
X1115377Y-883719D02*
X1124901Y-874195D01*
X1124901Y-874195D02*
X1143948Y-864671D01*
X1143948Y-864671D02*
X1172520Y-864671D01*
X1172520Y-864671D02*
X1191567Y-874195D01*
X1191567Y-874195D02*
X1201091Y-893242D01*
X1201091Y-893242D02*
X1201091Y-998004D01*
X1201091Y-893242D02*
X1210615Y-874195D01*
X1210615Y-874195D02*
X1229662Y-864671D01*
X1229662Y-864671D02*
X1258234Y-864671D01*
X1258234Y-864671D02*
X1277282Y-874195D01*
X1277282Y-874195D02*
X1286805Y-893242D01*
X1286805Y-893242D02*
X1286805Y-998004D01*
X1382043Y-998004D02*
X1382043Y-864671D01*
X1382043Y-883719D02*
X1391567Y-874195D01*
X1391567Y-874195D02*
X1410615Y-864671D01*
X1410615Y-864671D02*
X1439186Y-864671D01*
X1439186Y-864671D02*
X1458234Y-874195D01*
X1458234Y-874195D02*
X1467758Y-893242D01*
X1467758Y-893242D02*
X1467758Y-998004D01*
X1467758Y-893242D02*
X1477281Y-874195D01*
X1477281Y-874195D02*
X1496329Y-864671D01*
X1496329Y-864671D02*
X1524900Y-864671D01*
X1524900Y-864671D02*
X1543948Y-874195D01*
X1543948Y-874195D02*
X1553472Y-893242D01*
X1553472Y-893242D02*
X1553472Y-998004D01*
X1943948Y-788481D02*
X1772520Y-1045623D01*
X2201091Y-798004D02*
X2220139Y-798004D01*
X2220139Y-798004D02*
X2239186Y-807528D01*
X2239186Y-807528D02*
X2248710Y-817052D01*
X2248710Y-817052D02*
X2258234Y-836100D01*
X2258234Y-836100D02*
X2267758Y-874195D01*
X2267758Y-874195D02*
X2267758Y-921814D01*
X2267758Y-921814D02*
X2258234Y-959909D01*
X2258234Y-959909D02*
X2248710Y-978957D01*
X2248710Y-978957D02*
X2239186Y-988481D01*
X2239186Y-988481D02*
X2220139Y-998004D01*
X2220139Y-998004D02*
X2201091Y-998004D01*
X2201091Y-998004D02*
X2182044Y-988481D01*
X2182044Y-988481D02*
X2172520Y-978957D01*
X2172520Y-978957D02*
X2162996Y-959909D01*
X2162996Y-959909D02*
X2153472Y-921814D01*
X2153472Y-921814D02*
X2153472Y-874195D01*
X2153472Y-874195D02*
X2162996Y-836100D01*
X2162996Y-836100D02*
X2172520Y-817052D01*
X2172520Y-817052D02*
X2182044Y-807528D01*
X2182044Y-807528D02*
X2201091Y-798004D01*
X2353472Y-978957D02*
X2362996Y-988481D01*
X2362996Y-988481D02*
X2353472Y-998004D01*
X2353472Y-998004D02*
X2343948Y-988481D01*
X2343948Y-988481D02*
X2353472Y-978957D01*
X2353472Y-978957D02*
X2353472Y-998004D01*
X2486805Y-798004D02*
X2505853Y-798004D01*
X2505853Y-798004D02*
X2524901Y-807528D01*
X2524901Y-807528D02*
X2534425Y-817052D01*
X2534425Y-817052D02*
X2543948Y-836100D01*
X2543948Y-836100D02*
X2553472Y-874195D01*
X2553472Y-874195D02*
X2553472Y-921814D01*
X2553472Y-921814D02*
X2543948Y-959909D01*
X2543948Y-959909D02*
X2534425Y-978957D01*
X2534425Y-978957D02*
X2524901Y-988481D01*
X2524901Y-988481D02*
X2505853Y-998004D01*
X2505853Y-998004D02*
X2486805Y-998004D01*
X2486805Y-998004D02*
X2467758Y-988481D01*
X2467758Y-988481D02*
X2458234Y-978957D01*
X2458234Y-978957D02*
X2448710Y-959909D01*
X2448710Y-959909D02*
X2439186Y-921814D01*
X2439186Y-921814D02*
X2439186Y-874195D01*
X2439186Y-874195D02*
X2448710Y-836100D01*
X2448710Y-836100D02*
X2458234Y-817052D01*
X2458234Y-817052D02*
X2467758Y-807528D01*
X2467758Y-807528D02*
X2486805Y-798004D01*
X2677282Y-798004D02*
X2696329Y-798004D01*
X2696329Y-798004D02*
X2715377Y-807528D01*
X2715377Y-807528D02*
X2724901Y-817052D01*
X2724901Y-817052D02*
X2734425Y-836100D01*
X2734425Y-836100D02*
X2743948Y-874195D01*
X2743948Y-874195D02*
X2743948Y-921814D01*
X2743948Y-921814D02*
X2734425Y-959909D01*
X2734425Y-959909D02*
X2724901Y-978957D01*
X2724901Y-978957D02*
X2715377Y-988481D01*
X2715377Y-988481D02*
X2696329Y-998004D01*
X2696329Y-998004D02*
X2677282Y-998004D01*
X2677282Y-998004D02*
X2658234Y-988481D01*
X2658234Y-988481D02*
X2648710Y-978957D01*
X2648710Y-978957D02*
X2639186Y-959909D01*
X2639186Y-959909D02*
X2629663Y-921814D01*
X2629663Y-921814D02*
X2629663Y-874195D01*
X2629663Y-874195D02*
X2639186Y-836100D01*
X2639186Y-836100D02*
X2648710Y-817052D01*
X2648710Y-817052D02*
X2658234Y-807528D01*
X2658234Y-807528D02*
X2677282Y-798004D01*
X2810615Y-798004D02*
X2943948Y-798004D01*
X2943948Y-798004D02*
X2858234Y-998004D01*
X3029663Y-998004D02*
X3067758Y-998004D01*
X3067758Y-998004D02*
X3086805Y-988481D01*
X3086805Y-988481D02*
X3096329Y-978957D01*
X3096329Y-978957D02*
X3115377Y-950385D01*
X3115377Y-950385D02*
X3124901Y-912290D01*
X3124901Y-912290D02*
X3124901Y-836100D01*
X3124901Y-836100D02*
X3115377Y-817052D01*
X3115377Y-817052D02*
X3105853Y-807528D01*
X3105853Y-807528D02*
X3086805Y-798004D01*
X3086805Y-798004D02*
X3048710Y-798004D01*
X3048710Y-798004D02*
X3029663Y-807528D01*
X3029663Y-807528D02*
X3020139Y-817052D01*
X3020139Y-817052D02*
X3010615Y-836100D01*
X3010615Y-836100D02*
X3010615Y-883719D01*
X3010615Y-883719D02*
X3020139Y-902766D01*
X3020139Y-902766D02*
X3029663Y-912290D01*
X3029663Y-912290D02*
X3048710Y-921814D01*
X3048710Y-921814D02*
X3086805Y-921814D01*
X3086805Y-921814D02*
X3105853Y-912290D01*
X3105853Y-912290D02*
X3115377Y-902766D01*
X3115377Y-902766D02*
X3124901Y-883719D01*
X3201091Y-798004D02*
X3201091Y-836100D01*
X3277282Y-798004D02*
X3277282Y-836100D01*
X3572520Y-1074195D02*
X3562996Y-1064671D01*
X3562996Y-1064671D02*
X3543948Y-1036100D01*
X3543948Y-1036100D02*
X3534425Y-1017052D01*
X3534425Y-1017052D02*
X3524901Y-988481D01*
X3524901Y-988481D02*
X3515377Y-940861D01*
X3515377Y-940861D02*
X3515377Y-902766D01*
X3515377Y-902766D02*
X3524901Y-855147D01*
X3524901Y-855147D02*
X3534425Y-826576D01*
X3534425Y-826576D02*
X3543948Y-807528D01*
X3543948Y-807528D02*
X3562996Y-778957D01*
X3562996Y-778957D02*
X3572520Y-769433D01*
X3734425Y-798004D02*
X3696329Y-798004D01*
X3696329Y-798004D02*
X3677282Y-807528D01*
X3677282Y-807528D02*
X3667758Y-817052D01*
X3667758Y-817052D02*
X3648710Y-845623D01*
X3648710Y-845623D02*
X3639186Y-883719D01*
X3639186Y-883719D02*
X3639186Y-959909D01*
X3639186Y-959909D02*
X3648710Y-978957D01*
X3648710Y-978957D02*
X3658234Y-988481D01*
X3658234Y-988481D02*
X3677282Y-998004D01*
X3677282Y-998004D02*
X3715377Y-998004D01*
X3715377Y-998004D02*
X3734425Y-988481D01*
X3734425Y-988481D02*
X3743948Y-978957D01*
X3743948Y-978957D02*
X3753472Y-959909D01*
X3753472Y-959909D02*
X3753472Y-912290D01*
X3753472Y-912290D02*
X3743948Y-893242D01*
X3743948Y-893242D02*
X3734425Y-883719D01*
X3734425Y-883719D02*
X3715377Y-874195D01*
X3715377Y-874195D02*
X3677282Y-874195D01*
X3677282Y-874195D02*
X3658234Y-883719D01*
X3658234Y-883719D02*
X3648710Y-893242D01*
X3648710Y-893242D02*
X3639186Y-912290D01*
X3991567Y-998004D02*
X3991567Y-798004D01*
X4077282Y-998004D02*
X4077282Y-893242D01*
X4077282Y-893242D02*
X4067758Y-874195D01*
X4067758Y-874195D02*
X4048710Y-864671D01*
X4048710Y-864671D02*
X4020139Y-864671D01*
X4020139Y-864671D02*
X4001091Y-874195D01*
X4001091Y-874195D02*
X3991567Y-883719D01*
X4201091Y-998004D02*
X4182044Y-988481D01*
X4182044Y-988481D02*
X4172520Y-978957D01*
X4172520Y-978957D02*
X4162996Y-959909D01*
X4162996Y-959909D02*
X4162996Y-902766D01*
X4162996Y-902766D02*
X4172520Y-883719D01*
X4172520Y-883719D02*
X4182044Y-874195D01*
X4182044Y-874195D02*
X4201091Y-864671D01*
X4201091Y-864671D02*
X4229663Y-864671D01*
X4229663Y-864671D02*
X4248710Y-874195D01*
X4248710Y-874195D02*
X4258234Y-883719D01*
X4258234Y-883719D02*
X4267758Y-902766D01*
X4267758Y-902766D02*
X4267758Y-959909D01*
X4267758Y-959909D02*
X4258234Y-978957D01*
X4258234Y-978957D02*
X4248710Y-988481D01*
X4248710Y-988481D02*
X4229663Y-998004D01*
X4229663Y-998004D02*
X4201091Y-998004D01*
X4382044Y-998004D02*
X4362996Y-988481D01*
X4362996Y-988481D02*
X4353472Y-969433D01*
X4353472Y-969433D02*
X4353472Y-798004D01*
X4534425Y-988481D02*
X4515377Y-998004D01*
X4515377Y-998004D02*
X4477282Y-998004D01*
X4477282Y-998004D02*
X4458234Y-988481D01*
X4458234Y-988481D02*
X4448710Y-969433D01*
X4448710Y-969433D02*
X4448710Y-893242D01*
X4448710Y-893242D02*
X4458234Y-874195D01*
X4458234Y-874195D02*
X4477282Y-864671D01*
X4477282Y-864671D02*
X4515377Y-864671D01*
X4515377Y-864671D02*
X4534425Y-874195D01*
X4534425Y-874195D02*
X4543949Y-893242D01*
X4543949Y-893242D02*
X4543949Y-912290D01*
X4543949Y-912290D02*
X4448710Y-931338D01*
X4620139Y-988481D02*
X4639187Y-998004D01*
X4639187Y-998004D02*
X4677282Y-998004D01*
X4677282Y-998004D02*
X4696330Y-988481D01*
X4696330Y-988481D02*
X4705853Y-969433D01*
X4705853Y-969433D02*
X4705853Y-959909D01*
X4705853Y-959909D02*
X4696330Y-940861D01*
X4696330Y-940861D02*
X4677282Y-931338D01*
X4677282Y-931338D02*
X4648710Y-931338D01*
X4648710Y-931338D02*
X4629663Y-921814D01*
X4629663Y-921814D02*
X4620139Y-902766D01*
X4620139Y-902766D02*
X4620139Y-893242D01*
X4620139Y-893242D02*
X4629663Y-874195D01*
X4629663Y-874195D02*
X4648710Y-864671D01*
X4648710Y-864671D02*
X4677282Y-864671D01*
X4677282Y-864671D02*
X4696330Y-874195D01*
X4772520Y-1074195D02*
X4782044Y-1064671D01*
X4782044Y-1064671D02*
X4801091Y-1036100D01*
X4801091Y-1036100D02*
X4810615Y-1017052D01*
X4810615Y-1017052D02*
X4820139Y-988481D01*
X4820139Y-988481D02*
X4829663Y-940861D01*
X4829663Y-940861D02*
X4829663Y-902766D01*
X4829663Y-902766D02*
X4820139Y-855147D01*
X4820139Y-855147D02*
X4810615Y-826576D01*
X4810615Y-826576D02*
X4801091Y-807528D01*
X4801091Y-807528D02*
X4782044Y-778957D01*
X4782044Y-778957D02*
X4772520Y-769433D01*
M02*
