%TF.GenerationSoftware,KiCad,Pcbnew,8.0.2*%
%TF.CreationDate,2024-09-08T21:36:49-05:00*%
%TF.ProjectId,PM1C_Rev_1_2,504d3143-5f52-4657-965f-315f322e6b69,1*%
%TF.SameCoordinates,PX297003ePY8770cd2*%
%TF.FileFunction,Copper,L3,Inr*%
%TF.FilePolarity,Positive*%
%FSLAX46Y46*%
G04 Gerber Fmt 4.6, Leading zero omitted, Abs format (unit mm)*
G04 Created by KiCad (PCBNEW 8.0.2) date 2024-09-08 21:36:49*
%MOMM*%
%LPD*%
G01*
G04 APERTURE LIST*
%ADD10C,0.100000*%
%ADD11C,0.150000*%
%ADD12C,0.300000*%
%ADD13C,0.400000*%
%ADD14C,0.200000*%
%TA.AperFunction,NonConductor*%
%ADD15C,0.200000*%
%TD*%
%TA.AperFunction,ComponentPad*%
%ADD16O,4.064000X2.540000*%
%TD*%
%TA.AperFunction,ComponentPad*%
%ADD17O,4.064000X1.828800*%
%TD*%
%TA.AperFunction,ComponentPad*%
%ADD18R,1.500000X1.500000*%
%TD*%
%TA.AperFunction,ComponentPad*%
%ADD19C,1.500000*%
%TD*%
%TA.AperFunction,ComponentPad*%
%ADD20C,0.800000*%
%TD*%
%TA.AperFunction,ComponentPad*%
%ADD21C,1.143000*%
%TD*%
%TA.AperFunction,ComponentPad*%
%ADD22C,1.141748*%
%TD*%
%TA.AperFunction,ViaPad*%
%ADD23C,0.450000*%
%TD*%
%TA.AperFunction,ViaPad*%
%ADD24C,0.800000*%
%TD*%
%TA.AperFunction,ViaPad*%
%ADD25C,0.360000*%
%TD*%
%TA.AperFunction,Conductor*%
%ADD26C,0.200000*%
%TD*%
%TA.AperFunction,Conductor*%
%ADD27C,0.254000*%
%TD*%
%TA.AperFunction,Conductor*%
%ADD28C,0.250000*%
%TD*%
%TA.AperFunction,Conductor*%
%ADD29C,0.400000*%
%TD*%
%TA.AperFunction,Conductor*%
%ADD30C,0.600000*%
%TD*%
%TA.AperFunction,Conductor*%
%ADD31C,0.500000*%
%TD*%
G04 APERTURE END LIST*
D10*
D11*
X268349570Y-93380206D02*
X376349570Y-93380206D01*
X376349570Y-125380206D01*
X268349570Y-125380206D01*
X268349570Y-93380206D01*
D10*
D11*
X-33450430Y132019794D02*
X378349570Y132019794D01*
X378349570Y-127380206D01*
X-33450430Y-127380206D01*
X-33450430Y132019794D01*
D10*
D11*
X-31450430Y130019794D02*
X376349570Y130019794D01*
X376349570Y-125380206D01*
X-31450430Y-125380206D01*
X-31450430Y130019794D01*
D10*
D11*
X16549570Y130019794D02*
X16549570Y132019794D01*
D10*
D11*
X66549570Y130019794D02*
X66549570Y132019794D01*
D10*
D11*
X116549570Y130019794D02*
X116549570Y132019794D01*
D10*
D11*
X166549570Y130019794D02*
X166549570Y132019794D01*
D10*
D11*
X216549570Y130019794D02*
X216549570Y132019794D01*
D10*
D11*
X266549570Y130019794D02*
X266549570Y132019794D01*
D10*
D11*
X316549570Y130019794D02*
X316549570Y132019794D01*
D10*
D11*
X366549570Y130019794D02*
X366549570Y132019794D01*
D10*
D11*
X-7361270Y130426190D02*
X-8104127Y130426190D01*
X-7732699Y130426190D02*
X-7732699Y131726190D01*
X-7732699Y131726190D02*
X-7856508Y131540475D01*
X-7856508Y131540475D02*
X-7980318Y131416666D01*
X-7980318Y131416666D02*
X-8104127Y131354761D01*
D10*
D11*
X41895873Y131602380D02*
X41957777Y131664285D01*
X41957777Y131664285D02*
X42081587Y131726190D01*
X42081587Y131726190D02*
X42391111Y131726190D01*
X42391111Y131726190D02*
X42514920Y131664285D01*
X42514920Y131664285D02*
X42576825Y131602380D01*
X42576825Y131602380D02*
X42638730Y131478571D01*
X42638730Y131478571D02*
X42638730Y131354761D01*
X42638730Y131354761D02*
X42576825Y131169047D01*
X42576825Y131169047D02*
X41833968Y130426190D01*
X41833968Y130426190D02*
X42638730Y130426190D01*
D10*
D11*
X91833968Y131726190D02*
X92638730Y131726190D01*
X92638730Y131726190D02*
X92205396Y131230952D01*
X92205396Y131230952D02*
X92391111Y131230952D01*
X92391111Y131230952D02*
X92514920Y131169047D01*
X92514920Y131169047D02*
X92576825Y131107142D01*
X92576825Y131107142D02*
X92638730Y130983333D01*
X92638730Y130983333D02*
X92638730Y130673809D01*
X92638730Y130673809D02*
X92576825Y130549999D01*
X92576825Y130549999D02*
X92514920Y130488094D01*
X92514920Y130488094D02*
X92391111Y130426190D01*
X92391111Y130426190D02*
X92019682Y130426190D01*
X92019682Y130426190D02*
X91895873Y130488094D01*
X91895873Y130488094D02*
X91833968Y130549999D01*
D10*
D11*
X142514920Y131292856D02*
X142514920Y130426190D01*
X142205396Y131788094D02*
X141895873Y130859523D01*
X141895873Y130859523D02*
X142700634Y130859523D01*
D10*
D11*
X192576825Y131726190D02*
X191957777Y131726190D01*
X191957777Y131726190D02*
X191895873Y131107142D01*
X191895873Y131107142D02*
X191957777Y131169047D01*
X191957777Y131169047D02*
X192081587Y131230952D01*
X192081587Y131230952D02*
X192391111Y131230952D01*
X192391111Y131230952D02*
X192514920Y131169047D01*
X192514920Y131169047D02*
X192576825Y131107142D01*
X192576825Y131107142D02*
X192638730Y130983333D01*
X192638730Y130983333D02*
X192638730Y130673809D01*
X192638730Y130673809D02*
X192576825Y130549999D01*
X192576825Y130549999D02*
X192514920Y130488094D01*
X192514920Y130488094D02*
X192391111Y130426190D01*
X192391111Y130426190D02*
X192081587Y130426190D01*
X192081587Y130426190D02*
X191957777Y130488094D01*
X191957777Y130488094D02*
X191895873Y130549999D01*
D10*
D11*
X242514920Y131726190D02*
X242267301Y131726190D01*
X242267301Y131726190D02*
X242143492Y131664285D01*
X242143492Y131664285D02*
X242081587Y131602380D01*
X242081587Y131602380D02*
X241957777Y131416666D01*
X241957777Y131416666D02*
X241895873Y131169047D01*
X241895873Y131169047D02*
X241895873Y130673809D01*
X241895873Y130673809D02*
X241957777Y130549999D01*
X241957777Y130549999D02*
X242019682Y130488094D01*
X242019682Y130488094D02*
X242143492Y130426190D01*
X242143492Y130426190D02*
X242391111Y130426190D01*
X242391111Y130426190D02*
X242514920Y130488094D01*
X242514920Y130488094D02*
X242576825Y130549999D01*
X242576825Y130549999D02*
X242638730Y130673809D01*
X242638730Y130673809D02*
X242638730Y130983333D01*
X242638730Y130983333D02*
X242576825Y131107142D01*
X242576825Y131107142D02*
X242514920Y131169047D01*
X242514920Y131169047D02*
X242391111Y131230952D01*
X242391111Y131230952D02*
X242143492Y131230952D01*
X242143492Y131230952D02*
X242019682Y131169047D01*
X242019682Y131169047D02*
X241957777Y131107142D01*
X241957777Y131107142D02*
X241895873Y130983333D01*
D10*
D11*
X291833968Y131726190D02*
X292700634Y131726190D01*
X292700634Y131726190D02*
X292143492Y130426190D01*
D10*
D11*
X342143492Y131169047D02*
X342019682Y131230952D01*
X342019682Y131230952D02*
X341957777Y131292856D01*
X341957777Y131292856D02*
X341895873Y131416666D01*
X341895873Y131416666D02*
X341895873Y131478571D01*
X341895873Y131478571D02*
X341957777Y131602380D01*
X341957777Y131602380D02*
X342019682Y131664285D01*
X342019682Y131664285D02*
X342143492Y131726190D01*
X342143492Y131726190D02*
X342391111Y131726190D01*
X342391111Y131726190D02*
X342514920Y131664285D01*
X342514920Y131664285D02*
X342576825Y131602380D01*
X342576825Y131602380D02*
X342638730Y131478571D01*
X342638730Y131478571D02*
X342638730Y131416666D01*
X342638730Y131416666D02*
X342576825Y131292856D01*
X342576825Y131292856D02*
X342514920Y131230952D01*
X342514920Y131230952D02*
X342391111Y131169047D01*
X342391111Y131169047D02*
X342143492Y131169047D01*
X342143492Y131169047D02*
X342019682Y131107142D01*
X342019682Y131107142D02*
X341957777Y131045237D01*
X341957777Y131045237D02*
X341895873Y130921428D01*
X341895873Y130921428D02*
X341895873Y130673809D01*
X341895873Y130673809D02*
X341957777Y130549999D01*
X341957777Y130549999D02*
X342019682Y130488094D01*
X342019682Y130488094D02*
X342143492Y130426190D01*
X342143492Y130426190D02*
X342391111Y130426190D01*
X342391111Y130426190D02*
X342514920Y130488094D01*
X342514920Y130488094D02*
X342576825Y130549999D01*
X342576825Y130549999D02*
X342638730Y130673809D01*
X342638730Y130673809D02*
X342638730Y130921428D01*
X342638730Y130921428D02*
X342576825Y131045237D01*
X342576825Y131045237D02*
X342514920Y131107142D01*
X342514920Y131107142D02*
X342391111Y131169047D01*
D10*
D11*
X16549570Y-125380206D02*
X16549570Y-127380206D01*
D10*
D11*
X66549570Y-125380206D02*
X66549570Y-127380206D01*
D10*
D11*
X116549570Y-125380206D02*
X116549570Y-127380206D01*
D10*
D11*
X166549570Y-125380206D02*
X166549570Y-127380206D01*
D10*
D11*
X216549570Y-125380206D02*
X216549570Y-127380206D01*
D10*
D11*
X266549570Y-125380206D02*
X266549570Y-127380206D01*
D10*
D11*
X316549570Y-125380206D02*
X316549570Y-127380206D01*
D10*
D11*
X366549570Y-125380206D02*
X366549570Y-127380206D01*
D10*
D11*
X-7361270Y-126973810D02*
X-8104127Y-126973810D01*
X-7732699Y-126973810D02*
X-7732699Y-125673810D01*
X-7732699Y-125673810D02*
X-7856508Y-125859525D01*
X-7856508Y-125859525D02*
X-7980318Y-125983334D01*
X-7980318Y-125983334D02*
X-8104127Y-126045239D01*
D10*
D11*
X41895873Y-125797620D02*
X41957777Y-125735715D01*
X41957777Y-125735715D02*
X42081587Y-125673810D01*
X42081587Y-125673810D02*
X42391111Y-125673810D01*
X42391111Y-125673810D02*
X42514920Y-125735715D01*
X42514920Y-125735715D02*
X42576825Y-125797620D01*
X42576825Y-125797620D02*
X42638730Y-125921429D01*
X42638730Y-125921429D02*
X42638730Y-126045239D01*
X42638730Y-126045239D02*
X42576825Y-126230953D01*
X42576825Y-126230953D02*
X41833968Y-126973810D01*
X41833968Y-126973810D02*
X42638730Y-126973810D01*
D10*
D11*
X91833968Y-125673810D02*
X92638730Y-125673810D01*
X92638730Y-125673810D02*
X92205396Y-126169048D01*
X92205396Y-126169048D02*
X92391111Y-126169048D01*
X92391111Y-126169048D02*
X92514920Y-126230953D01*
X92514920Y-126230953D02*
X92576825Y-126292858D01*
X92576825Y-126292858D02*
X92638730Y-126416667D01*
X92638730Y-126416667D02*
X92638730Y-126726191D01*
X92638730Y-126726191D02*
X92576825Y-126850001D01*
X92576825Y-126850001D02*
X92514920Y-126911906D01*
X92514920Y-126911906D02*
X92391111Y-126973810D01*
X92391111Y-126973810D02*
X92019682Y-126973810D01*
X92019682Y-126973810D02*
X91895873Y-126911906D01*
X91895873Y-126911906D02*
X91833968Y-126850001D01*
D10*
D11*
X142514920Y-126107144D02*
X142514920Y-126973810D01*
X142205396Y-125611906D02*
X141895873Y-126540477D01*
X141895873Y-126540477D02*
X142700634Y-126540477D01*
D10*
D11*
X192576825Y-125673810D02*
X191957777Y-125673810D01*
X191957777Y-125673810D02*
X191895873Y-126292858D01*
X191895873Y-126292858D02*
X191957777Y-126230953D01*
X191957777Y-126230953D02*
X192081587Y-126169048D01*
X192081587Y-126169048D02*
X192391111Y-126169048D01*
X192391111Y-126169048D02*
X192514920Y-126230953D01*
X192514920Y-126230953D02*
X192576825Y-126292858D01*
X192576825Y-126292858D02*
X192638730Y-126416667D01*
X192638730Y-126416667D02*
X192638730Y-126726191D01*
X192638730Y-126726191D02*
X192576825Y-126850001D01*
X192576825Y-126850001D02*
X192514920Y-126911906D01*
X192514920Y-126911906D02*
X192391111Y-126973810D01*
X192391111Y-126973810D02*
X192081587Y-126973810D01*
X192081587Y-126973810D02*
X191957777Y-126911906D01*
X191957777Y-126911906D02*
X191895873Y-126850001D01*
D10*
D11*
X242514920Y-125673810D02*
X242267301Y-125673810D01*
X242267301Y-125673810D02*
X242143492Y-125735715D01*
X242143492Y-125735715D02*
X242081587Y-125797620D01*
X242081587Y-125797620D02*
X241957777Y-125983334D01*
X241957777Y-125983334D02*
X241895873Y-126230953D01*
X241895873Y-126230953D02*
X241895873Y-126726191D01*
X241895873Y-126726191D02*
X241957777Y-126850001D01*
X241957777Y-126850001D02*
X242019682Y-126911906D01*
X242019682Y-126911906D02*
X242143492Y-126973810D01*
X242143492Y-126973810D02*
X242391111Y-126973810D01*
X242391111Y-126973810D02*
X242514920Y-126911906D01*
X242514920Y-126911906D02*
X242576825Y-126850001D01*
X242576825Y-126850001D02*
X242638730Y-126726191D01*
X242638730Y-126726191D02*
X242638730Y-126416667D01*
X242638730Y-126416667D02*
X242576825Y-126292858D01*
X242576825Y-126292858D02*
X242514920Y-126230953D01*
X242514920Y-126230953D02*
X242391111Y-126169048D01*
X242391111Y-126169048D02*
X242143492Y-126169048D01*
X242143492Y-126169048D02*
X242019682Y-126230953D01*
X242019682Y-126230953D02*
X241957777Y-126292858D01*
X241957777Y-126292858D02*
X241895873Y-126416667D01*
D10*
D11*
X291833968Y-125673810D02*
X292700634Y-125673810D01*
X292700634Y-125673810D02*
X292143492Y-126973810D01*
D10*
D11*
X342143492Y-126230953D02*
X342019682Y-126169048D01*
X342019682Y-126169048D02*
X341957777Y-126107144D01*
X341957777Y-126107144D02*
X341895873Y-125983334D01*
X341895873Y-125983334D02*
X341895873Y-125921429D01*
X341895873Y-125921429D02*
X341957777Y-125797620D01*
X341957777Y-125797620D02*
X342019682Y-125735715D01*
X342019682Y-125735715D02*
X342143492Y-125673810D01*
X342143492Y-125673810D02*
X342391111Y-125673810D01*
X342391111Y-125673810D02*
X342514920Y-125735715D01*
X342514920Y-125735715D02*
X342576825Y-125797620D01*
X342576825Y-125797620D02*
X342638730Y-125921429D01*
X342638730Y-125921429D02*
X342638730Y-125983334D01*
X342638730Y-125983334D02*
X342576825Y-126107144D01*
X342576825Y-126107144D02*
X342514920Y-126169048D01*
X342514920Y-126169048D02*
X342391111Y-126230953D01*
X342391111Y-126230953D02*
X342143492Y-126230953D01*
X342143492Y-126230953D02*
X342019682Y-126292858D01*
X342019682Y-126292858D02*
X341957777Y-126354763D01*
X341957777Y-126354763D02*
X341895873Y-126478572D01*
X341895873Y-126478572D02*
X341895873Y-126726191D01*
X341895873Y-126726191D02*
X341957777Y-126850001D01*
X341957777Y-126850001D02*
X342019682Y-126911906D01*
X342019682Y-126911906D02*
X342143492Y-126973810D01*
X342143492Y-126973810D02*
X342391111Y-126973810D01*
X342391111Y-126973810D02*
X342514920Y-126911906D01*
X342514920Y-126911906D02*
X342576825Y-126850001D01*
X342576825Y-126850001D02*
X342638730Y-126726191D01*
X342638730Y-126726191D02*
X342638730Y-126478572D01*
X342638730Y-126478572D02*
X342576825Y-126354763D01*
X342576825Y-126354763D02*
X342514920Y-126292858D01*
X342514920Y-126292858D02*
X342391111Y-126230953D01*
D10*
D11*
X-33450430Y82019794D02*
X-31450430Y82019794D01*
D10*
D11*
X-33450430Y32019794D02*
X-31450430Y32019794D01*
D10*
D11*
X-33450430Y-17980206D02*
X-31450430Y-17980206D01*
D10*
D11*
X-33450430Y-67980206D02*
X-31450430Y-67980206D01*
D10*
D11*
X-33450430Y-117980206D02*
X-31450430Y-117980206D01*
D10*
D11*
X-32759954Y106797618D02*
X-32140907Y106797618D01*
X-32883764Y106426190D02*
X-32450431Y107726190D01*
X-32450431Y107726190D02*
X-32017097Y106426190D01*
D10*
D11*
X-32357573Y57107142D02*
X-32171859Y57045237D01*
X-32171859Y57045237D02*
X-32109954Y56983333D01*
X-32109954Y56983333D02*
X-32048050Y56859523D01*
X-32048050Y56859523D02*
X-32048050Y56673809D01*
X-32048050Y56673809D02*
X-32109954Y56549999D01*
X-32109954Y56549999D02*
X-32171859Y56488094D01*
X-32171859Y56488094D02*
X-32295669Y56426190D01*
X-32295669Y56426190D02*
X-32790907Y56426190D01*
X-32790907Y56426190D02*
X-32790907Y57726190D01*
X-32790907Y57726190D02*
X-32357573Y57726190D01*
X-32357573Y57726190D02*
X-32233764Y57664285D01*
X-32233764Y57664285D02*
X-32171859Y57602380D01*
X-32171859Y57602380D02*
X-32109954Y57478571D01*
X-32109954Y57478571D02*
X-32109954Y57354761D01*
X-32109954Y57354761D02*
X-32171859Y57230952D01*
X-32171859Y57230952D02*
X-32233764Y57169047D01*
X-32233764Y57169047D02*
X-32357573Y57107142D01*
X-32357573Y57107142D02*
X-32790907Y57107142D01*
D10*
D11*
X-32048050Y6549999D02*
X-32109954Y6488094D01*
X-32109954Y6488094D02*
X-32295669Y6426190D01*
X-32295669Y6426190D02*
X-32419478Y6426190D01*
X-32419478Y6426190D02*
X-32605192Y6488094D01*
X-32605192Y6488094D02*
X-32729002Y6611904D01*
X-32729002Y6611904D02*
X-32790907Y6735714D01*
X-32790907Y6735714D02*
X-32852811Y6983333D01*
X-32852811Y6983333D02*
X-32852811Y7169047D01*
X-32852811Y7169047D02*
X-32790907Y7416666D01*
X-32790907Y7416666D02*
X-32729002Y7540475D01*
X-32729002Y7540475D02*
X-32605192Y7664285D01*
X-32605192Y7664285D02*
X-32419478Y7726190D01*
X-32419478Y7726190D02*
X-32295669Y7726190D01*
X-32295669Y7726190D02*
X-32109954Y7664285D01*
X-32109954Y7664285D02*
X-32048050Y7602380D01*
D10*
D11*
X-32790907Y-43573810D02*
X-32790907Y-42273810D01*
X-32790907Y-42273810D02*
X-32481383Y-42273810D01*
X-32481383Y-42273810D02*
X-32295669Y-42335715D01*
X-32295669Y-42335715D02*
X-32171859Y-42459525D01*
X-32171859Y-42459525D02*
X-32109954Y-42583334D01*
X-32109954Y-42583334D02*
X-32048050Y-42830953D01*
X-32048050Y-42830953D02*
X-32048050Y-43016667D01*
X-32048050Y-43016667D02*
X-32109954Y-43264286D01*
X-32109954Y-43264286D02*
X-32171859Y-43388096D01*
X-32171859Y-43388096D02*
X-32295669Y-43511906D01*
X-32295669Y-43511906D02*
X-32481383Y-43573810D01*
X-32481383Y-43573810D02*
X-32790907Y-43573810D01*
D10*
D11*
X-32729002Y-92892858D02*
X-32295668Y-92892858D01*
X-32109954Y-93573810D02*
X-32729002Y-93573810D01*
X-32729002Y-93573810D02*
X-32729002Y-92273810D01*
X-32729002Y-92273810D02*
X-32109954Y-92273810D01*
D10*
D11*
X378349570Y82019794D02*
X376349570Y82019794D01*
D10*
D11*
X378349570Y32019794D02*
X376349570Y32019794D01*
D10*
D11*
X378349570Y-17980206D02*
X376349570Y-17980206D01*
D10*
D11*
X378349570Y-67980206D02*
X376349570Y-67980206D01*
D10*
D11*
X378349570Y-117980206D02*
X376349570Y-117980206D01*
D10*
D11*
X377040046Y106797618D02*
X377659093Y106797618D01*
X376916236Y106426190D02*
X377349569Y107726190D01*
X377349569Y107726190D02*
X377782903Y106426190D01*
D10*
D11*
X377442427Y57107142D02*
X377628141Y57045237D01*
X377628141Y57045237D02*
X377690046Y56983333D01*
X377690046Y56983333D02*
X377751950Y56859523D01*
X377751950Y56859523D02*
X377751950Y56673809D01*
X377751950Y56673809D02*
X377690046Y56549999D01*
X377690046Y56549999D02*
X377628141Y56488094D01*
X377628141Y56488094D02*
X377504331Y56426190D01*
X377504331Y56426190D02*
X377009093Y56426190D01*
X377009093Y56426190D02*
X377009093Y57726190D01*
X377009093Y57726190D02*
X377442427Y57726190D01*
X377442427Y57726190D02*
X377566236Y57664285D01*
X377566236Y57664285D02*
X377628141Y57602380D01*
X377628141Y57602380D02*
X377690046Y57478571D01*
X377690046Y57478571D02*
X377690046Y57354761D01*
X377690046Y57354761D02*
X377628141Y57230952D01*
X377628141Y57230952D02*
X377566236Y57169047D01*
X377566236Y57169047D02*
X377442427Y57107142D01*
X377442427Y57107142D02*
X377009093Y57107142D01*
D10*
D11*
X377751950Y6549999D02*
X377690046Y6488094D01*
X377690046Y6488094D02*
X377504331Y6426190D01*
X377504331Y6426190D02*
X377380522Y6426190D01*
X377380522Y6426190D02*
X377194808Y6488094D01*
X377194808Y6488094D02*
X377070998Y6611904D01*
X377070998Y6611904D02*
X377009093Y6735714D01*
X377009093Y6735714D02*
X376947189Y6983333D01*
X376947189Y6983333D02*
X376947189Y7169047D01*
X376947189Y7169047D02*
X377009093Y7416666D01*
X377009093Y7416666D02*
X377070998Y7540475D01*
X377070998Y7540475D02*
X377194808Y7664285D01*
X377194808Y7664285D02*
X377380522Y7726190D01*
X377380522Y7726190D02*
X377504331Y7726190D01*
X377504331Y7726190D02*
X377690046Y7664285D01*
X377690046Y7664285D02*
X377751950Y7602380D01*
D10*
D11*
X377009093Y-43573810D02*
X377009093Y-42273810D01*
X377009093Y-42273810D02*
X377318617Y-42273810D01*
X377318617Y-42273810D02*
X377504331Y-42335715D01*
X377504331Y-42335715D02*
X377628141Y-42459525D01*
X377628141Y-42459525D02*
X377690046Y-42583334D01*
X377690046Y-42583334D02*
X377751950Y-42830953D01*
X377751950Y-42830953D02*
X377751950Y-43016667D01*
X377751950Y-43016667D02*
X377690046Y-43264286D01*
X377690046Y-43264286D02*
X377628141Y-43388096D01*
X377628141Y-43388096D02*
X377504331Y-43511906D01*
X377504331Y-43511906D02*
X377318617Y-43573810D01*
X377318617Y-43573810D02*
X377009093Y-43573810D01*
D10*
D11*
X377070998Y-92892858D02*
X377504332Y-92892858D01*
X377690046Y-93573810D02*
X377070998Y-93573810D01*
X377070998Y-93573810D02*
X377070998Y-92273810D01*
X377070998Y-92273810D02*
X377690046Y-92273810D01*
D10*
D11*
X291805396Y-121166334D02*
X291805396Y-119666334D01*
X291805396Y-119666334D02*
X292162539Y-119666334D01*
X292162539Y-119666334D02*
X292376825Y-119737763D01*
X292376825Y-119737763D02*
X292519682Y-119880620D01*
X292519682Y-119880620D02*
X292591111Y-120023477D01*
X292591111Y-120023477D02*
X292662539Y-120309191D01*
X292662539Y-120309191D02*
X292662539Y-120523477D01*
X292662539Y-120523477D02*
X292591111Y-120809191D01*
X292591111Y-120809191D02*
X292519682Y-120952048D01*
X292519682Y-120952048D02*
X292376825Y-121094906D01*
X292376825Y-121094906D02*
X292162539Y-121166334D01*
X292162539Y-121166334D02*
X291805396Y-121166334D01*
X293948254Y-121166334D02*
X293948254Y-120380620D01*
X293948254Y-120380620D02*
X293876825Y-120237763D01*
X293876825Y-120237763D02*
X293733968Y-120166334D01*
X293733968Y-120166334D02*
X293448254Y-120166334D01*
X293448254Y-120166334D02*
X293305396Y-120237763D01*
X293948254Y-121094906D02*
X293805396Y-121166334D01*
X293805396Y-121166334D02*
X293448254Y-121166334D01*
X293448254Y-121166334D02*
X293305396Y-121094906D01*
X293305396Y-121094906D02*
X293233968Y-120952048D01*
X293233968Y-120952048D02*
X293233968Y-120809191D01*
X293233968Y-120809191D02*
X293305396Y-120666334D01*
X293305396Y-120666334D02*
X293448254Y-120594906D01*
X293448254Y-120594906D02*
X293805396Y-120594906D01*
X293805396Y-120594906D02*
X293948254Y-120523477D01*
X294448254Y-120166334D02*
X295019682Y-120166334D01*
X294662539Y-119666334D02*
X294662539Y-120952048D01*
X294662539Y-120952048D02*
X294733968Y-121094906D01*
X294733968Y-121094906D02*
X294876825Y-121166334D01*
X294876825Y-121166334D02*
X295019682Y-121166334D01*
X296091111Y-121094906D02*
X295948254Y-121166334D01*
X295948254Y-121166334D02*
X295662540Y-121166334D01*
X295662540Y-121166334D02*
X295519682Y-121094906D01*
X295519682Y-121094906D02*
X295448254Y-120952048D01*
X295448254Y-120952048D02*
X295448254Y-120380620D01*
X295448254Y-120380620D02*
X295519682Y-120237763D01*
X295519682Y-120237763D02*
X295662540Y-120166334D01*
X295662540Y-120166334D02*
X295948254Y-120166334D01*
X295948254Y-120166334D02*
X296091111Y-120237763D01*
X296091111Y-120237763D02*
X296162540Y-120380620D01*
X296162540Y-120380620D02*
X296162540Y-120523477D01*
X296162540Y-120523477D02*
X295448254Y-120666334D01*
X296805396Y-121023477D02*
X296876825Y-121094906D01*
X296876825Y-121094906D02*
X296805396Y-121166334D01*
X296805396Y-121166334D02*
X296733968Y-121094906D01*
X296733968Y-121094906D02*
X296805396Y-121023477D01*
X296805396Y-121023477D02*
X296805396Y-121166334D01*
X296805396Y-120237763D02*
X296876825Y-120309191D01*
X296876825Y-120309191D02*
X296805396Y-120380620D01*
X296805396Y-120380620D02*
X296733968Y-120309191D01*
X296733968Y-120309191D02*
X296805396Y-120237763D01*
X296805396Y-120237763D02*
X296805396Y-120380620D01*
X298591111Y-119809191D02*
X298662539Y-119737763D01*
X298662539Y-119737763D02*
X298805397Y-119666334D01*
X298805397Y-119666334D02*
X299162539Y-119666334D01*
X299162539Y-119666334D02*
X299305397Y-119737763D01*
X299305397Y-119737763D02*
X299376825Y-119809191D01*
X299376825Y-119809191D02*
X299448254Y-119952048D01*
X299448254Y-119952048D02*
X299448254Y-120094906D01*
X299448254Y-120094906D02*
X299376825Y-120309191D01*
X299376825Y-120309191D02*
X298519682Y-121166334D01*
X298519682Y-121166334D02*
X299448254Y-121166334D01*
X300376825Y-119666334D02*
X300519682Y-119666334D01*
X300519682Y-119666334D02*
X300662539Y-119737763D01*
X300662539Y-119737763D02*
X300733968Y-119809191D01*
X300733968Y-119809191D02*
X300805396Y-119952048D01*
X300805396Y-119952048D02*
X300876825Y-120237763D01*
X300876825Y-120237763D02*
X300876825Y-120594906D01*
X300876825Y-120594906D02*
X300805396Y-120880620D01*
X300805396Y-120880620D02*
X300733968Y-121023477D01*
X300733968Y-121023477D02*
X300662539Y-121094906D01*
X300662539Y-121094906D02*
X300519682Y-121166334D01*
X300519682Y-121166334D02*
X300376825Y-121166334D01*
X300376825Y-121166334D02*
X300233968Y-121094906D01*
X300233968Y-121094906D02*
X300162539Y-121023477D01*
X300162539Y-121023477D02*
X300091110Y-120880620D01*
X300091110Y-120880620D02*
X300019682Y-120594906D01*
X300019682Y-120594906D02*
X300019682Y-120237763D01*
X300019682Y-120237763D02*
X300091110Y-119952048D01*
X300091110Y-119952048D02*
X300162539Y-119809191D01*
X300162539Y-119809191D02*
X300233968Y-119737763D01*
X300233968Y-119737763D02*
X300376825Y-119666334D01*
X301448253Y-119809191D02*
X301519681Y-119737763D01*
X301519681Y-119737763D02*
X301662539Y-119666334D01*
X301662539Y-119666334D02*
X302019681Y-119666334D01*
X302019681Y-119666334D02*
X302162539Y-119737763D01*
X302162539Y-119737763D02*
X302233967Y-119809191D01*
X302233967Y-119809191D02*
X302305396Y-119952048D01*
X302305396Y-119952048D02*
X302305396Y-120094906D01*
X302305396Y-120094906D02*
X302233967Y-120309191D01*
X302233967Y-120309191D02*
X301376824Y-121166334D01*
X301376824Y-121166334D02*
X302305396Y-121166334D01*
X303591110Y-120166334D02*
X303591110Y-121166334D01*
X303233967Y-119594906D02*
X302876824Y-120666334D01*
X302876824Y-120666334D02*
X303805395Y-120666334D01*
X304376823Y-120594906D02*
X305519681Y-120594906D01*
X306519681Y-119666334D02*
X306662538Y-119666334D01*
X306662538Y-119666334D02*
X306805395Y-119737763D01*
X306805395Y-119737763D02*
X306876824Y-119809191D01*
X306876824Y-119809191D02*
X306948252Y-119952048D01*
X306948252Y-119952048D02*
X307019681Y-120237763D01*
X307019681Y-120237763D02*
X307019681Y-120594906D01*
X307019681Y-120594906D02*
X306948252Y-120880620D01*
X306948252Y-120880620D02*
X306876824Y-121023477D01*
X306876824Y-121023477D02*
X306805395Y-121094906D01*
X306805395Y-121094906D02*
X306662538Y-121166334D01*
X306662538Y-121166334D02*
X306519681Y-121166334D01*
X306519681Y-121166334D02*
X306376824Y-121094906D01*
X306376824Y-121094906D02*
X306305395Y-121023477D01*
X306305395Y-121023477D02*
X306233966Y-120880620D01*
X306233966Y-120880620D02*
X306162538Y-120594906D01*
X306162538Y-120594906D02*
X306162538Y-120237763D01*
X306162538Y-120237763D02*
X306233966Y-119952048D01*
X306233966Y-119952048D02*
X306305395Y-119809191D01*
X306305395Y-119809191D02*
X306376824Y-119737763D01*
X306376824Y-119737763D02*
X306519681Y-119666334D01*
X307519680Y-119666334D02*
X308519680Y-119666334D01*
X308519680Y-119666334D02*
X307876823Y-121166334D01*
X309091108Y-120594906D02*
X310233966Y-120594906D01*
X310876823Y-119809191D02*
X310948251Y-119737763D01*
X310948251Y-119737763D02*
X311091109Y-119666334D01*
X311091109Y-119666334D02*
X311448251Y-119666334D01*
X311448251Y-119666334D02*
X311591109Y-119737763D01*
X311591109Y-119737763D02*
X311662537Y-119809191D01*
X311662537Y-119809191D02*
X311733966Y-119952048D01*
X311733966Y-119952048D02*
X311733966Y-120094906D01*
X311733966Y-120094906D02*
X311662537Y-120309191D01*
X311662537Y-120309191D02*
X310805394Y-121166334D01*
X310805394Y-121166334D02*
X311733966Y-121166334D01*
X313091108Y-119666334D02*
X312376822Y-119666334D01*
X312376822Y-119666334D02*
X312305394Y-120380620D01*
X312305394Y-120380620D02*
X312376822Y-120309191D01*
X312376822Y-120309191D02*
X312519680Y-120237763D01*
X312519680Y-120237763D02*
X312876822Y-120237763D01*
X312876822Y-120237763D02*
X313019680Y-120309191D01*
X313019680Y-120309191D02*
X313091108Y-120380620D01*
X313091108Y-120380620D02*
X313162537Y-120523477D01*
X313162537Y-120523477D02*
X313162537Y-120880620D01*
X313162537Y-120880620D02*
X313091108Y-121023477D01*
X313091108Y-121023477D02*
X313019680Y-121094906D01*
X313019680Y-121094906D02*
X312876822Y-121166334D01*
X312876822Y-121166334D02*
X312519680Y-121166334D01*
X312519680Y-121166334D02*
X312376822Y-121094906D01*
X312376822Y-121094906D02*
X312305394Y-121023477D01*
D10*
D11*
X268349570Y-121880206D02*
X376349570Y-121880206D01*
D10*
D11*
X269805396Y-123966334D02*
X269805396Y-122466334D01*
X270662539Y-123966334D02*
X270019682Y-123109191D01*
X270662539Y-122466334D02*
X269805396Y-123323477D01*
X271305396Y-123966334D02*
X271305396Y-122966334D01*
X271305396Y-122466334D02*
X271233968Y-122537763D01*
X271233968Y-122537763D02*
X271305396Y-122609191D01*
X271305396Y-122609191D02*
X271376825Y-122537763D01*
X271376825Y-122537763D02*
X271305396Y-122466334D01*
X271305396Y-122466334D02*
X271305396Y-122609191D01*
X272876825Y-123823477D02*
X272805397Y-123894906D01*
X272805397Y-123894906D02*
X272591111Y-123966334D01*
X272591111Y-123966334D02*
X272448254Y-123966334D01*
X272448254Y-123966334D02*
X272233968Y-123894906D01*
X272233968Y-123894906D02*
X272091111Y-123752048D01*
X272091111Y-123752048D02*
X272019682Y-123609191D01*
X272019682Y-123609191D02*
X271948254Y-123323477D01*
X271948254Y-123323477D02*
X271948254Y-123109191D01*
X271948254Y-123109191D02*
X272019682Y-122823477D01*
X272019682Y-122823477D02*
X272091111Y-122680620D01*
X272091111Y-122680620D02*
X272233968Y-122537763D01*
X272233968Y-122537763D02*
X272448254Y-122466334D01*
X272448254Y-122466334D02*
X272591111Y-122466334D01*
X272591111Y-122466334D02*
X272805397Y-122537763D01*
X272805397Y-122537763D02*
X272876825Y-122609191D01*
X274162540Y-123966334D02*
X274162540Y-123180620D01*
X274162540Y-123180620D02*
X274091111Y-123037763D01*
X274091111Y-123037763D02*
X273948254Y-122966334D01*
X273948254Y-122966334D02*
X273662540Y-122966334D01*
X273662540Y-122966334D02*
X273519682Y-123037763D01*
X274162540Y-123894906D02*
X274019682Y-123966334D01*
X274019682Y-123966334D02*
X273662540Y-123966334D01*
X273662540Y-123966334D02*
X273519682Y-123894906D01*
X273519682Y-123894906D02*
X273448254Y-123752048D01*
X273448254Y-123752048D02*
X273448254Y-123609191D01*
X273448254Y-123609191D02*
X273519682Y-123466334D01*
X273519682Y-123466334D02*
X273662540Y-123394906D01*
X273662540Y-123394906D02*
X274019682Y-123394906D01*
X274019682Y-123394906D02*
X274162540Y-123323477D01*
X275519683Y-123966334D02*
X275519683Y-122466334D01*
X275519683Y-123894906D02*
X275376825Y-123966334D01*
X275376825Y-123966334D02*
X275091111Y-123966334D01*
X275091111Y-123966334D02*
X274948254Y-123894906D01*
X274948254Y-123894906D02*
X274876825Y-123823477D01*
X274876825Y-123823477D02*
X274805397Y-123680620D01*
X274805397Y-123680620D02*
X274805397Y-123252048D01*
X274805397Y-123252048D02*
X274876825Y-123109191D01*
X274876825Y-123109191D02*
X274948254Y-123037763D01*
X274948254Y-123037763D02*
X275091111Y-122966334D01*
X275091111Y-122966334D02*
X275376825Y-122966334D01*
X275376825Y-122966334D02*
X275519683Y-123037763D01*
X277376825Y-123180620D02*
X277876825Y-123180620D01*
X278091111Y-123966334D02*
X277376825Y-123966334D01*
X277376825Y-123966334D02*
X277376825Y-122466334D01*
X277376825Y-122466334D02*
X278091111Y-122466334D01*
X278733968Y-123823477D02*
X278805397Y-123894906D01*
X278805397Y-123894906D02*
X278733968Y-123966334D01*
X278733968Y-123966334D02*
X278662540Y-123894906D01*
X278662540Y-123894906D02*
X278733968Y-123823477D01*
X278733968Y-123823477D02*
X278733968Y-123966334D01*
X279448254Y-123966334D02*
X279448254Y-122466334D01*
X279448254Y-122466334D02*
X279805397Y-122466334D01*
X279805397Y-122466334D02*
X280019683Y-122537763D01*
X280019683Y-122537763D02*
X280162540Y-122680620D01*
X280162540Y-122680620D02*
X280233969Y-122823477D01*
X280233969Y-122823477D02*
X280305397Y-123109191D01*
X280305397Y-123109191D02*
X280305397Y-123323477D01*
X280305397Y-123323477D02*
X280233969Y-123609191D01*
X280233969Y-123609191D02*
X280162540Y-123752048D01*
X280162540Y-123752048D02*
X280019683Y-123894906D01*
X280019683Y-123894906D02*
X279805397Y-123966334D01*
X279805397Y-123966334D02*
X279448254Y-123966334D01*
X280948254Y-123823477D02*
X281019683Y-123894906D01*
X281019683Y-123894906D02*
X280948254Y-123966334D01*
X280948254Y-123966334D02*
X280876826Y-123894906D01*
X280876826Y-123894906D02*
X280948254Y-123823477D01*
X280948254Y-123823477D02*
X280948254Y-123966334D01*
X281591112Y-123537763D02*
X282305398Y-123537763D01*
X281448255Y-123966334D02*
X281948255Y-122466334D01*
X281948255Y-122466334D02*
X282448255Y-123966334D01*
X282948254Y-123823477D02*
X283019683Y-123894906D01*
X283019683Y-123894906D02*
X282948254Y-123966334D01*
X282948254Y-123966334D02*
X282876826Y-123894906D01*
X282876826Y-123894906D02*
X282948254Y-123823477D01*
X282948254Y-123823477D02*
X282948254Y-123966334D01*
X285019683Y-123109191D02*
X284876826Y-123037763D01*
X284876826Y-123037763D02*
X284805397Y-122966334D01*
X284805397Y-122966334D02*
X284733969Y-122823477D01*
X284733969Y-122823477D02*
X284733969Y-122752048D01*
X284733969Y-122752048D02*
X284805397Y-122609191D01*
X284805397Y-122609191D02*
X284876826Y-122537763D01*
X284876826Y-122537763D02*
X285019683Y-122466334D01*
X285019683Y-122466334D02*
X285305397Y-122466334D01*
X285305397Y-122466334D02*
X285448255Y-122537763D01*
X285448255Y-122537763D02*
X285519683Y-122609191D01*
X285519683Y-122609191D02*
X285591112Y-122752048D01*
X285591112Y-122752048D02*
X285591112Y-122823477D01*
X285591112Y-122823477D02*
X285519683Y-122966334D01*
X285519683Y-122966334D02*
X285448255Y-123037763D01*
X285448255Y-123037763D02*
X285305397Y-123109191D01*
X285305397Y-123109191D02*
X285019683Y-123109191D01*
X285019683Y-123109191D02*
X284876826Y-123180620D01*
X284876826Y-123180620D02*
X284805397Y-123252048D01*
X284805397Y-123252048D02*
X284733969Y-123394906D01*
X284733969Y-123394906D02*
X284733969Y-123680620D01*
X284733969Y-123680620D02*
X284805397Y-123823477D01*
X284805397Y-123823477D02*
X284876826Y-123894906D01*
X284876826Y-123894906D02*
X285019683Y-123966334D01*
X285019683Y-123966334D02*
X285305397Y-123966334D01*
X285305397Y-123966334D02*
X285448255Y-123894906D01*
X285448255Y-123894906D02*
X285519683Y-123823477D01*
X285519683Y-123823477D02*
X285591112Y-123680620D01*
X285591112Y-123680620D02*
X285591112Y-123394906D01*
X285591112Y-123394906D02*
X285519683Y-123252048D01*
X285519683Y-123252048D02*
X285448255Y-123180620D01*
X285448255Y-123180620D02*
X285305397Y-123109191D01*
X286233968Y-123823477D02*
X286305397Y-123894906D01*
X286305397Y-123894906D02*
X286233968Y-123966334D01*
X286233968Y-123966334D02*
X286162540Y-123894906D01*
X286162540Y-123894906D02*
X286233968Y-123823477D01*
X286233968Y-123823477D02*
X286233968Y-123966334D01*
X287233969Y-122466334D02*
X287376826Y-122466334D01*
X287376826Y-122466334D02*
X287519683Y-122537763D01*
X287519683Y-122537763D02*
X287591112Y-122609191D01*
X287591112Y-122609191D02*
X287662540Y-122752048D01*
X287662540Y-122752048D02*
X287733969Y-123037763D01*
X287733969Y-123037763D02*
X287733969Y-123394906D01*
X287733969Y-123394906D02*
X287662540Y-123680620D01*
X287662540Y-123680620D02*
X287591112Y-123823477D01*
X287591112Y-123823477D02*
X287519683Y-123894906D01*
X287519683Y-123894906D02*
X287376826Y-123966334D01*
X287376826Y-123966334D02*
X287233969Y-123966334D01*
X287233969Y-123966334D02*
X287091112Y-123894906D01*
X287091112Y-123894906D02*
X287019683Y-123823477D01*
X287019683Y-123823477D02*
X286948254Y-123680620D01*
X286948254Y-123680620D02*
X286876826Y-123394906D01*
X286876826Y-123394906D02*
X286876826Y-123037763D01*
X286876826Y-123037763D02*
X286948254Y-122752048D01*
X286948254Y-122752048D02*
X287019683Y-122609191D01*
X287019683Y-122609191D02*
X287091112Y-122537763D01*
X287091112Y-122537763D02*
X287233969Y-122466334D01*
X288376825Y-123823477D02*
X288448254Y-123894906D01*
X288448254Y-123894906D02*
X288376825Y-123966334D01*
X288376825Y-123966334D02*
X288305397Y-123894906D01*
X288305397Y-123894906D02*
X288376825Y-123823477D01*
X288376825Y-123823477D02*
X288376825Y-123966334D01*
X289019683Y-122609191D02*
X289091111Y-122537763D01*
X289091111Y-122537763D02*
X289233969Y-122466334D01*
X289233969Y-122466334D02*
X289591111Y-122466334D01*
X289591111Y-122466334D02*
X289733969Y-122537763D01*
X289733969Y-122537763D02*
X289805397Y-122609191D01*
X289805397Y-122609191D02*
X289876826Y-122752048D01*
X289876826Y-122752048D02*
X289876826Y-122894906D01*
X289876826Y-122894906D02*
X289805397Y-123109191D01*
X289805397Y-123109191D02*
X288948254Y-123966334D01*
X288948254Y-123966334D02*
X289876826Y-123966334D01*
D10*
D11*
X268349570Y-118880206D02*
X376349570Y-118880206D01*
D10*
D12*
X355761223Y-121158534D02*
X355261223Y-120444248D01*
X354904080Y-121158534D02*
X354904080Y-119658534D01*
X354904080Y-119658534D02*
X355475509Y-119658534D01*
X355475509Y-119658534D02*
X355618366Y-119729963D01*
X355618366Y-119729963D02*
X355689795Y-119801391D01*
X355689795Y-119801391D02*
X355761223Y-119944248D01*
X355761223Y-119944248D02*
X355761223Y-120158534D01*
X355761223Y-120158534D02*
X355689795Y-120301391D01*
X355689795Y-120301391D02*
X355618366Y-120372820D01*
X355618366Y-120372820D02*
X355475509Y-120444248D01*
X355475509Y-120444248D02*
X354904080Y-120444248D01*
X356975509Y-121087106D02*
X356832652Y-121158534D01*
X356832652Y-121158534D02*
X356546938Y-121158534D01*
X356546938Y-121158534D02*
X356404080Y-121087106D01*
X356404080Y-121087106D02*
X356332652Y-120944248D01*
X356332652Y-120944248D02*
X356332652Y-120372820D01*
X356332652Y-120372820D02*
X356404080Y-120229963D01*
X356404080Y-120229963D02*
X356546938Y-120158534D01*
X356546938Y-120158534D02*
X356832652Y-120158534D01*
X356832652Y-120158534D02*
X356975509Y-120229963D01*
X356975509Y-120229963D02*
X357046938Y-120372820D01*
X357046938Y-120372820D02*
X357046938Y-120515677D01*
X357046938Y-120515677D02*
X356332652Y-120658534D01*
X357546937Y-120158534D02*
X357904080Y-121158534D01*
X357904080Y-121158534D02*
X358261223Y-120158534D01*
X358832651Y-121015677D02*
X358904080Y-121087106D01*
X358904080Y-121087106D02*
X358832651Y-121158534D01*
X358832651Y-121158534D02*
X358761223Y-121087106D01*
X358761223Y-121087106D02*
X358832651Y-121015677D01*
X358832651Y-121015677D02*
X358832651Y-121158534D01*
X358832651Y-120229963D02*
X358904080Y-120301391D01*
X358904080Y-120301391D02*
X358832651Y-120372820D01*
X358832651Y-120372820D02*
X358761223Y-120301391D01*
X358761223Y-120301391D02*
X358832651Y-120229963D01*
X358832651Y-120229963D02*
X358832651Y-120372820D01*
X361475509Y-121158534D02*
X360618366Y-121158534D01*
X361046937Y-121158534D02*
X361046937Y-119658534D01*
X361046937Y-119658534D02*
X360904080Y-119872820D01*
X360904080Y-119872820D02*
X360761223Y-120015677D01*
X360761223Y-120015677D02*
X360618366Y-120087106D01*
D10*
D11*
X269733968Y-121094906D02*
X269948254Y-121166334D01*
X269948254Y-121166334D02*
X270305396Y-121166334D01*
X270305396Y-121166334D02*
X270448254Y-121094906D01*
X270448254Y-121094906D02*
X270519682Y-121023477D01*
X270519682Y-121023477D02*
X270591111Y-120880620D01*
X270591111Y-120880620D02*
X270591111Y-120737763D01*
X270591111Y-120737763D02*
X270519682Y-120594906D01*
X270519682Y-120594906D02*
X270448254Y-120523477D01*
X270448254Y-120523477D02*
X270305396Y-120452048D01*
X270305396Y-120452048D02*
X270019682Y-120380620D01*
X270019682Y-120380620D02*
X269876825Y-120309191D01*
X269876825Y-120309191D02*
X269805396Y-120237763D01*
X269805396Y-120237763D02*
X269733968Y-120094906D01*
X269733968Y-120094906D02*
X269733968Y-119952048D01*
X269733968Y-119952048D02*
X269805396Y-119809191D01*
X269805396Y-119809191D02*
X269876825Y-119737763D01*
X269876825Y-119737763D02*
X270019682Y-119666334D01*
X270019682Y-119666334D02*
X270376825Y-119666334D01*
X270376825Y-119666334D02*
X270591111Y-119737763D01*
X271233967Y-121166334D02*
X271233967Y-120166334D01*
X271233967Y-119666334D02*
X271162539Y-119737763D01*
X271162539Y-119737763D02*
X271233967Y-119809191D01*
X271233967Y-119809191D02*
X271305396Y-119737763D01*
X271305396Y-119737763D02*
X271233967Y-119666334D01*
X271233967Y-119666334D02*
X271233967Y-119809191D01*
X271805396Y-120166334D02*
X272591111Y-120166334D01*
X272591111Y-120166334D02*
X271805396Y-121166334D01*
X271805396Y-121166334D02*
X272591111Y-121166334D01*
X273733968Y-121094906D02*
X273591111Y-121166334D01*
X273591111Y-121166334D02*
X273305397Y-121166334D01*
X273305397Y-121166334D02*
X273162539Y-121094906D01*
X273162539Y-121094906D02*
X273091111Y-120952048D01*
X273091111Y-120952048D02*
X273091111Y-120380620D01*
X273091111Y-120380620D02*
X273162539Y-120237763D01*
X273162539Y-120237763D02*
X273305397Y-120166334D01*
X273305397Y-120166334D02*
X273591111Y-120166334D01*
X273591111Y-120166334D02*
X273733968Y-120237763D01*
X273733968Y-120237763D02*
X273805397Y-120380620D01*
X273805397Y-120380620D02*
X273805397Y-120523477D01*
X273805397Y-120523477D02*
X273091111Y-120666334D01*
X274448253Y-121023477D02*
X274519682Y-121094906D01*
X274519682Y-121094906D02*
X274448253Y-121166334D01*
X274448253Y-121166334D02*
X274376825Y-121094906D01*
X274376825Y-121094906D02*
X274448253Y-121023477D01*
X274448253Y-121023477D02*
X274448253Y-121166334D01*
X274448253Y-120237763D02*
X274519682Y-120309191D01*
X274519682Y-120309191D02*
X274448253Y-120380620D01*
X274448253Y-120380620D02*
X274376825Y-120309191D01*
X274376825Y-120309191D02*
X274448253Y-120237763D01*
X274448253Y-120237763D02*
X274448253Y-120380620D01*
X276805396Y-120380620D02*
X277019682Y-120452048D01*
X277019682Y-120452048D02*
X277091111Y-120523477D01*
X277091111Y-120523477D02*
X277162539Y-120666334D01*
X277162539Y-120666334D02*
X277162539Y-120880620D01*
X277162539Y-120880620D02*
X277091111Y-121023477D01*
X277091111Y-121023477D02*
X277019682Y-121094906D01*
X277019682Y-121094906D02*
X276876825Y-121166334D01*
X276876825Y-121166334D02*
X276305396Y-121166334D01*
X276305396Y-121166334D02*
X276305396Y-119666334D01*
X276305396Y-119666334D02*
X276805396Y-119666334D01*
X276805396Y-119666334D02*
X276948254Y-119737763D01*
X276948254Y-119737763D02*
X277019682Y-119809191D01*
X277019682Y-119809191D02*
X277091111Y-119952048D01*
X277091111Y-119952048D02*
X277091111Y-120094906D01*
X277091111Y-120094906D02*
X277019682Y-120237763D01*
X277019682Y-120237763D02*
X276948254Y-120309191D01*
X276948254Y-120309191D02*
X276805396Y-120380620D01*
X276805396Y-120380620D02*
X276305396Y-120380620D01*
D10*
D11*
X354805396Y-123966334D02*
X354805396Y-122466334D01*
X356162540Y-123966334D02*
X356162540Y-122466334D01*
X356162540Y-123894906D02*
X356019682Y-123966334D01*
X356019682Y-123966334D02*
X355733968Y-123966334D01*
X355733968Y-123966334D02*
X355591111Y-123894906D01*
X355591111Y-123894906D02*
X355519682Y-123823477D01*
X355519682Y-123823477D02*
X355448254Y-123680620D01*
X355448254Y-123680620D02*
X355448254Y-123252048D01*
X355448254Y-123252048D02*
X355519682Y-123109191D01*
X355519682Y-123109191D02*
X355591111Y-123037763D01*
X355591111Y-123037763D02*
X355733968Y-122966334D01*
X355733968Y-122966334D02*
X356019682Y-122966334D01*
X356019682Y-122966334D02*
X356162540Y-123037763D01*
X356876825Y-123823477D02*
X356948254Y-123894906D01*
X356948254Y-123894906D02*
X356876825Y-123966334D01*
X356876825Y-123966334D02*
X356805397Y-123894906D01*
X356805397Y-123894906D02*
X356876825Y-123823477D01*
X356876825Y-123823477D02*
X356876825Y-123966334D01*
X356876825Y-123037763D02*
X356948254Y-123109191D01*
X356948254Y-123109191D02*
X356876825Y-123180620D01*
X356876825Y-123180620D02*
X356805397Y-123109191D01*
X356805397Y-123109191D02*
X356876825Y-123037763D01*
X356876825Y-123037763D02*
X356876825Y-123180620D01*
X359519683Y-123966334D02*
X358662540Y-123966334D01*
X359091111Y-123966334D02*
X359091111Y-122466334D01*
X359091111Y-122466334D02*
X358948254Y-122680620D01*
X358948254Y-122680620D02*
X358805397Y-122823477D01*
X358805397Y-122823477D02*
X358662540Y-122894906D01*
X361233968Y-122394906D02*
X359948254Y-124323477D01*
X362519683Y-123966334D02*
X361662540Y-123966334D01*
X362091111Y-123966334D02*
X362091111Y-122466334D01*
X362091111Y-122466334D02*
X361948254Y-122680620D01*
X361948254Y-122680620D02*
X361805397Y-122823477D01*
X361805397Y-122823477D02*
X361662540Y-122894906D01*
D10*
D11*
X268349570Y-114880206D02*
X376349570Y-114880206D01*
D10*
D13*
X270041298Y-115584644D02*
X271184155Y-115584644D01*
X270362727Y-117584644D02*
X270612727Y-115584644D01*
X271600822Y-117584644D02*
X271767489Y-116251310D01*
X271850822Y-115584644D02*
X271743679Y-115679882D01*
X271743679Y-115679882D02*
X271827013Y-115775120D01*
X271827013Y-115775120D02*
X271934156Y-115679882D01*
X271934156Y-115679882D02*
X271850822Y-115584644D01*
X271850822Y-115584644D02*
X271827013Y-115775120D01*
X272434156Y-116251310D02*
X273196060Y-116251310D01*
X272803203Y-115584644D02*
X272588918Y-117298929D01*
X272588918Y-117298929D02*
X272660346Y-117489406D01*
X272660346Y-117489406D02*
X272838918Y-117584644D01*
X272838918Y-117584644D02*
X273029394Y-117584644D01*
X273981775Y-117584644D02*
X273803203Y-117489406D01*
X273803203Y-117489406D02*
X273731775Y-117298929D01*
X273731775Y-117298929D02*
X273946060Y-115584644D01*
X275517489Y-117489406D02*
X275315108Y-117584644D01*
X275315108Y-117584644D02*
X274934155Y-117584644D01*
X274934155Y-117584644D02*
X274755584Y-117489406D01*
X274755584Y-117489406D02*
X274684155Y-117298929D01*
X274684155Y-117298929D02*
X274779394Y-116537025D01*
X274779394Y-116537025D02*
X274898441Y-116346548D01*
X274898441Y-116346548D02*
X275100822Y-116251310D01*
X275100822Y-116251310D02*
X275481774Y-116251310D01*
X275481774Y-116251310D02*
X275660346Y-116346548D01*
X275660346Y-116346548D02*
X275731774Y-116537025D01*
X275731774Y-116537025D02*
X275707965Y-116727501D01*
X275707965Y-116727501D02*
X274731774Y-116917977D01*
X276481775Y-117394167D02*
X276565108Y-117489406D01*
X276565108Y-117489406D02*
X276457965Y-117584644D01*
X276457965Y-117584644D02*
X276374632Y-117489406D01*
X276374632Y-117489406D02*
X276481775Y-117394167D01*
X276481775Y-117394167D02*
X276457965Y-117584644D01*
X276612727Y-116346548D02*
X276696060Y-116441786D01*
X276696060Y-116441786D02*
X276588918Y-116537025D01*
X276588918Y-116537025D02*
X276505584Y-116441786D01*
X276505584Y-116441786D02*
X276612727Y-116346548D01*
X276612727Y-116346548D02*
X276588918Y-116537025D01*
X278934156Y-117584644D02*
X279184156Y-115584644D01*
X279184156Y-115584644D02*
X279946061Y-115584644D01*
X279946061Y-115584644D02*
X280124632Y-115679882D01*
X280124632Y-115679882D02*
X280207966Y-115775120D01*
X280207966Y-115775120D02*
X280279394Y-115965596D01*
X280279394Y-115965596D02*
X280243680Y-116251310D01*
X280243680Y-116251310D02*
X280124632Y-116441786D01*
X280124632Y-116441786D02*
X280017490Y-116537025D01*
X280017490Y-116537025D02*
X279815109Y-116632263D01*
X279815109Y-116632263D02*
X279053204Y-116632263D01*
X280934156Y-117584644D02*
X281184156Y-115584644D01*
X281184156Y-115584644D02*
X281672251Y-117013215D01*
X281672251Y-117013215D02*
X282517490Y-115584644D01*
X282517490Y-115584644D02*
X282267490Y-117584644D01*
X284267489Y-117584644D02*
X283124632Y-117584644D01*
X283696061Y-117584644D02*
X283946061Y-115584644D01*
X283946061Y-115584644D02*
X283719870Y-115870358D01*
X283719870Y-115870358D02*
X283505585Y-116060834D01*
X283505585Y-116060834D02*
X283303204Y-116156072D01*
X286291299Y-117394167D02*
X286184156Y-117489406D01*
X286184156Y-117489406D02*
X285886537Y-117584644D01*
X285886537Y-117584644D02*
X285696061Y-117584644D01*
X285696061Y-117584644D02*
X285422251Y-117489406D01*
X285422251Y-117489406D02*
X285255585Y-117298929D01*
X285255585Y-117298929D02*
X285184156Y-117108453D01*
X285184156Y-117108453D02*
X285136537Y-116727501D01*
X285136537Y-116727501D02*
X285172251Y-116441786D01*
X285172251Y-116441786D02*
X285315108Y-116060834D01*
X285315108Y-116060834D02*
X285434156Y-115870358D01*
X285434156Y-115870358D02*
X285648442Y-115679882D01*
X285648442Y-115679882D02*
X285946061Y-115584644D01*
X285946061Y-115584644D02*
X286136537Y-115584644D01*
X286136537Y-115584644D02*
X286410347Y-115679882D01*
X286410347Y-115679882D02*
X286493680Y-115775120D01*
X288648442Y-117584644D02*
X288898442Y-115584644D01*
X288898442Y-115584644D02*
X289660347Y-115584644D01*
X289660347Y-115584644D02*
X289838918Y-115679882D01*
X289838918Y-115679882D02*
X289922252Y-115775120D01*
X289922252Y-115775120D02*
X289993680Y-115965596D01*
X289993680Y-115965596D02*
X289957966Y-116251310D01*
X289957966Y-116251310D02*
X289838918Y-116441786D01*
X289838918Y-116441786D02*
X289731776Y-116537025D01*
X289731776Y-116537025D02*
X289529395Y-116632263D01*
X289529395Y-116632263D02*
X288767490Y-116632263D01*
X291815109Y-117394167D02*
X291707966Y-117489406D01*
X291707966Y-117489406D02*
X291410347Y-117584644D01*
X291410347Y-117584644D02*
X291219871Y-117584644D01*
X291219871Y-117584644D02*
X290946061Y-117489406D01*
X290946061Y-117489406D02*
X290779395Y-117298929D01*
X290779395Y-117298929D02*
X290707966Y-117108453D01*
X290707966Y-117108453D02*
X290660347Y-116727501D01*
X290660347Y-116727501D02*
X290696061Y-116441786D01*
X290696061Y-116441786D02*
X290838918Y-116060834D01*
X290838918Y-116060834D02*
X290957966Y-115870358D01*
X290957966Y-115870358D02*
X291172252Y-115679882D01*
X291172252Y-115679882D02*
X291469871Y-115584644D01*
X291469871Y-115584644D02*
X291660347Y-115584644D01*
X291660347Y-115584644D02*
X291934157Y-115679882D01*
X291934157Y-115679882D02*
X292017490Y-115775120D01*
X293446061Y-116537025D02*
X293719871Y-116632263D01*
X293719871Y-116632263D02*
X293803204Y-116727501D01*
X293803204Y-116727501D02*
X293874633Y-116917977D01*
X293874633Y-116917977D02*
X293838918Y-117203691D01*
X293838918Y-117203691D02*
X293719871Y-117394167D01*
X293719871Y-117394167D02*
X293612728Y-117489406D01*
X293612728Y-117489406D02*
X293410347Y-117584644D01*
X293410347Y-117584644D02*
X292648442Y-117584644D01*
X292648442Y-117584644D02*
X292898442Y-115584644D01*
X292898442Y-115584644D02*
X293565109Y-115584644D01*
X293565109Y-115584644D02*
X293743680Y-115679882D01*
X293743680Y-115679882D02*
X293827014Y-115775120D01*
X293827014Y-115775120D02*
X293898442Y-115965596D01*
X293898442Y-115965596D02*
X293874633Y-116156072D01*
X293874633Y-116156072D02*
X293755585Y-116346548D01*
X293755585Y-116346548D02*
X293648442Y-116441786D01*
X293648442Y-116441786D02*
X293446061Y-116537025D01*
X293446061Y-116537025D02*
X292779395Y-116537025D01*
X296969871Y-116537025D02*
X296303205Y-116537025D01*
X296172252Y-117584644D02*
X296422252Y-115584644D01*
X296422252Y-115584644D02*
X297374633Y-115584644D01*
X298743681Y-117584644D02*
X298874633Y-116537025D01*
X298874633Y-116537025D02*
X298803205Y-116346548D01*
X298803205Y-116346548D02*
X298624633Y-116251310D01*
X298624633Y-116251310D02*
X298243681Y-116251310D01*
X298243681Y-116251310D02*
X298041300Y-116346548D01*
X298755586Y-117489406D02*
X298553205Y-117584644D01*
X298553205Y-117584644D02*
X298077014Y-117584644D01*
X298077014Y-117584644D02*
X297898443Y-117489406D01*
X297898443Y-117489406D02*
X297827014Y-117298929D01*
X297827014Y-117298929D02*
X297850824Y-117108453D01*
X297850824Y-117108453D02*
X297969872Y-116917977D01*
X297969872Y-116917977D02*
X298172253Y-116822739D01*
X298172253Y-116822739D02*
X298648443Y-116822739D01*
X298648443Y-116822739D02*
X298850824Y-116727501D01*
X299696062Y-117584644D02*
X299946062Y-115584644D01*
X299850824Y-116346548D02*
X300053205Y-116251310D01*
X300053205Y-116251310D02*
X300434157Y-116251310D01*
X300434157Y-116251310D02*
X300612729Y-116346548D01*
X300612729Y-116346548D02*
X300696062Y-116441786D01*
X300696062Y-116441786D02*
X300767491Y-116632263D01*
X300767491Y-116632263D02*
X300696062Y-117203691D01*
X300696062Y-117203691D02*
X300577015Y-117394167D01*
X300577015Y-117394167D02*
X300469872Y-117489406D01*
X300469872Y-117489406D02*
X300267491Y-117584644D01*
X300267491Y-117584644D02*
X299886538Y-117584644D01*
X299886538Y-117584644D02*
X299707967Y-117489406D01*
X301505586Y-117584644D02*
X301672253Y-116251310D01*
X301624634Y-116632263D02*
X301743681Y-116441786D01*
X301743681Y-116441786D02*
X301850824Y-116346548D01*
X301850824Y-116346548D02*
X302053205Y-116251310D01*
X302053205Y-116251310D02*
X302243681Y-116251310D01*
X302743681Y-117584644D02*
X302910348Y-116251310D01*
X302993681Y-115584644D02*
X302886538Y-115679882D01*
X302886538Y-115679882D02*
X302969872Y-115775120D01*
X302969872Y-115775120D02*
X303077015Y-115679882D01*
X303077015Y-115679882D02*
X302993681Y-115584644D01*
X302993681Y-115584644D02*
X302969872Y-115775120D01*
X304565110Y-117489406D02*
X304362729Y-117584644D01*
X304362729Y-117584644D02*
X303981777Y-117584644D01*
X303981777Y-117584644D02*
X303803205Y-117489406D01*
X303803205Y-117489406D02*
X303719872Y-117394167D01*
X303719872Y-117394167D02*
X303648443Y-117203691D01*
X303648443Y-117203691D02*
X303719872Y-116632263D01*
X303719872Y-116632263D02*
X303838919Y-116441786D01*
X303838919Y-116441786D02*
X303946062Y-116346548D01*
X303946062Y-116346548D02*
X304148443Y-116251310D01*
X304148443Y-116251310D02*
X304529396Y-116251310D01*
X304529396Y-116251310D02*
X304707967Y-116346548D01*
X306267491Y-117584644D02*
X306398443Y-116537025D01*
X306398443Y-116537025D02*
X306327015Y-116346548D01*
X306327015Y-116346548D02*
X306148443Y-116251310D01*
X306148443Y-116251310D02*
X305767491Y-116251310D01*
X305767491Y-116251310D02*
X305565110Y-116346548D01*
X306279396Y-117489406D02*
X306077015Y-117584644D01*
X306077015Y-117584644D02*
X305600824Y-117584644D01*
X305600824Y-117584644D02*
X305422253Y-117489406D01*
X305422253Y-117489406D02*
X305350824Y-117298929D01*
X305350824Y-117298929D02*
X305374634Y-117108453D01*
X305374634Y-117108453D02*
X305493682Y-116917977D01*
X305493682Y-116917977D02*
X305696063Y-116822739D01*
X305696063Y-116822739D02*
X306172253Y-116822739D01*
X306172253Y-116822739D02*
X306374634Y-116727501D01*
X307100825Y-116251310D02*
X307862729Y-116251310D01*
X307469872Y-115584644D02*
X307255587Y-117298929D01*
X307255587Y-117298929D02*
X307327015Y-117489406D01*
X307327015Y-117489406D02*
X307505587Y-117584644D01*
X307505587Y-117584644D02*
X307696063Y-117584644D01*
X308362729Y-117584644D02*
X308529396Y-116251310D01*
X308612729Y-115584644D02*
X308505586Y-115679882D01*
X308505586Y-115679882D02*
X308588920Y-115775120D01*
X308588920Y-115775120D02*
X308696063Y-115679882D01*
X308696063Y-115679882D02*
X308612729Y-115584644D01*
X308612729Y-115584644D02*
X308588920Y-115775120D01*
X309600825Y-117584644D02*
X309422253Y-117489406D01*
X309422253Y-117489406D02*
X309338920Y-117394167D01*
X309338920Y-117394167D02*
X309267491Y-117203691D01*
X309267491Y-117203691D02*
X309338920Y-116632263D01*
X309338920Y-116632263D02*
X309457967Y-116441786D01*
X309457967Y-116441786D02*
X309565110Y-116346548D01*
X309565110Y-116346548D02*
X309767491Y-116251310D01*
X309767491Y-116251310D02*
X310053205Y-116251310D01*
X310053205Y-116251310D02*
X310231777Y-116346548D01*
X310231777Y-116346548D02*
X310315110Y-116441786D01*
X310315110Y-116441786D02*
X310386539Y-116632263D01*
X310386539Y-116632263D02*
X310315110Y-117203691D01*
X310315110Y-117203691D02*
X310196063Y-117394167D01*
X310196063Y-117394167D02*
X310088920Y-117489406D01*
X310088920Y-117489406D02*
X309886539Y-117584644D01*
X309886539Y-117584644D02*
X309600825Y-117584644D01*
X311291301Y-116251310D02*
X311124634Y-117584644D01*
X311267491Y-116441786D02*
X311374634Y-116346548D01*
X311374634Y-116346548D02*
X311577015Y-116251310D01*
X311577015Y-116251310D02*
X311862729Y-116251310D01*
X311862729Y-116251310D02*
X312041301Y-116346548D01*
X312041301Y-116346548D02*
X312112729Y-116537025D01*
X312112729Y-116537025D02*
X311981777Y-117584644D01*
X314457968Y-117584644D02*
X314707968Y-115584644D01*
X314707968Y-115584644D02*
X315184159Y-115584644D01*
X315184159Y-115584644D02*
X315457968Y-115679882D01*
X315457968Y-115679882D02*
X315624635Y-115870358D01*
X315624635Y-115870358D02*
X315696063Y-116060834D01*
X315696063Y-116060834D02*
X315743683Y-116441786D01*
X315743683Y-116441786D02*
X315707968Y-116727501D01*
X315707968Y-116727501D02*
X315565111Y-117108453D01*
X315565111Y-117108453D02*
X315446063Y-117298929D01*
X315446063Y-117298929D02*
X315231778Y-117489406D01*
X315231778Y-117489406D02*
X314934159Y-117584644D01*
X314934159Y-117584644D02*
X314457968Y-117584644D01*
X316457968Y-117584644D02*
X316624635Y-116251310D01*
X316577016Y-116632263D02*
X316696063Y-116441786D01*
X316696063Y-116441786D02*
X316803206Y-116346548D01*
X316803206Y-116346548D02*
X317005587Y-116251310D01*
X317005587Y-116251310D02*
X317196063Y-116251310D01*
X318553206Y-117584644D02*
X318684158Y-116537025D01*
X318684158Y-116537025D02*
X318612730Y-116346548D01*
X318612730Y-116346548D02*
X318434158Y-116251310D01*
X318434158Y-116251310D02*
X318053206Y-116251310D01*
X318053206Y-116251310D02*
X317850825Y-116346548D01*
X318565111Y-117489406D02*
X318362730Y-117584644D01*
X318362730Y-117584644D02*
X317886539Y-117584644D01*
X317886539Y-117584644D02*
X317707968Y-117489406D01*
X317707968Y-117489406D02*
X317636539Y-117298929D01*
X317636539Y-117298929D02*
X317660349Y-117108453D01*
X317660349Y-117108453D02*
X317779397Y-116917977D01*
X317779397Y-116917977D02*
X317981778Y-116822739D01*
X317981778Y-116822739D02*
X318457968Y-116822739D01*
X318457968Y-116822739D02*
X318660349Y-116727501D01*
X319481778Y-116251310D02*
X319696063Y-117584644D01*
X319696063Y-117584644D02*
X320196063Y-116632263D01*
X320196063Y-116632263D02*
X320457968Y-117584644D01*
X320457968Y-117584644D02*
X321005587Y-116251310D01*
X321600825Y-117584644D02*
X321767492Y-116251310D01*
X321850825Y-115584644D02*
X321743682Y-115679882D01*
X321743682Y-115679882D02*
X321827016Y-115775120D01*
X321827016Y-115775120D02*
X321934159Y-115679882D01*
X321934159Y-115679882D02*
X321850825Y-115584644D01*
X321850825Y-115584644D02*
X321827016Y-115775120D01*
X322719873Y-116251310D02*
X322553206Y-117584644D01*
X322696063Y-116441786D02*
X322803206Y-116346548D01*
X322803206Y-116346548D02*
X323005587Y-116251310D01*
X323005587Y-116251310D02*
X323291301Y-116251310D01*
X323291301Y-116251310D02*
X323469873Y-116346548D01*
X323469873Y-116346548D02*
X323541301Y-116537025D01*
X323541301Y-116537025D02*
X323410349Y-117584644D01*
X325386540Y-116251310D02*
X325184159Y-117870358D01*
X325184159Y-117870358D02*
X325065111Y-118060834D01*
X325065111Y-118060834D02*
X324957968Y-118156072D01*
X324957968Y-118156072D02*
X324755587Y-118251310D01*
X324755587Y-118251310D02*
X324469873Y-118251310D01*
X324469873Y-118251310D02*
X324291302Y-118156072D01*
X325231778Y-117489406D02*
X325029397Y-117584644D01*
X325029397Y-117584644D02*
X324648445Y-117584644D01*
X324648445Y-117584644D02*
X324469873Y-117489406D01*
X324469873Y-117489406D02*
X324386540Y-117394167D01*
X324386540Y-117394167D02*
X324315111Y-117203691D01*
X324315111Y-117203691D02*
X324386540Y-116632263D01*
X324386540Y-116632263D02*
X324505587Y-116441786D01*
X324505587Y-116441786D02*
X324612730Y-116346548D01*
X324612730Y-116346548D02*
X324815111Y-116251310D01*
X324815111Y-116251310D02*
X325196064Y-116251310D01*
X325196064Y-116251310D02*
X325374635Y-116346548D01*
D10*
D11*
X270305396Y-112980620D02*
X269805396Y-112980620D01*
X269805396Y-113766334D02*
X269805396Y-112266334D01*
X269805396Y-112266334D02*
X270519682Y-112266334D01*
X271091110Y-113766334D02*
X271091110Y-112766334D01*
X271091110Y-112266334D02*
X271019682Y-112337763D01*
X271019682Y-112337763D02*
X271091110Y-112409191D01*
X271091110Y-112409191D02*
X271162539Y-112337763D01*
X271162539Y-112337763D02*
X271091110Y-112266334D01*
X271091110Y-112266334D02*
X271091110Y-112409191D01*
X272019682Y-113766334D02*
X271876825Y-113694906D01*
X271876825Y-113694906D02*
X271805396Y-113552048D01*
X271805396Y-113552048D02*
X271805396Y-112266334D01*
X273162539Y-113694906D02*
X273019682Y-113766334D01*
X273019682Y-113766334D02*
X272733968Y-113766334D01*
X272733968Y-113766334D02*
X272591110Y-113694906D01*
X272591110Y-113694906D02*
X272519682Y-113552048D01*
X272519682Y-113552048D02*
X272519682Y-112980620D01*
X272519682Y-112980620D02*
X272591110Y-112837763D01*
X272591110Y-112837763D02*
X272733968Y-112766334D01*
X272733968Y-112766334D02*
X273019682Y-112766334D01*
X273019682Y-112766334D02*
X273162539Y-112837763D01*
X273162539Y-112837763D02*
X273233968Y-112980620D01*
X273233968Y-112980620D02*
X273233968Y-113123477D01*
X273233968Y-113123477D02*
X272519682Y-113266334D01*
X273876824Y-113623477D02*
X273948253Y-113694906D01*
X273948253Y-113694906D02*
X273876824Y-113766334D01*
X273876824Y-113766334D02*
X273805396Y-113694906D01*
X273805396Y-113694906D02*
X273876824Y-113623477D01*
X273876824Y-113623477D02*
X273876824Y-113766334D01*
X273876824Y-112837763D02*
X273948253Y-112909191D01*
X273948253Y-112909191D02*
X273876824Y-112980620D01*
X273876824Y-112980620D02*
X273805396Y-112909191D01*
X273805396Y-112909191D02*
X273876824Y-112837763D01*
X273876824Y-112837763D02*
X273876824Y-112980620D01*
X275733967Y-113766334D02*
X275733967Y-112266334D01*
X275733967Y-112266334D02*
X276305396Y-112266334D01*
X276305396Y-112266334D02*
X276448253Y-112337763D01*
X276448253Y-112337763D02*
X276519682Y-112409191D01*
X276519682Y-112409191D02*
X276591110Y-112552048D01*
X276591110Y-112552048D02*
X276591110Y-112766334D01*
X276591110Y-112766334D02*
X276519682Y-112909191D01*
X276519682Y-112909191D02*
X276448253Y-112980620D01*
X276448253Y-112980620D02*
X276305396Y-113052048D01*
X276305396Y-113052048D02*
X275733967Y-113052048D01*
X277233967Y-113766334D02*
X277233967Y-112266334D01*
X277233967Y-112266334D02*
X277733967Y-113337763D01*
X277733967Y-113337763D02*
X278233967Y-112266334D01*
X278233967Y-112266334D02*
X278233967Y-113766334D01*
X279733968Y-113766334D02*
X278876825Y-113766334D01*
X279305396Y-113766334D02*
X279305396Y-112266334D01*
X279305396Y-112266334D02*
X279162539Y-112480620D01*
X279162539Y-112480620D02*
X279019682Y-112623477D01*
X279019682Y-112623477D02*
X278876825Y-112694906D01*
X281233967Y-113623477D02*
X281162539Y-113694906D01*
X281162539Y-113694906D02*
X280948253Y-113766334D01*
X280948253Y-113766334D02*
X280805396Y-113766334D01*
X280805396Y-113766334D02*
X280591110Y-113694906D01*
X280591110Y-113694906D02*
X280448253Y-113552048D01*
X280448253Y-113552048D02*
X280376824Y-113409191D01*
X280376824Y-113409191D02*
X280305396Y-113123477D01*
X280305396Y-113123477D02*
X280305396Y-112909191D01*
X280305396Y-112909191D02*
X280376824Y-112623477D01*
X280376824Y-112623477D02*
X280448253Y-112480620D01*
X280448253Y-112480620D02*
X280591110Y-112337763D01*
X280591110Y-112337763D02*
X280805396Y-112266334D01*
X280805396Y-112266334D02*
X280948253Y-112266334D01*
X280948253Y-112266334D02*
X281162539Y-112337763D01*
X281162539Y-112337763D02*
X281233967Y-112409191D01*
X281519682Y-113909191D02*
X282662539Y-113909191D01*
X283876824Y-113766334D02*
X283376824Y-113052048D01*
X283019681Y-113766334D02*
X283019681Y-112266334D01*
X283019681Y-112266334D02*
X283591110Y-112266334D01*
X283591110Y-112266334D02*
X283733967Y-112337763D01*
X283733967Y-112337763D02*
X283805396Y-112409191D01*
X283805396Y-112409191D02*
X283876824Y-112552048D01*
X283876824Y-112552048D02*
X283876824Y-112766334D01*
X283876824Y-112766334D02*
X283805396Y-112909191D01*
X283805396Y-112909191D02*
X283733967Y-112980620D01*
X283733967Y-112980620D02*
X283591110Y-113052048D01*
X283591110Y-113052048D02*
X283019681Y-113052048D01*
X285091110Y-113694906D02*
X284948253Y-113766334D01*
X284948253Y-113766334D02*
X284662539Y-113766334D01*
X284662539Y-113766334D02*
X284519681Y-113694906D01*
X284519681Y-113694906D02*
X284448253Y-113552048D01*
X284448253Y-113552048D02*
X284448253Y-112980620D01*
X284448253Y-112980620D02*
X284519681Y-112837763D01*
X284519681Y-112837763D02*
X284662539Y-112766334D01*
X284662539Y-112766334D02*
X284948253Y-112766334D01*
X284948253Y-112766334D02*
X285091110Y-112837763D01*
X285091110Y-112837763D02*
X285162539Y-112980620D01*
X285162539Y-112980620D02*
X285162539Y-113123477D01*
X285162539Y-113123477D02*
X284448253Y-113266334D01*
X285662538Y-112766334D02*
X286019681Y-113766334D01*
X286019681Y-113766334D02*
X286376824Y-112766334D01*
X286591110Y-113909191D02*
X287733967Y-113909191D01*
X288876824Y-113766334D02*
X288019681Y-113766334D01*
X288448252Y-113766334D02*
X288448252Y-112266334D01*
X288448252Y-112266334D02*
X288305395Y-112480620D01*
X288305395Y-112480620D02*
X288162538Y-112623477D01*
X288162538Y-112623477D02*
X288019681Y-112694906D01*
X289162538Y-113909191D02*
X290305395Y-113909191D01*
X290591109Y-112409191D02*
X290662537Y-112337763D01*
X290662537Y-112337763D02*
X290805395Y-112266334D01*
X290805395Y-112266334D02*
X291162537Y-112266334D01*
X291162537Y-112266334D02*
X291305395Y-112337763D01*
X291305395Y-112337763D02*
X291376823Y-112409191D01*
X291376823Y-112409191D02*
X291448252Y-112552048D01*
X291448252Y-112552048D02*
X291448252Y-112694906D01*
X291448252Y-112694906D02*
X291376823Y-112909191D01*
X291376823Y-112909191D02*
X290519680Y-113766334D01*
X290519680Y-113766334D02*
X291448252Y-113766334D01*
X292091108Y-113623477D02*
X292162537Y-113694906D01*
X292162537Y-113694906D02*
X292091108Y-113766334D01*
X292091108Y-113766334D02*
X292019680Y-113694906D01*
X292019680Y-113694906D02*
X292091108Y-113623477D01*
X292091108Y-113623477D02*
X292091108Y-113766334D01*
X292805394Y-113766334D02*
X292805394Y-112266334D01*
X292948252Y-113194906D02*
X293376823Y-113766334D01*
X293376823Y-112766334D02*
X292805394Y-113337763D01*
X294019680Y-113766334D02*
X294019680Y-112766334D01*
X294019680Y-112266334D02*
X293948252Y-112337763D01*
X293948252Y-112337763D02*
X294019680Y-112409191D01*
X294019680Y-112409191D02*
X294091109Y-112337763D01*
X294091109Y-112337763D02*
X294019680Y-112266334D01*
X294019680Y-112266334D02*
X294019680Y-112409191D01*
X295376824Y-113694906D02*
X295233966Y-113766334D01*
X295233966Y-113766334D02*
X294948252Y-113766334D01*
X294948252Y-113766334D02*
X294805395Y-113694906D01*
X294805395Y-113694906D02*
X294733966Y-113623477D01*
X294733966Y-113623477D02*
X294662538Y-113480620D01*
X294662538Y-113480620D02*
X294662538Y-113052048D01*
X294662538Y-113052048D02*
X294733966Y-112909191D01*
X294733966Y-112909191D02*
X294805395Y-112837763D01*
X294805395Y-112837763D02*
X294948252Y-112766334D01*
X294948252Y-112766334D02*
X295233966Y-112766334D01*
X295233966Y-112766334D02*
X295376824Y-112837763D01*
X296662538Y-113766334D02*
X296662538Y-112980620D01*
X296662538Y-112980620D02*
X296591109Y-112837763D01*
X296591109Y-112837763D02*
X296448252Y-112766334D01*
X296448252Y-112766334D02*
X296162538Y-112766334D01*
X296162538Y-112766334D02*
X296019680Y-112837763D01*
X296662538Y-113694906D02*
X296519680Y-113766334D01*
X296519680Y-113766334D02*
X296162538Y-113766334D01*
X296162538Y-113766334D02*
X296019680Y-113694906D01*
X296019680Y-113694906D02*
X295948252Y-113552048D01*
X295948252Y-113552048D02*
X295948252Y-113409191D01*
X295948252Y-113409191D02*
X296019680Y-113266334D01*
X296019680Y-113266334D02*
X296162538Y-113194906D01*
X296162538Y-113194906D02*
X296519680Y-113194906D01*
X296519680Y-113194906D02*
X296662538Y-113123477D01*
X298019681Y-113766334D02*
X298019681Y-112266334D01*
X298019681Y-113694906D02*
X297876823Y-113766334D01*
X297876823Y-113766334D02*
X297591109Y-113766334D01*
X297591109Y-113766334D02*
X297448252Y-113694906D01*
X297448252Y-113694906D02*
X297376823Y-113623477D01*
X297376823Y-113623477D02*
X297305395Y-113480620D01*
X297305395Y-113480620D02*
X297305395Y-113052048D01*
X297305395Y-113052048D02*
X297376823Y-112909191D01*
X297376823Y-112909191D02*
X297448252Y-112837763D01*
X297448252Y-112837763D02*
X297591109Y-112766334D01*
X297591109Y-112766334D02*
X297876823Y-112766334D01*
X297876823Y-112766334D02*
X298019681Y-112837763D01*
X298376824Y-113909191D02*
X299519681Y-113909191D01*
X299876823Y-112766334D02*
X299876823Y-114266334D01*
X299876823Y-112837763D02*
X300019681Y-112766334D01*
X300019681Y-112766334D02*
X300305395Y-112766334D01*
X300305395Y-112766334D02*
X300448252Y-112837763D01*
X300448252Y-112837763D02*
X300519681Y-112909191D01*
X300519681Y-112909191D02*
X300591109Y-113052048D01*
X300591109Y-113052048D02*
X300591109Y-113480620D01*
X300591109Y-113480620D02*
X300519681Y-113623477D01*
X300519681Y-113623477D02*
X300448252Y-113694906D01*
X300448252Y-113694906D02*
X300305395Y-113766334D01*
X300305395Y-113766334D02*
X300019681Y-113766334D01*
X300019681Y-113766334D02*
X299876823Y-113694906D01*
X301876824Y-113694906D02*
X301733966Y-113766334D01*
X301733966Y-113766334D02*
X301448252Y-113766334D01*
X301448252Y-113766334D02*
X301305395Y-113694906D01*
X301305395Y-113694906D02*
X301233966Y-113623477D01*
X301233966Y-113623477D02*
X301162538Y-113480620D01*
X301162538Y-113480620D02*
X301162538Y-113052048D01*
X301162538Y-113052048D02*
X301233966Y-112909191D01*
X301233966Y-112909191D02*
X301305395Y-112837763D01*
X301305395Y-112837763D02*
X301448252Y-112766334D01*
X301448252Y-112766334D02*
X301733966Y-112766334D01*
X301733966Y-112766334D02*
X301876824Y-112837763D01*
X302519680Y-113766334D02*
X302519680Y-112266334D01*
X302519680Y-112837763D02*
X302662538Y-112766334D01*
X302662538Y-112766334D02*
X302948252Y-112766334D01*
X302948252Y-112766334D02*
X303091109Y-112837763D01*
X303091109Y-112837763D02*
X303162538Y-112909191D01*
X303162538Y-112909191D02*
X303233966Y-113052048D01*
X303233966Y-113052048D02*
X303233966Y-113480620D01*
X303233966Y-113480620D02*
X303162538Y-113623477D01*
X303162538Y-113623477D02*
X303091109Y-113694906D01*
X303091109Y-113694906D02*
X302948252Y-113766334D01*
X302948252Y-113766334D02*
X302662538Y-113766334D01*
X302662538Y-113766334D02*
X302519680Y-113694906D01*
D10*
D11*
X268349570Y-108880206D02*
X376349570Y-108880206D01*
D10*
D11*
X269733968Y-110994906D02*
X269948254Y-111066334D01*
X269948254Y-111066334D02*
X270305396Y-111066334D01*
X270305396Y-111066334D02*
X270448254Y-110994906D01*
X270448254Y-110994906D02*
X270519682Y-110923477D01*
X270519682Y-110923477D02*
X270591111Y-110780620D01*
X270591111Y-110780620D02*
X270591111Y-110637763D01*
X270591111Y-110637763D02*
X270519682Y-110494906D01*
X270519682Y-110494906D02*
X270448254Y-110423477D01*
X270448254Y-110423477D02*
X270305396Y-110352048D01*
X270305396Y-110352048D02*
X270019682Y-110280620D01*
X270019682Y-110280620D02*
X269876825Y-110209191D01*
X269876825Y-110209191D02*
X269805396Y-110137763D01*
X269805396Y-110137763D02*
X269733968Y-109994906D01*
X269733968Y-109994906D02*
X269733968Y-109852048D01*
X269733968Y-109852048D02*
X269805396Y-109709191D01*
X269805396Y-109709191D02*
X269876825Y-109637763D01*
X269876825Y-109637763D02*
X270019682Y-109566334D01*
X270019682Y-109566334D02*
X270376825Y-109566334D01*
X270376825Y-109566334D02*
X270591111Y-109637763D01*
X271233967Y-111066334D02*
X271233967Y-109566334D01*
X271876825Y-111066334D02*
X271876825Y-110280620D01*
X271876825Y-110280620D02*
X271805396Y-110137763D01*
X271805396Y-110137763D02*
X271662539Y-110066334D01*
X271662539Y-110066334D02*
X271448253Y-110066334D01*
X271448253Y-110066334D02*
X271305396Y-110137763D01*
X271305396Y-110137763D02*
X271233967Y-110209191D01*
X273162539Y-110994906D02*
X273019682Y-111066334D01*
X273019682Y-111066334D02*
X272733968Y-111066334D01*
X272733968Y-111066334D02*
X272591110Y-110994906D01*
X272591110Y-110994906D02*
X272519682Y-110852048D01*
X272519682Y-110852048D02*
X272519682Y-110280620D01*
X272519682Y-110280620D02*
X272591110Y-110137763D01*
X272591110Y-110137763D02*
X272733968Y-110066334D01*
X272733968Y-110066334D02*
X273019682Y-110066334D01*
X273019682Y-110066334D02*
X273162539Y-110137763D01*
X273162539Y-110137763D02*
X273233968Y-110280620D01*
X273233968Y-110280620D02*
X273233968Y-110423477D01*
X273233968Y-110423477D02*
X272519682Y-110566334D01*
X274448253Y-110994906D02*
X274305396Y-111066334D01*
X274305396Y-111066334D02*
X274019682Y-111066334D01*
X274019682Y-111066334D02*
X273876824Y-110994906D01*
X273876824Y-110994906D02*
X273805396Y-110852048D01*
X273805396Y-110852048D02*
X273805396Y-110280620D01*
X273805396Y-110280620D02*
X273876824Y-110137763D01*
X273876824Y-110137763D02*
X274019682Y-110066334D01*
X274019682Y-110066334D02*
X274305396Y-110066334D01*
X274305396Y-110066334D02*
X274448253Y-110137763D01*
X274448253Y-110137763D02*
X274519682Y-110280620D01*
X274519682Y-110280620D02*
X274519682Y-110423477D01*
X274519682Y-110423477D02*
X273805396Y-110566334D01*
X274948253Y-110066334D02*
X275519681Y-110066334D01*
X275162538Y-109566334D02*
X275162538Y-110852048D01*
X275162538Y-110852048D02*
X275233967Y-110994906D01*
X275233967Y-110994906D02*
X275376824Y-111066334D01*
X275376824Y-111066334D02*
X275519681Y-111066334D01*
X276019681Y-110923477D02*
X276091110Y-110994906D01*
X276091110Y-110994906D02*
X276019681Y-111066334D01*
X276019681Y-111066334D02*
X275948253Y-110994906D01*
X275948253Y-110994906D02*
X276019681Y-110923477D01*
X276019681Y-110923477D02*
X276019681Y-111066334D01*
X276019681Y-110137763D02*
X276091110Y-110209191D01*
X276091110Y-110209191D02*
X276019681Y-110280620D01*
X276019681Y-110280620D02*
X275948253Y-110209191D01*
X275948253Y-110209191D02*
X276019681Y-110137763D01*
X276019681Y-110137763D02*
X276019681Y-110280620D01*
D10*
D12*
X270761223Y-107915677D02*
X270689795Y-107987106D01*
X270689795Y-107987106D02*
X270475509Y-108058534D01*
X270475509Y-108058534D02*
X270332652Y-108058534D01*
X270332652Y-108058534D02*
X270118366Y-107987106D01*
X270118366Y-107987106D02*
X269975509Y-107844248D01*
X269975509Y-107844248D02*
X269904080Y-107701391D01*
X269904080Y-107701391D02*
X269832652Y-107415677D01*
X269832652Y-107415677D02*
X269832652Y-107201391D01*
X269832652Y-107201391D02*
X269904080Y-106915677D01*
X269904080Y-106915677D02*
X269975509Y-106772820D01*
X269975509Y-106772820D02*
X270118366Y-106629963D01*
X270118366Y-106629963D02*
X270332652Y-106558534D01*
X270332652Y-106558534D02*
X270475509Y-106558534D01*
X270475509Y-106558534D02*
X270689795Y-106629963D01*
X270689795Y-106629963D02*
X270761223Y-106701391D01*
X271689795Y-106558534D02*
X271975509Y-106558534D01*
X271975509Y-106558534D02*
X272118366Y-106629963D01*
X272118366Y-106629963D02*
X272261223Y-106772820D01*
X272261223Y-106772820D02*
X272332652Y-107058534D01*
X272332652Y-107058534D02*
X272332652Y-107558534D01*
X272332652Y-107558534D02*
X272261223Y-107844248D01*
X272261223Y-107844248D02*
X272118366Y-107987106D01*
X272118366Y-107987106D02*
X271975509Y-108058534D01*
X271975509Y-108058534D02*
X271689795Y-108058534D01*
X271689795Y-108058534D02*
X271546938Y-107987106D01*
X271546938Y-107987106D02*
X271404080Y-107844248D01*
X271404080Y-107844248D02*
X271332652Y-107558534D01*
X271332652Y-107558534D02*
X271332652Y-107058534D01*
X271332652Y-107058534D02*
X271404080Y-106772820D01*
X271404080Y-106772820D02*
X271546938Y-106629963D01*
X271546938Y-106629963D02*
X271689795Y-106558534D01*
X272904081Y-107987106D02*
X273118367Y-108058534D01*
X273118367Y-108058534D02*
X273475509Y-108058534D01*
X273475509Y-108058534D02*
X273618367Y-107987106D01*
X273618367Y-107987106D02*
X273689795Y-107915677D01*
X273689795Y-107915677D02*
X273761224Y-107772820D01*
X273761224Y-107772820D02*
X273761224Y-107629963D01*
X273761224Y-107629963D02*
X273689795Y-107487106D01*
X273689795Y-107487106D02*
X273618367Y-107415677D01*
X273618367Y-107415677D02*
X273475509Y-107344248D01*
X273475509Y-107344248D02*
X273189795Y-107272820D01*
X273189795Y-107272820D02*
X273046938Y-107201391D01*
X273046938Y-107201391D02*
X272975509Y-107129963D01*
X272975509Y-107129963D02*
X272904081Y-106987106D01*
X272904081Y-106987106D02*
X272904081Y-106844248D01*
X272904081Y-106844248D02*
X272975509Y-106701391D01*
X272975509Y-106701391D02*
X273046938Y-106629963D01*
X273046938Y-106629963D02*
X273189795Y-106558534D01*
X273189795Y-106558534D02*
X273546938Y-106558534D01*
X273546938Y-106558534D02*
X273761224Y-106629963D01*
X274404080Y-108058534D02*
X274404080Y-106558534D01*
X274404080Y-106558534D02*
X274904080Y-107629963D01*
X274904080Y-107629963D02*
X275404080Y-106558534D01*
X275404080Y-106558534D02*
X275404080Y-108058534D01*
X276118366Y-108058534D02*
X276118366Y-106558534D01*
X276832652Y-108058534D02*
X276832652Y-106558534D01*
X278404081Y-107915677D02*
X278332653Y-107987106D01*
X278332653Y-107987106D02*
X278118367Y-108058534D01*
X278118367Y-108058534D02*
X277975510Y-108058534D01*
X277975510Y-108058534D02*
X277761224Y-107987106D01*
X277761224Y-107987106D02*
X277618367Y-107844248D01*
X277618367Y-107844248D02*
X277546938Y-107701391D01*
X277546938Y-107701391D02*
X277475510Y-107415677D01*
X277475510Y-107415677D02*
X277475510Y-107201391D01*
X277475510Y-107201391D02*
X277546938Y-106915677D01*
X277546938Y-106915677D02*
X277618367Y-106772820D01*
X277618367Y-106772820D02*
X277761224Y-106629963D01*
X277761224Y-106629963D02*
X277975510Y-106558534D01*
X277975510Y-106558534D02*
X278118367Y-106558534D01*
X278118367Y-106558534D02*
X278332653Y-106629963D01*
X278332653Y-106629963D02*
X278404081Y-106701391D01*
D10*
D11*
X288349570Y-118880206D02*
X288349570Y-121880206D01*
D10*
D11*
X352349570Y-118880206D02*
X352349570Y-125380206D01*
D14*
D15*
X17761954Y-3699513D02*
X16809573Y-3699513D01*
X16809573Y-3699513D02*
X16809573Y-1699513D01*
X19285764Y-3699513D02*
X19285764Y-2651894D01*
X19285764Y-2651894D02*
X19190526Y-2461417D01*
X19190526Y-2461417D02*
X19000050Y-2366179D01*
X19000050Y-2366179D02*
X18619097Y-2366179D01*
X18619097Y-2366179D02*
X18428621Y-2461417D01*
X19285764Y-3604275D02*
X19095288Y-3699513D01*
X19095288Y-3699513D02*
X18619097Y-3699513D01*
X18619097Y-3699513D02*
X18428621Y-3604275D01*
X18428621Y-3604275D02*
X18333383Y-3413798D01*
X18333383Y-3413798D02*
X18333383Y-3223322D01*
X18333383Y-3223322D02*
X18428621Y-3032846D01*
X18428621Y-3032846D02*
X18619097Y-2937608D01*
X18619097Y-2937608D02*
X19095288Y-2937608D01*
X19095288Y-2937608D02*
X19285764Y-2842370D01*
X20047669Y-2366179D02*
X20523859Y-3699513D01*
X21000050Y-2366179D02*
X20523859Y-3699513D01*
X20523859Y-3699513D02*
X20333383Y-4175703D01*
X20333383Y-4175703D02*
X20238145Y-4270941D01*
X20238145Y-4270941D02*
X20047669Y-4366179D01*
X22523860Y-3604275D02*
X22333384Y-3699513D01*
X22333384Y-3699513D02*
X21952431Y-3699513D01*
X21952431Y-3699513D02*
X21761955Y-3604275D01*
X21761955Y-3604275D02*
X21666717Y-3413798D01*
X21666717Y-3413798D02*
X21666717Y-2651894D01*
X21666717Y-2651894D02*
X21761955Y-2461417D01*
X21761955Y-2461417D02*
X21952431Y-2366179D01*
X21952431Y-2366179D02*
X22333384Y-2366179D01*
X22333384Y-2366179D02*
X22523860Y-2461417D01*
X22523860Y-2461417D02*
X22619098Y-2651894D01*
X22619098Y-2651894D02*
X22619098Y-2842370D01*
X22619098Y-2842370D02*
X21666717Y-3032846D01*
X23476241Y-3699513D02*
X23476241Y-2366179D01*
X23476241Y-2747132D02*
X23571479Y-2556655D01*
X23571479Y-2556655D02*
X23666717Y-2461417D01*
X23666717Y-2461417D02*
X23857193Y-2366179D01*
X23857193Y-2366179D02*
X24047670Y-2366179D01*
X26047670Y-1699513D02*
X27285765Y-1699513D01*
X27285765Y-1699513D02*
X26619098Y-2461417D01*
X26619098Y-2461417D02*
X26904813Y-2461417D01*
X26904813Y-2461417D02*
X27095289Y-2556655D01*
X27095289Y-2556655D02*
X27190527Y-2651894D01*
X27190527Y-2651894D02*
X27285765Y-2842370D01*
X27285765Y-2842370D02*
X27285765Y-3318560D01*
X27285765Y-3318560D02*
X27190527Y-3509036D01*
X27190527Y-3509036D02*
X27095289Y-3604275D01*
X27095289Y-3604275D02*
X26904813Y-3699513D01*
X26904813Y-3699513D02*
X26333384Y-3699513D01*
X26333384Y-3699513D02*
X26142908Y-3604275D01*
X26142908Y-3604275D02*
X26047670Y-3509036D01*
X29666718Y-2937608D02*
X31190528Y-2937608D01*
X34809575Y-3699513D02*
X34142908Y-2747132D01*
X33666718Y-3699513D02*
X33666718Y-1699513D01*
X33666718Y-1699513D02*
X34428623Y-1699513D01*
X34428623Y-1699513D02*
X34619099Y-1794751D01*
X34619099Y-1794751D02*
X34714337Y-1889989D01*
X34714337Y-1889989D02*
X34809575Y-2080465D01*
X34809575Y-2080465D02*
X34809575Y-2366179D01*
X34809575Y-2366179D02*
X34714337Y-2556655D01*
X34714337Y-2556655D02*
X34619099Y-2651894D01*
X34619099Y-2651894D02*
X34428623Y-2747132D01*
X34428623Y-2747132D02*
X33666718Y-2747132D01*
X35666718Y-3699513D02*
X35666718Y-2366179D01*
X35666718Y-1699513D02*
X35571480Y-1794751D01*
X35571480Y-1794751D02*
X35666718Y-1889989D01*
X35666718Y-1889989D02*
X35761956Y-1794751D01*
X35761956Y-1794751D02*
X35666718Y-1699513D01*
X35666718Y-1699513D02*
X35666718Y-1889989D01*
X37476242Y-2366179D02*
X37476242Y-3985227D01*
X37476242Y-3985227D02*
X37381004Y-4175703D01*
X37381004Y-4175703D02*
X37285766Y-4270941D01*
X37285766Y-4270941D02*
X37095289Y-4366179D01*
X37095289Y-4366179D02*
X36809575Y-4366179D01*
X36809575Y-4366179D02*
X36619099Y-4270941D01*
X37476242Y-3604275D02*
X37285766Y-3699513D01*
X37285766Y-3699513D02*
X36904813Y-3699513D01*
X36904813Y-3699513D02*
X36714337Y-3604275D01*
X36714337Y-3604275D02*
X36619099Y-3509036D01*
X36619099Y-3509036D02*
X36523861Y-3318560D01*
X36523861Y-3318560D02*
X36523861Y-2747132D01*
X36523861Y-2747132D02*
X36619099Y-2556655D01*
X36619099Y-2556655D02*
X36714337Y-2461417D01*
X36714337Y-2461417D02*
X36904813Y-2366179D01*
X36904813Y-2366179D02*
X37285766Y-2366179D01*
X37285766Y-2366179D02*
X37476242Y-2461417D01*
X38428623Y-3699513D02*
X38428623Y-2366179D01*
X38428623Y-1699513D02*
X38333385Y-1794751D01*
X38333385Y-1794751D02*
X38428623Y-1889989D01*
X38428623Y-1889989D02*
X38523861Y-1794751D01*
X38523861Y-1794751D02*
X38428623Y-1699513D01*
X38428623Y-1699513D02*
X38428623Y-1889989D01*
X40238147Y-3699513D02*
X40238147Y-1699513D01*
X40238147Y-3604275D02*
X40047671Y-3699513D01*
X40047671Y-3699513D02*
X39666718Y-3699513D01*
X39666718Y-3699513D02*
X39476242Y-3604275D01*
X39476242Y-3604275D02*
X39381004Y-3509036D01*
X39381004Y-3509036D02*
X39285766Y-3318560D01*
X39285766Y-3318560D02*
X39285766Y-2747132D01*
X39285766Y-2747132D02*
X39381004Y-2556655D01*
X39381004Y-2556655D02*
X39476242Y-2461417D01*
X39476242Y-2461417D02*
X39666718Y-2366179D01*
X39666718Y-2366179D02*
X40047671Y-2366179D01*
X40047671Y-2366179D02*
X40238147Y-2461417D01*
X42619100Y-3604275D02*
X42904814Y-3699513D01*
X42904814Y-3699513D02*
X43381005Y-3699513D01*
X43381005Y-3699513D02*
X43571481Y-3604275D01*
X43571481Y-3604275D02*
X43666719Y-3509036D01*
X43666719Y-3509036D02*
X43761957Y-3318560D01*
X43761957Y-3318560D02*
X43761957Y-3128084D01*
X43761957Y-3128084D02*
X43666719Y-2937608D01*
X43666719Y-2937608D02*
X43571481Y-2842370D01*
X43571481Y-2842370D02*
X43381005Y-2747132D01*
X43381005Y-2747132D02*
X43000052Y-2651894D01*
X43000052Y-2651894D02*
X42809576Y-2556655D01*
X42809576Y-2556655D02*
X42714338Y-2461417D01*
X42714338Y-2461417D02*
X42619100Y-2270941D01*
X42619100Y-2270941D02*
X42619100Y-2080465D01*
X42619100Y-2080465D02*
X42714338Y-1889989D01*
X42714338Y-1889989D02*
X42809576Y-1794751D01*
X42809576Y-1794751D02*
X43000052Y-1699513D01*
X43000052Y-1699513D02*
X43476243Y-1699513D01*
X43476243Y-1699513D02*
X43761957Y-1794751D01*
X44619100Y-3699513D02*
X44619100Y-2366179D01*
X44619100Y-1699513D02*
X44523862Y-1794751D01*
X44523862Y-1794751D02*
X44619100Y-1889989D01*
X44619100Y-1889989D02*
X44714338Y-1794751D01*
X44714338Y-1794751D02*
X44619100Y-1699513D01*
X44619100Y-1699513D02*
X44619100Y-1889989D01*
X46428624Y-2366179D02*
X46428624Y-3985227D01*
X46428624Y-3985227D02*
X46333386Y-4175703D01*
X46333386Y-4175703D02*
X46238148Y-4270941D01*
X46238148Y-4270941D02*
X46047671Y-4366179D01*
X46047671Y-4366179D02*
X45761957Y-4366179D01*
X45761957Y-4366179D02*
X45571481Y-4270941D01*
X46428624Y-3604275D02*
X46238148Y-3699513D01*
X46238148Y-3699513D02*
X45857195Y-3699513D01*
X45857195Y-3699513D02*
X45666719Y-3604275D01*
X45666719Y-3604275D02*
X45571481Y-3509036D01*
X45571481Y-3509036D02*
X45476243Y-3318560D01*
X45476243Y-3318560D02*
X45476243Y-2747132D01*
X45476243Y-2747132D02*
X45571481Y-2556655D01*
X45571481Y-2556655D02*
X45666719Y-2461417D01*
X45666719Y-2461417D02*
X45857195Y-2366179D01*
X45857195Y-2366179D02*
X46238148Y-2366179D01*
X46238148Y-2366179D02*
X46428624Y-2461417D01*
X47381005Y-2366179D02*
X47381005Y-3699513D01*
X47381005Y-2556655D02*
X47476243Y-2461417D01*
X47476243Y-2461417D02*
X47666719Y-2366179D01*
X47666719Y-2366179D02*
X47952434Y-2366179D01*
X47952434Y-2366179D02*
X48142910Y-2461417D01*
X48142910Y-2461417D02*
X48238148Y-2651894D01*
X48238148Y-2651894D02*
X48238148Y-3699513D01*
X50047672Y-3699513D02*
X50047672Y-2651894D01*
X50047672Y-2651894D02*
X49952434Y-2461417D01*
X49952434Y-2461417D02*
X49761958Y-2366179D01*
X49761958Y-2366179D02*
X49381005Y-2366179D01*
X49381005Y-2366179D02*
X49190529Y-2461417D01*
X50047672Y-3604275D02*
X49857196Y-3699513D01*
X49857196Y-3699513D02*
X49381005Y-3699513D01*
X49381005Y-3699513D02*
X49190529Y-3604275D01*
X49190529Y-3604275D02*
X49095291Y-3413798D01*
X49095291Y-3413798D02*
X49095291Y-3223322D01*
X49095291Y-3223322D02*
X49190529Y-3032846D01*
X49190529Y-3032846D02*
X49381005Y-2937608D01*
X49381005Y-2937608D02*
X49857196Y-2937608D01*
X49857196Y-2937608D02*
X50047672Y-2842370D01*
X51285767Y-3699513D02*
X51095291Y-3604275D01*
X51095291Y-3604275D02*
X51000053Y-3413798D01*
X51000053Y-3413798D02*
X51000053Y-1699513D01*
X54619101Y-3699513D02*
X53476244Y-3699513D01*
X54047672Y-3699513D02*
X54047672Y-1699513D01*
X54047672Y-1699513D02*
X53857196Y-1985227D01*
X53857196Y-1985227D02*
X53666720Y-2175703D01*
X53666720Y-2175703D02*
X53476244Y-2270941D01*
D14*
D15*
X28392292Y4955162D02*
X29630387Y4955162D01*
X29630387Y4955162D02*
X28963720Y4193258D01*
X28963720Y4193258D02*
X29249435Y4193258D01*
X29249435Y4193258D02*
X29439911Y4098020D01*
X29439911Y4098020D02*
X29535149Y4002781D01*
X29535149Y4002781D02*
X29630387Y3812305D01*
X29630387Y3812305D02*
X29630387Y3336115D01*
X29630387Y3336115D02*
X29535149Y3145639D01*
X29535149Y3145639D02*
X29439911Y3050400D01*
X29439911Y3050400D02*
X29249435Y2955162D01*
X29249435Y2955162D02*
X28678006Y2955162D01*
X28678006Y2955162D02*
X28487530Y3050400D01*
X28487530Y3050400D02*
X28392292Y3145639D01*
D16*
%TO.N,Net-(BAT2-+)*%
%TO.C,BAT2*%
X12528200Y45005150D03*
D17*
%TO.N,Net-(BAT2--)*%
X12528200Y36362750D03*
%TD*%
D16*
%TO.N,Net-(BAT1-+)*%
%TO.C,BAT1*%
X12511180Y62601390D03*
D17*
%TO.N,Net-(BAT1--)*%
X12511180Y53958990D03*
%TD*%
D18*
%TO.N,/Test Points/RXCAN*%
%TO.C,H1*%
X64517200Y19142830D03*
D19*
%TO.N,3V3*%
X61977200Y19142830D03*
%TO.N,/Test Points/TXCAN*%
X64517200Y21682830D03*
%TO.N,GND*%
X61977200Y21682830D03*
%TO.N,/Test Points/SCK0*%
X64517200Y24222830D03*
%TO.N,TCK_CPLD*%
X61977200Y24222830D03*
%TO.N,/Test Points/MOSI0*%
X64517200Y26762830D03*
%TO.N,TDO_CPLD*%
X61977200Y26762830D03*
%TO.N,/Test Points/MISO0*%
X64517200Y29302830D03*
%TO.N,TDI_CPLD*%
X61977200Y29302830D03*
%TO.N,/Test Points/SCK1*%
X64517200Y31842830D03*
%TO.N,TMS_CPLD*%
X61977200Y31842830D03*
%TO.N,/Test Points/MOSI1*%
X64517200Y34382830D03*
%TO.N,/Test Points/TXD0*%
X61977200Y34382830D03*
%TO.N,/Test Points/MISO1*%
X64517200Y36922830D03*
%TO.N,/Test Points/RXD0*%
X61977200Y36922830D03*
%TO.N,GND*%
X64517200Y39462830D03*
X61977200Y39462830D03*
%TO.N,/I2C Multiplexing/SCLOCK*%
X64517200Y42002830D03*
%TO.N,nRESET*%
X61977200Y42002830D03*
%TO.N,/I2C Multiplexing/SDATA*%
X64517200Y44542830D03*
%TO.N,nDRESET*%
X61977200Y44542830D03*
%TO.N,VSYS*%
X64517200Y47082830D03*
%TO.N,nBOOT*%
X61977200Y47082830D03*
%TO.N,VSUPPLY*%
X64517200Y49622830D03*
%TO.N,/Microcontroller/nTRST_LPC*%
X61977200Y49622830D03*
%TO.N,VNET*%
X64517200Y52162830D03*
%TO.N,/Microcontroller/TCK_LPC*%
X61977200Y52162830D03*
%TO.N,n3V3*%
X64517200Y54702830D03*
%TO.N,/Microcontroller/TMS_LPC*%
X61977200Y54702830D03*
%TO.N,1V8*%
X64517200Y57242830D03*
%TO.N,/Microcontroller/TDO_LPC*%
X61977200Y57242830D03*
%TO.N,VREC*%
X64517200Y59782830D03*
%TO.N,/Microcontroller/TDI_LPC*%
X61977200Y59782830D03*
%TO.N,GND*%
X64517200Y62322830D03*
%TO.N,/Microcontroller/RTCK_LPC*%
X61977200Y62322830D03*
%TD*%
D16*
%TO.N,Net-(BAT3-+)*%
%TO.C,BAT3*%
X12528200Y27428350D03*
D17*
%TO.N,Net-(BAT3--)*%
X12528200Y18785950D03*
%TD*%
D20*
%TO.N,Net-(U1-IN+)*%
%TO.C,RV1*%
X41234900Y61265290D03*
%TO.N,GND*%
X41234900Y62535290D03*
%TD*%
D21*
%TO.N,BUSA*%
%TO.C,J1*%
X54749600Y74029700D03*
%TO.N,BUSB*%
X52459600Y74029700D03*
X20859600Y74029700D03*
D22*
%TO.N,BUSA*%
X18572137Y74027305D03*
D21*
%TO.N,RADANT*%
X53039600Y78929700D03*
%TO.N,ENCL*%
X53034600Y82929700D03*
%TD*%
D23*
%TO.N,nRESET*%
X46952200Y50815350D03*
X40177200Y27415350D03*
X29977200Y16540350D03*
X44827200Y31944700D03*
X52527200Y41150350D03*
%TO.N,/Microcontroller/LOAD_AN*%
X33927200Y25761340D03*
%TO.N,VNET*%
X41777200Y47665350D03*
X52427200Y53009840D03*
X41640860Y53565360D03*
X33537200Y46240350D03*
X47877200Y30340350D03*
%TO.N,/Microcontroller/RTCK_LPC*%
X52527200Y61470350D03*
X39400000Y20640350D03*
%TO.N,/CPLD/DISCHG*%
X35852200Y42790350D03*
X34927200Y17740350D03*
%TO.N,/Battery 1 Conditioning/nSHDNBT1*%
X27806530Y47015350D03*
X32045000Y19005000D03*
%TO.N,/Test Points/TXD0*%
X39630000Y18935000D03*
X52527200Y33530350D03*
%TO.N,Net-(U46-VDDA_(1V8))*%
X42527200Y17815470D03*
D24*
X39902200Y40315350D03*
D23*
X27999325Y19403922D03*
X28927200Y27315350D03*
%TO.N,/Battery 3 Conditioning/nSHDNCHG3*%
X27766538Y22786437D03*
X38902200Y25065350D03*
%TO.N,TMS_CPLD*%
X40327200Y39090350D03*
X51107200Y30990350D03*
%TO.N,/I2C Multiplexing/SCLOCK*%
X24677400Y37688350D03*
X43827200Y57390350D03*
X26349570Y18949794D03*
X37002200Y55990350D03*
X39931210Y21065350D03*
X44429600Y31484700D03*
X52527200Y42809840D03*
X20624600Y77304700D03*
X30402200Y60565350D03*
X24704570Y55179794D03*
%TO.N,/I2C Multiplexing/SDATA*%
X24877200Y16290350D03*
X30402200Y61440350D03*
X52527200Y45509840D03*
X42193426Y23331574D03*
X21449600Y77754700D03*
X43127200Y57390350D03*
X23489570Y20539794D03*
X21984570Y48219794D03*
X23024570Y31119794D03*
X22024570Y16849794D03*
X45944600Y31504700D03*
X37902200Y55976780D03*
%TO.N,TDO_CPLD*%
X52727200Y26159840D03*
X30927200Y37040350D03*
%TO.N,3V3*%
X22577200Y12000350D03*
X21827200Y81759840D03*
X22834570Y58309794D03*
X32164700Y63325350D03*
X22834570Y41359794D03*
X36402200Y59340350D03*
X41227200Y17390350D03*
X44427200Y60390350D03*
X45477200Y25975350D03*
X40309570Y34957030D03*
X27909570Y16749794D03*
X32465000Y29865000D03*
X27975060Y29088210D03*
X22659570Y30334794D03*
X22724570Y34488232D03*
X41977200Y44915350D03*
X42602200Y56840350D03*
D24*
X49277200Y40615350D03*
D23*
X29695000Y78290350D03*
X30977200Y28825350D03*
X25577200Y48290350D03*
X51817200Y18000350D03*
X28277200Y35940350D03*
X23709570Y19569794D03*
X23344570Y50559794D03*
X45552200Y17790350D03*
X27975060Y63140350D03*
X33818160Y54740350D03*
%TO.N,TDI_CPLD*%
X51107200Y28450350D03*
X40317890Y34290350D03*
%TO.N,/Microcontroller/TCK_LPC*%
X35927200Y20915350D03*
X31152200Y21815350D03*
X51827200Y51259840D03*
%TO.N,TCK_CPLD*%
X51077200Y23559840D03*
X33352200Y38765350D03*
%TO.N,/Microcontroller/THRM*%
X36402200Y24865350D03*
%TO.N,nBOOT*%
X52527200Y46230350D03*
X33177200Y25890350D03*
X30377200Y44840350D03*
%TO.N,/Battery 1 Conditioning/nSHDNCHG1*%
X33927200Y17915350D03*
X28045000Y55340350D03*
%TO.N,/Microcontroller/TMS_LPC*%
X52527200Y53850350D03*
X30402200Y25890350D03*
%TO.N,/Microcontroller/nTRST_LPC*%
X42527080Y20065350D03*
X52527200Y48770350D03*
%TO.N,/Microcontroller/TDO_LPC*%
X52527200Y56390350D03*
X30452200Y18565350D03*
%TO.N,/Microcontroller/nCSRAM*%
X37027200Y19725350D03*
%TO.N,/Test Points/SCK1*%
X29377200Y49459840D03*
X31500000Y29340350D03*
X52577200Y32709840D03*
X39302330Y83865190D03*
%TO.N,/Test Points/MISO0*%
X42453425Y24941575D03*
X52677200Y29709840D03*
X37577200Y24565350D03*
%TO.N,/Battery 2 Conditioning/nSHDNCHG2*%
X35927200Y30465350D03*
X27752200Y39475000D03*
%TO.N,/Battery 3 Conditioning/nSHDNBT3*%
X37602200Y26300350D03*
%TO.N,RADINT0*%
X32430000Y29235000D03*
X36247130Y80590190D03*
%TO.N,/Microcontroller/nCSFLA*%
X36972210Y25366190D03*
%TO.N,/Battery 2 Conditioning/nSHDNBT2*%
X30180000Y33630000D03*
X35927200Y26840350D03*
%TO.N,/Microcontroller/SSEL1*%
X29077200Y17540350D03*
%TO.N,/Microcontroller/ACCINT*%
X32450000Y30510000D03*
X23699600Y76739700D03*
%TO.N,/Microcontroller/TDI_LPC*%
X30452200Y20565350D03*
X51817039Y58797263D03*
X41352200Y16290350D03*
%TO.N,nCSRAD*%
X35247130Y80590190D03*
X35477200Y60209840D03*
X41352200Y29565350D03*
%TO.N,/Microcontroller/PWMBT*%
X33927200Y46840350D03*
X41352200Y28840350D03*
%TO.N,/Battery 1 Conditioning/SDATA1*%
X22827200Y56634794D03*
%TO.N,/Battery 1 Conditioning/SCLOCK1*%
X24099570Y55194794D03*
%TO.N,/Battery 2 Conditioning/SDATA2*%
X22827200Y39064794D03*
%TO.N,/Battery 2 Conditioning/SCLOCK2*%
X23994570Y37674794D03*
%TO.N,/CPLD/SCKSEL3*%
X30927200Y37865350D03*
X27429570Y21069465D03*
%TO.N,/Battery 3 Conditioning/SDATA3*%
X22750670Y21313294D03*
%TO.N,/Battery 3 Conditioning/SCLOCK3*%
X24989570Y19849794D03*
%TO.N,Net-(C10-Pad1)*%
X43330000Y40775000D03*
X28252200Y36665350D03*
D24*
X45702200Y41040350D03*
D23*
X41352200Y31215350D03*
X34077200Y45540350D03*
%TO.N,/CPLD/nPHB*%
X40327200Y38290350D03*
X30927200Y51640350D03*
%TO.N,/CPLD/CKCPLD*%
X26853775Y28463775D03*
X37052200Y33840350D03*
%TO.N,/Battery 3 Conditioning/DISCHG3*%
X20577200Y14200350D03*
X30577200Y44190430D03*
%TO.N,/CPLD/SNSEN*%
X40327200Y37490350D03*
X40302200Y56105350D03*
%TO.N,/Battery 1 Conditioning/DISCHG1*%
X25727200Y47515350D03*
%TO.N,/CPLD/nSENSE*%
X30777200Y50940350D03*
X40277200Y35890350D03*
%TO.N,/Battery 2 Conditioning/DISCHG2*%
X32252120Y43015430D03*
X22777200Y31913230D03*
%TO.N,/Test Points/SCK0*%
X52727200Y25509840D03*
X38227200Y21440350D03*
%TO.N,/Test Points/MISO1*%
X38302330Y83865240D03*
X34025000Y21417350D03*
X52527200Y17650350D03*
X52904570Y37774794D03*
%TO.N,/Test Points/RXCAN*%
X51825000Y20380000D03*
X35427120Y18315350D03*
%TO.N,/Test Points/RXD0*%
X51754570Y35489794D03*
X39677200Y20065350D03*
%TO.N,/Test Points/MOSI0*%
X39977200Y25065350D03*
X52727200Y26809840D03*
%TO.N,n3V3*%
X52377200Y55609840D03*
X27985330Y52190350D03*
X35627200Y59340350D03*
X37277200Y52540350D03*
D24*
%TO.N,Net-(D6-C)*%
X42602200Y24065350D03*
%TO.N,Net-(D2-C)*%
X43852200Y27865350D03*
%TO.N,Net-(D10-A)*%
X49702200Y55815350D03*
%TO.N,Net-(U20-VIN)*%
X47727200Y60540350D03*
D23*
X45827200Y60390350D03*
X48427200Y59440350D03*
%TO.N,Net-(U38-~{CTL})*%
X19502200Y16385000D03*
%TO.N,/Battery 3 Conditioning/VBT3*%
X26938046Y26776872D03*
X26934570Y26329796D03*
X16974570Y25724794D03*
X16379570Y25719794D03*
X23144570Y15904794D03*
D24*
%TO.N,VSYS*%
X23302200Y13300350D03*
X51177200Y12800350D03*
D23*
X32388183Y23996704D03*
D24*
X24052400Y33813230D03*
D23*
X32352200Y56215350D03*
X52560000Y47625000D03*
X41304600Y30334700D03*
X32227200Y40390350D03*
D24*
X24052400Y51390230D03*
D23*
%TO.N,/Battery 2 Conditioning/VBT2*%
X27252320Y44334794D03*
X16954570Y43499794D03*
X27277320Y45019794D03*
X16199570Y43499794D03*
%TO.N,/Battery 1 Conditioning/VBT1*%
X16259570Y61549794D03*
X27227200Y61544794D03*
X16909570Y61549794D03*
X27217200Y62196550D03*
D24*
%TO.N,Net-(U19-FB)*%
X44877200Y44740350D03*
%TO.N,Net-(U19-SW)*%
X44852200Y46690350D03*
D23*
%TO.N,Net-(U40-G1)*%
X30515000Y17565000D03*
X33433420Y23804794D03*
%TO.N,Net-(U32-G1)*%
X33077200Y33465350D03*
X33302200Y40390350D03*
%TO.N,Net-(U24-G1)*%
X33328425Y56291575D03*
X30327200Y49459840D03*
%TO.N,/Test Points/TXCAN*%
X35917890Y17740350D03*
X52727200Y21309840D03*
%TO.N,/Test Points/MOSI1*%
X52914570Y35609794D03*
X40302200Y83865350D03*
X52969570Y17079794D03*
X34902200Y42040350D03*
X33132729Y21513509D03*
%TO.N,Net-(D2-A)*%
X50164700Y29127850D03*
%TO.N,GND*%
X52277200Y40409840D03*
X52804570Y63384794D03*
D24*
X45827200Y58040350D03*
D23*
X31993160Y78290350D03*
D24*
X42614600Y31149700D03*
D23*
X23377200Y28507030D03*
D24*
X22719570Y60579794D03*
D23*
X48629190Y44991140D03*
X33052200Y63300350D03*
D24*
X22827200Y43234794D03*
D23*
X49854190Y44991140D03*
X48627200Y45662140D03*
X52377380Y20814039D03*
X49252200Y45662140D03*
X31093160Y78290350D03*
X49852200Y45662140D03*
X49254190Y44991140D03*
D24*
X46777200Y58040350D03*
D23*
X24079570Y63649794D03*
D24*
X30765000Y31080000D03*
D23*
X31093160Y78990350D03*
D24*
X47727200Y58040350D03*
D23*
X51817200Y38335350D03*
X32893160Y78290350D03*
D24*
X27084570Y20369794D03*
D23*
X32893160Y78990350D03*
X23569570Y46504794D03*
D25*
%TO.N,COMRF*%
X56577450Y79240470D03*
X55077450Y79240470D03*
D23*
X32893160Y80690350D03*
D25*
X55577450Y79240470D03*
X56077450Y79240470D03*
X54577450Y79240470D03*
D23*
X31093160Y80690350D03*
X32893160Y79990350D03*
X31993160Y80690350D03*
X31093160Y79990350D03*
D24*
%TO.N,Net-(BAT1--)*%
X22719570Y59179794D03*
D23*
%TO.N,BUSB*%
X35602200Y61240350D03*
X28036510Y49655350D03*
%TO.N,BUSA*%
X35602200Y62365350D03*
X34437200Y49650350D03*
X34437200Y56109840D03*
D24*
%TO.N,Net-(BAT2--)*%
X22827200Y42134759D03*
D23*
%TO.N,3V3RF*%
X39852200Y75900350D03*
X45052200Y76750350D03*
X41077200Y82240350D03*
X36240000Y83025000D03*
X44477200Y82040350D03*
%TO.N,1V8*%
X45015510Y53640350D03*
X52964570Y58734794D03*
%TO.N,/Thermister & Digital Peripheral System/3V3MEM*%
X38827200Y34957030D03*
X38242210Y25711360D03*
%TO.N,Net-(U16-MODE)*%
X47505000Y33220000D03*
X46565000Y37980000D03*
%TO.N,Net-(U16-VOUT)*%
X47454200Y40265350D03*
X42958200Y37590350D03*
X42958200Y36740350D03*
X43258200Y37165350D03*
D24*
%TO.N,Net-(BAT3--)*%
X22689570Y24189794D03*
%TO.N,Net-(BAT3-+)*%
X22674570Y29459794D03*
%TO.N,Net-(BAT1-+)*%
X22634570Y63549794D03*
%TO.N,Net-(BAT2-+)*%
X22774570Y47134794D03*
D23*
%TO.N,Net-(U16-SW1)*%
X47252200Y32590350D03*
%TO.N,Net-(U16-SW2)*%
X46002200Y32590350D03*
%TO.N,nDRESET*%
X52527200Y43690350D03*
X30452200Y19315450D03*
X30427200Y16109840D03*
D24*
%TO.N,VREC*%
X50795000Y29735000D03*
X51177200Y15325350D03*
D23*
X52874570Y60729794D03*
X32877200Y13900350D03*
D24*
%TO.N,VSUPPLY*%
X29405000Y32305000D03*
D23*
X52127200Y50609840D03*
D24*
X50749000Y37040350D03*
D23*
X50727200Y48259840D03*
%TO.N,Net-(U46-VDDA_(3V3))*%
X43677200Y20965350D03*
X33927200Y30290350D03*
X35427120Y15265350D03*
X27725000Y23385000D03*
%TD*%
D26*
%TO.N,/I2C Multiplexing/SCLOCK*%
X53102200Y43384840D02*
X52527200Y42809840D01*
X53102200Y43982164D02*
X53102200Y43384840D01*
X51791644Y44314794D02*
X52769570Y44314794D01*
X38687250Y42975350D02*
X50452200Y42975350D01*
X38137250Y43525350D02*
X38687250Y42975350D01*
X31827200Y43525350D02*
X38137250Y43525350D01*
X52769570Y44314794D02*
X53102200Y43982164D01*
X50452200Y42975350D02*
X51791644Y44314794D01*
X30977200Y42675350D02*
X31827200Y43525350D01*
X27835126Y42675350D02*
X30977200Y42675350D01*
X24677400Y39517624D02*
X27835126Y42675350D01*
X24677400Y37688350D02*
X24677400Y39517624D01*
%TO.N,/I2C Multiplexing/SDATA*%
X23059570Y48219794D02*
X21984570Y48219794D01*
X24264570Y45909794D02*
X24264570Y47014794D01*
X30687250Y43375350D02*
X26799014Y43375350D01*
X38427200Y44225350D02*
X31537250Y44225350D01*
X31537250Y44225350D02*
X30687250Y43375350D01*
X38977200Y43675350D02*
X38427200Y44225350D01*
X24264570Y47014794D02*
X23059570Y48219794D01*
X50162250Y43675350D02*
X38977200Y43675350D01*
X51996740Y45509840D02*
X50162250Y43675350D01*
X26799014Y43375350D02*
X24264570Y45909794D01*
X52527200Y45509840D02*
X51996740Y45509840D01*
D27*
%TO.N,TCK_CPLD*%
X39012200Y21590350D02*
X48842200Y21590350D01*
X38402850Y22199700D02*
X39012200Y21590350D01*
X31915300Y22199700D02*
X38402850Y22199700D01*
X31035000Y26632140D02*
X31035000Y23080000D01*
X28795000Y28872140D02*
X31035000Y26632140D01*
X31035000Y23080000D02*
X31915300Y22199700D01*
X27865000Y30459364D02*
X28795000Y29529364D01*
X28795000Y29529364D02*
X28795000Y28872140D01*
X27865000Y34713150D02*
X27865000Y30459364D01*
X29527200Y36375350D02*
X27865000Y34713150D01*
X30992200Y38765350D02*
X29527200Y37300350D01*
X29527200Y37300350D02*
X29527200Y36375350D01*
X33352200Y38765350D02*
X30992200Y38765350D01*
%TO.N,/Test Points/MOSI0*%
X41632756Y22784794D02*
X48011644Y22784794D01*
X39977200Y24440350D02*
X41632756Y22784794D01*
X48011644Y22784794D02*
X52036690Y26809840D01*
X39977200Y25065350D02*
X39977200Y24440350D01*
%TO.N,Net-(U46-VDDA_(1V8))*%
X27119014Y27315350D02*
X28927200Y27315350D01*
X30877200Y41100350D02*
X26227200Y36450350D01*
X26227200Y36450350D02*
X26227200Y28207164D01*
X26227200Y28207164D02*
X27119014Y27315350D01*
X39902200Y40315350D02*
X39117200Y41100350D01*
X39117200Y41100350D02*
X30877200Y41100350D01*
X28934570Y22403044D02*
X28934570Y27307980D01*
X28934570Y27307980D02*
X28927200Y27315350D01*
X28019570Y21488044D02*
X28934570Y22403044D01*
X28019570Y19424167D02*
X28019570Y21488044D01*
X27999325Y19403922D02*
X28019570Y19424167D01*
X41566730Y16855000D02*
X42527200Y17815470D01*
X29765000Y17549364D02*
X30459364Y16855000D01*
X29765000Y18345000D02*
X29765000Y17549364D01*
X28706078Y19403922D02*
X29765000Y18345000D01*
X27999325Y19403922D02*
X28706078Y19403922D01*
X30459364Y16855000D02*
X41566730Y16855000D01*
%TO.N,TMS_CPLD*%
X51627200Y37375350D02*
X49912200Y39090350D01*
X49912200Y39090350D02*
X40327200Y39090350D01*
X51627200Y36342424D02*
X51627200Y37375350D01*
X51107200Y35822424D02*
X51627200Y36342424D01*
X51107200Y30990350D02*
X51107200Y35822424D01*
D26*
%TO.N,/I2C Multiplexing/SDATA*%
X24334570Y16849794D02*
X22024570Y16849794D01*
X24877200Y16307164D02*
X24334570Y16849794D01*
X24877200Y16290350D02*
X24877200Y16307164D01*
D28*
%TO.N,TDO_CPLD*%
X31525000Y26890000D02*
X31525000Y23369300D01*
X39102200Y22225350D02*
X48352200Y22225350D01*
X30927200Y37040350D02*
X28527200Y34640350D01*
X28527200Y30877800D02*
X29565000Y29840000D01*
X32193950Y22700350D02*
X38627200Y22700350D01*
X29565000Y29840000D02*
X29565000Y28850000D01*
X38627200Y22700350D02*
X39102200Y22225350D01*
X52286690Y26159840D02*
X52727200Y26159840D01*
X29565000Y28850000D02*
X31525000Y26890000D01*
X31525000Y23369300D02*
X32193950Y22700350D01*
X48352200Y22225350D02*
X52286690Y26159840D01*
X28527200Y34640350D02*
X28527200Y30877800D01*
D27*
%TO.N,TDI_CPLD*%
X40317890Y34290350D02*
X43374650Y34290350D01*
X49814650Y28450350D02*
X51107200Y28450350D01*
X43374650Y34290350D02*
X45600000Y32065000D01*
X47589300Y32065000D02*
X49270200Y30384100D01*
X45600000Y32065000D02*
X47589300Y32065000D01*
X49270200Y28994800D02*
X49814650Y28450350D01*
X49270200Y30384100D02*
X49270200Y28994800D01*
D28*
%TO.N,TCK_CPLD*%
X48842200Y21590350D02*
X49107710Y21590350D01*
X49107710Y21590350D02*
X51077200Y23559840D01*
D26*
%TO.N,nBOOT*%
X45827200Y45800350D02*
X46257200Y46230350D01*
X41352200Y45800350D02*
X45827200Y45800350D01*
X40392190Y44840350D02*
X41352200Y45800350D01*
X30377200Y44840350D02*
X40392190Y44840350D01*
X46257200Y46230350D02*
X52527200Y46230350D01*
D27*
%TO.N,/Test Points/SCK1*%
X31500000Y29340350D02*
X31500000Y28952550D01*
X52052200Y30484840D02*
X52577200Y31009840D01*
X50252200Y26725350D02*
X52052200Y28525350D01*
X31500000Y28952550D02*
X31977200Y28475350D01*
D28*
X52577200Y31009840D02*
X52577200Y32709840D01*
D27*
X38427200Y26725350D02*
X50252200Y26725350D01*
X36677200Y28475350D02*
X38427200Y26725350D01*
X52052200Y28525350D02*
X52052200Y30484840D01*
X31977200Y28475350D02*
X36677200Y28475350D01*
D28*
%TO.N,/Test Points/MISO0*%
X52677200Y28275350D02*
X52677200Y29709840D01*
D27*
X42453425Y24941575D02*
X42602200Y25090350D01*
X42602200Y25090350D02*
X49492200Y25090350D01*
X49492200Y25090350D02*
X52677200Y28275350D01*
D28*
%TO.N,/Test Points/SCK0*%
X52727200Y23809840D02*
X52727200Y25509840D01*
D27*
X48437360Y19520000D02*
X48467710Y19550350D01*
D28*
X48467710Y19550350D02*
X52727200Y23809840D01*
D27*
X39277550Y19520000D02*
X48437360Y19520000D01*
X38227200Y20570350D02*
X39277550Y19520000D01*
X38227200Y21440350D02*
X38227200Y20570350D01*
%TO.N,/Test Points/MISO1*%
X34025000Y21417350D02*
X34025000Y21392550D01*
X34025000Y21392550D02*
X37342200Y18075350D01*
X39752200Y18075350D02*
X40656200Y18979350D01*
X46748100Y18979350D02*
X48427100Y17300350D01*
X40656200Y18979350D02*
X46748100Y18979350D01*
X37342200Y18075350D02*
X39752200Y18075350D01*
X52177200Y17300350D02*
X52527200Y17650350D01*
X48427100Y17300350D02*
X52177200Y17300350D01*
D28*
%TO.N,/Test Points/MOSI0*%
X52036690Y26809840D02*
X52727200Y26809840D01*
%TO.N,n3V3*%
X51727200Y55609840D02*
X52377200Y55609840D01*
D27*
X37277200Y52540350D02*
X48657700Y52540350D01*
D28*
X48657700Y52540350D02*
X51727200Y55609840D01*
D26*
%TO.N,VSYS*%
X32164700Y24220187D02*
X32164700Y26890300D01*
D29*
X24217710Y13300350D02*
X25527200Y14609840D01*
D28*
X33292080Y53050350D02*
X25712520Y53050350D01*
D26*
X32164700Y26890300D02*
X30389600Y28665400D01*
X40594600Y31044700D02*
X41304600Y30334700D01*
X32044600Y31044700D02*
X40594600Y31044700D01*
D29*
X48627200Y14609840D02*
X50436690Y12800350D01*
D26*
X30389600Y28665400D02*
X30389600Y29389700D01*
D28*
X52560000Y47625000D02*
X50859650Y49325350D01*
D29*
X23302200Y13300350D02*
X24217710Y13300350D01*
D28*
X37017080Y49325350D02*
X33292080Y53050350D01*
X25712520Y53050350D02*
X24052400Y51390230D01*
D26*
X30389600Y29389700D02*
X32044600Y31044700D01*
X32388183Y23996704D02*
X32164700Y24220187D01*
D29*
X50436690Y12800350D02*
X51177200Y12800350D01*
X25527200Y14609840D02*
X48627200Y14609840D01*
D28*
X50859650Y49325350D02*
X37017080Y49325350D01*
D27*
%TO.N,/Test Points/MOSI1*%
X40177200Y17425350D02*
X37067310Y17425350D01*
X52615126Y16725350D02*
X48077200Y16725350D01*
X33173200Y21319460D02*
X33173200Y21473038D01*
X46477200Y18325350D02*
X41077200Y18325350D01*
X52969570Y17079794D02*
X52615126Y16725350D01*
X37067310Y17425350D02*
X33173200Y21319460D01*
X48077200Y16725350D02*
X46477200Y18325350D01*
X41077200Y18325350D02*
X40177200Y17425350D01*
X33173200Y21473038D02*
X33132729Y21513509D01*
D30*
%TO.N,BUSB*%
X45120000Y75590000D02*
X44090000Y76620000D01*
X27823446Y76620000D02*
X26029231Y74825785D01*
X52449062Y74024035D02*
X52449062Y74028784D01*
X44090000Y76620000D02*
X27823446Y76620000D01*
X21650812Y74825785D02*
X20849062Y74024035D01*
X50887846Y75590000D02*
X45120000Y75590000D01*
X52449062Y74028784D02*
X50887846Y75590000D01*
X26029231Y74825785D02*
X21650812Y74825785D01*
%TO.N,BUSA*%
X46410000Y76780000D02*
X45608748Y77581252D01*
X19968582Y75845000D02*
X18572137Y74448555D01*
X45608748Y77581252D02*
X27046252Y77581252D01*
X27046252Y77581252D02*
X25310000Y75845000D01*
X51983097Y76780000D02*
X46410000Y76780000D01*
X18572137Y74448555D02*
X18572137Y74027305D01*
X25310000Y75845000D02*
X19968582Y75845000D01*
X54739062Y74024035D02*
X51983097Y76780000D01*
D28*
%TO.N,1V8*%
X51689616Y57459840D02*
X48835000Y57459840D01*
X52964570Y58734794D02*
X51689616Y57459840D01*
X48835000Y57459840D02*
X45015510Y53640350D01*
D27*
%TO.N,nDRESET*%
X42577200Y41975350D02*
X40177200Y39575350D01*
X29079650Y27925350D02*
X29677200Y27327800D01*
X30327200Y39575350D02*
X27352200Y36600350D01*
X50812200Y41975350D02*
X42577200Y41975350D01*
X29677200Y20090450D02*
X30452200Y19315450D01*
X27352200Y28850350D02*
X28277200Y27925350D01*
X29677200Y27327800D02*
X29677200Y20090450D01*
X52527200Y43690350D02*
X50812200Y41975350D01*
X40177200Y39575350D02*
X30327200Y39575350D01*
X28277200Y27925350D02*
X29079650Y27925350D01*
X27352200Y36600350D02*
X27352200Y28850350D01*
D31*
%TO.N,VSUPPLY*%
X40802200Y36700350D02*
X41502200Y36000350D01*
X49709000Y36000350D02*
X50749000Y37040350D01*
X30720000Y32305000D02*
X35115350Y36700350D01*
X35115350Y36700350D02*
X40802200Y36700350D01*
X41502200Y36000350D02*
X49709000Y36000350D01*
X29405000Y32305000D02*
X30720000Y32305000D01*
%TD*%
%TA.AperFunction,Conductor*%
%TO.N,/I2C Multiplexing/SCLOCK*%
G36*
X52780863Y43192572D02*
G01*
X52909931Y43063504D01*
X52913358Y43055231D01*
X52911941Y43049650D01*
X52740078Y42732959D01*
X52733120Y42727323D01*
X52725362Y42727712D01*
X52531030Y42807276D01*
X52524672Y42813582D01*
X52524635Y42813671D01*
X52445071Y43008003D01*
X52445108Y43016958D01*
X52450315Y43022717D01*
X52767010Y43194583D01*
X52775915Y43195516D01*
X52780863Y43192572D01*
G37*
%TD.AperFunction*%
%TD*%
%TA.AperFunction,Conductor*%
%TO.N,/I2C Multiplexing/SCLOCK*%
G36*
X24776938Y38134923D02*
G01*
X24779883Y38129975D01*
X24882290Y37784515D01*
X24881355Y37775609D01*
X24875594Y37770399D01*
X24681922Y37689245D01*
X24672967Y37689208D01*
X24672878Y37689245D01*
X24479205Y37770399D01*
X24472899Y37776757D01*
X24472509Y37784515D01*
X24574917Y38129975D01*
X24580554Y38136933D01*
X24586135Y38138350D01*
X24768665Y38138350D01*
X24776938Y38134923D01*
G37*
%TD.AperFunction*%
%TD*%
%TA.AperFunction,Conductor*%
%TO.N,/I2C Multiplexing/SDATA*%
G36*
X22426195Y48322277D02*
G01*
X22433153Y48316640D01*
X22434570Y48311059D01*
X22434570Y48128530D01*
X22431143Y48120257D01*
X22426195Y48117312D01*
X22080734Y48014904D01*
X22071828Y48015839D01*
X22066618Y48021600D01*
X21985463Y48215275D01*
X21985427Y48224226D01*
X22066619Y48417991D01*
X22072976Y48424295D01*
X22080733Y48424685D01*
X22426195Y48322277D01*
G37*
%TD.AperFunction*%
%TD*%
%TA.AperFunction,Conductor*%
%TO.N,/I2C Multiplexing/SDATA*%
G36*
X52439941Y45713796D02*
G01*
X52445151Y45708035D01*
X52526305Y45514362D01*
X52526342Y45505407D01*
X52526305Y45505318D01*
X52445151Y45311646D01*
X52438793Y45305340D01*
X52431035Y45304950D01*
X52085575Y45407358D01*
X52078617Y45412995D01*
X52077200Y45418576D01*
X52077200Y45601105D01*
X52080627Y45609378D01*
X52085573Y45612323D01*
X52431036Y45714731D01*
X52439941Y45713796D01*
G37*
%TD.AperFunction*%
%TD*%
%TA.AperFunction,Conductor*%
%TO.N,TCK_CPLD*%
G36*
X33265366Y38969551D02*
G01*
X33269876Y38964202D01*
X33351305Y38769872D01*
X33351342Y38760917D01*
X33351305Y38760828D01*
X33269876Y38566499D01*
X33263518Y38560193D01*
X33256547Y38559600D01*
X32911362Y38636314D01*
X32904029Y38641454D01*
X32902200Y38647735D01*
X32902200Y38882966D01*
X32905627Y38891239D01*
X32911359Y38894386D01*
X33256547Y38971101D01*
X33265366Y38969551D01*
G37*
%TD.AperFunction*%
%TD*%
%TA.AperFunction,Conductor*%
%TO.N,/Test Points/MOSI0*%
G36*
X40176051Y24983027D02*
G01*
X40182357Y24976669D01*
X40182950Y24969698D01*
X40106236Y24624512D01*
X40101096Y24617179D01*
X40094815Y24615350D01*
X39859585Y24615350D01*
X39851312Y24618777D01*
X39848164Y24624512D01*
X39771449Y24969698D01*
X39772999Y24978517D01*
X39778345Y24983026D01*
X39972680Y25064457D01*
X39981631Y25064493D01*
X40176051Y24983027D01*
G37*
%TD.AperFunction*%
%TD*%
%TA.AperFunction,Conductor*%
%TO.N,Net-(U46-VDDA_(1V8))*%
G36*
X28840366Y27519551D02*
G01*
X28844876Y27514202D01*
X28926305Y27319872D01*
X28926342Y27310917D01*
X28926305Y27310828D01*
X28844876Y27116499D01*
X28838518Y27110193D01*
X28831547Y27109600D01*
X28486362Y27186314D01*
X28479029Y27191454D01*
X28477200Y27197735D01*
X28477200Y27432966D01*
X28480627Y27441239D01*
X28486359Y27444386D01*
X28831547Y27521101D01*
X28840366Y27519551D01*
G37*
%TD.AperFunction*%
%TD*%
%TA.AperFunction,Conductor*%
%TO.N,Net-(U46-VDDA_(1V8))*%
G36*
X39433695Y40967484D02*
G01*
X39837619Y40783852D01*
X40045001Y40689572D01*
X40051114Y40683028D01*
X40050979Y40674469D01*
X39904763Y40319155D01*
X39898445Y40312808D01*
X39898395Y40312787D01*
X39543081Y40166571D01*
X39534127Y40166592D01*
X39527978Y40172549D01*
X39464223Y40312787D01*
X39250066Y40783854D01*
X39249763Y40792801D01*
X39252443Y40796965D01*
X39420584Y40965106D01*
X39428856Y40968532D01*
X39433695Y40967484D01*
G37*
%TD.AperFunction*%
%TD*%
%TA.AperFunction,Conductor*%
%TO.N,Net-(U46-VDDA_(1V8))*%
G36*
X29126220Y27232956D02*
G01*
X29132526Y27226598D01*
X29133165Y27219840D01*
X29063471Y26876191D01*
X29058468Y26868764D01*
X29052004Y26866816D01*
X28816763Y26866816D01*
X28808490Y26870243D01*
X28805395Y26875748D01*
X28805287Y26876191D01*
X28721688Y27219548D01*
X28723061Y27228395D01*
X28728531Y27233103D01*
X28922680Y27314457D01*
X28931631Y27314493D01*
X29126220Y27232956D01*
G37*
%TD.AperFunction*%
%TD*%
%TA.AperFunction,Conductor*%
%TO.N,Net-(U46-VDDA_(1V8))*%
G36*
X28145006Y19846468D02*
G01*
X28148259Y19840205D01*
X28221945Y19417571D01*
X28219990Y19408832D01*
X28212429Y19404035D01*
X28210471Y19403861D01*
X28001704Y19402933D01*
X27997130Y19403842D01*
X27800992Y19486029D01*
X27794686Y19492387D01*
X27794250Y19499985D01*
X27890172Y19841360D01*
X27895709Y19848398D01*
X27901436Y19849895D01*
X28136733Y19849895D01*
X28145006Y19846468D01*
G37*
%TD.AperFunction*%
%TD*%
%TA.AperFunction,Conductor*%
%TO.N,Net-(U46-VDDA_(1V8))*%
G36*
X42328379Y17897868D02*
G01*
X42523369Y17818035D01*
X42529727Y17811729D01*
X42529764Y17811640D01*
X42609597Y17616650D01*
X42609560Y17607695D01*
X42605050Y17602346D01*
X42306722Y17412509D01*
X42297903Y17410959D01*
X42292168Y17414107D01*
X42125836Y17580439D01*
X42122409Y17588712D01*
X42124237Y17594992D01*
X42314075Y17893322D01*
X42321408Y17898461D01*
X42328379Y17897868D01*
G37*
%TD.AperFunction*%
%TD*%
%TA.AperFunction,Conductor*%
%TO.N,Net-(U46-VDDA_(1V8))*%
G36*
X28440164Y19532958D02*
G01*
X28447496Y19527819D01*
X28449325Y19521538D01*
X28449325Y19286307D01*
X28445898Y19278034D01*
X28440163Y19274886D01*
X28094977Y19198172D01*
X28086158Y19199722D01*
X28081649Y19205070D01*
X28000218Y19399403D01*
X28000182Y19408354D01*
X28081649Y19602776D01*
X28088006Y19609080D01*
X28094977Y19609673D01*
X28440164Y19532958D01*
G37*
%TD.AperFunction*%
%TD*%
%TA.AperFunction,Conductor*%
%TO.N,TMS_CPLD*%
G36*
X40768039Y39219386D02*
G01*
X40775371Y39214247D01*
X40777200Y39207966D01*
X40777200Y38972735D01*
X40773773Y38964462D01*
X40768038Y38961314D01*
X40422852Y38884600D01*
X40414033Y38886150D01*
X40409524Y38891498D01*
X40328093Y39085831D01*
X40328057Y39094782D01*
X40409524Y39289204D01*
X40415881Y39295508D01*
X40422852Y39296101D01*
X40768039Y39219386D01*
G37*
%TD.AperFunction*%
%TD*%
%TA.AperFunction,Conductor*%
%TO.N,TMS_CPLD*%
G36*
X51233088Y31436923D02*
G01*
X51236236Y31431188D01*
X51312950Y31086003D01*
X51311400Y31077184D01*
X51306051Y31072674D01*
X51111722Y30991245D01*
X51102767Y30991208D01*
X51102678Y30991245D01*
X50908348Y31072674D01*
X50902042Y31079032D01*
X50901449Y31086003D01*
X50978164Y31431188D01*
X50983304Y31438521D01*
X50989585Y31440350D01*
X51224815Y31440350D01*
X51233088Y31436923D01*
G37*
%TD.AperFunction*%
%TD*%
%TA.AperFunction,Conductor*%
%TO.N,/I2C Multiplexing/SDATA*%
G36*
X22466195Y16952277D02*
G01*
X22473153Y16946640D01*
X22474570Y16941059D01*
X22474570Y16758530D01*
X22471143Y16750257D01*
X22466195Y16747312D01*
X22120734Y16644904D01*
X22111828Y16645839D01*
X22106618Y16651600D01*
X22025463Y16845275D01*
X22025427Y16854226D01*
X22106619Y17047991D01*
X22112976Y17054295D01*
X22120733Y17054685D01*
X22466195Y16952277D01*
G37*
%TD.AperFunction*%
%TD*%
%TA.AperFunction,Conductor*%
%TO.N,/I2C Multiplexing/SDATA*%
G36*
X24647574Y16681476D02*
G01*
X24954486Y16503341D01*
X24959921Y16496224D01*
X24959441Y16488789D01*
X24879764Y16294181D01*
X24873458Y16287823D01*
X24873369Y16287786D01*
X24679352Y16208351D01*
X24670397Y16208388D01*
X24664464Y16213927D01*
X24627344Y16287823D01*
X24502162Y16537024D01*
X24501512Y16545953D01*
X24504343Y16550545D01*
X24633429Y16679631D01*
X24641701Y16683057D01*
X24647574Y16681476D01*
G37*
%TD.AperFunction*%
%TD*%
%TA.AperFunction,Conductor*%
%TO.N,TDO_CPLD*%
G36*
X30728428Y37122728D02*
G01*
X30923369Y37042915D01*
X30929727Y37036609D01*
X30929764Y37036520D01*
X31009577Y36841579D01*
X31009540Y36832624D01*
X31004979Y36827242D01*
X30705292Y36638735D01*
X30696464Y36637231D01*
X30690789Y36640366D01*
X30527215Y36803940D01*
X30523788Y36812213D01*
X30525584Y36818443D01*
X30714091Y37118130D01*
X30721397Y37123308D01*
X30728428Y37122728D01*
G37*
%TD.AperFunction*%
%TD*%
%TA.AperFunction,Conductor*%
%TO.N,TDO_CPLD*%
G36*
X52640030Y26363855D02*
G01*
X52645092Y26358176D01*
X52726018Y26165054D01*
X52726055Y26156099D01*
X52726029Y26156036D01*
X52645581Y25962744D01*
X52639238Y25956423D01*
X52630308Y25956428D01*
X52370520Y26063852D01*
X52366718Y26066391D01*
X52205726Y26227383D01*
X52202299Y26235656D01*
X52205726Y26243929D01*
X52210837Y26246920D01*
X52631139Y26364918D01*
X52640030Y26363855D01*
G37*
%TD.AperFunction*%
%TD*%
%TA.AperFunction,Conductor*%
%TO.N,TDI_CPLD*%
G36*
X40758729Y34419386D02*
G01*
X40766061Y34414247D01*
X40767890Y34407966D01*
X40767890Y34172735D01*
X40764463Y34164462D01*
X40758728Y34161314D01*
X40413542Y34084600D01*
X40404723Y34086150D01*
X40400214Y34091498D01*
X40318783Y34285831D01*
X40318747Y34294782D01*
X40400214Y34489204D01*
X40406571Y34495508D01*
X40413542Y34496101D01*
X40758729Y34419386D01*
G37*
%TD.AperFunction*%
%TD*%
%TA.AperFunction,Conductor*%
%TO.N,TDI_CPLD*%
G36*
X51020366Y28654551D02*
G01*
X51024876Y28649202D01*
X51106305Y28454872D01*
X51106342Y28445917D01*
X51106305Y28445828D01*
X51024876Y28251499D01*
X51018518Y28245193D01*
X51011547Y28244600D01*
X50666362Y28321314D01*
X50659029Y28326454D01*
X50657200Y28332735D01*
X50657200Y28567966D01*
X50660627Y28576239D01*
X50666359Y28579386D01*
X51011547Y28656101D01*
X51020366Y28654551D01*
G37*
%TD.AperFunction*%
%TD*%
%TA.AperFunction,Conductor*%
%TO.N,TCK_CPLD*%
G36*
X50878428Y23642218D02*
G01*
X51073369Y23562405D01*
X51079727Y23556099D01*
X51079764Y23556010D01*
X51159577Y23361069D01*
X51159540Y23352114D01*
X51154979Y23346732D01*
X50855292Y23158225D01*
X50846464Y23156721D01*
X50840789Y23159856D01*
X50677215Y23323430D01*
X50673788Y23331703D01*
X50675584Y23337933D01*
X50864091Y23637620D01*
X50871397Y23642798D01*
X50878428Y23642218D01*
G37*
%TD.AperFunction*%
%TD*%
%TA.AperFunction,Conductor*%
%TO.N,nBOOT*%
G36*
X30818825Y44942833D02*
G01*
X30825783Y44937196D01*
X30827200Y44931615D01*
X30827200Y44749086D01*
X30823773Y44740813D01*
X30818825Y44737868D01*
X30473364Y44635460D01*
X30464458Y44636395D01*
X30459248Y44642156D01*
X30378093Y44835831D01*
X30378057Y44844782D01*
X30459249Y45038547D01*
X30465606Y45044851D01*
X30473363Y45045241D01*
X30818825Y44942833D01*
G37*
%TD.AperFunction*%
%TD*%
%TA.AperFunction,Conductor*%
%TO.N,nBOOT*%
G36*
X52439941Y46434306D02*
G01*
X52445151Y46428545D01*
X52526305Y46234872D01*
X52526342Y46225917D01*
X52526305Y46225828D01*
X52445151Y46032156D01*
X52438793Y46025850D01*
X52431035Y46025460D01*
X52085575Y46127868D01*
X52078617Y46133505D01*
X52077200Y46139086D01*
X52077200Y46321615D01*
X52080627Y46329888D01*
X52085573Y46332833D01*
X52431036Y46435241D01*
X52439941Y46434306D01*
G37*
%TD.AperFunction*%
%TD*%
%TA.AperFunction,Conductor*%
%TO.N,/Test Points/SCK1*%
G36*
X31618821Y29291310D02*
G01*
X31698223Y29258262D01*
X31704544Y29251919D01*
X31704965Y29244206D01*
X31634621Y29001262D01*
X31631656Y28996243D01*
X31467063Y28831650D01*
X31458790Y28828223D01*
X31450517Y28831650D01*
X31447825Y28835843D01*
X31296045Y29243717D01*
X31296371Y29252665D01*
X31302487Y29258588D01*
X31494787Y29339170D01*
X31503740Y29339206D01*
X31618821Y29291310D01*
G37*
%TD.AperFunction*%
%TD*%
%TA.AperFunction,Conductor*%
%TO.N,/Test Points/SCK1*%
G36*
X52776003Y32627537D02*
G01*
X52782309Y32621179D01*
X52782889Y32614148D01*
X52704273Y32268942D01*
X52699095Y32261636D01*
X52692865Y32259840D01*
X52461535Y32259840D01*
X52453262Y32263267D01*
X52450127Y32268942D01*
X52371510Y32614150D01*
X52373014Y32622976D01*
X52378393Y32627536D01*
X52572680Y32708947D01*
X52581631Y32708983D01*
X52776003Y32627537D01*
G37*
%TD.AperFunction*%
%TD*%
%TA.AperFunction,Conductor*%
%TO.N,/Test Points/MISO0*%
G36*
X52876003Y29627537D02*
G01*
X52882309Y29621179D01*
X52882889Y29614148D01*
X52804273Y29268942D01*
X52799095Y29261636D01*
X52792865Y29259840D01*
X52561535Y29259840D01*
X52553262Y29263267D01*
X52550127Y29268942D01*
X52471510Y29614150D01*
X52473014Y29622976D01*
X52478393Y29627536D01*
X52672680Y29708947D01*
X52681631Y29708983D01*
X52876003Y29627537D01*
G37*
%TD.AperFunction*%
%TD*%
%TA.AperFunction,Conductor*%
%TO.N,/Test Points/MISO0*%
G36*
X42839861Y25213302D02*
G01*
X42844325Y25205539D01*
X42844422Y25204032D01*
X42844422Y24969064D01*
X42840995Y24960791D01*
X42839918Y24959838D01*
X42620653Y24788817D01*
X42612022Y24786431D01*
X42605210Y24789744D01*
X42455898Y24938124D01*
X42452446Y24946384D01*
X42453379Y25156344D01*
X42456843Y25164600D01*
X42463571Y25167893D01*
X42831215Y25215635D01*
X42839861Y25213302D01*
G37*
%TD.AperFunction*%
%TD*%
%TA.AperFunction,Conductor*%
%TO.N,/Test Points/SCK0*%
G36*
X52926003Y25427537D02*
G01*
X52932309Y25421179D01*
X52932889Y25414148D01*
X52854273Y25068942D01*
X52849095Y25061636D01*
X52842865Y25059840D01*
X52611535Y25059840D01*
X52603262Y25063267D01*
X52600127Y25068942D01*
X52521510Y25414150D01*
X52523014Y25422976D01*
X52528393Y25427536D01*
X52722680Y25508947D01*
X52731631Y25508983D01*
X52926003Y25427537D01*
G37*
%TD.AperFunction*%
%TD*%
%TA.AperFunction,Conductor*%
%TO.N,/Test Points/SCK0*%
G36*
X38426051Y21358027D02*
G01*
X38432357Y21351669D01*
X38432950Y21344698D01*
X38356236Y20999512D01*
X38351096Y20992179D01*
X38344815Y20990350D01*
X38109585Y20990350D01*
X38101312Y20993777D01*
X38098164Y20999512D01*
X38021449Y21344698D01*
X38022999Y21353517D01*
X38028345Y21358026D01*
X38222680Y21439457D01*
X38231631Y21439493D01*
X38426051Y21358027D01*
G37*
%TD.AperFunction*%
%TD*%
%TA.AperFunction,Conductor*%
%TO.N,/Test Points/MISO1*%
G36*
X34232326Y21499527D02*
G01*
X34237964Y21494538D01*
X34413703Y21186779D01*
X34414830Y21177895D01*
X34411816Y21172704D01*
X34245444Y21006332D01*
X34237171Y21002905D01*
X34230496Y21004996D01*
X33877344Y21250303D01*
X33872504Y21257837D01*
X33874410Y21266587D01*
X33875701Y21268140D01*
X34022619Y21416369D01*
X34026490Y21418957D01*
X34223371Y21499564D01*
X34232326Y21499527D01*
G37*
%TD.AperFunction*%
%TD*%
%TA.AperFunction,Conductor*%
%TO.N,/Test Points/MISO1*%
G36*
X52328379Y17732748D02*
G01*
X52523369Y17652915D01*
X52529727Y17646609D01*
X52529764Y17646520D01*
X52609597Y17451530D01*
X52609560Y17442575D01*
X52605050Y17437226D01*
X52306722Y17247389D01*
X52297903Y17245839D01*
X52292168Y17248987D01*
X52125836Y17415319D01*
X52122409Y17423592D01*
X52124237Y17429872D01*
X52314075Y17728202D01*
X52321408Y17733341D01*
X52328379Y17732748D01*
G37*
%TD.AperFunction*%
%TD*%
%TA.AperFunction,Conductor*%
%TO.N,/Test Points/MOSI0*%
G36*
X52640335Y27014026D02*
G01*
X52644896Y27008644D01*
X52726305Y26814362D01*
X52726342Y26805407D01*
X52726305Y26805318D01*
X52644896Y26611037D01*
X52638538Y26604731D01*
X52631507Y26604151D01*
X52286302Y26682768D01*
X52278996Y26687946D01*
X52277200Y26694176D01*
X52277200Y26925505D01*
X52280627Y26933778D01*
X52286301Y26936913D01*
X52631508Y27015530D01*
X52640335Y27014026D01*
G37*
%TD.AperFunction*%
%TD*%
%TA.AperFunction,Conductor*%
%TO.N,n3V3*%
G36*
X52290335Y55814026D02*
G01*
X52294896Y55808644D01*
X52376305Y55614362D01*
X52376342Y55605407D01*
X52376305Y55605318D01*
X52294896Y55411037D01*
X52288538Y55404731D01*
X52281507Y55404151D01*
X51936302Y55482768D01*
X51928996Y55487946D01*
X51927200Y55494176D01*
X51927200Y55725505D01*
X51930627Y55733778D01*
X51936301Y55736913D01*
X52281508Y55815530D01*
X52290335Y55814026D01*
G37*
%TD.AperFunction*%
%TD*%
%TA.AperFunction,Conductor*%
%TO.N,n3V3*%
G36*
X37718039Y52669386D02*
G01*
X37725371Y52664247D01*
X37727200Y52657966D01*
X37727200Y52422735D01*
X37723773Y52414462D01*
X37718038Y52411314D01*
X37372852Y52334600D01*
X37364033Y52336150D01*
X37359524Y52341498D01*
X37278093Y52535831D01*
X37278057Y52544782D01*
X37359524Y52739204D01*
X37365881Y52745508D01*
X37372852Y52746101D01*
X37718039Y52669386D01*
G37*
%TD.AperFunction*%
%TD*%
%TA.AperFunction,Conductor*%
%TO.N,VSYS*%
G36*
X41064789Y30719443D02*
G01*
X41381482Y30547578D01*
X41387117Y30540621D01*
X41386728Y30532863D01*
X41307164Y30338531D01*
X41300858Y30332173D01*
X41300769Y30332136D01*
X41106437Y30252572D01*
X41097482Y30252609D01*
X41091722Y30257818D01*
X40919857Y30574511D01*
X40918924Y30583416D01*
X40921866Y30588362D01*
X41050937Y30717433D01*
X41059209Y30720859D01*
X41064789Y30719443D01*
G37*
%TD.AperFunction*%
%TD*%
%TA.AperFunction,Conductor*%
%TO.N,VSYS*%
G36*
X52338092Y48026616D02*
G01*
X52637779Y47838109D01*
X52642957Y47830803D01*
X52642377Y47823772D01*
X52562564Y47628831D01*
X52556258Y47622473D01*
X52556169Y47622436D01*
X52361228Y47542623D01*
X52352273Y47542660D01*
X52346891Y47547221D01*
X52158384Y47846908D01*
X52156880Y47855736D01*
X52160013Y47861409D01*
X52323590Y48024986D01*
X52331862Y48028412D01*
X52338092Y48026616D01*
G37*
%TD.AperFunction*%
%TD*%
%TA.AperFunction,Conductor*%
%TO.N,VSYS*%
G36*
X24093467Y13502639D02*
G01*
X24100600Y13497227D01*
X24102200Y13491322D01*
X24102200Y13109379D01*
X24098773Y13101106D01*
X24093466Y13098061D01*
X23465120Y12933379D01*
X23456249Y12934597D01*
X23451355Y12940195D01*
X23303075Y13295851D01*
X23303055Y13304800D01*
X23451356Y13660508D01*
X23457702Y13666824D01*
X23465117Y13667322D01*
X24093467Y13502639D01*
G37*
%TD.AperFunction*%
%TD*%
%TA.AperFunction,Conductor*%
%TO.N,VSYS*%
G36*
X24535414Y52038587D02*
G01*
X24700756Y51873245D01*
X24704183Y51864972D01*
X24703147Y51860159D01*
X24426606Y51247470D01*
X24420079Y51241339D01*
X24411490Y51241463D01*
X24056204Y51387667D01*
X24049857Y51393985D01*
X24049836Y51394035D01*
X23903632Y51749321D01*
X23903653Y51758275D01*
X23909637Y51764436D01*
X24522328Y52040979D01*
X24531278Y52041258D01*
X24535414Y52038587D01*
G37*
%TD.AperFunction*%
%TD*%
%TA.AperFunction,Conductor*%
%TO.N,VSYS*%
G36*
X32267724Y24352013D02*
G01*
X32535917Y24163780D01*
X32540720Y24156222D01*
X32538773Y24147482D01*
X32537495Y24145956D01*
X32389855Y23997387D01*
X32385989Y23994806D01*
X32192690Y23915669D01*
X32183735Y23915706D01*
X32177429Y23922064D01*
X32176937Y23923539D01*
X32068519Y24339484D01*
X32069749Y24348354D01*
X32076890Y24353757D01*
X32079841Y24354135D01*
X32261004Y24354135D01*
X32267724Y24352013D01*
G37*
%TD.AperFunction*%
%TD*%
%TA.AperFunction,Conductor*%
%TO.N,VSYS*%
G36*
X51022462Y13165600D02*
G01*
X51028484Y13159411D01*
X51176039Y12804140D01*
X51176048Y12795185D01*
X51176033Y12795150D01*
X51028375Y12440990D01*
X51022028Y12434672D01*
X51013706Y12434451D01*
X50270764Y12694840D01*
X50264090Y12700810D01*
X50263593Y12709751D01*
X50266359Y12714152D01*
X50534277Y12982070D01*
X50538376Y12984726D01*
X51013513Y13165856D01*
X51022462Y13165600D01*
G37*
%TD.AperFunction*%
%TD*%
%TA.AperFunction,Conductor*%
%TO.N,/Test Points/MOSI1*%
G36*
X52770749Y17162192D02*
G01*
X52965739Y17082359D01*
X52972097Y17076053D01*
X52972134Y17075964D01*
X53051967Y16880974D01*
X53051930Y16872019D01*
X53047420Y16866670D01*
X52749092Y16676833D01*
X52740273Y16675283D01*
X52734538Y16678431D01*
X52568206Y16844763D01*
X52564779Y16853036D01*
X52566607Y16859316D01*
X52756445Y17157646D01*
X52763778Y17162785D01*
X52770749Y17162192D01*
G37*
%TD.AperFunction*%
%TD*%
%TA.AperFunction,Conductor*%
%TO.N,/Test Points/MOSI1*%
G36*
X33337319Y21594566D02*
G01*
X33343625Y21588208D01*
X33344084Y21586856D01*
X33439413Y21237615D01*
X33438286Y21228731D01*
X33436399Y21226261D01*
X33270082Y21059944D01*
X33261809Y21056517D01*
X33253536Y21059944D01*
X33253329Y21060156D01*
X33093092Y21228731D01*
X32981454Y21346179D01*
X32978238Y21354537D01*
X32981623Y21362475D01*
X33130348Y21512528D01*
X33134219Y21515116D01*
X33328365Y21594603D01*
X33337319Y21594566D01*
G37*
%TD.AperFunction*%
%TD*%
%TA.AperFunction,Conductor*%
%TO.N,1V8*%
G36*
X52765798Y58817172D02*
G01*
X52960739Y58737359D01*
X52967097Y58731053D01*
X52967134Y58730964D01*
X53046947Y58536023D01*
X53046910Y58527068D01*
X53042349Y58521686D01*
X52742662Y58333179D01*
X52733834Y58331675D01*
X52728159Y58334810D01*
X52564585Y58498384D01*
X52561158Y58506657D01*
X52562954Y58512887D01*
X52751461Y58812574D01*
X52758767Y58817752D01*
X52765798Y58817172D01*
G37*
%TD.AperFunction*%
%TD*%
%TA.AperFunction,Conductor*%
%TO.N,1V8*%
G36*
X45251920Y54040335D02*
G01*
X45415494Y53876761D01*
X45418921Y53868488D01*
X45417125Y53862258D01*
X45228618Y53562571D01*
X45221312Y53557393D01*
X45214281Y53557973D01*
X45019340Y53637786D01*
X45012982Y53644092D01*
X45012945Y53644181D01*
X44933132Y53839122D01*
X44933169Y53848077D01*
X44937730Y53853459D01*
X44964280Y53870159D01*
X45237417Y54041967D01*
X45246245Y54043470D01*
X45251920Y54040335D01*
G37*
%TD.AperFunction*%
%TD*%
%TA.AperFunction,Conductor*%
%TO.N,nDRESET*%
G36*
X30231722Y19718412D02*
G01*
X30530050Y19528575D01*
X30535190Y19521242D01*
X30534597Y19514271D01*
X30454764Y19319281D01*
X30448458Y19312923D01*
X30448369Y19312886D01*
X30253379Y19233053D01*
X30244424Y19233090D01*
X30239075Y19237600D01*
X30049238Y19535928D01*
X30047688Y19544747D01*
X30050834Y19550480D01*
X30217169Y19716815D01*
X30225441Y19720241D01*
X30231722Y19718412D01*
G37*
%TD.AperFunction*%
%TD*%
%TA.AperFunction,Conductor*%
%TO.N,nDRESET*%
G36*
X52328379Y43772748D02*
G01*
X52523369Y43692915D01*
X52529727Y43686609D01*
X52529764Y43686520D01*
X52609597Y43491530D01*
X52609560Y43482575D01*
X52605050Y43477226D01*
X52306722Y43287389D01*
X52297903Y43285839D01*
X52292168Y43288987D01*
X52125836Y43455319D01*
X52122409Y43463592D01*
X52124237Y43469872D01*
X52314075Y43768202D01*
X52321408Y43773341D01*
X52328379Y43772748D01*
G37*
%TD.AperFunction*%
%TD*%
%TA.AperFunction,Conductor*%
%TO.N,VSUPPLY*%
G36*
X50474479Y37314637D02*
G01*
X50476124Y37313275D01*
X50749707Y37041057D01*
X50749749Y37041015D01*
X51021924Y36767475D01*
X51025330Y36759194D01*
X51021882Y36750929D01*
X51020237Y36749567D01*
X50368104Y36303372D01*
X50359341Y36301528D01*
X50353224Y36304755D01*
X50013404Y36644575D01*
X50009977Y36652848D01*
X50012021Y36659455D01*
X50458217Y37311589D01*
X50465716Y37316481D01*
X50474479Y37314637D01*
G37*
%TD.AperFunction*%
%TD*%
%TA.AperFunction,Conductor*%
%TO.N,VSUPPLY*%
G36*
X29418817Y32702410D02*
G01*
X30195457Y32556790D01*
X30202956Y32551897D01*
X30205000Y32545290D01*
X30205000Y32064711D01*
X30201573Y32056438D01*
X30195456Y32053211D01*
X29418820Y31907592D01*
X29410057Y31909436D01*
X29405164Y31916936D01*
X29404964Y31919054D01*
X29404000Y32305000D01*
X29404964Y32690941D01*
X29408412Y32699203D01*
X29416693Y32702609D01*
X29418817Y32702410D01*
G37*
%TD.AperFunction*%
%TD*%
M02*
