M48
; DRILL file {KiCad 8.0.2} date 2024-09-08T21:35:23-0500
; FORMAT={-:-/ absolute / inch / decimal}
; #@! TF.CreationDate,2024-09-08T21:35:23-05:00
; #@! TF.GenerationSoftware,Kicad,Pcbnew,8.0.2
; #@! TF.FileFunction,Plated,1,8,PTH
FMAT,2
INCH
; #@! TA.AperFunction,Plated,PTH,ViaDrill
T1C0.0063
; #@! TA.AperFunction,Plated,PTH,ViaDrill
T2C0.0079
; #@! TA.AperFunction,Plated,PTH,ViaDrill
T3C0.0157
; #@! TA.AperFunction,Plated,PTH,ComponentDrill
T4C0.0157
; #@! TA.AperFunction,Plated,PTH,ComponentDrill
T5C0.0250
; #@! TA.AperFunction,Plated,PTH,ComponentDrill
T6C0.0354
; #@! TA.AperFunction,Plated,PTH,ComponentDrill
T7C0.0460
; #@! TA.AperFunction,Plated,PTH,ComponentDrill
T8C0.0600
%
G90
G05
T1
X2.1487Y3.1197
X2.1684Y3.1197
X2.1881Y3.1197
X2.2078Y3.1197
X2.2275Y3.1197
T2
X0.6378Y1.7126
X0.6401Y2.4232
X0.6449Y1.0126
X0.6657Y2.4232
X0.6675Y1.7126
X0.6683Y1.0128
X0.7678Y0.6451
X0.8101Y0.5591
X0.812Y3.0435
X0.8445Y3.0612
X0.8593Y3.2189
X0.8655Y1.8984
X0.8671Y0.6634
X0.8889Y0.4725
X0.8921Y1.1943
X0.8947Y1.3578
X0.8957Y0.8391
X0.8967Y1.2564
X0.8987Y2.2297
X0.8987Y1.538
X0.899Y2.2957
X0.899Y1.6283
X0.9065Y1.2252
X0.9112Y0.6262
X0.9191Y1.9905
X0.9204Y1.1223
X0.9248Y0.8087
X0.9279Y1.8309
X0.9331Y3.0212
X0.9334Y0.7705
X0.9447Y1.4833
X0.948Y2.5059
X0.9488Y2.173
X0.9716Y1.4838
X0.9726Y2.1724
X0.9794Y0.6414
X0.9838Y0.7815
X1.007Y1.9012
X1.0129Y1.8707
X1.0374Y0.7461
X1.0572Y1.1206
X1.0604Y1.0366
X1.0606Y1.0542
X1.0715Y2.4487
X1.0719Y2.423
X1.0729Y1.7455
X1.0739Y1.7724
X1.0799Y0.8295
X1.0915Y0.9207
X1.0926Y1.5541
X1.0932Y0.8971
X1.0947Y1.851
X1.0988Y0.6594
X1.1014Y2.4858
X1.1014Y1.1452
X1.1018Y2.0547
X1.1023Y0.7639
X1.1038Y1.9549
X1.1041Y2.1788
X1.1123Y1.4435
X1.1133Y1.415
X1.1389Y1.0754
X1.1448Y0.6906
X1.1566Y1.9472
X1.1691Y3.0823
X1.1802Y0.6512
X1.1882Y1.324
X1.194Y1.9472
X1.196Y1.7654
X1.1969Y2.4189
X1.1969Y2.3845
X1.1969Y1.0193
X1.1979Y0.6342
X1.1989Y0.8097
X1.1989Y0.7605
X1.1989Y0.7309
X1.2014Y0.6915
X1.2038Y1.7398
X1.2117Y2.0055
X1.2176Y2.0331
X1.2176Y1.4908
X1.2176Y1.4583
X1.2196Y1.1349
X1.2241Y3.1768
X1.2241Y3.1492
X1.2241Y3.1099
X1.2241Y3.0823
X1.2265Y0.8589
X1.2402Y1.1551
X1.2596Y3.1768
X1.2596Y3.0823
X1.2616Y0.7482
X1.2663Y2.4931
X1.2688Y1.5902
X1.2698Y1.6935
X1.2737Y2.2132
X1.2751Y0.9448
X1.2768Y1.151
X1.2776Y1.2012
X1.2781Y1.1758
X1.2944Y0.5473
X1.295Y3.1768
X1.295Y3.1492
X1.295Y3.1099
X1.295Y3.0823
X1.3013Y2.4921
X1.3023Y1.3175
X1.3044Y0.847
X1.3062Y1.0193
X1.3111Y1.5902
X1.3121Y2.2162
X1.3131Y1.5262
X1.3163Y0.9372
X1.3204Y1.8205
X1.3314Y2.1551
X1.3357Y1.8441
X1.3357Y1.1925
X1.3357Y1.0142
X1.3357Y0.7053
X1.3396Y0.8432
X1.3416Y1.7929
X1.3558Y2.209
X1.3558Y1.9547
X1.3741Y1.6551
X1.3751Y0.6984
X1.3877Y3.1728
X1.3948Y0.7211
X1.3948Y0.601
X1.3967Y2.3705
X1.4017Y2.4553
X1.4017Y2.411
X1.4026Y2.3362
X1.4115Y1.6847
X1.4141Y0.6984
X1.4145Y1.1994
X1.4145Y1.0567
X1.4145Y0.8234
X1.4268Y3.2687
X1.4271Y3.1728
X1.4332Y2.3362
X1.4332Y0.979
X1.4556Y0.9987
X1.4568Y2.2043
X1.4578Y0.7766
X1.4587Y1.3323
X1.4676Y2.0685
X1.4794Y0.9671
X1.4804Y1.0354
X1.4922Y2.2038
X1.505Y0.8441
X1.5056Y1.0123
X1.508Y3.3018
X1.5286Y1.3763
X1.5316Y0.9868
X1.5473Y3.3018
X1.5512Y0.8126
X1.5602Y0.7455
X1.5621Y0.79
X1.569Y2.9882
X1.5721Y0.8293
X1.5739Y0.9868
X1.5818Y1.0793
X1.5857Y1.413
X1.5867Y3.3018
X1.5867Y2.2089
X1.587Y1.3763
X1.5873Y1.35
X1.5877Y1.539
X1.5877Y1.5075
X1.5877Y1.476
X1.6172Y3.2378
X1.6231Y0.6847
X1.6262Y1.1943
X1.628Y1.229
X1.628Y1.164
X1.628Y1.1354
X1.628Y0.6414
X1.6394Y2.1089
X1.6448Y1.8766
X1.6526Y1.7683
X1.6612Y0.9186
X1.6714Y0.982
X1.6743Y0.79
X1.6743Y0.7014
X1.6773Y2.2378
X1.6913Y1.4799
X1.6913Y1.4465
X1.6979Y2.2595
X1.7031Y1.4632
X1.7059Y1.6053
X1.7196Y0.8254
X1.7255Y2.2595
X1.7491Y2.3776
X1.7492Y1.2396
X1.7511Y3.2299
X1.7649Y1.2577
X1.7723Y2.1118
X1.7737Y3.0217
X1.7904Y1.0227
X1.7934Y0.7004
X1.8042Y2.3776
X1.8088Y1.2403
X1.8111Y1.2831
X1.8333Y1.4953
X1.8485Y2.0006
X1.8603Y1.2831
X1.8683Y1.5853
X1.8703Y1.3079
X1.8849Y1.1945
X1.9066Y2.3402
X1.9145Y1.7977
X1.9145Y1.7713
X1.9391Y1.7977
X1.9391Y1.7713
X1.9627Y1.7977
X1.9628Y1.7713
X1.975Y1.1468
X1.9971Y1.9
X2.0109Y0.9276
X2.0121Y1.2201
X2.0121Y1.1201
X2.0376Y1.3972
X2.04Y2.3149
X2.04Y1.5093
X2.04Y0.7087
X2.0404Y0.8024
X2.0404Y2.0181
X2.0523Y1.9925
X2.0582Y1.5909
X2.0621Y2.1894
X2.0621Y0.8195
X2.0641Y2.087
X2.068Y2.4201
X2.068Y2.2201
X2.068Y2.1201
X2.068Y1.9201
X2.068Y1.8201
X2.068Y1.7917
X2.068Y1.7201
X2.068Y1.6854
X2.068Y1.6201
X2.068Y1.3201
X2.068Y0.6949
X2.0693Y1.875
X2.07Y1.2878
X2.0739Y1.1697
X2.0759Y1.0555
X2.0759Y1.0299
X2.0759Y1.0043
X2.0759Y0.839
X2.0789Y2.4955
X2.0817Y2.3909
X2.0829Y1.4872
X2.0833Y1.402
X2.0852Y2.3124
X2.0854Y0.6724
T3
X0.8911Y2.502
X0.8927Y1.1598
X0.8933Y0.9524
X0.8945Y2.385
X0.8945Y2.3299
X0.8966Y1.8557
X0.8987Y1.7022
X0.8987Y1.6588
X0.9174Y0.5236
X0.9469Y2.0232
X0.9469Y1.3312
X1.0663Y0.802
X1.1577Y1.2719
X1.2112Y1.2236
X1.571Y1.5872
X1.6773Y0.9475
X1.6777Y1.2264
X1.7265Y1.0971
X1.7658Y1.8382
X1.7668Y1.7614
X1.7993Y1.6158
X1.8042Y2.2851
X1.8416Y2.2851
X1.879Y2.3835
X1.879Y2.2851
X1.94Y1.599
X1.9568Y2.1975
X1.998Y1.4583
X1.9998Y1.1707
X2.0149Y0.6034
X2.0149Y0.504
T4
X1.6234Y2.462
X1.6234Y2.412
T5
X0.7312Y2.9145
X0.8212Y2.9146
X2.0653Y2.9146
X2.088Y3.2649
X2.0882Y3.1075
X2.1555Y2.9146
T6
X2.44Y2.4537
X2.44Y2.3537
X2.44Y2.2537
X2.44Y2.1537
X2.44Y2.0537
X2.44Y1.9537
X2.44Y1.8537
X2.44Y1.7537
X2.44Y1.6537
X2.44Y1.5537
X2.44Y1.4537
X2.44Y1.3537
X2.44Y1.2537
X2.44Y1.1537
X2.44Y1.0537
X2.44Y0.9537
X2.44Y0.8537
X2.44Y0.7537
X2.54Y2.4537
X2.54Y2.3537
X2.54Y2.2537
X2.54Y2.1537
X2.54Y2.0537
X2.54Y1.9537
X2.54Y1.8537
X2.54Y1.7537
X2.54Y1.6537
X2.54Y1.5537
X2.54Y1.4537
X2.54Y1.3537
X2.54Y1.2537
X2.54Y1.1537
X2.54Y1.0537
X2.54Y0.9537
X2.54Y0.8537
X2.54Y0.7537
T7
X0.4847Y2.1165
X0.4854Y1.4237
X0.4854Y0.7317
T8
X0.4847Y2.4725
X0.4854Y1.7797
X0.4854Y1.0877
M30
