%TF.GenerationSoftware,KiCad,Pcbnew,8.0.2*%
%TF.CreationDate,2024-09-08T21:36:53-05:00*%
%TF.ProjectId,PM1C_Rev_1_2,504d3143-5f52-4657-965f-315f322e6b69,1*%
%TF.SameCoordinates,PX297003ePY8770cd2*%
%TF.FileFunction,Profile,NP*%
%FSLAX46Y46*%
G04 Gerber Fmt 4.6, Leading zero omitted, Abs format (unit mm)*
G04 Created by KiCad (PCBNEW 8.0.2) date 2024-09-08 21:36:53*
%MOMM*%
%LPD*%
G01*
G04 APERTURE LIST*
%ADD10C,0.100000*%
%ADD11C,0.150000*%
%ADD12C,0.300000*%
%ADD13C,0.400000*%
%TA.AperFunction,Profile*%
%ADD14C,0.050000*%
%TD*%
G04 APERTURE END LIST*
D10*
D11*
X268349570Y-93380206D02*
X376349570Y-93380206D01*
X376349570Y-125380206D01*
X268349570Y-125380206D01*
X268349570Y-93380206D01*
D10*
D11*
X-33450430Y132019794D02*
X378349570Y132019794D01*
X378349570Y-127380206D01*
X-33450430Y-127380206D01*
X-33450430Y132019794D01*
D10*
D11*
X-31450430Y130019794D02*
X376349570Y130019794D01*
X376349570Y-125380206D01*
X-31450430Y-125380206D01*
X-31450430Y130019794D01*
D10*
D11*
X16549570Y130019794D02*
X16549570Y132019794D01*
D10*
D11*
X66549570Y130019794D02*
X66549570Y132019794D01*
D10*
D11*
X116549570Y130019794D02*
X116549570Y132019794D01*
D10*
D11*
X166549570Y130019794D02*
X166549570Y132019794D01*
D10*
D11*
X216549570Y130019794D02*
X216549570Y132019794D01*
D10*
D11*
X266549570Y130019794D02*
X266549570Y132019794D01*
D10*
D11*
X316549570Y130019794D02*
X316549570Y132019794D01*
D10*
D11*
X366549570Y130019794D02*
X366549570Y132019794D01*
D10*
D11*
X-7361270Y130426190D02*
X-8104127Y130426190D01*
X-7732699Y130426190D02*
X-7732699Y131726190D01*
X-7732699Y131726190D02*
X-7856508Y131540475D01*
X-7856508Y131540475D02*
X-7980318Y131416666D01*
X-7980318Y131416666D02*
X-8104127Y131354761D01*
D10*
D11*
X41895873Y131602380D02*
X41957777Y131664285D01*
X41957777Y131664285D02*
X42081587Y131726190D01*
X42081587Y131726190D02*
X42391111Y131726190D01*
X42391111Y131726190D02*
X42514920Y131664285D01*
X42514920Y131664285D02*
X42576825Y131602380D01*
X42576825Y131602380D02*
X42638730Y131478571D01*
X42638730Y131478571D02*
X42638730Y131354761D01*
X42638730Y131354761D02*
X42576825Y131169047D01*
X42576825Y131169047D02*
X41833968Y130426190D01*
X41833968Y130426190D02*
X42638730Y130426190D01*
D10*
D11*
X91833968Y131726190D02*
X92638730Y131726190D01*
X92638730Y131726190D02*
X92205396Y131230952D01*
X92205396Y131230952D02*
X92391111Y131230952D01*
X92391111Y131230952D02*
X92514920Y131169047D01*
X92514920Y131169047D02*
X92576825Y131107142D01*
X92576825Y131107142D02*
X92638730Y130983333D01*
X92638730Y130983333D02*
X92638730Y130673809D01*
X92638730Y130673809D02*
X92576825Y130549999D01*
X92576825Y130549999D02*
X92514920Y130488094D01*
X92514920Y130488094D02*
X92391111Y130426190D01*
X92391111Y130426190D02*
X92019682Y130426190D01*
X92019682Y130426190D02*
X91895873Y130488094D01*
X91895873Y130488094D02*
X91833968Y130549999D01*
D10*
D11*
X142514920Y131292856D02*
X142514920Y130426190D01*
X142205396Y131788094D02*
X141895873Y130859523D01*
X141895873Y130859523D02*
X142700634Y130859523D01*
D10*
D11*
X192576825Y131726190D02*
X191957777Y131726190D01*
X191957777Y131726190D02*
X191895873Y131107142D01*
X191895873Y131107142D02*
X191957777Y131169047D01*
X191957777Y131169047D02*
X192081587Y131230952D01*
X192081587Y131230952D02*
X192391111Y131230952D01*
X192391111Y131230952D02*
X192514920Y131169047D01*
X192514920Y131169047D02*
X192576825Y131107142D01*
X192576825Y131107142D02*
X192638730Y130983333D01*
X192638730Y130983333D02*
X192638730Y130673809D01*
X192638730Y130673809D02*
X192576825Y130549999D01*
X192576825Y130549999D02*
X192514920Y130488094D01*
X192514920Y130488094D02*
X192391111Y130426190D01*
X192391111Y130426190D02*
X192081587Y130426190D01*
X192081587Y130426190D02*
X191957777Y130488094D01*
X191957777Y130488094D02*
X191895873Y130549999D01*
D10*
D11*
X242514920Y131726190D02*
X242267301Y131726190D01*
X242267301Y131726190D02*
X242143492Y131664285D01*
X242143492Y131664285D02*
X242081587Y131602380D01*
X242081587Y131602380D02*
X241957777Y131416666D01*
X241957777Y131416666D02*
X241895873Y131169047D01*
X241895873Y131169047D02*
X241895873Y130673809D01*
X241895873Y130673809D02*
X241957777Y130549999D01*
X241957777Y130549999D02*
X242019682Y130488094D01*
X242019682Y130488094D02*
X242143492Y130426190D01*
X242143492Y130426190D02*
X242391111Y130426190D01*
X242391111Y130426190D02*
X242514920Y130488094D01*
X242514920Y130488094D02*
X242576825Y130549999D01*
X242576825Y130549999D02*
X242638730Y130673809D01*
X242638730Y130673809D02*
X242638730Y130983333D01*
X242638730Y130983333D02*
X242576825Y131107142D01*
X242576825Y131107142D02*
X242514920Y131169047D01*
X242514920Y131169047D02*
X242391111Y131230952D01*
X242391111Y131230952D02*
X242143492Y131230952D01*
X242143492Y131230952D02*
X242019682Y131169047D01*
X242019682Y131169047D02*
X241957777Y131107142D01*
X241957777Y131107142D02*
X241895873Y130983333D01*
D10*
D11*
X291833968Y131726190D02*
X292700634Y131726190D01*
X292700634Y131726190D02*
X292143492Y130426190D01*
D10*
D11*
X342143492Y131169047D02*
X342019682Y131230952D01*
X342019682Y131230952D02*
X341957777Y131292856D01*
X341957777Y131292856D02*
X341895873Y131416666D01*
X341895873Y131416666D02*
X341895873Y131478571D01*
X341895873Y131478571D02*
X341957777Y131602380D01*
X341957777Y131602380D02*
X342019682Y131664285D01*
X342019682Y131664285D02*
X342143492Y131726190D01*
X342143492Y131726190D02*
X342391111Y131726190D01*
X342391111Y131726190D02*
X342514920Y131664285D01*
X342514920Y131664285D02*
X342576825Y131602380D01*
X342576825Y131602380D02*
X342638730Y131478571D01*
X342638730Y131478571D02*
X342638730Y131416666D01*
X342638730Y131416666D02*
X342576825Y131292856D01*
X342576825Y131292856D02*
X342514920Y131230952D01*
X342514920Y131230952D02*
X342391111Y131169047D01*
X342391111Y131169047D02*
X342143492Y131169047D01*
X342143492Y131169047D02*
X342019682Y131107142D01*
X342019682Y131107142D02*
X341957777Y131045237D01*
X341957777Y131045237D02*
X341895873Y130921428D01*
X341895873Y130921428D02*
X341895873Y130673809D01*
X341895873Y130673809D02*
X341957777Y130549999D01*
X341957777Y130549999D02*
X342019682Y130488094D01*
X342019682Y130488094D02*
X342143492Y130426190D01*
X342143492Y130426190D02*
X342391111Y130426190D01*
X342391111Y130426190D02*
X342514920Y130488094D01*
X342514920Y130488094D02*
X342576825Y130549999D01*
X342576825Y130549999D02*
X342638730Y130673809D01*
X342638730Y130673809D02*
X342638730Y130921428D01*
X342638730Y130921428D02*
X342576825Y131045237D01*
X342576825Y131045237D02*
X342514920Y131107142D01*
X342514920Y131107142D02*
X342391111Y131169047D01*
D10*
D11*
X16549570Y-125380206D02*
X16549570Y-127380206D01*
D10*
D11*
X66549570Y-125380206D02*
X66549570Y-127380206D01*
D10*
D11*
X116549570Y-125380206D02*
X116549570Y-127380206D01*
D10*
D11*
X166549570Y-125380206D02*
X166549570Y-127380206D01*
D10*
D11*
X216549570Y-125380206D02*
X216549570Y-127380206D01*
D10*
D11*
X266549570Y-125380206D02*
X266549570Y-127380206D01*
D10*
D11*
X316549570Y-125380206D02*
X316549570Y-127380206D01*
D10*
D11*
X366549570Y-125380206D02*
X366549570Y-127380206D01*
D10*
D11*
X-7361270Y-126973810D02*
X-8104127Y-126973810D01*
X-7732699Y-126973810D02*
X-7732699Y-125673810D01*
X-7732699Y-125673810D02*
X-7856508Y-125859525D01*
X-7856508Y-125859525D02*
X-7980318Y-125983334D01*
X-7980318Y-125983334D02*
X-8104127Y-126045239D01*
D10*
D11*
X41895873Y-125797620D02*
X41957777Y-125735715D01*
X41957777Y-125735715D02*
X42081587Y-125673810D01*
X42081587Y-125673810D02*
X42391111Y-125673810D01*
X42391111Y-125673810D02*
X42514920Y-125735715D01*
X42514920Y-125735715D02*
X42576825Y-125797620D01*
X42576825Y-125797620D02*
X42638730Y-125921429D01*
X42638730Y-125921429D02*
X42638730Y-126045239D01*
X42638730Y-126045239D02*
X42576825Y-126230953D01*
X42576825Y-126230953D02*
X41833968Y-126973810D01*
X41833968Y-126973810D02*
X42638730Y-126973810D01*
D10*
D11*
X91833968Y-125673810D02*
X92638730Y-125673810D01*
X92638730Y-125673810D02*
X92205396Y-126169048D01*
X92205396Y-126169048D02*
X92391111Y-126169048D01*
X92391111Y-126169048D02*
X92514920Y-126230953D01*
X92514920Y-126230953D02*
X92576825Y-126292858D01*
X92576825Y-126292858D02*
X92638730Y-126416667D01*
X92638730Y-126416667D02*
X92638730Y-126726191D01*
X92638730Y-126726191D02*
X92576825Y-126850001D01*
X92576825Y-126850001D02*
X92514920Y-126911906D01*
X92514920Y-126911906D02*
X92391111Y-126973810D01*
X92391111Y-126973810D02*
X92019682Y-126973810D01*
X92019682Y-126973810D02*
X91895873Y-126911906D01*
X91895873Y-126911906D02*
X91833968Y-126850001D01*
D10*
D11*
X142514920Y-126107144D02*
X142514920Y-126973810D01*
X142205396Y-125611906D02*
X141895873Y-126540477D01*
X141895873Y-126540477D02*
X142700634Y-126540477D01*
D10*
D11*
X192576825Y-125673810D02*
X191957777Y-125673810D01*
X191957777Y-125673810D02*
X191895873Y-126292858D01*
X191895873Y-126292858D02*
X191957777Y-126230953D01*
X191957777Y-126230953D02*
X192081587Y-126169048D01*
X192081587Y-126169048D02*
X192391111Y-126169048D01*
X192391111Y-126169048D02*
X192514920Y-126230953D01*
X192514920Y-126230953D02*
X192576825Y-126292858D01*
X192576825Y-126292858D02*
X192638730Y-126416667D01*
X192638730Y-126416667D02*
X192638730Y-126726191D01*
X192638730Y-126726191D02*
X192576825Y-126850001D01*
X192576825Y-126850001D02*
X192514920Y-126911906D01*
X192514920Y-126911906D02*
X192391111Y-126973810D01*
X192391111Y-126973810D02*
X192081587Y-126973810D01*
X192081587Y-126973810D02*
X191957777Y-126911906D01*
X191957777Y-126911906D02*
X191895873Y-126850001D01*
D10*
D11*
X242514920Y-125673810D02*
X242267301Y-125673810D01*
X242267301Y-125673810D02*
X242143492Y-125735715D01*
X242143492Y-125735715D02*
X242081587Y-125797620D01*
X242081587Y-125797620D02*
X241957777Y-125983334D01*
X241957777Y-125983334D02*
X241895873Y-126230953D01*
X241895873Y-126230953D02*
X241895873Y-126726191D01*
X241895873Y-126726191D02*
X241957777Y-126850001D01*
X241957777Y-126850001D02*
X242019682Y-126911906D01*
X242019682Y-126911906D02*
X242143492Y-126973810D01*
X242143492Y-126973810D02*
X242391111Y-126973810D01*
X242391111Y-126973810D02*
X242514920Y-126911906D01*
X242514920Y-126911906D02*
X242576825Y-126850001D01*
X242576825Y-126850001D02*
X242638730Y-126726191D01*
X242638730Y-126726191D02*
X242638730Y-126416667D01*
X242638730Y-126416667D02*
X242576825Y-126292858D01*
X242576825Y-126292858D02*
X242514920Y-126230953D01*
X242514920Y-126230953D02*
X242391111Y-126169048D01*
X242391111Y-126169048D02*
X242143492Y-126169048D01*
X242143492Y-126169048D02*
X242019682Y-126230953D01*
X242019682Y-126230953D02*
X241957777Y-126292858D01*
X241957777Y-126292858D02*
X241895873Y-126416667D01*
D10*
D11*
X291833968Y-125673810D02*
X292700634Y-125673810D01*
X292700634Y-125673810D02*
X292143492Y-126973810D01*
D10*
D11*
X342143492Y-126230953D02*
X342019682Y-126169048D01*
X342019682Y-126169048D02*
X341957777Y-126107144D01*
X341957777Y-126107144D02*
X341895873Y-125983334D01*
X341895873Y-125983334D02*
X341895873Y-125921429D01*
X341895873Y-125921429D02*
X341957777Y-125797620D01*
X341957777Y-125797620D02*
X342019682Y-125735715D01*
X342019682Y-125735715D02*
X342143492Y-125673810D01*
X342143492Y-125673810D02*
X342391111Y-125673810D01*
X342391111Y-125673810D02*
X342514920Y-125735715D01*
X342514920Y-125735715D02*
X342576825Y-125797620D01*
X342576825Y-125797620D02*
X342638730Y-125921429D01*
X342638730Y-125921429D02*
X342638730Y-125983334D01*
X342638730Y-125983334D02*
X342576825Y-126107144D01*
X342576825Y-126107144D02*
X342514920Y-126169048D01*
X342514920Y-126169048D02*
X342391111Y-126230953D01*
X342391111Y-126230953D02*
X342143492Y-126230953D01*
X342143492Y-126230953D02*
X342019682Y-126292858D01*
X342019682Y-126292858D02*
X341957777Y-126354763D01*
X341957777Y-126354763D02*
X341895873Y-126478572D01*
X341895873Y-126478572D02*
X341895873Y-126726191D01*
X341895873Y-126726191D02*
X341957777Y-126850001D01*
X341957777Y-126850001D02*
X342019682Y-126911906D01*
X342019682Y-126911906D02*
X342143492Y-126973810D01*
X342143492Y-126973810D02*
X342391111Y-126973810D01*
X342391111Y-126973810D02*
X342514920Y-126911906D01*
X342514920Y-126911906D02*
X342576825Y-126850001D01*
X342576825Y-126850001D02*
X342638730Y-126726191D01*
X342638730Y-126726191D02*
X342638730Y-126478572D01*
X342638730Y-126478572D02*
X342576825Y-126354763D01*
X342576825Y-126354763D02*
X342514920Y-126292858D01*
X342514920Y-126292858D02*
X342391111Y-126230953D01*
D10*
D11*
X-33450430Y82019794D02*
X-31450430Y82019794D01*
D10*
D11*
X-33450430Y32019794D02*
X-31450430Y32019794D01*
D10*
D11*
X-33450430Y-17980206D02*
X-31450430Y-17980206D01*
D10*
D11*
X-33450430Y-67980206D02*
X-31450430Y-67980206D01*
D10*
D11*
X-33450430Y-117980206D02*
X-31450430Y-117980206D01*
D10*
D11*
X-32759954Y106797618D02*
X-32140907Y106797618D01*
X-32883764Y106426190D02*
X-32450431Y107726190D01*
X-32450431Y107726190D02*
X-32017097Y106426190D01*
D10*
D11*
X-32357573Y57107142D02*
X-32171859Y57045237D01*
X-32171859Y57045237D02*
X-32109954Y56983333D01*
X-32109954Y56983333D02*
X-32048050Y56859523D01*
X-32048050Y56859523D02*
X-32048050Y56673809D01*
X-32048050Y56673809D02*
X-32109954Y56549999D01*
X-32109954Y56549999D02*
X-32171859Y56488094D01*
X-32171859Y56488094D02*
X-32295669Y56426190D01*
X-32295669Y56426190D02*
X-32790907Y56426190D01*
X-32790907Y56426190D02*
X-32790907Y57726190D01*
X-32790907Y57726190D02*
X-32357573Y57726190D01*
X-32357573Y57726190D02*
X-32233764Y57664285D01*
X-32233764Y57664285D02*
X-32171859Y57602380D01*
X-32171859Y57602380D02*
X-32109954Y57478571D01*
X-32109954Y57478571D02*
X-32109954Y57354761D01*
X-32109954Y57354761D02*
X-32171859Y57230952D01*
X-32171859Y57230952D02*
X-32233764Y57169047D01*
X-32233764Y57169047D02*
X-32357573Y57107142D01*
X-32357573Y57107142D02*
X-32790907Y57107142D01*
D10*
D11*
X-32048050Y6549999D02*
X-32109954Y6488094D01*
X-32109954Y6488094D02*
X-32295669Y6426190D01*
X-32295669Y6426190D02*
X-32419478Y6426190D01*
X-32419478Y6426190D02*
X-32605192Y6488094D01*
X-32605192Y6488094D02*
X-32729002Y6611904D01*
X-32729002Y6611904D02*
X-32790907Y6735714D01*
X-32790907Y6735714D02*
X-32852811Y6983333D01*
X-32852811Y6983333D02*
X-32852811Y7169047D01*
X-32852811Y7169047D02*
X-32790907Y7416666D01*
X-32790907Y7416666D02*
X-32729002Y7540475D01*
X-32729002Y7540475D02*
X-32605192Y7664285D01*
X-32605192Y7664285D02*
X-32419478Y7726190D01*
X-32419478Y7726190D02*
X-32295669Y7726190D01*
X-32295669Y7726190D02*
X-32109954Y7664285D01*
X-32109954Y7664285D02*
X-32048050Y7602380D01*
D10*
D11*
X-32790907Y-43573810D02*
X-32790907Y-42273810D01*
X-32790907Y-42273810D02*
X-32481383Y-42273810D01*
X-32481383Y-42273810D02*
X-32295669Y-42335715D01*
X-32295669Y-42335715D02*
X-32171859Y-42459525D01*
X-32171859Y-42459525D02*
X-32109954Y-42583334D01*
X-32109954Y-42583334D02*
X-32048050Y-42830953D01*
X-32048050Y-42830953D02*
X-32048050Y-43016667D01*
X-32048050Y-43016667D02*
X-32109954Y-43264286D01*
X-32109954Y-43264286D02*
X-32171859Y-43388096D01*
X-32171859Y-43388096D02*
X-32295669Y-43511906D01*
X-32295669Y-43511906D02*
X-32481383Y-43573810D01*
X-32481383Y-43573810D02*
X-32790907Y-43573810D01*
D10*
D11*
X-32729002Y-92892858D02*
X-32295668Y-92892858D01*
X-32109954Y-93573810D02*
X-32729002Y-93573810D01*
X-32729002Y-93573810D02*
X-32729002Y-92273810D01*
X-32729002Y-92273810D02*
X-32109954Y-92273810D01*
D10*
D11*
X378349570Y82019794D02*
X376349570Y82019794D01*
D10*
D11*
X378349570Y32019794D02*
X376349570Y32019794D01*
D10*
D11*
X378349570Y-17980206D02*
X376349570Y-17980206D01*
D10*
D11*
X378349570Y-67980206D02*
X376349570Y-67980206D01*
D10*
D11*
X378349570Y-117980206D02*
X376349570Y-117980206D01*
D10*
D11*
X377040046Y106797618D02*
X377659093Y106797618D01*
X376916236Y106426190D02*
X377349569Y107726190D01*
X377349569Y107726190D02*
X377782903Y106426190D01*
D10*
D11*
X377442427Y57107142D02*
X377628141Y57045237D01*
X377628141Y57045237D02*
X377690046Y56983333D01*
X377690046Y56983333D02*
X377751950Y56859523D01*
X377751950Y56859523D02*
X377751950Y56673809D01*
X377751950Y56673809D02*
X377690046Y56549999D01*
X377690046Y56549999D02*
X377628141Y56488094D01*
X377628141Y56488094D02*
X377504331Y56426190D01*
X377504331Y56426190D02*
X377009093Y56426190D01*
X377009093Y56426190D02*
X377009093Y57726190D01*
X377009093Y57726190D02*
X377442427Y57726190D01*
X377442427Y57726190D02*
X377566236Y57664285D01*
X377566236Y57664285D02*
X377628141Y57602380D01*
X377628141Y57602380D02*
X377690046Y57478571D01*
X377690046Y57478571D02*
X377690046Y57354761D01*
X377690046Y57354761D02*
X377628141Y57230952D01*
X377628141Y57230952D02*
X377566236Y57169047D01*
X377566236Y57169047D02*
X377442427Y57107142D01*
X377442427Y57107142D02*
X377009093Y57107142D01*
D10*
D11*
X377751950Y6549999D02*
X377690046Y6488094D01*
X377690046Y6488094D02*
X377504331Y6426190D01*
X377504331Y6426190D02*
X377380522Y6426190D01*
X377380522Y6426190D02*
X377194808Y6488094D01*
X377194808Y6488094D02*
X377070998Y6611904D01*
X377070998Y6611904D02*
X377009093Y6735714D01*
X377009093Y6735714D02*
X376947189Y6983333D01*
X376947189Y6983333D02*
X376947189Y7169047D01*
X376947189Y7169047D02*
X377009093Y7416666D01*
X377009093Y7416666D02*
X377070998Y7540475D01*
X377070998Y7540475D02*
X377194808Y7664285D01*
X377194808Y7664285D02*
X377380522Y7726190D01*
X377380522Y7726190D02*
X377504331Y7726190D01*
X377504331Y7726190D02*
X377690046Y7664285D01*
X377690046Y7664285D02*
X377751950Y7602380D01*
D10*
D11*
X377009093Y-43573810D02*
X377009093Y-42273810D01*
X377009093Y-42273810D02*
X377318617Y-42273810D01*
X377318617Y-42273810D02*
X377504331Y-42335715D01*
X377504331Y-42335715D02*
X377628141Y-42459525D01*
X377628141Y-42459525D02*
X377690046Y-42583334D01*
X377690046Y-42583334D02*
X377751950Y-42830953D01*
X377751950Y-42830953D02*
X377751950Y-43016667D01*
X377751950Y-43016667D02*
X377690046Y-43264286D01*
X377690046Y-43264286D02*
X377628141Y-43388096D01*
X377628141Y-43388096D02*
X377504331Y-43511906D01*
X377504331Y-43511906D02*
X377318617Y-43573810D01*
X377318617Y-43573810D02*
X377009093Y-43573810D01*
D10*
D11*
X377070998Y-92892858D02*
X377504332Y-92892858D01*
X377690046Y-93573810D02*
X377070998Y-93573810D01*
X377070998Y-93573810D02*
X377070998Y-92273810D01*
X377070998Y-92273810D02*
X377690046Y-92273810D01*
D10*
D11*
X291805396Y-121166334D02*
X291805396Y-119666334D01*
X291805396Y-119666334D02*
X292162539Y-119666334D01*
X292162539Y-119666334D02*
X292376825Y-119737763D01*
X292376825Y-119737763D02*
X292519682Y-119880620D01*
X292519682Y-119880620D02*
X292591111Y-120023477D01*
X292591111Y-120023477D02*
X292662539Y-120309191D01*
X292662539Y-120309191D02*
X292662539Y-120523477D01*
X292662539Y-120523477D02*
X292591111Y-120809191D01*
X292591111Y-120809191D02*
X292519682Y-120952048D01*
X292519682Y-120952048D02*
X292376825Y-121094906D01*
X292376825Y-121094906D02*
X292162539Y-121166334D01*
X292162539Y-121166334D02*
X291805396Y-121166334D01*
X293948254Y-121166334D02*
X293948254Y-120380620D01*
X293948254Y-120380620D02*
X293876825Y-120237763D01*
X293876825Y-120237763D02*
X293733968Y-120166334D01*
X293733968Y-120166334D02*
X293448254Y-120166334D01*
X293448254Y-120166334D02*
X293305396Y-120237763D01*
X293948254Y-121094906D02*
X293805396Y-121166334D01*
X293805396Y-121166334D02*
X293448254Y-121166334D01*
X293448254Y-121166334D02*
X293305396Y-121094906D01*
X293305396Y-121094906D02*
X293233968Y-120952048D01*
X293233968Y-120952048D02*
X293233968Y-120809191D01*
X293233968Y-120809191D02*
X293305396Y-120666334D01*
X293305396Y-120666334D02*
X293448254Y-120594906D01*
X293448254Y-120594906D02*
X293805396Y-120594906D01*
X293805396Y-120594906D02*
X293948254Y-120523477D01*
X294448254Y-120166334D02*
X295019682Y-120166334D01*
X294662539Y-119666334D02*
X294662539Y-120952048D01*
X294662539Y-120952048D02*
X294733968Y-121094906D01*
X294733968Y-121094906D02*
X294876825Y-121166334D01*
X294876825Y-121166334D02*
X295019682Y-121166334D01*
X296091111Y-121094906D02*
X295948254Y-121166334D01*
X295948254Y-121166334D02*
X295662540Y-121166334D01*
X295662540Y-121166334D02*
X295519682Y-121094906D01*
X295519682Y-121094906D02*
X295448254Y-120952048D01*
X295448254Y-120952048D02*
X295448254Y-120380620D01*
X295448254Y-120380620D02*
X295519682Y-120237763D01*
X295519682Y-120237763D02*
X295662540Y-120166334D01*
X295662540Y-120166334D02*
X295948254Y-120166334D01*
X295948254Y-120166334D02*
X296091111Y-120237763D01*
X296091111Y-120237763D02*
X296162540Y-120380620D01*
X296162540Y-120380620D02*
X296162540Y-120523477D01*
X296162540Y-120523477D02*
X295448254Y-120666334D01*
X296805396Y-121023477D02*
X296876825Y-121094906D01*
X296876825Y-121094906D02*
X296805396Y-121166334D01*
X296805396Y-121166334D02*
X296733968Y-121094906D01*
X296733968Y-121094906D02*
X296805396Y-121023477D01*
X296805396Y-121023477D02*
X296805396Y-121166334D01*
X296805396Y-120237763D02*
X296876825Y-120309191D01*
X296876825Y-120309191D02*
X296805396Y-120380620D01*
X296805396Y-120380620D02*
X296733968Y-120309191D01*
X296733968Y-120309191D02*
X296805396Y-120237763D01*
X296805396Y-120237763D02*
X296805396Y-120380620D01*
X298591111Y-119809191D02*
X298662539Y-119737763D01*
X298662539Y-119737763D02*
X298805397Y-119666334D01*
X298805397Y-119666334D02*
X299162539Y-119666334D01*
X299162539Y-119666334D02*
X299305397Y-119737763D01*
X299305397Y-119737763D02*
X299376825Y-119809191D01*
X299376825Y-119809191D02*
X299448254Y-119952048D01*
X299448254Y-119952048D02*
X299448254Y-120094906D01*
X299448254Y-120094906D02*
X299376825Y-120309191D01*
X299376825Y-120309191D02*
X298519682Y-121166334D01*
X298519682Y-121166334D02*
X299448254Y-121166334D01*
X300376825Y-119666334D02*
X300519682Y-119666334D01*
X300519682Y-119666334D02*
X300662539Y-119737763D01*
X300662539Y-119737763D02*
X300733968Y-119809191D01*
X300733968Y-119809191D02*
X300805396Y-119952048D01*
X300805396Y-119952048D02*
X300876825Y-120237763D01*
X300876825Y-120237763D02*
X300876825Y-120594906D01*
X300876825Y-120594906D02*
X300805396Y-120880620D01*
X300805396Y-120880620D02*
X300733968Y-121023477D01*
X300733968Y-121023477D02*
X300662539Y-121094906D01*
X300662539Y-121094906D02*
X300519682Y-121166334D01*
X300519682Y-121166334D02*
X300376825Y-121166334D01*
X300376825Y-121166334D02*
X300233968Y-121094906D01*
X300233968Y-121094906D02*
X300162539Y-121023477D01*
X300162539Y-121023477D02*
X300091110Y-120880620D01*
X300091110Y-120880620D02*
X300019682Y-120594906D01*
X300019682Y-120594906D02*
X300019682Y-120237763D01*
X300019682Y-120237763D02*
X300091110Y-119952048D01*
X300091110Y-119952048D02*
X300162539Y-119809191D01*
X300162539Y-119809191D02*
X300233968Y-119737763D01*
X300233968Y-119737763D02*
X300376825Y-119666334D01*
X301448253Y-119809191D02*
X301519681Y-119737763D01*
X301519681Y-119737763D02*
X301662539Y-119666334D01*
X301662539Y-119666334D02*
X302019681Y-119666334D01*
X302019681Y-119666334D02*
X302162539Y-119737763D01*
X302162539Y-119737763D02*
X302233967Y-119809191D01*
X302233967Y-119809191D02*
X302305396Y-119952048D01*
X302305396Y-119952048D02*
X302305396Y-120094906D01*
X302305396Y-120094906D02*
X302233967Y-120309191D01*
X302233967Y-120309191D02*
X301376824Y-121166334D01*
X301376824Y-121166334D02*
X302305396Y-121166334D01*
X303591110Y-120166334D02*
X303591110Y-121166334D01*
X303233967Y-119594906D02*
X302876824Y-120666334D01*
X302876824Y-120666334D02*
X303805395Y-120666334D01*
X304376823Y-120594906D02*
X305519681Y-120594906D01*
X306519681Y-119666334D02*
X306662538Y-119666334D01*
X306662538Y-119666334D02*
X306805395Y-119737763D01*
X306805395Y-119737763D02*
X306876824Y-119809191D01*
X306876824Y-119809191D02*
X306948252Y-119952048D01*
X306948252Y-119952048D02*
X307019681Y-120237763D01*
X307019681Y-120237763D02*
X307019681Y-120594906D01*
X307019681Y-120594906D02*
X306948252Y-120880620D01*
X306948252Y-120880620D02*
X306876824Y-121023477D01*
X306876824Y-121023477D02*
X306805395Y-121094906D01*
X306805395Y-121094906D02*
X306662538Y-121166334D01*
X306662538Y-121166334D02*
X306519681Y-121166334D01*
X306519681Y-121166334D02*
X306376824Y-121094906D01*
X306376824Y-121094906D02*
X306305395Y-121023477D01*
X306305395Y-121023477D02*
X306233966Y-120880620D01*
X306233966Y-120880620D02*
X306162538Y-120594906D01*
X306162538Y-120594906D02*
X306162538Y-120237763D01*
X306162538Y-120237763D02*
X306233966Y-119952048D01*
X306233966Y-119952048D02*
X306305395Y-119809191D01*
X306305395Y-119809191D02*
X306376824Y-119737763D01*
X306376824Y-119737763D02*
X306519681Y-119666334D01*
X307519680Y-119666334D02*
X308519680Y-119666334D01*
X308519680Y-119666334D02*
X307876823Y-121166334D01*
X309091108Y-120594906D02*
X310233966Y-120594906D01*
X310876823Y-119809191D02*
X310948251Y-119737763D01*
X310948251Y-119737763D02*
X311091109Y-119666334D01*
X311091109Y-119666334D02*
X311448251Y-119666334D01*
X311448251Y-119666334D02*
X311591109Y-119737763D01*
X311591109Y-119737763D02*
X311662537Y-119809191D01*
X311662537Y-119809191D02*
X311733966Y-119952048D01*
X311733966Y-119952048D02*
X311733966Y-120094906D01*
X311733966Y-120094906D02*
X311662537Y-120309191D01*
X311662537Y-120309191D02*
X310805394Y-121166334D01*
X310805394Y-121166334D02*
X311733966Y-121166334D01*
X313091108Y-119666334D02*
X312376822Y-119666334D01*
X312376822Y-119666334D02*
X312305394Y-120380620D01*
X312305394Y-120380620D02*
X312376822Y-120309191D01*
X312376822Y-120309191D02*
X312519680Y-120237763D01*
X312519680Y-120237763D02*
X312876822Y-120237763D01*
X312876822Y-120237763D02*
X313019680Y-120309191D01*
X313019680Y-120309191D02*
X313091108Y-120380620D01*
X313091108Y-120380620D02*
X313162537Y-120523477D01*
X313162537Y-120523477D02*
X313162537Y-120880620D01*
X313162537Y-120880620D02*
X313091108Y-121023477D01*
X313091108Y-121023477D02*
X313019680Y-121094906D01*
X313019680Y-121094906D02*
X312876822Y-121166334D01*
X312876822Y-121166334D02*
X312519680Y-121166334D01*
X312519680Y-121166334D02*
X312376822Y-121094906D01*
X312376822Y-121094906D02*
X312305394Y-121023477D01*
D10*
D11*
X268349570Y-121880206D02*
X376349570Y-121880206D01*
D10*
D11*
X269805396Y-123966334D02*
X269805396Y-122466334D01*
X270662539Y-123966334D02*
X270019682Y-123109191D01*
X270662539Y-122466334D02*
X269805396Y-123323477D01*
X271305396Y-123966334D02*
X271305396Y-122966334D01*
X271305396Y-122466334D02*
X271233968Y-122537763D01*
X271233968Y-122537763D02*
X271305396Y-122609191D01*
X271305396Y-122609191D02*
X271376825Y-122537763D01*
X271376825Y-122537763D02*
X271305396Y-122466334D01*
X271305396Y-122466334D02*
X271305396Y-122609191D01*
X272876825Y-123823477D02*
X272805397Y-123894906D01*
X272805397Y-123894906D02*
X272591111Y-123966334D01*
X272591111Y-123966334D02*
X272448254Y-123966334D01*
X272448254Y-123966334D02*
X272233968Y-123894906D01*
X272233968Y-123894906D02*
X272091111Y-123752048D01*
X272091111Y-123752048D02*
X272019682Y-123609191D01*
X272019682Y-123609191D02*
X271948254Y-123323477D01*
X271948254Y-123323477D02*
X271948254Y-123109191D01*
X271948254Y-123109191D02*
X272019682Y-122823477D01*
X272019682Y-122823477D02*
X272091111Y-122680620D01*
X272091111Y-122680620D02*
X272233968Y-122537763D01*
X272233968Y-122537763D02*
X272448254Y-122466334D01*
X272448254Y-122466334D02*
X272591111Y-122466334D01*
X272591111Y-122466334D02*
X272805397Y-122537763D01*
X272805397Y-122537763D02*
X272876825Y-122609191D01*
X274162540Y-123966334D02*
X274162540Y-123180620D01*
X274162540Y-123180620D02*
X274091111Y-123037763D01*
X274091111Y-123037763D02*
X273948254Y-122966334D01*
X273948254Y-122966334D02*
X273662540Y-122966334D01*
X273662540Y-122966334D02*
X273519682Y-123037763D01*
X274162540Y-123894906D02*
X274019682Y-123966334D01*
X274019682Y-123966334D02*
X273662540Y-123966334D01*
X273662540Y-123966334D02*
X273519682Y-123894906D01*
X273519682Y-123894906D02*
X273448254Y-123752048D01*
X273448254Y-123752048D02*
X273448254Y-123609191D01*
X273448254Y-123609191D02*
X273519682Y-123466334D01*
X273519682Y-123466334D02*
X273662540Y-123394906D01*
X273662540Y-123394906D02*
X274019682Y-123394906D01*
X274019682Y-123394906D02*
X274162540Y-123323477D01*
X275519683Y-123966334D02*
X275519683Y-122466334D01*
X275519683Y-123894906D02*
X275376825Y-123966334D01*
X275376825Y-123966334D02*
X275091111Y-123966334D01*
X275091111Y-123966334D02*
X274948254Y-123894906D01*
X274948254Y-123894906D02*
X274876825Y-123823477D01*
X274876825Y-123823477D02*
X274805397Y-123680620D01*
X274805397Y-123680620D02*
X274805397Y-123252048D01*
X274805397Y-123252048D02*
X274876825Y-123109191D01*
X274876825Y-123109191D02*
X274948254Y-123037763D01*
X274948254Y-123037763D02*
X275091111Y-122966334D01*
X275091111Y-122966334D02*
X275376825Y-122966334D01*
X275376825Y-122966334D02*
X275519683Y-123037763D01*
X277376825Y-123180620D02*
X277876825Y-123180620D01*
X278091111Y-123966334D02*
X277376825Y-123966334D01*
X277376825Y-123966334D02*
X277376825Y-122466334D01*
X277376825Y-122466334D02*
X278091111Y-122466334D01*
X278733968Y-123823477D02*
X278805397Y-123894906D01*
X278805397Y-123894906D02*
X278733968Y-123966334D01*
X278733968Y-123966334D02*
X278662540Y-123894906D01*
X278662540Y-123894906D02*
X278733968Y-123823477D01*
X278733968Y-123823477D02*
X278733968Y-123966334D01*
X279448254Y-123966334D02*
X279448254Y-122466334D01*
X279448254Y-122466334D02*
X279805397Y-122466334D01*
X279805397Y-122466334D02*
X280019683Y-122537763D01*
X280019683Y-122537763D02*
X280162540Y-122680620D01*
X280162540Y-122680620D02*
X280233969Y-122823477D01*
X280233969Y-122823477D02*
X280305397Y-123109191D01*
X280305397Y-123109191D02*
X280305397Y-123323477D01*
X280305397Y-123323477D02*
X280233969Y-123609191D01*
X280233969Y-123609191D02*
X280162540Y-123752048D01*
X280162540Y-123752048D02*
X280019683Y-123894906D01*
X280019683Y-123894906D02*
X279805397Y-123966334D01*
X279805397Y-123966334D02*
X279448254Y-123966334D01*
X280948254Y-123823477D02*
X281019683Y-123894906D01*
X281019683Y-123894906D02*
X280948254Y-123966334D01*
X280948254Y-123966334D02*
X280876826Y-123894906D01*
X280876826Y-123894906D02*
X280948254Y-123823477D01*
X280948254Y-123823477D02*
X280948254Y-123966334D01*
X281591112Y-123537763D02*
X282305398Y-123537763D01*
X281448255Y-123966334D02*
X281948255Y-122466334D01*
X281948255Y-122466334D02*
X282448255Y-123966334D01*
X282948254Y-123823477D02*
X283019683Y-123894906D01*
X283019683Y-123894906D02*
X282948254Y-123966334D01*
X282948254Y-123966334D02*
X282876826Y-123894906D01*
X282876826Y-123894906D02*
X282948254Y-123823477D01*
X282948254Y-123823477D02*
X282948254Y-123966334D01*
X285019683Y-123109191D02*
X284876826Y-123037763D01*
X284876826Y-123037763D02*
X284805397Y-122966334D01*
X284805397Y-122966334D02*
X284733969Y-122823477D01*
X284733969Y-122823477D02*
X284733969Y-122752048D01*
X284733969Y-122752048D02*
X284805397Y-122609191D01*
X284805397Y-122609191D02*
X284876826Y-122537763D01*
X284876826Y-122537763D02*
X285019683Y-122466334D01*
X285019683Y-122466334D02*
X285305397Y-122466334D01*
X285305397Y-122466334D02*
X285448255Y-122537763D01*
X285448255Y-122537763D02*
X285519683Y-122609191D01*
X285519683Y-122609191D02*
X285591112Y-122752048D01*
X285591112Y-122752048D02*
X285591112Y-122823477D01*
X285591112Y-122823477D02*
X285519683Y-122966334D01*
X285519683Y-122966334D02*
X285448255Y-123037763D01*
X285448255Y-123037763D02*
X285305397Y-123109191D01*
X285305397Y-123109191D02*
X285019683Y-123109191D01*
X285019683Y-123109191D02*
X284876826Y-123180620D01*
X284876826Y-123180620D02*
X284805397Y-123252048D01*
X284805397Y-123252048D02*
X284733969Y-123394906D01*
X284733969Y-123394906D02*
X284733969Y-123680620D01*
X284733969Y-123680620D02*
X284805397Y-123823477D01*
X284805397Y-123823477D02*
X284876826Y-123894906D01*
X284876826Y-123894906D02*
X285019683Y-123966334D01*
X285019683Y-123966334D02*
X285305397Y-123966334D01*
X285305397Y-123966334D02*
X285448255Y-123894906D01*
X285448255Y-123894906D02*
X285519683Y-123823477D01*
X285519683Y-123823477D02*
X285591112Y-123680620D01*
X285591112Y-123680620D02*
X285591112Y-123394906D01*
X285591112Y-123394906D02*
X285519683Y-123252048D01*
X285519683Y-123252048D02*
X285448255Y-123180620D01*
X285448255Y-123180620D02*
X285305397Y-123109191D01*
X286233968Y-123823477D02*
X286305397Y-123894906D01*
X286305397Y-123894906D02*
X286233968Y-123966334D01*
X286233968Y-123966334D02*
X286162540Y-123894906D01*
X286162540Y-123894906D02*
X286233968Y-123823477D01*
X286233968Y-123823477D02*
X286233968Y-123966334D01*
X287233969Y-122466334D02*
X287376826Y-122466334D01*
X287376826Y-122466334D02*
X287519683Y-122537763D01*
X287519683Y-122537763D02*
X287591112Y-122609191D01*
X287591112Y-122609191D02*
X287662540Y-122752048D01*
X287662540Y-122752048D02*
X287733969Y-123037763D01*
X287733969Y-123037763D02*
X287733969Y-123394906D01*
X287733969Y-123394906D02*
X287662540Y-123680620D01*
X287662540Y-123680620D02*
X287591112Y-123823477D01*
X287591112Y-123823477D02*
X287519683Y-123894906D01*
X287519683Y-123894906D02*
X287376826Y-123966334D01*
X287376826Y-123966334D02*
X287233969Y-123966334D01*
X287233969Y-123966334D02*
X287091112Y-123894906D01*
X287091112Y-123894906D02*
X287019683Y-123823477D01*
X287019683Y-123823477D02*
X286948254Y-123680620D01*
X286948254Y-123680620D02*
X286876826Y-123394906D01*
X286876826Y-123394906D02*
X286876826Y-123037763D01*
X286876826Y-123037763D02*
X286948254Y-122752048D01*
X286948254Y-122752048D02*
X287019683Y-122609191D01*
X287019683Y-122609191D02*
X287091112Y-122537763D01*
X287091112Y-122537763D02*
X287233969Y-122466334D01*
X288376825Y-123823477D02*
X288448254Y-123894906D01*
X288448254Y-123894906D02*
X288376825Y-123966334D01*
X288376825Y-123966334D02*
X288305397Y-123894906D01*
X288305397Y-123894906D02*
X288376825Y-123823477D01*
X288376825Y-123823477D02*
X288376825Y-123966334D01*
X289019683Y-122609191D02*
X289091111Y-122537763D01*
X289091111Y-122537763D02*
X289233969Y-122466334D01*
X289233969Y-122466334D02*
X289591111Y-122466334D01*
X289591111Y-122466334D02*
X289733969Y-122537763D01*
X289733969Y-122537763D02*
X289805397Y-122609191D01*
X289805397Y-122609191D02*
X289876826Y-122752048D01*
X289876826Y-122752048D02*
X289876826Y-122894906D01*
X289876826Y-122894906D02*
X289805397Y-123109191D01*
X289805397Y-123109191D02*
X288948254Y-123966334D01*
X288948254Y-123966334D02*
X289876826Y-123966334D01*
D10*
D11*
X268349570Y-118880206D02*
X376349570Y-118880206D01*
D10*
D12*
X355761223Y-121158534D02*
X355261223Y-120444248D01*
X354904080Y-121158534D02*
X354904080Y-119658534D01*
X354904080Y-119658534D02*
X355475509Y-119658534D01*
X355475509Y-119658534D02*
X355618366Y-119729963D01*
X355618366Y-119729963D02*
X355689795Y-119801391D01*
X355689795Y-119801391D02*
X355761223Y-119944248D01*
X355761223Y-119944248D02*
X355761223Y-120158534D01*
X355761223Y-120158534D02*
X355689795Y-120301391D01*
X355689795Y-120301391D02*
X355618366Y-120372820D01*
X355618366Y-120372820D02*
X355475509Y-120444248D01*
X355475509Y-120444248D02*
X354904080Y-120444248D01*
X356975509Y-121087106D02*
X356832652Y-121158534D01*
X356832652Y-121158534D02*
X356546938Y-121158534D01*
X356546938Y-121158534D02*
X356404080Y-121087106D01*
X356404080Y-121087106D02*
X356332652Y-120944248D01*
X356332652Y-120944248D02*
X356332652Y-120372820D01*
X356332652Y-120372820D02*
X356404080Y-120229963D01*
X356404080Y-120229963D02*
X356546938Y-120158534D01*
X356546938Y-120158534D02*
X356832652Y-120158534D01*
X356832652Y-120158534D02*
X356975509Y-120229963D01*
X356975509Y-120229963D02*
X357046938Y-120372820D01*
X357046938Y-120372820D02*
X357046938Y-120515677D01*
X357046938Y-120515677D02*
X356332652Y-120658534D01*
X357546937Y-120158534D02*
X357904080Y-121158534D01*
X357904080Y-121158534D02*
X358261223Y-120158534D01*
X358832651Y-121015677D02*
X358904080Y-121087106D01*
X358904080Y-121087106D02*
X358832651Y-121158534D01*
X358832651Y-121158534D02*
X358761223Y-121087106D01*
X358761223Y-121087106D02*
X358832651Y-121015677D01*
X358832651Y-121015677D02*
X358832651Y-121158534D01*
X358832651Y-120229963D02*
X358904080Y-120301391D01*
X358904080Y-120301391D02*
X358832651Y-120372820D01*
X358832651Y-120372820D02*
X358761223Y-120301391D01*
X358761223Y-120301391D02*
X358832651Y-120229963D01*
X358832651Y-120229963D02*
X358832651Y-120372820D01*
X361475509Y-121158534D02*
X360618366Y-121158534D01*
X361046937Y-121158534D02*
X361046937Y-119658534D01*
X361046937Y-119658534D02*
X360904080Y-119872820D01*
X360904080Y-119872820D02*
X360761223Y-120015677D01*
X360761223Y-120015677D02*
X360618366Y-120087106D01*
D10*
D11*
X269733968Y-121094906D02*
X269948254Y-121166334D01*
X269948254Y-121166334D02*
X270305396Y-121166334D01*
X270305396Y-121166334D02*
X270448254Y-121094906D01*
X270448254Y-121094906D02*
X270519682Y-121023477D01*
X270519682Y-121023477D02*
X270591111Y-120880620D01*
X270591111Y-120880620D02*
X270591111Y-120737763D01*
X270591111Y-120737763D02*
X270519682Y-120594906D01*
X270519682Y-120594906D02*
X270448254Y-120523477D01*
X270448254Y-120523477D02*
X270305396Y-120452048D01*
X270305396Y-120452048D02*
X270019682Y-120380620D01*
X270019682Y-120380620D02*
X269876825Y-120309191D01*
X269876825Y-120309191D02*
X269805396Y-120237763D01*
X269805396Y-120237763D02*
X269733968Y-120094906D01*
X269733968Y-120094906D02*
X269733968Y-119952048D01*
X269733968Y-119952048D02*
X269805396Y-119809191D01*
X269805396Y-119809191D02*
X269876825Y-119737763D01*
X269876825Y-119737763D02*
X270019682Y-119666334D01*
X270019682Y-119666334D02*
X270376825Y-119666334D01*
X270376825Y-119666334D02*
X270591111Y-119737763D01*
X271233967Y-121166334D02*
X271233967Y-120166334D01*
X271233967Y-119666334D02*
X271162539Y-119737763D01*
X271162539Y-119737763D02*
X271233967Y-119809191D01*
X271233967Y-119809191D02*
X271305396Y-119737763D01*
X271305396Y-119737763D02*
X271233967Y-119666334D01*
X271233967Y-119666334D02*
X271233967Y-119809191D01*
X271805396Y-120166334D02*
X272591111Y-120166334D01*
X272591111Y-120166334D02*
X271805396Y-121166334D01*
X271805396Y-121166334D02*
X272591111Y-121166334D01*
X273733968Y-121094906D02*
X273591111Y-121166334D01*
X273591111Y-121166334D02*
X273305397Y-121166334D01*
X273305397Y-121166334D02*
X273162539Y-121094906D01*
X273162539Y-121094906D02*
X273091111Y-120952048D01*
X273091111Y-120952048D02*
X273091111Y-120380620D01*
X273091111Y-120380620D02*
X273162539Y-120237763D01*
X273162539Y-120237763D02*
X273305397Y-120166334D01*
X273305397Y-120166334D02*
X273591111Y-120166334D01*
X273591111Y-120166334D02*
X273733968Y-120237763D01*
X273733968Y-120237763D02*
X273805397Y-120380620D01*
X273805397Y-120380620D02*
X273805397Y-120523477D01*
X273805397Y-120523477D02*
X273091111Y-120666334D01*
X274448253Y-121023477D02*
X274519682Y-121094906D01*
X274519682Y-121094906D02*
X274448253Y-121166334D01*
X274448253Y-121166334D02*
X274376825Y-121094906D01*
X274376825Y-121094906D02*
X274448253Y-121023477D01*
X274448253Y-121023477D02*
X274448253Y-121166334D01*
X274448253Y-120237763D02*
X274519682Y-120309191D01*
X274519682Y-120309191D02*
X274448253Y-120380620D01*
X274448253Y-120380620D02*
X274376825Y-120309191D01*
X274376825Y-120309191D02*
X274448253Y-120237763D01*
X274448253Y-120237763D02*
X274448253Y-120380620D01*
X276805396Y-120380620D02*
X277019682Y-120452048D01*
X277019682Y-120452048D02*
X277091111Y-120523477D01*
X277091111Y-120523477D02*
X277162539Y-120666334D01*
X277162539Y-120666334D02*
X277162539Y-120880620D01*
X277162539Y-120880620D02*
X277091111Y-121023477D01*
X277091111Y-121023477D02*
X277019682Y-121094906D01*
X277019682Y-121094906D02*
X276876825Y-121166334D01*
X276876825Y-121166334D02*
X276305396Y-121166334D01*
X276305396Y-121166334D02*
X276305396Y-119666334D01*
X276305396Y-119666334D02*
X276805396Y-119666334D01*
X276805396Y-119666334D02*
X276948254Y-119737763D01*
X276948254Y-119737763D02*
X277019682Y-119809191D01*
X277019682Y-119809191D02*
X277091111Y-119952048D01*
X277091111Y-119952048D02*
X277091111Y-120094906D01*
X277091111Y-120094906D02*
X277019682Y-120237763D01*
X277019682Y-120237763D02*
X276948254Y-120309191D01*
X276948254Y-120309191D02*
X276805396Y-120380620D01*
X276805396Y-120380620D02*
X276305396Y-120380620D01*
D10*
D11*
X354805396Y-123966334D02*
X354805396Y-122466334D01*
X356162540Y-123966334D02*
X356162540Y-122466334D01*
X356162540Y-123894906D02*
X356019682Y-123966334D01*
X356019682Y-123966334D02*
X355733968Y-123966334D01*
X355733968Y-123966334D02*
X355591111Y-123894906D01*
X355591111Y-123894906D02*
X355519682Y-123823477D01*
X355519682Y-123823477D02*
X355448254Y-123680620D01*
X355448254Y-123680620D02*
X355448254Y-123252048D01*
X355448254Y-123252048D02*
X355519682Y-123109191D01*
X355519682Y-123109191D02*
X355591111Y-123037763D01*
X355591111Y-123037763D02*
X355733968Y-122966334D01*
X355733968Y-122966334D02*
X356019682Y-122966334D01*
X356019682Y-122966334D02*
X356162540Y-123037763D01*
X356876825Y-123823477D02*
X356948254Y-123894906D01*
X356948254Y-123894906D02*
X356876825Y-123966334D01*
X356876825Y-123966334D02*
X356805397Y-123894906D01*
X356805397Y-123894906D02*
X356876825Y-123823477D01*
X356876825Y-123823477D02*
X356876825Y-123966334D01*
X356876825Y-123037763D02*
X356948254Y-123109191D01*
X356948254Y-123109191D02*
X356876825Y-123180620D01*
X356876825Y-123180620D02*
X356805397Y-123109191D01*
X356805397Y-123109191D02*
X356876825Y-123037763D01*
X356876825Y-123037763D02*
X356876825Y-123180620D01*
X359519683Y-123966334D02*
X358662540Y-123966334D01*
X359091111Y-123966334D02*
X359091111Y-122466334D01*
X359091111Y-122466334D02*
X358948254Y-122680620D01*
X358948254Y-122680620D02*
X358805397Y-122823477D01*
X358805397Y-122823477D02*
X358662540Y-122894906D01*
X361233968Y-122394906D02*
X359948254Y-124323477D01*
X362519683Y-123966334D02*
X361662540Y-123966334D01*
X362091111Y-123966334D02*
X362091111Y-122466334D01*
X362091111Y-122466334D02*
X361948254Y-122680620D01*
X361948254Y-122680620D02*
X361805397Y-122823477D01*
X361805397Y-122823477D02*
X361662540Y-122894906D01*
D10*
D11*
X268349570Y-114880206D02*
X376349570Y-114880206D01*
D10*
D13*
X270041298Y-115584644D02*
X271184155Y-115584644D01*
X270362727Y-117584644D02*
X270612727Y-115584644D01*
X271600822Y-117584644D02*
X271767489Y-116251310D01*
X271850822Y-115584644D02*
X271743679Y-115679882D01*
X271743679Y-115679882D02*
X271827013Y-115775120D01*
X271827013Y-115775120D02*
X271934156Y-115679882D01*
X271934156Y-115679882D02*
X271850822Y-115584644D01*
X271850822Y-115584644D02*
X271827013Y-115775120D01*
X272434156Y-116251310D02*
X273196060Y-116251310D01*
X272803203Y-115584644D02*
X272588918Y-117298929D01*
X272588918Y-117298929D02*
X272660346Y-117489406D01*
X272660346Y-117489406D02*
X272838918Y-117584644D01*
X272838918Y-117584644D02*
X273029394Y-117584644D01*
X273981775Y-117584644D02*
X273803203Y-117489406D01*
X273803203Y-117489406D02*
X273731775Y-117298929D01*
X273731775Y-117298929D02*
X273946060Y-115584644D01*
X275517489Y-117489406D02*
X275315108Y-117584644D01*
X275315108Y-117584644D02*
X274934155Y-117584644D01*
X274934155Y-117584644D02*
X274755584Y-117489406D01*
X274755584Y-117489406D02*
X274684155Y-117298929D01*
X274684155Y-117298929D02*
X274779394Y-116537025D01*
X274779394Y-116537025D02*
X274898441Y-116346548D01*
X274898441Y-116346548D02*
X275100822Y-116251310D01*
X275100822Y-116251310D02*
X275481774Y-116251310D01*
X275481774Y-116251310D02*
X275660346Y-116346548D01*
X275660346Y-116346548D02*
X275731774Y-116537025D01*
X275731774Y-116537025D02*
X275707965Y-116727501D01*
X275707965Y-116727501D02*
X274731774Y-116917977D01*
X276481775Y-117394167D02*
X276565108Y-117489406D01*
X276565108Y-117489406D02*
X276457965Y-117584644D01*
X276457965Y-117584644D02*
X276374632Y-117489406D01*
X276374632Y-117489406D02*
X276481775Y-117394167D01*
X276481775Y-117394167D02*
X276457965Y-117584644D01*
X276612727Y-116346548D02*
X276696060Y-116441786D01*
X276696060Y-116441786D02*
X276588918Y-116537025D01*
X276588918Y-116537025D02*
X276505584Y-116441786D01*
X276505584Y-116441786D02*
X276612727Y-116346548D01*
X276612727Y-116346548D02*
X276588918Y-116537025D01*
X278934156Y-117584644D02*
X279184156Y-115584644D01*
X279184156Y-115584644D02*
X279946061Y-115584644D01*
X279946061Y-115584644D02*
X280124632Y-115679882D01*
X280124632Y-115679882D02*
X280207966Y-115775120D01*
X280207966Y-115775120D02*
X280279394Y-115965596D01*
X280279394Y-115965596D02*
X280243680Y-116251310D01*
X280243680Y-116251310D02*
X280124632Y-116441786D01*
X280124632Y-116441786D02*
X280017490Y-116537025D01*
X280017490Y-116537025D02*
X279815109Y-116632263D01*
X279815109Y-116632263D02*
X279053204Y-116632263D01*
X280934156Y-117584644D02*
X281184156Y-115584644D01*
X281184156Y-115584644D02*
X281672251Y-117013215D01*
X281672251Y-117013215D02*
X282517490Y-115584644D01*
X282517490Y-115584644D02*
X282267490Y-117584644D01*
X284267489Y-117584644D02*
X283124632Y-117584644D01*
X283696061Y-117584644D02*
X283946061Y-115584644D01*
X283946061Y-115584644D02*
X283719870Y-115870358D01*
X283719870Y-115870358D02*
X283505585Y-116060834D01*
X283505585Y-116060834D02*
X283303204Y-116156072D01*
X286291299Y-117394167D02*
X286184156Y-117489406D01*
X286184156Y-117489406D02*
X285886537Y-117584644D01*
X285886537Y-117584644D02*
X285696061Y-117584644D01*
X285696061Y-117584644D02*
X285422251Y-117489406D01*
X285422251Y-117489406D02*
X285255585Y-117298929D01*
X285255585Y-117298929D02*
X285184156Y-117108453D01*
X285184156Y-117108453D02*
X285136537Y-116727501D01*
X285136537Y-116727501D02*
X285172251Y-116441786D01*
X285172251Y-116441786D02*
X285315108Y-116060834D01*
X285315108Y-116060834D02*
X285434156Y-115870358D01*
X285434156Y-115870358D02*
X285648442Y-115679882D01*
X285648442Y-115679882D02*
X285946061Y-115584644D01*
X285946061Y-115584644D02*
X286136537Y-115584644D01*
X286136537Y-115584644D02*
X286410347Y-115679882D01*
X286410347Y-115679882D02*
X286493680Y-115775120D01*
X288648442Y-117584644D02*
X288898442Y-115584644D01*
X288898442Y-115584644D02*
X289660347Y-115584644D01*
X289660347Y-115584644D02*
X289838918Y-115679882D01*
X289838918Y-115679882D02*
X289922252Y-115775120D01*
X289922252Y-115775120D02*
X289993680Y-115965596D01*
X289993680Y-115965596D02*
X289957966Y-116251310D01*
X289957966Y-116251310D02*
X289838918Y-116441786D01*
X289838918Y-116441786D02*
X289731776Y-116537025D01*
X289731776Y-116537025D02*
X289529395Y-116632263D01*
X289529395Y-116632263D02*
X288767490Y-116632263D01*
X291815109Y-117394167D02*
X291707966Y-117489406D01*
X291707966Y-117489406D02*
X291410347Y-117584644D01*
X291410347Y-117584644D02*
X291219871Y-117584644D01*
X291219871Y-117584644D02*
X290946061Y-117489406D01*
X290946061Y-117489406D02*
X290779395Y-117298929D01*
X290779395Y-117298929D02*
X290707966Y-117108453D01*
X290707966Y-117108453D02*
X290660347Y-116727501D01*
X290660347Y-116727501D02*
X290696061Y-116441786D01*
X290696061Y-116441786D02*
X290838918Y-116060834D01*
X290838918Y-116060834D02*
X290957966Y-115870358D01*
X290957966Y-115870358D02*
X291172252Y-115679882D01*
X291172252Y-115679882D02*
X291469871Y-115584644D01*
X291469871Y-115584644D02*
X291660347Y-115584644D01*
X291660347Y-115584644D02*
X291934157Y-115679882D01*
X291934157Y-115679882D02*
X292017490Y-115775120D01*
X293446061Y-116537025D02*
X293719871Y-116632263D01*
X293719871Y-116632263D02*
X293803204Y-116727501D01*
X293803204Y-116727501D02*
X293874633Y-116917977D01*
X293874633Y-116917977D02*
X293838918Y-117203691D01*
X293838918Y-117203691D02*
X293719871Y-117394167D01*
X293719871Y-117394167D02*
X293612728Y-117489406D01*
X293612728Y-117489406D02*
X293410347Y-117584644D01*
X293410347Y-117584644D02*
X292648442Y-117584644D01*
X292648442Y-117584644D02*
X292898442Y-115584644D01*
X292898442Y-115584644D02*
X293565109Y-115584644D01*
X293565109Y-115584644D02*
X293743680Y-115679882D01*
X293743680Y-115679882D02*
X293827014Y-115775120D01*
X293827014Y-115775120D02*
X293898442Y-115965596D01*
X293898442Y-115965596D02*
X293874633Y-116156072D01*
X293874633Y-116156072D02*
X293755585Y-116346548D01*
X293755585Y-116346548D02*
X293648442Y-116441786D01*
X293648442Y-116441786D02*
X293446061Y-116537025D01*
X293446061Y-116537025D02*
X292779395Y-116537025D01*
X296969871Y-116537025D02*
X296303205Y-116537025D01*
X296172252Y-117584644D02*
X296422252Y-115584644D01*
X296422252Y-115584644D02*
X297374633Y-115584644D01*
X298743681Y-117584644D02*
X298874633Y-116537025D01*
X298874633Y-116537025D02*
X298803205Y-116346548D01*
X298803205Y-116346548D02*
X298624633Y-116251310D01*
X298624633Y-116251310D02*
X298243681Y-116251310D01*
X298243681Y-116251310D02*
X298041300Y-116346548D01*
X298755586Y-117489406D02*
X298553205Y-117584644D01*
X298553205Y-117584644D02*
X298077014Y-117584644D01*
X298077014Y-117584644D02*
X297898443Y-117489406D01*
X297898443Y-117489406D02*
X297827014Y-117298929D01*
X297827014Y-117298929D02*
X297850824Y-117108453D01*
X297850824Y-117108453D02*
X297969872Y-116917977D01*
X297969872Y-116917977D02*
X298172253Y-116822739D01*
X298172253Y-116822739D02*
X298648443Y-116822739D01*
X298648443Y-116822739D02*
X298850824Y-116727501D01*
X299696062Y-117584644D02*
X299946062Y-115584644D01*
X299850824Y-116346548D02*
X300053205Y-116251310D01*
X300053205Y-116251310D02*
X300434157Y-116251310D01*
X300434157Y-116251310D02*
X300612729Y-116346548D01*
X300612729Y-116346548D02*
X300696062Y-116441786D01*
X300696062Y-116441786D02*
X300767491Y-116632263D01*
X300767491Y-116632263D02*
X300696062Y-117203691D01*
X300696062Y-117203691D02*
X300577015Y-117394167D01*
X300577015Y-117394167D02*
X300469872Y-117489406D01*
X300469872Y-117489406D02*
X300267491Y-117584644D01*
X300267491Y-117584644D02*
X299886538Y-117584644D01*
X299886538Y-117584644D02*
X299707967Y-117489406D01*
X301505586Y-117584644D02*
X301672253Y-116251310D01*
X301624634Y-116632263D02*
X301743681Y-116441786D01*
X301743681Y-116441786D02*
X301850824Y-116346548D01*
X301850824Y-116346548D02*
X302053205Y-116251310D01*
X302053205Y-116251310D02*
X302243681Y-116251310D01*
X302743681Y-117584644D02*
X302910348Y-116251310D01*
X302993681Y-115584644D02*
X302886538Y-115679882D01*
X302886538Y-115679882D02*
X302969872Y-115775120D01*
X302969872Y-115775120D02*
X303077015Y-115679882D01*
X303077015Y-115679882D02*
X302993681Y-115584644D01*
X302993681Y-115584644D02*
X302969872Y-115775120D01*
X304565110Y-117489406D02*
X304362729Y-117584644D01*
X304362729Y-117584644D02*
X303981777Y-117584644D01*
X303981777Y-117584644D02*
X303803205Y-117489406D01*
X303803205Y-117489406D02*
X303719872Y-117394167D01*
X303719872Y-117394167D02*
X303648443Y-117203691D01*
X303648443Y-117203691D02*
X303719872Y-116632263D01*
X303719872Y-116632263D02*
X303838919Y-116441786D01*
X303838919Y-116441786D02*
X303946062Y-116346548D01*
X303946062Y-116346548D02*
X304148443Y-116251310D01*
X304148443Y-116251310D02*
X304529396Y-116251310D01*
X304529396Y-116251310D02*
X304707967Y-116346548D01*
X306267491Y-117584644D02*
X306398443Y-116537025D01*
X306398443Y-116537025D02*
X306327015Y-116346548D01*
X306327015Y-116346548D02*
X306148443Y-116251310D01*
X306148443Y-116251310D02*
X305767491Y-116251310D01*
X305767491Y-116251310D02*
X305565110Y-116346548D01*
X306279396Y-117489406D02*
X306077015Y-117584644D01*
X306077015Y-117584644D02*
X305600824Y-117584644D01*
X305600824Y-117584644D02*
X305422253Y-117489406D01*
X305422253Y-117489406D02*
X305350824Y-117298929D01*
X305350824Y-117298929D02*
X305374634Y-117108453D01*
X305374634Y-117108453D02*
X305493682Y-116917977D01*
X305493682Y-116917977D02*
X305696063Y-116822739D01*
X305696063Y-116822739D02*
X306172253Y-116822739D01*
X306172253Y-116822739D02*
X306374634Y-116727501D01*
X307100825Y-116251310D02*
X307862729Y-116251310D01*
X307469872Y-115584644D02*
X307255587Y-117298929D01*
X307255587Y-117298929D02*
X307327015Y-117489406D01*
X307327015Y-117489406D02*
X307505587Y-117584644D01*
X307505587Y-117584644D02*
X307696063Y-117584644D01*
X308362729Y-117584644D02*
X308529396Y-116251310D01*
X308612729Y-115584644D02*
X308505586Y-115679882D01*
X308505586Y-115679882D02*
X308588920Y-115775120D01*
X308588920Y-115775120D02*
X308696063Y-115679882D01*
X308696063Y-115679882D02*
X308612729Y-115584644D01*
X308612729Y-115584644D02*
X308588920Y-115775120D01*
X309600825Y-117584644D02*
X309422253Y-117489406D01*
X309422253Y-117489406D02*
X309338920Y-117394167D01*
X309338920Y-117394167D02*
X309267491Y-117203691D01*
X309267491Y-117203691D02*
X309338920Y-116632263D01*
X309338920Y-116632263D02*
X309457967Y-116441786D01*
X309457967Y-116441786D02*
X309565110Y-116346548D01*
X309565110Y-116346548D02*
X309767491Y-116251310D01*
X309767491Y-116251310D02*
X310053205Y-116251310D01*
X310053205Y-116251310D02*
X310231777Y-116346548D01*
X310231777Y-116346548D02*
X310315110Y-116441786D01*
X310315110Y-116441786D02*
X310386539Y-116632263D01*
X310386539Y-116632263D02*
X310315110Y-117203691D01*
X310315110Y-117203691D02*
X310196063Y-117394167D01*
X310196063Y-117394167D02*
X310088920Y-117489406D01*
X310088920Y-117489406D02*
X309886539Y-117584644D01*
X309886539Y-117584644D02*
X309600825Y-117584644D01*
X311291301Y-116251310D02*
X311124634Y-117584644D01*
X311267491Y-116441786D02*
X311374634Y-116346548D01*
X311374634Y-116346548D02*
X311577015Y-116251310D01*
X311577015Y-116251310D02*
X311862729Y-116251310D01*
X311862729Y-116251310D02*
X312041301Y-116346548D01*
X312041301Y-116346548D02*
X312112729Y-116537025D01*
X312112729Y-116537025D02*
X311981777Y-117584644D01*
X314457968Y-117584644D02*
X314707968Y-115584644D01*
X314707968Y-115584644D02*
X315184159Y-115584644D01*
X315184159Y-115584644D02*
X315457968Y-115679882D01*
X315457968Y-115679882D02*
X315624635Y-115870358D01*
X315624635Y-115870358D02*
X315696063Y-116060834D01*
X315696063Y-116060834D02*
X315743683Y-116441786D01*
X315743683Y-116441786D02*
X315707968Y-116727501D01*
X315707968Y-116727501D02*
X315565111Y-117108453D01*
X315565111Y-117108453D02*
X315446063Y-117298929D01*
X315446063Y-117298929D02*
X315231778Y-117489406D01*
X315231778Y-117489406D02*
X314934159Y-117584644D01*
X314934159Y-117584644D02*
X314457968Y-117584644D01*
X316457968Y-117584644D02*
X316624635Y-116251310D01*
X316577016Y-116632263D02*
X316696063Y-116441786D01*
X316696063Y-116441786D02*
X316803206Y-116346548D01*
X316803206Y-116346548D02*
X317005587Y-116251310D01*
X317005587Y-116251310D02*
X317196063Y-116251310D01*
X318553206Y-117584644D02*
X318684158Y-116537025D01*
X318684158Y-116537025D02*
X318612730Y-116346548D01*
X318612730Y-116346548D02*
X318434158Y-116251310D01*
X318434158Y-116251310D02*
X318053206Y-116251310D01*
X318053206Y-116251310D02*
X317850825Y-116346548D01*
X318565111Y-117489406D02*
X318362730Y-117584644D01*
X318362730Y-117584644D02*
X317886539Y-117584644D01*
X317886539Y-117584644D02*
X317707968Y-117489406D01*
X317707968Y-117489406D02*
X317636539Y-117298929D01*
X317636539Y-117298929D02*
X317660349Y-117108453D01*
X317660349Y-117108453D02*
X317779397Y-116917977D01*
X317779397Y-116917977D02*
X317981778Y-116822739D01*
X317981778Y-116822739D02*
X318457968Y-116822739D01*
X318457968Y-116822739D02*
X318660349Y-116727501D01*
X319481778Y-116251310D02*
X319696063Y-117584644D01*
X319696063Y-117584644D02*
X320196063Y-116632263D01*
X320196063Y-116632263D02*
X320457968Y-117584644D01*
X320457968Y-117584644D02*
X321005587Y-116251310D01*
X321600825Y-117584644D02*
X321767492Y-116251310D01*
X321850825Y-115584644D02*
X321743682Y-115679882D01*
X321743682Y-115679882D02*
X321827016Y-115775120D01*
X321827016Y-115775120D02*
X321934159Y-115679882D01*
X321934159Y-115679882D02*
X321850825Y-115584644D01*
X321850825Y-115584644D02*
X321827016Y-115775120D01*
X322719873Y-116251310D02*
X322553206Y-117584644D01*
X322696063Y-116441786D02*
X322803206Y-116346548D01*
X322803206Y-116346548D02*
X323005587Y-116251310D01*
X323005587Y-116251310D02*
X323291301Y-116251310D01*
X323291301Y-116251310D02*
X323469873Y-116346548D01*
X323469873Y-116346548D02*
X323541301Y-116537025D01*
X323541301Y-116537025D02*
X323410349Y-117584644D01*
X325386540Y-116251310D02*
X325184159Y-117870358D01*
X325184159Y-117870358D02*
X325065111Y-118060834D01*
X325065111Y-118060834D02*
X324957968Y-118156072D01*
X324957968Y-118156072D02*
X324755587Y-118251310D01*
X324755587Y-118251310D02*
X324469873Y-118251310D01*
X324469873Y-118251310D02*
X324291302Y-118156072D01*
X325231778Y-117489406D02*
X325029397Y-117584644D01*
X325029397Y-117584644D02*
X324648445Y-117584644D01*
X324648445Y-117584644D02*
X324469873Y-117489406D01*
X324469873Y-117489406D02*
X324386540Y-117394167D01*
X324386540Y-117394167D02*
X324315111Y-117203691D01*
X324315111Y-117203691D02*
X324386540Y-116632263D01*
X324386540Y-116632263D02*
X324505587Y-116441786D01*
X324505587Y-116441786D02*
X324612730Y-116346548D01*
X324612730Y-116346548D02*
X324815111Y-116251310D01*
X324815111Y-116251310D02*
X325196064Y-116251310D01*
X325196064Y-116251310D02*
X325374635Y-116346548D01*
D10*
D11*
X270305396Y-112980620D02*
X269805396Y-112980620D01*
X269805396Y-113766334D02*
X269805396Y-112266334D01*
X269805396Y-112266334D02*
X270519682Y-112266334D01*
X271091110Y-113766334D02*
X271091110Y-112766334D01*
X271091110Y-112266334D02*
X271019682Y-112337763D01*
X271019682Y-112337763D02*
X271091110Y-112409191D01*
X271091110Y-112409191D02*
X271162539Y-112337763D01*
X271162539Y-112337763D02*
X271091110Y-112266334D01*
X271091110Y-112266334D02*
X271091110Y-112409191D01*
X272019682Y-113766334D02*
X271876825Y-113694906D01*
X271876825Y-113694906D02*
X271805396Y-113552048D01*
X271805396Y-113552048D02*
X271805396Y-112266334D01*
X273162539Y-113694906D02*
X273019682Y-113766334D01*
X273019682Y-113766334D02*
X272733968Y-113766334D01*
X272733968Y-113766334D02*
X272591110Y-113694906D01*
X272591110Y-113694906D02*
X272519682Y-113552048D01*
X272519682Y-113552048D02*
X272519682Y-112980620D01*
X272519682Y-112980620D02*
X272591110Y-112837763D01*
X272591110Y-112837763D02*
X272733968Y-112766334D01*
X272733968Y-112766334D02*
X273019682Y-112766334D01*
X273019682Y-112766334D02*
X273162539Y-112837763D01*
X273162539Y-112837763D02*
X273233968Y-112980620D01*
X273233968Y-112980620D02*
X273233968Y-113123477D01*
X273233968Y-113123477D02*
X272519682Y-113266334D01*
X273876824Y-113623477D02*
X273948253Y-113694906D01*
X273948253Y-113694906D02*
X273876824Y-113766334D01*
X273876824Y-113766334D02*
X273805396Y-113694906D01*
X273805396Y-113694906D02*
X273876824Y-113623477D01*
X273876824Y-113623477D02*
X273876824Y-113766334D01*
X273876824Y-112837763D02*
X273948253Y-112909191D01*
X273948253Y-112909191D02*
X273876824Y-112980620D01*
X273876824Y-112980620D02*
X273805396Y-112909191D01*
X273805396Y-112909191D02*
X273876824Y-112837763D01*
X273876824Y-112837763D02*
X273876824Y-112980620D01*
X275733967Y-113766334D02*
X275733967Y-112266334D01*
X275733967Y-112266334D02*
X276305396Y-112266334D01*
X276305396Y-112266334D02*
X276448253Y-112337763D01*
X276448253Y-112337763D02*
X276519682Y-112409191D01*
X276519682Y-112409191D02*
X276591110Y-112552048D01*
X276591110Y-112552048D02*
X276591110Y-112766334D01*
X276591110Y-112766334D02*
X276519682Y-112909191D01*
X276519682Y-112909191D02*
X276448253Y-112980620D01*
X276448253Y-112980620D02*
X276305396Y-113052048D01*
X276305396Y-113052048D02*
X275733967Y-113052048D01*
X277233967Y-113766334D02*
X277233967Y-112266334D01*
X277233967Y-112266334D02*
X277733967Y-113337763D01*
X277733967Y-113337763D02*
X278233967Y-112266334D01*
X278233967Y-112266334D02*
X278233967Y-113766334D01*
X279733968Y-113766334D02*
X278876825Y-113766334D01*
X279305396Y-113766334D02*
X279305396Y-112266334D01*
X279305396Y-112266334D02*
X279162539Y-112480620D01*
X279162539Y-112480620D02*
X279019682Y-112623477D01*
X279019682Y-112623477D02*
X278876825Y-112694906D01*
X281233967Y-113623477D02*
X281162539Y-113694906D01*
X281162539Y-113694906D02*
X280948253Y-113766334D01*
X280948253Y-113766334D02*
X280805396Y-113766334D01*
X280805396Y-113766334D02*
X280591110Y-113694906D01*
X280591110Y-113694906D02*
X280448253Y-113552048D01*
X280448253Y-113552048D02*
X280376824Y-113409191D01*
X280376824Y-113409191D02*
X280305396Y-113123477D01*
X280305396Y-113123477D02*
X280305396Y-112909191D01*
X280305396Y-112909191D02*
X280376824Y-112623477D01*
X280376824Y-112623477D02*
X280448253Y-112480620D01*
X280448253Y-112480620D02*
X280591110Y-112337763D01*
X280591110Y-112337763D02*
X280805396Y-112266334D01*
X280805396Y-112266334D02*
X280948253Y-112266334D01*
X280948253Y-112266334D02*
X281162539Y-112337763D01*
X281162539Y-112337763D02*
X281233967Y-112409191D01*
X281519682Y-113909191D02*
X282662539Y-113909191D01*
X283876824Y-113766334D02*
X283376824Y-113052048D01*
X283019681Y-113766334D02*
X283019681Y-112266334D01*
X283019681Y-112266334D02*
X283591110Y-112266334D01*
X283591110Y-112266334D02*
X283733967Y-112337763D01*
X283733967Y-112337763D02*
X283805396Y-112409191D01*
X283805396Y-112409191D02*
X283876824Y-112552048D01*
X283876824Y-112552048D02*
X283876824Y-112766334D01*
X283876824Y-112766334D02*
X283805396Y-112909191D01*
X283805396Y-112909191D02*
X283733967Y-112980620D01*
X283733967Y-112980620D02*
X283591110Y-113052048D01*
X283591110Y-113052048D02*
X283019681Y-113052048D01*
X285091110Y-113694906D02*
X284948253Y-113766334D01*
X284948253Y-113766334D02*
X284662539Y-113766334D01*
X284662539Y-113766334D02*
X284519681Y-113694906D01*
X284519681Y-113694906D02*
X284448253Y-113552048D01*
X284448253Y-113552048D02*
X284448253Y-112980620D01*
X284448253Y-112980620D02*
X284519681Y-112837763D01*
X284519681Y-112837763D02*
X284662539Y-112766334D01*
X284662539Y-112766334D02*
X284948253Y-112766334D01*
X284948253Y-112766334D02*
X285091110Y-112837763D01*
X285091110Y-112837763D02*
X285162539Y-112980620D01*
X285162539Y-112980620D02*
X285162539Y-113123477D01*
X285162539Y-113123477D02*
X284448253Y-113266334D01*
X285662538Y-112766334D02*
X286019681Y-113766334D01*
X286019681Y-113766334D02*
X286376824Y-112766334D01*
X286591110Y-113909191D02*
X287733967Y-113909191D01*
X288876824Y-113766334D02*
X288019681Y-113766334D01*
X288448252Y-113766334D02*
X288448252Y-112266334D01*
X288448252Y-112266334D02*
X288305395Y-112480620D01*
X288305395Y-112480620D02*
X288162538Y-112623477D01*
X288162538Y-112623477D02*
X288019681Y-112694906D01*
X289162538Y-113909191D02*
X290305395Y-113909191D01*
X290591109Y-112409191D02*
X290662537Y-112337763D01*
X290662537Y-112337763D02*
X290805395Y-112266334D01*
X290805395Y-112266334D02*
X291162537Y-112266334D01*
X291162537Y-112266334D02*
X291305395Y-112337763D01*
X291305395Y-112337763D02*
X291376823Y-112409191D01*
X291376823Y-112409191D02*
X291448252Y-112552048D01*
X291448252Y-112552048D02*
X291448252Y-112694906D01*
X291448252Y-112694906D02*
X291376823Y-112909191D01*
X291376823Y-112909191D02*
X290519680Y-113766334D01*
X290519680Y-113766334D02*
X291448252Y-113766334D01*
X292091108Y-113623477D02*
X292162537Y-113694906D01*
X292162537Y-113694906D02*
X292091108Y-113766334D01*
X292091108Y-113766334D02*
X292019680Y-113694906D01*
X292019680Y-113694906D02*
X292091108Y-113623477D01*
X292091108Y-113623477D02*
X292091108Y-113766334D01*
X292805394Y-113766334D02*
X292805394Y-112266334D01*
X292948252Y-113194906D02*
X293376823Y-113766334D01*
X293376823Y-112766334D02*
X292805394Y-113337763D01*
X294019680Y-113766334D02*
X294019680Y-112766334D01*
X294019680Y-112266334D02*
X293948252Y-112337763D01*
X293948252Y-112337763D02*
X294019680Y-112409191D01*
X294019680Y-112409191D02*
X294091109Y-112337763D01*
X294091109Y-112337763D02*
X294019680Y-112266334D01*
X294019680Y-112266334D02*
X294019680Y-112409191D01*
X295376824Y-113694906D02*
X295233966Y-113766334D01*
X295233966Y-113766334D02*
X294948252Y-113766334D01*
X294948252Y-113766334D02*
X294805395Y-113694906D01*
X294805395Y-113694906D02*
X294733966Y-113623477D01*
X294733966Y-113623477D02*
X294662538Y-113480620D01*
X294662538Y-113480620D02*
X294662538Y-113052048D01*
X294662538Y-113052048D02*
X294733966Y-112909191D01*
X294733966Y-112909191D02*
X294805395Y-112837763D01*
X294805395Y-112837763D02*
X294948252Y-112766334D01*
X294948252Y-112766334D02*
X295233966Y-112766334D01*
X295233966Y-112766334D02*
X295376824Y-112837763D01*
X296662538Y-113766334D02*
X296662538Y-112980620D01*
X296662538Y-112980620D02*
X296591109Y-112837763D01*
X296591109Y-112837763D02*
X296448252Y-112766334D01*
X296448252Y-112766334D02*
X296162538Y-112766334D01*
X296162538Y-112766334D02*
X296019680Y-112837763D01*
X296662538Y-113694906D02*
X296519680Y-113766334D01*
X296519680Y-113766334D02*
X296162538Y-113766334D01*
X296162538Y-113766334D02*
X296019680Y-113694906D01*
X296019680Y-113694906D02*
X295948252Y-113552048D01*
X295948252Y-113552048D02*
X295948252Y-113409191D01*
X295948252Y-113409191D02*
X296019680Y-113266334D01*
X296019680Y-113266334D02*
X296162538Y-113194906D01*
X296162538Y-113194906D02*
X296519680Y-113194906D01*
X296519680Y-113194906D02*
X296662538Y-113123477D01*
X298019681Y-113766334D02*
X298019681Y-112266334D01*
X298019681Y-113694906D02*
X297876823Y-113766334D01*
X297876823Y-113766334D02*
X297591109Y-113766334D01*
X297591109Y-113766334D02*
X297448252Y-113694906D01*
X297448252Y-113694906D02*
X297376823Y-113623477D01*
X297376823Y-113623477D02*
X297305395Y-113480620D01*
X297305395Y-113480620D02*
X297305395Y-113052048D01*
X297305395Y-113052048D02*
X297376823Y-112909191D01*
X297376823Y-112909191D02*
X297448252Y-112837763D01*
X297448252Y-112837763D02*
X297591109Y-112766334D01*
X297591109Y-112766334D02*
X297876823Y-112766334D01*
X297876823Y-112766334D02*
X298019681Y-112837763D01*
X298376824Y-113909191D02*
X299519681Y-113909191D01*
X299876823Y-112766334D02*
X299876823Y-114266334D01*
X299876823Y-112837763D02*
X300019681Y-112766334D01*
X300019681Y-112766334D02*
X300305395Y-112766334D01*
X300305395Y-112766334D02*
X300448252Y-112837763D01*
X300448252Y-112837763D02*
X300519681Y-112909191D01*
X300519681Y-112909191D02*
X300591109Y-113052048D01*
X300591109Y-113052048D02*
X300591109Y-113480620D01*
X300591109Y-113480620D02*
X300519681Y-113623477D01*
X300519681Y-113623477D02*
X300448252Y-113694906D01*
X300448252Y-113694906D02*
X300305395Y-113766334D01*
X300305395Y-113766334D02*
X300019681Y-113766334D01*
X300019681Y-113766334D02*
X299876823Y-113694906D01*
X301876824Y-113694906D02*
X301733966Y-113766334D01*
X301733966Y-113766334D02*
X301448252Y-113766334D01*
X301448252Y-113766334D02*
X301305395Y-113694906D01*
X301305395Y-113694906D02*
X301233966Y-113623477D01*
X301233966Y-113623477D02*
X301162538Y-113480620D01*
X301162538Y-113480620D02*
X301162538Y-113052048D01*
X301162538Y-113052048D02*
X301233966Y-112909191D01*
X301233966Y-112909191D02*
X301305395Y-112837763D01*
X301305395Y-112837763D02*
X301448252Y-112766334D01*
X301448252Y-112766334D02*
X301733966Y-112766334D01*
X301733966Y-112766334D02*
X301876824Y-112837763D01*
X302519680Y-113766334D02*
X302519680Y-112266334D01*
X302519680Y-112837763D02*
X302662538Y-112766334D01*
X302662538Y-112766334D02*
X302948252Y-112766334D01*
X302948252Y-112766334D02*
X303091109Y-112837763D01*
X303091109Y-112837763D02*
X303162538Y-112909191D01*
X303162538Y-112909191D02*
X303233966Y-113052048D01*
X303233966Y-113052048D02*
X303233966Y-113480620D01*
X303233966Y-113480620D02*
X303162538Y-113623477D01*
X303162538Y-113623477D02*
X303091109Y-113694906D01*
X303091109Y-113694906D02*
X302948252Y-113766334D01*
X302948252Y-113766334D02*
X302662538Y-113766334D01*
X302662538Y-113766334D02*
X302519680Y-113694906D01*
D10*
D11*
X268349570Y-108880206D02*
X376349570Y-108880206D01*
D10*
D11*
X269733968Y-110994906D02*
X269948254Y-111066334D01*
X269948254Y-111066334D02*
X270305396Y-111066334D01*
X270305396Y-111066334D02*
X270448254Y-110994906D01*
X270448254Y-110994906D02*
X270519682Y-110923477D01*
X270519682Y-110923477D02*
X270591111Y-110780620D01*
X270591111Y-110780620D02*
X270591111Y-110637763D01*
X270591111Y-110637763D02*
X270519682Y-110494906D01*
X270519682Y-110494906D02*
X270448254Y-110423477D01*
X270448254Y-110423477D02*
X270305396Y-110352048D01*
X270305396Y-110352048D02*
X270019682Y-110280620D01*
X270019682Y-110280620D02*
X269876825Y-110209191D01*
X269876825Y-110209191D02*
X269805396Y-110137763D01*
X269805396Y-110137763D02*
X269733968Y-109994906D01*
X269733968Y-109994906D02*
X269733968Y-109852048D01*
X269733968Y-109852048D02*
X269805396Y-109709191D01*
X269805396Y-109709191D02*
X269876825Y-109637763D01*
X269876825Y-109637763D02*
X270019682Y-109566334D01*
X270019682Y-109566334D02*
X270376825Y-109566334D01*
X270376825Y-109566334D02*
X270591111Y-109637763D01*
X271233967Y-111066334D02*
X271233967Y-109566334D01*
X271876825Y-111066334D02*
X271876825Y-110280620D01*
X271876825Y-110280620D02*
X271805396Y-110137763D01*
X271805396Y-110137763D02*
X271662539Y-110066334D01*
X271662539Y-110066334D02*
X271448253Y-110066334D01*
X271448253Y-110066334D02*
X271305396Y-110137763D01*
X271305396Y-110137763D02*
X271233967Y-110209191D01*
X273162539Y-110994906D02*
X273019682Y-111066334D01*
X273019682Y-111066334D02*
X272733968Y-111066334D01*
X272733968Y-111066334D02*
X272591110Y-110994906D01*
X272591110Y-110994906D02*
X272519682Y-110852048D01*
X272519682Y-110852048D02*
X272519682Y-110280620D01*
X272519682Y-110280620D02*
X272591110Y-110137763D01*
X272591110Y-110137763D02*
X272733968Y-110066334D01*
X272733968Y-110066334D02*
X273019682Y-110066334D01*
X273019682Y-110066334D02*
X273162539Y-110137763D01*
X273162539Y-110137763D02*
X273233968Y-110280620D01*
X273233968Y-110280620D02*
X273233968Y-110423477D01*
X273233968Y-110423477D02*
X272519682Y-110566334D01*
X274448253Y-110994906D02*
X274305396Y-111066334D01*
X274305396Y-111066334D02*
X274019682Y-111066334D01*
X274019682Y-111066334D02*
X273876824Y-110994906D01*
X273876824Y-110994906D02*
X273805396Y-110852048D01*
X273805396Y-110852048D02*
X273805396Y-110280620D01*
X273805396Y-110280620D02*
X273876824Y-110137763D01*
X273876824Y-110137763D02*
X274019682Y-110066334D01*
X274019682Y-110066334D02*
X274305396Y-110066334D01*
X274305396Y-110066334D02*
X274448253Y-110137763D01*
X274448253Y-110137763D02*
X274519682Y-110280620D01*
X274519682Y-110280620D02*
X274519682Y-110423477D01*
X274519682Y-110423477D02*
X273805396Y-110566334D01*
X274948253Y-110066334D02*
X275519681Y-110066334D01*
X275162538Y-109566334D02*
X275162538Y-110852048D01*
X275162538Y-110852048D02*
X275233967Y-110994906D01*
X275233967Y-110994906D02*
X275376824Y-111066334D01*
X275376824Y-111066334D02*
X275519681Y-111066334D01*
X276019681Y-110923477D02*
X276091110Y-110994906D01*
X276091110Y-110994906D02*
X276019681Y-111066334D01*
X276019681Y-111066334D02*
X275948253Y-110994906D01*
X275948253Y-110994906D02*
X276019681Y-110923477D01*
X276019681Y-110923477D02*
X276019681Y-111066334D01*
X276019681Y-110137763D02*
X276091110Y-110209191D01*
X276091110Y-110209191D02*
X276019681Y-110280620D01*
X276019681Y-110280620D02*
X275948253Y-110209191D01*
X275948253Y-110209191D02*
X276019681Y-110137763D01*
X276019681Y-110137763D02*
X276019681Y-110280620D01*
D10*
D12*
X270761223Y-107915677D02*
X270689795Y-107987106D01*
X270689795Y-107987106D02*
X270475509Y-108058534D01*
X270475509Y-108058534D02*
X270332652Y-108058534D01*
X270332652Y-108058534D02*
X270118366Y-107987106D01*
X270118366Y-107987106D02*
X269975509Y-107844248D01*
X269975509Y-107844248D02*
X269904080Y-107701391D01*
X269904080Y-107701391D02*
X269832652Y-107415677D01*
X269832652Y-107415677D02*
X269832652Y-107201391D01*
X269832652Y-107201391D02*
X269904080Y-106915677D01*
X269904080Y-106915677D02*
X269975509Y-106772820D01*
X269975509Y-106772820D02*
X270118366Y-106629963D01*
X270118366Y-106629963D02*
X270332652Y-106558534D01*
X270332652Y-106558534D02*
X270475509Y-106558534D01*
X270475509Y-106558534D02*
X270689795Y-106629963D01*
X270689795Y-106629963D02*
X270761223Y-106701391D01*
X271689795Y-106558534D02*
X271975509Y-106558534D01*
X271975509Y-106558534D02*
X272118366Y-106629963D01*
X272118366Y-106629963D02*
X272261223Y-106772820D01*
X272261223Y-106772820D02*
X272332652Y-107058534D01*
X272332652Y-107058534D02*
X272332652Y-107558534D01*
X272332652Y-107558534D02*
X272261223Y-107844248D01*
X272261223Y-107844248D02*
X272118366Y-107987106D01*
X272118366Y-107987106D02*
X271975509Y-108058534D01*
X271975509Y-108058534D02*
X271689795Y-108058534D01*
X271689795Y-108058534D02*
X271546938Y-107987106D01*
X271546938Y-107987106D02*
X271404080Y-107844248D01*
X271404080Y-107844248D02*
X271332652Y-107558534D01*
X271332652Y-107558534D02*
X271332652Y-107058534D01*
X271332652Y-107058534D02*
X271404080Y-106772820D01*
X271404080Y-106772820D02*
X271546938Y-106629963D01*
X271546938Y-106629963D02*
X271689795Y-106558534D01*
X272904081Y-107987106D02*
X273118367Y-108058534D01*
X273118367Y-108058534D02*
X273475509Y-108058534D01*
X273475509Y-108058534D02*
X273618367Y-107987106D01*
X273618367Y-107987106D02*
X273689795Y-107915677D01*
X273689795Y-107915677D02*
X273761224Y-107772820D01*
X273761224Y-107772820D02*
X273761224Y-107629963D01*
X273761224Y-107629963D02*
X273689795Y-107487106D01*
X273689795Y-107487106D02*
X273618367Y-107415677D01*
X273618367Y-107415677D02*
X273475509Y-107344248D01*
X273475509Y-107344248D02*
X273189795Y-107272820D01*
X273189795Y-107272820D02*
X273046938Y-107201391D01*
X273046938Y-107201391D02*
X272975509Y-107129963D01*
X272975509Y-107129963D02*
X272904081Y-106987106D01*
X272904081Y-106987106D02*
X272904081Y-106844248D01*
X272904081Y-106844248D02*
X272975509Y-106701391D01*
X272975509Y-106701391D02*
X273046938Y-106629963D01*
X273046938Y-106629963D02*
X273189795Y-106558534D01*
X273189795Y-106558534D02*
X273546938Y-106558534D01*
X273546938Y-106558534D02*
X273761224Y-106629963D01*
X274404080Y-108058534D02*
X274404080Y-106558534D01*
X274404080Y-106558534D02*
X274904080Y-107629963D01*
X274904080Y-107629963D02*
X275404080Y-106558534D01*
X275404080Y-106558534D02*
X275404080Y-108058534D01*
X276118366Y-108058534D02*
X276118366Y-106558534D01*
X276832652Y-108058534D02*
X276832652Y-106558534D01*
X278404081Y-107915677D02*
X278332653Y-107987106D01*
X278332653Y-107987106D02*
X278118367Y-108058534D01*
X278118367Y-108058534D02*
X277975510Y-108058534D01*
X277975510Y-108058534D02*
X277761224Y-107987106D01*
X277761224Y-107987106D02*
X277618367Y-107844248D01*
X277618367Y-107844248D02*
X277546938Y-107701391D01*
X277546938Y-107701391D02*
X277475510Y-107415677D01*
X277475510Y-107415677D02*
X277475510Y-107201391D01*
X277475510Y-107201391D02*
X277546938Y-106915677D01*
X277546938Y-106915677D02*
X277618367Y-106772820D01*
X277618367Y-106772820D02*
X277761224Y-106629963D01*
X277761224Y-106629963D02*
X277975510Y-106558534D01*
X277975510Y-106558534D02*
X278118367Y-106558534D01*
X278118367Y-106558534D02*
X278332653Y-106629963D01*
X278332653Y-106629963D02*
X278404081Y-106701391D01*
D10*
D11*
X288349570Y-118880206D02*
X288349570Y-121880206D01*
D10*
D11*
X352349570Y-118880206D02*
X352349570Y-125380206D01*
D14*
X40097062Y84569560D02*
G75*
G02*
X40101269Y86567296I65708J998734D01*
G01*
X16969160Y18517970D02*
X20924570Y18514794D01*
X74512989Y18551479D02*
X74512989Y26194681D01*
X44154220Y63354860D02*
G75*
G02*
X43392220Y63354860I-381000J0D01*
G01*
X13072620Y82043883D02*
X13073580Y75546186D01*
X-430Y93999794D02*
X83999570Y93999794D01*
X83999570Y-206D01*
X-430Y-206D01*
X-430Y93999794D01*
X29168200Y75298540D02*
G75*
G02*
X29930200Y75298540I381000J0D01*
G01*
X9998577Y61899780D02*
G75*
G02*
X7995987Y61914854I-1000907J59114D01*
G01*
X7999863Y37389737D02*
G75*
G02*
X10000743Y37424144I1000957J-12853D01*
G01*
X22454767Y8002644D02*
G75*
G02*
X21556793Y8128563I-37397J2998150D01*
G01*
X22045552Y10078199D02*
G75*
G02*
X17446829Y15937321I2931018J7034795D01*
G01*
X27931868Y66361539D02*
X27932828Y71048365D01*
X76511758Y33187968D02*
G75*
G02*
X74512624Y33200892I-999988J-58674D01*
G01*
X7999863Y28504613D02*
G75*
G02*
X10786749Y31195431I2762107J-72119D01*
G01*
X58249620Y75589710D02*
X58251240Y82029550D01*
X18653896Y50592202D02*
X18653896Y48802160D01*
X43392220Y75298540D02*
G75*
G02*
X44154220Y75298540I381000J0D01*
G01*
X21097280Y34985088D02*
G75*
G02*
X21097282Y34220700I7690J-382194D01*
G01*
X51424443Y8004611D02*
X44921701Y8004611D01*
X15071180Y82029550D02*
X15072140Y75588427D01*
X23453200Y11014800D02*
G75*
G02*
X22045542Y10078174I-1015630J294D01*
G01*
X55734082Y86567304D02*
G75*
G02*
X60249809Y82044169I-21712J-4537410D01*
G01*
X55734082Y86567304D02*
X40101268Y86567304D01*
X74511690Y62830860D02*
X74511690Y55318742D01*
X29422200Y11776800D02*
G75*
G02*
X30946200Y11776800I762000J0D01*
G01*
X10000740Y28429060D02*
X10000740Y26751726D01*
X18653471Y32985423D02*
X18653471Y31195381D01*
X21556789Y8128551D02*
G75*
G02*
X15505479Y15404128I3379981J8965543D01*
G01*
X10000740Y46010960D02*
G75*
G02*
X10762740Y46772924I762030J-66D01*
G01*
X45390552Y66361825D02*
X73009751Y66361825D01*
X17588338Y86567018D02*
X33221152Y86567018D01*
X29930200Y63354860D02*
G75*
G02*
X29168200Y63354860I-381000J0D01*
G01*
X7999862Y35671257D02*
X7999862Y37389737D01*
X24492266Y73048703D02*
X28407160Y73048417D01*
X40097062Y84569560D02*
X55711230Y84569560D01*
X21097300Y29954091D02*
X20657300Y29955004D01*
X60248180Y75547755D02*
G75*
G02*
X55724153Y71049914I-4540110J42439D01*
G01*
X10765000Y52565000D02*
X19895888Y52564281D01*
X21688770Y17803988D02*
G75*
G02*
X20899568Y17099736I-761300J58806D01*
G01*
X20657280Y34219688D02*
X20656910Y29954854D01*
X29169160Y73810417D02*
G75*
G02*
X28407160Y73048404I-762090J77D01*
G01*
X72987690Y64354860D02*
G75*
G02*
X74511736Y62830860I80J-1523966D01*
G01*
X21099590Y46769710D02*
X19895908Y46770623D01*
X37981640Y8002644D02*
X22454767Y8002644D01*
X29168200Y63354860D02*
X29168200Y64354860D01*
X17612150Y73048417D02*
G75*
G02*
X15072193Y75588427I20J2539977D01*
G01*
X10000740Y18164910D02*
X10000740Y19818038D01*
X21097300Y29954091D02*
G75*
G02*
X21097302Y29189697I7770J-382197D01*
G01*
X10762710Y34984894D02*
X19893598Y34984175D01*
X18653471Y31195381D02*
X10786749Y31195381D01*
X31962210Y9999840D02*
G75*
G02*
X30946216Y11015840I160J1016154D01*
G01*
X7995987Y63633334D02*
G75*
G02*
X10788848Y66361495I2786583J-59040D01*
G01*
X76511758Y33187968D02*
X76511758Y48356999D01*
X18653896Y50592202D02*
X10787174Y50592202D01*
X43392220Y63354860D02*
X43392220Y75298540D01*
X18653896Y48802160D02*
X10787174Y48802160D01*
X29422200Y11359840D02*
X29422200Y11776800D01*
X54633207Y17108272D02*
X54695230Y17110800D01*
X54695230Y17110810D02*
X72987690Y17110810D01*
X74512660Y33200889D02*
X74512660Y48369920D01*
X10765000Y52565000D02*
G75*
G02*
X9999976Y53330000I-530J764494D01*
G01*
X10000740Y28429060D02*
G75*
G02*
X10762740Y29191024I762030J-66D01*
G01*
X44904117Y10000977D02*
X50887740Y10000977D01*
X10005000Y54965000D02*
X10000000Y53330000D01*
X27932828Y71048365D02*
X24488060Y71050959D01*
X30946200Y11776800D02*
X30946200Y11015840D01*
X19894900Y29192854D02*
X10760450Y29192854D01*
X51199402Y10051668D02*
G75*
G02*
X50887740Y9999829I-283132J739426D01*
G01*
X45390552Y66361825D02*
X45388932Y71049934D01*
X48829494Y73049414D02*
G75*
G02*
X48833702Y71051642I-61524J-999020D01*
G01*
X73022161Y15115114D02*
X57751898Y15115114D01*
X44154220Y75298540D02*
X44152600Y73811700D01*
X16472561Y18076188D02*
G75*
G02*
X16969160Y18517990I496509J-58094D01*
G01*
X74512989Y26194681D02*
G75*
G02*
X76506110Y26198184I996681J-66687D01*
G01*
X10762740Y34984810D02*
G75*
G02*
X10000786Y35746810I-70J761884D01*
G01*
X21097280Y34985088D02*
X19893598Y34984175D01*
X23453200Y11776800D02*
G75*
G02*
X24977200Y11776800I762000J0D01*
G01*
X21099570Y51800707D02*
X20659570Y51799794D01*
X31962210Y9999840D02*
X37993506Y9999840D01*
X45388932Y71049934D02*
X48833700Y71051670D01*
X9998578Y61899780D02*
X9998578Y63582661D01*
X8000287Y54996516D02*
G75*
G02*
X10004942Y54964999I1001883J-44022D01*
G01*
X10000740Y35746810D02*
X10000740Y37424144D01*
X18653471Y32985423D02*
X10786749Y32985423D01*
X74512989Y18551479D02*
G75*
G02*
X72987690Y17110784I-1525419J87215D01*
G01*
X27931868Y66361539D02*
X10788848Y66361539D01*
X9998578Y63582661D02*
G75*
G02*
X10762740Y64354827I764192J7933D01*
G01*
X37993506Y9999840D02*
G75*
G02*
X37981640Y8002640I-82336J-998146D01*
G01*
X29168200Y64354860D02*
X10762740Y64354860D01*
X24488060Y71050959D02*
G75*
G02*
X24492266Y73048697I65710J998735D01*
G01*
X17612150Y73048417D02*
G75*
G02*
X17597606Y71048381I-61580J-999623D01*
G01*
X74512660Y48369920D02*
G75*
G02*
X76511782Y48357000I999310J-45326D01*
G01*
X7999816Y19824254D02*
G75*
G02*
X10000708Y19818037I1000354J-32660D01*
G01*
X44154220Y64354860D02*
X44154220Y63354860D01*
X7999862Y28504613D02*
X7999862Y26786133D01*
X54589440Y15594180D02*
G75*
G02*
X55387297Y14199912I-140970J-1006086D01*
G01*
X29930200Y75298540D02*
X29930200Y63354860D01*
X20659570Y51799794D02*
X20659200Y47534960D01*
X44914600Y73049700D02*
X48829494Y73049414D01*
X21099590Y47534197D02*
G75*
G02*
X21099592Y46769791I7780J-382203D01*
G01*
X72987690Y64354860D02*
X44154220Y64354860D01*
X20924570Y18514794D02*
G75*
G02*
X21688813Y17803991I-3300J-769800D01*
G01*
X55711230Y84569560D02*
G75*
G02*
X58251236Y82029550I-160J-2540166D01*
G01*
X21097300Y29189604D02*
X19893618Y29190517D01*
X10001165Y44358505D02*
G75*
G02*
X8000278Y44392912I-999925J47349D01*
G01*
X21099570Y52565194D02*
G75*
G02*
X21099572Y51800794I7700J-382200D01*
G01*
X8000287Y46111392D02*
X8000287Y44392912D01*
X55387322Y14199908D02*
G75*
G02*
X51199393Y10051690I-7025252J2904386D01*
G01*
X10786749Y32985423D02*
G75*
G02*
X7999875Y35671257I-29879J2757771D01*
G01*
X8000288Y46111392D02*
G75*
G02*
X10787174Y48802205I2762082J-72098D01*
G01*
X15071180Y82029550D02*
G75*
G02*
X17611190Y84569584I2539890J144D01*
G01*
X24977200Y11776800D02*
X24977200Y11359840D01*
X24977200Y11359840D02*
X29422200Y11359840D01*
X21099570Y52565194D02*
X19895888Y52564281D01*
X21097280Y34220601D02*
X20657280Y34219688D01*
X10758458Y15404131D02*
G75*
G02*
X7999807Y18171126I4112J2762763D01*
G01*
X76506828Y62853058D02*
X76512905Y55340942D01*
X29169160Y73810417D02*
X29168200Y75298540D01*
X17446824Y15937320D02*
G75*
G02*
X18449569Y17099721I995346J155074D01*
G01*
X10762740Y17402910D02*
G75*
G02*
X10000786Y18164910I-70J761884D01*
G01*
X8000287Y53278036D02*
X8000287Y54996516D01*
X17597607Y71048365D02*
G75*
G02*
X13073610Y75546186I15963J4540129D01*
G01*
X58249620Y75589710D02*
G75*
G02*
X55709610Y73049744I-2539850J-116D01*
G01*
X44921701Y8004611D02*
G75*
G02*
X44904117Y10000982I2269J998283D01*
G01*
X7999816Y18171126D02*
X7999816Y19824254D01*
X33225358Y84569274D02*
X17611190Y84569274D01*
X7995986Y63633334D02*
X7995986Y61914854D01*
X55724153Y71049934D02*
G75*
G02*
X55709612Y73049665I47017J1000260D01*
G01*
X13072620Y82043883D02*
G75*
G02*
X17588338Y86567024I4537500J-14329D01*
G01*
X10787174Y50592202D02*
G75*
G02*
X8000251Y53278035I-30004J2757692D01*
G01*
X44914600Y73049700D02*
G75*
G02*
X44152576Y73811700I-30J761994D01*
G01*
X20899570Y17099794D02*
X18449570Y17099794D01*
X73009751Y66361825D02*
G75*
G02*
X76506795Y62853058I-34081J-3531031D01*
G01*
X10762740Y17402910D02*
X15715740Y17402910D01*
X10000740Y46010960D02*
X10001165Y44358505D01*
X60249800Y82044169D02*
X60248180Y75547755D01*
X10000740Y26751726D02*
G75*
G02*
X7999866Y26786133I-999920J47258D01*
G01*
X33221152Y86567018D02*
G75*
G02*
X33225360Y84569238I-61582J-999024D01*
G01*
X15505493Y15404131D02*
X10758458Y15404131D01*
X76506032Y18554976D02*
X76506032Y26198178D01*
X23453200Y11014800D02*
X23453200Y11776800D01*
X16472557Y18076186D02*
G75*
G02*
X15715740Y17402926I-756787J88708D01*
G01*
X57751898Y15115114D02*
G75*
G02*
X51424442Y8004615I-9409188J2002430D01*
G01*
X54589435Y15594180D02*
G75*
G02*
X54633209Y17108251I105635J754614D01*
G01*
X76506668Y18554962D02*
G75*
G02*
X73022161Y15115157I-3518998J79932D01*
G01*
X21099590Y47534197D02*
X20659590Y47535110D01*
X76512905Y55340942D02*
G75*
G02*
X74511654Y55318741I-1000735J-1248D01*
G01*
X19897190Y46772960D02*
X10762740Y46772960D01*
M02*
