%TF.GenerationSoftware,KiCad,Pcbnew,8.0.2*%
%TF.CreationDate,2024-09-08T21:36:50-05:00*%
%TF.ProjectId,PM1C_Rev_1_2,504d3143-5f52-4657-965f-315f322e6b69,1*%
%TF.SameCoordinates,PX297003ePY8770cd2*%
%TF.FileFunction,Copper,L5,Inr*%
%TF.FilePolarity,Positive*%
%FSLAX46Y46*%
G04 Gerber Fmt 4.6, Leading zero omitted, Abs format (unit mm)*
G04 Created by KiCad (PCBNEW 8.0.2) date 2024-09-08 21:36:50*
%MOMM*%
%LPD*%
G01*
G04 APERTURE LIST*
%ADD10C,0.100000*%
%ADD11C,0.150000*%
%ADD12C,0.300000*%
%ADD13C,0.400000*%
%TA.AperFunction,Conductor*%
%ADD14C,0.000000*%
%TD*%
%ADD15C,0.200000*%
%TA.AperFunction,NonConductor*%
%ADD16C,0.200000*%
%TD*%
%TA.AperFunction,ComponentPad*%
%ADD17O,4.064000X2.540000*%
%TD*%
%TA.AperFunction,ComponentPad*%
%ADD18O,4.064000X1.828800*%
%TD*%
%TA.AperFunction,ComponentPad*%
%ADD19R,1.500000X1.500000*%
%TD*%
%TA.AperFunction,ComponentPad*%
%ADD20C,1.500000*%
%TD*%
%TA.AperFunction,ComponentPad*%
%ADD21C,0.800000*%
%TD*%
%TA.AperFunction,ComponentPad*%
%ADD22C,1.143000*%
%TD*%
%TA.AperFunction,ComponentPad*%
%ADD23C,1.141748*%
%TD*%
%TA.AperFunction,ViaPad*%
%ADD24C,0.450000*%
%TD*%
%TA.AperFunction,ViaPad*%
%ADD25C,0.800000*%
%TD*%
%TA.AperFunction,ViaPad*%
%ADD26C,0.360000*%
%TD*%
%TA.AperFunction,Conductor*%
%ADD27C,0.200000*%
%TD*%
%TA.AperFunction,Conductor*%
%ADD28C,0.254000*%
%TD*%
%TA.AperFunction,Conductor*%
%ADD29C,0.150000*%
%TD*%
%TA.AperFunction,Conductor*%
%ADD30C,0.500000*%
%TD*%
%TA.AperFunction,Conductor*%
%ADD31C,0.250000*%
%TD*%
%TA.AperFunction,Conductor*%
%ADD32C,0.400000*%
%TD*%
%TA.AperFunction,Conductor*%
%ADD33C,0.450000*%
%TD*%
G04 APERTURE END LIST*
D10*
D11*
X268349570Y-93380206D02*
X376349570Y-93380206D01*
X376349570Y-125380206D01*
X268349570Y-125380206D01*
X268349570Y-93380206D01*
D10*
D11*
X-33450430Y132019794D02*
X378349570Y132019794D01*
X378349570Y-127380206D01*
X-33450430Y-127380206D01*
X-33450430Y132019794D01*
D10*
D11*
X-31450430Y130019794D02*
X376349570Y130019794D01*
X376349570Y-125380206D01*
X-31450430Y-125380206D01*
X-31450430Y130019794D01*
D10*
D11*
X16549570Y130019794D02*
X16549570Y132019794D01*
D10*
D11*
X66549570Y130019794D02*
X66549570Y132019794D01*
D10*
D11*
X116549570Y130019794D02*
X116549570Y132019794D01*
D10*
D11*
X166549570Y130019794D02*
X166549570Y132019794D01*
D10*
D11*
X216549570Y130019794D02*
X216549570Y132019794D01*
D10*
D11*
X266549570Y130019794D02*
X266549570Y132019794D01*
D10*
D11*
X316549570Y130019794D02*
X316549570Y132019794D01*
D10*
D11*
X366549570Y130019794D02*
X366549570Y132019794D01*
D10*
D11*
X-7361270Y130426190D02*
X-8104127Y130426190D01*
X-7732699Y130426190D02*
X-7732699Y131726190D01*
X-7732699Y131726190D02*
X-7856508Y131540475D01*
X-7856508Y131540475D02*
X-7980318Y131416666D01*
X-7980318Y131416666D02*
X-8104127Y131354761D01*
D10*
D11*
X41895873Y131602380D02*
X41957777Y131664285D01*
X41957777Y131664285D02*
X42081587Y131726190D01*
X42081587Y131726190D02*
X42391111Y131726190D01*
X42391111Y131726190D02*
X42514920Y131664285D01*
X42514920Y131664285D02*
X42576825Y131602380D01*
X42576825Y131602380D02*
X42638730Y131478571D01*
X42638730Y131478571D02*
X42638730Y131354761D01*
X42638730Y131354761D02*
X42576825Y131169047D01*
X42576825Y131169047D02*
X41833968Y130426190D01*
X41833968Y130426190D02*
X42638730Y130426190D01*
D10*
D11*
X91833968Y131726190D02*
X92638730Y131726190D01*
X92638730Y131726190D02*
X92205396Y131230952D01*
X92205396Y131230952D02*
X92391111Y131230952D01*
X92391111Y131230952D02*
X92514920Y131169047D01*
X92514920Y131169047D02*
X92576825Y131107142D01*
X92576825Y131107142D02*
X92638730Y130983333D01*
X92638730Y130983333D02*
X92638730Y130673809D01*
X92638730Y130673809D02*
X92576825Y130549999D01*
X92576825Y130549999D02*
X92514920Y130488094D01*
X92514920Y130488094D02*
X92391111Y130426190D01*
X92391111Y130426190D02*
X92019682Y130426190D01*
X92019682Y130426190D02*
X91895873Y130488094D01*
X91895873Y130488094D02*
X91833968Y130549999D01*
D10*
D11*
X142514920Y131292856D02*
X142514920Y130426190D01*
X142205396Y131788094D02*
X141895873Y130859523D01*
X141895873Y130859523D02*
X142700634Y130859523D01*
D10*
D11*
X192576825Y131726190D02*
X191957777Y131726190D01*
X191957777Y131726190D02*
X191895873Y131107142D01*
X191895873Y131107142D02*
X191957777Y131169047D01*
X191957777Y131169047D02*
X192081587Y131230952D01*
X192081587Y131230952D02*
X192391111Y131230952D01*
X192391111Y131230952D02*
X192514920Y131169047D01*
X192514920Y131169047D02*
X192576825Y131107142D01*
X192576825Y131107142D02*
X192638730Y130983333D01*
X192638730Y130983333D02*
X192638730Y130673809D01*
X192638730Y130673809D02*
X192576825Y130549999D01*
X192576825Y130549999D02*
X192514920Y130488094D01*
X192514920Y130488094D02*
X192391111Y130426190D01*
X192391111Y130426190D02*
X192081587Y130426190D01*
X192081587Y130426190D02*
X191957777Y130488094D01*
X191957777Y130488094D02*
X191895873Y130549999D01*
D10*
D11*
X242514920Y131726190D02*
X242267301Y131726190D01*
X242267301Y131726190D02*
X242143492Y131664285D01*
X242143492Y131664285D02*
X242081587Y131602380D01*
X242081587Y131602380D02*
X241957777Y131416666D01*
X241957777Y131416666D02*
X241895873Y131169047D01*
X241895873Y131169047D02*
X241895873Y130673809D01*
X241895873Y130673809D02*
X241957777Y130549999D01*
X241957777Y130549999D02*
X242019682Y130488094D01*
X242019682Y130488094D02*
X242143492Y130426190D01*
X242143492Y130426190D02*
X242391111Y130426190D01*
X242391111Y130426190D02*
X242514920Y130488094D01*
X242514920Y130488094D02*
X242576825Y130549999D01*
X242576825Y130549999D02*
X242638730Y130673809D01*
X242638730Y130673809D02*
X242638730Y130983333D01*
X242638730Y130983333D02*
X242576825Y131107142D01*
X242576825Y131107142D02*
X242514920Y131169047D01*
X242514920Y131169047D02*
X242391111Y131230952D01*
X242391111Y131230952D02*
X242143492Y131230952D01*
X242143492Y131230952D02*
X242019682Y131169047D01*
X242019682Y131169047D02*
X241957777Y131107142D01*
X241957777Y131107142D02*
X241895873Y130983333D01*
D10*
D11*
X291833968Y131726190D02*
X292700634Y131726190D01*
X292700634Y131726190D02*
X292143492Y130426190D01*
D10*
D11*
X342143492Y131169047D02*
X342019682Y131230952D01*
X342019682Y131230952D02*
X341957777Y131292856D01*
X341957777Y131292856D02*
X341895873Y131416666D01*
X341895873Y131416666D02*
X341895873Y131478571D01*
X341895873Y131478571D02*
X341957777Y131602380D01*
X341957777Y131602380D02*
X342019682Y131664285D01*
X342019682Y131664285D02*
X342143492Y131726190D01*
X342143492Y131726190D02*
X342391111Y131726190D01*
X342391111Y131726190D02*
X342514920Y131664285D01*
X342514920Y131664285D02*
X342576825Y131602380D01*
X342576825Y131602380D02*
X342638730Y131478571D01*
X342638730Y131478571D02*
X342638730Y131416666D01*
X342638730Y131416666D02*
X342576825Y131292856D01*
X342576825Y131292856D02*
X342514920Y131230952D01*
X342514920Y131230952D02*
X342391111Y131169047D01*
X342391111Y131169047D02*
X342143492Y131169047D01*
X342143492Y131169047D02*
X342019682Y131107142D01*
X342019682Y131107142D02*
X341957777Y131045237D01*
X341957777Y131045237D02*
X341895873Y130921428D01*
X341895873Y130921428D02*
X341895873Y130673809D01*
X341895873Y130673809D02*
X341957777Y130549999D01*
X341957777Y130549999D02*
X342019682Y130488094D01*
X342019682Y130488094D02*
X342143492Y130426190D01*
X342143492Y130426190D02*
X342391111Y130426190D01*
X342391111Y130426190D02*
X342514920Y130488094D01*
X342514920Y130488094D02*
X342576825Y130549999D01*
X342576825Y130549999D02*
X342638730Y130673809D01*
X342638730Y130673809D02*
X342638730Y130921428D01*
X342638730Y130921428D02*
X342576825Y131045237D01*
X342576825Y131045237D02*
X342514920Y131107142D01*
X342514920Y131107142D02*
X342391111Y131169047D01*
D10*
D11*
X16549570Y-125380206D02*
X16549570Y-127380206D01*
D10*
D11*
X66549570Y-125380206D02*
X66549570Y-127380206D01*
D10*
D11*
X116549570Y-125380206D02*
X116549570Y-127380206D01*
D10*
D11*
X166549570Y-125380206D02*
X166549570Y-127380206D01*
D10*
D11*
X216549570Y-125380206D02*
X216549570Y-127380206D01*
D10*
D11*
X266549570Y-125380206D02*
X266549570Y-127380206D01*
D10*
D11*
X316549570Y-125380206D02*
X316549570Y-127380206D01*
D10*
D11*
X366549570Y-125380206D02*
X366549570Y-127380206D01*
D10*
D11*
X-7361270Y-126973810D02*
X-8104127Y-126973810D01*
X-7732699Y-126973810D02*
X-7732699Y-125673810D01*
X-7732699Y-125673810D02*
X-7856508Y-125859525D01*
X-7856508Y-125859525D02*
X-7980318Y-125983334D01*
X-7980318Y-125983334D02*
X-8104127Y-126045239D01*
D10*
D11*
X41895873Y-125797620D02*
X41957777Y-125735715D01*
X41957777Y-125735715D02*
X42081587Y-125673810D01*
X42081587Y-125673810D02*
X42391111Y-125673810D01*
X42391111Y-125673810D02*
X42514920Y-125735715D01*
X42514920Y-125735715D02*
X42576825Y-125797620D01*
X42576825Y-125797620D02*
X42638730Y-125921429D01*
X42638730Y-125921429D02*
X42638730Y-126045239D01*
X42638730Y-126045239D02*
X42576825Y-126230953D01*
X42576825Y-126230953D02*
X41833968Y-126973810D01*
X41833968Y-126973810D02*
X42638730Y-126973810D01*
D10*
D11*
X91833968Y-125673810D02*
X92638730Y-125673810D01*
X92638730Y-125673810D02*
X92205396Y-126169048D01*
X92205396Y-126169048D02*
X92391111Y-126169048D01*
X92391111Y-126169048D02*
X92514920Y-126230953D01*
X92514920Y-126230953D02*
X92576825Y-126292858D01*
X92576825Y-126292858D02*
X92638730Y-126416667D01*
X92638730Y-126416667D02*
X92638730Y-126726191D01*
X92638730Y-126726191D02*
X92576825Y-126850001D01*
X92576825Y-126850001D02*
X92514920Y-126911906D01*
X92514920Y-126911906D02*
X92391111Y-126973810D01*
X92391111Y-126973810D02*
X92019682Y-126973810D01*
X92019682Y-126973810D02*
X91895873Y-126911906D01*
X91895873Y-126911906D02*
X91833968Y-126850001D01*
D10*
D11*
X142514920Y-126107144D02*
X142514920Y-126973810D01*
X142205396Y-125611906D02*
X141895873Y-126540477D01*
X141895873Y-126540477D02*
X142700634Y-126540477D01*
D10*
D11*
X192576825Y-125673810D02*
X191957777Y-125673810D01*
X191957777Y-125673810D02*
X191895873Y-126292858D01*
X191895873Y-126292858D02*
X191957777Y-126230953D01*
X191957777Y-126230953D02*
X192081587Y-126169048D01*
X192081587Y-126169048D02*
X192391111Y-126169048D01*
X192391111Y-126169048D02*
X192514920Y-126230953D01*
X192514920Y-126230953D02*
X192576825Y-126292858D01*
X192576825Y-126292858D02*
X192638730Y-126416667D01*
X192638730Y-126416667D02*
X192638730Y-126726191D01*
X192638730Y-126726191D02*
X192576825Y-126850001D01*
X192576825Y-126850001D02*
X192514920Y-126911906D01*
X192514920Y-126911906D02*
X192391111Y-126973810D01*
X192391111Y-126973810D02*
X192081587Y-126973810D01*
X192081587Y-126973810D02*
X191957777Y-126911906D01*
X191957777Y-126911906D02*
X191895873Y-126850001D01*
D10*
D11*
X242514920Y-125673810D02*
X242267301Y-125673810D01*
X242267301Y-125673810D02*
X242143492Y-125735715D01*
X242143492Y-125735715D02*
X242081587Y-125797620D01*
X242081587Y-125797620D02*
X241957777Y-125983334D01*
X241957777Y-125983334D02*
X241895873Y-126230953D01*
X241895873Y-126230953D02*
X241895873Y-126726191D01*
X241895873Y-126726191D02*
X241957777Y-126850001D01*
X241957777Y-126850001D02*
X242019682Y-126911906D01*
X242019682Y-126911906D02*
X242143492Y-126973810D01*
X242143492Y-126973810D02*
X242391111Y-126973810D01*
X242391111Y-126973810D02*
X242514920Y-126911906D01*
X242514920Y-126911906D02*
X242576825Y-126850001D01*
X242576825Y-126850001D02*
X242638730Y-126726191D01*
X242638730Y-126726191D02*
X242638730Y-126416667D01*
X242638730Y-126416667D02*
X242576825Y-126292858D01*
X242576825Y-126292858D02*
X242514920Y-126230953D01*
X242514920Y-126230953D02*
X242391111Y-126169048D01*
X242391111Y-126169048D02*
X242143492Y-126169048D01*
X242143492Y-126169048D02*
X242019682Y-126230953D01*
X242019682Y-126230953D02*
X241957777Y-126292858D01*
X241957777Y-126292858D02*
X241895873Y-126416667D01*
D10*
D11*
X291833968Y-125673810D02*
X292700634Y-125673810D01*
X292700634Y-125673810D02*
X292143492Y-126973810D01*
D10*
D11*
X342143492Y-126230953D02*
X342019682Y-126169048D01*
X342019682Y-126169048D02*
X341957777Y-126107144D01*
X341957777Y-126107144D02*
X341895873Y-125983334D01*
X341895873Y-125983334D02*
X341895873Y-125921429D01*
X341895873Y-125921429D02*
X341957777Y-125797620D01*
X341957777Y-125797620D02*
X342019682Y-125735715D01*
X342019682Y-125735715D02*
X342143492Y-125673810D01*
X342143492Y-125673810D02*
X342391111Y-125673810D01*
X342391111Y-125673810D02*
X342514920Y-125735715D01*
X342514920Y-125735715D02*
X342576825Y-125797620D01*
X342576825Y-125797620D02*
X342638730Y-125921429D01*
X342638730Y-125921429D02*
X342638730Y-125983334D01*
X342638730Y-125983334D02*
X342576825Y-126107144D01*
X342576825Y-126107144D02*
X342514920Y-126169048D01*
X342514920Y-126169048D02*
X342391111Y-126230953D01*
X342391111Y-126230953D02*
X342143492Y-126230953D01*
X342143492Y-126230953D02*
X342019682Y-126292858D01*
X342019682Y-126292858D02*
X341957777Y-126354763D01*
X341957777Y-126354763D02*
X341895873Y-126478572D01*
X341895873Y-126478572D02*
X341895873Y-126726191D01*
X341895873Y-126726191D02*
X341957777Y-126850001D01*
X341957777Y-126850001D02*
X342019682Y-126911906D01*
X342019682Y-126911906D02*
X342143492Y-126973810D01*
X342143492Y-126973810D02*
X342391111Y-126973810D01*
X342391111Y-126973810D02*
X342514920Y-126911906D01*
X342514920Y-126911906D02*
X342576825Y-126850001D01*
X342576825Y-126850001D02*
X342638730Y-126726191D01*
X342638730Y-126726191D02*
X342638730Y-126478572D01*
X342638730Y-126478572D02*
X342576825Y-126354763D01*
X342576825Y-126354763D02*
X342514920Y-126292858D01*
X342514920Y-126292858D02*
X342391111Y-126230953D01*
D10*
D11*
X-33450430Y82019794D02*
X-31450430Y82019794D01*
D10*
D11*
X-33450430Y32019794D02*
X-31450430Y32019794D01*
D10*
D11*
X-33450430Y-17980206D02*
X-31450430Y-17980206D01*
D10*
D11*
X-33450430Y-67980206D02*
X-31450430Y-67980206D01*
D10*
D11*
X-33450430Y-117980206D02*
X-31450430Y-117980206D01*
D10*
D11*
X-32759954Y106797618D02*
X-32140907Y106797618D01*
X-32883764Y106426190D02*
X-32450431Y107726190D01*
X-32450431Y107726190D02*
X-32017097Y106426190D01*
D10*
D11*
X-32357573Y57107142D02*
X-32171859Y57045237D01*
X-32171859Y57045237D02*
X-32109954Y56983333D01*
X-32109954Y56983333D02*
X-32048050Y56859523D01*
X-32048050Y56859523D02*
X-32048050Y56673809D01*
X-32048050Y56673809D02*
X-32109954Y56549999D01*
X-32109954Y56549999D02*
X-32171859Y56488094D01*
X-32171859Y56488094D02*
X-32295669Y56426190D01*
X-32295669Y56426190D02*
X-32790907Y56426190D01*
X-32790907Y56426190D02*
X-32790907Y57726190D01*
X-32790907Y57726190D02*
X-32357573Y57726190D01*
X-32357573Y57726190D02*
X-32233764Y57664285D01*
X-32233764Y57664285D02*
X-32171859Y57602380D01*
X-32171859Y57602380D02*
X-32109954Y57478571D01*
X-32109954Y57478571D02*
X-32109954Y57354761D01*
X-32109954Y57354761D02*
X-32171859Y57230952D01*
X-32171859Y57230952D02*
X-32233764Y57169047D01*
X-32233764Y57169047D02*
X-32357573Y57107142D01*
X-32357573Y57107142D02*
X-32790907Y57107142D01*
D10*
D11*
X-32048050Y6549999D02*
X-32109954Y6488094D01*
X-32109954Y6488094D02*
X-32295669Y6426190D01*
X-32295669Y6426190D02*
X-32419478Y6426190D01*
X-32419478Y6426190D02*
X-32605192Y6488094D01*
X-32605192Y6488094D02*
X-32729002Y6611904D01*
X-32729002Y6611904D02*
X-32790907Y6735714D01*
X-32790907Y6735714D02*
X-32852811Y6983333D01*
X-32852811Y6983333D02*
X-32852811Y7169047D01*
X-32852811Y7169047D02*
X-32790907Y7416666D01*
X-32790907Y7416666D02*
X-32729002Y7540475D01*
X-32729002Y7540475D02*
X-32605192Y7664285D01*
X-32605192Y7664285D02*
X-32419478Y7726190D01*
X-32419478Y7726190D02*
X-32295669Y7726190D01*
X-32295669Y7726190D02*
X-32109954Y7664285D01*
X-32109954Y7664285D02*
X-32048050Y7602380D01*
D10*
D11*
X-32790907Y-43573810D02*
X-32790907Y-42273810D01*
X-32790907Y-42273810D02*
X-32481383Y-42273810D01*
X-32481383Y-42273810D02*
X-32295669Y-42335715D01*
X-32295669Y-42335715D02*
X-32171859Y-42459525D01*
X-32171859Y-42459525D02*
X-32109954Y-42583334D01*
X-32109954Y-42583334D02*
X-32048050Y-42830953D01*
X-32048050Y-42830953D02*
X-32048050Y-43016667D01*
X-32048050Y-43016667D02*
X-32109954Y-43264286D01*
X-32109954Y-43264286D02*
X-32171859Y-43388096D01*
X-32171859Y-43388096D02*
X-32295669Y-43511906D01*
X-32295669Y-43511906D02*
X-32481383Y-43573810D01*
X-32481383Y-43573810D02*
X-32790907Y-43573810D01*
D10*
D11*
X-32729002Y-92892858D02*
X-32295668Y-92892858D01*
X-32109954Y-93573810D02*
X-32729002Y-93573810D01*
X-32729002Y-93573810D02*
X-32729002Y-92273810D01*
X-32729002Y-92273810D02*
X-32109954Y-92273810D01*
D10*
D11*
X378349570Y82019794D02*
X376349570Y82019794D01*
D10*
D11*
X378349570Y32019794D02*
X376349570Y32019794D01*
D10*
D11*
X378349570Y-17980206D02*
X376349570Y-17980206D01*
D10*
D11*
X378349570Y-67980206D02*
X376349570Y-67980206D01*
D10*
D11*
X378349570Y-117980206D02*
X376349570Y-117980206D01*
D10*
D11*
X377040046Y106797618D02*
X377659093Y106797618D01*
X376916236Y106426190D02*
X377349569Y107726190D01*
X377349569Y107726190D02*
X377782903Y106426190D01*
D10*
D11*
X377442427Y57107142D02*
X377628141Y57045237D01*
X377628141Y57045237D02*
X377690046Y56983333D01*
X377690046Y56983333D02*
X377751950Y56859523D01*
X377751950Y56859523D02*
X377751950Y56673809D01*
X377751950Y56673809D02*
X377690046Y56549999D01*
X377690046Y56549999D02*
X377628141Y56488094D01*
X377628141Y56488094D02*
X377504331Y56426190D01*
X377504331Y56426190D02*
X377009093Y56426190D01*
X377009093Y56426190D02*
X377009093Y57726190D01*
X377009093Y57726190D02*
X377442427Y57726190D01*
X377442427Y57726190D02*
X377566236Y57664285D01*
X377566236Y57664285D02*
X377628141Y57602380D01*
X377628141Y57602380D02*
X377690046Y57478571D01*
X377690046Y57478571D02*
X377690046Y57354761D01*
X377690046Y57354761D02*
X377628141Y57230952D01*
X377628141Y57230952D02*
X377566236Y57169047D01*
X377566236Y57169047D02*
X377442427Y57107142D01*
X377442427Y57107142D02*
X377009093Y57107142D01*
D10*
D11*
X377751950Y6549999D02*
X377690046Y6488094D01*
X377690046Y6488094D02*
X377504331Y6426190D01*
X377504331Y6426190D02*
X377380522Y6426190D01*
X377380522Y6426190D02*
X377194808Y6488094D01*
X377194808Y6488094D02*
X377070998Y6611904D01*
X377070998Y6611904D02*
X377009093Y6735714D01*
X377009093Y6735714D02*
X376947189Y6983333D01*
X376947189Y6983333D02*
X376947189Y7169047D01*
X376947189Y7169047D02*
X377009093Y7416666D01*
X377009093Y7416666D02*
X377070998Y7540475D01*
X377070998Y7540475D02*
X377194808Y7664285D01*
X377194808Y7664285D02*
X377380522Y7726190D01*
X377380522Y7726190D02*
X377504331Y7726190D01*
X377504331Y7726190D02*
X377690046Y7664285D01*
X377690046Y7664285D02*
X377751950Y7602380D01*
D10*
D11*
X377009093Y-43573810D02*
X377009093Y-42273810D01*
X377009093Y-42273810D02*
X377318617Y-42273810D01*
X377318617Y-42273810D02*
X377504331Y-42335715D01*
X377504331Y-42335715D02*
X377628141Y-42459525D01*
X377628141Y-42459525D02*
X377690046Y-42583334D01*
X377690046Y-42583334D02*
X377751950Y-42830953D01*
X377751950Y-42830953D02*
X377751950Y-43016667D01*
X377751950Y-43016667D02*
X377690046Y-43264286D01*
X377690046Y-43264286D02*
X377628141Y-43388096D01*
X377628141Y-43388096D02*
X377504331Y-43511906D01*
X377504331Y-43511906D02*
X377318617Y-43573810D01*
X377318617Y-43573810D02*
X377009093Y-43573810D01*
D10*
D11*
X377070998Y-92892858D02*
X377504332Y-92892858D01*
X377690046Y-93573810D02*
X377070998Y-93573810D01*
X377070998Y-93573810D02*
X377070998Y-92273810D01*
X377070998Y-92273810D02*
X377690046Y-92273810D01*
D10*
D11*
X291805396Y-121166334D02*
X291805396Y-119666334D01*
X291805396Y-119666334D02*
X292162539Y-119666334D01*
X292162539Y-119666334D02*
X292376825Y-119737763D01*
X292376825Y-119737763D02*
X292519682Y-119880620D01*
X292519682Y-119880620D02*
X292591111Y-120023477D01*
X292591111Y-120023477D02*
X292662539Y-120309191D01*
X292662539Y-120309191D02*
X292662539Y-120523477D01*
X292662539Y-120523477D02*
X292591111Y-120809191D01*
X292591111Y-120809191D02*
X292519682Y-120952048D01*
X292519682Y-120952048D02*
X292376825Y-121094906D01*
X292376825Y-121094906D02*
X292162539Y-121166334D01*
X292162539Y-121166334D02*
X291805396Y-121166334D01*
X293948254Y-121166334D02*
X293948254Y-120380620D01*
X293948254Y-120380620D02*
X293876825Y-120237763D01*
X293876825Y-120237763D02*
X293733968Y-120166334D01*
X293733968Y-120166334D02*
X293448254Y-120166334D01*
X293448254Y-120166334D02*
X293305396Y-120237763D01*
X293948254Y-121094906D02*
X293805396Y-121166334D01*
X293805396Y-121166334D02*
X293448254Y-121166334D01*
X293448254Y-121166334D02*
X293305396Y-121094906D01*
X293305396Y-121094906D02*
X293233968Y-120952048D01*
X293233968Y-120952048D02*
X293233968Y-120809191D01*
X293233968Y-120809191D02*
X293305396Y-120666334D01*
X293305396Y-120666334D02*
X293448254Y-120594906D01*
X293448254Y-120594906D02*
X293805396Y-120594906D01*
X293805396Y-120594906D02*
X293948254Y-120523477D01*
X294448254Y-120166334D02*
X295019682Y-120166334D01*
X294662539Y-119666334D02*
X294662539Y-120952048D01*
X294662539Y-120952048D02*
X294733968Y-121094906D01*
X294733968Y-121094906D02*
X294876825Y-121166334D01*
X294876825Y-121166334D02*
X295019682Y-121166334D01*
X296091111Y-121094906D02*
X295948254Y-121166334D01*
X295948254Y-121166334D02*
X295662540Y-121166334D01*
X295662540Y-121166334D02*
X295519682Y-121094906D01*
X295519682Y-121094906D02*
X295448254Y-120952048D01*
X295448254Y-120952048D02*
X295448254Y-120380620D01*
X295448254Y-120380620D02*
X295519682Y-120237763D01*
X295519682Y-120237763D02*
X295662540Y-120166334D01*
X295662540Y-120166334D02*
X295948254Y-120166334D01*
X295948254Y-120166334D02*
X296091111Y-120237763D01*
X296091111Y-120237763D02*
X296162540Y-120380620D01*
X296162540Y-120380620D02*
X296162540Y-120523477D01*
X296162540Y-120523477D02*
X295448254Y-120666334D01*
X296805396Y-121023477D02*
X296876825Y-121094906D01*
X296876825Y-121094906D02*
X296805396Y-121166334D01*
X296805396Y-121166334D02*
X296733968Y-121094906D01*
X296733968Y-121094906D02*
X296805396Y-121023477D01*
X296805396Y-121023477D02*
X296805396Y-121166334D01*
X296805396Y-120237763D02*
X296876825Y-120309191D01*
X296876825Y-120309191D02*
X296805396Y-120380620D01*
X296805396Y-120380620D02*
X296733968Y-120309191D01*
X296733968Y-120309191D02*
X296805396Y-120237763D01*
X296805396Y-120237763D02*
X296805396Y-120380620D01*
X298591111Y-119809191D02*
X298662539Y-119737763D01*
X298662539Y-119737763D02*
X298805397Y-119666334D01*
X298805397Y-119666334D02*
X299162539Y-119666334D01*
X299162539Y-119666334D02*
X299305397Y-119737763D01*
X299305397Y-119737763D02*
X299376825Y-119809191D01*
X299376825Y-119809191D02*
X299448254Y-119952048D01*
X299448254Y-119952048D02*
X299448254Y-120094906D01*
X299448254Y-120094906D02*
X299376825Y-120309191D01*
X299376825Y-120309191D02*
X298519682Y-121166334D01*
X298519682Y-121166334D02*
X299448254Y-121166334D01*
X300376825Y-119666334D02*
X300519682Y-119666334D01*
X300519682Y-119666334D02*
X300662539Y-119737763D01*
X300662539Y-119737763D02*
X300733968Y-119809191D01*
X300733968Y-119809191D02*
X300805396Y-119952048D01*
X300805396Y-119952048D02*
X300876825Y-120237763D01*
X300876825Y-120237763D02*
X300876825Y-120594906D01*
X300876825Y-120594906D02*
X300805396Y-120880620D01*
X300805396Y-120880620D02*
X300733968Y-121023477D01*
X300733968Y-121023477D02*
X300662539Y-121094906D01*
X300662539Y-121094906D02*
X300519682Y-121166334D01*
X300519682Y-121166334D02*
X300376825Y-121166334D01*
X300376825Y-121166334D02*
X300233968Y-121094906D01*
X300233968Y-121094906D02*
X300162539Y-121023477D01*
X300162539Y-121023477D02*
X300091110Y-120880620D01*
X300091110Y-120880620D02*
X300019682Y-120594906D01*
X300019682Y-120594906D02*
X300019682Y-120237763D01*
X300019682Y-120237763D02*
X300091110Y-119952048D01*
X300091110Y-119952048D02*
X300162539Y-119809191D01*
X300162539Y-119809191D02*
X300233968Y-119737763D01*
X300233968Y-119737763D02*
X300376825Y-119666334D01*
X301448253Y-119809191D02*
X301519681Y-119737763D01*
X301519681Y-119737763D02*
X301662539Y-119666334D01*
X301662539Y-119666334D02*
X302019681Y-119666334D01*
X302019681Y-119666334D02*
X302162539Y-119737763D01*
X302162539Y-119737763D02*
X302233967Y-119809191D01*
X302233967Y-119809191D02*
X302305396Y-119952048D01*
X302305396Y-119952048D02*
X302305396Y-120094906D01*
X302305396Y-120094906D02*
X302233967Y-120309191D01*
X302233967Y-120309191D02*
X301376824Y-121166334D01*
X301376824Y-121166334D02*
X302305396Y-121166334D01*
X303591110Y-120166334D02*
X303591110Y-121166334D01*
X303233967Y-119594906D02*
X302876824Y-120666334D01*
X302876824Y-120666334D02*
X303805395Y-120666334D01*
X304376823Y-120594906D02*
X305519681Y-120594906D01*
X306519681Y-119666334D02*
X306662538Y-119666334D01*
X306662538Y-119666334D02*
X306805395Y-119737763D01*
X306805395Y-119737763D02*
X306876824Y-119809191D01*
X306876824Y-119809191D02*
X306948252Y-119952048D01*
X306948252Y-119952048D02*
X307019681Y-120237763D01*
X307019681Y-120237763D02*
X307019681Y-120594906D01*
X307019681Y-120594906D02*
X306948252Y-120880620D01*
X306948252Y-120880620D02*
X306876824Y-121023477D01*
X306876824Y-121023477D02*
X306805395Y-121094906D01*
X306805395Y-121094906D02*
X306662538Y-121166334D01*
X306662538Y-121166334D02*
X306519681Y-121166334D01*
X306519681Y-121166334D02*
X306376824Y-121094906D01*
X306376824Y-121094906D02*
X306305395Y-121023477D01*
X306305395Y-121023477D02*
X306233966Y-120880620D01*
X306233966Y-120880620D02*
X306162538Y-120594906D01*
X306162538Y-120594906D02*
X306162538Y-120237763D01*
X306162538Y-120237763D02*
X306233966Y-119952048D01*
X306233966Y-119952048D02*
X306305395Y-119809191D01*
X306305395Y-119809191D02*
X306376824Y-119737763D01*
X306376824Y-119737763D02*
X306519681Y-119666334D01*
X307519680Y-119666334D02*
X308519680Y-119666334D01*
X308519680Y-119666334D02*
X307876823Y-121166334D01*
X309091108Y-120594906D02*
X310233966Y-120594906D01*
X310876823Y-119809191D02*
X310948251Y-119737763D01*
X310948251Y-119737763D02*
X311091109Y-119666334D01*
X311091109Y-119666334D02*
X311448251Y-119666334D01*
X311448251Y-119666334D02*
X311591109Y-119737763D01*
X311591109Y-119737763D02*
X311662537Y-119809191D01*
X311662537Y-119809191D02*
X311733966Y-119952048D01*
X311733966Y-119952048D02*
X311733966Y-120094906D01*
X311733966Y-120094906D02*
X311662537Y-120309191D01*
X311662537Y-120309191D02*
X310805394Y-121166334D01*
X310805394Y-121166334D02*
X311733966Y-121166334D01*
X313091108Y-119666334D02*
X312376822Y-119666334D01*
X312376822Y-119666334D02*
X312305394Y-120380620D01*
X312305394Y-120380620D02*
X312376822Y-120309191D01*
X312376822Y-120309191D02*
X312519680Y-120237763D01*
X312519680Y-120237763D02*
X312876822Y-120237763D01*
X312876822Y-120237763D02*
X313019680Y-120309191D01*
X313019680Y-120309191D02*
X313091108Y-120380620D01*
X313091108Y-120380620D02*
X313162537Y-120523477D01*
X313162537Y-120523477D02*
X313162537Y-120880620D01*
X313162537Y-120880620D02*
X313091108Y-121023477D01*
X313091108Y-121023477D02*
X313019680Y-121094906D01*
X313019680Y-121094906D02*
X312876822Y-121166334D01*
X312876822Y-121166334D02*
X312519680Y-121166334D01*
X312519680Y-121166334D02*
X312376822Y-121094906D01*
X312376822Y-121094906D02*
X312305394Y-121023477D01*
D10*
D11*
X268349570Y-121880206D02*
X376349570Y-121880206D01*
D10*
D11*
X269805396Y-123966334D02*
X269805396Y-122466334D01*
X270662539Y-123966334D02*
X270019682Y-123109191D01*
X270662539Y-122466334D02*
X269805396Y-123323477D01*
X271305396Y-123966334D02*
X271305396Y-122966334D01*
X271305396Y-122466334D02*
X271233968Y-122537763D01*
X271233968Y-122537763D02*
X271305396Y-122609191D01*
X271305396Y-122609191D02*
X271376825Y-122537763D01*
X271376825Y-122537763D02*
X271305396Y-122466334D01*
X271305396Y-122466334D02*
X271305396Y-122609191D01*
X272876825Y-123823477D02*
X272805397Y-123894906D01*
X272805397Y-123894906D02*
X272591111Y-123966334D01*
X272591111Y-123966334D02*
X272448254Y-123966334D01*
X272448254Y-123966334D02*
X272233968Y-123894906D01*
X272233968Y-123894906D02*
X272091111Y-123752048D01*
X272091111Y-123752048D02*
X272019682Y-123609191D01*
X272019682Y-123609191D02*
X271948254Y-123323477D01*
X271948254Y-123323477D02*
X271948254Y-123109191D01*
X271948254Y-123109191D02*
X272019682Y-122823477D01*
X272019682Y-122823477D02*
X272091111Y-122680620D01*
X272091111Y-122680620D02*
X272233968Y-122537763D01*
X272233968Y-122537763D02*
X272448254Y-122466334D01*
X272448254Y-122466334D02*
X272591111Y-122466334D01*
X272591111Y-122466334D02*
X272805397Y-122537763D01*
X272805397Y-122537763D02*
X272876825Y-122609191D01*
X274162540Y-123966334D02*
X274162540Y-123180620D01*
X274162540Y-123180620D02*
X274091111Y-123037763D01*
X274091111Y-123037763D02*
X273948254Y-122966334D01*
X273948254Y-122966334D02*
X273662540Y-122966334D01*
X273662540Y-122966334D02*
X273519682Y-123037763D01*
X274162540Y-123894906D02*
X274019682Y-123966334D01*
X274019682Y-123966334D02*
X273662540Y-123966334D01*
X273662540Y-123966334D02*
X273519682Y-123894906D01*
X273519682Y-123894906D02*
X273448254Y-123752048D01*
X273448254Y-123752048D02*
X273448254Y-123609191D01*
X273448254Y-123609191D02*
X273519682Y-123466334D01*
X273519682Y-123466334D02*
X273662540Y-123394906D01*
X273662540Y-123394906D02*
X274019682Y-123394906D01*
X274019682Y-123394906D02*
X274162540Y-123323477D01*
X275519683Y-123966334D02*
X275519683Y-122466334D01*
X275519683Y-123894906D02*
X275376825Y-123966334D01*
X275376825Y-123966334D02*
X275091111Y-123966334D01*
X275091111Y-123966334D02*
X274948254Y-123894906D01*
X274948254Y-123894906D02*
X274876825Y-123823477D01*
X274876825Y-123823477D02*
X274805397Y-123680620D01*
X274805397Y-123680620D02*
X274805397Y-123252048D01*
X274805397Y-123252048D02*
X274876825Y-123109191D01*
X274876825Y-123109191D02*
X274948254Y-123037763D01*
X274948254Y-123037763D02*
X275091111Y-122966334D01*
X275091111Y-122966334D02*
X275376825Y-122966334D01*
X275376825Y-122966334D02*
X275519683Y-123037763D01*
X277376825Y-123180620D02*
X277876825Y-123180620D01*
X278091111Y-123966334D02*
X277376825Y-123966334D01*
X277376825Y-123966334D02*
X277376825Y-122466334D01*
X277376825Y-122466334D02*
X278091111Y-122466334D01*
X278733968Y-123823477D02*
X278805397Y-123894906D01*
X278805397Y-123894906D02*
X278733968Y-123966334D01*
X278733968Y-123966334D02*
X278662540Y-123894906D01*
X278662540Y-123894906D02*
X278733968Y-123823477D01*
X278733968Y-123823477D02*
X278733968Y-123966334D01*
X279448254Y-123966334D02*
X279448254Y-122466334D01*
X279448254Y-122466334D02*
X279805397Y-122466334D01*
X279805397Y-122466334D02*
X280019683Y-122537763D01*
X280019683Y-122537763D02*
X280162540Y-122680620D01*
X280162540Y-122680620D02*
X280233969Y-122823477D01*
X280233969Y-122823477D02*
X280305397Y-123109191D01*
X280305397Y-123109191D02*
X280305397Y-123323477D01*
X280305397Y-123323477D02*
X280233969Y-123609191D01*
X280233969Y-123609191D02*
X280162540Y-123752048D01*
X280162540Y-123752048D02*
X280019683Y-123894906D01*
X280019683Y-123894906D02*
X279805397Y-123966334D01*
X279805397Y-123966334D02*
X279448254Y-123966334D01*
X280948254Y-123823477D02*
X281019683Y-123894906D01*
X281019683Y-123894906D02*
X280948254Y-123966334D01*
X280948254Y-123966334D02*
X280876826Y-123894906D01*
X280876826Y-123894906D02*
X280948254Y-123823477D01*
X280948254Y-123823477D02*
X280948254Y-123966334D01*
X281591112Y-123537763D02*
X282305398Y-123537763D01*
X281448255Y-123966334D02*
X281948255Y-122466334D01*
X281948255Y-122466334D02*
X282448255Y-123966334D01*
X282948254Y-123823477D02*
X283019683Y-123894906D01*
X283019683Y-123894906D02*
X282948254Y-123966334D01*
X282948254Y-123966334D02*
X282876826Y-123894906D01*
X282876826Y-123894906D02*
X282948254Y-123823477D01*
X282948254Y-123823477D02*
X282948254Y-123966334D01*
X285019683Y-123109191D02*
X284876826Y-123037763D01*
X284876826Y-123037763D02*
X284805397Y-122966334D01*
X284805397Y-122966334D02*
X284733969Y-122823477D01*
X284733969Y-122823477D02*
X284733969Y-122752048D01*
X284733969Y-122752048D02*
X284805397Y-122609191D01*
X284805397Y-122609191D02*
X284876826Y-122537763D01*
X284876826Y-122537763D02*
X285019683Y-122466334D01*
X285019683Y-122466334D02*
X285305397Y-122466334D01*
X285305397Y-122466334D02*
X285448255Y-122537763D01*
X285448255Y-122537763D02*
X285519683Y-122609191D01*
X285519683Y-122609191D02*
X285591112Y-122752048D01*
X285591112Y-122752048D02*
X285591112Y-122823477D01*
X285591112Y-122823477D02*
X285519683Y-122966334D01*
X285519683Y-122966334D02*
X285448255Y-123037763D01*
X285448255Y-123037763D02*
X285305397Y-123109191D01*
X285305397Y-123109191D02*
X285019683Y-123109191D01*
X285019683Y-123109191D02*
X284876826Y-123180620D01*
X284876826Y-123180620D02*
X284805397Y-123252048D01*
X284805397Y-123252048D02*
X284733969Y-123394906D01*
X284733969Y-123394906D02*
X284733969Y-123680620D01*
X284733969Y-123680620D02*
X284805397Y-123823477D01*
X284805397Y-123823477D02*
X284876826Y-123894906D01*
X284876826Y-123894906D02*
X285019683Y-123966334D01*
X285019683Y-123966334D02*
X285305397Y-123966334D01*
X285305397Y-123966334D02*
X285448255Y-123894906D01*
X285448255Y-123894906D02*
X285519683Y-123823477D01*
X285519683Y-123823477D02*
X285591112Y-123680620D01*
X285591112Y-123680620D02*
X285591112Y-123394906D01*
X285591112Y-123394906D02*
X285519683Y-123252048D01*
X285519683Y-123252048D02*
X285448255Y-123180620D01*
X285448255Y-123180620D02*
X285305397Y-123109191D01*
X286233968Y-123823477D02*
X286305397Y-123894906D01*
X286305397Y-123894906D02*
X286233968Y-123966334D01*
X286233968Y-123966334D02*
X286162540Y-123894906D01*
X286162540Y-123894906D02*
X286233968Y-123823477D01*
X286233968Y-123823477D02*
X286233968Y-123966334D01*
X287233969Y-122466334D02*
X287376826Y-122466334D01*
X287376826Y-122466334D02*
X287519683Y-122537763D01*
X287519683Y-122537763D02*
X287591112Y-122609191D01*
X287591112Y-122609191D02*
X287662540Y-122752048D01*
X287662540Y-122752048D02*
X287733969Y-123037763D01*
X287733969Y-123037763D02*
X287733969Y-123394906D01*
X287733969Y-123394906D02*
X287662540Y-123680620D01*
X287662540Y-123680620D02*
X287591112Y-123823477D01*
X287591112Y-123823477D02*
X287519683Y-123894906D01*
X287519683Y-123894906D02*
X287376826Y-123966334D01*
X287376826Y-123966334D02*
X287233969Y-123966334D01*
X287233969Y-123966334D02*
X287091112Y-123894906D01*
X287091112Y-123894906D02*
X287019683Y-123823477D01*
X287019683Y-123823477D02*
X286948254Y-123680620D01*
X286948254Y-123680620D02*
X286876826Y-123394906D01*
X286876826Y-123394906D02*
X286876826Y-123037763D01*
X286876826Y-123037763D02*
X286948254Y-122752048D01*
X286948254Y-122752048D02*
X287019683Y-122609191D01*
X287019683Y-122609191D02*
X287091112Y-122537763D01*
X287091112Y-122537763D02*
X287233969Y-122466334D01*
X288376825Y-123823477D02*
X288448254Y-123894906D01*
X288448254Y-123894906D02*
X288376825Y-123966334D01*
X288376825Y-123966334D02*
X288305397Y-123894906D01*
X288305397Y-123894906D02*
X288376825Y-123823477D01*
X288376825Y-123823477D02*
X288376825Y-123966334D01*
X289019683Y-122609191D02*
X289091111Y-122537763D01*
X289091111Y-122537763D02*
X289233969Y-122466334D01*
X289233969Y-122466334D02*
X289591111Y-122466334D01*
X289591111Y-122466334D02*
X289733969Y-122537763D01*
X289733969Y-122537763D02*
X289805397Y-122609191D01*
X289805397Y-122609191D02*
X289876826Y-122752048D01*
X289876826Y-122752048D02*
X289876826Y-122894906D01*
X289876826Y-122894906D02*
X289805397Y-123109191D01*
X289805397Y-123109191D02*
X288948254Y-123966334D01*
X288948254Y-123966334D02*
X289876826Y-123966334D01*
D10*
D11*
X268349570Y-118880206D02*
X376349570Y-118880206D01*
D10*
D12*
X355761223Y-121158534D02*
X355261223Y-120444248D01*
X354904080Y-121158534D02*
X354904080Y-119658534D01*
X354904080Y-119658534D02*
X355475509Y-119658534D01*
X355475509Y-119658534D02*
X355618366Y-119729963D01*
X355618366Y-119729963D02*
X355689795Y-119801391D01*
X355689795Y-119801391D02*
X355761223Y-119944248D01*
X355761223Y-119944248D02*
X355761223Y-120158534D01*
X355761223Y-120158534D02*
X355689795Y-120301391D01*
X355689795Y-120301391D02*
X355618366Y-120372820D01*
X355618366Y-120372820D02*
X355475509Y-120444248D01*
X355475509Y-120444248D02*
X354904080Y-120444248D01*
X356975509Y-121087106D02*
X356832652Y-121158534D01*
X356832652Y-121158534D02*
X356546938Y-121158534D01*
X356546938Y-121158534D02*
X356404080Y-121087106D01*
X356404080Y-121087106D02*
X356332652Y-120944248D01*
X356332652Y-120944248D02*
X356332652Y-120372820D01*
X356332652Y-120372820D02*
X356404080Y-120229963D01*
X356404080Y-120229963D02*
X356546938Y-120158534D01*
X356546938Y-120158534D02*
X356832652Y-120158534D01*
X356832652Y-120158534D02*
X356975509Y-120229963D01*
X356975509Y-120229963D02*
X357046938Y-120372820D01*
X357046938Y-120372820D02*
X357046938Y-120515677D01*
X357046938Y-120515677D02*
X356332652Y-120658534D01*
X357546937Y-120158534D02*
X357904080Y-121158534D01*
X357904080Y-121158534D02*
X358261223Y-120158534D01*
X358832651Y-121015677D02*
X358904080Y-121087106D01*
X358904080Y-121087106D02*
X358832651Y-121158534D01*
X358832651Y-121158534D02*
X358761223Y-121087106D01*
X358761223Y-121087106D02*
X358832651Y-121015677D01*
X358832651Y-121015677D02*
X358832651Y-121158534D01*
X358832651Y-120229963D02*
X358904080Y-120301391D01*
X358904080Y-120301391D02*
X358832651Y-120372820D01*
X358832651Y-120372820D02*
X358761223Y-120301391D01*
X358761223Y-120301391D02*
X358832651Y-120229963D01*
X358832651Y-120229963D02*
X358832651Y-120372820D01*
X361475509Y-121158534D02*
X360618366Y-121158534D01*
X361046937Y-121158534D02*
X361046937Y-119658534D01*
X361046937Y-119658534D02*
X360904080Y-119872820D01*
X360904080Y-119872820D02*
X360761223Y-120015677D01*
X360761223Y-120015677D02*
X360618366Y-120087106D01*
D10*
D11*
X269733968Y-121094906D02*
X269948254Y-121166334D01*
X269948254Y-121166334D02*
X270305396Y-121166334D01*
X270305396Y-121166334D02*
X270448254Y-121094906D01*
X270448254Y-121094906D02*
X270519682Y-121023477D01*
X270519682Y-121023477D02*
X270591111Y-120880620D01*
X270591111Y-120880620D02*
X270591111Y-120737763D01*
X270591111Y-120737763D02*
X270519682Y-120594906D01*
X270519682Y-120594906D02*
X270448254Y-120523477D01*
X270448254Y-120523477D02*
X270305396Y-120452048D01*
X270305396Y-120452048D02*
X270019682Y-120380620D01*
X270019682Y-120380620D02*
X269876825Y-120309191D01*
X269876825Y-120309191D02*
X269805396Y-120237763D01*
X269805396Y-120237763D02*
X269733968Y-120094906D01*
X269733968Y-120094906D02*
X269733968Y-119952048D01*
X269733968Y-119952048D02*
X269805396Y-119809191D01*
X269805396Y-119809191D02*
X269876825Y-119737763D01*
X269876825Y-119737763D02*
X270019682Y-119666334D01*
X270019682Y-119666334D02*
X270376825Y-119666334D01*
X270376825Y-119666334D02*
X270591111Y-119737763D01*
X271233967Y-121166334D02*
X271233967Y-120166334D01*
X271233967Y-119666334D02*
X271162539Y-119737763D01*
X271162539Y-119737763D02*
X271233967Y-119809191D01*
X271233967Y-119809191D02*
X271305396Y-119737763D01*
X271305396Y-119737763D02*
X271233967Y-119666334D01*
X271233967Y-119666334D02*
X271233967Y-119809191D01*
X271805396Y-120166334D02*
X272591111Y-120166334D01*
X272591111Y-120166334D02*
X271805396Y-121166334D01*
X271805396Y-121166334D02*
X272591111Y-121166334D01*
X273733968Y-121094906D02*
X273591111Y-121166334D01*
X273591111Y-121166334D02*
X273305397Y-121166334D01*
X273305397Y-121166334D02*
X273162539Y-121094906D01*
X273162539Y-121094906D02*
X273091111Y-120952048D01*
X273091111Y-120952048D02*
X273091111Y-120380620D01*
X273091111Y-120380620D02*
X273162539Y-120237763D01*
X273162539Y-120237763D02*
X273305397Y-120166334D01*
X273305397Y-120166334D02*
X273591111Y-120166334D01*
X273591111Y-120166334D02*
X273733968Y-120237763D01*
X273733968Y-120237763D02*
X273805397Y-120380620D01*
X273805397Y-120380620D02*
X273805397Y-120523477D01*
X273805397Y-120523477D02*
X273091111Y-120666334D01*
X274448253Y-121023477D02*
X274519682Y-121094906D01*
X274519682Y-121094906D02*
X274448253Y-121166334D01*
X274448253Y-121166334D02*
X274376825Y-121094906D01*
X274376825Y-121094906D02*
X274448253Y-121023477D01*
X274448253Y-121023477D02*
X274448253Y-121166334D01*
X274448253Y-120237763D02*
X274519682Y-120309191D01*
X274519682Y-120309191D02*
X274448253Y-120380620D01*
X274448253Y-120380620D02*
X274376825Y-120309191D01*
X274376825Y-120309191D02*
X274448253Y-120237763D01*
X274448253Y-120237763D02*
X274448253Y-120380620D01*
X276805396Y-120380620D02*
X277019682Y-120452048D01*
X277019682Y-120452048D02*
X277091111Y-120523477D01*
X277091111Y-120523477D02*
X277162539Y-120666334D01*
X277162539Y-120666334D02*
X277162539Y-120880620D01*
X277162539Y-120880620D02*
X277091111Y-121023477D01*
X277091111Y-121023477D02*
X277019682Y-121094906D01*
X277019682Y-121094906D02*
X276876825Y-121166334D01*
X276876825Y-121166334D02*
X276305396Y-121166334D01*
X276305396Y-121166334D02*
X276305396Y-119666334D01*
X276305396Y-119666334D02*
X276805396Y-119666334D01*
X276805396Y-119666334D02*
X276948254Y-119737763D01*
X276948254Y-119737763D02*
X277019682Y-119809191D01*
X277019682Y-119809191D02*
X277091111Y-119952048D01*
X277091111Y-119952048D02*
X277091111Y-120094906D01*
X277091111Y-120094906D02*
X277019682Y-120237763D01*
X277019682Y-120237763D02*
X276948254Y-120309191D01*
X276948254Y-120309191D02*
X276805396Y-120380620D01*
X276805396Y-120380620D02*
X276305396Y-120380620D01*
D10*
D11*
X354805396Y-123966334D02*
X354805396Y-122466334D01*
X356162540Y-123966334D02*
X356162540Y-122466334D01*
X356162540Y-123894906D02*
X356019682Y-123966334D01*
X356019682Y-123966334D02*
X355733968Y-123966334D01*
X355733968Y-123966334D02*
X355591111Y-123894906D01*
X355591111Y-123894906D02*
X355519682Y-123823477D01*
X355519682Y-123823477D02*
X355448254Y-123680620D01*
X355448254Y-123680620D02*
X355448254Y-123252048D01*
X355448254Y-123252048D02*
X355519682Y-123109191D01*
X355519682Y-123109191D02*
X355591111Y-123037763D01*
X355591111Y-123037763D02*
X355733968Y-122966334D01*
X355733968Y-122966334D02*
X356019682Y-122966334D01*
X356019682Y-122966334D02*
X356162540Y-123037763D01*
X356876825Y-123823477D02*
X356948254Y-123894906D01*
X356948254Y-123894906D02*
X356876825Y-123966334D01*
X356876825Y-123966334D02*
X356805397Y-123894906D01*
X356805397Y-123894906D02*
X356876825Y-123823477D01*
X356876825Y-123823477D02*
X356876825Y-123966334D01*
X356876825Y-123037763D02*
X356948254Y-123109191D01*
X356948254Y-123109191D02*
X356876825Y-123180620D01*
X356876825Y-123180620D02*
X356805397Y-123109191D01*
X356805397Y-123109191D02*
X356876825Y-123037763D01*
X356876825Y-123037763D02*
X356876825Y-123180620D01*
X359519683Y-123966334D02*
X358662540Y-123966334D01*
X359091111Y-123966334D02*
X359091111Y-122466334D01*
X359091111Y-122466334D02*
X358948254Y-122680620D01*
X358948254Y-122680620D02*
X358805397Y-122823477D01*
X358805397Y-122823477D02*
X358662540Y-122894906D01*
X361233968Y-122394906D02*
X359948254Y-124323477D01*
X362519683Y-123966334D02*
X361662540Y-123966334D01*
X362091111Y-123966334D02*
X362091111Y-122466334D01*
X362091111Y-122466334D02*
X361948254Y-122680620D01*
X361948254Y-122680620D02*
X361805397Y-122823477D01*
X361805397Y-122823477D02*
X361662540Y-122894906D01*
D10*
D11*
X268349570Y-114880206D02*
X376349570Y-114880206D01*
D10*
D13*
X270041298Y-115584644D02*
X271184155Y-115584644D01*
X270362727Y-117584644D02*
X270612727Y-115584644D01*
X271600822Y-117584644D02*
X271767489Y-116251310D01*
X271850822Y-115584644D02*
X271743679Y-115679882D01*
X271743679Y-115679882D02*
X271827013Y-115775120D01*
X271827013Y-115775120D02*
X271934156Y-115679882D01*
X271934156Y-115679882D02*
X271850822Y-115584644D01*
X271850822Y-115584644D02*
X271827013Y-115775120D01*
X272434156Y-116251310D02*
X273196060Y-116251310D01*
X272803203Y-115584644D02*
X272588918Y-117298929D01*
X272588918Y-117298929D02*
X272660346Y-117489406D01*
X272660346Y-117489406D02*
X272838918Y-117584644D01*
X272838918Y-117584644D02*
X273029394Y-117584644D01*
X273981775Y-117584644D02*
X273803203Y-117489406D01*
X273803203Y-117489406D02*
X273731775Y-117298929D01*
X273731775Y-117298929D02*
X273946060Y-115584644D01*
X275517489Y-117489406D02*
X275315108Y-117584644D01*
X275315108Y-117584644D02*
X274934155Y-117584644D01*
X274934155Y-117584644D02*
X274755584Y-117489406D01*
X274755584Y-117489406D02*
X274684155Y-117298929D01*
X274684155Y-117298929D02*
X274779394Y-116537025D01*
X274779394Y-116537025D02*
X274898441Y-116346548D01*
X274898441Y-116346548D02*
X275100822Y-116251310D01*
X275100822Y-116251310D02*
X275481774Y-116251310D01*
X275481774Y-116251310D02*
X275660346Y-116346548D01*
X275660346Y-116346548D02*
X275731774Y-116537025D01*
X275731774Y-116537025D02*
X275707965Y-116727501D01*
X275707965Y-116727501D02*
X274731774Y-116917977D01*
X276481775Y-117394167D02*
X276565108Y-117489406D01*
X276565108Y-117489406D02*
X276457965Y-117584644D01*
X276457965Y-117584644D02*
X276374632Y-117489406D01*
X276374632Y-117489406D02*
X276481775Y-117394167D01*
X276481775Y-117394167D02*
X276457965Y-117584644D01*
X276612727Y-116346548D02*
X276696060Y-116441786D01*
X276696060Y-116441786D02*
X276588918Y-116537025D01*
X276588918Y-116537025D02*
X276505584Y-116441786D01*
X276505584Y-116441786D02*
X276612727Y-116346548D01*
X276612727Y-116346548D02*
X276588918Y-116537025D01*
X278934156Y-117584644D02*
X279184156Y-115584644D01*
X279184156Y-115584644D02*
X279946061Y-115584644D01*
X279946061Y-115584644D02*
X280124632Y-115679882D01*
X280124632Y-115679882D02*
X280207966Y-115775120D01*
X280207966Y-115775120D02*
X280279394Y-115965596D01*
X280279394Y-115965596D02*
X280243680Y-116251310D01*
X280243680Y-116251310D02*
X280124632Y-116441786D01*
X280124632Y-116441786D02*
X280017490Y-116537025D01*
X280017490Y-116537025D02*
X279815109Y-116632263D01*
X279815109Y-116632263D02*
X279053204Y-116632263D01*
X280934156Y-117584644D02*
X281184156Y-115584644D01*
X281184156Y-115584644D02*
X281672251Y-117013215D01*
X281672251Y-117013215D02*
X282517490Y-115584644D01*
X282517490Y-115584644D02*
X282267490Y-117584644D01*
X284267489Y-117584644D02*
X283124632Y-117584644D01*
X283696061Y-117584644D02*
X283946061Y-115584644D01*
X283946061Y-115584644D02*
X283719870Y-115870358D01*
X283719870Y-115870358D02*
X283505585Y-116060834D01*
X283505585Y-116060834D02*
X283303204Y-116156072D01*
X286291299Y-117394167D02*
X286184156Y-117489406D01*
X286184156Y-117489406D02*
X285886537Y-117584644D01*
X285886537Y-117584644D02*
X285696061Y-117584644D01*
X285696061Y-117584644D02*
X285422251Y-117489406D01*
X285422251Y-117489406D02*
X285255585Y-117298929D01*
X285255585Y-117298929D02*
X285184156Y-117108453D01*
X285184156Y-117108453D02*
X285136537Y-116727501D01*
X285136537Y-116727501D02*
X285172251Y-116441786D01*
X285172251Y-116441786D02*
X285315108Y-116060834D01*
X285315108Y-116060834D02*
X285434156Y-115870358D01*
X285434156Y-115870358D02*
X285648442Y-115679882D01*
X285648442Y-115679882D02*
X285946061Y-115584644D01*
X285946061Y-115584644D02*
X286136537Y-115584644D01*
X286136537Y-115584644D02*
X286410347Y-115679882D01*
X286410347Y-115679882D02*
X286493680Y-115775120D01*
X288648442Y-117584644D02*
X288898442Y-115584644D01*
X288898442Y-115584644D02*
X289660347Y-115584644D01*
X289660347Y-115584644D02*
X289838918Y-115679882D01*
X289838918Y-115679882D02*
X289922252Y-115775120D01*
X289922252Y-115775120D02*
X289993680Y-115965596D01*
X289993680Y-115965596D02*
X289957966Y-116251310D01*
X289957966Y-116251310D02*
X289838918Y-116441786D01*
X289838918Y-116441786D02*
X289731776Y-116537025D01*
X289731776Y-116537025D02*
X289529395Y-116632263D01*
X289529395Y-116632263D02*
X288767490Y-116632263D01*
X291815109Y-117394167D02*
X291707966Y-117489406D01*
X291707966Y-117489406D02*
X291410347Y-117584644D01*
X291410347Y-117584644D02*
X291219871Y-117584644D01*
X291219871Y-117584644D02*
X290946061Y-117489406D01*
X290946061Y-117489406D02*
X290779395Y-117298929D01*
X290779395Y-117298929D02*
X290707966Y-117108453D01*
X290707966Y-117108453D02*
X290660347Y-116727501D01*
X290660347Y-116727501D02*
X290696061Y-116441786D01*
X290696061Y-116441786D02*
X290838918Y-116060834D01*
X290838918Y-116060834D02*
X290957966Y-115870358D01*
X290957966Y-115870358D02*
X291172252Y-115679882D01*
X291172252Y-115679882D02*
X291469871Y-115584644D01*
X291469871Y-115584644D02*
X291660347Y-115584644D01*
X291660347Y-115584644D02*
X291934157Y-115679882D01*
X291934157Y-115679882D02*
X292017490Y-115775120D01*
X293446061Y-116537025D02*
X293719871Y-116632263D01*
X293719871Y-116632263D02*
X293803204Y-116727501D01*
X293803204Y-116727501D02*
X293874633Y-116917977D01*
X293874633Y-116917977D02*
X293838918Y-117203691D01*
X293838918Y-117203691D02*
X293719871Y-117394167D01*
X293719871Y-117394167D02*
X293612728Y-117489406D01*
X293612728Y-117489406D02*
X293410347Y-117584644D01*
X293410347Y-117584644D02*
X292648442Y-117584644D01*
X292648442Y-117584644D02*
X292898442Y-115584644D01*
X292898442Y-115584644D02*
X293565109Y-115584644D01*
X293565109Y-115584644D02*
X293743680Y-115679882D01*
X293743680Y-115679882D02*
X293827014Y-115775120D01*
X293827014Y-115775120D02*
X293898442Y-115965596D01*
X293898442Y-115965596D02*
X293874633Y-116156072D01*
X293874633Y-116156072D02*
X293755585Y-116346548D01*
X293755585Y-116346548D02*
X293648442Y-116441786D01*
X293648442Y-116441786D02*
X293446061Y-116537025D01*
X293446061Y-116537025D02*
X292779395Y-116537025D01*
X296969871Y-116537025D02*
X296303205Y-116537025D01*
X296172252Y-117584644D02*
X296422252Y-115584644D01*
X296422252Y-115584644D02*
X297374633Y-115584644D01*
X298743681Y-117584644D02*
X298874633Y-116537025D01*
X298874633Y-116537025D02*
X298803205Y-116346548D01*
X298803205Y-116346548D02*
X298624633Y-116251310D01*
X298624633Y-116251310D02*
X298243681Y-116251310D01*
X298243681Y-116251310D02*
X298041300Y-116346548D01*
X298755586Y-117489406D02*
X298553205Y-117584644D01*
X298553205Y-117584644D02*
X298077014Y-117584644D01*
X298077014Y-117584644D02*
X297898443Y-117489406D01*
X297898443Y-117489406D02*
X297827014Y-117298929D01*
X297827014Y-117298929D02*
X297850824Y-117108453D01*
X297850824Y-117108453D02*
X297969872Y-116917977D01*
X297969872Y-116917977D02*
X298172253Y-116822739D01*
X298172253Y-116822739D02*
X298648443Y-116822739D01*
X298648443Y-116822739D02*
X298850824Y-116727501D01*
X299696062Y-117584644D02*
X299946062Y-115584644D01*
X299850824Y-116346548D02*
X300053205Y-116251310D01*
X300053205Y-116251310D02*
X300434157Y-116251310D01*
X300434157Y-116251310D02*
X300612729Y-116346548D01*
X300612729Y-116346548D02*
X300696062Y-116441786D01*
X300696062Y-116441786D02*
X300767491Y-116632263D01*
X300767491Y-116632263D02*
X300696062Y-117203691D01*
X300696062Y-117203691D02*
X300577015Y-117394167D01*
X300577015Y-117394167D02*
X300469872Y-117489406D01*
X300469872Y-117489406D02*
X300267491Y-117584644D01*
X300267491Y-117584644D02*
X299886538Y-117584644D01*
X299886538Y-117584644D02*
X299707967Y-117489406D01*
X301505586Y-117584644D02*
X301672253Y-116251310D01*
X301624634Y-116632263D02*
X301743681Y-116441786D01*
X301743681Y-116441786D02*
X301850824Y-116346548D01*
X301850824Y-116346548D02*
X302053205Y-116251310D01*
X302053205Y-116251310D02*
X302243681Y-116251310D01*
X302743681Y-117584644D02*
X302910348Y-116251310D01*
X302993681Y-115584644D02*
X302886538Y-115679882D01*
X302886538Y-115679882D02*
X302969872Y-115775120D01*
X302969872Y-115775120D02*
X303077015Y-115679882D01*
X303077015Y-115679882D02*
X302993681Y-115584644D01*
X302993681Y-115584644D02*
X302969872Y-115775120D01*
X304565110Y-117489406D02*
X304362729Y-117584644D01*
X304362729Y-117584644D02*
X303981777Y-117584644D01*
X303981777Y-117584644D02*
X303803205Y-117489406D01*
X303803205Y-117489406D02*
X303719872Y-117394167D01*
X303719872Y-117394167D02*
X303648443Y-117203691D01*
X303648443Y-117203691D02*
X303719872Y-116632263D01*
X303719872Y-116632263D02*
X303838919Y-116441786D01*
X303838919Y-116441786D02*
X303946062Y-116346548D01*
X303946062Y-116346548D02*
X304148443Y-116251310D01*
X304148443Y-116251310D02*
X304529396Y-116251310D01*
X304529396Y-116251310D02*
X304707967Y-116346548D01*
X306267491Y-117584644D02*
X306398443Y-116537025D01*
X306398443Y-116537025D02*
X306327015Y-116346548D01*
X306327015Y-116346548D02*
X306148443Y-116251310D01*
X306148443Y-116251310D02*
X305767491Y-116251310D01*
X305767491Y-116251310D02*
X305565110Y-116346548D01*
X306279396Y-117489406D02*
X306077015Y-117584644D01*
X306077015Y-117584644D02*
X305600824Y-117584644D01*
X305600824Y-117584644D02*
X305422253Y-117489406D01*
X305422253Y-117489406D02*
X305350824Y-117298929D01*
X305350824Y-117298929D02*
X305374634Y-117108453D01*
X305374634Y-117108453D02*
X305493682Y-116917977D01*
X305493682Y-116917977D02*
X305696063Y-116822739D01*
X305696063Y-116822739D02*
X306172253Y-116822739D01*
X306172253Y-116822739D02*
X306374634Y-116727501D01*
X307100825Y-116251310D02*
X307862729Y-116251310D01*
X307469872Y-115584644D02*
X307255587Y-117298929D01*
X307255587Y-117298929D02*
X307327015Y-117489406D01*
X307327015Y-117489406D02*
X307505587Y-117584644D01*
X307505587Y-117584644D02*
X307696063Y-117584644D01*
X308362729Y-117584644D02*
X308529396Y-116251310D01*
X308612729Y-115584644D02*
X308505586Y-115679882D01*
X308505586Y-115679882D02*
X308588920Y-115775120D01*
X308588920Y-115775120D02*
X308696063Y-115679882D01*
X308696063Y-115679882D02*
X308612729Y-115584644D01*
X308612729Y-115584644D02*
X308588920Y-115775120D01*
X309600825Y-117584644D02*
X309422253Y-117489406D01*
X309422253Y-117489406D02*
X309338920Y-117394167D01*
X309338920Y-117394167D02*
X309267491Y-117203691D01*
X309267491Y-117203691D02*
X309338920Y-116632263D01*
X309338920Y-116632263D02*
X309457967Y-116441786D01*
X309457967Y-116441786D02*
X309565110Y-116346548D01*
X309565110Y-116346548D02*
X309767491Y-116251310D01*
X309767491Y-116251310D02*
X310053205Y-116251310D01*
X310053205Y-116251310D02*
X310231777Y-116346548D01*
X310231777Y-116346548D02*
X310315110Y-116441786D01*
X310315110Y-116441786D02*
X310386539Y-116632263D01*
X310386539Y-116632263D02*
X310315110Y-117203691D01*
X310315110Y-117203691D02*
X310196063Y-117394167D01*
X310196063Y-117394167D02*
X310088920Y-117489406D01*
X310088920Y-117489406D02*
X309886539Y-117584644D01*
X309886539Y-117584644D02*
X309600825Y-117584644D01*
X311291301Y-116251310D02*
X311124634Y-117584644D01*
X311267491Y-116441786D02*
X311374634Y-116346548D01*
X311374634Y-116346548D02*
X311577015Y-116251310D01*
X311577015Y-116251310D02*
X311862729Y-116251310D01*
X311862729Y-116251310D02*
X312041301Y-116346548D01*
X312041301Y-116346548D02*
X312112729Y-116537025D01*
X312112729Y-116537025D02*
X311981777Y-117584644D01*
X314457968Y-117584644D02*
X314707968Y-115584644D01*
X314707968Y-115584644D02*
X315184159Y-115584644D01*
X315184159Y-115584644D02*
X315457968Y-115679882D01*
X315457968Y-115679882D02*
X315624635Y-115870358D01*
X315624635Y-115870358D02*
X315696063Y-116060834D01*
X315696063Y-116060834D02*
X315743683Y-116441786D01*
X315743683Y-116441786D02*
X315707968Y-116727501D01*
X315707968Y-116727501D02*
X315565111Y-117108453D01*
X315565111Y-117108453D02*
X315446063Y-117298929D01*
X315446063Y-117298929D02*
X315231778Y-117489406D01*
X315231778Y-117489406D02*
X314934159Y-117584644D01*
X314934159Y-117584644D02*
X314457968Y-117584644D01*
X316457968Y-117584644D02*
X316624635Y-116251310D01*
X316577016Y-116632263D02*
X316696063Y-116441786D01*
X316696063Y-116441786D02*
X316803206Y-116346548D01*
X316803206Y-116346548D02*
X317005587Y-116251310D01*
X317005587Y-116251310D02*
X317196063Y-116251310D01*
X318553206Y-117584644D02*
X318684158Y-116537025D01*
X318684158Y-116537025D02*
X318612730Y-116346548D01*
X318612730Y-116346548D02*
X318434158Y-116251310D01*
X318434158Y-116251310D02*
X318053206Y-116251310D01*
X318053206Y-116251310D02*
X317850825Y-116346548D01*
X318565111Y-117489406D02*
X318362730Y-117584644D01*
X318362730Y-117584644D02*
X317886539Y-117584644D01*
X317886539Y-117584644D02*
X317707968Y-117489406D01*
X317707968Y-117489406D02*
X317636539Y-117298929D01*
X317636539Y-117298929D02*
X317660349Y-117108453D01*
X317660349Y-117108453D02*
X317779397Y-116917977D01*
X317779397Y-116917977D02*
X317981778Y-116822739D01*
X317981778Y-116822739D02*
X318457968Y-116822739D01*
X318457968Y-116822739D02*
X318660349Y-116727501D01*
X319481778Y-116251310D02*
X319696063Y-117584644D01*
X319696063Y-117584644D02*
X320196063Y-116632263D01*
X320196063Y-116632263D02*
X320457968Y-117584644D01*
X320457968Y-117584644D02*
X321005587Y-116251310D01*
X321600825Y-117584644D02*
X321767492Y-116251310D01*
X321850825Y-115584644D02*
X321743682Y-115679882D01*
X321743682Y-115679882D02*
X321827016Y-115775120D01*
X321827016Y-115775120D02*
X321934159Y-115679882D01*
X321934159Y-115679882D02*
X321850825Y-115584644D01*
X321850825Y-115584644D02*
X321827016Y-115775120D01*
X322719873Y-116251310D02*
X322553206Y-117584644D01*
X322696063Y-116441786D02*
X322803206Y-116346548D01*
X322803206Y-116346548D02*
X323005587Y-116251310D01*
X323005587Y-116251310D02*
X323291301Y-116251310D01*
X323291301Y-116251310D02*
X323469873Y-116346548D01*
X323469873Y-116346548D02*
X323541301Y-116537025D01*
X323541301Y-116537025D02*
X323410349Y-117584644D01*
X325386540Y-116251310D02*
X325184159Y-117870358D01*
X325184159Y-117870358D02*
X325065111Y-118060834D01*
X325065111Y-118060834D02*
X324957968Y-118156072D01*
X324957968Y-118156072D02*
X324755587Y-118251310D01*
X324755587Y-118251310D02*
X324469873Y-118251310D01*
X324469873Y-118251310D02*
X324291302Y-118156072D01*
X325231778Y-117489406D02*
X325029397Y-117584644D01*
X325029397Y-117584644D02*
X324648445Y-117584644D01*
X324648445Y-117584644D02*
X324469873Y-117489406D01*
X324469873Y-117489406D02*
X324386540Y-117394167D01*
X324386540Y-117394167D02*
X324315111Y-117203691D01*
X324315111Y-117203691D02*
X324386540Y-116632263D01*
X324386540Y-116632263D02*
X324505587Y-116441786D01*
X324505587Y-116441786D02*
X324612730Y-116346548D01*
X324612730Y-116346548D02*
X324815111Y-116251310D01*
X324815111Y-116251310D02*
X325196064Y-116251310D01*
X325196064Y-116251310D02*
X325374635Y-116346548D01*
D10*
D11*
X270305396Y-112980620D02*
X269805396Y-112980620D01*
X269805396Y-113766334D02*
X269805396Y-112266334D01*
X269805396Y-112266334D02*
X270519682Y-112266334D01*
X271091110Y-113766334D02*
X271091110Y-112766334D01*
X271091110Y-112266334D02*
X271019682Y-112337763D01*
X271019682Y-112337763D02*
X271091110Y-112409191D01*
X271091110Y-112409191D02*
X271162539Y-112337763D01*
X271162539Y-112337763D02*
X271091110Y-112266334D01*
X271091110Y-112266334D02*
X271091110Y-112409191D01*
X272019682Y-113766334D02*
X271876825Y-113694906D01*
X271876825Y-113694906D02*
X271805396Y-113552048D01*
X271805396Y-113552048D02*
X271805396Y-112266334D01*
X273162539Y-113694906D02*
X273019682Y-113766334D01*
X273019682Y-113766334D02*
X272733968Y-113766334D01*
X272733968Y-113766334D02*
X272591110Y-113694906D01*
X272591110Y-113694906D02*
X272519682Y-113552048D01*
X272519682Y-113552048D02*
X272519682Y-112980620D01*
X272519682Y-112980620D02*
X272591110Y-112837763D01*
X272591110Y-112837763D02*
X272733968Y-112766334D01*
X272733968Y-112766334D02*
X273019682Y-112766334D01*
X273019682Y-112766334D02*
X273162539Y-112837763D01*
X273162539Y-112837763D02*
X273233968Y-112980620D01*
X273233968Y-112980620D02*
X273233968Y-113123477D01*
X273233968Y-113123477D02*
X272519682Y-113266334D01*
X273876824Y-113623477D02*
X273948253Y-113694906D01*
X273948253Y-113694906D02*
X273876824Y-113766334D01*
X273876824Y-113766334D02*
X273805396Y-113694906D01*
X273805396Y-113694906D02*
X273876824Y-113623477D01*
X273876824Y-113623477D02*
X273876824Y-113766334D01*
X273876824Y-112837763D02*
X273948253Y-112909191D01*
X273948253Y-112909191D02*
X273876824Y-112980620D01*
X273876824Y-112980620D02*
X273805396Y-112909191D01*
X273805396Y-112909191D02*
X273876824Y-112837763D01*
X273876824Y-112837763D02*
X273876824Y-112980620D01*
X275733967Y-113766334D02*
X275733967Y-112266334D01*
X275733967Y-112266334D02*
X276305396Y-112266334D01*
X276305396Y-112266334D02*
X276448253Y-112337763D01*
X276448253Y-112337763D02*
X276519682Y-112409191D01*
X276519682Y-112409191D02*
X276591110Y-112552048D01*
X276591110Y-112552048D02*
X276591110Y-112766334D01*
X276591110Y-112766334D02*
X276519682Y-112909191D01*
X276519682Y-112909191D02*
X276448253Y-112980620D01*
X276448253Y-112980620D02*
X276305396Y-113052048D01*
X276305396Y-113052048D02*
X275733967Y-113052048D01*
X277233967Y-113766334D02*
X277233967Y-112266334D01*
X277233967Y-112266334D02*
X277733967Y-113337763D01*
X277733967Y-113337763D02*
X278233967Y-112266334D01*
X278233967Y-112266334D02*
X278233967Y-113766334D01*
X279733968Y-113766334D02*
X278876825Y-113766334D01*
X279305396Y-113766334D02*
X279305396Y-112266334D01*
X279305396Y-112266334D02*
X279162539Y-112480620D01*
X279162539Y-112480620D02*
X279019682Y-112623477D01*
X279019682Y-112623477D02*
X278876825Y-112694906D01*
X281233967Y-113623477D02*
X281162539Y-113694906D01*
X281162539Y-113694906D02*
X280948253Y-113766334D01*
X280948253Y-113766334D02*
X280805396Y-113766334D01*
X280805396Y-113766334D02*
X280591110Y-113694906D01*
X280591110Y-113694906D02*
X280448253Y-113552048D01*
X280448253Y-113552048D02*
X280376824Y-113409191D01*
X280376824Y-113409191D02*
X280305396Y-113123477D01*
X280305396Y-113123477D02*
X280305396Y-112909191D01*
X280305396Y-112909191D02*
X280376824Y-112623477D01*
X280376824Y-112623477D02*
X280448253Y-112480620D01*
X280448253Y-112480620D02*
X280591110Y-112337763D01*
X280591110Y-112337763D02*
X280805396Y-112266334D01*
X280805396Y-112266334D02*
X280948253Y-112266334D01*
X280948253Y-112266334D02*
X281162539Y-112337763D01*
X281162539Y-112337763D02*
X281233967Y-112409191D01*
X281519682Y-113909191D02*
X282662539Y-113909191D01*
X283876824Y-113766334D02*
X283376824Y-113052048D01*
X283019681Y-113766334D02*
X283019681Y-112266334D01*
X283019681Y-112266334D02*
X283591110Y-112266334D01*
X283591110Y-112266334D02*
X283733967Y-112337763D01*
X283733967Y-112337763D02*
X283805396Y-112409191D01*
X283805396Y-112409191D02*
X283876824Y-112552048D01*
X283876824Y-112552048D02*
X283876824Y-112766334D01*
X283876824Y-112766334D02*
X283805396Y-112909191D01*
X283805396Y-112909191D02*
X283733967Y-112980620D01*
X283733967Y-112980620D02*
X283591110Y-113052048D01*
X283591110Y-113052048D02*
X283019681Y-113052048D01*
X285091110Y-113694906D02*
X284948253Y-113766334D01*
X284948253Y-113766334D02*
X284662539Y-113766334D01*
X284662539Y-113766334D02*
X284519681Y-113694906D01*
X284519681Y-113694906D02*
X284448253Y-113552048D01*
X284448253Y-113552048D02*
X284448253Y-112980620D01*
X284448253Y-112980620D02*
X284519681Y-112837763D01*
X284519681Y-112837763D02*
X284662539Y-112766334D01*
X284662539Y-112766334D02*
X284948253Y-112766334D01*
X284948253Y-112766334D02*
X285091110Y-112837763D01*
X285091110Y-112837763D02*
X285162539Y-112980620D01*
X285162539Y-112980620D02*
X285162539Y-113123477D01*
X285162539Y-113123477D02*
X284448253Y-113266334D01*
X285662538Y-112766334D02*
X286019681Y-113766334D01*
X286019681Y-113766334D02*
X286376824Y-112766334D01*
X286591110Y-113909191D02*
X287733967Y-113909191D01*
X288876824Y-113766334D02*
X288019681Y-113766334D01*
X288448252Y-113766334D02*
X288448252Y-112266334D01*
X288448252Y-112266334D02*
X288305395Y-112480620D01*
X288305395Y-112480620D02*
X288162538Y-112623477D01*
X288162538Y-112623477D02*
X288019681Y-112694906D01*
X289162538Y-113909191D02*
X290305395Y-113909191D01*
X290591109Y-112409191D02*
X290662537Y-112337763D01*
X290662537Y-112337763D02*
X290805395Y-112266334D01*
X290805395Y-112266334D02*
X291162537Y-112266334D01*
X291162537Y-112266334D02*
X291305395Y-112337763D01*
X291305395Y-112337763D02*
X291376823Y-112409191D01*
X291376823Y-112409191D02*
X291448252Y-112552048D01*
X291448252Y-112552048D02*
X291448252Y-112694906D01*
X291448252Y-112694906D02*
X291376823Y-112909191D01*
X291376823Y-112909191D02*
X290519680Y-113766334D01*
X290519680Y-113766334D02*
X291448252Y-113766334D01*
X292091108Y-113623477D02*
X292162537Y-113694906D01*
X292162537Y-113694906D02*
X292091108Y-113766334D01*
X292091108Y-113766334D02*
X292019680Y-113694906D01*
X292019680Y-113694906D02*
X292091108Y-113623477D01*
X292091108Y-113623477D02*
X292091108Y-113766334D01*
X292805394Y-113766334D02*
X292805394Y-112266334D01*
X292948252Y-113194906D02*
X293376823Y-113766334D01*
X293376823Y-112766334D02*
X292805394Y-113337763D01*
X294019680Y-113766334D02*
X294019680Y-112766334D01*
X294019680Y-112266334D02*
X293948252Y-112337763D01*
X293948252Y-112337763D02*
X294019680Y-112409191D01*
X294019680Y-112409191D02*
X294091109Y-112337763D01*
X294091109Y-112337763D02*
X294019680Y-112266334D01*
X294019680Y-112266334D02*
X294019680Y-112409191D01*
X295376824Y-113694906D02*
X295233966Y-113766334D01*
X295233966Y-113766334D02*
X294948252Y-113766334D01*
X294948252Y-113766334D02*
X294805395Y-113694906D01*
X294805395Y-113694906D02*
X294733966Y-113623477D01*
X294733966Y-113623477D02*
X294662538Y-113480620D01*
X294662538Y-113480620D02*
X294662538Y-113052048D01*
X294662538Y-113052048D02*
X294733966Y-112909191D01*
X294733966Y-112909191D02*
X294805395Y-112837763D01*
X294805395Y-112837763D02*
X294948252Y-112766334D01*
X294948252Y-112766334D02*
X295233966Y-112766334D01*
X295233966Y-112766334D02*
X295376824Y-112837763D01*
X296662538Y-113766334D02*
X296662538Y-112980620D01*
X296662538Y-112980620D02*
X296591109Y-112837763D01*
X296591109Y-112837763D02*
X296448252Y-112766334D01*
X296448252Y-112766334D02*
X296162538Y-112766334D01*
X296162538Y-112766334D02*
X296019680Y-112837763D01*
X296662538Y-113694906D02*
X296519680Y-113766334D01*
X296519680Y-113766334D02*
X296162538Y-113766334D01*
X296162538Y-113766334D02*
X296019680Y-113694906D01*
X296019680Y-113694906D02*
X295948252Y-113552048D01*
X295948252Y-113552048D02*
X295948252Y-113409191D01*
X295948252Y-113409191D02*
X296019680Y-113266334D01*
X296019680Y-113266334D02*
X296162538Y-113194906D01*
X296162538Y-113194906D02*
X296519680Y-113194906D01*
X296519680Y-113194906D02*
X296662538Y-113123477D01*
X298019681Y-113766334D02*
X298019681Y-112266334D01*
X298019681Y-113694906D02*
X297876823Y-113766334D01*
X297876823Y-113766334D02*
X297591109Y-113766334D01*
X297591109Y-113766334D02*
X297448252Y-113694906D01*
X297448252Y-113694906D02*
X297376823Y-113623477D01*
X297376823Y-113623477D02*
X297305395Y-113480620D01*
X297305395Y-113480620D02*
X297305395Y-113052048D01*
X297305395Y-113052048D02*
X297376823Y-112909191D01*
X297376823Y-112909191D02*
X297448252Y-112837763D01*
X297448252Y-112837763D02*
X297591109Y-112766334D01*
X297591109Y-112766334D02*
X297876823Y-112766334D01*
X297876823Y-112766334D02*
X298019681Y-112837763D01*
X298376824Y-113909191D02*
X299519681Y-113909191D01*
X299876823Y-112766334D02*
X299876823Y-114266334D01*
X299876823Y-112837763D02*
X300019681Y-112766334D01*
X300019681Y-112766334D02*
X300305395Y-112766334D01*
X300305395Y-112766334D02*
X300448252Y-112837763D01*
X300448252Y-112837763D02*
X300519681Y-112909191D01*
X300519681Y-112909191D02*
X300591109Y-113052048D01*
X300591109Y-113052048D02*
X300591109Y-113480620D01*
X300591109Y-113480620D02*
X300519681Y-113623477D01*
X300519681Y-113623477D02*
X300448252Y-113694906D01*
X300448252Y-113694906D02*
X300305395Y-113766334D01*
X300305395Y-113766334D02*
X300019681Y-113766334D01*
X300019681Y-113766334D02*
X299876823Y-113694906D01*
X301876824Y-113694906D02*
X301733966Y-113766334D01*
X301733966Y-113766334D02*
X301448252Y-113766334D01*
X301448252Y-113766334D02*
X301305395Y-113694906D01*
X301305395Y-113694906D02*
X301233966Y-113623477D01*
X301233966Y-113623477D02*
X301162538Y-113480620D01*
X301162538Y-113480620D02*
X301162538Y-113052048D01*
X301162538Y-113052048D02*
X301233966Y-112909191D01*
X301233966Y-112909191D02*
X301305395Y-112837763D01*
X301305395Y-112837763D02*
X301448252Y-112766334D01*
X301448252Y-112766334D02*
X301733966Y-112766334D01*
X301733966Y-112766334D02*
X301876824Y-112837763D01*
X302519680Y-113766334D02*
X302519680Y-112266334D01*
X302519680Y-112837763D02*
X302662538Y-112766334D01*
X302662538Y-112766334D02*
X302948252Y-112766334D01*
X302948252Y-112766334D02*
X303091109Y-112837763D01*
X303091109Y-112837763D02*
X303162538Y-112909191D01*
X303162538Y-112909191D02*
X303233966Y-113052048D01*
X303233966Y-113052048D02*
X303233966Y-113480620D01*
X303233966Y-113480620D02*
X303162538Y-113623477D01*
X303162538Y-113623477D02*
X303091109Y-113694906D01*
X303091109Y-113694906D02*
X302948252Y-113766334D01*
X302948252Y-113766334D02*
X302662538Y-113766334D01*
X302662538Y-113766334D02*
X302519680Y-113694906D01*
D10*
D11*
X268349570Y-108880206D02*
X376349570Y-108880206D01*
D10*
D11*
X269733968Y-110994906D02*
X269948254Y-111066334D01*
X269948254Y-111066334D02*
X270305396Y-111066334D01*
X270305396Y-111066334D02*
X270448254Y-110994906D01*
X270448254Y-110994906D02*
X270519682Y-110923477D01*
X270519682Y-110923477D02*
X270591111Y-110780620D01*
X270591111Y-110780620D02*
X270591111Y-110637763D01*
X270591111Y-110637763D02*
X270519682Y-110494906D01*
X270519682Y-110494906D02*
X270448254Y-110423477D01*
X270448254Y-110423477D02*
X270305396Y-110352048D01*
X270305396Y-110352048D02*
X270019682Y-110280620D01*
X270019682Y-110280620D02*
X269876825Y-110209191D01*
X269876825Y-110209191D02*
X269805396Y-110137763D01*
X269805396Y-110137763D02*
X269733968Y-109994906D01*
X269733968Y-109994906D02*
X269733968Y-109852048D01*
X269733968Y-109852048D02*
X269805396Y-109709191D01*
X269805396Y-109709191D02*
X269876825Y-109637763D01*
X269876825Y-109637763D02*
X270019682Y-109566334D01*
X270019682Y-109566334D02*
X270376825Y-109566334D01*
X270376825Y-109566334D02*
X270591111Y-109637763D01*
X271233967Y-111066334D02*
X271233967Y-109566334D01*
X271876825Y-111066334D02*
X271876825Y-110280620D01*
X271876825Y-110280620D02*
X271805396Y-110137763D01*
X271805396Y-110137763D02*
X271662539Y-110066334D01*
X271662539Y-110066334D02*
X271448253Y-110066334D01*
X271448253Y-110066334D02*
X271305396Y-110137763D01*
X271305396Y-110137763D02*
X271233967Y-110209191D01*
X273162539Y-110994906D02*
X273019682Y-111066334D01*
X273019682Y-111066334D02*
X272733968Y-111066334D01*
X272733968Y-111066334D02*
X272591110Y-110994906D01*
X272591110Y-110994906D02*
X272519682Y-110852048D01*
X272519682Y-110852048D02*
X272519682Y-110280620D01*
X272519682Y-110280620D02*
X272591110Y-110137763D01*
X272591110Y-110137763D02*
X272733968Y-110066334D01*
X272733968Y-110066334D02*
X273019682Y-110066334D01*
X273019682Y-110066334D02*
X273162539Y-110137763D01*
X273162539Y-110137763D02*
X273233968Y-110280620D01*
X273233968Y-110280620D02*
X273233968Y-110423477D01*
X273233968Y-110423477D02*
X272519682Y-110566334D01*
X274448253Y-110994906D02*
X274305396Y-111066334D01*
X274305396Y-111066334D02*
X274019682Y-111066334D01*
X274019682Y-111066334D02*
X273876824Y-110994906D01*
X273876824Y-110994906D02*
X273805396Y-110852048D01*
X273805396Y-110852048D02*
X273805396Y-110280620D01*
X273805396Y-110280620D02*
X273876824Y-110137763D01*
X273876824Y-110137763D02*
X274019682Y-110066334D01*
X274019682Y-110066334D02*
X274305396Y-110066334D01*
X274305396Y-110066334D02*
X274448253Y-110137763D01*
X274448253Y-110137763D02*
X274519682Y-110280620D01*
X274519682Y-110280620D02*
X274519682Y-110423477D01*
X274519682Y-110423477D02*
X273805396Y-110566334D01*
X274948253Y-110066334D02*
X275519681Y-110066334D01*
X275162538Y-109566334D02*
X275162538Y-110852048D01*
X275162538Y-110852048D02*
X275233967Y-110994906D01*
X275233967Y-110994906D02*
X275376824Y-111066334D01*
X275376824Y-111066334D02*
X275519681Y-111066334D01*
X276019681Y-110923477D02*
X276091110Y-110994906D01*
X276091110Y-110994906D02*
X276019681Y-111066334D01*
X276019681Y-111066334D02*
X275948253Y-110994906D01*
X275948253Y-110994906D02*
X276019681Y-110923477D01*
X276019681Y-110923477D02*
X276019681Y-111066334D01*
X276019681Y-110137763D02*
X276091110Y-110209191D01*
X276091110Y-110209191D02*
X276019681Y-110280620D01*
X276019681Y-110280620D02*
X275948253Y-110209191D01*
X275948253Y-110209191D02*
X276019681Y-110137763D01*
X276019681Y-110137763D02*
X276019681Y-110280620D01*
D10*
D12*
X270761223Y-107915677D02*
X270689795Y-107987106D01*
X270689795Y-107987106D02*
X270475509Y-108058534D01*
X270475509Y-108058534D02*
X270332652Y-108058534D01*
X270332652Y-108058534D02*
X270118366Y-107987106D01*
X270118366Y-107987106D02*
X269975509Y-107844248D01*
X269975509Y-107844248D02*
X269904080Y-107701391D01*
X269904080Y-107701391D02*
X269832652Y-107415677D01*
X269832652Y-107415677D02*
X269832652Y-107201391D01*
X269832652Y-107201391D02*
X269904080Y-106915677D01*
X269904080Y-106915677D02*
X269975509Y-106772820D01*
X269975509Y-106772820D02*
X270118366Y-106629963D01*
X270118366Y-106629963D02*
X270332652Y-106558534D01*
X270332652Y-106558534D02*
X270475509Y-106558534D01*
X270475509Y-106558534D02*
X270689795Y-106629963D01*
X270689795Y-106629963D02*
X270761223Y-106701391D01*
X271689795Y-106558534D02*
X271975509Y-106558534D01*
X271975509Y-106558534D02*
X272118366Y-106629963D01*
X272118366Y-106629963D02*
X272261223Y-106772820D01*
X272261223Y-106772820D02*
X272332652Y-107058534D01*
X272332652Y-107058534D02*
X272332652Y-107558534D01*
X272332652Y-107558534D02*
X272261223Y-107844248D01*
X272261223Y-107844248D02*
X272118366Y-107987106D01*
X272118366Y-107987106D02*
X271975509Y-108058534D01*
X271975509Y-108058534D02*
X271689795Y-108058534D01*
X271689795Y-108058534D02*
X271546938Y-107987106D01*
X271546938Y-107987106D02*
X271404080Y-107844248D01*
X271404080Y-107844248D02*
X271332652Y-107558534D01*
X271332652Y-107558534D02*
X271332652Y-107058534D01*
X271332652Y-107058534D02*
X271404080Y-106772820D01*
X271404080Y-106772820D02*
X271546938Y-106629963D01*
X271546938Y-106629963D02*
X271689795Y-106558534D01*
X272904081Y-107987106D02*
X273118367Y-108058534D01*
X273118367Y-108058534D02*
X273475509Y-108058534D01*
X273475509Y-108058534D02*
X273618367Y-107987106D01*
X273618367Y-107987106D02*
X273689795Y-107915677D01*
X273689795Y-107915677D02*
X273761224Y-107772820D01*
X273761224Y-107772820D02*
X273761224Y-107629963D01*
X273761224Y-107629963D02*
X273689795Y-107487106D01*
X273689795Y-107487106D02*
X273618367Y-107415677D01*
X273618367Y-107415677D02*
X273475509Y-107344248D01*
X273475509Y-107344248D02*
X273189795Y-107272820D01*
X273189795Y-107272820D02*
X273046938Y-107201391D01*
X273046938Y-107201391D02*
X272975509Y-107129963D01*
X272975509Y-107129963D02*
X272904081Y-106987106D01*
X272904081Y-106987106D02*
X272904081Y-106844248D01*
X272904081Y-106844248D02*
X272975509Y-106701391D01*
X272975509Y-106701391D02*
X273046938Y-106629963D01*
X273046938Y-106629963D02*
X273189795Y-106558534D01*
X273189795Y-106558534D02*
X273546938Y-106558534D01*
X273546938Y-106558534D02*
X273761224Y-106629963D01*
X274404080Y-108058534D02*
X274404080Y-106558534D01*
X274404080Y-106558534D02*
X274904080Y-107629963D01*
X274904080Y-107629963D02*
X275404080Y-106558534D01*
X275404080Y-106558534D02*
X275404080Y-108058534D01*
X276118366Y-108058534D02*
X276118366Y-106558534D01*
X276832652Y-108058534D02*
X276832652Y-106558534D01*
X278404081Y-107915677D02*
X278332653Y-107987106D01*
X278332653Y-107987106D02*
X278118367Y-108058534D01*
X278118367Y-108058534D02*
X277975510Y-108058534D01*
X277975510Y-108058534D02*
X277761224Y-107987106D01*
X277761224Y-107987106D02*
X277618367Y-107844248D01*
X277618367Y-107844248D02*
X277546938Y-107701391D01*
X277546938Y-107701391D02*
X277475510Y-107415677D01*
X277475510Y-107415677D02*
X277475510Y-107201391D01*
X277475510Y-107201391D02*
X277546938Y-106915677D01*
X277546938Y-106915677D02*
X277618367Y-106772820D01*
X277618367Y-106772820D02*
X277761224Y-106629963D01*
X277761224Y-106629963D02*
X277975510Y-106558534D01*
X277975510Y-106558534D02*
X278118367Y-106558534D01*
X278118367Y-106558534D02*
X278332653Y-106629963D01*
X278332653Y-106629963D02*
X278404081Y-106701391D01*
D10*
D11*
X288349570Y-118880206D02*
X288349570Y-121880206D01*
D10*
D11*
X352349570Y-118880206D02*
X352349570Y-125380206D01*
D14*
%TA.AperFunction,Conductor*%
%TO.N,GND*%
G36*
X33127200Y78059840D02*
G01*
X30877200Y78059840D01*
X30877200Y79209840D01*
X33127200Y79209840D01*
X33127200Y78059840D01*
G37*
%TD.AperFunction*%
D15*
D16*
X17793600Y-3696182D02*
X16841219Y-3696182D01*
X16841219Y-3696182D02*
X16841219Y-1696182D01*
X19317410Y-3696182D02*
X19317410Y-2648563D01*
X19317410Y-2648563D02*
X19222172Y-2458086D01*
X19222172Y-2458086D02*
X19031696Y-2362848D01*
X19031696Y-2362848D02*
X18650743Y-2362848D01*
X18650743Y-2362848D02*
X18460267Y-2458086D01*
X19317410Y-3600944D02*
X19126934Y-3696182D01*
X19126934Y-3696182D02*
X18650743Y-3696182D01*
X18650743Y-3696182D02*
X18460267Y-3600944D01*
X18460267Y-3600944D02*
X18365029Y-3410467D01*
X18365029Y-3410467D02*
X18365029Y-3219991D01*
X18365029Y-3219991D02*
X18460267Y-3029515D01*
X18460267Y-3029515D02*
X18650743Y-2934277D01*
X18650743Y-2934277D02*
X19126934Y-2934277D01*
X19126934Y-2934277D02*
X19317410Y-2839039D01*
X20079315Y-2362848D02*
X20555505Y-3696182D01*
X21031696Y-2362848D02*
X20555505Y-3696182D01*
X20555505Y-3696182D02*
X20365029Y-4172372D01*
X20365029Y-4172372D02*
X20269791Y-4267610D01*
X20269791Y-4267610D02*
X20079315Y-4362848D01*
X22555506Y-3600944D02*
X22365030Y-3696182D01*
X22365030Y-3696182D02*
X21984077Y-3696182D01*
X21984077Y-3696182D02*
X21793601Y-3600944D01*
X21793601Y-3600944D02*
X21698363Y-3410467D01*
X21698363Y-3410467D02*
X21698363Y-2648563D01*
X21698363Y-2648563D02*
X21793601Y-2458086D01*
X21793601Y-2458086D02*
X21984077Y-2362848D01*
X21984077Y-2362848D02*
X22365030Y-2362848D01*
X22365030Y-2362848D02*
X22555506Y-2458086D01*
X22555506Y-2458086D02*
X22650744Y-2648563D01*
X22650744Y-2648563D02*
X22650744Y-2839039D01*
X22650744Y-2839039D02*
X21698363Y-3029515D01*
X23507887Y-3696182D02*
X23507887Y-2362848D01*
X23507887Y-2743801D02*
X23603125Y-2553324D01*
X23603125Y-2553324D02*
X23698363Y-2458086D01*
X23698363Y-2458086D02*
X23888839Y-2362848D01*
X23888839Y-2362848D02*
X24079316Y-2362848D01*
X27222173Y-1696182D02*
X26269792Y-1696182D01*
X26269792Y-1696182D02*
X26174554Y-2648563D01*
X26174554Y-2648563D02*
X26269792Y-2553324D01*
X26269792Y-2553324D02*
X26460268Y-2458086D01*
X26460268Y-2458086D02*
X26936459Y-2458086D01*
X26936459Y-2458086D02*
X27126935Y-2553324D01*
X27126935Y-2553324D02*
X27222173Y-2648563D01*
X27222173Y-2648563D02*
X27317411Y-2839039D01*
X27317411Y-2839039D02*
X27317411Y-3315229D01*
X27317411Y-3315229D02*
X27222173Y-3505705D01*
X27222173Y-3505705D02*
X27126935Y-3600944D01*
X27126935Y-3600944D02*
X26936459Y-3696182D01*
X26936459Y-3696182D02*
X26460268Y-3696182D01*
X26460268Y-3696182D02*
X26269792Y-3600944D01*
X26269792Y-3600944D02*
X26174554Y-3505705D01*
X29698364Y-2934277D02*
X31222174Y-2934277D01*
X34365031Y-2648563D02*
X33698364Y-2648563D01*
X33698364Y-3696182D02*
X33698364Y-1696182D01*
X33698364Y-1696182D02*
X34650745Y-1696182D01*
X35698364Y-3696182D02*
X35507888Y-3600944D01*
X35507888Y-3600944D02*
X35412650Y-3410467D01*
X35412650Y-3410467D02*
X35412650Y-1696182D01*
X37222174Y-3600944D02*
X37031698Y-3696182D01*
X37031698Y-3696182D02*
X36650745Y-3696182D01*
X36650745Y-3696182D02*
X36460269Y-3600944D01*
X36460269Y-3600944D02*
X36365031Y-3410467D01*
X36365031Y-3410467D02*
X36365031Y-2648563D01*
X36365031Y-2648563D02*
X36460269Y-2458086D01*
X36460269Y-2458086D02*
X36650745Y-2362848D01*
X36650745Y-2362848D02*
X37031698Y-2362848D01*
X37031698Y-2362848D02*
X37222174Y-2458086D01*
X37222174Y-2458086D02*
X37317412Y-2648563D01*
X37317412Y-2648563D02*
X37317412Y-2839039D01*
X37317412Y-2839039D02*
X36365031Y-3029515D01*
X37984079Y-3696182D02*
X39031698Y-2362848D01*
X37984079Y-2362848D02*
X39031698Y-3696182D01*
X39888841Y-3600944D02*
X39888841Y-3696182D01*
X39888841Y-3696182D02*
X39793603Y-3886658D01*
X39793603Y-3886658D02*
X39698365Y-3981896D01*
X42174556Y-3600944D02*
X42460270Y-3696182D01*
X42460270Y-3696182D02*
X42936461Y-3696182D01*
X42936461Y-3696182D02*
X43126937Y-3600944D01*
X43126937Y-3600944D02*
X43222175Y-3505705D01*
X43222175Y-3505705D02*
X43317413Y-3315229D01*
X43317413Y-3315229D02*
X43317413Y-3124753D01*
X43317413Y-3124753D02*
X43222175Y-2934277D01*
X43222175Y-2934277D02*
X43126937Y-2839039D01*
X43126937Y-2839039D02*
X42936461Y-2743801D01*
X42936461Y-2743801D02*
X42555508Y-2648563D01*
X42555508Y-2648563D02*
X42365032Y-2553324D01*
X42365032Y-2553324D02*
X42269794Y-2458086D01*
X42269794Y-2458086D02*
X42174556Y-2267610D01*
X42174556Y-2267610D02*
X42174556Y-2077134D01*
X42174556Y-2077134D02*
X42269794Y-1886658D01*
X42269794Y-1886658D02*
X42365032Y-1791420D01*
X42365032Y-1791420D02*
X42555508Y-1696182D01*
X42555508Y-1696182D02*
X43031699Y-1696182D01*
X43031699Y-1696182D02*
X43317413Y-1791420D01*
X44174556Y-3696182D02*
X44174556Y-2362848D01*
X44174556Y-1696182D02*
X44079318Y-1791420D01*
X44079318Y-1791420D02*
X44174556Y-1886658D01*
X44174556Y-1886658D02*
X44269794Y-1791420D01*
X44269794Y-1791420D02*
X44174556Y-1696182D01*
X44174556Y-1696182D02*
X44174556Y-1886658D01*
X45984080Y-2362848D02*
X45984080Y-3981896D01*
X45984080Y-3981896D02*
X45888842Y-4172372D01*
X45888842Y-4172372D02*
X45793604Y-4267610D01*
X45793604Y-4267610D02*
X45603127Y-4362848D01*
X45603127Y-4362848D02*
X45317413Y-4362848D01*
X45317413Y-4362848D02*
X45126937Y-4267610D01*
X45984080Y-3600944D02*
X45793604Y-3696182D01*
X45793604Y-3696182D02*
X45412651Y-3696182D01*
X45412651Y-3696182D02*
X45222175Y-3600944D01*
X45222175Y-3600944D02*
X45126937Y-3505705D01*
X45126937Y-3505705D02*
X45031699Y-3315229D01*
X45031699Y-3315229D02*
X45031699Y-2743801D01*
X45031699Y-2743801D02*
X45126937Y-2553324D01*
X45126937Y-2553324D02*
X45222175Y-2458086D01*
X45222175Y-2458086D02*
X45412651Y-2362848D01*
X45412651Y-2362848D02*
X45793604Y-2362848D01*
X45793604Y-2362848D02*
X45984080Y-2458086D01*
X46936461Y-2362848D02*
X46936461Y-3696182D01*
X46936461Y-2553324D02*
X47031699Y-2458086D01*
X47031699Y-2458086D02*
X47222175Y-2362848D01*
X47222175Y-2362848D02*
X47507890Y-2362848D01*
X47507890Y-2362848D02*
X47698366Y-2458086D01*
X47698366Y-2458086D02*
X47793604Y-2648563D01*
X47793604Y-2648563D02*
X47793604Y-3696182D01*
X49603128Y-3696182D02*
X49603128Y-2648563D01*
X49603128Y-2648563D02*
X49507890Y-2458086D01*
X49507890Y-2458086D02*
X49317414Y-2362848D01*
X49317414Y-2362848D02*
X48936461Y-2362848D01*
X48936461Y-2362848D02*
X48745985Y-2458086D01*
X49603128Y-3600944D02*
X49412652Y-3696182D01*
X49412652Y-3696182D02*
X48936461Y-3696182D01*
X48936461Y-3696182D02*
X48745985Y-3600944D01*
X48745985Y-3600944D02*
X48650747Y-3410467D01*
X48650747Y-3410467D02*
X48650747Y-3219991D01*
X48650747Y-3219991D02*
X48745985Y-3029515D01*
X48745985Y-3029515D02*
X48936461Y-2934277D01*
X48936461Y-2934277D02*
X49412652Y-2934277D01*
X49412652Y-2934277D02*
X49603128Y-2839039D01*
X50841223Y-3696182D02*
X50650747Y-3600944D01*
X50650747Y-3600944D02*
X50555509Y-3410467D01*
X50555509Y-3410467D02*
X50555509Y-1696182D01*
X52936462Y-1696182D02*
X54174557Y-1696182D01*
X54174557Y-1696182D02*
X53507890Y-2458086D01*
X53507890Y-2458086D02*
X53793605Y-2458086D01*
X53793605Y-2458086D02*
X53984081Y-2553324D01*
X53984081Y-2553324D02*
X54079319Y-2648563D01*
X54079319Y-2648563D02*
X54174557Y-2839039D01*
X54174557Y-2839039D02*
X54174557Y-3315229D01*
X54174557Y-3315229D02*
X54079319Y-3505705D01*
X54079319Y-3505705D02*
X53984081Y-3600944D01*
X53984081Y-3600944D02*
X53793605Y-3696182D01*
X53793605Y-3696182D02*
X53222176Y-3696182D01*
X53222176Y-3696182D02*
X53031700Y-3600944D01*
X53031700Y-3600944D02*
X52936462Y-3505705D01*
D15*
D16*
X34960149Y4980162D02*
X34007768Y4980162D01*
X34007768Y4980162D02*
X33912530Y4027781D01*
X33912530Y4027781D02*
X34007768Y4123020D01*
X34007768Y4123020D02*
X34198244Y4218258D01*
X34198244Y4218258D02*
X34674435Y4218258D01*
X34674435Y4218258D02*
X34864911Y4123020D01*
X34864911Y4123020D02*
X34960149Y4027781D01*
X34960149Y4027781D02*
X35055387Y3837305D01*
X35055387Y3837305D02*
X35055387Y3361115D01*
X35055387Y3361115D02*
X34960149Y3170639D01*
X34960149Y3170639D02*
X34864911Y3075400D01*
X34864911Y3075400D02*
X34674435Y2980162D01*
X34674435Y2980162D02*
X34198244Y2980162D01*
X34198244Y2980162D02*
X34007768Y3075400D01*
X34007768Y3075400D02*
X33912530Y3170639D01*
%TD*%
D17*
%TO.N,Net-(BAT2-+)*%
%TO.C,BAT2*%
X12528200Y45005150D03*
D18*
%TO.N,Net-(BAT2--)*%
X12528200Y36362750D03*
%TD*%
D17*
%TO.N,Net-(BAT1-+)*%
%TO.C,BAT1*%
X12511180Y62601390D03*
D18*
%TO.N,Net-(BAT1--)*%
X12511180Y53958990D03*
%TD*%
D19*
%TO.N,/Test Points/RXCAN*%
%TO.C,H1*%
X64517200Y19142830D03*
D20*
%TO.N,3V3*%
X61977200Y19142830D03*
%TO.N,/Test Points/TXCAN*%
X64517200Y21682830D03*
%TO.N,GND*%
X61977200Y21682830D03*
%TO.N,/Test Points/SCK0*%
X64517200Y24222830D03*
%TO.N,TCK_CPLD*%
X61977200Y24222830D03*
%TO.N,/Test Points/MOSI0*%
X64517200Y26762830D03*
%TO.N,TDO_CPLD*%
X61977200Y26762830D03*
%TO.N,/Test Points/MISO0*%
X64517200Y29302830D03*
%TO.N,TDI_CPLD*%
X61977200Y29302830D03*
%TO.N,/Test Points/SCK1*%
X64517200Y31842830D03*
%TO.N,TMS_CPLD*%
X61977200Y31842830D03*
%TO.N,/Test Points/MOSI1*%
X64517200Y34382830D03*
%TO.N,/Test Points/TXD0*%
X61977200Y34382830D03*
%TO.N,/Test Points/MISO1*%
X64517200Y36922830D03*
%TO.N,/Test Points/RXD0*%
X61977200Y36922830D03*
%TO.N,GND*%
X64517200Y39462830D03*
X61977200Y39462830D03*
%TO.N,/I2C Multiplexing/SCLOCK*%
X64517200Y42002830D03*
%TO.N,nRESET*%
X61977200Y42002830D03*
%TO.N,/I2C Multiplexing/SDATA*%
X64517200Y44542830D03*
%TO.N,nDRESET*%
X61977200Y44542830D03*
%TO.N,VSYS*%
X64517200Y47082830D03*
%TO.N,nBOOT*%
X61977200Y47082830D03*
%TO.N,VSUPPLY*%
X64517200Y49622830D03*
%TO.N,/Microcontroller/nTRST_LPC*%
X61977200Y49622830D03*
%TO.N,VNET*%
X64517200Y52162830D03*
%TO.N,/Microcontroller/TCK_LPC*%
X61977200Y52162830D03*
%TO.N,n3V3*%
X64517200Y54702830D03*
%TO.N,/Microcontroller/TMS_LPC*%
X61977200Y54702830D03*
%TO.N,1V8*%
X64517200Y57242830D03*
%TO.N,/Microcontroller/TDO_LPC*%
X61977200Y57242830D03*
%TO.N,VREC*%
X64517200Y59782830D03*
%TO.N,/Microcontroller/TDI_LPC*%
X61977200Y59782830D03*
%TO.N,GND*%
X64517200Y62322830D03*
%TO.N,/Microcontroller/RTCK_LPC*%
X61977200Y62322830D03*
%TD*%
D17*
%TO.N,Net-(BAT3-+)*%
%TO.C,BAT3*%
X12528200Y27428350D03*
D18*
%TO.N,Net-(BAT3--)*%
X12528200Y18785950D03*
%TD*%
D21*
%TO.N,Net-(U1-IN+)*%
%TO.C,RV1*%
X41234900Y61265290D03*
%TO.N,GND*%
X41234900Y62535290D03*
%TD*%
D22*
%TO.N,BUSA*%
%TO.C,J1*%
X54749600Y74029700D03*
%TO.N,BUSB*%
X52459600Y74029700D03*
X20859600Y74029700D03*
D23*
%TO.N,BUSA*%
X18572137Y74027305D03*
D22*
%TO.N,RADANT*%
X53039600Y78929700D03*
%TO.N,ENCL*%
X53034600Y82929700D03*
%TD*%
D24*
%TO.N,nRESET*%
X46952200Y50815350D03*
X40177200Y27415350D03*
X29977200Y16540350D03*
X44827200Y31944700D03*
X52527200Y41150350D03*
%TO.N,/Microcontroller/LOAD_AN*%
X33927200Y25761340D03*
%TO.N,VNET*%
X41777200Y47665350D03*
X52427200Y53009840D03*
X41640860Y53565360D03*
X33537200Y46240350D03*
X47877200Y30340350D03*
%TO.N,/Microcontroller/RTCK_LPC*%
X52527200Y61470350D03*
X39400000Y20640350D03*
%TO.N,/CPLD/DISCHG*%
X35852200Y42790350D03*
X34927200Y17740350D03*
%TO.N,/Battery 1 Conditioning/nSHDNBT1*%
X27806530Y47015350D03*
X32045000Y19005000D03*
%TO.N,/Test Points/TXD0*%
X39630000Y18935000D03*
X52527200Y33530350D03*
%TO.N,Net-(U46-VDDA_(1V8))*%
X42527200Y17815470D03*
D25*
X39902200Y40315350D03*
D24*
X27999325Y19403922D03*
X28927200Y27315350D03*
%TO.N,/Battery 3 Conditioning/nSHDNCHG3*%
X27766538Y22786437D03*
X38902200Y25065350D03*
%TO.N,TMS_CPLD*%
X40327200Y39090350D03*
X51107200Y30990350D03*
%TO.N,/I2C Multiplexing/SCLOCK*%
X24677400Y37688350D03*
X43827200Y57390350D03*
X26349570Y18949794D03*
X37002200Y55990350D03*
X39931210Y21065350D03*
X44429600Y31484700D03*
X52527200Y42809840D03*
X20624600Y77304700D03*
X30402200Y60565350D03*
X24704570Y55179794D03*
%TO.N,/I2C Multiplexing/SDATA*%
X24877200Y16290350D03*
X30402200Y61440350D03*
X52527200Y45509840D03*
X42193426Y23331574D03*
X21449600Y77754700D03*
X43127200Y57390350D03*
X23489570Y20539794D03*
X21984570Y48219794D03*
X23024570Y31119794D03*
X22024570Y16849794D03*
X45944600Y31504700D03*
X37902200Y55976780D03*
%TO.N,TDO_CPLD*%
X52727200Y26159840D03*
X30927200Y37040350D03*
%TO.N,3V3*%
X22577200Y12000350D03*
X21827200Y81759840D03*
X22834570Y58309794D03*
X32164700Y63325350D03*
X22834570Y41359794D03*
X36402200Y59340350D03*
X41227200Y17390350D03*
X44427200Y60390350D03*
X45477200Y25975350D03*
X40309570Y34957030D03*
X27909570Y16749794D03*
X32465000Y29865000D03*
X27975060Y29088210D03*
X22659570Y30334794D03*
X22724570Y34488232D03*
X41977200Y44915350D03*
X42602200Y56840350D03*
D25*
X49277200Y40615350D03*
D24*
X29695000Y78290350D03*
X30977200Y28825350D03*
X25577200Y48290350D03*
X51817200Y18000350D03*
X28277200Y35940350D03*
X23709570Y19569794D03*
X23344570Y50559794D03*
X45552200Y17790350D03*
X27975060Y63140350D03*
X33818160Y54740350D03*
%TO.N,TDI_CPLD*%
X51107200Y28450350D03*
X40317890Y34290350D03*
%TO.N,/Microcontroller/TCK_LPC*%
X35927200Y20915350D03*
X31152200Y21815350D03*
X51827200Y51259840D03*
%TO.N,TCK_CPLD*%
X51077200Y23559840D03*
X33352200Y38765350D03*
%TO.N,/Microcontroller/THRM*%
X36402200Y24865350D03*
%TO.N,nBOOT*%
X52527200Y46230350D03*
X33177200Y25890350D03*
X30377200Y44840350D03*
%TO.N,/Battery 1 Conditioning/nSHDNCHG1*%
X33927200Y17915350D03*
X28045000Y55340350D03*
%TO.N,/Microcontroller/TMS_LPC*%
X52527200Y53850350D03*
X30402200Y25890350D03*
%TO.N,/Microcontroller/nTRST_LPC*%
X42527080Y20065350D03*
X52527200Y48770350D03*
%TO.N,/Microcontroller/TDO_LPC*%
X52527200Y56390350D03*
X30452200Y18565350D03*
%TO.N,/Microcontroller/nCSRAM*%
X37027200Y19725350D03*
%TO.N,/Test Points/SCK1*%
X29377200Y49459840D03*
X31500000Y29340350D03*
X52577200Y32709840D03*
X39302330Y83865190D03*
%TO.N,/Test Points/MISO0*%
X42453425Y24941575D03*
X52677200Y29709840D03*
X37577200Y24565350D03*
%TO.N,/Battery 2 Conditioning/nSHDNCHG2*%
X35927200Y30465350D03*
X27752200Y39475000D03*
%TO.N,/Battery 3 Conditioning/nSHDNBT3*%
X37602200Y26300350D03*
%TO.N,RADINT0*%
X32430000Y29235000D03*
X36247130Y80590190D03*
%TO.N,/Microcontroller/nCSFLA*%
X36972210Y25366190D03*
%TO.N,/Battery 2 Conditioning/nSHDNBT2*%
X30180000Y33630000D03*
X35927200Y26840350D03*
%TO.N,/Microcontroller/SSEL1*%
X29077200Y17540350D03*
%TO.N,/Microcontroller/ACCINT*%
X32450000Y30510000D03*
X23699600Y76739700D03*
%TO.N,/Microcontroller/TDI_LPC*%
X30452200Y20565350D03*
X51817039Y58797263D03*
X41352200Y16290350D03*
%TO.N,nCSRAD*%
X35247130Y80590190D03*
X35477200Y60209840D03*
X41352200Y29565350D03*
%TO.N,/Microcontroller/PWMBT*%
X33927200Y46840350D03*
X41352200Y28840350D03*
%TO.N,/Battery 1 Conditioning/SDATA1*%
X22827200Y56634794D03*
%TO.N,/Battery 1 Conditioning/SCLOCK1*%
X24099570Y55194794D03*
%TO.N,/Battery 2 Conditioning/SDATA2*%
X22827200Y39064794D03*
%TO.N,/Battery 2 Conditioning/SCLOCK2*%
X23994570Y37674794D03*
%TO.N,/CPLD/SCKSEL3*%
X30927200Y37865350D03*
X27429570Y21069465D03*
%TO.N,/Battery 3 Conditioning/SDATA3*%
X22750670Y21313294D03*
%TO.N,/Battery 3 Conditioning/SCLOCK3*%
X24989570Y19849794D03*
%TO.N,Net-(C10-Pad1)*%
X43330000Y40775000D03*
X28252200Y36665350D03*
D25*
X45702200Y41040350D03*
D24*
X41352200Y31215350D03*
X34077200Y45540350D03*
%TO.N,/CPLD/nPHB*%
X40327200Y38290350D03*
X30927200Y51640350D03*
%TO.N,/CPLD/CKCPLD*%
X26853775Y28463775D03*
X37052200Y33840350D03*
%TO.N,/Battery 3 Conditioning/DISCHG3*%
X20577200Y14200350D03*
X30577200Y44190430D03*
%TO.N,/CPLD/SNSEN*%
X40327200Y37490350D03*
X40302200Y56105350D03*
%TO.N,/Battery 1 Conditioning/DISCHG1*%
X25727200Y47515350D03*
%TO.N,/CPLD/nSENSE*%
X30777200Y50940350D03*
X40277200Y35890350D03*
%TO.N,/Battery 2 Conditioning/DISCHG2*%
X32252120Y43015430D03*
X22777200Y31913230D03*
%TO.N,/Test Points/SCK0*%
X52727200Y25509840D03*
X38227200Y21440350D03*
%TO.N,/Test Points/MISO1*%
X38302330Y83865240D03*
X34025000Y21417350D03*
X52527200Y17650350D03*
X52904570Y37774794D03*
%TO.N,/Test Points/RXCAN*%
X51825000Y20380000D03*
X35427120Y18315350D03*
%TO.N,/Test Points/RXD0*%
X51754570Y35489794D03*
X39677200Y20065350D03*
%TO.N,/Test Points/MOSI0*%
X39977200Y25065350D03*
X52727200Y26809840D03*
%TO.N,n3V3*%
X52377200Y55609840D03*
X27985330Y52190350D03*
X35627200Y59340350D03*
X37277200Y52540350D03*
D25*
%TO.N,Net-(D6-C)*%
X42602200Y24065350D03*
%TO.N,Net-(D2-C)*%
X43852200Y27865350D03*
%TO.N,Net-(D10-A)*%
X49702200Y55815350D03*
%TO.N,Net-(U20-VIN)*%
X47727200Y60540350D03*
D24*
X45827200Y60390350D03*
X48427200Y59440350D03*
%TO.N,Net-(U38-~{CTL})*%
X19502200Y16385000D03*
%TO.N,/Battery 3 Conditioning/VBT3*%
X26938046Y26776872D03*
X26934570Y26329796D03*
X16974570Y25724794D03*
X16379570Y25719794D03*
X23144570Y15904794D03*
D25*
%TO.N,VSYS*%
X23302200Y13300350D03*
X51177200Y12800350D03*
D24*
X32388183Y23996704D03*
D25*
X24052400Y33813230D03*
D24*
X32352200Y56215350D03*
X52560000Y47625000D03*
X41304600Y30334700D03*
X32227200Y40390350D03*
D25*
X24052400Y51390230D03*
D24*
%TO.N,/Battery 2 Conditioning/VBT2*%
X27252320Y44334794D03*
X16954570Y43499794D03*
X27277320Y45019794D03*
X16199570Y43499794D03*
%TO.N,/Battery 1 Conditioning/VBT1*%
X16259570Y61549794D03*
X27227200Y61544794D03*
X16909570Y61549794D03*
X27217200Y62196550D03*
D25*
%TO.N,Net-(U19-FB)*%
X44877200Y44740350D03*
%TO.N,Net-(U19-SW)*%
X44852200Y46690350D03*
D24*
%TO.N,Net-(U40-G1)*%
X30515000Y17565000D03*
X33433420Y23804794D03*
%TO.N,Net-(U32-G1)*%
X33077200Y33465350D03*
X33302200Y40390350D03*
%TO.N,Net-(U24-G1)*%
X33328425Y56291575D03*
X30327200Y49459840D03*
%TO.N,/Test Points/TXCAN*%
X35917890Y17740350D03*
X52727200Y21309840D03*
%TO.N,/Test Points/MOSI1*%
X52914570Y35609794D03*
X40302200Y83865350D03*
X52969570Y17079794D03*
X34902200Y42040350D03*
X33132729Y21513509D03*
%TO.N,Net-(D2-A)*%
X50164700Y29127850D03*
%TO.N,GND*%
X52277200Y40409840D03*
X52804570Y63384794D03*
D25*
X45827200Y58040350D03*
D24*
X31993160Y78290350D03*
D25*
X42614600Y31149700D03*
D24*
X23377200Y28507030D03*
D25*
X22719570Y60579794D03*
D24*
X48629190Y44991140D03*
X33052200Y63300350D03*
D25*
X22827200Y43234794D03*
D24*
X49854190Y44991140D03*
X48627200Y45662140D03*
X52377380Y20814039D03*
X49252200Y45662140D03*
X31093160Y78290350D03*
X49852200Y45662140D03*
X49254190Y44991140D03*
D25*
X46777200Y58040350D03*
D24*
X24079570Y63649794D03*
D25*
X30765000Y31080000D03*
D24*
X31093160Y78990350D03*
D25*
X47727200Y58040350D03*
D24*
X51817200Y38335350D03*
X32893160Y78290350D03*
D25*
X27084570Y20369794D03*
D24*
X32893160Y78990350D03*
X23569570Y46504794D03*
D26*
%TO.N,COMRF*%
X56577450Y79240470D03*
X55077450Y79240470D03*
D24*
X32893160Y80690350D03*
D26*
X55577450Y79240470D03*
X56077450Y79240470D03*
X54577450Y79240470D03*
D24*
X31093160Y80690350D03*
X32893160Y79990350D03*
X31993160Y80690350D03*
X31093160Y79990350D03*
D25*
%TO.N,Net-(BAT1--)*%
X22719570Y59179794D03*
D24*
%TO.N,BUSB*%
X35602200Y61240350D03*
X28036510Y49655350D03*
%TO.N,BUSA*%
X35602200Y62365350D03*
X34437200Y49650350D03*
X34437200Y56109840D03*
D25*
%TO.N,Net-(BAT2--)*%
X22827200Y42134759D03*
D24*
%TO.N,3V3RF*%
X39852200Y75900350D03*
X45052200Y76750350D03*
X41077200Y82240350D03*
X36240000Y83025000D03*
X44477200Y82040350D03*
%TO.N,1V8*%
X45015510Y53640350D03*
X52964570Y58734794D03*
%TO.N,/Thermister & Digital Peripheral System/3V3MEM*%
X38827200Y34957030D03*
X38242210Y25711360D03*
%TO.N,Net-(U16-MODE)*%
X47505000Y33220000D03*
X46565000Y37980000D03*
%TO.N,Net-(U16-VOUT)*%
X47454200Y40265350D03*
X42958200Y37590350D03*
X42958200Y36740350D03*
X43258200Y37165350D03*
D25*
%TO.N,Net-(BAT3--)*%
X22689570Y24189794D03*
%TO.N,Net-(BAT3-+)*%
X22674570Y29459794D03*
%TO.N,Net-(BAT1-+)*%
X22634570Y63549794D03*
%TO.N,Net-(BAT2-+)*%
X22774570Y47134794D03*
D24*
%TO.N,Net-(U16-SW1)*%
X47252200Y32590350D03*
%TO.N,Net-(U16-SW2)*%
X46002200Y32590350D03*
%TO.N,nDRESET*%
X52527200Y43690350D03*
X30452200Y19315450D03*
X30427200Y16109840D03*
D25*
%TO.N,VREC*%
X50795000Y29735000D03*
X51177200Y15325350D03*
D24*
X52874570Y60729794D03*
X32877200Y13900350D03*
D25*
%TO.N,VSUPPLY*%
X29405000Y32305000D03*
D24*
X52127200Y50609840D03*
D25*
X50749000Y37040350D03*
D24*
X50727200Y48259840D03*
%TO.N,Net-(U46-VDDA_(3V3))*%
X43677200Y20965350D03*
X33927200Y30290350D03*
X35427120Y15265350D03*
X27725000Y23385000D03*
%TD*%
D27*
%TO.N,/Battery 1 Conditioning/nSHDNCHG1*%
X33927200Y18325350D02*
X33927200Y17915350D01*
X28005873Y21875350D02*
X30377200Y21875350D01*
X26904570Y22976653D02*
X28005873Y21875350D01*
X30377200Y21875350D02*
X33927200Y18325350D01*
X26904570Y23829794D02*
X26904570Y22976653D01*
X26309570Y24424794D02*
X26904570Y23829794D01*
X26309570Y30839794D02*
X26309570Y24424794D01*
X25975200Y31174164D02*
X26309570Y30839794D01*
X28714570Y44394794D02*
X25975200Y41655424D01*
X25975200Y41655424D02*
X25975200Y31174164D01*
X27377200Y49272164D02*
X28714570Y47934794D01*
X27377200Y54672550D02*
X27377200Y49272164D01*
X28045000Y55340350D02*
X27377200Y54672550D01*
X28714570Y47934794D02*
X28714570Y44394794D01*
%TO.N,/Battery 1 Conditioning/nSHDNBT1*%
X25489570Y44698390D02*
X27806530Y47015350D01*
X25489570Y30874794D02*
X25489570Y44698390D01*
X25889570Y30474794D02*
X25489570Y30874794D01*
X26369570Y22859794D02*
X26369570Y23684794D01*
X26369570Y23684794D02*
X25889570Y24164794D01*
X30656200Y21061350D02*
X28168014Y21061350D01*
X32045000Y19672550D02*
X30656200Y21061350D01*
X28168014Y21061350D02*
X26369570Y22859794D01*
X25889570Y24164794D02*
X25889570Y30474794D01*
X32045000Y19005000D02*
X32045000Y19672550D01*
%TO.N,/I2C Multiplexing/SCLOCK*%
X40334570Y20661990D02*
X39931210Y21065350D01*
X40334570Y18719794D02*
X40334570Y20661990D01*
X32317200Y16500350D02*
X38115126Y16500350D01*
X26874014Y18040350D02*
X30777200Y18040350D01*
X30777200Y18040350D02*
X32317200Y16500350D01*
X38115126Y16500350D02*
X40334570Y18719794D01*
X26349570Y18564794D02*
X26874014Y18040350D01*
X26349570Y18949794D02*
X26349570Y18564794D01*
%TO.N,/Microcontroller/RTCK_LPC*%
X53477200Y56465350D02*
X51199570Y58742980D01*
X51199570Y58742980D02*
X51199570Y60142720D01*
X52027200Y49059840D02*
X53477200Y50509840D01*
X52027200Y40895350D02*
X52027200Y49059840D01*
X45514600Y36154700D02*
X47286550Y36154700D01*
X53477200Y50509840D02*
X53477200Y56465350D01*
X41894600Y32534700D02*
X45514600Y36154700D01*
X41894600Y28192212D02*
X41894600Y32534700D01*
X41359570Y27657182D02*
X41894600Y28192212D01*
X47286550Y36154700D02*
X52027200Y40895350D01*
X51199570Y60142720D02*
X52527200Y61470350D01*
X41359570Y24682720D02*
X41359570Y27657182D01*
X39400000Y20640350D02*
X39400000Y22723150D01*
X39400000Y22723150D02*
X41359570Y24682720D01*
%TO.N,/I2C Multiplexing/SCLOCK*%
X44534600Y31379700D02*
X44429600Y31484700D01*
X44524600Y31369700D02*
X44534600Y31379700D01*
X44524600Y29889700D02*
X44524600Y31369700D01*
X41915000Y27280100D02*
X44524600Y29889700D01*
X39931210Y22541310D02*
X41915000Y24525100D01*
X41915000Y24525100D02*
X41915000Y27280100D01*
X39931210Y21065350D02*
X39931210Y22541310D01*
D28*
%TO.N,/Thermister & Digital Peripheral System/3V3MEM*%
X38827200Y29332424D02*
X38827200Y34957030D01*
X38242210Y28747434D02*
X38827200Y29332424D01*
X38242210Y25711360D02*
X38242210Y28747434D01*
D27*
%TO.N,RADINT0*%
X36247130Y61505420D02*
X36247130Y80590190D01*
X39777200Y57975350D02*
X36247130Y61505420D01*
X34907700Y48340350D02*
X39777200Y53209840D01*
X32965126Y48340350D02*
X34907700Y48340350D01*
X29644570Y43849794D02*
X29644570Y45019794D01*
X31764014Y29865350D02*
X29327200Y29865350D01*
X26877200Y32315350D02*
X26877200Y41082424D01*
X32394364Y29235000D02*
X31764014Y29865350D01*
X29327200Y29865350D02*
X26877200Y32315350D01*
X26877200Y41082424D02*
X29644570Y43849794D01*
X32430000Y29235000D02*
X32394364Y29235000D01*
X39777200Y53209840D02*
X39777200Y57975350D01*
X29644570Y45019794D02*
X32965126Y48340350D01*
%TO.N,/Battery 2 Conditioning/nSHDNBT2*%
X34699570Y28067980D02*
X35927200Y26840350D01*
X34699570Y30664794D02*
X34699570Y28067980D01*
X31294364Y32500000D02*
X32864364Y32500000D01*
X32864364Y32500000D02*
X34699570Y30664794D01*
X30180000Y33614364D02*
X31294364Y32500000D01*
X30180000Y33630000D02*
X30180000Y33614364D01*
D28*
%TO.N,/Test Points/SCK1*%
X26444570Y31747780D02*
X26444570Y41409794D01*
X26444570Y41409794D02*
X29154570Y44119794D01*
X29154570Y44119794D02*
X29154570Y49237210D01*
X28852000Y29340350D02*
X26444570Y31747780D01*
X29154570Y49237210D02*
X29377200Y49459840D01*
X31500000Y29340350D02*
X28852000Y29340350D01*
D27*
%TO.N,/I2C Multiplexing/SCLOCK*%
X25004570Y37361180D02*
X24677400Y37688350D01*
X25004570Y30589794D02*
X25004570Y37361180D01*
X25464570Y19254794D02*
X25464570Y30129794D01*
X26349570Y18949794D02*
X25769570Y18949794D01*
X25769570Y18949794D02*
X25464570Y19254794D01*
X25464570Y30129794D02*
X25004570Y30589794D01*
%TO.N,/I2C Multiplexing/SDATA*%
X22004570Y27814794D02*
X23494570Y26324794D01*
X23494570Y26324794D02*
X23494570Y20544794D01*
X23494570Y20544794D02*
X23489570Y20539794D01*
X22004570Y30659794D02*
X22004570Y27814794D01*
X22464570Y31119794D02*
X22004570Y30659794D01*
X23024570Y31119794D02*
X22464570Y31119794D01*
X22594570Y48829794D02*
X22594570Y55104794D01*
X28930126Y61440350D02*
X30402200Y61440350D01*
X21984570Y48219794D02*
X22594570Y48829794D01*
X22594570Y55104794D02*
X28930126Y61440350D01*
D28*
%TO.N,VNET*%
X33537200Y46240350D02*
X34315850Y46240350D01*
X34315850Y46240350D02*
X41640860Y53565360D01*
D27*
%TO.N,/Battery 3 Conditioning/nSHDNCHG3*%
X36767200Y22415350D02*
X38902200Y24550350D01*
X38902200Y24550350D02*
X38902200Y25065350D01*
X28137625Y22415350D02*
X36767200Y22415350D01*
X27766538Y22786437D02*
X28137625Y22415350D01*
%TO.N,/I2C Multiplexing/SCLOCK*%
X29035126Y60565350D02*
X30402200Y60565350D01*
X30402200Y60565350D02*
X30952200Y60565350D01*
X44429600Y31484700D02*
X44419600Y31484700D01*
X24704570Y55179794D02*
X24704570Y56234794D01*
X32952200Y60040350D02*
X37002200Y55990350D01*
X24704570Y56234794D02*
X29035126Y60565350D01*
X31477200Y60040350D02*
X32952200Y60040350D01*
X30952200Y60565350D02*
X31477200Y60040350D01*
%TO.N,/I2C Multiplexing/SDATA*%
X30402200Y61440350D02*
X31252200Y61440350D01*
X43364600Y25419700D02*
X45149600Y27204700D01*
X24877200Y15977164D02*
X24877200Y16290350D01*
X31252200Y61440350D02*
X31952200Y60740350D01*
X31952200Y60740350D02*
X33138630Y60740350D01*
X45149600Y30364700D02*
X45444600Y30659700D01*
D29*
X22819570Y17658418D02*
X22819570Y17644794D01*
D27*
X43364600Y23569700D02*
X43364600Y25419700D01*
X45444600Y31259700D02*
X45689600Y31504700D01*
X33138630Y60740350D02*
X37902200Y55976780D01*
X37361690Y14659840D02*
X26194524Y14659840D01*
X22819570Y17644794D02*
X22024570Y16849794D01*
X23039570Y17878418D02*
X22819570Y17658418D01*
X41168550Y22306698D02*
X41168550Y18466700D01*
X26194524Y14659840D02*
X24877200Y15977164D01*
X45444600Y30659700D02*
X45444600Y31259700D01*
X43126474Y23331574D02*
X43364600Y23569700D01*
X23489570Y20539794D02*
X23039570Y20089794D01*
X23039570Y20089794D02*
X23039570Y17878418D01*
X45149600Y27204700D02*
X45149600Y30364700D01*
X42193426Y23331574D02*
X43126474Y23331574D01*
X42193426Y23331574D02*
X41168550Y22306698D01*
X45689600Y31504700D02*
X45944600Y31504700D01*
X41168550Y18466700D02*
X37361690Y14659840D01*
D30*
%TO.N,3V3*%
X32164700Y63325350D02*
X32164700Y75172340D01*
X29695000Y77642040D02*
X29695000Y78290350D01*
X29695000Y77642040D02*
X32164700Y75172340D01*
D28*
%TO.N,/Microcontroller/TCK_LPC*%
X39614600Y28224700D02*
X39614600Y32224700D01*
X31152200Y21815350D02*
X32052200Y20915350D01*
X39614600Y32224700D02*
X45427200Y38037300D01*
X45427200Y38625350D02*
X46852200Y40050350D01*
X35927200Y20915350D02*
X39430000Y24418150D01*
X45427200Y38037300D02*
X45427200Y38625350D01*
D31*
X46852200Y46284840D02*
X51827200Y51259840D01*
D28*
X39430000Y24418150D02*
X39430000Y28040100D01*
D31*
X46852200Y45635350D02*
X46852200Y46284840D01*
D28*
X39430000Y28040100D02*
X39614600Y28224700D01*
X46852200Y40050350D02*
X46852200Y45635350D01*
X32052200Y20915350D02*
X35927200Y20915350D01*
D27*
%TO.N,nBOOT*%
X33177200Y25890350D02*
X33177200Y30590350D01*
X32727200Y31040350D02*
X31977200Y31040350D01*
X31977200Y31040350D02*
X31227200Y30290350D01*
X31227200Y30290350D02*
X29727200Y30290350D01*
X27260000Y32757550D02*
X27260000Y40765224D01*
X27260000Y40765224D02*
X30102200Y43607424D01*
X30102200Y44565350D02*
X30377200Y44840350D01*
X30102200Y43607424D02*
X30102200Y44565350D01*
X33177200Y30590350D02*
X32727200Y31040350D01*
X29727200Y30290350D02*
X27260000Y32757550D01*
%TO.N,/Microcontroller/TMS_LPC*%
X46377200Y40375350D02*
X46377200Y47700350D01*
X38119600Y35249700D02*
X39614600Y36744700D01*
X42564600Y38159700D02*
X44161550Y38159700D01*
X39614600Y36744700D02*
X41149600Y36744700D01*
X38119600Y30464700D02*
X38119600Y35249700D01*
X44161550Y38159700D02*
X46377200Y40375350D01*
X46377200Y47700350D02*
X52527200Y53850350D01*
X41149600Y36744700D02*
X42564600Y38159700D01*
X30402200Y25890350D02*
X31873950Y25890350D01*
X32529600Y25234700D02*
X35554600Y25234700D01*
X37202200Y29547300D02*
X38119600Y30464700D01*
X35554600Y25234700D02*
X37202200Y26882300D01*
X31873950Y25890350D02*
X32529600Y25234700D01*
X37202200Y26882300D02*
X37202200Y29547300D01*
D28*
%TO.N,/Microcontroller/nTRST_LPC*%
X42527080Y20065350D02*
X43917200Y20065350D01*
X48952200Y36334840D02*
X53102200Y40484840D01*
X52527200Y48770350D02*
X53102200Y48195350D01*
X48952200Y25100350D02*
X48952200Y36334840D01*
X43917200Y20065350D02*
X48952200Y25100350D01*
X53102200Y40484840D02*
X53102200Y48195350D01*
%TO.N,/Microcontroller/TDO_LPC*%
X31087200Y18565350D02*
X32687200Y16965350D01*
X40765000Y24913150D02*
X40765000Y32260100D01*
X53050000Y55867550D02*
X52527200Y56390350D01*
X51327200Y41403550D02*
X51327200Y49032200D01*
X36460000Y17433150D02*
X36460000Y20608150D01*
X30452200Y18565350D02*
X31087200Y18565350D01*
X53050000Y50755000D02*
X53050000Y55867550D01*
X32687200Y16965350D02*
X35992200Y16965350D01*
X51327200Y49032200D02*
X53050000Y50755000D01*
X40765000Y32260100D02*
X45208450Y36703550D01*
X35992200Y16965350D02*
X36460000Y17433150D01*
X45208450Y36703550D02*
X46627200Y36703550D01*
X36460000Y20608150D02*
X40765000Y24913150D01*
X46627200Y36703550D02*
X51327200Y41403550D01*
D27*
%TO.N,/Battery 2 Conditioning/nSHDNCHG2*%
X27752200Y39475000D02*
X27752200Y35565350D01*
X33327200Y34840350D02*
X35927200Y32240350D01*
X27752200Y35565350D02*
X28477200Y34840350D01*
X35927200Y32240350D02*
X35927200Y30465350D01*
X28477200Y34840350D02*
X33327200Y34840350D01*
D28*
%TO.N,/Microcontroller/TDI_LPC*%
X52319200Y38609424D02*
X52319200Y37653127D01*
X49577200Y34912424D02*
X49577200Y23875350D01*
X51817039Y58797263D02*
X51957101Y58797263D01*
X49577200Y23875350D02*
X41992200Y16290350D01*
X51957101Y58797263D02*
X53927200Y56827164D01*
X50139570Y35474794D02*
X49577200Y34912424D01*
X41992200Y16290350D02*
X41352200Y16290350D01*
X52319200Y37653127D02*
X50140867Y35474794D01*
X53927200Y40217424D02*
X52319200Y38609424D01*
X53927200Y56827164D02*
X53927200Y40217424D01*
X50140867Y35474794D02*
X50139570Y35474794D01*
D27*
%TO.N,nCSRAD*%
X34617200Y61069840D02*
X35477200Y60209840D01*
X34617200Y78940490D02*
X35247130Y79570420D01*
X35247130Y79570420D02*
X35247130Y80590190D01*
X34617200Y61069840D02*
X34617200Y78940490D01*
D32*
%TO.N,Net-(C10-Pad1)*%
X43330000Y40775000D02*
X45436850Y40775000D01*
X35539220Y45540350D02*
X36931730Y44147840D01*
X28252200Y36665350D02*
X28252200Y37815350D01*
X32977200Y44440350D02*
X34077200Y45540350D01*
X42594710Y44147840D02*
X45702200Y41040350D01*
X34077200Y45540350D02*
X35539220Y45540350D01*
X32977200Y42540350D02*
X32977200Y44440350D01*
X28252200Y37815350D02*
X32977200Y42540350D01*
X36931730Y44147840D02*
X42594710Y44147840D01*
X45436850Y40775000D02*
X45702200Y41040350D01*
D28*
%TO.N,/Test Points/MISO1*%
X53229200Y33538286D02*
X52289570Y34477916D01*
X52950126Y36650350D02*
X53727200Y36650350D01*
X52289570Y35989794D02*
X52950126Y36650350D01*
D31*
X53727200Y36650350D02*
X53727200Y36952164D01*
D28*
X52527200Y17650350D02*
X53229200Y18352350D01*
X52289570Y34477916D02*
X52289570Y35989794D01*
D31*
X53727200Y36952164D02*
X52904570Y37774794D01*
D28*
X53229200Y18352350D02*
X53229200Y33538286D01*
%TO.N,n3V3*%
X27985330Y52190350D02*
X28335330Y52540350D01*
X28335330Y52540350D02*
X37277200Y52540350D01*
X35627200Y59340350D02*
X38577200Y56390350D01*
X38577200Y53840350D02*
X38577200Y56390350D01*
X37277200Y52540350D02*
X38577200Y53840350D01*
D30*
%TO.N,VSYS*%
X24344570Y33521060D02*
X24052400Y33813230D01*
D27*
X24315000Y49035000D02*
X24340000Y49060000D01*
D30*
X24339570Y39204794D02*
X24339570Y49010430D01*
X24340000Y49060000D02*
X24340000Y51102630D01*
X24154570Y14152720D02*
X24154570Y18321666D01*
X23349570Y34516060D02*
X23349570Y38214794D01*
X24052400Y51390230D02*
X24052400Y52715550D01*
X23349570Y38214794D02*
X24339570Y39204794D01*
X24344570Y18511666D02*
X24344570Y33521060D01*
X24052400Y33813230D02*
X23349570Y34516060D01*
X27552200Y56215350D02*
X32352200Y56215350D01*
X23302200Y13300350D02*
X24154570Y14152720D01*
X24052400Y52715550D02*
X27552200Y56215350D01*
X24340000Y51102630D02*
X24052400Y51390230D01*
X24154570Y18321666D02*
X24344570Y18511666D01*
D28*
%TO.N,/Test Points/MOSI1*%
X52969570Y17079794D02*
X53777200Y17887424D01*
X53777200Y34747164D02*
X52914570Y35609794D01*
X53777200Y17887424D02*
X53777200Y34747164D01*
D30*
%TO.N,GND*%
X33052200Y63300350D02*
X33052200Y76265350D01*
X31993160Y77324390D02*
X31993160Y78290350D01*
X31993160Y77324390D02*
X33052200Y76265350D01*
D33*
%TO.N,BUSB*%
X35602200Y61240350D02*
X39177200Y57665350D01*
X36077200Y50309840D02*
X39177200Y53409840D01*
X39177200Y53409840D02*
X39177200Y57665350D01*
X28691000Y50309840D02*
X36077200Y50309840D01*
X28036510Y49655350D02*
X28691000Y50309840D01*
D28*
%TO.N,3V3RF*%
X41077200Y82240350D02*
X42662200Y82240350D01*
X36240000Y83025000D02*
X37941140Y83025000D01*
X42662200Y82240350D02*
X42862200Y82040350D01*
X37941140Y83025000D02*
X38725790Y82240350D01*
X42862200Y82040350D02*
X44477200Y82040350D01*
X38725790Y82240350D02*
X41077200Y82240350D01*
D30*
%TO.N,VREC*%
X51752200Y21625350D02*
X50655000Y20528150D01*
X51752200Y28777800D02*
X51752200Y21625350D01*
X50795000Y29735000D02*
X51752200Y28777800D01*
X50655000Y20528150D02*
X50655000Y15847550D01*
X50655000Y15847550D02*
X51177200Y15325350D01*
%TD*%
%TA.AperFunction,Conductor*%
%TO.N,/Battery 1 Conditioning/nSHDNCHG1*%
G36*
X33973521Y18411694D02*
G01*
X33976144Y18407684D01*
X34130910Y18012093D01*
X34130733Y18003140D01*
X34124536Y17997039D01*
X33932413Y17916532D01*
X33923458Y17916495D01*
X33923395Y17916521D01*
X33729858Y17997071D01*
X33723537Y18003414D01*
X33723442Y18012093D01*
X33827315Y18280623D01*
X33829951Y18284670D01*
X33956976Y18411695D01*
X33965248Y18415121D01*
X33973521Y18411694D01*
G37*
%TD.AperFunction*%
%TD*%
%TA.AperFunction,Conductor*%
%TO.N,/Battery 1 Conditioning/nSHDNCHG1*%
G36*
X27846835Y55422480D02*
G01*
X28041169Y55342915D01*
X28047527Y55336609D01*
X28047564Y55336520D01*
X28127128Y55142188D01*
X28127091Y55133233D01*
X28121881Y55127472D01*
X27805190Y54955609D01*
X27796284Y54954675D01*
X27791336Y54957619D01*
X27662268Y55086687D01*
X27658841Y55094960D01*
X27660257Y55100539D01*
X27832123Y55417234D01*
X27839079Y55422868D01*
X27846835Y55422480D01*
G37*
%TD.AperFunction*%
%TD*%
%TA.AperFunction,Conductor*%
%TO.N,/Battery 1 Conditioning/nSHDNBT1*%
G36*
X27608365Y47097480D02*
G01*
X27802699Y47017915D01*
X27809057Y47011609D01*
X27809094Y47011520D01*
X27888658Y46817188D01*
X27888621Y46808233D01*
X27883411Y46802472D01*
X27566720Y46630609D01*
X27557814Y46629675D01*
X27552866Y46632619D01*
X27423798Y46761687D01*
X27420371Y46769960D01*
X27421787Y46775539D01*
X27593653Y47092234D01*
X27600609Y47097868D01*
X27608365Y47097480D01*
G37*
%TD.AperFunction*%
%TD*%
%TA.AperFunction,Conductor*%
%TO.N,/Battery 1 Conditioning/nSHDNBT1*%
G36*
X32144538Y19451573D02*
G01*
X32147483Y19446625D01*
X32249890Y19101165D01*
X32248955Y19092259D01*
X32243194Y19087049D01*
X32049522Y19005895D01*
X32040567Y19005858D01*
X32040478Y19005895D01*
X31846805Y19087049D01*
X31840499Y19093407D01*
X31840109Y19101165D01*
X31942517Y19446625D01*
X31948154Y19453583D01*
X31953735Y19455000D01*
X32136265Y19455000D01*
X32144538Y19451573D01*
G37*
%TD.AperFunction*%
%TD*%
%TA.AperFunction,Conductor*%
%TO.N,/I2C Multiplexing/SCLOCK*%
G36*
X40138327Y21147442D02*
G01*
X40144087Y21142233D01*
X40185427Y21066057D01*
X40315951Y20825541D01*
X40316885Y20816635D01*
X40313941Y20811687D01*
X40184873Y20682619D01*
X40176600Y20679192D01*
X40171019Y20680609D01*
X40036768Y20753465D01*
X39854327Y20852473D01*
X39848692Y20859430D01*
X39849080Y20867186D01*
X39928645Y21061521D01*
X39934951Y21067878D01*
X39934967Y21067885D01*
X40129374Y21147479D01*
X40138327Y21147442D01*
G37*
%TD.AperFunction*%
%TD*%
%TA.AperFunction,Conductor*%
%TO.N,/I2C Multiplexing/SCLOCK*%
G36*
X26484029Y18894245D02*
G01*
X26547404Y18867868D01*
X26553725Y18861525D01*
X26554010Y18853373D01*
X26467114Y18592166D01*
X26464285Y18587586D01*
X26336909Y18460210D01*
X26328636Y18456783D01*
X26320363Y18460210D01*
X26317929Y18463765D01*
X26259922Y18595399D01*
X26146500Y18852789D01*
X26146301Y18861740D01*
X26152490Y18868212D01*
X26152564Y18868244D01*
X26344357Y18948614D01*
X26353310Y18948650D01*
X26484029Y18894245D01*
G37*
%TD.AperFunction*%
%TD*%
%TA.AperFunction,Conductor*%
%TO.N,/Microcontroller/RTCK_LPC*%
G36*
X52329035Y61552480D02*
G01*
X52523369Y61472915D01*
X52529727Y61466609D01*
X52529764Y61466520D01*
X52609328Y61272188D01*
X52609291Y61263233D01*
X52604081Y61257472D01*
X52287390Y61085609D01*
X52278484Y61084675D01*
X52273536Y61087619D01*
X52144468Y61216687D01*
X52141041Y61224960D01*
X52142457Y61230539D01*
X52314323Y61547234D01*
X52321279Y61552868D01*
X52329035Y61552480D01*
G37*
%TD.AperFunction*%
%TD*%
%TA.AperFunction,Conductor*%
%TO.N,/Microcontroller/RTCK_LPC*%
G36*
X39499538Y21086923D02*
G01*
X39502483Y21081975D01*
X39604890Y20736515D01*
X39603955Y20727609D01*
X39598194Y20722399D01*
X39404522Y20641245D01*
X39395567Y20641208D01*
X39395478Y20641245D01*
X39201805Y20722399D01*
X39195499Y20728757D01*
X39195109Y20736515D01*
X39297517Y21081975D01*
X39303154Y21088933D01*
X39308735Y21090350D01*
X39491265Y21090350D01*
X39499538Y21086923D01*
G37*
%TD.AperFunction*%
%TD*%
%TA.AperFunction,Conductor*%
%TO.N,/I2C Multiplexing/SCLOCK*%
G36*
X44642106Y31484756D02*
G01*
X44650363Y31481292D01*
X44653753Y31473004D01*
X44653724Y31472236D01*
X44625365Y31068651D01*
X44621367Y31060638D01*
X44613694Y31057771D01*
X44431252Y31057771D01*
X44422979Y31061198D01*
X44421198Y31063487D01*
X44228614Y31387026D01*
X44227327Y31395887D01*
X44232684Y31403064D01*
X44234132Y31403795D01*
X44427408Y31484782D01*
X44431976Y31485690D01*
X44642106Y31484756D01*
G37*
%TD.AperFunction*%
%TD*%
%TA.AperFunction,Conductor*%
%TO.N,/I2C Multiplexing/SCLOCK*%
G36*
X40030748Y21511923D02*
G01*
X40033693Y21506975D01*
X40136100Y21161515D01*
X40135165Y21152609D01*
X40129404Y21147399D01*
X39935732Y21066245D01*
X39926777Y21066208D01*
X39926688Y21066245D01*
X39733015Y21147399D01*
X39726709Y21153757D01*
X39726319Y21161515D01*
X39828727Y21506975D01*
X39834364Y21513933D01*
X39839945Y21515350D01*
X40022475Y21515350D01*
X40030748Y21511923D01*
G37*
%TD.AperFunction*%
%TD*%
%TA.AperFunction,Conductor*%
%TO.N,/Thermister & Digital Peripheral System/3V3MEM*%
G36*
X39026051Y34874707D02*
G01*
X39032357Y34868349D01*
X39032950Y34861378D01*
X38956236Y34516192D01*
X38951096Y34508859D01*
X38944815Y34507030D01*
X38709585Y34507030D01*
X38701312Y34510457D01*
X38698164Y34516192D01*
X38621449Y34861378D01*
X38622999Y34870197D01*
X38628345Y34874706D01*
X38822680Y34956137D01*
X38831631Y34956173D01*
X39026051Y34874707D01*
G37*
%TD.AperFunction*%
%TD*%
%TA.AperFunction,Conductor*%
%TO.N,/Thermister & Digital Peripheral System/3V3MEM*%
G36*
X38368098Y26157933D02*
G01*
X38371246Y26152198D01*
X38447960Y25807013D01*
X38446410Y25798194D01*
X38441061Y25793684D01*
X38246732Y25712255D01*
X38237777Y25712218D01*
X38237688Y25712255D01*
X38043358Y25793684D01*
X38037052Y25800042D01*
X38036459Y25807013D01*
X38113174Y26152198D01*
X38118314Y26159531D01*
X38124595Y26161360D01*
X38359825Y26161360D01*
X38368098Y26157933D01*
G37*
%TD.AperFunction*%
%TD*%
%TA.AperFunction,Conductor*%
%TO.N,RADINT0*%
G36*
X36445324Y80508142D02*
G01*
X36451630Y80501784D01*
X36452020Y80494026D01*
X36349613Y80148565D01*
X36343976Y80141607D01*
X36338395Y80140190D01*
X36155865Y80140190D01*
X36147592Y80143617D01*
X36144647Y80148565D01*
X36042239Y80494026D01*
X36043174Y80502932D01*
X36048933Y80508141D01*
X36242610Y80589297D01*
X36251561Y80589333D01*
X36445324Y80508142D01*
G37*
%TD.AperFunction*%
%TD*%
%TA.AperFunction,Conductor*%
%TO.N,RADINT0*%
G36*
X32175633Y29599152D02*
G01*
X32218417Y29579514D01*
X32221806Y29577156D01*
X32241535Y29557427D01*
X32347518Y29503426D01*
X32401914Y29494811D01*
X32404958Y29493890D01*
X32505905Y29447555D01*
X32511994Y29440990D01*
X32511852Y29432489D01*
X32432564Y29238831D01*
X32426258Y29232473D01*
X32426169Y29232436D01*
X32231250Y29152632D01*
X32222295Y29152669D01*
X32216898Y29157255D01*
X32169847Y29232473D01*
X32031754Y29453234D01*
X32030273Y29462062D01*
X32033399Y29467707D01*
X32162484Y29596792D01*
X32170756Y29600218D01*
X32175633Y29599152D01*
G37*
%TD.AperFunction*%
%TD*%
%TA.AperFunction,Conductor*%
%TO.N,/Battery 2 Conditioning/nSHDNBT2*%
G36*
X35687389Y27225093D02*
G01*
X36004082Y27053228D01*
X36009717Y27046271D01*
X36009328Y27038513D01*
X35929764Y26844181D01*
X35923458Y26837823D01*
X35923369Y26837786D01*
X35729037Y26758222D01*
X35720082Y26758259D01*
X35714322Y26763468D01*
X35542457Y27080161D01*
X35541524Y27089066D01*
X35544466Y27094012D01*
X35673537Y27223083D01*
X35681809Y27226509D01*
X35687389Y27225093D01*
G37*
%TD.AperFunction*%
%TD*%
%TA.AperFunction,Conductor*%
%TO.N,/Battery 2 Conditioning/nSHDNBT2*%
G36*
X30386825Y33711972D02*
G01*
X30392746Y33706456D01*
X30555716Y33383810D01*
X30556388Y33374880D01*
X30553546Y33370262D01*
X30424464Y33241180D01*
X30416191Y33237753D01*
X30410338Y33239322D01*
X30160224Y33383810D01*
X30102740Y33417018D01*
X30097292Y33424123D01*
X30097765Y33431580D01*
X30177435Y33626171D01*
X30183741Y33632528D01*
X30183757Y33632535D01*
X30377871Y33712009D01*
X30386825Y33711972D01*
G37*
%TD.AperFunction*%
%TD*%
%TA.AperFunction,Conductor*%
%TO.N,/Test Points/SCK1*%
G36*
X29181040Y49541149D02*
G01*
X29375008Y49461738D01*
X29378870Y49459160D01*
X29456656Y49380884D01*
X29526998Y49310100D01*
X29530399Y49301816D01*
X29526946Y49293554D01*
X29525895Y49292627D01*
X29284742Y49104530D01*
X29277546Y49102056D01*
X29043588Y49102056D01*
X29035315Y49105483D01*
X29031888Y49113756D01*
X29032443Y49117315D01*
X29088725Y49293554D01*
X29165473Y49533878D01*
X29171253Y49540715D01*
X29180176Y49541462D01*
X29181040Y49541149D01*
G37*
%TD.AperFunction*%
%TD*%
%TA.AperFunction,Conductor*%
%TO.N,/Test Points/SCK1*%
G36*
X31413166Y29544551D02*
G01*
X31417676Y29539202D01*
X31499105Y29344872D01*
X31499142Y29335917D01*
X31499105Y29335828D01*
X31417676Y29141499D01*
X31411318Y29135193D01*
X31404347Y29134600D01*
X31059162Y29211314D01*
X31051829Y29216454D01*
X31050000Y29222735D01*
X31050000Y29457966D01*
X31053427Y29466239D01*
X31059159Y29469386D01*
X31404347Y29546101D01*
X31413166Y29544551D01*
G37*
%TD.AperFunction*%
%TD*%
%TA.AperFunction,Conductor*%
%TO.N,/I2C Multiplexing/SCLOCK*%
G36*
X24884517Y37770442D02*
G01*
X24890277Y37765233D01*
X24931617Y37689057D01*
X25062141Y37448541D01*
X25063075Y37439635D01*
X25060131Y37434687D01*
X24931063Y37305619D01*
X24922790Y37302192D01*
X24917209Y37303609D01*
X24782958Y37376465D01*
X24600517Y37475473D01*
X24594882Y37482430D01*
X24595270Y37490186D01*
X24674835Y37684521D01*
X24681141Y37690878D01*
X24681157Y37690885D01*
X24875564Y37770479D01*
X24884517Y37770442D01*
G37*
%TD.AperFunction*%
%TD*%
%TA.AperFunction,Conductor*%
%TO.N,/I2C Multiplexing/SCLOCK*%
G36*
X26262311Y19153750D02*
G01*
X26267521Y19147989D01*
X26348675Y18954316D01*
X26348712Y18945361D01*
X26348675Y18945272D01*
X26267521Y18751600D01*
X26261163Y18745294D01*
X26253405Y18744904D01*
X25907945Y18847312D01*
X25900987Y18852949D01*
X25899570Y18858530D01*
X25899570Y19041059D01*
X25902997Y19049332D01*
X25907943Y19052277D01*
X26253406Y19154685D01*
X26262311Y19153750D01*
G37*
%TD.AperFunction*%
%TD*%
%TA.AperFunction,Conductor*%
%TO.N,/I2C Multiplexing/SDATA*%
G36*
X23593999Y20985372D02*
G01*
X23596982Y20980290D01*
X23694615Y20635874D01*
X23693575Y20626980D01*
X23687881Y20621892D01*
X23494092Y20540689D01*
X23485137Y20540652D01*
X23485048Y20540689D01*
X23291505Y20621788D01*
X23285199Y20628146D01*
X23284855Y20636052D01*
X23369337Y20907674D01*
X23392012Y20980574D01*
X23397741Y20987456D01*
X23403184Y20988799D01*
X23585726Y20988799D01*
X23593999Y20985372D01*
G37*
%TD.AperFunction*%
%TD*%
%TA.AperFunction,Conductor*%
%TO.N,/I2C Multiplexing/SDATA*%
G36*
X22937311Y31323750D02*
G01*
X22942521Y31317989D01*
X23023675Y31124316D01*
X23023712Y31115361D01*
X23023675Y31115272D01*
X22942521Y30921600D01*
X22936163Y30915294D01*
X22928405Y30914904D01*
X22582945Y31017312D01*
X22575987Y31022949D01*
X22574570Y31028530D01*
X22574570Y31211059D01*
X22577997Y31219332D01*
X22582943Y31222277D01*
X22928406Y31324685D01*
X22937311Y31323750D01*
G37*
%TD.AperFunction*%
%TD*%
%TA.AperFunction,Conductor*%
%TO.N,/I2C Multiplexing/SDATA*%
G36*
X30314941Y61644306D02*
G01*
X30320151Y61638545D01*
X30401305Y61444872D01*
X30401342Y61435917D01*
X30401305Y61435828D01*
X30320151Y61242156D01*
X30313793Y61235850D01*
X30306035Y61235460D01*
X29960575Y61337868D01*
X29953617Y61343505D01*
X29952200Y61349086D01*
X29952200Y61531615D01*
X29955627Y61539888D01*
X29960573Y61542833D01*
X30306036Y61645241D01*
X30314941Y61644306D01*
G37*
%TD.AperFunction*%
%TD*%
%TA.AperFunction,Conductor*%
%TO.N,/I2C Multiplexing/SDATA*%
G36*
X22238233Y48602526D02*
G01*
X22367301Y48473458D01*
X22370728Y48465185D01*
X22369311Y48459604D01*
X22197448Y48142913D01*
X22190490Y48137277D01*
X22182732Y48137666D01*
X21988400Y48217230D01*
X21982042Y48223536D01*
X21982005Y48223625D01*
X21902441Y48417957D01*
X21902478Y48426912D01*
X21907685Y48432671D01*
X22224380Y48604537D01*
X22233285Y48605470D01*
X22238233Y48602526D01*
G37*
%TD.AperFunction*%
%TD*%
%TA.AperFunction,Conductor*%
%TO.N,VNET*%
G36*
X33978039Y46369386D02*
G01*
X33985371Y46364247D01*
X33987200Y46357966D01*
X33987200Y46122735D01*
X33983773Y46114462D01*
X33978038Y46111314D01*
X33632852Y46034600D01*
X33624033Y46036150D01*
X33619524Y46041498D01*
X33538093Y46235831D01*
X33538057Y46244782D01*
X33619524Y46439204D01*
X33625881Y46445508D01*
X33632852Y46446101D01*
X33978039Y46369386D01*
G37*
%TD.AperFunction*%
%TD*%
%TA.AperFunction,Conductor*%
%TO.N,VNET*%
G36*
X41442039Y53647758D02*
G01*
X41637029Y53567925D01*
X41643387Y53561619D01*
X41643424Y53561530D01*
X41723257Y53366540D01*
X41723220Y53357585D01*
X41718710Y53352236D01*
X41420382Y53162399D01*
X41411563Y53160849D01*
X41405828Y53163997D01*
X41239496Y53330329D01*
X41236069Y53338602D01*
X41237897Y53344882D01*
X41427735Y53643212D01*
X41435068Y53648351D01*
X41442039Y53647758D01*
G37*
%TD.AperFunction*%
%TD*%
%TA.AperFunction,Conductor*%
%TO.N,/Battery 3 Conditioning/nSHDNCHG3*%
G36*
X39100394Y24983302D02*
G01*
X39106700Y24976944D01*
X39107090Y24969186D01*
X39004683Y24623725D01*
X38999046Y24616767D01*
X38993465Y24615350D01*
X38810935Y24615350D01*
X38802662Y24618777D01*
X38799717Y24623725D01*
X38697309Y24969186D01*
X38698244Y24978092D01*
X38704003Y24983301D01*
X38897680Y25064457D01*
X38906631Y25064493D01*
X39100394Y24983302D01*
G37*
%TD.AperFunction*%
%TD*%
%TA.AperFunction,Conductor*%
%TO.N,/Battery 3 Conditioning/nSHDNCHG3*%
G36*
X27973655Y22868529D02*
G01*
X27979415Y22863320D01*
X28020755Y22787144D01*
X28151279Y22546628D01*
X28152213Y22537722D01*
X28149269Y22532774D01*
X28020201Y22403706D01*
X28011928Y22400279D01*
X28006347Y22401696D01*
X27872096Y22474552D01*
X27689655Y22573560D01*
X27684020Y22580517D01*
X27684408Y22588273D01*
X27763973Y22782608D01*
X27770279Y22788965D01*
X27770295Y22788972D01*
X27964702Y22868566D01*
X27973655Y22868529D01*
G37*
%TD.AperFunction*%
%TD*%
%TA.AperFunction,Conductor*%
%TO.N,/I2C Multiplexing/SCLOCK*%
G36*
X30314941Y60769306D02*
G01*
X30320151Y60763545D01*
X30401305Y60569872D01*
X30401342Y60560917D01*
X30401305Y60560828D01*
X30320151Y60367156D01*
X30313793Y60360850D01*
X30306035Y60360460D01*
X29960575Y60462868D01*
X29953617Y60468505D01*
X29952200Y60474086D01*
X29952200Y60656615D01*
X29955627Y60664888D01*
X29960573Y60667833D01*
X30306036Y60770241D01*
X30314941Y60769306D01*
G37*
%TD.AperFunction*%
%TD*%
%TA.AperFunction,Conductor*%
%TO.N,/I2C Multiplexing/SCLOCK*%
G36*
X30843825Y60667833D02*
G01*
X30850783Y60662196D01*
X30852200Y60656615D01*
X30852200Y60474086D01*
X30848773Y60465813D01*
X30843825Y60462868D01*
X30498364Y60360460D01*
X30489458Y60361395D01*
X30484248Y60367156D01*
X30403093Y60560831D01*
X30403057Y60569782D01*
X30484249Y60763547D01*
X30490606Y60769851D01*
X30498363Y60770241D01*
X30843825Y60667833D01*
G37*
%TD.AperFunction*%
%TD*%
%TA.AperFunction,Conductor*%
%TO.N,/I2C Multiplexing/SCLOCK*%
G36*
X24804108Y55626367D02*
G01*
X24807053Y55621419D01*
X24909460Y55275959D01*
X24908525Y55267053D01*
X24902764Y55261843D01*
X24709092Y55180689D01*
X24700137Y55180652D01*
X24700048Y55180689D01*
X24506375Y55261843D01*
X24500069Y55268201D01*
X24499679Y55275959D01*
X24602087Y55621419D01*
X24607724Y55628377D01*
X24613305Y55629794D01*
X24795835Y55629794D01*
X24804108Y55626367D01*
G37*
%TD.AperFunction*%
%TD*%
%TA.AperFunction,Conductor*%
%TO.N,/I2C Multiplexing/SCLOCK*%
G36*
X36762389Y56375093D02*
G01*
X37079082Y56203228D01*
X37084717Y56196271D01*
X37084328Y56188513D01*
X37004764Y55994181D01*
X36998458Y55987823D01*
X36998369Y55987786D01*
X36804037Y55908222D01*
X36795082Y55908259D01*
X36789322Y55913468D01*
X36617457Y56230161D01*
X36616524Y56239066D01*
X36619466Y56244012D01*
X36748537Y56373083D01*
X36756809Y56376509D01*
X36762389Y56375093D01*
G37*
%TD.AperFunction*%
%TD*%
%TA.AperFunction,Conductor*%
%TO.N,/I2C Multiplexing/SDATA*%
G36*
X30843825Y61542833D02*
G01*
X30850783Y61537196D01*
X30852200Y61531615D01*
X30852200Y61349086D01*
X30848773Y61340813D01*
X30843825Y61337868D01*
X30498364Y61235460D01*
X30489458Y61236395D01*
X30484248Y61242156D01*
X30403093Y61435831D01*
X30403057Y61444782D01*
X30484249Y61638547D01*
X30490606Y61644851D01*
X30498363Y61645241D01*
X30843825Y61542833D01*
G37*
%TD.AperFunction*%
%TD*%
%TA.AperFunction,Conductor*%
%TO.N,/I2C Multiplexing/SDATA*%
G36*
X25088393Y16290394D02*
G01*
X25096654Y16286941D01*
X25100055Y16278657D01*
X25099890Y16276737D01*
X25045275Y15954811D01*
X25042013Y15948495D01*
X24913884Y15820366D01*
X24905611Y15816939D01*
X24897338Y15820366D01*
X24895549Y15822670D01*
X24676181Y16192684D01*
X24674910Y16201547D01*
X24680279Y16208714D01*
X24681724Y16209441D01*
X24874308Y16290142D01*
X24878862Y16291050D01*
X25088393Y16290394D01*
G37*
%TD.AperFunction*%
%TD*%
%TA.AperFunction,Conductor*%
%TO.N,/I2C Multiplexing/SDATA*%
G36*
X37662389Y56361523D02*
G01*
X37979082Y56189658D01*
X37984717Y56182701D01*
X37984328Y56174943D01*
X37904764Y55980611D01*
X37898458Y55974253D01*
X37898369Y55974216D01*
X37704037Y55894652D01*
X37695082Y55894689D01*
X37689322Y55899898D01*
X37517457Y56216591D01*
X37516524Y56225496D01*
X37519466Y56230442D01*
X37648537Y56359513D01*
X37656809Y56362939D01*
X37662389Y56361523D01*
G37*
%TD.AperFunction*%
%TD*%
%TA.AperFunction,Conductor*%
%TO.N,/I2C Multiplexing/SDATA*%
G36*
X22278233Y17232526D02*
G01*
X22407301Y17103458D01*
X22410728Y17095185D01*
X22409311Y17089604D01*
X22237448Y16772913D01*
X22230490Y16767277D01*
X22222732Y16767666D01*
X22028400Y16847230D01*
X22022042Y16853536D01*
X22022005Y16853625D01*
X21942441Y17047957D01*
X21942478Y17056912D01*
X21947685Y17062671D01*
X22264380Y17234537D01*
X22273285Y17235470D01*
X22278233Y17232526D01*
G37*
%TD.AperFunction*%
%TD*%
%TA.AperFunction,Conductor*%
%TO.N,/I2C Multiplexing/SDATA*%
G36*
X23291405Y20621924D02*
G01*
X23485739Y20542359D01*
X23492097Y20536053D01*
X23492134Y20535964D01*
X23571698Y20341632D01*
X23571661Y20332677D01*
X23566451Y20326916D01*
X23249760Y20155053D01*
X23240854Y20154119D01*
X23235906Y20157063D01*
X23106838Y20286131D01*
X23103411Y20294404D01*
X23104827Y20299983D01*
X23276693Y20616678D01*
X23283649Y20622312D01*
X23291405Y20621924D01*
G37*
%TD.AperFunction*%
%TD*%
%TA.AperFunction,Conductor*%
%TO.N,/I2C Multiplexing/SDATA*%
G36*
X42635051Y23434057D02*
G01*
X42642009Y23428420D01*
X42643426Y23422839D01*
X42643426Y23240310D01*
X42639999Y23232037D01*
X42635051Y23229092D01*
X42289590Y23126684D01*
X42280684Y23127619D01*
X42275474Y23133380D01*
X42194319Y23327055D01*
X42194283Y23336006D01*
X42275475Y23529771D01*
X42281832Y23536075D01*
X42289589Y23536465D01*
X42635051Y23434057D01*
G37*
%TD.AperFunction*%
%TD*%
%TA.AperFunction,Conductor*%
%TO.N,/I2C Multiplexing/SDATA*%
G36*
X41995261Y23413704D02*
G01*
X42189595Y23334139D01*
X42195953Y23327833D01*
X42195990Y23327744D01*
X42275554Y23133412D01*
X42275517Y23124457D01*
X42270307Y23118696D01*
X41953616Y22946833D01*
X41944710Y22945899D01*
X41939762Y22948843D01*
X41810694Y23077911D01*
X41807267Y23086184D01*
X41808683Y23091763D01*
X41980549Y23408458D01*
X41987505Y23414092D01*
X41995261Y23413704D01*
G37*
%TD.AperFunction*%
%TD*%
%TA.AperFunction,Conductor*%
%TO.N,/I2C Multiplexing/SDATA*%
G36*
X45792643Y31656720D02*
G01*
X45941827Y31508856D01*
X45945291Y31500598D01*
X45945291Y31500509D01*
X45944638Y31291973D01*
X45941185Y31283711D01*
X45932901Y31280310D01*
X45932343Y31280325D01*
X45626919Y31295876D01*
X45619241Y31299288D01*
X45490585Y31427944D01*
X45487158Y31436217D01*
X45490585Y31444490D01*
X45491871Y31445602D01*
X45777429Y31657802D01*
X45786113Y31659985D01*
X45792643Y31656720D01*
G37*
%TD.AperFunction*%
%TD*%
%TA.AperFunction,Conductor*%
%TO.N,/Microcontroller/TCK_LPC*%
G36*
X31359975Y21897711D02*
G01*
X31365324Y21893201D01*
X31555161Y21594873D01*
X31556711Y21586054D01*
X31553563Y21580319D01*
X31387231Y21413987D01*
X31378958Y21410560D01*
X31372677Y21412389D01*
X31074349Y21602226D01*
X31069209Y21609559D01*
X31069802Y21616530D01*
X31149635Y21811520D01*
X31155941Y21817878D01*
X31155957Y21817885D01*
X31351021Y21897748D01*
X31359975Y21897711D01*
G37*
%TD.AperFunction*%
%TD*%
%TA.AperFunction,Conductor*%
%TO.N,/Microcontroller/TCK_LPC*%
G36*
X36162231Y21316714D02*
G01*
X36328563Y21150382D01*
X36331990Y21142109D01*
X36330161Y21135828D01*
X36140324Y20837500D01*
X36132991Y20832360D01*
X36126020Y20832953D01*
X35931030Y20912786D01*
X35924672Y20919092D01*
X35924635Y20919181D01*
X35844802Y21114171D01*
X35844839Y21123126D01*
X35849348Y21128475D01*
X36147678Y21318313D01*
X36156496Y21319862D01*
X36162231Y21316714D01*
G37*
%TD.AperFunction*%
%TD*%
%TA.AperFunction,Conductor*%
%TO.N,/Microcontroller/TCK_LPC*%
G36*
X51628428Y51342218D02*
G01*
X51823369Y51262405D01*
X51829727Y51256099D01*
X51829764Y51256010D01*
X51909577Y51061069D01*
X51909540Y51052114D01*
X51904979Y51046732D01*
X51605292Y50858225D01*
X51596464Y50856721D01*
X51590789Y50859856D01*
X51427215Y51023430D01*
X51423788Y51031703D01*
X51425584Y51037933D01*
X51614091Y51337620D01*
X51621397Y51342798D01*
X51628428Y51342218D01*
G37*
%TD.AperFunction*%
%TD*%
%TA.AperFunction,Conductor*%
%TO.N,/Microcontroller/TCK_LPC*%
G36*
X35840366Y21119551D02*
G01*
X35844876Y21114202D01*
X35926305Y20919872D01*
X35926342Y20910917D01*
X35926305Y20910828D01*
X35844876Y20716499D01*
X35838518Y20710193D01*
X35831547Y20709600D01*
X35486362Y20786314D01*
X35479029Y20791454D01*
X35477200Y20797735D01*
X35477200Y21032966D01*
X35480627Y21041239D01*
X35486359Y21044386D01*
X35831547Y21121101D01*
X35840366Y21119551D01*
G37*
%TD.AperFunction*%
%TD*%
%TA.AperFunction,Conductor*%
%TO.N,nBOOT*%
G36*
X33276738Y26336923D02*
G01*
X33279683Y26331975D01*
X33382090Y25986515D01*
X33381155Y25977609D01*
X33375394Y25972399D01*
X33181722Y25891245D01*
X33172767Y25891208D01*
X33172678Y25891245D01*
X32979005Y25972399D01*
X32972699Y25978757D01*
X32972309Y25986515D01*
X33074717Y26331975D01*
X33080354Y26338933D01*
X33085935Y26340350D01*
X33268465Y26340350D01*
X33276738Y26336923D01*
G37*
%TD.AperFunction*%
%TD*%
%TA.AperFunction,Conductor*%
%TO.N,nBOOT*%
G36*
X30180203Y44922002D02*
G01*
X30372679Y44843201D01*
X30379036Y44836896D01*
X30379062Y44836833D01*
X30459127Y44642608D01*
X30459112Y44633653D01*
X30453467Y44627647D01*
X30266052Y44535614D01*
X30234795Y44520264D01*
X30204640Y44505456D01*
X30199483Y44504258D01*
X30019415Y44504258D01*
X30011142Y44507685D01*
X30007715Y44515958D01*
X30008536Y44520264D01*
X30164971Y44915451D01*
X30171201Y44921879D01*
X30180154Y44922021D01*
X30180203Y44922002D01*
G37*
%TD.AperFunction*%
%TD*%
%TA.AperFunction,Conductor*%
%TO.N,/Microcontroller/TMS_LPC*%
G36*
X52329035Y53932480D02*
G01*
X52523369Y53852915D01*
X52529727Y53846609D01*
X52529764Y53846520D01*
X52609328Y53652188D01*
X52609291Y53643233D01*
X52604081Y53637472D01*
X52287390Y53465609D01*
X52278484Y53464675D01*
X52273536Y53467619D01*
X52144468Y53596687D01*
X52141041Y53604960D01*
X52142457Y53610539D01*
X52314323Y53927234D01*
X52321279Y53932868D01*
X52329035Y53932480D01*
G37*
%TD.AperFunction*%
%TD*%
%TA.AperFunction,Conductor*%
%TO.N,/Microcontroller/TMS_LPC*%
G36*
X30843825Y25992833D02*
G01*
X30850783Y25987196D01*
X30852200Y25981615D01*
X30852200Y25799086D01*
X30848773Y25790813D01*
X30843825Y25787868D01*
X30498364Y25685460D01*
X30489458Y25686395D01*
X30484248Y25692156D01*
X30403093Y25885831D01*
X30403057Y25894782D01*
X30484249Y26088547D01*
X30490606Y26094851D01*
X30498363Y26095241D01*
X30843825Y25992833D01*
G37*
%TD.AperFunction*%
%TD*%
%TA.AperFunction,Conductor*%
%TO.N,/Microcontroller/nTRST_LPC*%
G36*
X42967919Y20194386D02*
G01*
X42975251Y20189247D01*
X42977080Y20182966D01*
X42977080Y19947735D01*
X42973653Y19939462D01*
X42967918Y19936314D01*
X42622732Y19859600D01*
X42613913Y19861150D01*
X42609404Y19866498D01*
X42527973Y20060831D01*
X42527937Y20069782D01*
X42609404Y20264204D01*
X42615761Y20270508D01*
X42622732Y20271101D01*
X42967919Y20194386D01*
G37*
%TD.AperFunction*%
%TD*%
%TA.AperFunction,Conductor*%
%TO.N,/Microcontroller/nTRST_LPC*%
G36*
X52734975Y48852711D02*
G01*
X52740324Y48848201D01*
X52930161Y48549873D01*
X52931711Y48541054D01*
X52928563Y48535319D01*
X52762231Y48368987D01*
X52753958Y48365560D01*
X52747677Y48367389D01*
X52449349Y48557226D01*
X52444209Y48564559D01*
X52444802Y48571530D01*
X52524635Y48766520D01*
X52530941Y48772878D01*
X52530957Y48772885D01*
X52726021Y48852748D01*
X52734975Y48852711D01*
G37*
%TD.AperFunction*%
%TD*%
%TA.AperFunction,Conductor*%
%TO.N,/Microcontroller/TDO_LPC*%
G36*
X52734975Y56472711D02*
G01*
X52740324Y56468201D01*
X52930161Y56169873D01*
X52931711Y56161054D01*
X52928563Y56155319D01*
X52762231Y55988987D01*
X52753958Y55985560D01*
X52747677Y55987389D01*
X52449349Y56177226D01*
X52444209Y56184559D01*
X52444802Y56191530D01*
X52524635Y56386520D01*
X52530941Y56392878D01*
X52530957Y56392885D01*
X52726021Y56472748D01*
X52734975Y56472711D01*
G37*
%TD.AperFunction*%
%TD*%
%TA.AperFunction,Conductor*%
%TO.N,/Microcontroller/TDO_LPC*%
G36*
X30893039Y18694386D02*
G01*
X30900371Y18689247D01*
X30902200Y18682966D01*
X30902200Y18447735D01*
X30898773Y18439462D01*
X30893038Y18436314D01*
X30547852Y18359600D01*
X30539033Y18361150D01*
X30534524Y18366498D01*
X30453093Y18560831D01*
X30453057Y18569782D01*
X30534524Y18764204D01*
X30540881Y18770508D01*
X30547852Y18771101D01*
X30893039Y18694386D01*
G37*
%TD.AperFunction*%
%TD*%
%TA.AperFunction,Conductor*%
%TO.N,/Battery 2 Conditioning/nSHDNCHG2*%
G36*
X27950394Y39392952D02*
G01*
X27956700Y39386594D01*
X27957090Y39378836D01*
X27854683Y39033375D01*
X27849046Y39026417D01*
X27843465Y39025000D01*
X27660935Y39025000D01*
X27652662Y39028427D01*
X27649717Y39033375D01*
X27547309Y39378836D01*
X27548244Y39387742D01*
X27554003Y39392951D01*
X27747680Y39474107D01*
X27756631Y39474143D01*
X27950394Y39392952D01*
G37*
%TD.AperFunction*%
%TD*%
%TA.AperFunction,Conductor*%
%TO.N,/Battery 2 Conditioning/nSHDNCHG2*%
G36*
X36026738Y30911923D02*
G01*
X36029683Y30906975D01*
X36132090Y30561515D01*
X36131155Y30552609D01*
X36125394Y30547399D01*
X35931722Y30466245D01*
X35922767Y30466208D01*
X35922678Y30466245D01*
X35729005Y30547399D01*
X35722699Y30553757D01*
X35722309Y30561515D01*
X35824717Y30906975D01*
X35830354Y30913933D01*
X35835935Y30915350D01*
X36018465Y30915350D01*
X36026738Y30911923D01*
G37*
%TD.AperFunction*%
%TD*%
%TA.AperFunction,Conductor*%
%TO.N,/Microcontroller/TDI_LPC*%
G36*
X51984374Y58948166D02*
G01*
X52268534Y58665394D01*
X52271981Y58657130D01*
X52268574Y58648848D01*
X52102212Y58482486D01*
X52093939Y58479059D01*
X52090522Y58479569D01*
X51743207Y58585642D01*
X51736295Y58591336D01*
X51735434Y58600249D01*
X51735790Y58601249D01*
X51815432Y58795773D01*
X51818020Y58799644D01*
X51967886Y58948184D01*
X51976173Y58951573D01*
X51984374Y58948166D01*
G37*
%TD.AperFunction*%
%TD*%
%TA.AperFunction,Conductor*%
%TO.N,/Microcontroller/TDI_LPC*%
G36*
X41793039Y16419386D02*
G01*
X41800371Y16414247D01*
X41802200Y16407966D01*
X41802200Y16172735D01*
X41798773Y16164462D01*
X41793038Y16161314D01*
X41447852Y16084600D01*
X41439033Y16086150D01*
X41434524Y16091498D01*
X41353093Y16285831D01*
X41353057Y16294782D01*
X41434524Y16489204D01*
X41440881Y16495508D01*
X41447852Y16496101D01*
X41793039Y16419386D01*
G37*
%TD.AperFunction*%
%TD*%
%TA.AperFunction,Conductor*%
%TO.N,nCSRAD*%
G36*
X35237389Y60594583D02*
G01*
X35554082Y60422718D01*
X35559717Y60415761D01*
X35559328Y60408003D01*
X35479764Y60213671D01*
X35473458Y60207313D01*
X35473369Y60207276D01*
X35279037Y60127712D01*
X35270082Y60127749D01*
X35264322Y60132958D01*
X35092457Y60449651D01*
X35091524Y60458556D01*
X35094466Y60463502D01*
X35223537Y60592573D01*
X35231809Y60595999D01*
X35237389Y60594583D01*
G37*
%TD.AperFunction*%
%TD*%
%TA.AperFunction,Conductor*%
%TO.N,nCSRAD*%
G36*
X35445324Y80508142D02*
G01*
X35451630Y80501784D01*
X35452020Y80494026D01*
X35349613Y80148565D01*
X35343976Y80141607D01*
X35338395Y80140190D01*
X35155865Y80140190D01*
X35147592Y80143617D01*
X35144647Y80148565D01*
X35042239Y80494026D01*
X35043174Y80502932D01*
X35048933Y80508141D01*
X35242610Y80589297D01*
X35251561Y80589333D01*
X35445324Y80508142D01*
G37*
%TD.AperFunction*%
%TD*%
%TA.AperFunction,Conductor*%
%TO.N,Net-(C10-Pad1)*%
G36*
X43342294Y40999317D02*
G01*
X43768949Y40975614D01*
X43777019Y40971734D01*
X43780000Y40963932D01*
X43780000Y40586069D01*
X43776573Y40577796D01*
X43768949Y40574387D01*
X43342294Y40550684D01*
X43333843Y40553647D01*
X43329963Y40561717D01*
X43329945Y40562314D01*
X43329000Y40775000D01*
X43329945Y40987688D01*
X43333409Y40995945D01*
X43341697Y40999335D01*
X43342294Y40999317D01*
G37*
%TD.AperFunction*%
%TD*%
%TA.AperFunction,Conductor*%
%TO.N,Net-(C10-Pad1)*%
G36*
X45426967Y41315610D02*
G01*
X45699746Y41043792D01*
X45703187Y41035525D01*
X45703187Y41035475D01*
X45702226Y40650975D01*
X45698778Y40642710D01*
X45691622Y40639355D01*
X45020465Y40576205D01*
X45011907Y40578842D01*
X45007720Y40586758D01*
X45007669Y40587854D01*
X45007669Y40969572D01*
X45011096Y40977845D01*
X45011813Y40978505D01*
X45079231Y41035525D01*
X45411154Y41316256D01*
X45419682Y41318981D01*
X45426967Y41315610D01*
G37*
%TD.AperFunction*%
%TD*%
%TA.AperFunction,Conductor*%
%TO.N,Net-(C10-Pad1)*%
G36*
X28449405Y37111923D02*
G01*
X28452814Y37104299D01*
X28476516Y36677645D01*
X28473553Y36669194D01*
X28465483Y36665314D01*
X28464886Y36665296D01*
X28252252Y36664351D01*
X28252148Y36664351D01*
X28039513Y36665296D01*
X28031255Y36668760D01*
X28027865Y36677048D01*
X28027883Y36677645D01*
X28051586Y37104299D01*
X28055467Y37112369D01*
X28063268Y37115350D01*
X28441132Y37115350D01*
X28449405Y37111923D01*
G37*
%TD.AperFunction*%
%TD*%
%TA.AperFunction,Conductor*%
%TO.N,Net-(C10-Pad1)*%
G36*
X33926412Y45691191D02*
G01*
X33926833Y45690795D01*
X33999919Y45618355D01*
X34077869Y45541094D01*
X34077943Y45541020D01*
X34156233Y45462032D01*
X34227631Y45389996D01*
X34231021Y45381709D01*
X34227557Y45373451D01*
X34227123Y45373042D01*
X33908672Y45088112D01*
X33900221Y45085149D01*
X33892597Y45088558D01*
X33625407Y45355748D01*
X33621980Y45364021D01*
X33624960Y45371822D01*
X33909892Y45690275D01*
X33917961Y45694154D01*
X33926412Y45691191D01*
G37*
%TD.AperFunction*%
%TD*%
%TA.AperFunction,Conductor*%
%TO.N,Net-(C10-Pad1)*%
G36*
X45285726Y41742902D02*
G01*
X45775027Y41456820D01*
X45846484Y41415041D01*
X45851897Y41407907D01*
X45851399Y41400489D01*
X45704763Y41044155D01*
X45698445Y41037808D01*
X45698395Y41037787D01*
X45342061Y40891151D01*
X45333107Y40891172D01*
X45327509Y40896066D01*
X45240925Y41044155D01*
X44999648Y41456823D01*
X44998431Y41465691D01*
X45001474Y41470996D01*
X45271553Y41741075D01*
X45279825Y41744501D01*
X45285726Y41742902D01*
G37*
%TD.AperFunction*%
%TD*%
%TA.AperFunction,Conductor*%
%TO.N,Net-(C10-Pad1)*%
G36*
X34089494Y45764667D02*
G01*
X34516149Y45740964D01*
X34524219Y45737084D01*
X34527200Y45729282D01*
X34527200Y45351419D01*
X34523773Y45343146D01*
X34516149Y45339737D01*
X34089494Y45316034D01*
X34081043Y45318997D01*
X34077163Y45327067D01*
X34077145Y45327664D01*
X34076200Y45540350D01*
X34077145Y45753038D01*
X34080609Y45761295D01*
X34088897Y45764685D01*
X34089494Y45764667D01*
G37*
%TD.AperFunction*%
%TD*%
%TA.AperFunction,Conductor*%
%TO.N,/Test Points/MISO1*%
G36*
X52762231Y18051714D02*
G01*
X52928563Y17885382D01*
X52931990Y17877109D01*
X52930161Y17870828D01*
X52740324Y17572500D01*
X52732991Y17567360D01*
X52726020Y17567953D01*
X52531030Y17647786D01*
X52524672Y17654092D01*
X52524635Y17654181D01*
X52444802Y17849171D01*
X52444839Y17858126D01*
X52449348Y17863475D01*
X52747678Y18053313D01*
X52756496Y18054862D01*
X52762231Y18051714D01*
G37*
%TD.AperFunction*%
%TD*%
%TA.AperFunction,Conductor*%
%TO.N,/Test Points/MISO1*%
G36*
X53112296Y37857135D02*
G01*
X53117678Y37852574D01*
X53306185Y37552887D01*
X53307689Y37544059D01*
X53304554Y37538384D01*
X53140980Y37374810D01*
X53132707Y37371383D01*
X53126477Y37373179D01*
X52826790Y37561686D01*
X52821612Y37568992D01*
X52822191Y37576022D01*
X52902005Y37770965D01*
X52908311Y37777322D01*
X52908327Y37777329D01*
X53103342Y37857172D01*
X53112296Y37857135D01*
G37*
%TD.AperFunction*%
%TD*%
%TA.AperFunction,Conductor*%
%TO.N,n3V3*%
G36*
X28220361Y52591714D02*
G01*
X28386693Y52425382D01*
X28390120Y52417109D01*
X28388291Y52410828D01*
X28198454Y52112500D01*
X28191121Y52107360D01*
X28184150Y52107953D01*
X27989160Y52187786D01*
X27982802Y52194092D01*
X27982765Y52194181D01*
X27902932Y52389171D01*
X27902969Y52398126D01*
X27907478Y52403475D01*
X28205808Y52593313D01*
X28214626Y52594862D01*
X28220361Y52591714D01*
G37*
%TD.AperFunction*%
%TD*%
%TA.AperFunction,Conductor*%
%TO.N,n3V3*%
G36*
X37190366Y52744551D02*
G01*
X37194876Y52739202D01*
X37276305Y52544872D01*
X37276342Y52535917D01*
X37276305Y52535828D01*
X37194876Y52341499D01*
X37188518Y52335193D01*
X37181547Y52334600D01*
X36836362Y52411314D01*
X36829029Y52416454D01*
X36827200Y52422735D01*
X36827200Y52657966D01*
X36830627Y52666239D01*
X36836359Y52669386D01*
X37181547Y52746101D01*
X37190366Y52744551D01*
G37*
%TD.AperFunction*%
%TD*%
%TA.AperFunction,Conductor*%
%TO.N,n3V3*%
G36*
X35834975Y59422711D02*
G01*
X35840324Y59418201D01*
X36030161Y59119873D01*
X36031711Y59111054D01*
X36028563Y59105319D01*
X35862231Y58938987D01*
X35853958Y58935560D01*
X35847677Y58937389D01*
X35549349Y59127226D01*
X35544209Y59134559D01*
X35544802Y59141530D01*
X35624635Y59336520D01*
X35630941Y59342878D01*
X35630957Y59342885D01*
X35826021Y59422748D01*
X35834975Y59422711D01*
G37*
%TD.AperFunction*%
%TD*%
%TA.AperFunction,Conductor*%
%TO.N,n3V3*%
G36*
X37512231Y52941714D02*
G01*
X37678563Y52775382D01*
X37681990Y52767109D01*
X37680161Y52760828D01*
X37490324Y52462500D01*
X37482991Y52457360D01*
X37476020Y52457953D01*
X37281030Y52537786D01*
X37274672Y52544092D01*
X37274635Y52544181D01*
X37194802Y52739171D01*
X37194839Y52748126D01*
X37199348Y52753475D01*
X37497678Y52943313D01*
X37506496Y52944862D01*
X37512231Y52941714D01*
G37*
%TD.AperFunction*%
%TD*%
%TA.AperFunction,Conductor*%
%TO.N,VSYS*%
G36*
X24417863Y33960915D02*
G01*
X24424181Y33954568D01*
X24424817Y33952493D01*
X24591650Y33148327D01*
X24589975Y33139530D01*
X24582571Y33134494D01*
X24580194Y33134250D01*
X24100104Y33134250D01*
X24091831Y33137677D01*
X24091059Y33138529D01*
X23776270Y33522205D01*
X23773671Y33530774D01*
X23777025Y33537882D01*
X24050742Y33812567D01*
X24054573Y33815125D01*
X24408909Y33960936D01*
X24417863Y33960915D01*
G37*
%TD.AperFunction*%
%TD*%
%TA.AperFunction,Conductor*%
%TO.N,VSYS*%
G36*
X24300963Y52186803D02*
G01*
X24304190Y52180686D01*
X24449808Y51404051D01*
X24447964Y51395288D01*
X24440464Y51390395D01*
X24438337Y51390195D01*
X24052429Y51389231D01*
X24052371Y51389231D01*
X23666462Y51390195D01*
X23658197Y51393643D01*
X23654791Y51401924D01*
X23654991Y51404051D01*
X23800610Y52180686D01*
X23805503Y52188186D01*
X23812110Y52190230D01*
X24292690Y52190230D01*
X24300963Y52186803D01*
G37*
%TD.AperFunction*%
%TD*%
%TA.AperFunction,Conductor*%
%TO.N,VSYS*%
G36*
X23671504Y34550209D02*
G01*
X24323637Y34104014D01*
X24328530Y34096514D01*
X24326686Y34087751D01*
X24325324Y34086106D01*
X24053149Y33812565D01*
X24053107Y33812523D01*
X23779524Y33540306D01*
X23771243Y33536900D01*
X23762978Y33540348D01*
X23761616Y33541993D01*
X23315421Y34194126D01*
X23313577Y34202889D01*
X23316802Y34209004D01*
X23656625Y34548827D01*
X23664897Y34552253D01*
X23671504Y34550209D01*
G37*
%TD.AperFunction*%
%TD*%
%TA.AperFunction,Conductor*%
%TO.N,VSYS*%
G36*
X23697975Y14035946D02*
G01*
X24037795Y13696126D01*
X24041222Y13687853D01*
X24039178Y13681246D01*
X23592983Y13029113D01*
X23585483Y13024220D01*
X23576720Y13026064D01*
X23575075Y13027426D01*
X23301493Y13299643D01*
X23301451Y13299685D01*
X23029275Y13573226D01*
X23025869Y13581507D01*
X23029317Y13589772D01*
X23030956Y13591130D01*
X23683095Y14037330D01*
X23691858Y14039173D01*
X23697975Y14035946D01*
G37*
%TD.AperFunction*%
%TD*%
%TA.AperFunction,Conductor*%
%TO.N,VSYS*%
G36*
X24417787Y51537884D02*
G01*
X24424105Y51531537D01*
X24424754Y51529396D01*
X24587177Y50723368D01*
X24585452Y50714581D01*
X24578019Y50709588D01*
X24575708Y50709357D01*
X24095601Y50709357D01*
X24087328Y50712784D01*
X24086487Y50713720D01*
X23776132Y51099220D01*
X23773614Y51107813D01*
X23776956Y51114813D01*
X24050742Y51389567D01*
X24054573Y51392125D01*
X24408834Y51537905D01*
X24417787Y51537884D01*
G37*
%TD.AperFunction*%
%TD*%
%TA.AperFunction,Conductor*%
%TO.N,/Test Points/MOSI1*%
G36*
X53204601Y17481158D02*
G01*
X53370933Y17314826D01*
X53374360Y17306553D01*
X53372531Y17300272D01*
X53182694Y17001944D01*
X53175361Y16996804D01*
X53168390Y16997397D01*
X52973400Y17077230D01*
X52967042Y17083536D01*
X52967005Y17083625D01*
X52887172Y17278615D01*
X52887209Y17287570D01*
X52891718Y17292919D01*
X53190048Y17482757D01*
X53198866Y17484306D01*
X53204601Y17481158D01*
G37*
%TD.AperFunction*%
%TD*%
%TA.AperFunction,Conductor*%
%TO.N,/Test Points/MOSI1*%
G36*
X53122345Y35692155D02*
G01*
X53127694Y35687645D01*
X53317531Y35389317D01*
X53319081Y35380498D01*
X53315933Y35374763D01*
X53149601Y35208431D01*
X53141328Y35205004D01*
X53135047Y35206833D01*
X52836719Y35396670D01*
X52831579Y35404003D01*
X52832172Y35410974D01*
X52912005Y35605964D01*
X52918311Y35612322D01*
X52918327Y35612329D01*
X53113391Y35692192D01*
X53122345Y35692155D01*
G37*
%TD.AperFunction*%
%TD*%
%TA.AperFunction,Conductor*%
%TO.N,3V3RF*%
G36*
X41518039Y82369386D02*
G01*
X41525371Y82364247D01*
X41527200Y82357966D01*
X41527200Y82122735D01*
X41523773Y82114462D01*
X41518038Y82111314D01*
X41172852Y82034600D01*
X41164033Y82036150D01*
X41159524Y82041498D01*
X41078093Y82235831D01*
X41078057Y82244782D01*
X41159524Y82439204D01*
X41165881Y82445508D01*
X41172852Y82446101D01*
X41518039Y82369386D01*
G37*
%TD.AperFunction*%
%TD*%
%TA.AperFunction,Conductor*%
%TO.N,3V3RF*%
G36*
X36680839Y83154036D02*
G01*
X36688171Y83148897D01*
X36690000Y83142616D01*
X36690000Y82907385D01*
X36686573Y82899112D01*
X36680838Y82895964D01*
X36335652Y82819250D01*
X36326833Y82820800D01*
X36322324Y82826148D01*
X36240893Y83020481D01*
X36240857Y83029432D01*
X36322324Y83223854D01*
X36328681Y83230158D01*
X36335652Y83230751D01*
X36680839Y83154036D01*
G37*
%TD.AperFunction*%
%TD*%
%TA.AperFunction,Conductor*%
%TO.N,3V3RF*%
G36*
X44390366Y82244551D02*
G01*
X44394876Y82239202D01*
X44476305Y82044872D01*
X44476342Y82035917D01*
X44476305Y82035828D01*
X44394876Y81841499D01*
X44388518Y81835193D01*
X44381547Y81834600D01*
X44036362Y81911314D01*
X44029029Y81916454D01*
X44027200Y81922735D01*
X44027200Y82157966D01*
X44030627Y82166239D01*
X44036359Y82169386D01*
X44381547Y82246101D01*
X44390366Y82244551D01*
G37*
%TD.AperFunction*%
%TD*%
%TA.AperFunction,Conductor*%
%TO.N,3V3RF*%
G36*
X40990366Y82444551D02*
G01*
X40994876Y82439202D01*
X41076305Y82244872D01*
X41076342Y82235917D01*
X41076305Y82235828D01*
X40994876Y82041499D01*
X40988518Y82035193D01*
X40981547Y82034600D01*
X40636362Y82111314D01*
X40629029Y82116454D01*
X40627200Y82122735D01*
X40627200Y82357966D01*
X40630627Y82366239D01*
X40636359Y82369386D01*
X40981547Y82446101D01*
X40990366Y82444551D01*
G37*
%TD.AperFunction*%
%TD*%
%TA.AperFunction,Conductor*%
%TO.N,VREC*%
G36*
X51084421Y30007883D02*
G01*
X51085783Y30006238D01*
X51531978Y29354105D01*
X51533822Y29345342D01*
X51530595Y29339225D01*
X51190775Y28999405D01*
X51182502Y28995978D01*
X51175895Y28998022D01*
X50523762Y29444217D01*
X50518869Y29451717D01*
X50520713Y29460480D01*
X50522075Y29462125D01*
X50794251Y29735665D01*
X50794293Y29735707D01*
X51067875Y30007925D01*
X51076156Y30011331D01*
X51084421Y30007883D01*
G37*
%TD.AperFunction*%
%TD*%
%TA.AperFunction,Conductor*%
%TO.N,VREC*%
G36*
X50907482Y15907799D02*
G01*
X51320575Y15699785D01*
X51326423Y15693003D01*
X51326127Y15684868D01*
X51179058Y15328850D01*
X51172732Y15322512D01*
X51172696Y15322497D01*
X50817340Y15176266D01*
X50808386Y15176287D01*
X50802621Y15181475D01*
X50414461Y15891738D01*
X50413501Y15900641D01*
X50419117Y15907616D01*
X50424728Y15909049D01*
X50902220Y15909049D01*
X50907482Y15907799D01*
G37*
%TD.AperFunction*%
%TD*%
M02*
