M48
INCH
T1C0.0063
T2C0.0079
%
G90
G05
T1
X0.8498Y1.9557
X0.8498Y1.2636
X0.9036Y1.093
X0.9069Y2.4677
X0.9154Y1.7896
X0.9164Y2.0921
X0.9164Y1.4001
X0.918Y0.9655
X0.918Y0.9262
X0.918Y0.8868
X0.9228Y0.7043
X0.9301Y1.6537
X0.9301Y1.6144
X0.9301Y1.575
X0.9354Y2.3295
X0.9354Y2.2901
X0.9354Y2.2508
X0.9377Y0.9262
X0.9498Y1.6144
X0.9551Y2.2901
X0.9558Y2.0921
X0.9574Y0.9655
X0.9574Y0.9459
X0.9574Y0.9262
X0.9574Y0.9065
X0.9574Y0.8868
X0.9579Y1.3996
X0.963Y0.7043
X0.9695Y1.6537
X0.9695Y1.634
X0.9695Y1.6144
X0.9695Y1.5947
X0.9695Y1.575
X0.9748Y2.3295
X0.9748Y2.3098
X0.9748Y2.2901
X0.9748Y2.2705
X0.9748Y2.2508
X0.9771Y0.9262
X0.9823Y1.093
X0.9842Y1.1266
X0.989Y2.4675
X0.9892Y1.6144
X0.9941Y1.7896
X0.9945Y2.2901
X0.9966Y0.8868
X0.9969Y0.9655
X0.9969Y0.9262
X0.998Y2.5006
X0.9991Y1.9858
X0.9991Y1.2938
X1.0088Y1.575
X1.009Y1.6537
X1.009Y1.6144
X1.0138Y2.3295
X1.0141Y2.2508
X1.0144Y2.2901
X1.0217Y1.093
X1.0267Y2.0843
X1.0305Y2.4677
X1.0335Y1.7896
X1.0429Y0.6463
X1.0463Y2.0843
X1.0463Y1.3923
X1.0626Y0.6463
X1.096Y2.2102
X1.096Y1.5862
X1.0985Y1.912
X1.1546Y2.2496
X1.1546Y1.6255
X1.1556Y0.9581
X1.1556Y0.914
X1.1598Y1.3935
X1.1809Y0.9943
X1.2058Y2.289
X1.2058Y1.6649
X1.2284Y1.8776
X1.2432Y2.003
X1.2463Y2.4113
X1.2463Y1.7872
X1.253Y0.7125
X1.2589Y2.003
X1.2591Y1.0824
X1.2626Y2.1118
X1.2626Y1.4877
X1.2626Y0.8213
X1.2688Y1.3952
X1.2688Y1.3795
X1.2688Y1.3637
X1.2688Y0.7125
X1.2747Y2.003
X1.2845Y0.7125
X1.29Y0.6167
X1.3072Y1.9184
X1.4046Y0.7506
X1.443Y1.7929
X1.4558Y2.1561
X1.4666Y0.5913
X1.4676Y1.9681
X1.4932Y2.2604
X1.4991Y1.5601
X1.5306Y0.9171
X1.5355Y2.227
X1.5556Y1.2784
X1.5562Y1.413
X1.6192Y0.7595
X1.6684Y2.3106
X1.7274Y0.7614
X1.7481Y0.665
X1.7481Y0.6482
X1.7481Y0.6299
X1.819Y0.7624
X1.82Y1.0744
X1.8416Y2.4238
X1.9047Y1.5626
X1.9086Y1.0164
X1.9392Y0.7624
X1.9421Y1.3766
X2.0631Y0.7614
T2
X1.6913Y1.5705
X1.6913Y1.5429
X1.6913Y1.5164
X1.7188Y1.5705
X1.7188Y1.5429
X1.7188Y1.5164
M30
