%TF.GenerationSoftware,KiCad,Pcbnew,8.0.2*%
%TF.CreationDate,2024-10-13T20:55:14-05:00*%
%TF.ProjectId,PM1C_Rev_1_2,504d3143-5f52-4657-965f-315f322e6b69,1*%
%TF.SameCoordinates,PX297003ePY8770cd2*%
%TF.FileFunction,Soldermask,Top*%
%TF.FilePolarity,Negative*%
%FSLAX46Y46*%
G04 Gerber Fmt 4.6, Leading zero omitted, Abs format (unit mm)*
G04 Created by KiCad (PCBNEW 8.0.2) date 2024-10-13 20:55:14*
%MOMM*%
%LPD*%
G01*
G04 APERTURE LIST*
G04 Aperture macros list*
%AMRoundRect*
0 Rectangle with rounded corners*
0 $1 Rounding radius*
0 $2 $3 $4 $5 $6 $7 $8 $9 X,Y pos of 4 corners*
0 Add a 4 corners polygon primitive as box body*
4,1,4,$2,$3,$4,$5,$6,$7,$8,$9,$2,$3,0*
0 Add four circle primitives for the rounded corners*
1,1,$1+$1,$2,$3*
1,1,$1+$1,$4,$5*
1,1,$1+$1,$6,$7*
1,1,$1+$1,$8,$9*
0 Add four rect primitives between the rounded corners*
20,1,$1+$1,$2,$3,$4,$5,0*
20,1,$1+$1,$4,$5,$6,$7,0*
20,1,$1+$1,$6,$7,$8,$9,0*
20,1,$1+$1,$8,$9,$2,$3,0*%
G04 Aperture macros list end*
%ADD10C,0.050000*%
%ADD11C,0.200000*%
%ADD12C,0.203000*%
%ADD13RoundRect,0.050000X-0.375000X0.250000X-0.375000X-0.250000X0.375000X-0.250000X0.375000X0.250000X0*%
%ADD14RoundRect,0.050000X-0.200000X0.575000X-0.200000X-0.575000X0.200000X-0.575000X0.200000X0.575000X0*%
%ADD15RoundRect,0.050000X0.375000X-0.250000X0.375000X0.250000X-0.375000X0.250000X-0.375000X-0.250000X0*%
%ADD16RoundRect,0.050000X0.150000X-0.750000X0.150000X0.750000X-0.150000X0.750000X-0.150000X-0.750000X0*%
%ADD17RoundRect,0.050000X0.750000X0.150000X-0.750000X0.150000X-0.750000X-0.150000X0.750000X-0.150000X0*%
%ADD18RoundRect,0.050000X-0.250000X-0.375000X0.250000X-0.375000X0.250000X0.375000X-0.250000X0.375000X0*%
%ADD19C,1.100000*%
%ADD20RoundRect,0.050000X0.500000X-0.300000X0.500000X0.300000X-0.500000X0.300000X-0.500000X-0.300000X0*%
%ADD21RoundRect,0.050000X0.475000X0.775000X-0.475000X0.775000X-0.475000X-0.775000X0.475000X-0.775000X0*%
%ADD22RoundRect,0.050000X0.300000X0.500000X-0.300000X0.500000X-0.300000X-0.500000X0.300000X-0.500000X0*%
%ADD23RoundRect,0.050000X0.250000X0.375000X-0.250000X0.375000X-0.250000X-0.375000X0.250000X-0.375000X0*%
%ADD24RoundRect,0.050000X-0.900000X0.600000X-0.900000X-0.600000X0.900000X-0.600000X0.900000X0.600000X0*%
%ADD25RoundRect,0.050000X0.575000X0.200000X-0.575000X0.200000X-0.575000X-0.200000X0.575000X-0.200000X0*%
%ADD26C,4.113000*%
%ADD27RoundRect,0.050000X-0.575000X-1.350000X0.575000X-1.350000X0.575000X1.350000X-0.575000X1.350000X0*%
%ADD28RoundRect,0.050000X-0.300000X-0.500000X0.300000X-0.500000X0.300000X0.500000X-0.300000X0.500000X0*%
%ADD29RoundRect,0.050000X0.625000X-0.800000X0.625000X0.800000X-0.625000X0.800000X-0.625000X-0.800000X0*%
%ADD30RoundRect,0.050000X0.375000X0.150000X-0.375000X0.150000X-0.375000X-0.150000X0.375000X-0.150000X0*%
%ADD31RoundRect,0.050000X-1.350000X0.575000X-1.350000X-0.575000X1.350000X-0.575000X1.350000X0.575000X0*%
%ADD32RoundRect,0.050000X-0.475000X-0.775000X0.475000X-0.775000X0.475000X0.775000X-0.475000X0.775000X0*%
%ADD33C,1.800000*%
%ADD34RoundRect,0.050000X0.750000X0.300000X-0.750000X0.300000X-0.750000X-0.300000X0.750000X-0.300000X0*%
%ADD35RoundRect,0.050000X-1.900000X0.850000X-1.900000X-0.850000X1.900000X-0.850000X1.900000X0.850000X0*%
%ADD36RoundRect,0.050000X0.600000X0.500000X-0.600000X0.500000X-0.600000X-0.500000X0.600000X-0.500000X0*%
%ADD37RoundRect,0.050000X-0.775000X0.475000X-0.775000X-0.475000X0.775000X-0.475000X0.775000X0.475000X0*%
%ADD38RoundRect,0.050000X-0.365000X-0.150000X0.365000X-0.150000X0.365000X0.150000X-0.365000X0.150000X0*%
%ADD39RoundRect,0.050000X0.150000X-0.365000X0.150000X0.365000X-0.150000X0.365000X-0.150000X-0.365000X0*%
%ADD40RoundRect,0.050000X1.250000X-1.250000X1.250000X1.250000X-1.250000X1.250000X-1.250000X-1.250000X0*%
%ADD41O,4.164000X2.640000*%
%ADD42O,4.164000X1.928800*%
%ADD43RoundRect,0.050000X0.600000X0.250000X-0.600000X0.250000X-0.600000X-0.250000X0.600000X-0.250000X0*%
%ADD44RoundRect,0.050000X-0.250000X0.600000X-0.250000X-0.600000X0.250000X-0.600000X0.250000X0.600000X0*%
%ADD45RoundRect,0.050000X0.575000X1.050000X-0.575000X1.050000X-0.575000X-1.050000X0.575000X-1.050000X0*%
%ADD46RoundRect,0.050000X0.300000X-0.250000X0.300000X0.250000X-0.300000X0.250000X-0.300000X-0.250000X0*%
%ADD47RoundRect,0.050000X-0.500000X0.300000X-0.500000X-0.300000X0.500000X-0.300000X0.500000X0.300000X0*%
%ADD48RoundRect,0.050000X0.650000X-0.300000X0.650000X0.300000X-0.650000X0.300000X-0.650000X-0.300000X0*%
%ADD49RoundRect,0.050000X0.550000X0.550000X-0.550000X0.550000X-0.550000X-0.550000X0.550000X-0.550000X0*%
%ADD50RoundRect,0.050000X-0.575000X-1.050000X0.575000X-1.050000X0.575000X1.050000X-0.575000X1.050000X0*%
%ADD51RoundRect,0.050000X0.750000X-0.750000X0.750000X0.750000X-0.750000X0.750000X-0.750000X-0.750000X0*%
%ADD52C,1.600000*%
%ADD53RoundRect,0.050000X-0.266700X0.152400X-0.266700X-0.152400X0.266700X-0.152400X0.266700X0.152400X0*%
%ADD54RoundRect,0.050000X0.152400X0.266700X-0.152400X0.266700X-0.152400X-0.266700X0.152400X-0.266700X0*%
%ADD55RoundRect,0.050000X-0.900000X-0.600000X0.900000X-0.600000X0.900000X0.600000X-0.900000X0.600000X0*%
%ADD56RoundRect,0.050000X0.300000X-0.500000X0.300000X0.500000X-0.300000X0.500000X-0.300000X-0.500000X0*%
%ADD57RoundRect,0.050000X-0.225000X0.700000X-0.225000X-0.700000X0.225000X-0.700000X0.225000X0.700000X0*%
%ADD58RoundRect,0.050000X0.200000X-0.575000X0.200000X0.575000X-0.200000X0.575000X-0.200000X-0.575000X0*%
%ADD59C,0.900000*%
%ADD60C,1.243000*%
%ADD61C,1.241748*%
G04 APERTURE END LIST*
D10*
X54695230Y17110810D02*
X72987690Y17110810D01*
X74511690Y18634810D02*
X74511690Y62830860D01*
X16472560Y18076180D02*
X16472560Y18076180D01*
X43392220Y63354860D02*
X43392220Y75298540D01*
X55387322Y14199907D02*
G75*
G02*
X51278908Y10078131I-7042152J2910887D01*
G01*
X20897190Y29191070D02*
X19897190Y29191070D01*
X15071180Y82029550D02*
G75*
G02*
X17611190Y84569584I2540090J-56D01*
G01*
X54589435Y15594180D02*
G75*
G02*
X54633208Y17108256I105735J754614D01*
G01*
X43392220Y63354860D02*
X43392220Y63354860D01*
X29930000Y74475000D02*
X43390000Y74475000D01*
X43390000Y64075000D01*
X29930000Y64075000D01*
X29930000Y74475000D01*
G36*
X29930000Y74475000D02*
G01*
X43390000Y74475000D01*
X43390000Y64075000D01*
X29930000Y64075000D01*
X29930000Y74475000D01*
G37*
X20659200Y47534960D02*
X20659570Y51799794D01*
X10762740Y64354860D02*
X10762740Y64354860D01*
X23453200Y11776800D02*
X23453200Y11776800D01*
X23453200Y11776800D02*
G75*
G02*
X24977200Y11776800I762000J0D01*
G01*
X21099590Y29953220D02*
G75*
G02*
X21099589Y29187768I7180J-382726D01*
G01*
X31962210Y9999840D02*
G75*
G02*
X30946216Y11015840I160J1016154D01*
G01*
X29168200Y73808833D02*
G75*
G02*
X28406200Y73046864I-762030J61D01*
G01*
X15715740Y17402910D02*
X15715740Y17402910D01*
X19897190Y52566700D02*
X19897190Y52566710D01*
X30946200Y11015840D02*
X30946200Y11776800D01*
X20929013Y18514138D02*
G75*
G02*
X21688768Y17810558I-43J-762044D01*
G01*
X18451810Y17109794D02*
X20929413Y17104794D01*
X17447906Y15938502D02*
G75*
G02*
X18451810Y17109846I1003064J156192D01*
G01*
X10762740Y46772960D02*
X19897190Y46772960D01*
X10000740Y53328710D02*
X10000740Y63592860D01*
G36*
X17919570Y46759794D02*
G01*
X20929570Y46759794D01*
X20929570Y34989794D01*
X17919570Y34989794D01*
X17919570Y46759794D01*
G37*
X17611190Y84569560D02*
X55711230Y84569560D01*
X21099570Y52565194D02*
G75*
G02*
X21099570Y51799794I7200J-382700D01*
G01*
X10762740Y52566710D02*
G75*
G02*
X10000786Y53328710I30J761984D01*
G01*
X55711230Y84569560D02*
G75*
G02*
X58251236Y82029550I-160J-2540166D01*
G01*
X54695230Y17110800D02*
X54695230Y17110810D01*
X51278896Y10078155D02*
G75*
G02*
X50887740Y9999832I-391026J936939D01*
G01*
X10000740Y35746810D02*
X10000740Y46010960D01*
X44154220Y64354860D02*
X72987690Y64354860D01*
X31962210Y9999840D02*
X50887740Y9999840D01*
X17447910Y15938500D02*
X17447910Y15938500D01*
X21099570Y51799794D02*
X20659570Y51799794D01*
X20897190Y46772960D02*
X19897190Y46772960D01*
X43392220Y75298540D02*
G75*
G02*
X44154220Y75298540I381000J0D01*
G01*
X21099570Y34217904D02*
X20659570Y34217904D01*
X44154220Y63354860D02*
G75*
G02*
X43392220Y63354860I-381000J0D01*
G01*
X72987690Y64354860D02*
X72987690Y64354860D01*
X29168200Y63354860D02*
X29168200Y64354860D01*
X20659200Y29953070D02*
X20659570Y34217904D01*
X22046428Y10076954D02*
G75*
G02*
X17447945Y15938508I2930942J7033940D01*
G01*
X44154220Y63354860D02*
X44154220Y64354860D01*
X29168200Y73808833D02*
X29168200Y75298540D01*
X72987690Y64354860D02*
G75*
G02*
X74511736Y62830860I80J-1523966D01*
G01*
X21099590Y47535110D02*
X20659590Y47535110D01*
X58248935Y75586093D02*
X58251240Y82029550D01*
X10000740Y28429060D02*
G75*
G02*
X10762740Y29191024I761930J34D01*
G01*
X54660000Y64330000D02*
X60485000Y64330000D01*
X60485000Y17110000D01*
X54660000Y17110000D01*
X54660000Y64330000D01*
G36*
X54660000Y64330000D02*
G01*
X60485000Y64330000D01*
X60485000Y17110000D01*
X54660000Y17110000D01*
X54660000Y64330000D01*
G37*
X21099570Y34983304D02*
G75*
G02*
X21099570Y34217884I7200J-382710D01*
G01*
X43392220Y75298540D02*
X43392220Y75298540D01*
X21099590Y29953220D02*
X20659590Y29953220D01*
X29422200Y11776800D02*
G75*
G02*
X30946200Y11776800I762000J0D01*
G01*
X20659190Y47534960D02*
X20659200Y47534960D01*
X19897210Y46768204D02*
X19897210Y46768194D01*
X19897190Y34984810D02*
X19897190Y34984820D01*
X17610010Y73044990D02*
G75*
G02*
X15069966Y75585000I160J2540204D01*
G01*
X29422200Y11359840D02*
X29422200Y11776800D01*
G36*
X17919570Y29189794D02*
G01*
X20929570Y29189794D01*
X20929570Y18519794D01*
X17919570Y18519794D01*
X17919570Y29189794D01*
G37*
X10000740Y18164910D02*
X10000740Y28429060D01*
X19897190Y29191060D02*
X19897190Y29191060D01*
X24977200Y11359840D02*
X24977200Y11776800D01*
X10762740Y34984810D02*
G75*
G02*
X10000786Y35746810I30J761984D01*
G01*
X10762740Y29191060D02*
X19897190Y29191060D01*
X21099590Y29187820D02*
X19895908Y29188733D01*
X21099590Y46769710D02*
X19895908Y46770623D01*
X21688370Y17810408D02*
G75*
G02*
X20929413Y17104851I-761900J58586D01*
G01*
X23453200Y11014800D02*
X23453200Y11776800D01*
X19897210Y29186314D02*
X19897210Y29186304D01*
X24977200Y11359840D02*
X29422200Y11359840D01*
X21099590Y47535110D02*
G75*
G02*
X21099589Y46769678I7180J-382716D01*
G01*
X10762740Y52566710D02*
X19897190Y52566710D01*
X44918806Y73051815D02*
G75*
G02*
X44156791Y73813815I-136J761879D01*
G01*
X51278890Y10078160D02*
X51278900Y10078160D01*
X10762740Y17402910D02*
G75*
G02*
X10000786Y18164910I30J761984D01*
G01*
X54589440Y15594180D02*
G75*
G02*
X55387297Y14199912I-140970J-1006086D01*
G01*
X29168200Y75298540D02*
G75*
G02*
X29930200Y75298540I381000J0D01*
G01*
X16472561Y18076188D02*
G75*
G02*
X16969160Y18517990I496509J-58094D01*
G01*
G36*
X17919570Y64349794D02*
G01*
X20929570Y64349794D01*
X20929570Y52569794D01*
X17919570Y52569794D01*
X17919570Y64349794D01*
G37*
X20659190Y29953070D02*
X20659200Y29953070D01*
X10762740Y17402910D02*
X15715740Y17402910D01*
X30946200Y11015840D02*
X30946210Y11015840D01*
X10762740Y64354860D02*
X29168200Y64354860D01*
X54633207Y17108272D02*
G75*
G02*
X54695230Y17110796I61963J-759278D01*
G01*
X21099570Y34983304D02*
X19895888Y34982391D01*
X44156806Y73813815D02*
X44154220Y75298540D01*
X23453200Y11014800D02*
G75*
G02*
X22046413Y10076910I-1016030J-6D01*
G01*
X44918806Y73051815D02*
X55708925Y73046083D01*
X10762740Y34984810D02*
X19897190Y34984810D01*
X16969160Y18517970D02*
X16969160Y18517970D01*
X29930200Y63354860D02*
G75*
G02*
X29168200Y63354860I-381000J0D01*
G01*
X10000740Y63592860D02*
G75*
G02*
X10762740Y64354824I761930J34D01*
G01*
X16969160Y18517970D02*
X20929013Y18514138D01*
X74511690Y18634810D02*
G75*
G02*
X72987690Y17110774I-1524020J-16D01*
G01*
X29930200Y63354860D02*
X29930200Y75298540D01*
X10000740Y46010960D02*
G75*
G02*
X10762740Y46772924I761930J34D01*
G01*
X16472557Y18076186D02*
G75*
G02*
X15715740Y17402926I-756787J88708D01*
G01*
X58248935Y75586093D02*
G75*
G02*
X55708925Y73046129I-2540165J201D01*
G01*
X21099570Y52565194D02*
X19895888Y52564281D01*
X17610010Y73044990D02*
X28406200Y73046833D01*
X15071180Y75806550D02*
X15071180Y82029550D01*
D11*
X16831654Y-1700138D02*
X17974511Y-1700138D01*
X17403082Y-3700138D02*
X17403082Y-1700138D01*
X18926892Y-3700138D02*
X18736416Y-3604900D01*
X18736416Y-3604900D02*
X18641178Y-3509661D01*
X18641178Y-3509661D02*
X18545940Y-3319185D01*
X18545940Y-3319185D02*
X18545940Y-2747757D01*
X18545940Y-2747757D02*
X18641178Y-2557280D01*
X18641178Y-2557280D02*
X18736416Y-2462042D01*
X18736416Y-2462042D02*
X18926892Y-2366804D01*
X18926892Y-2366804D02*
X19212607Y-2366804D01*
X19212607Y-2366804D02*
X19403083Y-2462042D01*
X19403083Y-2462042D02*
X19498321Y-2557280D01*
X19498321Y-2557280D02*
X19593559Y-2747757D01*
X19593559Y-2747757D02*
X19593559Y-3319185D01*
X19593559Y-3319185D02*
X19498321Y-3509661D01*
X19498321Y-3509661D02*
X19403083Y-3604900D01*
X19403083Y-3604900D02*
X19212607Y-3700138D01*
X19212607Y-3700138D02*
X18926892Y-3700138D01*
X20450702Y-2366804D02*
X20450702Y-4366804D01*
X20450702Y-2462042D02*
X20641178Y-2366804D01*
X20641178Y-2366804D02*
X21022131Y-2366804D01*
X21022131Y-2366804D02*
X21212607Y-2462042D01*
X21212607Y-2462042D02*
X21307845Y-2557280D01*
X21307845Y-2557280D02*
X21403083Y-2747757D01*
X21403083Y-2747757D02*
X21403083Y-3319185D01*
X21403083Y-3319185D02*
X21307845Y-3509661D01*
X21307845Y-3509661D02*
X21212607Y-3604900D01*
X21212607Y-3604900D02*
X21022131Y-3700138D01*
X21022131Y-3700138D02*
X20641178Y-3700138D01*
X20641178Y-3700138D02*
X20450702Y-3604900D01*
X23688798Y-3604900D02*
X23974512Y-3700138D01*
X23974512Y-3700138D02*
X24450703Y-3700138D01*
X24450703Y-3700138D02*
X24641179Y-3604900D01*
X24641179Y-3604900D02*
X24736417Y-3509661D01*
X24736417Y-3509661D02*
X24831655Y-3319185D01*
X24831655Y-3319185D02*
X24831655Y-3128709D01*
X24831655Y-3128709D02*
X24736417Y-2938233D01*
X24736417Y-2938233D02*
X24641179Y-2842995D01*
X24641179Y-2842995D02*
X24450703Y-2747757D01*
X24450703Y-2747757D02*
X24069750Y-2652519D01*
X24069750Y-2652519D02*
X23879274Y-2557280D01*
X23879274Y-2557280D02*
X23784036Y-2462042D01*
X23784036Y-2462042D02*
X23688798Y-2271566D01*
X23688798Y-2271566D02*
X23688798Y-2081090D01*
X23688798Y-2081090D02*
X23784036Y-1890614D01*
X23784036Y-1890614D02*
X23879274Y-1795376D01*
X23879274Y-1795376D02*
X24069750Y-1700138D01*
X24069750Y-1700138D02*
X24545941Y-1700138D01*
X24545941Y-1700138D02*
X24831655Y-1795376D01*
X25974512Y-3700138D02*
X25784036Y-3604900D01*
X25784036Y-3604900D02*
X25688798Y-3509661D01*
X25688798Y-3509661D02*
X25593560Y-3319185D01*
X25593560Y-3319185D02*
X25593560Y-2747757D01*
X25593560Y-2747757D02*
X25688798Y-2557280D01*
X25688798Y-2557280D02*
X25784036Y-2462042D01*
X25784036Y-2462042D02*
X25974512Y-2366804D01*
X25974512Y-2366804D02*
X26260227Y-2366804D01*
X26260227Y-2366804D02*
X26450703Y-2462042D01*
X26450703Y-2462042D02*
X26545941Y-2557280D01*
X26545941Y-2557280D02*
X26641179Y-2747757D01*
X26641179Y-2747757D02*
X26641179Y-3319185D01*
X26641179Y-3319185D02*
X26545941Y-3509661D01*
X26545941Y-3509661D02*
X26450703Y-3604900D01*
X26450703Y-3604900D02*
X26260227Y-3700138D01*
X26260227Y-3700138D02*
X25974512Y-3700138D01*
X27784036Y-3700138D02*
X27593560Y-3604900D01*
X27593560Y-3604900D02*
X27498322Y-3414423D01*
X27498322Y-3414423D02*
X27498322Y-1700138D01*
X29403084Y-3700138D02*
X29403084Y-1700138D01*
X29403084Y-3604900D02*
X29212608Y-3700138D01*
X29212608Y-3700138D02*
X28831655Y-3700138D01*
X28831655Y-3700138D02*
X28641179Y-3604900D01*
X28641179Y-3604900D02*
X28545941Y-3509661D01*
X28545941Y-3509661D02*
X28450703Y-3319185D01*
X28450703Y-3319185D02*
X28450703Y-2747757D01*
X28450703Y-2747757D02*
X28545941Y-2557280D01*
X28545941Y-2557280D02*
X28641179Y-2462042D01*
X28641179Y-2462042D02*
X28831655Y-2366804D01*
X28831655Y-2366804D02*
X29212608Y-2366804D01*
X29212608Y-2366804D02*
X29403084Y-2462042D01*
X31117370Y-3604900D02*
X30926894Y-3700138D01*
X30926894Y-3700138D02*
X30545941Y-3700138D01*
X30545941Y-3700138D02*
X30355465Y-3604900D01*
X30355465Y-3604900D02*
X30260227Y-3414423D01*
X30260227Y-3414423D02*
X30260227Y-2652519D01*
X30260227Y-2652519D02*
X30355465Y-2462042D01*
X30355465Y-2462042D02*
X30545941Y-2366804D01*
X30545941Y-2366804D02*
X30926894Y-2366804D01*
X30926894Y-2366804D02*
X31117370Y-2462042D01*
X31117370Y-2462042D02*
X31212608Y-2652519D01*
X31212608Y-2652519D02*
X31212608Y-2842995D01*
X31212608Y-2842995D02*
X30260227Y-3033471D01*
X32069751Y-3700138D02*
X32069751Y-2366804D01*
X32069751Y-2747757D02*
X32164989Y-2557280D01*
X32164989Y-2557280D02*
X32260227Y-2462042D01*
X32260227Y-2462042D02*
X32450703Y-2366804D01*
X32450703Y-2366804D02*
X32641180Y-2366804D01*
X33307846Y-3700138D02*
X33307846Y-2366804D01*
X33307846Y-2557280D02*
X33403084Y-2462042D01*
X33403084Y-2462042D02*
X33593560Y-2366804D01*
X33593560Y-2366804D02*
X33879275Y-2366804D01*
X33879275Y-2366804D02*
X34069751Y-2462042D01*
X34069751Y-2462042D02*
X34164989Y-2652519D01*
X34164989Y-2652519D02*
X34164989Y-3700138D01*
X34164989Y-2652519D02*
X34260227Y-2462042D01*
X34260227Y-2462042D02*
X34450703Y-2366804D01*
X34450703Y-2366804D02*
X34736417Y-2366804D01*
X34736417Y-2366804D02*
X34926894Y-2462042D01*
X34926894Y-2462042D02*
X35022132Y-2652519D01*
X35022132Y-2652519D02*
X35022132Y-3700138D01*
X36831656Y-3700138D02*
X36831656Y-2652519D01*
X36831656Y-2652519D02*
X36736418Y-2462042D01*
X36736418Y-2462042D02*
X36545942Y-2366804D01*
X36545942Y-2366804D02*
X36164989Y-2366804D01*
X36164989Y-2366804D02*
X35974513Y-2462042D01*
X36831656Y-3604900D02*
X36641180Y-3700138D01*
X36641180Y-3700138D02*
X36164989Y-3700138D01*
X36164989Y-3700138D02*
X35974513Y-3604900D01*
X35974513Y-3604900D02*
X35879275Y-3414423D01*
X35879275Y-3414423D02*
X35879275Y-3223947D01*
X35879275Y-3223947D02*
X35974513Y-3033471D01*
X35974513Y-3033471D02*
X36164989Y-2938233D01*
X36164989Y-2938233D02*
X36641180Y-2938233D01*
X36641180Y-2938233D02*
X36831656Y-2842995D01*
X37688799Y-3604900D02*
X37879275Y-3700138D01*
X37879275Y-3700138D02*
X38260227Y-3700138D01*
X38260227Y-3700138D02*
X38450704Y-3604900D01*
X38450704Y-3604900D02*
X38545942Y-3414423D01*
X38545942Y-3414423D02*
X38545942Y-3319185D01*
X38545942Y-3319185D02*
X38450704Y-3128709D01*
X38450704Y-3128709D02*
X38260227Y-3033471D01*
X38260227Y-3033471D02*
X37974513Y-3033471D01*
X37974513Y-3033471D02*
X37784037Y-2938233D01*
X37784037Y-2938233D02*
X37688799Y-2747757D01*
X37688799Y-2747757D02*
X37688799Y-2652519D01*
X37688799Y-2652519D02*
X37784037Y-2462042D01*
X37784037Y-2462042D02*
X37974513Y-2366804D01*
X37974513Y-2366804D02*
X38260227Y-2366804D01*
X38260227Y-2366804D02*
X38450704Y-2462042D01*
X39403085Y-3700138D02*
X39403085Y-1700138D01*
X39593561Y-2938233D02*
X40164990Y-3700138D01*
X40164990Y-2366804D02*
X39403085Y-3128709D01*
D12*
%TO.C,M5*%
X6564600Y9991540D02*
G75*
G02*
X1414600Y9991540I-2575000J0D01*
G01*
X1414600Y9991540D02*
G75*
G02*
X6564600Y9991540I2575000J0D01*
G01*
%TO.C,M6*%
X82564600Y9991540D02*
G75*
G02*
X77414600Y9991540I-2575000J0D01*
G01*
X77414600Y9991540D02*
G75*
G02*
X82564600Y9991540I2575000J0D01*
G01*
%TO.C,M3*%
X82564600Y83991540D02*
G75*
G02*
X77414600Y83991540I-2575000J0D01*
G01*
X77414600Y83991540D02*
G75*
G02*
X82564600Y83991540I2575000J0D01*
G01*
%TO.C,M4*%
X6564600Y83991540D02*
G75*
G02*
X1414600Y83991540I-2575000J0D01*
G01*
X1414600Y83991540D02*
G75*
G02*
X6564600Y83991540I2575000J0D01*
G01*
%TD*%
D13*
%TO.C,C97*%
X37427200Y14800350D03*
X37427200Y13800350D03*
%TD*%
D14*
%TO.C,U12*%
X31618160Y55715350D03*
X30968160Y55715350D03*
X30318160Y55715350D03*
X30318160Y53665350D03*
X31618160Y53665350D03*
%TD*%
D15*
%TO.C,C39*%
X34827200Y75690350D03*
X34827200Y76690350D03*
%TD*%
%TO.C,R85*%
X19502200Y14900350D03*
X19502200Y15900350D03*
%TD*%
D13*
%TO.C,FB4*%
X36247130Y79990190D03*
X36247130Y78990190D03*
%TD*%
D16*
%TO.C,U46*%
X31427200Y16415350D03*
X31927200Y16415350D03*
X32427200Y16415350D03*
X32927200Y16415350D03*
X33427200Y16415350D03*
X33927200Y16415350D03*
X34427200Y16415350D03*
X34927200Y16415350D03*
X35427200Y16415350D03*
X35927200Y16415350D03*
X36427200Y16415350D03*
X36927200Y16415350D03*
X37427200Y16415350D03*
X37927200Y16415350D03*
X38427200Y16415350D03*
X38927200Y16415350D03*
D17*
X41077200Y18565350D03*
X41077200Y19065350D03*
X41077200Y19565350D03*
X41077200Y20065350D03*
X41077200Y20565350D03*
X41077200Y21065350D03*
X41077200Y21565350D03*
X41077200Y22065350D03*
X41077200Y22565350D03*
X41077200Y23065350D03*
X41077200Y23565350D03*
X41077200Y24065350D03*
X41077200Y24565350D03*
X41077200Y25065350D03*
X41077200Y25565350D03*
X41077200Y26065350D03*
D16*
X38927200Y28215350D03*
X38427200Y28215350D03*
X37927200Y28215350D03*
X37427200Y28215350D03*
X36927200Y28215350D03*
X36427200Y28215350D03*
X35927200Y28215350D03*
X35427200Y28215350D03*
X34927200Y28215350D03*
X34427200Y28215350D03*
X33927200Y28215350D03*
X33427200Y28215350D03*
X32927200Y28215350D03*
X32427200Y28215350D03*
X31927200Y28215350D03*
X31427200Y28215350D03*
D17*
X29277200Y26065350D03*
X29277200Y25565350D03*
X29277200Y25065350D03*
X29277200Y24565350D03*
X29277200Y24065350D03*
X29277200Y23565350D03*
X29277200Y23065350D03*
X29277200Y22565350D03*
X29277200Y22065350D03*
X29277200Y21565350D03*
X29277200Y21065350D03*
X29277200Y20565350D03*
X29277200Y20065350D03*
X29277200Y19565350D03*
X29277200Y19065350D03*
X29277200Y18565350D03*
%TD*%
D18*
%TO.C,C28*%
X45052200Y77425350D03*
X46052200Y77425350D03*
%TD*%
%TO.C,C12*%
X35352210Y45540350D03*
X36352210Y45540350D03*
%TD*%
D19*
%TO.C,TP37*%
X36355000Y81500000D03*
%TD*%
D15*
%TO.C,C21*%
X21754570Y59569794D03*
X21754570Y60569794D03*
%TD*%
D19*
%TO.C,TP34*%
X51817200Y59782830D03*
%TD*%
D20*
%TO.C,C8*%
X28277200Y31790350D03*
X28277200Y30390350D03*
%TD*%
D21*
%TO.C,R25*%
X23984570Y57574794D03*
X25784570Y57574794D03*
%TD*%
D13*
%TO.C,FB1*%
X40302200Y83265350D03*
X40302200Y82265350D03*
%TD*%
D19*
%TO.C,TP15*%
X53738630Y36922830D03*
%TD*%
D22*
%TO.C,R20*%
X27975070Y61540350D03*
X29375070Y61540350D03*
%TD*%
D19*
%TO.C,TP38*%
X34400000Y81500000D03*
%TD*%
D18*
%TO.C,L5*%
X45052200Y78440350D03*
X46052200Y78440350D03*
%TD*%
D23*
%TO.C,C35*%
X38756418Y78537277D03*
X37756418Y78537277D03*
%TD*%
D24*
%TO.C,F2*%
X16739570Y60319794D03*
X16739570Y63119794D03*
%TD*%
D25*
%TO.C,U47*%
X47977200Y53190350D03*
X47977200Y53840350D03*
X47977200Y54490350D03*
X45927200Y54490350D03*
X45927200Y53190350D03*
%TD*%
D19*
%TO.C,TP14*%
X51817200Y34382830D03*
%TD*%
D23*
%TO.C,C37*%
X41645000Y75840000D03*
X40645000Y75840000D03*
%TD*%
D26*
%TO.C,M5*%
X3999600Y9991540D03*
%TD*%
D18*
%TO.C,R112*%
X26969570Y17779794D03*
X27969570Y17779794D03*
%TD*%
D15*
%TO.C,C9*%
X42652210Y40690350D03*
X42652210Y41690350D03*
%TD*%
D13*
%TO.C,R120*%
X22834570Y58309794D03*
X22834570Y57309794D03*
%TD*%
%TO.C,R103*%
X29577200Y15659840D03*
X29577200Y14659840D03*
%TD*%
D27*
%TO.C,C44*%
X50052190Y18739950D03*
X47052200Y18739950D03*
%TD*%
D19*
%TO.C,TP28*%
X51817200Y52162830D03*
%TD*%
D15*
%TO.C,C18*%
X32668160Y54190350D03*
X32668160Y55190350D03*
%TD*%
D28*
%TO.C,R16*%
X48154200Y41040350D03*
X46754200Y41040350D03*
%TD*%
D15*
%TO.C,R28*%
X42777200Y82240350D03*
X42777200Y83240350D03*
%TD*%
D29*
%TO.C,Y2*%
X25352200Y22490350D03*
X25352200Y26190350D03*
X23152200Y26190350D03*
X23152200Y22490350D03*
%TD*%
D30*
%TO.C,U49*%
X25827200Y37163350D03*
X25827200Y37663350D03*
X25827200Y38163350D03*
X25827200Y38663350D03*
X22827200Y38663350D03*
X22827200Y38163350D03*
X22827200Y37663350D03*
X22827200Y37163350D03*
%TD*%
D13*
%TO.C,C98*%
X23349570Y36259794D03*
X23349570Y35259794D03*
%TD*%
D31*
%TO.C,C25*%
X55577200Y79240360D03*
X55577200Y82240350D03*
%TD*%
D13*
%TO.C,C10*%
X37052200Y31215350D03*
X37052200Y30215350D03*
%TD*%
%TO.C,R102*%
X44252200Y53790350D03*
X44252200Y52790350D03*
%TD*%
D18*
%TO.C,C27*%
X51477200Y80065350D03*
X52477200Y80065350D03*
%TD*%
D13*
%TO.C,C96*%
X23259570Y53854794D03*
X23259570Y52854794D03*
%TD*%
D19*
%TO.C,TP11*%
X53738630Y31842830D03*
%TD*%
D23*
%TO.C,C7*%
X18277200Y79240350D03*
X17277200Y79240350D03*
%TD*%
D15*
%TO.C,C26*%
X43760180Y82240350D03*
X43760180Y83240350D03*
%TD*%
D23*
%TO.C,C88*%
X34652200Y14915350D03*
X33652200Y14915350D03*
%TD*%
D13*
%TO.C,R101*%
X44252200Y55490350D03*
X44252200Y54490350D03*
%TD*%
D32*
%TO.C,C17*%
X28677200Y46840350D03*
X26877200Y46840350D03*
%TD*%
D33*
%TO.C,FID17*%
X3999590Y3991530D03*
%TD*%
D22*
%TO.C,C92*%
X30977200Y14809840D03*
X32377200Y14809840D03*
%TD*%
D34*
%TO.C,U10*%
X32611510Y48385350D03*
X32611510Y49655350D03*
X32611510Y50925350D03*
X32611510Y52195350D03*
X26811510Y52195350D03*
X26811510Y50925350D03*
X26811510Y49655350D03*
X26811510Y48385350D03*
%TD*%
D35*
%TO.C,L8*%
X46977200Y48590350D03*
X46977200Y42890350D03*
%TD*%
D30*
%TO.C,U50*%
X25827200Y19561350D03*
X25827200Y20061350D03*
X25827200Y20561350D03*
X25827200Y21061350D03*
X22827200Y21061350D03*
X22827200Y20561350D03*
X22827200Y20061350D03*
X22827200Y19561350D03*
%TD*%
D28*
%TO.C,R24*%
X25677200Y62640350D03*
X24277200Y62640350D03*
%TD*%
D36*
%TO.C,Y1*%
X37777200Y76840350D03*
X36077200Y76840350D03*
X36077200Y75540350D03*
X37777200Y75540350D03*
%TD*%
D19*
%TO.C,TP1*%
X53738630Y19142830D03*
%TD*%
D37*
%TO.C,R23*%
X33702200Y57390350D03*
X33702200Y59190350D03*
%TD*%
D15*
%TO.C,C89*%
X42527200Y21565360D03*
X42527200Y22565360D03*
%TD*%
D13*
%TO.C,R109*%
X42602200Y26665350D03*
X42602200Y25665350D03*
%TD*%
D18*
%TO.C,C29*%
X45055000Y79690000D03*
X46055000Y79690000D03*
%TD*%
D38*
%TO.C,U14*%
X40012200Y80340480D03*
X40012200Y79840480D03*
X40012200Y79340480D03*
X40012200Y78840480D03*
X40012200Y78340480D03*
D39*
X40977200Y77375480D03*
X41477200Y77375480D03*
X41977200Y77375480D03*
X42477200Y77375480D03*
X42977200Y77375480D03*
D38*
X43942200Y78340480D03*
X43942200Y78840480D03*
X43942200Y79340480D03*
X43942200Y79840480D03*
X43942200Y80340480D03*
D39*
X42977200Y81305480D03*
X42477200Y81305480D03*
X41977200Y81305480D03*
X41477200Y81305480D03*
X40977200Y81305480D03*
D40*
X41977200Y79340480D03*
%TD*%
D33*
%TO.C,FID12*%
X53999600Y13991540D03*
%TD*%
D34*
%TO.C,U8*%
X41427200Y48380350D03*
X41427200Y49650350D03*
X41427200Y50920350D03*
X41427200Y52190350D03*
X35627200Y52190350D03*
X35627200Y50920350D03*
X35627200Y49650350D03*
X35627200Y48380350D03*
%TD*%
D20*
%TO.C,R32*%
X50052200Y16825350D03*
X50052200Y15425350D03*
%TD*%
D26*
%TO.C,M6*%
X79999600Y9991540D03*
%TD*%
D23*
%TO.C,R126*%
X47964970Y16499270D03*
X46964970Y16499270D03*
%TD*%
D22*
%TO.C,R37*%
X46752200Y39365350D03*
X48152200Y39365350D03*
%TD*%
D13*
%TO.C,C36*%
X46877200Y78390000D03*
X46877200Y77390000D03*
%TD*%
D41*
%TO.C,BAT2*%
X12528200Y45005150D03*
D42*
X12528200Y36362750D03*
%TD*%
D19*
%TO.C,TP5*%
X53738630Y24222830D03*
%TD*%
D33*
%TO.C,FID11*%
X16999600Y82991540D03*
%TD*%
D19*
%TO.C,TP32*%
X51817200Y57242830D03*
%TD*%
%TO.C,TP29*%
X53690970Y54702830D03*
%TD*%
D23*
%TO.C,C20*%
X22814570Y61609794D03*
X21814570Y61609794D03*
%TD*%
D26*
%TO.C,M3*%
X79999600Y83991540D03*
%TD*%
D19*
%TO.C,TP33*%
X53713710Y59782830D03*
%TD*%
D33*
%TO.C,FID8*%
X79999600Y89991540D03*
%TD*%
D35*
%TO.C,L9*%
X47052200Y61890350D03*
X47052200Y56190350D03*
%TD*%
D15*
%TO.C,R111*%
X42602200Y27415350D03*
X42602200Y28415350D03*
%TD*%
D13*
%TO.C,R123*%
X24464570Y36254794D03*
X24464570Y35254794D03*
%TD*%
D18*
%TO.C,R127*%
X23959570Y18629794D03*
X24959570Y18629794D03*
%TD*%
D15*
%TO.C,C90*%
X43177200Y54490350D03*
X43177200Y55490350D03*
%TD*%
D23*
%TO.C,C15*%
X37317890Y53565360D03*
X36317890Y53565360D03*
%TD*%
D15*
%TO.C,C11*%
X28252200Y37390350D03*
X28252200Y38390350D03*
%TD*%
%TO.C,C91*%
X26580000Y22005000D03*
X26580000Y23005000D03*
%TD*%
D18*
%TO.C,C19*%
X28277200Y53640350D03*
X29277200Y53640350D03*
%TD*%
D13*
%TO.C,C23*%
X31993160Y82440350D03*
X31993160Y81440350D03*
%TD*%
D20*
%TO.C,R22*%
X33818160Y55415350D03*
X33818160Y54015350D03*
%TD*%
D19*
%TO.C,TP3*%
X53738630Y21682830D03*
%TD*%
D18*
%TO.C,C22*%
X27427200Y59140350D03*
X28427200Y59140350D03*
%TD*%
D13*
%TO.C,R15*%
X28277200Y33790350D03*
X28277200Y32790350D03*
%TD*%
D19*
%TO.C,TP26*%
X51817200Y49622830D03*
%TD*%
D13*
%TO.C,R17*%
X31702200Y31040350D03*
X31702200Y30040350D03*
%TD*%
D15*
%TO.C,C87*%
X23377200Y27507030D03*
X23377200Y28507030D03*
%TD*%
D18*
%TO.C,L3*%
X47777200Y80065350D03*
X48777200Y80065350D03*
%TD*%
D21*
%TO.C,R26*%
X27027200Y57715350D03*
X28827200Y57715350D03*
%TD*%
D15*
%TO.C,R105*%
X43177200Y52790350D03*
X43177200Y53790350D03*
%TD*%
D43*
%TO.C,U7*%
X41352210Y34290350D03*
X41352210Y35090350D03*
X41352210Y35890350D03*
X41352210Y36690350D03*
X41352210Y37490350D03*
X41352210Y38290350D03*
X41352210Y39090350D03*
X41352210Y39890350D03*
X41352210Y40690350D03*
X41352210Y41490350D03*
X41352210Y42290350D03*
D44*
X39452120Y44190430D03*
X38652120Y44190430D03*
X37852120Y44190430D03*
X37052120Y44190430D03*
X36252120Y44190430D03*
X35452120Y44190430D03*
X34652120Y44190430D03*
X33852120Y44190430D03*
X33052120Y44190430D03*
X32252120Y44190430D03*
X31452120Y44190430D03*
D43*
X29552200Y42290350D03*
X29552200Y41490350D03*
X29552200Y40690350D03*
X29552200Y39890350D03*
X29552200Y39090350D03*
X29552200Y38290350D03*
X29552200Y37490350D03*
X29552200Y36690350D03*
X29552200Y35890350D03*
X29552200Y35090350D03*
X29552200Y34290350D03*
D44*
X31452120Y32390430D03*
X32252120Y32390430D03*
X33052120Y32390430D03*
X33852120Y32390430D03*
X34652120Y32390430D03*
X35452120Y32390430D03*
X36252120Y32390430D03*
X37052120Y32390430D03*
X37852120Y32390430D03*
X38652120Y32390430D03*
X39452120Y32390430D03*
%TD*%
D15*
%TO.C,C32*%
X46877200Y79065350D03*
X46877200Y80065350D03*
%TD*%
D45*
%TO.C,L7*%
X50027200Y34590350D03*
X43877200Y34590350D03*
%TD*%
D46*
%TO.C,LED1*%
X42602200Y30165350D03*
X42602200Y29265350D03*
%TD*%
D18*
%TO.C,R114*%
X26902200Y27540350D03*
X27902200Y27540350D03*
%TD*%
D13*
%TO.C,C100*%
X22827200Y18636350D03*
X22827200Y17636350D03*
%TD*%
D47*
%TO.C,C77*%
X24377200Y13300350D03*
X24377200Y14700350D03*
%TD*%
D19*
%TO.C,TP22*%
X51817200Y44542830D03*
%TD*%
%TO.C,TP23*%
X53690970Y47082830D03*
%TD*%
D48*
%TO.C,U13*%
X23977200Y61315350D03*
X23977200Y59415350D03*
X26007200Y60365350D03*
%TD*%
D15*
%TO.C,R128*%
X21809570Y19539794D03*
X21809570Y20539794D03*
%TD*%
D32*
%TO.C,R100*%
X45502200Y18815350D03*
X43702200Y18815350D03*
%TD*%
D18*
%TO.C,R121*%
X35477200Y13900350D03*
X36477200Y13900350D03*
%TD*%
D19*
%TO.C,TP36*%
X51817200Y62322830D03*
%TD*%
D33*
%TO.C,FID16*%
X56709479Y75886113D03*
%TD*%
D28*
%TO.C,R14*%
X21177200Y82304700D03*
X19777200Y82304700D03*
%TD*%
D19*
%TO.C,TP13*%
X53738630Y34382830D03*
%TD*%
D18*
%TO.C,L2*%
X45052200Y80640350D03*
X46052200Y80640350D03*
%TD*%
D19*
%TO.C,TP31*%
X53713710Y57242830D03*
%TD*%
D18*
%TO.C,C101*%
X43242200Y16500340D03*
X44242200Y16500340D03*
%TD*%
D23*
%TO.C,R125*%
X46189970Y15424270D03*
X45189970Y15424270D03*
%TD*%
D19*
%TO.C,TP10*%
X51817200Y29302830D03*
%TD*%
D26*
%TO.C,M4*%
X3999600Y83991540D03*
%TD*%
D19*
%TO.C,TP21*%
X53690970Y44542830D03*
%TD*%
D13*
%TO.C,FB2*%
X39302200Y83265350D03*
X39302200Y82265350D03*
%TD*%
%TO.C,C31*%
X48777200Y79067420D03*
X48777200Y78067420D03*
%TD*%
%TO.C,R119*%
X24254570Y53854794D03*
X24254570Y52854794D03*
%TD*%
D41*
%TO.C,BAT1*%
X12511180Y62601390D03*
D42*
X12511180Y53958990D03*
%TD*%
D49*
%TO.C,D2*%
X45252200Y29040350D03*
X48952200Y29040350D03*
%TD*%
D28*
%TO.C,R19*%
X39917890Y53590350D03*
X38517890Y53590350D03*
%TD*%
D18*
%TO.C,C85*%
X33927200Y29615350D03*
X34927200Y29615350D03*
%TD*%
D50*
%TO.C,L6*%
X43864930Y24079040D03*
X50014930Y24079040D03*
%TD*%
D23*
%TO.C,C95*%
X27919570Y25579794D03*
X26919570Y25579794D03*
%TD*%
D21*
%TO.C,C13*%
X38517890Y46860350D03*
X40317890Y46860350D03*
%TD*%
D15*
%TO.C,L1*%
X29695000Y78990350D03*
X29695000Y79990350D03*
%TD*%
D19*
%TO.C,TP20*%
X51817200Y42002830D03*
%TD*%
%TO.C,TP7*%
X53738630Y26762830D03*
%TD*%
D51*
%TO.C,H1*%
X64517200Y19142830D03*
D52*
X61977200Y19142830D03*
X64517200Y21682830D03*
X61977200Y21682830D03*
X64517200Y24222830D03*
X61977200Y24222830D03*
X64517200Y26762830D03*
X61977200Y26762830D03*
X64517200Y29302830D03*
X61977200Y29302830D03*
X64517200Y31842830D03*
X61977200Y31842830D03*
X64517200Y34382830D03*
X61977200Y34382830D03*
X64517200Y36922830D03*
X61977200Y36922830D03*
X64517200Y39462830D03*
X61977200Y39462830D03*
X64517200Y42002830D03*
X61977200Y42002830D03*
X64517200Y44542830D03*
X61977200Y44542830D03*
X64517200Y47082830D03*
X61977200Y47082830D03*
X64517200Y49622830D03*
X61977200Y49622830D03*
X64517200Y52162830D03*
X61977200Y52162830D03*
X64517200Y54702830D03*
X61977200Y54702830D03*
X64517200Y57242830D03*
X61977200Y57242830D03*
X64517200Y59782830D03*
X61977200Y59782830D03*
X64517200Y62322830D03*
X61977200Y62322830D03*
%TD*%
D13*
%TO.C,C38*%
X39027200Y76690350D03*
X39027200Y75690350D03*
%TD*%
D19*
%TO.C,TP18*%
X53738630Y39462830D03*
%TD*%
%TO.C,TP6*%
X51817200Y24222830D03*
%TD*%
D13*
%TO.C,C16*%
X29927200Y59565350D03*
X29927200Y58565350D03*
%TD*%
D19*
%TO.C,TP24*%
X51817200Y47082830D03*
%TD*%
D53*
%TO.C,U5*%
X21800700Y78764699D03*
X21800700Y79264700D03*
X21800700Y79764700D03*
X21800700Y80264701D03*
D54*
X21119599Y80441800D03*
X20619600Y80441800D03*
X20119601Y80441800D03*
D53*
X19438500Y80264701D03*
X19438500Y79764700D03*
X19438500Y79264700D03*
X19438500Y78764699D03*
D54*
X20119601Y78587600D03*
X20619600Y78587600D03*
X21119599Y78587600D03*
%TD*%
D41*
%TO.C,BAT3*%
X12528200Y27428350D03*
D42*
X12528200Y18785950D03*
%TD*%
D34*
%TO.C,U9*%
X41427200Y54835350D03*
X41427200Y56105350D03*
X41427200Y57375350D03*
X41427200Y58645350D03*
X35627200Y58645350D03*
X35627200Y57375350D03*
X35627200Y56105350D03*
X35627200Y54835350D03*
%TD*%
D13*
%TO.C,FB3*%
X38302200Y83265350D03*
X38302200Y82265350D03*
%TD*%
D55*
%TO.C,SW1*%
X43701080Y51115270D03*
X50101080Y51115270D03*
%TD*%
D23*
%TO.C,R129*%
X46189970Y16499270D03*
X45189970Y16499270D03*
%TD*%
D13*
%TO.C,C30*%
X50602200Y79067420D03*
X50602200Y78067420D03*
%TD*%
D56*
%TO.C,U38*%
X22427200Y15900350D03*
X21477200Y15900350D03*
X20527200Y15900350D03*
X20527200Y13300350D03*
X22427200Y13300350D03*
%TD*%
D18*
%TO.C,C99*%
X43242300Y15450350D03*
X44242300Y15450350D03*
%TD*%
%TO.C,R118*%
X33652200Y13900350D03*
X34652200Y13900350D03*
%TD*%
D23*
%TO.C,R122*%
X47964970Y15424270D03*
X46964970Y15424270D03*
%TD*%
D13*
%TO.C,FB5*%
X35247130Y79990190D03*
X35247130Y78990190D03*
%TD*%
D19*
%TO.C,TP12*%
X51817200Y31842830D03*
%TD*%
D24*
%TO.C,F3*%
X16627200Y42459840D03*
X16627200Y45259840D03*
%TD*%
D13*
%TO.C,C14*%
X34202200Y52060350D03*
X34202200Y51060350D03*
%TD*%
D19*
%TO.C,TP16*%
X51817200Y36922830D03*
%TD*%
D18*
%TO.C,L4*%
X49602200Y80065350D03*
X50602200Y80065350D03*
%TD*%
D15*
%TO.C,C94*%
X42527200Y18315350D03*
X42527200Y19315350D03*
%TD*%
D23*
%TO.C,C86*%
X27919570Y24469794D03*
X26919570Y24469794D03*
%TD*%
D19*
%TO.C,TP17*%
X51814600Y39439700D03*
%TD*%
D15*
%TO.C,C24*%
X41777200Y82240350D03*
X41777200Y83240350D03*
%TD*%
D57*
%TO.C,U6*%
X27052210Y33990350D03*
X26402200Y33990350D03*
X25752210Y33990350D03*
X25102200Y33990350D03*
X25102200Y29590350D03*
X25752210Y29590350D03*
X26402200Y29590350D03*
X27052210Y29590350D03*
%TD*%
D15*
%TO.C,R27*%
X31993160Y78829700D03*
X31993160Y79829700D03*
%TD*%
D19*
%TO.C,TP2*%
X51817200Y19142830D03*
%TD*%
%TO.C,TP35*%
X53687010Y62322830D03*
%TD*%
D23*
%TO.C,C33*%
X38906991Y79515450D03*
X37906991Y79515450D03*
%TD*%
D30*
%TO.C,U48*%
X25827200Y54740350D03*
X25827200Y55240350D03*
X25827200Y55740350D03*
X25827200Y56240350D03*
X22827200Y56240350D03*
X22827200Y55740350D03*
X22827200Y55240350D03*
X22827200Y54740350D03*
%TD*%
D58*
%TO.C,U11*%
X30977200Y57515350D03*
X31627200Y57515350D03*
X32277200Y57515350D03*
X32277200Y59565350D03*
X30977200Y59565350D03*
%TD*%
D20*
%TO.C,R18*%
X41777200Y47015350D03*
X41777200Y45615350D03*
%TD*%
D23*
%TO.C,C93*%
X27979570Y18759794D03*
X26979570Y18759794D03*
%TD*%
D19*
%TO.C,TP8*%
X51817200Y26762830D03*
%TD*%
D13*
%TO.C,R124*%
X22827200Y40538350D03*
X22827200Y39538350D03*
%TD*%
D24*
%TO.C,F4*%
X16627200Y24809840D03*
X16627200Y27609840D03*
%TD*%
D19*
%TO.C,TP4*%
X51829600Y21679700D03*
%TD*%
D15*
%TO.C,C59*%
X42725730Y61024840D03*
X42725730Y62024840D03*
%TD*%
D19*
%TO.C,TP30*%
X51817200Y54702830D03*
%TD*%
D28*
%TO.C,R21*%
X31077200Y46840350D03*
X29677200Y46840350D03*
%TD*%
D19*
%TO.C,TP19*%
X53738630Y42002830D03*
%TD*%
D59*
%TO.C,RV1*%
X41234900Y61265290D03*
X41234900Y62535290D03*
%TD*%
D33*
%TO.C,FID15*%
X23624570Y49144794D03*
%TD*%
D19*
%TO.C,TP27*%
X53690970Y52162830D03*
%TD*%
%TO.C,TP25*%
X53690970Y49622830D03*
%TD*%
%TO.C,TP9*%
X53738630Y29302830D03*
%TD*%
D23*
%TO.C,R86*%
X21977200Y12000350D03*
X20977200Y12000350D03*
%TD*%
D18*
%TO.C,C34*%
X45052200Y81640350D03*
X46052200Y81640350D03*
%TD*%
D60*
%TO.C,J1*%
X54749600Y74029700D03*
X52459600Y74029700D03*
X20859600Y74029700D03*
D61*
X18572137Y74027305D03*
D60*
X53039600Y78929700D03*
X53034600Y82929700D03*
%TD*%
M02*
