M48
INCH
T1C0.0063
%
G90
G05
T1
X0.6802Y3.1197
X0.7728Y3.1836
X0.8456Y0.626
X0.8937Y3.1207
X0.8987Y0.6943
X0.9157Y2.0809
X0.9193Y1.3882
X0.9597Y0.5788
X0.9883Y1.3382
X0.9883Y1.165
X1.0139Y1.165
X1.0168Y2.2142
X1.0168Y1.5222
X1.0168Y0.8292
X1.0239Y2.3766
X1.0395Y1.3382
X1.0465Y0.9057
X1.0556Y2.0049
X1.0582Y1.8441
X1.0598Y1.0071
X1.0598Y0.9634
X1.0622Y0.7386
X1.1123Y1.5114
X1.1133Y1.1965
X1.1192Y2.3284
X1.1349Y2.2723
X1.1526Y2.1118
X1.1526Y1.0065
X1.1526Y0.849
X1.1526Y0.8293
X1.1635Y1.6335
X1.1635Y1.5075
X1.1782Y2.3057
X1.1936Y2.1935
X1.2452Y2.2644
X1.2747Y0.5831
X1.2839Y2.0549
X1.2861Y2.1728
X1.3013Y1.2752
X1.3269Y2.3303
X1.3357Y0.6463
X1.3554Y1.1108
X1.3711Y3.0193
X1.3751Y1.166
X1.4026Y2.0047
X1.4204Y3.0252
X1.4272Y1.7398
X1.4298Y2.1089
X1.4361Y0.5473
X1.4587Y1.1896
X1.4735Y0.5433
X1.4865Y3.092
X1.4873Y2.974
X1.4924Y3.1305
X1.5365Y2.9799
X1.5873Y1.8449
X1.6002Y2.9858
X1.6133Y3.163
X1.6133Y3.1433
X1.6133Y3.1236
X1.6133Y3.104
X1.6133Y3.0843
X1.6172Y0.8884
X1.6172Y0.7506
X1.628Y1.4445
X1.631Y2.3089
X1.631Y2.0547
X1.633Y3.201
X1.633Y3.163
X1.633Y3.1433
X1.633Y3.1236
X1.633Y3.104
X1.633Y3.0843
X1.6448Y3.2772
X1.6526Y3.163
X1.6526Y3.1433
X1.6526Y3.1236
X1.6526Y3.104
X1.6526Y3.0843
X1.6723Y3.163
X1.6723Y3.1433
X1.6723Y3.1236
X1.6723Y3.104
X1.6723Y3.0843
X1.6743Y0.8884
X1.6792Y1.6414
X1.6841Y3.2772
X1.692Y3.201
X1.692Y3.163
X1.692Y3.1433
X1.692Y3.1236
X1.692Y3.104
X1.692Y3.0843
X1.6999Y2.1847
X1.6999Y2.1177
X1.7228Y3.2772
X1.7418Y0.6496
X1.7418Y0.6083
X1.7791Y0.6496
X1.7791Y0.6073
X1.8131Y3.2142
X1.8131Y3.0482
X1.8132Y3.1374
X1.8456Y3.0469
X1.8524Y0.7638
X1.8524Y0.7378
X1.8524Y0.7126
X1.8889Y2.1197
X1.9204Y3.0735
X1.9725Y2.0124
X1.9922Y3.0735
M30
