%TF.GenerationSoftware,KiCad,Pcbnew,8.0.2*%
%TF.CreationDate,2024-10-13T20:55:16-05:00*%
%TF.ProjectId,PM1C_Rev_1_2,504d3143-5f52-4657-965f-315f322e6b69,1*%
%TF.SameCoordinates,PX297003ePY8770cd2*%
%TF.FileFunction,Profile,NP*%
%FSLAX46Y46*%
G04 Gerber Fmt 4.6, Leading zero omitted, Abs format (unit mm)*
G04 Created by KiCad (PCBNEW 8.0.2) date 2024-10-13 20:55:16*
%MOMM*%
%LPD*%
G01*
G04 APERTURE LIST*
%TA.AperFunction,Profile*%
%ADD10C,0.050000*%
%TD*%
G04 APERTURE END LIST*
D10*
X40097062Y84569560D02*
G75*
G02*
X40101269Y86567296I65708J998734D01*
G01*
X16969160Y18517970D02*
X20924570Y18514794D01*
X74512989Y18551479D02*
X74512989Y26194681D01*
X44154220Y63354860D02*
G75*
G02*
X43392220Y63354860I-381000J0D01*
G01*
X13072620Y82043883D02*
X13073580Y75546186D01*
X-430Y93999794D02*
X83999570Y93999794D01*
X83999570Y-206D01*
X-430Y-206D01*
X-430Y93999794D01*
X29168200Y75298540D02*
G75*
G02*
X29930200Y75298540I381000J0D01*
G01*
X9998577Y61899780D02*
G75*
G02*
X7995987Y61914854I-1000907J59114D01*
G01*
X7999863Y37389737D02*
G75*
G02*
X10000743Y37424144I1000957J-12853D01*
G01*
X22454767Y8002644D02*
G75*
G02*
X21556793Y8128563I-37397J2998150D01*
G01*
X22045552Y10078199D02*
G75*
G02*
X17446829Y15937321I2931018J7034795D01*
G01*
X27931868Y66361539D02*
X27932828Y71048365D01*
X76511758Y33187968D02*
G75*
G02*
X74512624Y33200892I-999988J-58674D01*
G01*
X7999863Y28504613D02*
G75*
G02*
X10786749Y31195431I2762107J-72119D01*
G01*
X58249620Y75589710D02*
X58251240Y82029550D01*
X18653896Y50592202D02*
X18653896Y48802160D01*
X43392220Y75298540D02*
G75*
G02*
X44154220Y75298540I381000J0D01*
G01*
X21097280Y34985088D02*
G75*
G02*
X21097282Y34220700I7690J-382194D01*
G01*
X51424443Y8004611D02*
X44921701Y8004611D01*
X15071180Y82029550D02*
X15072140Y75588427D01*
X23453200Y11014800D02*
G75*
G02*
X22045542Y10078174I-1015630J294D01*
G01*
X55734082Y86567304D02*
G75*
G02*
X60249809Y82044169I-21712J-4537410D01*
G01*
X55734082Y86567304D02*
X40101268Y86567304D01*
X74511690Y62830860D02*
X74511690Y55318742D01*
X29422200Y11776800D02*
G75*
G02*
X30946200Y11776800I762000J0D01*
G01*
X10000740Y28429060D02*
X10000740Y26751726D01*
X18653471Y32985423D02*
X18653471Y31195381D01*
X21556789Y8128551D02*
G75*
G02*
X15505479Y15404128I3379981J8965543D01*
G01*
X10000740Y46010960D02*
G75*
G02*
X10762740Y46772924I762030J-66D01*
G01*
X45390552Y66361825D02*
X73009751Y66361825D01*
X17588338Y86567018D02*
X33221152Y86567018D01*
X29930200Y63354860D02*
G75*
G02*
X29168200Y63354860I-381000J0D01*
G01*
X7999862Y35671257D02*
X7999862Y37389737D01*
X24492266Y73048703D02*
X28407160Y73048417D01*
X40097062Y84569560D02*
X55711230Y84569560D01*
X21097300Y29954091D02*
X20657300Y29955004D01*
X60248180Y75547755D02*
G75*
G02*
X55724153Y71049914I-4540110J42439D01*
G01*
X10765000Y52565000D02*
X19895888Y52564281D01*
X21688770Y17803988D02*
G75*
G02*
X20899568Y17099736I-761300J58806D01*
G01*
X20657280Y34219688D02*
X20656910Y29954854D01*
X29169160Y73810417D02*
G75*
G02*
X28407160Y73048404I-762090J77D01*
G01*
X72987690Y64354860D02*
G75*
G02*
X74511736Y62830860I80J-1523966D01*
G01*
X21099590Y46769710D02*
X19895908Y46770623D01*
X37981640Y8002644D02*
X22454767Y8002644D01*
X29168200Y63354860D02*
X29168200Y64354860D01*
X17612150Y73048417D02*
G75*
G02*
X15072193Y75588427I20J2539977D01*
G01*
X10000740Y18164910D02*
X10000740Y19818038D01*
X21097300Y29954091D02*
G75*
G02*
X21097302Y29189697I7770J-382197D01*
G01*
X10762710Y34984894D02*
X19893598Y34984175D01*
X18653471Y31195381D02*
X10786749Y31195381D01*
X31962210Y9999840D02*
G75*
G02*
X30946216Y11015840I160J1016154D01*
G01*
X7995987Y63633334D02*
G75*
G02*
X10788848Y66361495I2786583J-59040D01*
G01*
X76511758Y33187968D02*
X76511758Y48356999D01*
X18653896Y50592202D02*
X10787174Y50592202D01*
X43392220Y63354860D02*
X43392220Y75298540D01*
X18653896Y48802160D02*
X10787174Y48802160D01*
X29422200Y11359840D02*
X29422200Y11776800D01*
X54633207Y17108272D02*
X54695230Y17110800D01*
X54695230Y17110810D02*
X72987690Y17110810D01*
X74512660Y33200889D02*
X74512660Y48369920D01*
X10765000Y52565000D02*
G75*
G02*
X9999976Y53330000I-530J764494D01*
G01*
X10000740Y28429060D02*
G75*
G02*
X10762740Y29191024I762030J-66D01*
G01*
X44904117Y10000977D02*
X50887740Y10000977D01*
X10005000Y54965000D02*
X10000000Y53330000D01*
X27932828Y71048365D02*
X24488060Y71050959D01*
X30946200Y11776800D02*
X30946200Y11015840D01*
X19894900Y29192854D02*
X10760450Y29192854D01*
X51199402Y10051668D02*
G75*
G02*
X50887740Y9999829I-283132J739426D01*
G01*
X45390552Y66361825D02*
X45388932Y71049934D01*
X48829494Y73049414D02*
G75*
G02*
X48833702Y71051642I-61524J-999020D01*
G01*
X73022161Y15115114D02*
X57751898Y15115114D01*
X44154220Y75298540D02*
X44152600Y73811700D01*
X16472561Y18076188D02*
G75*
G02*
X16969160Y18517990I496509J-58094D01*
G01*
X74512989Y26194681D02*
G75*
G02*
X76506110Y26198184I996681J-66687D01*
G01*
X10762740Y34984810D02*
G75*
G02*
X10000786Y35746810I-70J761884D01*
G01*
X21097280Y34985088D02*
X19893598Y34984175D01*
X23453200Y11776800D02*
G75*
G02*
X24977200Y11776800I762000J0D01*
G01*
X21099570Y51800707D02*
X20659570Y51799794D01*
X31962210Y9999840D02*
X37993506Y9999840D01*
X45388932Y71049934D02*
X48833700Y71051670D01*
X9998578Y61899780D02*
X9998578Y63582661D01*
X8000287Y54996516D02*
G75*
G02*
X10004942Y54964999I1001883J-44022D01*
G01*
X10000740Y35746810D02*
X10000740Y37424144D01*
X18653471Y32985423D02*
X10786749Y32985423D01*
X74512989Y18551479D02*
G75*
G02*
X72987690Y17110784I-1525419J87215D01*
G01*
X27931868Y66361539D02*
X10788848Y66361539D01*
X9998578Y63582661D02*
G75*
G02*
X10762740Y64354827I764192J7933D01*
G01*
X37993506Y9999840D02*
G75*
G02*
X37981640Y8002640I-82336J-998146D01*
G01*
X29168200Y64354860D02*
X10762740Y64354860D01*
X24488060Y71050959D02*
G75*
G02*
X24492266Y73048697I65710J998735D01*
G01*
X17612150Y73048417D02*
G75*
G02*
X17597606Y71048381I-61580J-999623D01*
G01*
X74512660Y48369920D02*
G75*
G02*
X76511782Y48357000I999310J-45326D01*
G01*
X7999816Y19824254D02*
G75*
G02*
X10000708Y19818037I1000354J-32660D01*
G01*
X44154220Y64354860D02*
X44154220Y63354860D01*
X7999862Y28504613D02*
X7999862Y26786133D01*
X54589440Y15594180D02*
G75*
G02*
X55387297Y14199912I-140970J-1006086D01*
G01*
X29930200Y75298540D02*
X29930200Y63354860D01*
X20659570Y51799794D02*
X20659200Y47534960D01*
X44914600Y73049700D02*
X48829494Y73049414D01*
X21099590Y47534197D02*
G75*
G02*
X21099592Y46769791I7780J-382203D01*
G01*
X72987690Y64354860D02*
X44154220Y64354860D01*
X20924570Y18514794D02*
G75*
G02*
X21688813Y17803991I-3300J-769800D01*
G01*
X55711230Y84569560D02*
G75*
G02*
X58251236Y82029550I-160J-2540166D01*
G01*
X21097300Y29189604D02*
X19893618Y29190517D01*
X10001165Y44358505D02*
G75*
G02*
X8000278Y44392912I-999925J47349D01*
G01*
X21099570Y52565194D02*
G75*
G02*
X21099572Y51800794I7700J-382200D01*
G01*
X8000287Y46111392D02*
X8000287Y44392912D01*
X55387322Y14199908D02*
G75*
G02*
X51199393Y10051690I-7025252J2904386D01*
G01*
X10786749Y32985423D02*
G75*
G02*
X7999875Y35671257I-29879J2757771D01*
G01*
X8000288Y46111392D02*
G75*
G02*
X10787174Y48802205I2762082J-72098D01*
G01*
X15071180Y82029550D02*
G75*
G02*
X17611190Y84569584I2539890J144D01*
G01*
X24977200Y11776800D02*
X24977200Y11359840D01*
X24977200Y11359840D02*
X29422200Y11359840D01*
X21099570Y52565194D02*
X19895888Y52564281D01*
X21097280Y34220601D02*
X20657280Y34219688D01*
X10758458Y15404131D02*
G75*
G02*
X7999807Y18171126I4112J2762763D01*
G01*
X76506828Y62853058D02*
X76512905Y55340942D01*
X29169160Y73810417D02*
X29168200Y75298540D01*
X17446824Y15937320D02*
G75*
G02*
X18449569Y17099721I995346J155074D01*
G01*
X10762740Y17402910D02*
G75*
G02*
X10000786Y18164910I-70J761884D01*
G01*
X8000287Y53278036D02*
X8000287Y54996516D01*
X17597607Y71048365D02*
G75*
G02*
X13073610Y75546186I15963J4540129D01*
G01*
X58249620Y75589710D02*
G75*
G02*
X55709610Y73049744I-2539850J-116D01*
G01*
X44921701Y8004611D02*
G75*
G02*
X44904117Y10000982I2269J998283D01*
G01*
X7999816Y18171126D02*
X7999816Y19824254D01*
X33225358Y84569274D02*
X17611190Y84569274D01*
X7995986Y63633334D02*
X7995986Y61914854D01*
X55724153Y71049934D02*
G75*
G02*
X55709612Y73049665I47017J1000260D01*
G01*
X13072620Y82043883D02*
G75*
G02*
X17588338Y86567024I4537500J-14329D01*
G01*
X10787174Y50592202D02*
G75*
G02*
X8000251Y53278035I-30004J2757692D01*
G01*
X44914600Y73049700D02*
G75*
G02*
X44152576Y73811700I-30J761994D01*
G01*
X20899570Y17099794D02*
X18449570Y17099794D01*
X73009751Y66361825D02*
G75*
G02*
X76506795Y62853058I-34081J-3531031D01*
G01*
X10762740Y17402910D02*
X15715740Y17402910D01*
X10000740Y46010960D02*
X10001165Y44358505D01*
X60249800Y82044169D02*
X60248180Y75547755D01*
X10000740Y26751726D02*
G75*
G02*
X7999866Y26786133I-999920J47258D01*
G01*
X33221152Y86567018D02*
G75*
G02*
X33225360Y84569238I-61582J-999024D01*
G01*
X15505493Y15404131D02*
X10758458Y15404131D01*
X76506032Y18554976D02*
X76506032Y26198178D01*
X23453200Y11014800D02*
X23453200Y11776800D01*
X16472557Y18076186D02*
G75*
G02*
X15715740Y17402926I-756787J88708D01*
G01*
X57751898Y15115114D02*
G75*
G02*
X51424442Y8004615I-9409188J2002430D01*
G01*
X54589435Y15594180D02*
G75*
G02*
X54633209Y17108251I105635J754614D01*
G01*
X76506668Y18554962D02*
G75*
G02*
X73022161Y15115157I-3518998J79932D01*
G01*
X21099590Y47534197D02*
X20659590Y47535110D01*
X76512905Y55340942D02*
G75*
G02*
X74511654Y55318741I-1000735J-1248D01*
G01*
X19897190Y46772960D02*
X10762740Y46772960D01*
M02*
