%TF.GenerationSoftware,KiCad,Pcbnew,8.0.2*%
%TF.CreationDate,2024-10-13T20:55:15-05:00*%
%TF.ProjectId,PM1C_Rev_1_2,504d3143-5f52-4657-965f-315f322e6b69,1*%
%TF.SameCoordinates,PX297003ePY8770cd2*%
%TF.FileFunction,Soldermask,Bot*%
%TF.FilePolarity,Negative*%
%FSLAX46Y46*%
G04 Gerber Fmt 4.6, Leading zero omitted, Abs format (unit mm)*
G04 Created by KiCad (PCBNEW 8.0.2) date 2024-10-13 20:55:15*
%MOMM*%
%LPD*%
G01*
G04 APERTURE LIST*
G04 Aperture macros list*
%AMRoundRect*
0 Rectangle with rounded corners*
0 $1 Rounding radius*
0 $2 $3 $4 $5 $6 $7 $8 $9 X,Y pos of 4 corners*
0 Add a 4 corners polygon primitive as box body*
4,1,4,$2,$3,$4,$5,$6,$7,$8,$9,$2,$3,0*
0 Add four circle primitives for the rounded corners*
1,1,$1+$1,$2,$3*
1,1,$1+$1,$4,$5*
1,1,$1+$1,$6,$7*
1,1,$1+$1,$8,$9*
0 Add four rect primitives between the rounded corners*
20,1,$1+$1,$2,$3,$4,$5,0*
20,1,$1+$1,$4,$5,$6,$7,0*
20,1,$1+$1,$6,$7,$8,$9,0*
20,1,$1+$1,$8,$9,$2,$3,0*%
G04 Aperture macros list end*
%ADD10C,0.050000*%
%ADD11C,0.000000*%
%ADD12C,0.200000*%
%ADD13C,0.203000*%
%ADD14C,4.113000*%
%ADD15O,4.164000X2.640000*%
%ADD16O,4.164000X1.928800*%
%ADD17C,1.800000*%
%ADD18RoundRect,0.050000X0.750000X-0.750000X0.750000X0.750000X-0.750000X0.750000X-0.750000X-0.750000X0*%
%ADD19C,1.600000*%
%ADD20C,0.900000*%
%ADD21RoundRect,0.050000X-0.500000X0.300000X-0.500000X-0.300000X0.500000X-0.300000X0.500000X0.300000X0*%
%ADD22RoundRect,0.050000X-0.375000X0.250000X-0.375000X-0.250000X0.375000X-0.250000X0.375000X0.250000X0*%
%ADD23RoundRect,0.050000X0.500000X-0.300000X0.500000X0.300000X-0.500000X0.300000X-0.500000X-0.300000X0*%
%ADD24RoundRect,0.050000X-0.550000X0.550000X-0.550000X-0.550000X0.550000X-0.550000X0.550000X0.550000X0*%
%ADD25RoundRect,0.050000X0.300000X0.500000X-0.300000X0.500000X-0.300000X-0.500000X0.300000X-0.500000X0*%
%ADD26RoundRect,0.050000X-0.300000X-0.500000X0.300000X-0.500000X0.300000X0.500000X-0.300000X0.500000X0*%
%ADD27RoundRect,0.050000X0.375000X-0.250000X0.375000X0.250000X-0.375000X0.250000X-0.375000X-0.250000X0*%
%ADD28RoundRect,0.050000X1.350000X-0.575000X1.350000X0.575000X-1.350000X0.575000X-1.350000X-0.575000X0*%
%ADD29RoundRect,0.050000X0.775000X-0.475000X0.775000X0.475000X-0.775000X0.475000X-0.775000X-0.475000X0*%
%ADD30RoundRect,0.050000X0.250000X0.375000X-0.250000X0.375000X-0.250000X-0.375000X0.250000X-0.375000X0*%
%ADD31RoundRect,0.050000X-0.500000X-0.300000X0.500000X-0.300000X0.500000X0.300000X-0.500000X0.300000X0*%
%ADD32RoundRect,0.050000X-0.250000X-0.150000X0.250000X-0.150000X0.250000X0.150000X-0.250000X0.150000X0*%
%ADD33RoundRect,0.050000X-0.300000X0.625000X-0.300000X-0.625000X0.300000X-0.625000X0.300000X0.625000X0*%
%ADD34RoundRect,0.050000X-0.250000X-0.375000X0.250000X-0.375000X0.250000X0.375000X-0.250000X0.375000X0*%
%ADD35RoundRect,0.050000X0.600000X0.900000X-0.600000X0.900000X-0.600000X-0.900000X0.600000X-0.900000X0*%
%ADD36RoundRect,0.050000X-1.350000X0.575000X-1.350000X-0.575000X1.350000X-0.575000X1.350000X0.575000X0*%
%ADD37RoundRect,0.050000X0.550000X-0.550000X0.550000X0.550000X-0.550000X0.550000X-0.550000X-0.550000X0*%
%ADD38RoundRect,0.050000X-0.475000X-0.775000X0.475000X-0.775000X0.475000X0.775000X-0.475000X0.775000X0*%
%ADD39RoundRect,0.050000X-0.125000X0.425000X-0.125000X-0.425000X0.125000X-0.425000X0.125000X0.425000X0*%
%ADD40RoundRect,0.050000X-1.325000X1.325000X-1.325000X-1.325000X1.325000X-1.325000X1.325000X1.325000X0*%
%ADD41RoundRect,0.050000X0.300000X0.650000X-0.300000X0.650000X-0.300000X-0.650000X0.300000X-0.650000X0*%
%ADD42RoundRect,0.050000X-0.125000X0.350000X-0.125000X-0.350000X0.125000X-0.350000X0.125000X0.350000X0*%
%ADD43RoundRect,0.050000X-0.675000X0.500000X-0.675000X-0.500000X0.675000X-0.500000X0.675000X0.500000X0*%
%ADD44RoundRect,0.050000X-0.550000X-0.550000X0.550000X-0.550000X0.550000X0.550000X-0.550000X0.550000X0*%
%ADD45RoundRect,0.050000X-0.150000X0.337500X-0.150000X-0.337500X0.150000X-0.337500X0.150000X0.337500X0*%
%ADD46RoundRect,0.050000X-1.200000X0.825000X-1.200000X-0.825000X1.200000X-0.825000X1.200000X0.825000X0*%
%ADD47RoundRect,0.050000X0.550000X0.550000X-0.550000X0.550000X-0.550000X-0.550000X0.550000X-0.550000X0*%
%ADD48RoundRect,0.050000X0.425000X0.175000X-0.425000X0.175000X-0.425000X-0.175000X0.425000X-0.175000X0*%
%ADD49RoundRect,0.050000X-1.100000X-0.700000X1.100000X-0.700000X1.100000X0.700000X-1.100000X0.700000X0*%
%ADD50RoundRect,0.050000X-0.450000X-0.700000X0.450000X-0.700000X0.450000X0.700000X-0.450000X0.700000X0*%
%ADD51RoundRect,0.050000X0.300000X-0.625000X0.300000X0.625000X-0.300000X0.625000X-0.300000X-0.625000X0*%
%ADD52RoundRect,0.050000X0.635000X-0.889000X0.635000X0.889000X-0.635000X0.889000X-0.635000X-0.889000X0*%
%ADD53RoundRect,0.050000X0.250000X0.150000X-0.250000X0.150000X-0.250000X-0.150000X0.250000X-0.150000X0*%
%ADD54C,1.243000*%
%ADD55C,1.241748*%
%ADD56RoundRect,0.050000X-0.250000X0.550000X-0.250000X-0.550000X0.250000X-0.550000X0.250000X0.550000X0*%
%ADD57RoundRect,0.050000X-2.050000X1.750000X-2.050000X-1.750000X2.050000X-1.750000X2.050000X1.750000X0*%
%ADD58RoundRect,0.050000X-0.350000X-0.125000X0.350000X-0.125000X0.350000X0.125000X-0.350000X0.125000X0*%
%ADD59RoundRect,0.050000X-0.500000X-0.675000X0.500000X-0.675000X0.500000X0.675000X-0.500000X0.675000X0*%
%ADD60RoundRect,0.050000X-0.425000X-0.175000X0.425000X-0.175000X0.425000X0.175000X-0.425000X0.175000X0*%
%ADD61RoundRect,0.050000X0.225000X-0.725000X0.225000X0.725000X-0.225000X0.725000X-0.225000X-0.725000X0*%
G04 APERTURE END LIST*
D10*
X43392220Y63354860D02*
X43392220Y63354860D01*
X30946200Y11015840D02*
X30946200Y11776800D01*
X10762740Y46772960D02*
X19897190Y46772960D01*
D11*
G36*
X20929570Y52569794D02*
G01*
X17919570Y52569794D01*
X17919570Y64344860D01*
X17919570Y64349794D01*
X20929570Y64349794D01*
X20929570Y52569794D01*
G37*
G36*
X20929570Y46759794D02*
G01*
X20929570Y34989794D01*
X17919570Y34989794D01*
X17919570Y46769794D01*
X17999570Y46769794D01*
X20929570Y46759794D01*
G37*
D10*
X21099570Y34983304D02*
X19895888Y34982391D01*
X16472557Y18076186D02*
G75*
G02*
X15715740Y17402926I-756787J88708D01*
G01*
X58251240Y75591093D02*
G75*
G02*
X55711230Y73051124I-2540170J201D01*
G01*
X10000740Y46010960D02*
G75*
G02*
X10762740Y46772924I761930J34D01*
G01*
X19897210Y29186314D02*
X19897210Y29186304D01*
X31962210Y9999840D02*
X50887740Y9999840D01*
X10762740Y34984810D02*
X19897190Y34984810D01*
X23453200Y11776800D02*
X23453200Y11776800D01*
X16969160Y18517970D02*
X16969160Y18517970D01*
X54695230Y17110810D02*
X72987690Y17110810D01*
X29422200Y11776800D02*
G75*
G02*
X30946200Y11776800I762000J0D01*
G01*
X24977200Y11359840D02*
X24977200Y11776800D01*
X21099590Y46769710D02*
X19895908Y46770623D01*
X23453200Y11014800D02*
X23453200Y11776800D01*
X19897190Y34984810D02*
X19897190Y34984820D01*
X21099590Y29952307D02*
G75*
G02*
X21099591Y29187881I7780J-382213D01*
G01*
X10000740Y18164910D02*
X10000740Y28429060D01*
X21099590Y47535110D02*
X20659590Y47535110D01*
X10762740Y17402910D02*
X15715740Y17402910D01*
X19897190Y29191060D02*
X19897190Y29191060D01*
X17612805Y73049148D02*
X28407815Y73049148D01*
X20659190Y47534960D02*
X20659200Y47534960D01*
X17447910Y15938500D02*
X17447910Y15938500D01*
X21099570Y52565194D02*
G75*
G02*
X21099572Y51800794I7700J-382200D01*
G01*
X16969160Y18517970D02*
X20929013Y18514794D01*
X21099570Y52565194D02*
X19895888Y52564281D01*
X20659200Y29953070D02*
X20659570Y34217904D01*
X20897190Y46772960D02*
X19897190Y46772960D01*
X10000740Y28429060D02*
G75*
G02*
X10762740Y29191024I761930J34D01*
G01*
X10000740Y63592860D02*
G75*
G02*
X10762740Y64354824I761930J34D01*
G01*
X17612805Y73049148D02*
G75*
G02*
X15072824Y75589158I165J2540146D01*
G01*
X10762740Y17402910D02*
G75*
G02*
X10000786Y18164910I30J761984D01*
G01*
X10762740Y29191060D02*
X19897190Y29191060D01*
X29422200Y11359840D02*
X29422200Y11776800D01*
X29169815Y73811148D02*
G75*
G02*
X28407815Y73049149I-761945J-54D01*
G01*
X29168200Y74028540D02*
X29168200Y75298540D01*
X72987690Y64354860D02*
G75*
G02*
X74511736Y62830860I80J-1523966D01*
G01*
X43392220Y75298540D02*
X43392220Y75298540D01*
X54633207Y17108272D02*
G75*
G02*
X54695230Y17110796I61963J-759278D01*
G01*
X43392220Y63354860D02*
X43392220Y75298540D01*
X16472560Y18076180D02*
X16472560Y18076180D01*
X51278896Y10078155D02*
G75*
G02*
X50887740Y9999832I-391026J936939D01*
G01*
X15071180Y75806550D02*
X15071180Y82029550D01*
X17611190Y84569560D02*
X55711230Y84569560D01*
X74511690Y18634810D02*
G75*
G02*
X72987690Y17110774I-1524020J-16D01*
G01*
X21099570Y34217904D02*
X20659570Y34217904D01*
X31962210Y9999840D02*
G75*
G02*
X30946216Y11015840I160J1016154D01*
G01*
X18449570Y17099794D02*
X20928613Y17100258D01*
X58251240Y75591093D02*
X58251240Y82029550D01*
X23453200Y11014800D02*
G75*
G02*
X22046413Y10076910I-1016030J-6D01*
G01*
X29930200Y63354860D02*
X29930200Y75298540D01*
X54589435Y15594180D02*
G75*
G02*
X54633208Y17108256I105735J754614D01*
G01*
X29168200Y75298540D02*
G75*
G02*
X29930200Y75298540I381000J0D01*
G01*
X44156806Y73813815D02*
X44154220Y75298540D01*
X10762740Y34984810D02*
G75*
G02*
X10000786Y35746810I30J761984D01*
G01*
X19897210Y46768204D02*
X19897210Y46768194D01*
X74511690Y18634810D02*
X74511690Y62830860D01*
X21099570Y34983304D02*
G75*
G02*
X21099571Y34218884I7700J-382210D01*
G01*
X16472561Y18076188D02*
G75*
G02*
X16969160Y18517990I496509J-58094D01*
G01*
X10762740Y52566710D02*
X19897190Y52566710D01*
X10762740Y64354860D02*
X29168200Y64354860D01*
X44918806Y73051815D02*
G75*
G02*
X44156791Y73813815I-136J761879D01*
G01*
X30946200Y11015840D02*
X30946210Y11015840D01*
X21099590Y29953220D02*
X20659590Y29953220D01*
X20659200Y47534960D02*
X20659570Y51799794D01*
X19897190Y52566700D02*
X19897190Y52566710D01*
X55387322Y14199907D02*
G75*
G02*
X51278908Y10078131I-7042152J2910887D01*
G01*
X54589440Y15594180D02*
G75*
G02*
X55387297Y14199912I-140970J-1006086D01*
G01*
X55711230Y84569560D02*
G75*
G02*
X58251236Y82029550I-160J-2540166D01*
G01*
X21099590Y47534197D02*
G75*
G02*
X21099592Y46769791I7780J-382203D01*
G01*
X29930000Y74480000D02*
X43390000Y74480000D01*
X43390000Y64080000D01*
X29930000Y64080000D01*
X29930000Y74480000D01*
G36*
X29930000Y74480000D02*
G01*
X43390000Y74480000D01*
X43390000Y64080000D01*
X29930000Y64080000D01*
X29930000Y74480000D01*
G37*
X29168200Y63354860D02*
X29168200Y64354860D01*
X54695230Y17110800D02*
X54695230Y17110810D01*
X17447906Y15938502D02*
G75*
G02*
X18449570Y17099823I994464J154892D01*
G01*
X20929013Y18514794D02*
G75*
G02*
X21688746Y17803986I-7843J-769800D01*
G01*
X44154220Y63354860D02*
G75*
G02*
X43392220Y63354860I-381000J0D01*
G01*
X44918806Y73051815D02*
X55711230Y73051083D01*
X10762740Y52566710D02*
G75*
G02*
X10000786Y53328710I30J761984D01*
G01*
X23453200Y11776800D02*
G75*
G02*
X24977200Y11776800I762000J0D01*
G01*
X15071180Y82029550D02*
G75*
G02*
X17611190Y84569584I2540090J-56D01*
G01*
X24977200Y11359840D02*
X29422200Y11359840D01*
D11*
G36*
X60515250Y64344860D02*
G01*
X60515250Y17100810D01*
X56672720Y17108280D01*
X54633210Y17108280D01*
X54633210Y64354860D01*
X60515250Y64344860D01*
G37*
D10*
X43392220Y75298540D02*
G75*
G02*
X44154220Y75298540I381000J0D01*
G01*
X44154220Y64354860D02*
X72987690Y64354860D01*
X21099570Y51799794D02*
X20659570Y51799794D01*
X20897190Y29191070D02*
X19897190Y29191070D01*
X22046428Y10076954D02*
G75*
G02*
X17447945Y15938508I2930942J7033940D01*
G01*
X21099590Y29187820D02*
X19895908Y29188733D01*
X51278890Y10078160D02*
X51278900Y10078160D01*
X21688370Y17803838D02*
G75*
G02*
X20928613Y17100256I-759700J58356D01*
G01*
X10000740Y35746810D02*
X10000740Y46010960D01*
X44154220Y63354860D02*
X44154220Y64354860D01*
D11*
G36*
X20929570Y29189794D02*
G01*
X20929570Y18519794D01*
X17919570Y18519794D01*
X17919570Y29191060D01*
X20929570Y29189794D01*
G37*
D10*
X20659190Y29953070D02*
X20659200Y29953070D01*
X15715740Y17402910D02*
X15715740Y17402910D01*
X72987690Y64354860D02*
X72987690Y64354860D01*
X29930200Y63354860D02*
G75*
G02*
X29168200Y63354860I-381000J0D01*
G01*
X10762740Y64354860D02*
X10762740Y64354860D01*
D12*
X47455564Y-2647219D02*
X47169850Y-2742457D01*
X47169850Y-2742457D02*
X47074612Y-2837695D01*
X47074612Y-2837695D02*
X46979374Y-3028171D01*
X46979374Y-3028171D02*
X46979374Y-3313885D01*
X46979374Y-3313885D02*
X47074612Y-3504361D01*
X47074612Y-3504361D02*
X47169850Y-3599600D01*
X47169850Y-3599600D02*
X47360326Y-3694838D01*
X47360326Y-3694838D02*
X48122231Y-3694838D01*
X48122231Y-3694838D02*
X48122231Y-1694838D01*
X48122231Y-1694838D02*
X47455564Y-1694838D01*
X47455564Y-1694838D02*
X47265088Y-1790076D01*
X47265088Y-1790076D02*
X47169850Y-1885314D01*
X47169850Y-1885314D02*
X47074612Y-2075790D01*
X47074612Y-2075790D02*
X47074612Y-2266266D01*
X47074612Y-2266266D02*
X47169850Y-2456742D01*
X47169850Y-2456742D02*
X47265088Y-2551980D01*
X47265088Y-2551980D02*
X47455564Y-2647219D01*
X47455564Y-2647219D02*
X48122231Y-2647219D01*
X45836517Y-3694838D02*
X46026993Y-3599600D01*
X46026993Y-3599600D02*
X46122231Y-3504361D01*
X46122231Y-3504361D02*
X46217469Y-3313885D01*
X46217469Y-3313885D02*
X46217469Y-2742457D01*
X46217469Y-2742457D02*
X46122231Y-2551980D01*
X46122231Y-2551980D02*
X46026993Y-2456742D01*
X46026993Y-2456742D02*
X45836517Y-2361504D01*
X45836517Y-2361504D02*
X45550802Y-2361504D01*
X45550802Y-2361504D02*
X45360326Y-2456742D01*
X45360326Y-2456742D02*
X45265088Y-2551980D01*
X45265088Y-2551980D02*
X45169850Y-2742457D01*
X45169850Y-2742457D02*
X45169850Y-3313885D01*
X45169850Y-3313885D02*
X45265088Y-3504361D01*
X45265088Y-3504361D02*
X45360326Y-3599600D01*
X45360326Y-3599600D02*
X45550802Y-3694838D01*
X45550802Y-3694838D02*
X45836517Y-3694838D01*
X44598421Y-2361504D02*
X43836517Y-2361504D01*
X44312707Y-1694838D02*
X44312707Y-3409123D01*
X44312707Y-3409123D02*
X44217469Y-3599600D01*
X44217469Y-3599600D02*
X44026993Y-3694838D01*
X44026993Y-3694838D02*
X43836517Y-3694838D01*
X43455564Y-2361504D02*
X42693660Y-2361504D01*
X43169850Y-1694838D02*
X43169850Y-3409123D01*
X43169850Y-3409123D02*
X43074612Y-3599600D01*
X43074612Y-3599600D02*
X42884136Y-3694838D01*
X42884136Y-3694838D02*
X42693660Y-3694838D01*
X41741279Y-3694838D02*
X41931755Y-3599600D01*
X41931755Y-3599600D02*
X42026993Y-3504361D01*
X42026993Y-3504361D02*
X42122231Y-3313885D01*
X42122231Y-3313885D02*
X42122231Y-2742457D01*
X42122231Y-2742457D02*
X42026993Y-2551980D01*
X42026993Y-2551980D02*
X41931755Y-2456742D01*
X41931755Y-2456742D02*
X41741279Y-2361504D01*
X41741279Y-2361504D02*
X41455564Y-2361504D01*
X41455564Y-2361504D02*
X41265088Y-2456742D01*
X41265088Y-2456742D02*
X41169850Y-2551980D01*
X41169850Y-2551980D02*
X41074612Y-2742457D01*
X41074612Y-2742457D02*
X41074612Y-3313885D01*
X41074612Y-3313885D02*
X41169850Y-3504361D01*
X41169850Y-3504361D02*
X41265088Y-3599600D01*
X41265088Y-3599600D02*
X41455564Y-3694838D01*
X41455564Y-3694838D02*
X41741279Y-3694838D01*
X40217469Y-3694838D02*
X40217469Y-2361504D01*
X40217469Y-2551980D02*
X40122231Y-2456742D01*
X40122231Y-2456742D02*
X39931755Y-2361504D01*
X39931755Y-2361504D02*
X39646040Y-2361504D01*
X39646040Y-2361504D02*
X39455564Y-2456742D01*
X39455564Y-2456742D02*
X39360326Y-2647219D01*
X39360326Y-2647219D02*
X39360326Y-3694838D01*
X39360326Y-2647219D02*
X39265088Y-2456742D01*
X39265088Y-2456742D02*
X39074612Y-2361504D01*
X39074612Y-2361504D02*
X38788898Y-2361504D01*
X38788898Y-2361504D02*
X38598421Y-2456742D01*
X38598421Y-2456742D02*
X38503183Y-2647219D01*
X38503183Y-2647219D02*
X38503183Y-3694838D01*
X36122230Y-3599600D02*
X35836516Y-3694838D01*
X35836516Y-3694838D02*
X35360325Y-3694838D01*
X35360325Y-3694838D02*
X35169849Y-3599600D01*
X35169849Y-3599600D02*
X35074611Y-3504361D01*
X35074611Y-3504361D02*
X34979373Y-3313885D01*
X34979373Y-3313885D02*
X34979373Y-3123409D01*
X34979373Y-3123409D02*
X35074611Y-2932933D01*
X35074611Y-2932933D02*
X35169849Y-2837695D01*
X35169849Y-2837695D02*
X35360325Y-2742457D01*
X35360325Y-2742457D02*
X35741278Y-2647219D01*
X35741278Y-2647219D02*
X35931754Y-2551980D01*
X35931754Y-2551980D02*
X36026992Y-2456742D01*
X36026992Y-2456742D02*
X36122230Y-2266266D01*
X36122230Y-2266266D02*
X36122230Y-2075790D01*
X36122230Y-2075790D02*
X36026992Y-1885314D01*
X36026992Y-1885314D02*
X35931754Y-1790076D01*
X35931754Y-1790076D02*
X35741278Y-1694838D01*
X35741278Y-1694838D02*
X35265087Y-1694838D01*
X35265087Y-1694838D02*
X34979373Y-1790076D01*
X33836516Y-3694838D02*
X34026992Y-3599600D01*
X34026992Y-3599600D02*
X34122230Y-3504361D01*
X34122230Y-3504361D02*
X34217468Y-3313885D01*
X34217468Y-3313885D02*
X34217468Y-2742457D01*
X34217468Y-2742457D02*
X34122230Y-2551980D01*
X34122230Y-2551980D02*
X34026992Y-2456742D01*
X34026992Y-2456742D02*
X33836516Y-2361504D01*
X33836516Y-2361504D02*
X33550801Y-2361504D01*
X33550801Y-2361504D02*
X33360325Y-2456742D01*
X33360325Y-2456742D02*
X33265087Y-2551980D01*
X33265087Y-2551980D02*
X33169849Y-2742457D01*
X33169849Y-2742457D02*
X33169849Y-3313885D01*
X33169849Y-3313885D02*
X33265087Y-3504361D01*
X33265087Y-3504361D02*
X33360325Y-3599600D01*
X33360325Y-3599600D02*
X33550801Y-3694838D01*
X33550801Y-3694838D02*
X33836516Y-3694838D01*
X32026992Y-3694838D02*
X32217468Y-3599600D01*
X32217468Y-3599600D02*
X32312706Y-3409123D01*
X32312706Y-3409123D02*
X32312706Y-1694838D01*
X30407944Y-3694838D02*
X30407944Y-1694838D01*
X30407944Y-3599600D02*
X30598420Y-3694838D01*
X30598420Y-3694838D02*
X30979373Y-3694838D01*
X30979373Y-3694838D02*
X31169849Y-3599600D01*
X31169849Y-3599600D02*
X31265087Y-3504361D01*
X31265087Y-3504361D02*
X31360325Y-3313885D01*
X31360325Y-3313885D02*
X31360325Y-2742457D01*
X31360325Y-2742457D02*
X31265087Y-2551980D01*
X31265087Y-2551980D02*
X31169849Y-2456742D01*
X31169849Y-2456742D02*
X30979373Y-2361504D01*
X30979373Y-2361504D02*
X30598420Y-2361504D01*
X30598420Y-2361504D02*
X30407944Y-2456742D01*
X28693658Y-3599600D02*
X28884134Y-3694838D01*
X28884134Y-3694838D02*
X29265087Y-3694838D01*
X29265087Y-3694838D02*
X29455563Y-3599600D01*
X29455563Y-3599600D02*
X29550801Y-3409123D01*
X29550801Y-3409123D02*
X29550801Y-2647219D01*
X29550801Y-2647219D02*
X29455563Y-2456742D01*
X29455563Y-2456742D02*
X29265087Y-2361504D01*
X29265087Y-2361504D02*
X28884134Y-2361504D01*
X28884134Y-2361504D02*
X28693658Y-2456742D01*
X28693658Y-2456742D02*
X28598420Y-2647219D01*
X28598420Y-2647219D02*
X28598420Y-2837695D01*
X28598420Y-2837695D02*
X29550801Y-3028171D01*
X27741277Y-3694838D02*
X27741277Y-2361504D01*
X27741277Y-2742457D02*
X27646039Y-2551980D01*
X27646039Y-2551980D02*
X27550801Y-2456742D01*
X27550801Y-2456742D02*
X27360325Y-2361504D01*
X27360325Y-2361504D02*
X27169848Y-2361504D01*
X24979372Y-3694838D02*
X24979372Y-1694838D01*
X24979372Y-1694838D02*
X24312705Y-3123409D01*
X24312705Y-3123409D02*
X23646039Y-1694838D01*
X23646039Y-1694838D02*
X23646039Y-3694838D01*
X21836515Y-3694838D02*
X21836515Y-2647219D01*
X21836515Y-2647219D02*
X21931753Y-2456742D01*
X21931753Y-2456742D02*
X22122229Y-2361504D01*
X22122229Y-2361504D02*
X22503182Y-2361504D01*
X22503182Y-2361504D02*
X22693658Y-2456742D01*
X21836515Y-3599600D02*
X22026991Y-3694838D01*
X22026991Y-3694838D02*
X22503182Y-3694838D01*
X22503182Y-3694838D02*
X22693658Y-3599600D01*
X22693658Y-3599600D02*
X22788896Y-3409123D01*
X22788896Y-3409123D02*
X22788896Y-3218647D01*
X22788896Y-3218647D02*
X22693658Y-3028171D01*
X22693658Y-3028171D02*
X22503182Y-2932933D01*
X22503182Y-2932933D02*
X22026991Y-2932933D01*
X22026991Y-2932933D02*
X21836515Y-2837695D01*
X20979372Y-3599600D02*
X20788896Y-3694838D01*
X20788896Y-3694838D02*
X20407944Y-3694838D01*
X20407944Y-3694838D02*
X20217467Y-3599600D01*
X20217467Y-3599600D02*
X20122229Y-3409123D01*
X20122229Y-3409123D02*
X20122229Y-3313885D01*
X20122229Y-3313885D02*
X20217467Y-3123409D01*
X20217467Y-3123409D02*
X20407944Y-3028171D01*
X20407944Y-3028171D02*
X20693658Y-3028171D01*
X20693658Y-3028171D02*
X20884134Y-2932933D01*
X20884134Y-2932933D02*
X20979372Y-2742457D01*
X20979372Y-2742457D02*
X20979372Y-2647219D01*
X20979372Y-2647219D02*
X20884134Y-2456742D01*
X20884134Y-2456742D02*
X20693658Y-2361504D01*
X20693658Y-2361504D02*
X20407944Y-2361504D01*
X20407944Y-2361504D02*
X20217467Y-2456742D01*
X19265086Y-3694838D02*
X19265086Y-1694838D01*
X19074610Y-2932933D02*
X18503181Y-3694838D01*
X18503181Y-2361504D02*
X19265086Y-3123409D01*
D13*
%TO.C,M5*%
X6564600Y9991540D02*
G75*
G02*
X1414600Y9991540I-2575000J0D01*
G01*
X1414600Y9991540D02*
G75*
G02*
X6564600Y9991540I2575000J0D01*
G01*
%TO.C,M6*%
X82564600Y9991540D02*
G75*
G02*
X77414600Y9991540I-2575000J0D01*
G01*
X77414600Y9991540D02*
G75*
G02*
X82564600Y9991540I2575000J0D01*
G01*
%TO.C,M3*%
X82564600Y83991540D02*
G75*
G02*
X77414600Y83991540I-2575000J0D01*
G01*
X77414600Y83991540D02*
G75*
G02*
X82564600Y83991540I2575000J0D01*
G01*
%TO.C,M4*%
X6564600Y83991540D02*
G75*
G02*
X1414600Y83991540I-2575000J0D01*
G01*
X1414600Y83991540D02*
G75*
G02*
X6564600Y83991540I2575000J0D01*
G01*
%TD*%
D14*
%TO.C,M5*%
X3999600Y9991540D03*
%TD*%
%TO.C,M6*%
X79999600Y9991540D03*
%TD*%
D15*
%TO.C,BAT2*%
X12528200Y45005150D03*
D16*
X12528200Y36362750D03*
%TD*%
D14*
%TO.C,M3*%
X79999600Y83991540D03*
%TD*%
D17*
%TO.C,REF\u002A\u002A*%
X3999570Y89999794D03*
%TD*%
D14*
%TO.C,M4*%
X3999600Y83991540D03*
%TD*%
D15*
%TO.C,BAT1*%
X12511180Y62601390D03*
D16*
X12511180Y53958990D03*
%TD*%
D18*
%TO.C,H1*%
X64517200Y19142830D03*
D19*
X61977200Y19142830D03*
X64517200Y21682830D03*
X61977200Y21682830D03*
X64517200Y24222830D03*
X61977200Y24222830D03*
X64517200Y26762830D03*
X61977200Y26762830D03*
X64517200Y29302830D03*
X61977200Y29302830D03*
X64517200Y31842830D03*
X61977200Y31842830D03*
X64517200Y34382830D03*
X61977200Y34382830D03*
X64517200Y36922830D03*
X61977200Y36922830D03*
X64517200Y39462830D03*
X61977200Y39462830D03*
X64517200Y42002830D03*
X61977200Y42002830D03*
X64517200Y44542830D03*
X61977200Y44542830D03*
X64517200Y47082830D03*
X61977200Y47082830D03*
X64517200Y49622830D03*
X61977200Y49622830D03*
X64517200Y52162830D03*
X61977200Y52162830D03*
X64517200Y54702830D03*
X61977200Y54702830D03*
X64517200Y57242830D03*
X61977200Y57242830D03*
X64517200Y59782830D03*
X61977200Y59782830D03*
X64517200Y62322830D03*
X61977200Y62322830D03*
%TD*%
D15*
%TO.C,BAT3*%
X12528200Y27428350D03*
D16*
X12528200Y18785950D03*
%TD*%
D20*
%TO.C,RV1*%
X41234900Y61265290D03*
X41234900Y62535290D03*
%TD*%
D21*
%TO.C,C46*%
X48477200Y24415340D03*
X48477200Y25815340D03*
%TD*%
D22*
%TO.C,R91*%
X21952670Y27763424D03*
X21952670Y26763424D03*
%TD*%
D23*
%TO.C,R97*%
X26664570Y21634794D03*
X26664570Y20234794D03*
%TD*%
D24*
%TO.C,D10*%
X49702200Y53115350D03*
X49702200Y56815350D03*
%TD*%
D25*
%TO.C,R29*%
X49777200Y14400350D03*
X51177200Y14400350D03*
%TD*%
D26*
%TO.C,C52*%
X38677200Y49990350D03*
X37277200Y49990350D03*
%TD*%
D27*
%TO.C,C50*%
X49304200Y36765350D03*
X49304200Y37765350D03*
%TD*%
%TO.C,R107*%
X41127200Y22390350D03*
X41127200Y23390350D03*
%TD*%
D23*
%TO.C,C70*%
X26569570Y36779794D03*
X26569570Y35379794D03*
%TD*%
D27*
%TO.C,R9*%
X38252200Y35890350D03*
X38252200Y36890350D03*
%TD*%
D22*
%TO.C,C73*%
X24329570Y36549794D03*
X24329570Y35549794D03*
%TD*%
D28*
%TO.C,C42*%
X52402200Y22340340D03*
X52402200Y19340350D03*
%TD*%
D22*
%TO.C,R53*%
X26627200Y50940350D03*
X26627200Y49940350D03*
%TD*%
D23*
%TO.C,C60*%
X21584570Y51074794D03*
X21584570Y49674794D03*
%TD*%
D27*
%TO.C,R106*%
X41127200Y20065350D03*
X41127200Y21065350D03*
%TD*%
D22*
%TO.C,R59*%
X21984570Y62679794D03*
X21984570Y61679794D03*
%TD*%
D29*
%TO.C,C48*%
X44329200Y37165350D03*
X44329200Y35365350D03*
%TD*%
D30*
%TO.C,C45*%
X50164600Y28389710D03*
X49164600Y28389710D03*
%TD*%
D27*
%TO.C,C5*%
X39002200Y55565350D03*
X39002200Y56565350D03*
%TD*%
D26*
%TO.C,R39*%
X49827200Y41815350D03*
X48427200Y41815350D03*
%TD*%
D31*
%TO.C,U33*%
X31656480Y46344550D03*
X31656480Y45394550D03*
X31656480Y44444550D03*
X29056480Y44444550D03*
X29056480Y46344550D03*
%TD*%
D32*
%TO.C,U23*%
X27902200Y48565350D03*
X27902200Y48065350D03*
X27902200Y47565350D03*
X26602200Y47565350D03*
X26602200Y48065350D03*
X26602200Y48565350D03*
%TD*%
D26*
%TO.C,R50*%
X44727200Y52315350D03*
X43327200Y52315350D03*
%TD*%
D27*
%TO.C,C58*%
X46777200Y60565350D03*
X46777200Y61565350D03*
%TD*%
D22*
%TO.C,R113*%
X43227200Y17290350D03*
X43227200Y16290350D03*
%TD*%
D21*
%TO.C,R67*%
X22719570Y59179794D03*
X22719570Y60579794D03*
%TD*%
D22*
%TO.C,R80*%
X27977200Y42288350D03*
X27977200Y41288350D03*
%TD*%
D27*
%TO.C,C83*%
X25950690Y26763394D03*
X25950690Y27763394D03*
%TD*%
D33*
%TO.C,U1*%
X37927200Y54765340D03*
X36977200Y54765340D03*
X36027200Y54765340D03*
X36027200Y57415340D03*
X36977200Y57415340D03*
X37927200Y57415340D03*
%TD*%
D27*
%TO.C,C71*%
X28034570Y45344794D03*
X28034570Y46344794D03*
%TD*%
D31*
%TO.C,U30*%
X25464570Y33813230D03*
X25464570Y32863230D03*
X25464570Y31913230D03*
X22864570Y31913230D03*
X22864570Y33813230D03*
%TD*%
D26*
%TO.C,R11*%
X39577210Y34957030D03*
X38177210Y34957030D03*
%TD*%
D27*
%TO.C,R60*%
X33377200Y52640600D03*
X33377200Y53640600D03*
%TD*%
D34*
%TO.C,C3*%
X38377210Y33757030D03*
X39377210Y33757030D03*
%TD*%
D23*
%TO.C,C61*%
X26327300Y54340600D03*
X26327300Y52940600D03*
%TD*%
D35*
%TO.C,F1*%
X24052200Y30215350D03*
X26852200Y30215350D03*
%TD*%
D22*
%TO.C,R70*%
X26627200Y33363350D03*
X26627200Y32363350D03*
%TD*%
D27*
%TO.C,R35*%
X49627200Y24640350D03*
X49627200Y25640350D03*
%TD*%
%TO.C,R74*%
X30552200Y34365350D03*
X30552200Y35365350D03*
%TD*%
%TO.C,C62*%
X27977200Y61190350D03*
X27977200Y62190350D03*
%TD*%
D36*
%TO.C,C56*%
X46777200Y52315360D03*
X46777200Y55315350D03*
%TD*%
D22*
%TO.C,R12*%
X39527200Y36890350D03*
X39527200Y35890350D03*
%TD*%
D27*
%TO.C,R79*%
X25389570Y35559794D03*
X25389570Y36559794D03*
%TD*%
D22*
%TO.C,R52*%
X41650390Y56340350D03*
X41650390Y55340350D03*
%TD*%
%TO.C,R95*%
X27750000Y25070000D03*
X27750000Y24070000D03*
%TD*%
D28*
%TO.C,C41*%
X46202200Y22365340D03*
X46202200Y19365350D03*
%TD*%
D34*
%TO.C,R88*%
X32719570Y22994794D03*
X33719570Y22994794D03*
%TD*%
D37*
%TO.C,D6*%
X43852200Y23065340D03*
X43852200Y19365340D03*
%TD*%
D38*
%TO.C,C47*%
X46379200Y39215350D03*
X44579200Y39215350D03*
%TD*%
D23*
%TO.C,R31*%
X53152200Y30390350D03*
X53152200Y28990350D03*
%TD*%
D39*
%TO.C,U44*%
X25317220Y21524794D03*
X24817220Y21524794D03*
X24317220Y21524794D03*
X23817220Y21524794D03*
X23317220Y21524794D03*
X23317220Y25524794D03*
X23817220Y25524794D03*
X24317220Y25524794D03*
X24817220Y25524794D03*
X25317220Y25524794D03*
D40*
X24317220Y23524794D03*
%TD*%
D32*
%TO.C,U24*%
X32963280Y58140350D03*
X32963280Y57640350D03*
X32963280Y57140350D03*
X31663280Y57140350D03*
X31663280Y57640350D03*
X31663280Y58140350D03*
%TD*%
D27*
%TO.C,R41*%
X49304200Y38690350D03*
X49304200Y39690350D03*
%TD*%
D30*
%TO.C,C67*%
X26349570Y63514794D03*
X25349570Y63514794D03*
%TD*%
%TO.C,R87*%
X31652200Y23465350D03*
X30652200Y23465350D03*
%TD*%
%TO.C,R34*%
X50164600Y27364700D03*
X49164600Y27364700D03*
%TD*%
D41*
%TO.C,U2*%
X37127200Y41655350D03*
X39027200Y41655350D03*
X38077200Y39625350D03*
%TD*%
D22*
%TO.C,R30*%
X51752200Y25640340D03*
X51752200Y24640340D03*
%TD*%
D42*
%TO.C,U27*%
X32652200Y49727000D03*
X32202200Y49727000D03*
X31752200Y49727000D03*
X31302200Y49727000D03*
D43*
X31977200Y50877000D03*
%TD*%
D34*
%TO.C,C66*%
X32202200Y48727920D03*
X33202200Y48727920D03*
%TD*%
D27*
%TO.C,R56*%
X28377200Y53140350D03*
X28377200Y54140350D03*
%TD*%
D44*
%TO.C,D9*%
X47852200Y13600350D03*
X44152200Y13600350D03*
%TD*%
D39*
%TO.C,U36*%
X25625350Y39004794D03*
X25125350Y39004794D03*
X24625350Y39004794D03*
X24125350Y39004794D03*
X23625350Y39004794D03*
X23625350Y43004794D03*
X24125350Y43004794D03*
X24625350Y43004794D03*
X25125350Y43004794D03*
X25625350Y43004794D03*
D40*
X24625350Y41004794D03*
%TD*%
D27*
%TO.C,C102*%
X42544600Y29339700D03*
X42544600Y30339700D03*
%TD*%
D34*
%TO.C,R90*%
X27227200Y26536350D03*
X28227200Y26536350D03*
%TD*%
D31*
%TO.C,U25*%
X31656480Y62196550D03*
X31656480Y61246550D03*
X31656480Y60296550D03*
X29056480Y60296550D03*
X29056480Y62196550D03*
%TD*%
D45*
%TO.C,U16*%
X47883200Y33965350D03*
X47383200Y33965350D03*
X46883200Y33965350D03*
X46383200Y33965350D03*
X45883200Y33965350D03*
X45883200Y36765350D03*
X46383200Y36765350D03*
X46883200Y36765350D03*
X47383200Y36765350D03*
X47883200Y36765350D03*
D46*
X46883200Y35365350D03*
%TD*%
D27*
%TO.C,R92*%
X33377200Y19861600D03*
X33377200Y20861600D03*
%TD*%
D25*
%TO.C,C51*%
X37277200Y48727920D03*
X38677200Y48727920D03*
%TD*%
D27*
%TO.C,R68*%
X24079570Y61679794D03*
X24079570Y62679794D03*
%TD*%
D23*
%TO.C,C78*%
X26739570Y17814794D03*
X26739570Y16414794D03*
%TD*%
D27*
%TO.C,R43*%
X49329200Y33965350D03*
X49329200Y34965350D03*
%TD*%
D21*
%TO.C,R82*%
X22284570Y42079794D03*
X22284570Y43479794D03*
%TD*%
D30*
%TO.C,R72*%
X31652200Y40390350D03*
X30652200Y40390350D03*
%TD*%
D27*
%TO.C,R83*%
X24250350Y44454794D03*
X24250350Y45454794D03*
%TD*%
D22*
%TO.C,R33*%
X50702200Y25640340D03*
X50702200Y24640340D03*
%TD*%
D27*
%TO.C,R115*%
X42427200Y18450350D03*
X42427200Y19450350D03*
%TD*%
%TO.C,R98*%
X23950570Y26763294D03*
X23950570Y27763294D03*
%TD*%
D47*
%TO.C,D7*%
X38652200Y13600350D03*
X42352200Y13600350D03*
%TD*%
D21*
%TO.C,R38*%
X28177200Y31475350D03*
X28177200Y32875350D03*
%TD*%
D31*
%TO.C,U26*%
X32070490Y54590350D03*
X32070490Y53640350D03*
X32070490Y52690350D03*
X29470490Y52690350D03*
X29470490Y54590350D03*
%TD*%
D30*
%TO.C,R71*%
X22324570Y30799794D03*
X21324570Y30799794D03*
%TD*%
D27*
%TO.C,R62*%
X25277410Y53140600D03*
X25277410Y54140600D03*
%TD*%
%TO.C,C57*%
X44652200Y55340350D03*
X44652200Y56340350D03*
%TD*%
D22*
%TO.C,C6*%
X37252200Y16019560D03*
X37252200Y15019560D03*
%TD*%
%TO.C,C65*%
X23277410Y54140600D03*
X23277410Y53140600D03*
%TD*%
D31*
%TO.C,U18*%
X39249600Y47434700D03*
X39249600Y46484700D03*
X39249600Y45534700D03*
X36649600Y45534700D03*
X36649600Y47434700D03*
%TD*%
D23*
%TO.C,C54*%
X49402200Y48012140D03*
X49402200Y46612140D03*
%TD*%
D48*
%TO.C,U51*%
X43734600Y29689700D03*
X43734600Y30339700D03*
X43734600Y30989700D03*
X45934600Y30989700D03*
X45934600Y30339650D03*
X45934600Y29689700D03*
%TD*%
D22*
%TO.C,R108*%
X33177320Y27565350D03*
X33177320Y26565350D03*
%TD*%
D23*
%TO.C,R13*%
X40277200Y17390350D03*
X40277200Y15990350D03*
%TD*%
D22*
%TO.C,C2*%
X39027200Y38815350D03*
X39027200Y37815350D03*
%TD*%
D49*
%TO.C,D5*%
X51439700Y16465350D03*
D50*
X48889700Y16465350D03*
%TD*%
D23*
%TO.C,C43*%
X43852200Y26690350D03*
X43852200Y25290350D03*
%TD*%
D42*
%TO.C,U43*%
X32902200Y16948000D03*
X32452200Y16948000D03*
X32002200Y16948000D03*
X31552200Y16948000D03*
D43*
X32227200Y18098000D03*
%TD*%
D32*
%TO.C,U31*%
X29460980Y35365340D03*
X29460980Y34865340D03*
X29460980Y34365340D03*
X28160980Y34365340D03*
X28160980Y34865340D03*
X28160980Y35365340D03*
%TD*%
D25*
%TO.C,C49*%
X29402200Y29800350D03*
X30802200Y29800350D03*
%TD*%
D22*
%TO.C,R40*%
X47454200Y39690350D03*
X47454200Y38690350D03*
%TD*%
D26*
%TO.C,R45*%
X41977200Y46490350D03*
X40577200Y46490350D03*
%TD*%
D34*
%TO.C,R58*%
X27227200Y59315350D03*
X28227200Y59315350D03*
%TD*%
D30*
%TO.C,R66*%
X32202200Y47690350D03*
X31202200Y47690350D03*
%TD*%
D27*
%TO.C,R1*%
X48219600Y27364700D03*
X48219600Y28364700D03*
%TD*%
D22*
%TO.C,C64*%
X24277410Y54140600D03*
X24277410Y53140600D03*
%TD*%
%TO.C,C4*%
X37127200Y38815350D03*
X37127200Y37815350D03*
%TD*%
D27*
%TO.C,R65*%
X26149570Y61699794D03*
X26149570Y62699794D03*
%TD*%
D34*
%TO.C,R75*%
X27227200Y43463350D03*
X28227200Y43463350D03*
%TD*%
D32*
%TO.C,U32*%
X32963280Y42288350D03*
X32963280Y41788350D03*
X32963280Y41288350D03*
X31663280Y41288350D03*
X31663280Y41788350D03*
X31663280Y42288350D03*
%TD*%
D29*
%TO.C,R104*%
X40652200Y43465350D03*
X40652200Y41665350D03*
%TD*%
D22*
%TO.C,C74*%
X23277410Y36563600D03*
X23277410Y35563600D03*
%TD*%
D31*
%TO.C,U17*%
X31977200Y33090350D03*
X31977200Y32140350D03*
X31977200Y31190350D03*
X29377200Y31190350D03*
X29377200Y33090350D03*
%TD*%
D23*
%TO.C,R47*%
X49402200Y50287140D03*
X49402200Y48887140D03*
%TD*%
D22*
%TO.C,C76*%
X25250350Y45456794D03*
X25250350Y44456794D03*
%TD*%
D30*
%TO.C,R10*%
X38577200Y43090350D03*
X37577200Y43090350D03*
%TD*%
D25*
%TO.C,C53*%
X44877200Y43487140D03*
X46277200Y43487140D03*
%TD*%
D51*
%TO.C,U15*%
X45277200Y27290350D03*
X46227200Y27290350D03*
X47177200Y27290350D03*
X47177200Y24640350D03*
X46227200Y24640350D03*
X45277200Y24640350D03*
%TD*%
D27*
%TO.C,R51*%
X43577200Y55340350D03*
X43577200Y56340350D03*
%TD*%
D26*
%TO.C,R46*%
X38677200Y51465350D03*
X37277200Y51465350D03*
%TD*%
D30*
%TO.C,C79*%
X28227200Y27715350D03*
X27227200Y27715350D03*
%TD*%
D28*
%TO.C,C40*%
X49256200Y22365340D03*
X49256200Y19365350D03*
%TD*%
D49*
%TO.C,D8*%
X46952200Y16465350D03*
D50*
X44402200Y16465350D03*
%TD*%
D17*
%TO.C,FID9*%
X79999600Y3991540D03*
%TD*%
D31*
%TO.C,U41*%
X31981480Y28442550D03*
X31981480Y27492550D03*
X31981480Y26542550D03*
X29381480Y26542550D03*
X29381480Y28442550D03*
%TD*%
D52*
%TO.C,NF2*%
X28481561Y13813707D03*
%TD*%
D23*
%TO.C,C69*%
X21584570Y33494794D03*
X21584570Y32094794D03*
%TD*%
D30*
%TO.C,R55*%
X31652200Y56215350D03*
X30652200Y56215350D03*
%TD*%
D33*
%TO.C,U20*%
X47727200Y56790350D03*
X46777200Y56790350D03*
X45827200Y56790350D03*
X45827200Y59440350D03*
X46777200Y59440350D03*
X47727200Y59440350D03*
%TD*%
D27*
%TO.C,R93*%
X22504570Y17634794D03*
X22504570Y18634794D03*
%TD*%
D17*
%TO.C,FID13*%
X19564570Y13604794D03*
%TD*%
D52*
%TO.C,NF1*%
X25956344Y13800486D03*
%TD*%
D24*
%TO.C,D4*%
X53152200Y24090340D03*
X53152200Y27790340D03*
%TD*%
D53*
%TO.C,U45*%
X29352200Y24336350D03*
X29352200Y24836350D03*
X29352200Y25336350D03*
X30652200Y25336350D03*
X30652200Y24836350D03*
X30652200Y24336350D03*
%TD*%
D27*
%TO.C,C63*%
X23034570Y61679794D03*
X23034570Y62679794D03*
%TD*%
D53*
%TO.C,U37*%
X29327200Y41288350D03*
X29327200Y41788350D03*
X29327200Y42288350D03*
X30627200Y42288350D03*
X30627200Y41788350D03*
X30627200Y41288350D03*
%TD*%
D54*
%TO.C,J1*%
X54749600Y74029700D03*
X52459600Y74029700D03*
X20859600Y74029700D03*
D55*
X18572137Y74027305D03*
D54*
X53039600Y78929700D03*
X53034600Y82929700D03*
%TD*%
D32*
%TO.C,U40*%
X32963280Y25361350D03*
X32963280Y24861350D03*
X32963280Y24361350D03*
X31663280Y24361350D03*
X31663280Y24861350D03*
X31663280Y25361350D03*
%TD*%
D22*
%TO.C,C84*%
X24950570Y27763294D03*
X24950570Y26763294D03*
%TD*%
D27*
%TO.C,C72*%
X23250350Y44454924D03*
X23250350Y45454924D03*
%TD*%
D31*
%TO.C,U34*%
X32070490Y38738350D03*
X32070490Y37788350D03*
X32070490Y36838350D03*
X29470490Y36838350D03*
X29470490Y38738350D03*
%TD*%
D30*
%TO.C,R64*%
X33927200Y47665350D03*
X32927200Y47665350D03*
%TD*%
D34*
%TO.C,R99*%
X28352200Y23215350D03*
X29352200Y23215350D03*
%TD*%
D27*
%TO.C,R89*%
X34077200Y14640350D03*
X34077200Y15640350D03*
%TD*%
D56*
%TO.C,U3*%
X40782210Y26662030D03*
X39512210Y26662030D03*
X38242210Y26662030D03*
X36972210Y26662030D03*
X36972210Y32472030D03*
X38242210Y32472030D03*
X39512210Y32472030D03*
X40782210Y32472030D03*
D57*
X38877210Y29567030D03*
%TD*%
D31*
%TO.C,U19*%
X47477200Y47562140D03*
X47477200Y46612140D03*
X47477200Y45662140D03*
X44877200Y45662140D03*
X44877200Y47562140D03*
%TD*%
D34*
%TO.C,C1*%
X36952200Y58715350D03*
X37952200Y58715350D03*
%TD*%
D58*
%TO.C,U35*%
X33377200Y35713230D03*
X33377200Y35263230D03*
X33377200Y34813230D03*
X33377200Y34363230D03*
D59*
X32227200Y35038230D03*
%TD*%
D53*
%TO.C,U29*%
X29327200Y57140350D03*
X29327200Y57640350D03*
X29327200Y58140350D03*
X30627200Y58140350D03*
X30627200Y57640350D03*
X30627200Y57140350D03*
%TD*%
D22*
%TO.C,R117*%
X35677200Y20065350D03*
X35677200Y19065350D03*
%TD*%
D27*
%TO.C,R44*%
X33177200Y31207030D03*
X33177200Y32207030D03*
%TD*%
D23*
%TO.C,R49*%
X49302200Y61765350D03*
X49302200Y60365350D03*
%TD*%
D27*
%TO.C,R94*%
X25464570Y17629794D03*
X25464570Y18629794D03*
%TD*%
D22*
%TO.C,R76*%
X22252450Y45454924D03*
X22252450Y44454924D03*
%TD*%
D30*
%TO.C,R81*%
X26057720Y46481238D03*
X25057720Y46481238D03*
%TD*%
D17*
%TO.C,FID14*%
X49999600Y63241540D03*
%TD*%
D31*
%TO.C,U42*%
X32070490Y21811350D03*
X32070490Y20861350D03*
X32070490Y19911350D03*
X29470490Y19911350D03*
X29470490Y21811350D03*
%TD*%
D27*
%TO.C,R78*%
X22224570Y35559794D03*
X22224570Y36559794D03*
%TD*%
D60*
%TO.C,U21*%
X44569600Y58699700D03*
X44569600Y58049700D03*
X44569600Y57399700D03*
X42369600Y57399700D03*
X42369600Y58049750D03*
X42369600Y58699700D03*
%TD*%
D30*
%TO.C,R96*%
X25999570Y28614794D03*
X24999570Y28614794D03*
%TD*%
D27*
%TO.C,R73*%
X28377200Y37290350D03*
X28377200Y38290350D03*
%TD*%
D32*
%TO.C,U39*%
X32777200Y15636350D03*
X32777200Y15136350D03*
X32777200Y14636350D03*
X31477200Y14636350D03*
X31477200Y15136350D03*
X31477200Y15636350D03*
%TD*%
D27*
%TO.C,R42*%
X48379200Y38690350D03*
X48379200Y39690350D03*
%TD*%
D22*
%TO.C,C82*%
X23484570Y18629794D03*
X23484570Y17629794D03*
%TD*%
D27*
%TO.C,R116*%
X41127200Y18290350D03*
X41127200Y19290350D03*
%TD*%
D26*
%TO.C,R48*%
X43877200Y43465350D03*
X42477200Y43465350D03*
%TD*%
D27*
%TO.C,R57*%
X29181490Y47565350D03*
X29181490Y48565350D03*
%TD*%
D22*
%TO.C,R36*%
X47134600Y29689700D03*
X47134600Y28689700D03*
%TD*%
D39*
%TO.C,U28*%
X25760350Y56169794D03*
X25260350Y56169794D03*
X24760350Y56169794D03*
X24260350Y56169794D03*
X23760350Y56169794D03*
X23760350Y60169794D03*
X24260350Y60169794D03*
X24760350Y60169794D03*
X25260350Y60169794D03*
X25760350Y60169794D03*
D40*
X24760350Y58169794D03*
%TD*%
D27*
%TO.C,C80*%
X22950570Y26763424D03*
X22950570Y27763424D03*
%TD*%
D31*
%TO.C,U22*%
X25469570Y51394794D03*
X25469570Y50444794D03*
X25469570Y49494794D03*
X22869570Y49494794D03*
X22869570Y51394794D03*
%TD*%
D23*
%TO.C,C55*%
X49302200Y59440350D03*
X49302200Y58040350D03*
%TD*%
D27*
%TO.C,R61*%
X22277290Y53140600D03*
X22277290Y54140600D03*
%TD*%
D22*
%TO.C,R63*%
X27977200Y58140350D03*
X27977200Y57140350D03*
%TD*%
D27*
%TO.C,C75*%
X26219570Y44464794D03*
X26219570Y45464794D03*
%TD*%
D44*
%TO.C,D1*%
X42327200Y11700350D03*
X38627200Y11700350D03*
%TD*%
D34*
%TO.C,R110*%
X28419570Y18694794D03*
X29419570Y18694794D03*
%TD*%
D22*
%TO.C,C81*%
X24454570Y18629794D03*
X24454570Y17629794D03*
%TD*%
D30*
%TO.C,R84*%
X28852200Y40288350D03*
X27852200Y40288350D03*
%TD*%
D47*
%TO.C,D3*%
X44152200Y11700350D03*
X47852200Y11700350D03*
%TD*%
D30*
%TO.C,R54*%
X24552200Y48290350D03*
X23552200Y48290350D03*
%TD*%
D61*
%TO.C,U4*%
X36927200Y23294560D03*
X37577200Y23294560D03*
X38227200Y23294560D03*
X38877200Y23294560D03*
X38877200Y17394560D03*
X38227200Y17394560D03*
X37577200Y17394560D03*
X36927200Y17394560D03*
%TD*%
D30*
%TO.C,R69*%
X28838630Y56140350D03*
X27838630Y56140350D03*
%TD*%
D27*
%TO.C,R77*%
X33377200Y36788600D03*
X33377200Y37788600D03*
%TD*%
D22*
%TO.C,C68*%
X25119570Y62679794D03*
X25119570Y61679794D03*
%TD*%
M02*
